<?xml version="1.0" encoding="UTF-8"?>
<svg width="160px" height="96px" viewBox="0 0 160 96" version="1.1" xmlns="http://www.w3.org/2000/svg" xmlns:xlink="http://www.w3.org/1999/xlink">
    <!-- Generator: Sketch 58 (84663) - https://sketch.com -->
    <title>circuit-gs-Red-Bull-L-Eng</title>
    <desc>Created with Sketch.</desc>
    <defs>
        <linearGradient x1="50%" y1="23.3035083%" x2="50%" y2="112.667183%" id="linearGradient-1">
            <stop stop-color="#1B94E2" offset="0%"></stop>
            <stop stop-color="#40D8AB" offset="100%"></stop>
        </linearGradient>
    </defs>
    <g id="circuit-gs-Red-Bull-L-Eng" stroke="none" stroke-width="1" fill="none" fill-rule="evenodd">
        <g id="Austria-Circuit">
            <g id="Group-5" transform="translate(8.960000, 8.106667)">
                <path d="M69.6320667,71.5908781 L70.4854,71.5908781 C70.4854,71.3551006 70.4703262,71.3440223 70.3520943,71.2857908 C70.4036139,71.3111652 70.4907089,71.3471415 70.6095025,71.3916262 C70.8384842,71.4773731 71.1717356,71.5901687 71.6487976,71.7445505 C71.7624535,71.7813307 74.1001378,72.5236393 74.8598332,72.7734206 C75.3677735,72.9404269 75.8277944,73.0958879 76.2522825,73.2446927 C76.8725285,73.4621207 77.4095847,73.6628263 77.8658158,73.8496177 C78.3401719,74.0438298 78.8063239,74.2560848 79.4819906,74.5787721 C82.5513128,76.0446302 83.4227691,76.296705 84.0664113,75.6909903 C84.6837604,75.0343995 87.2548061,72.7308943 92.0637885,68.5053667 C94.8642102,66.0447091 106.844771,55.5669642 107.227196,55.2320587 C107.377575,55.1003629 107.377575,55.1003629 107.527945,54.9686612 C121.436638,42.7864707 128.793118,36.1993023 130.210434,34.5318928 C130.266609,34.4642067 130.470844,34.218342 130.514374,34.1659024 C132.440076,31.8460373 133.291535,30.6310907 133.896652,29.0904722 C134.677929,27.1013537 134.668546,25.0808513 133.731376,22.812342 C132.180748,19.756032 129.85515,15.8652174 126.755526,11.1427305 L127.468919,10.6744917 C130.584484,15.421265 132.92532,19.3375737 134.506128,22.4561809 C135.541967,24.9598495 135.552412,27.2090821 134.690915,29.4024394 C134.041728,31.0552614 133.153788,32.3222624 131.170968,34.7109362 C131.127301,34.7635405 130.923102,35.0093618 130.863854,35.0807051 C129.399349,36.803678 122.093163,43.3458112 108.090185,55.6105835 C107.939791,55.7423058 107.939791,55.7423058 107.78939,55.8740215 C107.406282,56.2095252 95.4265871,66.6865123 92.6270451,69.146397 C87.8621893,73.3331516 85.2761831,75.6500606 84.6699336,76.2937154 C84.0488374,76.87924 83.205725,76.948067 82.1142386,76.632347 C81.3733239,76.4180323 81.0582348,76.2772164 79.1142397,75.3487962 C78.4520343,75.0325377 77.9984594,74.8260095 77.5424914,74.6393259 C77.1014148,74.4587392 76.5774734,74.2629347 75.9699881,74.04998 C75.5511989,73.903173 75.0963048,73.7494445 74.5933016,73.5840615 C73.8386243,73.3359302 71.5036036,72.5944673 71.3860654,72.5564308 C70.8975073,72.3983287 70.5544944,72.2822292 70.3102481,72.1907661 C70.1672165,72.137205 70.0571099,72.0917233 69.9750602,72.0513122 C69.7122933,71.8789752 69.6320667,71.7808916 69.6320667,71.5908781 Z" id="Path-21" fill="#E6E6E6" fill-rule="nonzero"></path>
                <path d="M74.754242,76.6646979 C75.1735665,76.8793705 68.6733906,73.7014097 66.135496,72.3266426 C61.4088993,69.7662645 53.0375328,64.7886073 50.4795618,63.0031502 C48.2482475,61.4456986 45.7823194,59.5552054 42.7935891,57.161142 C42.0699232,56.6194022 35.7149844,51.4684883 33.18273,49.595693 C31.354371,48.243482 29.6176719,47.0509504 27.9396429,46.011711 C22.9466571,42.9194476 11.2468814,38.5806072 3.11487894,36.1862136 C1.79746889,35.8353764 0.885919704,35.3612859 0.403362682,34.565866 C-0.281446448,33.4370651 0.169102185,32.242526 1.35286745,31.2013649 C6.05166687,27.0042563 11.515666,23.7970833 18.6518097,21.0096994 C20.3029768,20.3139752 23.0969732,19.4408208 26.9971533,18.3613049 C27.8166989,18.1344659 28.6826584,17.8992273 29.605828,17.6522555 C31.8053059,17.0638381 38.4906953,15.332466 39.2654228,15.125711 C45.175892,13.5483575 69.5902731,4.85287694 73.4253651,2.81567817 C75.8949095,1.50385757 77.8957795,1.7497511 79.0594017,3.3791322 C79.7601672,4.36039066 80.0087944,5.61905189 80.0087944,6.83511726 C79.4810649,13.4385927 77.1420336,18.3489233 73.4864636,21.8627105 C71.0141712,24.2391142 68.3992855,25.6300504 65.6944009,26.5160451 C61.9362968,28.0684344 60.9706763,28.3585527 52.7699309,30.45851 C49.4233885,31.1079566 47.5125809,32.2929688 46.1138992,34.2058041 C44.9170385,36.6568793 44.8548261,38.7250068 45.6419655,40.5350116 C46.2240086,41.8734032 47.2059223,42.9624414 48.4473664,43.9034219 C52.158623,46.9476231 56.9509157,50.5721243 59.910319,52.3161611 C61.61581,53.3212417 64.010014,53.5327113 65.99555,52.7420508 C68.3387141,51.8089793 69.9737607,49.6159619 70.505208,46.0529491 C71.3943642,40.9054277 74.1217834,36.8977563 78.1530389,33.7776223 C79.508179,32.7287633 80.933446,31.8384315 82.4900249,31.0148446 C83.3084845,30.581797 85.2285545,29.6563063 85.3040499,29.6164965 C86.0665347,29.2144281 100.078533,22.0613981 103.345384,20.3876732 C111.353335,16.2842817 116.789446,13.4686415 119.553872,11.9793624 C122.26701,10.2694017 124.773853,9.95093804 127.008318,10.7949139 C128.543786,11.3748731 129.565635,12.2431875 130.804741,13.6561302 C133.664583,17.1883632 136.251608,20.119932 139.291266,22.9414218 C141.668123,25.4339104 141.778784,27.5205536 140.525883,29.6535009 C140.444985,29.7912224 140.188242,30.2069807 140.195638,30.1942112 C137.901635,33.786525 135.402927,36.860434 131.328447,40.7317746 C128.919636,42.5867319 91.8990646,75.2461526 87.933009,78.9658754 C84.8193034,81.8861881 83.1438511,82.2859144 81.3353689,80.9132389 C81.1274289,80.7541305 81.0905202,80.7262595 81.0472234,80.694246 C79.8639571,79.8055106 77.8117576,78.4063763 76.3088829,77.4985478 C75.8326091,77.2286517 75.326041,76.9574296 74.754242,76.6646979 Z M3.80574856,33.7214237 C12.1863699,36.188555 24.0362504,40.5830615 29.2875416,43.835299 C31.0302521,44.914597 32.8235861,46.1460179 34.7049645,47.5374408 C37.3425478,49.4881349 43.8485541,54.7644086 44.3265295,55.1109206 C47.3321906,57.5169986 49.7654504,59.3827611 51.9448027,60.9039434 C54.4095795,62.6243512 62.7057061,67.5572704 67.3548318,70.0756827 C69.8364177,71.4199476 76.2977378,74.5789117 75.9208394,74.3859591 C76.5293937,74.6975077 77.0722873,74.9883292 77.5871136,75.2804307 C79.1987002,76.2522707 81.3312964,77.7059397 82.576081,78.6409363 C82.8120458,78.8198502 82.8508048,78.8495772 82.883116,78.8741021 C83.2052256,79.11859 83.2441278,79.132443 83.4159248,79.091456 C83.9350247,78.9676101 84.8340514,78.3625996 86.1817324,77.0986234 C90.1759819,73.3524577 126.73972,41.0944323 129.610454,38.8327936 C133.502923,35.1292874 135.860921,32.2256793 138.023057,28.8404424 C138.013831,28.8556193 138.25459,28.4657435 138.31853,28.3568931 C139.018281,27.1656322 138.978573,26.3312299 137.519881,24.7900359 C135.735776,23.1316688 133.936499,21.2513879 132.148452,19.2252061 C130.930071,17.8445592 130.003657,16.7337626 128.863564,15.3252979 C127.889353,14.2168668 127.136489,13.5798487 126.103758,13.1897775 C124.636289,12.6355024 122.954634,12.8528009 120.88634,14.1656662 C118.033776,15.7072198 112.575149,18.5347265 104.755602,22.5415873 C101.221061,24.3524686 87.2430786,31.4881338 86.4981292,31.8809556 C86.3675811,31.9497953 84.4496608,32.8742499 83.6872676,33.2776326 C82.2518433,34.0371166 80.9478621,34.851684 79.7199391,35.8020787 C76.1609521,38.5566837 73.7983063,42.0283568 73.0325416,46.459535 C72.3753702,50.8683059 70.1604832,53.8390384 66.9426391,55.1204163 C64.2115488,56.207964 60.9890137,55.9233315 58.61057,54.5216661 C55.5056782,52.6918901 50.651522,49.0214586 46.8809442,45.9283798 C45.329623,44.7487416 44.0768711,43.3553283 43.294352,41.5559477 C42.1922019,39.0215847 42.2937831,36.1333282 43.8678076,32.9723946 C45.7565066,30.3062919 48.2382203,28.7367191 52.1713475,27.9691896 C60.2622025,25.8972544 61.1114218,25.6401786 64.7618474,24.1314445 C67.2399421,23.3214406 69.544115,22.1012818 71.7124159,20.0170793 C74.9085284,16.9449292 76.9670929,12.6344665 77.4485559,6.78602076 C77.4416285,6.0715071 77.2837928,5.29775219 76.9761101,4.86691447 C76.6363406,4.39114662 76.0517595,4.31930553 74.6263134,5.07650176 C70.5895866,7.22080883 46.0075103,15.9760161 39.9255192,17.5991444 C39.1383524,17.8092192 32.4539683,19.5403309 30.267428,20.1252871 C29.3510285,20.3704477 28.4920851,20.6037805 27.68005,20.8285406 C23.8846537,21.8790538 21.162735,22.7296832 19.6145964,23.3815141 C12.7173053,26.0760627 7.51529518,29.1294576 3.05093944,33.1171038 C2.9480487,33.207604 2.86295277,33.2911499 2.79524842,33.366555 C2.99404846,33.4635897 3.33430043,33.5955935 3.80574856,33.7214237 Z" id="Path-20" fill="#EBEBEB" fill-rule="nonzero"></path>
                <path d="M74.754242,75.3846979 C75.1735665,75.5993705 68.6733906,72.4214097 66.135496,71.0466426 C61.4088993,68.4862645 53.0375328,63.5086073 50.4795618,61.7231502 C48.2482475,60.1656986 45.7823194,58.2752054 42.7935891,55.881142 C42.0699232,55.3394022 35.7149844,50.1884883 33.18273,48.315693 C31.354371,46.963482 29.6176719,45.7709504 27.9396429,44.731711 C22.9466571,41.6394476 11.2468814,37.3006072 3.11487894,34.9062136 C1.79746889,34.5553764 0.885919704,34.0812859 0.403362682,33.285866 C-0.281446448,32.1570651 0.169102185,30.962526 1.35286745,29.9213649 C6.05166687,25.7242563 11.515666,22.5170833 18.6518097,19.7296994 C20.3029768,19.0339752 23.0969732,18.1608208 26.9971533,17.0813049 C27.8166989,16.8544659 28.6826584,16.6192273 29.605828,16.3722555 C31.8053059,15.7838381 38.4906953,14.052466 39.2654228,13.845711 C45.175892,12.2683575 69.5902731,3.57287694 73.4253651,1.53567817 C75.8949095,0.22385757 77.8957795,0.469751099 79.0594017,2.0991322 C79.7601672,3.08039066 80.0087944,4.33905189 80.0087944,5.55511726 C79.4810649,12.1585927 77.1420336,17.0689233 73.4864636,20.5827105 C71.0141712,22.9591142 68.3992855,24.3500504 65.6944009,25.2360451 C61.9362968,26.7884344 60.9706763,27.0785527 52.7699309,29.17851 C49.4233885,29.8279566 47.5125809,31.0129688 46.1138992,32.9258041 C44.9170385,35.3768793 44.8548261,37.4450068 45.6419655,39.2550116 C46.2240086,40.5934032 47.2059223,41.6824414 48.4473664,42.6234219 C52.158623,45.6676231 56.9509157,49.2921243 59.910319,51.0361611 C61.61581,52.0412417 64.010014,52.2527113 65.99555,51.4620508 C68.3387141,50.5289793 69.9737607,48.3359619 70.505208,44.7729491 C71.3943642,39.6254277 74.1217834,35.6177563 78.1530389,32.4976223 C79.508179,31.4487633 80.933446,30.5584315 82.4900249,29.7348446 C83.3084845,29.301797 85.2285545,28.3763063 85.3040499,28.3364965 C86.0665347,27.9344281 100.078533,20.7813981 103.345384,19.1076732 C111.353335,15.0042817 116.789446,12.1886415 119.553872,10.6993624 C122.26701,8.98940172 124.773853,8.67093804 127.008318,9.51491386 C128.543786,10.0948731 129.565635,10.9631875 130.804741,12.3761302 C133.664583,15.9083632 136.251608,18.839932 139.291266,21.6614218 C141.668123,24.1539104 141.778784,26.2405536 140.525883,28.3735009 C140.444985,28.5112224 140.188242,28.9269807 140.195638,28.9142112 C137.901635,32.506525 135.402927,35.580434 131.328447,39.4517746 C128.919636,41.3067319 91.8990646,73.9661526 87.933009,77.6858754 C84.8193034,80.6061881 83.1438511,81.0059144 81.3353689,79.6332389 C81.1274289,79.4741305 81.0905202,79.4462595 81.0472234,79.414246 C79.8639571,78.5255106 77.8117576,77.1263763 76.3088829,76.2185478 C75.8326091,75.9486517 75.326041,75.6774296 74.754242,75.3846979 Z M3.80574856,32.4414237 C12.1863699,34.908555 24.0362504,39.3030615 29.2875416,42.555299 C31.0302521,43.634597 32.8235861,44.8660179 34.7049645,46.2574408 C37.3425478,48.2081349 43.8485541,53.4844086 44.3265295,53.8309206 C47.3321906,56.2369986 49.7654504,58.1027611 51.9448027,59.6239434 C54.4095795,61.3443512 62.7057061,66.2772704 67.3548318,68.7956827 C69.8364177,70.1399476 76.2977378,73.2989117 75.9208394,73.1059591 C76.5293937,73.4175077 77.0722873,73.7083292 77.5871136,74.0004307 C79.1987002,74.9722707 81.3312964,76.4259397 82.576081,77.3609363 C82.8120458,77.5398502 82.8508048,77.5695772 82.883116,77.5941021 C83.2052256,77.83859 83.2441278,77.852443 83.4159248,77.811456 C83.9350247,77.6876101 84.8340514,77.0825996 86.1817324,75.8186234 C90.1759819,72.0724577 126.73972,39.8144323 129.610454,37.5527936 C133.502923,33.8492874 135.860921,30.9456793 138.023057,27.5604424 C138.013831,27.5756193 138.25459,27.1857435 138.31853,27.0768931 C139.018281,25.8856322 138.978573,25.0512299 137.519881,23.5100359 C135.735776,21.8516688 133.936499,19.9713879 132.148452,17.9452061 C130.930071,16.5645592 130.003657,15.4537626 128.863564,14.0452979 C127.889353,12.9368668 127.136489,12.2998487 126.103758,11.9097775 C124.636289,11.3555024 122.954634,11.5728009 120.88634,12.8856662 C118.033776,14.4272198 112.575149,17.2547265 104.755602,21.2615873 C101.221061,23.0724686 87.2430786,30.2081338 86.4981292,30.6009556 C86.3675811,30.6697953 84.4496608,31.5942499 83.6872676,31.9976326 C82.2518433,32.7571166 80.9478621,33.571684 79.7199391,34.5220787 C76.1609521,37.2766837 73.7983063,40.7483568 73.0325416,45.179535 C72.3753702,49.5883059 70.1604832,52.5590384 66.9426391,53.8404163 C64.2115488,54.927964 60.9890137,54.6433315 58.61057,53.2416661 C55.5056782,51.4118901 50.651522,47.7414586 46.8809442,44.6483798 C45.329623,43.4687416 44.0768711,42.0753283 43.294352,40.2759477 C42.1922019,37.7415847 42.2937831,34.8533282 43.8678076,31.6923946 C45.7565066,29.0262919 48.2382203,27.4567191 52.1713475,26.6891896 C60.2622025,24.6172544 61.1114218,24.3601786 64.7618474,22.8514445 C67.2399421,22.0414406 69.544115,20.8212818 71.7124159,18.7370793 C74.9085284,15.6649292 76.9670929,11.3544665 77.4485559,5.50602076 C77.4416285,4.7915071 77.2837928,4.01775219 76.9761101,3.58691447 C76.6363406,3.11114662 76.0517595,3.03930553 74.6263134,3.79650176 C70.5895866,5.94080883 46.0075103,14.6960161 39.9255192,16.3191444 C39.1383524,16.5292192 32.4539683,18.2603309 30.267428,18.8452871 C29.3510285,19.0904477 28.4920851,19.3237805 27.68005,19.5485406 C23.8846537,20.5990538 21.162735,21.4496832 19.6145964,22.1015141 C12.7173053,24.7960627 7.51529518,27.8494576 3.05093944,31.8371038 C2.9480487,31.927604 2.86295277,32.0111499 2.79524842,32.086555 C2.99404846,32.1835897 3.33430043,32.3155935 3.80574856,32.4414237 Z" id="Path-20" fill="#F2F2F2" fill-rule="nonzero"></path>
                <path d="M75.0458914,74.8150132 C75.4546093,75.0242558 68.9641474,71.8510441 66.44033,70.4839026 C61.733101,67.934016 53.3805445,62.9675432 50.8458721,61.1983485 C48.6240671,59.6475344 46.1620921,57.7597538 43.199595,55.385404 C42.6677659,54.9998504 36.152249,49.7158636 33.5632886,47.8011299 C31.7216747,46.439116 29.9708169,45.236862 28.2766176,44.187608 C23.2190554,41.0553511 11.4817535,36.7025941 3.2795761,34.2877681 C2.11046176,33.9764233 1.32213224,33.5664184 0.950541548,32.9539092 C0.462471506,32.149402 0.796933218,31.262644 1.77921656,30.3986766 C6.41757394,26.2555567 11.8160758,23.0868281 18.9003166,20.3194827 C20.5179163,19.6379022 23.2938933,18.7703791 27.1678774,17.6981138 C27.9855454,17.4717946 28.8497509,17.2370324 29.771228,16.9905134 C31.9674715,16.4029613 38.6526096,14.6716543 39.4304469,14.4640694 C45.3837966,12.8752721 69.8401015,4.16485991 73.7256022,2.10088407 C75.934122,0.92771956 77.5809198,1.13009998 78.5385788,2.47107777 C79.142839,3.31720301 79.3687944,4.46108981 79.3687944,5.55511726 C78.8557151,11.9509711 76.5860994,16.7155774 73.0429517,20.1213027 C70.6429697,22.4282005 68.1016645,23.7770387 65.4724426,24.6352767 C61.7306842,26.1813427 60.8008831,26.4613794 52.5739144,28.5668783 C49.1190398,29.2349532 47.061594,30.5225986 45.5637466,32.59416 C44.261595,35.2335407 44.186807,37.5137174 45.0550622,39.5102456 C45.6880656,40.9658192 46.7395435,42.132011 48.080158,43.1487577 C51.7778225,46.1830379 56.5883194,49.8213073 59.5853818,51.5875373 C61.4591109,52.6917641 64.0603977,52.9215245 66.2323223,52.0566422 C68.7941564,51.036494 70.5741631,48.6490479 71.1358685,44.8818861 C71.9953497,39.9061599 74.6315755,36.0324882 78.544764,33.0037364 C79.8680998,31.9794935 81.2630454,31.1081028 82.7893355,30.3005416 C83.5937785,29.8749102 85.5133111,28.9496785 85.6025697,28.9026113 C86.3606707,28.5028546 100.364165,21.3541657 103.637209,19.6772684 C111.667728,15.562312 117.113051,12.7418 119.876875,11.2523144 C122.432398,9.63608056 124.736538,9.34097463 126.782178,10.1136298 C128.193414,10.6466655 129.148679,11.4584009 130.33988,12.8174763 C133.184899,16.3329862 135.788226,19.2830288 138.883939,22.158209 C140.99561,24.375744 141.089706,26.150039 139.974044,28.0493489 C139.897386,28.1798527 139.64464,28.5891404 139.656238,28.569758 C137.389361,32.119595 134.923354,35.1532747 130.887612,38.9878082 C128.509318,40.814856 91.4756252,73.4858529 87.4951899,77.2190624 C84.5834348,79.9499677 83.2350539,80.2716619 81.7223057,79.1234547 C81.5136181,78.9637687 81.4740272,78.9338723 81.4315792,78.902513 C80.2298298,77.9998953 78.1551207,76.5855505 76.6321694,75.6661316 C76.1451846,75.389993 75.6283845,75.1132198 75.0458914,74.8150132 Z M119.857393,11.2646582 L119.896664,11.2416477 C119.890083,11.2451956 119.883486,11.2487512 119.876875,11.2523144 C119.870384,11.2564193 119.863889,11.2605345 119.857393,11.2646582 Z M77.496933,3.2149689 C76.9512003,2.45079774 76.012547,2.33544354 74.3260763,3.23129586 C70.3397582,5.34882586 45.7996057,14.0891014 39.7604951,15.7007861 C38.9764381,15.9100309 32.2918027,17.6412077 30.102028,18.2270292 C29.183936,18.4726426 28.3232386,18.7064518 27.5093258,18.9317316 C23.6877336,19.9894956 20.9477954,20.8457562 19.38171,21.50539 C12.4168955,24.2263178 7.1493881,27.3181573 2.62825255,31.356546 C2.05259528,31.8628801 1.95030742,32.1340758 2.04489928,32.2899957 C2.19455731,32.5366836 2.7364475,32.818517 3.62501091,33.0553732 C11.9514977,35.506568 23.7638521,39.8871581 28.950567,43.099402 C30.677107,44.1686854 32.4562823,45.3903839 34.3244059,46.7720038 C36.9457815,48.7107111 43.454958,53.9895559 43.9753942,54.3677666 C46.9421577,56.7445837 49.3849893,58.6176855 51.5784925,60.1487451 C54.0665678,61.8854152 62.3815044,66.829519 67.0499978,69.3584227 C69.5456609,70.7103131 76.016695,73.8740264 75.6291901,73.6756438 C76.2300491,73.9832528 76.7650123,74.2698261 77.2712855,74.5570748 C78.8486149,75.5085136 80.9634965,76.9501076 82.1960079,77.8758581 C82.4220187,78.0472762 82.4623602,78.0782169 82.4961793,78.1038863 C82.955741,78.4527032 83.1684694,78.5284557 83.5644465,78.4339842 C84.2188413,78.2778598 85.1971374,77.6195041 86.6195516,76.2854364 C90.6137879,72.539283 127.412599,40.0746682 130.029534,38.0374526 C133.973752,34.2872108 136.369196,31.33887 138.569948,27.8928736 C138.557434,27.9134597 138.802189,27.5171132 138.870368,27.401045 C139.711551,25.9690098 139.650584,24.8194112 137.985061,23.0686277 C136.208435,21.4195174 134.413265,19.5444035 132.62832,17.5217364 C131.411386,16.1427296 130.487166,15.0341844 129.361204,13.642068 C128.314769,12.4488276 127.49267,11.7502504 126.329898,11.3110616 C124.667973,10.6833387 122.776652,10.9277296 120.543358,12.3453302 C117.735547,13.8609172 112.278886,16.6874062 104.463741,20.6920106 C100.935429,22.499701 86.9489426,29.6397074 86.1996093,30.0348408 C86.0828245,30.096423 84.1643667,31.0211367 83.3879569,31.4319356 C81.922244,32.2074453 80.5879413,33.0409538 79.3282141,34.0159646 C75.6511599,36.8619518 73.1973208,40.4676245 72.3995353,45.0851791 C71.7749678,49.2752199 69.7050409,52.0515236 66.7058668,53.2458249 C64.1611651,54.2591508 61.1457128,53.992809 58.9355072,52.6902898 C55.8631267,50.8796733 51.0162214,47.2138675 47.287574,44.1535466 C45.8067861,43.0311501 44.6161796,41.7106511 43.8812554,40.0207137 C42.8553932,37.6617726 42.9500199,34.9712541 44.4407073,31.9776769 C46.186284,29.5254168 48.5348463,28.0442081 52.2936457,27.3185228 C60.4456245,25.2310531 61.3154376,24.9683665 65.0063054,23.4429175 C67.5220851,22.622676 69.9079929,21.359235 72.1559278,19.1984871 C75.4694306,16.0134998 77.5988479,11.5486675 78.0887414,5.52990403 C78.0852026,4.68712981 77.9041189,3.78513773 77.496933,3.2149689 Z" id="Path-20" fill="url(#linearGradient-1)" fill-rule="nonzero"></path>
                <path d="M2.96802866,29.3721837 L3.78810088,30.3549764 C3.39768025,30.6807553 3.0124482,31.0133961 2.62825255,31.356546 C2.05259528,31.8628801 1.95030742,32.1340758 2.04489928,32.2899957 C2.19455731,32.5366836 2.7364475,32.818517 3.62501091,33.0553732 C4.90022672,33.4307779 6.82414255,34.040929 8.88651038,34.7315161 L8.48008074,35.9452767 C6.43178416,35.2594014 4.52258553,34.6539177 3.2795761,34.2877681 C2.11046176,33.9764233 1.32213224,33.5664184 0.950541548,32.9539092 C0.462471506,32.149402 0.796933218,31.262644 1.77921656,30.3986766 C2.17045213,30.0492132 2.56656055,29.7071809 2.96802866,29.3721837 Z" id="Path-20" fill-opacity="0.2" fill="#000000" fill-rule="nonzero"></path>
                <path d="M107.960911,59.04509 C120.970642,47.5605622 127.759608,41.5993813 130.170458,39.5765752 L129.337219,38.6050196 L107.11549,58.0840184 L107.960911,59.04509 Z M107.113813,58.0854935 C120.140285,46.5861874 126.923995,40.6296215 129.347723,38.5960107 L130.180962,39.5675663 L107.959234,59.0465651 L107.113813,58.0854935 Z" id="Path" fill="#6CC40E" fill-rule="nonzero"></path>
                <path d="M45.0550622,39.5102456 C45.6880656,40.9658192 46.7395435,42.132011 48.080158,43.1487577 C51.7778225,46.1830379 56.5883194,49.8213073 59.5853818,51.5875373 L58.9355072,52.6902898 C55.8631267,50.8796733 51.0162214,47.2138675 47.287574,44.1535466 C45.8067861,43.0311501 44.6161796,41.7106511 43.8812554,40.0207137 C42.8553932,37.6617726 42.9500199,34.9712541 44.4407073,31.9776769 C46.186284,29.5254168 48.5348463,28.0442081 52.2936457,27.3185228 C60.4456245,25.2310531 61.3154376,24.9683665 65.0063054,23.4429175 C67.5220851,22.622676 69.9079929,21.359235 72.1559278,19.1984871 C75.4694306,16.0134998 77.5988479,11.5486675 78.0887414,5.52990403 C78.0852026,4.68712981 77.9041189,3.78513773 77.496933,3.2149689 C76.9512003,2.45079774 76.012547,2.33544354 74.3260763,3.23129586 C74.179467,3.30917463 74.0119003,3.39344241 73.8234138,3.48420623 L73.268075,2.33095046 C73.4422092,2.24709789 73.5949684,2.17027667 73.7256022,2.10088407 C75.934122,0.92771956 77.5809198,1.13009998 78.5385788,2.47107777 C79.142839,3.31720301 79.3687944,4.46108981 79.3687944,5.55511726 C78.8557151,11.9509711 76.5860994,16.7155774 73.0429517,20.1213027 C70.6429697,22.4282005 68.1016645,23.7770387 65.4724426,24.6352767 C61.7306842,26.1813427 60.8008831,26.4613794 52.5739144,28.5668783 C49.1190398,29.2349532 47.061594,30.5225986 45.5637466,32.59416 C44.261595,35.2335407 44.186807,37.5137174 45.0550622,39.5102456 Z" id="Path" fill-opacity="0.2" fill="#000000" fill-rule="nonzero"></path>
                <path d="M86.0199828,78.4938522 L85.2360402,77.4820054 C85.6455738,77.1647134 86.1049925,76.7680361 86.6195516,76.2854364 C88.2187907,74.7855265 96.9031416,67.0595574 107.033606,58.115724 L107.880758,59.0752726 C97.7669829,68.0043717 89.0800646,75.7326247 87.4951899,77.2190624 C86.9529032,77.7276675 86.4635397,78.1502002 86.0199828,78.4938522 Z" id="Path" fill="#FFB819" fill-rule="nonzero"></path>
                <path d="M119.857393,11.2646582 L119.896664,11.2416477 C119.890083,11.2451956 119.883486,11.2487512 119.876875,11.2523144 C119.870384,11.2564193 119.863889,11.2605345 119.857393,11.2646582 Z M126.782178,10.1136298 C128.193414,10.6466655 129.148679,11.4584009 130.33988,12.8174763 C133.184899,16.3329862 135.788226,19.2830288 138.883939,22.158209 C140.99561,24.375744 141.089706,26.150039 139.974044,28.0493489 C139.897386,28.1798527 139.64464,28.5891404 139.656238,28.569758 C137.389361,32.119595 134.923354,35.1532747 130.887612,38.9878082 C130.702034,39.134543 130.451935,39.3397142 130.095526,39.6395294 L129.271545,38.6600113 C129.620882,38.3661457 129.872902,38.1589776 130.029739,38.0372571 C133.973836,34.2871084 136.369234,31.3388102 138.569948,27.8928736 C138.557434,27.9134597 138.802189,27.5171132 138.870368,27.401045 C139.711551,25.9690098 139.650584,24.8194112 137.985061,23.0686277 C136.208435,21.4195174 134.413265,19.5444035 132.62832,17.5217364 C131.411386,16.1427296 130.487166,15.0341844 129.361204,13.642068 C128.314769,12.4488276 127.49267,11.7502504 126.329898,11.3110616 C124.667973,10.6833387 122.776652,10.9277296 120.543358,12.3453302 C117.735547,13.8609172 112.278886,16.6874062 104.463741,20.6920106 C104.342302,20.7542364 104.342302,20.7542364 104.220857,20.8164588 C100.935429,22.499701 86.9489426,29.6397074 86.1996093,30.0348408 C86.0828245,30.096423 84.1643667,31.0211367 83.3879569,31.4319356 C81.922244,32.2074453 80.5879413,33.0409538 79.3282141,34.0159646 C75.6511599,36.8619518 73.1973208,40.4676245 72.3995353,45.0851791 C71.7749678,49.2752199 69.7050409,52.0515236 66.7058668,53.2458249 C64.1611651,54.2591508 61.1457128,53.992809 58.9355072,52.6902898 L59.5853818,51.5875373 C61.4591109,52.6917641 64.0603977,52.9215245 66.2323223,52.0566422 C68.7941564,51.036494 70.5741631,48.6490479 71.1358685,44.8818861 C71.9953497,39.9061599 74.6315755,36.0324882 78.544764,33.0037364 C79.8680998,31.9794935 81.2630454,31.1081028 82.7893355,30.3005416 C83.5937785,29.8749102 85.5133111,28.9496785 85.6025697,28.9026113 C86.3606707,28.5028546 100.364165,21.3541657 103.637209,19.6772684 C103.758618,19.6150643 103.758618,19.6150643 103.880021,19.5528571 C111.667728,15.562312 117.113051,12.7418 119.876875,11.2523144 C122.432398,9.63608056 124.736538,9.34097463 126.782178,10.1136298 Z" id="Path" fill-opacity="0.37" fill="#000000" fill-rule="nonzero"></path>
                <path d="M73.2745322,2.32783957 L73.8303061,3.48088568 C68.8413939,5.88556604 45.4969525,14.1698719 39.7604951,15.7007861 C38.9764381,15.9100309 32.2918027,17.6412077 30.102028,18.2270292 C29.183936,18.4726426 28.3232386,18.7064518 27.5093258,18.9317316 C23.6877336,19.9894956 20.9477954,20.8457562 19.38171,21.50539 C12.9937201,24.0009711 8.044553,26.8042762 3.79296768,30.350916 L2.97303348,29.3680081 C7.33737233,25.7273102 12.4058662,22.8564161 18.9003166,20.3194827 C20.5179163,19.6379022 23.2938933,18.7703791 27.1678774,17.6981138 C27.9855454,17.4717946 28.8497509,17.2370324 29.771228,16.9905134 C31.9674715,16.4029613 38.6526096,14.6716543 39.4304469,14.4640694 C45.09398,12.9526168 68.3641514,4.69466736 73.2745322,2.32783957 Z" id="Path" fill="#FFA019" fill-rule="nonzero"></path>
                <path d="M29.5879496,67.0045833 L30.196283,67.0045833 C30.2254496,67.2483333 30.471283,67.4045833 30.8254496,67.4045833 C31.152533,67.4045833 31.383783,67.24625 31.383783,67.0191667 C31.383783,66.8275 31.233783,66.7170833 30.865033,66.6379167 L30.4733663,66.5545833 C29.9254496,66.44 29.6566996,66.1545833 29.6566996,65.69625 C29.6566996,65.1295833 30.1129496,64.7566667 30.8066996,64.7566667 C31.4691996,64.7566667 31.9379496,65.1275 31.9566996,65.6629167 L31.365033,65.6629167 C31.3358663,65.4254167 31.115033,65.2670833 30.8108663,65.2670833 C30.496283,65.2670833 30.2879496,65.4129167 30.2879496,65.6420833 C30.2879496,65.8275 30.4316996,65.93375 30.783783,66.00875 L31.146283,66.0858333 C31.7504496,66.2129167 32.0108663,66.4733333 32.0108663,66.94 C32.0108663,67.54625 31.546283,67.9170833 30.7921163,67.9170833 C30.0754496,67.9170833 29.6108663,67.565 29.5879496,67.0045833 Z M33.271283,67.84 L33.271283,65.44625 L33.233783,65.44625 L32.496283,65.9545833 L32.496283,65.3691667 L33.2733663,64.83375 L33.9004496,64.83375 L33.9004496,67.84 L33.271283,67.84 Z M28.5016996,70.6308333 L28.375033,70.6308333 C28.2316996,70.4516667 28.150033,70.1858333 28.150033,69.9 C28.150033,69.615 28.2191996,69.4083333 28.3833663,69.1983333 L28.5041996,69.1983333 C28.3833663,69.34 28.297533,69.6308333 28.297533,69.9 C28.297533,70.16 28.360033,70.3825 28.5016996,70.6308333 Z M28.7033663,70.0858333 L28.855033,70.0858333 C28.8733663,70.2116667 28.9933663,70.2916667 29.1641996,70.2916667 C29.3258663,70.2916667 29.445033,70.2041667 29.445033,70.085 C29.445033,69.9825 29.370033,69.9175 29.2041996,69.8758333 L29.050033,69.8358333 C28.832533,69.7808333 28.7383663,69.6825 28.7383663,69.5116667 C28.7383663,69.3075 28.9091996,69.1691667 29.1633663,69.1691667 C29.3958663,69.1691667 29.5691996,69.3075 29.5816996,69.5016667 L29.4308663,69.5016667 C29.410033,69.3783333 29.3083663,69.305 29.1583663,69.305 C28.9983663,69.305 28.892533,69.385 28.892533,69.5066667 C28.892533,69.6008333 28.9583663,69.655 29.1241996,69.6975 L29.250033,69.7308333 C29.4991996,69.7933333 29.5991996,69.89 29.5991996,70.0666667 C29.5991996,70.2875 29.425033,70.4283333 29.150033,70.4283333 C28.895033,70.4283333 28.7191996,70.2933333 28.7033663,70.0858333 Z M30.1883663,69.6125 C30.045033,69.6125 29.945033,69.7175 29.9341996,69.8766667 L30.4291996,69.8766667 C30.4258663,69.7175 30.3308663,69.6125 30.1883663,69.6125 Z M30.425033,70.1675 L30.5683663,70.1675 C30.525033,70.3216667 30.3866996,70.4158333 30.190033,70.4158333 C29.9408663,70.4158333 29.785033,70.2358333 29.785033,69.9516667 C29.785033,69.6691667 29.9433663,69.4858333 30.190033,69.4858333 C30.432533,69.4858333 30.580033,69.6583333 30.580033,69.9375 L30.580033,69.9925 L29.9341996,69.9925 L29.9341996,69.9991667 C29.9416996,70.1766667 30.0408663,70.2891667 30.1933663,70.2891667 C30.3091996,70.2891667 30.387533,70.2466667 30.425033,70.1675 Z M31.5483663,69.7766667 L31.4033663,69.7766667 C31.380033,69.6875 31.3008663,69.615 31.1716996,69.615 C31.010033,69.615 30.9083663,69.7441667 30.9083663,69.9475 C30.9083663,70.155 31.0116996,70.2866667 31.1716996,70.2866667 C31.292533,70.2866667 31.3766996,70.2308333 31.4033663,70.1291667 L31.5483663,70.1291667 C31.522533,70.2941667 31.3883663,70.4158333 31.172533,70.4158333 C30.9208663,70.4158333 30.760033,70.2333333 30.760033,69.9475 C30.760033,69.6675 30.920033,69.4858333 31.1716996,69.4858333 C31.390033,69.4858333 31.5233663,69.6166667 31.5483663,69.7766667 Z M31.820033,69.2691667 L31.9633663,69.2691667 L31.9633663,69.5016667 L32.1633663,69.5016667 L32.1633663,69.6216667 L31.9633663,69.6216667 L31.9633663,70.13 C31.9633663,70.2358333 32.0033663,70.2808333 32.0966996,70.2808333 C32.122533,70.2808333 32.1366996,70.28 32.1633663,70.2775 L32.1633663,70.3983333 C32.135033,70.4033333 32.107533,70.4066667 32.0791996,70.4066667 C31.8941996,70.4066667 31.820033,70.3383333 31.820033,70.1666667 L31.820033,69.6216667 L31.675033,69.6216667 L31.675033,69.5016667 L31.820033,69.5016667 L31.820033,69.2691667 Z M32.7491996,70.2866667 C32.9191996,70.2866667 33.015033,70.1633333 33.015033,69.9508333 C33.015033,69.7375 32.9191996,69.615 32.7491996,69.615 C32.5791996,69.615 32.4833663,69.7375 32.4833663,69.9508333 C32.4833663,70.1633333 32.5791996,70.2866667 32.7491996,70.2866667 Z M32.7491996,70.4158333 C32.4933663,70.4158333 32.335033,70.2391667 32.335033,69.9508333 C32.335033,69.6616667 32.4933663,69.4858333 32.7491996,69.4858333 C33.005033,69.4858333 33.1633663,69.6616667 33.1633663,69.9508333 C33.1633663,70.2391667 33.005033,70.4158333 32.7491996,70.4158333 Z M33.3883663,70.4 L33.3883663,69.5016667 L33.525033,69.5016667 L33.525033,69.635 L33.5383663,69.635 C33.565033,69.5475 33.6683663,69.4858333 33.787533,69.4858333 C33.8108663,69.4858333 33.8408663,69.4875 33.8591996,69.49 L33.8591996,69.6333333 C33.847533,69.63 33.7958663,69.625 33.767533,69.625 C33.6308663,69.625 33.5316996,69.7166667 33.5316996,69.8433333 L33.5316996,70.4 L33.3883663,70.4 Z M34.8066996,70.4 L34.8066996,69.3641667 L34.7933663,69.3641667 L34.487533,69.5858333 L34.487533,69.4275 L34.807533,69.1975 L34.9566996,69.1975 L34.9566996,70.4 L34.8066996,70.4 Z M35.2858663,70.6308333 C35.427533,70.3825 35.490033,70.16 35.490033,69.9 C35.490033,69.6291667 35.405033,69.3391667 35.2841996,69.1983333 L35.4058663,69.1983333 C35.570033,69.4083333 35.6383663,69.615 35.6383663,69.9 C35.6383663,70.1841667 35.5566996,70.45 35.4133663,70.6308333 L35.2858663,70.6308333 Z" id="S1-(Sector-1)-Copy" fill="#C6C6C6"></path>
                <path d="M27.603158,2.57791667 L28.2114913,2.57791667 C28.240658,2.82166667 28.4864913,2.97791667 28.840658,2.97791667 C29.1677413,2.97791667 29.3989913,2.81958333 29.3989913,2.5925 C29.3989913,2.40083333 29.2489913,2.29041667 28.8802413,2.21125 L28.4885746,2.12791667 C27.940658,2.01333333 27.671908,1.72791667 27.671908,1.26958333 C27.671908,0.702916667 28.128158,0.33 28.821908,0.33 C29.484408,0.33 29.953158,0.700833333 29.971908,1.23625 L29.3802413,1.23625 C29.3510746,0.99875 29.1302413,0.840416667 28.8260746,0.840416667 C28.5114913,0.840416667 28.303158,0.98625 28.303158,1.21541667 C28.303158,1.40083333 28.446908,1.50708333 28.7989913,1.58208333 L29.1614913,1.65916667 C29.765658,1.78625 30.0260746,2.04666667 30.0260746,2.51333333 C30.0260746,3.11958333 29.5614913,3.49041667 28.8073246,3.49041667 C28.090658,3.49041667 27.6260746,3.13833333 27.603158,2.57791667 Z M30.5239913,1.30708333 C30.5239913,0.725833333 30.9698246,0.33 31.6198246,0.33 C32.246908,0.33 32.684408,0.690416667 32.684408,1.20708333 C32.684408,1.53416667 32.5073246,1.81541667 31.9864913,2.305 L31.4114913,2.85291667 L31.4114913,2.89041667 L32.728158,2.89041667 L32.728158,3.41333333 L30.559408,3.41333333 L30.559408,2.97375 L31.540658,2.01333333 C31.9635746,1.60083333 32.0698246,1.44458333 32.0698246,1.24875 C32.0698246,1.00708333 31.8739913,0.83625 31.5989913,0.83625 C31.3073246,0.83625 31.1073246,1.02791667 31.1073246,1.305 L31.1073246,1.3175 L30.5239913,1.3175 L30.5239913,1.30708333 Z M26.677533,6.20416667 L26.5508663,6.20416667 C26.407533,6.025 26.3258663,5.75916667 26.3258663,5.47333333 C26.3258663,5.18833333 26.395033,4.98166667 26.5591996,4.77166667 L26.680033,4.77166667 C26.5591996,4.91333333 26.4733663,5.20416667 26.4733663,5.47333333 C26.4733663,5.73333333 26.5358663,5.95583333 26.677533,6.20416667 Z M26.8791996,5.65916667 L27.0308663,5.65916667 C27.0491996,5.785 27.1691996,5.865 27.340033,5.865 C27.5016996,5.865 27.6208663,5.7775 27.6208663,5.65833333 C27.6208663,5.55583333 27.5458663,5.49083333 27.380033,5.44916667 L27.2258663,5.40916667 C27.0083663,5.35416667 26.9141996,5.25583333 26.9141996,5.085 C26.9141996,4.88083333 27.085033,4.7425 27.3391996,4.7425 C27.5716996,4.7425 27.745033,4.88083333 27.757533,5.075 L27.6066996,5.075 C27.5858663,4.95166667 27.4841996,4.87833333 27.3341996,4.87833333 C27.1741996,4.87833333 27.0683663,4.95833333 27.0683663,5.08 C27.0683663,5.17416667 27.1341996,5.22833333 27.300033,5.27083333 L27.4258663,5.30416667 C27.675033,5.36666667 27.775033,5.46333333 27.775033,5.64 C27.775033,5.86083333 27.6008663,6.00166667 27.3258663,6.00166667 C27.0708663,6.00166667 26.895033,5.86666667 26.8791996,5.65916667 Z M28.3641996,5.18583333 C28.2208663,5.18583333 28.1208663,5.29083333 28.110033,5.45 L28.605033,5.45 C28.6016996,5.29083333 28.5066996,5.18583333 28.3641996,5.18583333 Z M28.6008663,5.74083333 L28.7441996,5.74083333 C28.7008663,5.895 28.562533,5.98916667 28.3658663,5.98916667 C28.1166996,5.98916667 27.9608663,5.80916667 27.9608663,5.525 C27.9608663,5.2425 28.1191996,5.05916667 28.3658663,5.05916667 C28.6083663,5.05916667 28.7558663,5.23166667 28.7558663,5.51083333 L28.7558663,5.56583333 L28.110033,5.56583333 L28.110033,5.5725 C28.117533,5.75 28.2166996,5.8625 28.3691996,5.8625 C28.485033,5.8625 28.5633663,5.82 28.6008663,5.74083333 Z M29.7241996,5.35 L29.5791996,5.35 C29.5558663,5.26083333 29.4766996,5.18833333 29.347533,5.18833333 C29.1858663,5.18833333 29.0841996,5.3175 29.0841996,5.52083333 C29.0841996,5.72833333 29.187533,5.86 29.347533,5.86 C29.4683663,5.86 29.552533,5.80416667 29.5791996,5.7025 L29.7241996,5.7025 C29.6983663,5.8675 29.5641996,5.98916667 29.3483663,5.98916667 C29.0966996,5.98916667 28.9358663,5.80666667 28.9358663,5.52083333 C28.9358663,5.24083333 29.0958663,5.05916667 29.347533,5.05916667 C29.5658663,5.05916667 29.6991996,5.19 29.7241996,5.35 Z M29.9958663,4.8425 L30.1391996,4.8425 L30.1391996,5.075 L30.3391996,5.075 L30.3391996,5.195 L30.1391996,5.195 L30.1391996,5.70333333 C30.1391996,5.80916667 30.1791996,5.85416667 30.272533,5.85416667 C30.2983663,5.85416667 30.312533,5.85333333 30.3391996,5.85083333 L30.3391996,5.97166667 C30.3108663,5.97666667 30.2833663,5.98 30.255033,5.98 C30.070033,5.98 29.9958663,5.91166667 29.9958663,5.74 L29.9958663,5.195 L29.8508663,5.195 L29.8508663,5.075 L29.9958663,5.075 L29.9958663,4.8425 Z M30.925033,5.86 C31.095033,5.86 31.1908663,5.73666667 31.1908663,5.52416667 C31.1908663,5.31083333 31.095033,5.18833333 30.925033,5.18833333 C30.755033,5.18833333 30.6591996,5.31083333 30.6591996,5.52416667 C30.6591996,5.73666667 30.755033,5.86 30.925033,5.86 Z M30.925033,5.98916667 C30.6691996,5.98916667 30.5108663,5.8125 30.5108663,5.52416667 C30.5108663,5.235 30.6691996,5.05916667 30.925033,5.05916667 C31.1808663,5.05916667 31.3391996,5.235 31.3391996,5.52416667 C31.3391996,5.8125 31.1808663,5.98916667 30.925033,5.98916667 Z M31.5641996,5.97333333 L31.5641996,5.075 L31.7008663,5.075 L31.7008663,5.20833333 L31.7141996,5.20833333 C31.7408663,5.12083333 31.8441996,5.05916667 31.9633663,5.05916667 C31.9866996,5.05916667 32.0166996,5.06083333 32.035033,5.06333333 L32.035033,5.20666667 C32.0233663,5.20333333 31.9716996,5.19833333 31.9433663,5.19833333 C31.8066996,5.19833333 31.707533,5.29 31.707533,5.41666667 L31.707533,5.97333333 L31.5641996,5.97333333 Z M32.687533,5.10916667 C32.687533,4.89583333 32.8491996,4.7425 33.072533,4.7425 C33.2883663,4.7425 33.4533663,4.88916667 33.4533663,5.08 C33.4533663,5.205 33.3966996,5.3025 33.1991996,5.51416667 L32.910033,5.825 L32.910033,5.83833333 L33.4733663,5.83833333 L33.4733663,5.97333333 L32.695033,5.97333333 L32.695033,5.87 L33.1108663,5.41583333 C33.2658663,5.2475 33.3033663,5.1825 33.3033663,5.08583333 C33.3033663,4.96583333 33.2008663,4.87333333 33.0683663,4.87333333 C32.927533,4.87333333 32.832533,4.9675 32.832533,5.10916667 L32.832533,5.11 L32.687533,5.11 L32.687533,5.10916667 Z M33.6966996,6.20416667 C33.8383663,5.95583333 33.9008663,5.73333333 33.9008663,5.47333333 C33.9008663,5.2025 33.8158663,4.9125 33.695033,4.77166667 L33.8166996,4.77166667 C33.9808663,4.98166667 34.0491996,5.18833333 34.0491996,5.47333333 C34.0491996,5.7575 33.967533,6.02333333 33.8241996,6.20416667 L33.6966996,6.20416667 Z" id="S2-(Sector-2)-Copy" fill="#999999"></path>
                <path d="M117.148991,23.0579167 L117.757325,23.0579167 C117.786491,23.3016667 118.032325,23.4579167 118.386491,23.4579167 C118.713575,23.4579167 118.944825,23.2995833 118.944825,23.0725 C118.944825,22.8808333 118.794825,22.7704167 118.426075,22.69125 L118.034408,22.6079167 C117.486491,22.4933333 117.217741,22.2079167 117.217741,21.7495833 C117.217741,21.1829167 117.673991,20.81 118.367741,20.81 C119.030241,20.81 119.498991,21.1808333 119.517741,21.71625 L118.926075,21.71625 C118.896908,21.47875 118.676075,21.3204167 118.371908,21.3204167 C118.057325,21.3204167 117.848991,21.46625 117.848991,21.6954167 C117.848991,21.8808333 117.992741,21.9870833 118.344825,22.0620833 L118.707325,22.1391667 C119.311491,22.26625 119.571908,22.5266667 119.571908,22.9933333 C119.571908,23.5995833 119.107325,23.9704167 118.353158,23.9704167 C117.636491,23.9704167 117.171908,23.6183333 117.148991,23.0579167 Z M120.838575,22.5891667 L120.838575,22.1204167 L121.205241,22.1204167 C121.490658,22.1204167 121.684408,21.95375 121.684408,21.7079167 C121.684408,21.46625 121.496908,21.3120833 121.203158,21.3120833 C120.911491,21.3120833 120.717741,21.4766667 120.701075,21.7370833 L120.119825,21.7370833 C120.140658,21.1683333 120.563575,20.81 121.219825,20.81 C121.836491,20.81 122.280241,21.1475 122.280241,21.6204167 C122.280241,21.9683333 122.061491,22.2391667 121.726075,22.3079167 L121.726075,22.3454167 C122.138575,22.39125 122.396908,22.66625 122.396908,23.0620833 C122.396908,23.5891667 121.901075,23.9704167 121.215658,23.9704167 C120.544825,23.9704167 120.090658,23.5995833 120.063575,23.0329167 L120.665658,23.0329167 C120.684408,23.2870833 120.898991,23.4475 121.221908,23.4475 C121.536491,23.4475 121.755241,23.2704167 121.755241,23.0141667 C121.755241,22.7516667 121.548991,22.5891667 121.211491,22.5891667 L120.838575,22.5891667 Z M116.25795,26.6841667 L116.131283,26.6841667 C115.98795,26.505 115.906283,26.2391667 115.906283,25.9533333 C115.906283,25.6683333 115.97545,25.4616667 116.139616,25.2516667 L116.26045,25.2516667 C116.139616,25.3933333 116.053783,25.6841667 116.053783,25.9533333 C116.053783,26.2133333 116.116283,26.4358333 116.25795,26.6841667 Z M116.459616,26.1391667 L116.611283,26.1391667 C116.629616,26.265 116.749616,26.345 116.92045,26.345 C117.082116,26.345 117.201283,26.2575 117.201283,26.1383333 C117.201283,26.0358333 117.126283,25.9708333 116.96045,25.9291667 L116.806283,25.8891667 C116.588783,25.8341667 116.494616,25.7358333 116.494616,25.565 C116.494616,25.3608333 116.66545,25.2225 116.919616,25.2225 C117.152116,25.2225 117.32545,25.3608333 117.33795,25.555 L117.187116,25.555 C117.166283,25.4316667 117.064616,25.3583333 116.914616,25.3583333 C116.754616,25.3583333 116.648783,25.4383333 116.648783,25.56 C116.648783,25.6541667 116.714616,25.7083333 116.88045,25.7508333 L117.006283,25.7841667 C117.25545,25.8466667 117.35545,25.9433333 117.35545,26.12 C117.35545,26.3408333 117.181283,26.4816667 116.906283,26.4816667 C116.651283,26.4816667 116.47545,26.3466667 116.459616,26.1391667 Z M117.944616,25.6658333 C117.801283,25.6658333 117.701283,25.7708333 117.69045,25.93 L118.18545,25.93 C118.182116,25.7708333 118.087116,25.6658333 117.944616,25.6658333 Z M118.181283,26.2208333 L118.324616,26.2208333 C118.281283,26.375 118.14295,26.4691667 117.946283,26.4691667 C117.697116,26.4691667 117.541283,26.2891667 117.541283,26.005 C117.541283,25.7225 117.699616,25.5391667 117.946283,25.5391667 C118.188783,25.5391667 118.336283,25.7116667 118.336283,25.9908333 L118.336283,26.0458333 L117.69045,26.0458333 L117.69045,26.0525 C117.69795,26.23 117.797116,26.3425 117.949616,26.3425 C118.06545,26.3425 118.143783,26.3 118.181283,26.2208333 Z M119.304616,25.83 L119.159616,25.83 C119.136283,25.7408333 119.057116,25.6683333 118.92795,25.6683333 C118.766283,25.6683333 118.664616,25.7975 118.664616,26.0008333 C118.664616,26.2083333 118.76795,26.34 118.92795,26.34 C119.048783,26.34 119.13295,26.2841667 119.159616,26.1825 L119.304616,26.1825 C119.278783,26.3475 119.144616,26.4691667 118.928783,26.4691667 C118.677116,26.4691667 118.516283,26.2866667 118.516283,26.0008333 C118.516283,25.7208333 118.676283,25.5391667 118.92795,25.5391667 C119.146283,25.5391667 119.279616,25.67 119.304616,25.83 Z M119.576283,25.3225 L119.719616,25.3225 L119.719616,25.555 L119.919616,25.555 L119.919616,25.675 L119.719616,25.675 L119.719616,26.1833333 C119.719616,26.2891667 119.759616,26.3341667 119.85295,26.3341667 C119.878783,26.3341667 119.89295,26.3333333 119.919616,26.3308333 L119.919616,26.4516667 C119.891283,26.4566667 119.863783,26.46 119.83545,26.46 C119.65045,26.46 119.576283,26.3916667 119.576283,26.22 L119.576283,25.675 L119.431283,25.675 L119.431283,25.555 L119.576283,25.555 L119.576283,25.3225 Z M120.50545,26.34 C120.67545,26.34 120.771283,26.2166667 120.771283,26.0041667 C120.771283,25.7908333 120.67545,25.6683333 120.50545,25.6683333 C120.33545,25.6683333 120.239616,25.7908333 120.239616,26.0041667 C120.239616,26.2166667 120.33545,26.34 120.50545,26.34 Z M120.50545,26.4691667 C120.249616,26.4691667 120.091283,26.2925 120.091283,26.0041667 C120.091283,25.715 120.249616,25.5391667 120.50545,25.5391667 C120.761283,25.5391667 120.919616,25.715 120.919616,26.0041667 C120.919616,26.2925 120.761283,26.4691667 120.50545,26.4691667 Z M121.144616,26.4533333 L121.144616,25.555 L121.281283,25.555 L121.281283,25.6883333 L121.294616,25.6883333 C121.321283,25.6008333 121.424616,25.5391667 121.543783,25.5391667 C121.567116,25.5391667 121.597116,25.5408333 121.61545,25.5433333 L121.61545,25.6866667 C121.603783,25.6833333 121.552116,25.6783333 121.523783,25.6783333 C121.387116,25.6783333 121.28795,25.77 121.28795,25.8966667 L121.28795,26.4533333 L121.144616,26.4533333 Z M122.521283,25.8991667 L122.521283,25.7708333 L122.667116,25.7708333 C122.803783,25.7708333 122.90045,25.6825 122.90045,25.5575 C122.90045,25.435 122.80795,25.3533333 122.669616,25.3533333 C122.531283,25.3533333 122.44045,25.43 122.42795,25.5591667 L122.282116,25.5591667 C122.297116,25.3508333 122.446283,25.2225 122.67545,25.2225 C122.88545,25.2225 123.05295,25.3625 123.05295,25.5375 C123.05295,25.6808333 122.973783,25.7858333 122.842116,25.8175 L122.842116,25.8308333 C123.00545,25.8516667 123.104616,25.965 123.104616,26.1291667 C123.104616,26.3275 122.918783,26.4816667 122.681283,26.4816667 C122.437116,26.4816667 122.268783,26.3458333 122.25795,26.14 L122.40295,26.14 C122.416283,26.2683333 122.524616,26.3508333 122.679616,26.3508333 C122.83795,26.3508333 122.95045,26.2566667 122.95045,26.125 C122.95045,25.9858333 122.844616,25.8991667 122.673783,25.8991667 L122.521283,25.8991667 Z M123.316283,26.6841667 C123.45795,26.4358333 123.52045,26.2133333 123.52045,25.9533333 C123.52045,25.6825 123.43545,25.3925 123.314616,25.2516667 L123.436283,25.2516667 C123.60045,25.4616667 123.668783,25.6683333 123.668783,25.9533333 C123.668783,26.2375 123.587116,26.5033333 123.443783,26.6841667 L123.316283,26.6841667 Z" id="S3-(Sector-3)-Copy" fill="#666666"></path>
                <g id="Group-Copy-8" transform="translate(31.573333, 45.226667)">
                    <circle id="Oval-Copy-2" fill-opacity="0.7" fill="#FFFFFF" cx="2.56" cy="2.56" r="2.56"></circle>
                    <circle id="Oval-Copy-2" fill-opacity="0.2" fill="#FFB819" cx="2.56" cy="2.56" r="2.56"></circle>
                    <circle id="Oval" stroke="#FFB819" stroke-width="0.5" fill="#FFFFFF" cx="2.56" cy="2.56" r="1.70666667"></circle>
                    <circle id="Oval-Copy" fill="#FFB819" cx="2.56" cy="2.56" r="1"></circle>
                </g>
                <g id="Group-Copy-8" transform="translate(127.573333, 11.093333)">
                    <circle id="Oval-Copy-2" fill-opacity="0.7" fill="#FFFFFF" cx="2.56" cy="2.56" r="2.56"></circle>
                    <circle id="Oval-Copy-2" fill-opacity="0.2" fill="#FFB819" cx="2.56" cy="2.56" r="2.56"></circle>
                    <circle id="Oval" stroke="#FFB819" stroke-width="0.5" fill="#FFFFFF" cx="2.56" cy="2.56" r="1.70666667"></circle>
                    <circle id="Oval-Copy" fill="#FFB819" cx="2.56" cy="2.56" r="1"></circle>
                </g>
                <g id="Group-Copy-7" transform="translate(64.000000, 2.986667)">
                    <circle id="Oval-Copy-2" fill-opacity="0.7" fill="#FFFFFF" cx="2.56" cy="2.56" r="2.56"></circle>
                    <circle id="Oval-Copy-2" fill-opacity="0.2" fill="#D0021B" cx="2.56" cy="2.56" r="2.56"></circle>
                    <circle id="Oval" stroke="#D0021B" stroke-width="0.5" fill="#FFFFFF" cx="2.56" cy="2.56" r="1.70666667"></circle>
                    <circle id="Oval-Copy" fill="#D0021B" cx="2.56" cy="2.56" r="1"></circle>
                </g>
            </g>
        </g>
    </g>
</svg>