<?xml version="1.0" encoding="UTF-8"?>
<svg width="160px" height="96px" viewBox="0 0 160 96" version="1.1" xmlns="http://www.w3.org/2000/svg" xmlns:xlink="http://www.w3.org/1999/xlink">
    <!-- Generator: Sketch 58 (84663) - https://sketch.com -->
    <title>circuit-gs-Melbourne-L-Eng</title>
    <desc>Created with Sketch.</desc>
    <defs>
        <linearGradient x1="50%" y1="23.3035083%" x2="50%" y2="112.667183%" id="linearGradient-1">
            <stop stop-color="#1B94E2" offset="0%"></stop>
            <stop stop-color="#40D8AB" offset="100%"></stop>
        </linearGradient>
    </defs>
    <g id="circuit-gs-Melbourne-L-Eng" stroke="none" stroke-width="1" fill="none" fill-rule="evenodd">
        <g id="Australian-Circuit" transform="translate(9.386667, 14.506667)">
            <g id="Group">
                <g id="Group-7-Copy">
                    <g id="Group-5">
                        <path d="M111.362482,54.1407123 L112.210851,54.232621 C111.836453,57.6885331 110.303147,59.7581503 107.631066,60.3342481 C81.7971937,59.9800798 67.9210155,59.9800798 66.1901129,60.3351292 C64.4624173,60.6895206 61.5809218,61.9527318 57.5738316,64.1211155 L57.1677108,63.3706199 C61.2445631,61.1644853 64.1854724,59.8752279 66.0186441,59.4992008 C67.8474468,59.1240698 81.5794863,59.1238316 107.497756,59.4898428 C109.745348,58.9852901 111.027015,57.2372604 111.362482,54.1407123 Z" id="Path-2" fill="#E6E6E6" fill-rule="nonzero"></path>
                        <g id="Page-1" transform="translate(0.202132, 0.044950)">
                            <g id="Group-18" transform="translate(0.421973, 0.407147)" fill-rule="nonzero">
                                <path d="M107.032649,63.2379942 C107.548208,63.2639174 108.003926,63.2453739 108.409045,63.1671026 C108.706187,63.1096932 108.926946,63.0269293 109.037501,62.945418 C109.480264,62.5697895 109.609141,62.3667503 109.81184,61.8880852 C109.798847,61.9187686 110.046214,61.3203047 110.134803,61.1196942 C110.401778,60.5145098 110.405958,59.2792233 110.137814,57.2702157 C110.101803,57.000736 110.061257,56.7229878 110.007976,56.3755537 C109.994966,56.2907156 109.981572,56.2041072 109.964073,56.0914763 C109.942183,55.9507223 109.942183,55.9507223 109.92055,55.8114537 C109.885353,55.5845029 109.860717,55.4227414 109.837794,55.2665198 C109.777521,54.8557645 109.737309,54.535622 109.712508,54.2488832 C109.627822,53.2697598 109.688404,52.6620818 110.175251,52.1269524 C110.607789,51.6515173 111.163861,51.4878219 111.869233,51.4375477 C112.1837,51.4151345 112.502826,51.4218067 112.810569,51.4458571 C112.881988,51.4514385 116.521349,52.3800914 123.728654,54.2318156 C124.928223,54.4551799 125.868621,54.4710192 126.544437,54.3721516 C127.095862,54.2384139 127.458398,53.9499949 127.846651,53.5105017 C128.04992,53.2804059 128.244582,53.0289275 128.421082,52.7772067 C128.496088,52.6702349 128.554716,52.582344 128.594244,52.5209194 C128.66387,52.3668141 128.71883,52.2449842 128.78076,52.1075077 C128.957794,51.7145094 129.155099,51.2751013 129.367598,50.8000857 C129.97465,49.4430925 130.581659,48.0730336 131.147896,46.7765846 C131.197816,46.6622902 131.247241,46.5489695 131.296155,46.4366613 C132.623128,43.3898664 133.508897,41.2307583 133.647203,40.6731418 C133.685895,40.5172332 133.575296,40.3250901 133.207189,40.0581624 C133.057947,39.9499415 132.891007,39.8525894 132.723853,39.7709344 C132.659347,39.7394234 132.557615,39.6945522 132.418655,39.636321 L122.26264,34.6823564 C119.923126,33.5033209 117.704671,32.4915791 115.679786,31.6480774 C114.972951,31.3536329 114.341518,31.1014913 113.794539,30.8917474 C113.604337,30.8188125 113.438626,30.7565051 113.298538,30.7048361 C110.728854,30.1696845 108.989754,30.1924369 106.554739,30.5509969 C106.555557,30.5508765 105.829161,30.6596379 105.628303,30.6881016 C105.276154,30.7380047 104.990318,30.7728403 104.716547,30.7972332 C102.224068,31.0189315 94.6676885,31.614757 93.5025275,31.6717858 C93.1560069,31.6887502 92.9320706,31.74213 92.8051507,31.8035432 C92.7726582,31.843196 92.7259302,31.9002487 92.666639,31.9726844 C92.5334781,32.1353661 92.3850746,32.3168573 92.2252464,32.5125562 C91.7686673,33.0716066 91.3121211,33.6323674 90.8862343,34.1579202 C90.0679174,35.1680176 89.4833347,35.8987758 89.1863294,36.2855895 C89.0279815,36.4918186 88.8590054,36.6864352 88.6808913,36.8697922 C88.2871279,37.2751466 87.8666127,37.6089581 87.4434522,37.8783991 C87.1796366,38.0463796 86.9624716,38.1602902 86.8142138,38.2255805 L86.4072708,38.3294989 L73.5332344,39.4287754 C69.4222428,39.6757205 62.7584367,37.5692892 58.4917282,34.4832962 C57.0708771,33.4555595 55.5957973,32.0543328 54.0920558,30.3698454 C52.9735975,29.1169513 51.9027813,27.7790747 50.9145472,26.4415295 C50.5687064,25.9734444 50.257533,25.538341 49.9856027,25.147008 C49.8898686,25.0092378 49.8057005,24.8865056 49.7336754,24.7801638 C46.0963688,20.3407992 45.7612715,17.6825955 47.405889,14.983647 C47.4553671,14.9024496 47.6836004,14.5368716 47.7373829,14.447243 C47.7287831,14.2996053 47.6359755,14.2463266 47.5930915,14.2209843 C47.4730995,14.150075 47.3680515,14.0836095 47.264862,14.0114691 C47.0027484,13.828224 41.31493,10.5383999 40.1341514,9.84228267 C39.9248673,9.71890111 39.7199334,9.59774361 39.519058,9.47862391 C38.0821033,8.62650568 36.861198,7.88371178 35.8517358,7.24312112 C31.6911148,4.60305265 29.580867,3.94665133 26.1570466,4.38914188 C23.9566479,4.67351883 22.6787294,5.24328685 21.0658153,6.48306265 C20.7641296,6.71495514 19.3137926,7.89196859 18.8567367,8.24380135 C18.1352567,8.79926923 17.2986309,9.26751803 16.3700797,9.66067967 C15.3332405,10.099692 14.2348095,10.424496 13.1380862,10.6554156 C12.4785241,10.7942891 11.9587687,10.8721157 11.6448107,10.9048063 C10.9131413,10.9425284 10.4527225,11.0114734 10.1869537,11.0919018 C10.1018197,12.2494068 9.43546966,14.7625888 8.54907646,17.2472388 C8.18718671,18.2620802 7.69342096,19.4198485 7.02633518,20.8560856 C6.88216214,21.1664904 6.72970103,21.4903879 6.56112734,21.844959 C6.34762578,22.2940295 5.59728835,23.8549579 5.4495009,24.1653284 C5.05342226,24.9971386 4.78020373,25.5920203 4.57055867,26.0866923 C4.30077727,26.72326 4.02512585,27.7489358 3.76626479,29.0321732 C3.58610401,29.9252741 3.42456348,30.8873622 3.28460933,31.850171 C3.23554665,32.1876957 3.19273283,32.5009169 3.15646327,32.7815193 C3.13487439,32.9485433 3.12038127,33.0665517 3.11326553,33.1272776 L3.07441101,33.3239587 C2.90244063,33.937136 2.98915519,34.3905488 3.23001879,34.7615001 C3.31490781,34.8922368 3.3878955,34.9679385 3.39710523,34.9751749 L11.2641948,41.8749532 C14.388839,44.3915511 14.9259252,45.6058594 13.9711034,47.6025326 C13.8029094,47.954261 13.5290726,48.3662774 13.0949295,48.953757 C12.9375342,49.1667431 12.7665702,49.3927815 12.522315,49.712159 C12.4544928,49.8008403 12.2040585,50.1277121 12.21879,50.108475 C12.0957968,50.2690863 12.002673,50.391018 11.9119751,50.5103491 C11.8066351,50.6489448 11.7109241,50.7757185 11.6202949,50.8968215 C10.862658,51.9092118 10.3986636,52.6166431 10.2109762,53.0673405 C10.1757275,53.1520408 10.1515071,53.2209709 10.1352926,53.2752748 C10.2383364,53.3137134 10.38768,53.3672736 10.5845067,53.4345069 C11.1066908,53.6128776 11.7506308,53.8131536 12.5206697,54.0300072 C14.7422063,54.6556228 17.5201855,55.2835882 20.8892881,55.8712565 C21.3253522,55.9473186 21.7692374,56.0222913 22.2209482,56.0961085 C29.1221795,57.2236432 38.8888056,57.0836569 43.8571822,56.3869759 C46.8428949,55.9680119 50.1144868,56.7918602 51.963326,58.4611479 C52.6427419,59.0745818 53.0856642,59.5845691 53.4428684,60.1516591 C53.5581995,60.3347564 53.6625445,60.5194441 53.7802227,60.7438386 C53.8366188,60.8513776 54.0834609,61.3371735 54.1568437,61.477026 C54.3131818,61.7749744 54.4658728,62.0460578 54.6483395,62.3434949 C54.8087723,62.6050913 54.9832732,62.8050382 55.1685554,62.9553421 C55.3729373,63.1211401 55.583174,63.2211958 55.7926311,63.2724407 C55.870451,63.2914798 72.950457,63.2799976 107.032649,63.2379942 Z M56.1952757,65.8642242 C55.4059024,65.9065285 54.4567245,65.6743067 53.5557759,64.9434423 C53.1437565,64.6092054 52.7771783,64.1891722 52.4661376,63.6819996 C52.2519874,63.3329156 52.0715722,63.0126112 51.8899597,62.6664951 C51.8062317,62.5069268 51.5592135,62.0207845 51.5130678,61.9327915 C51.4243318,61.7635853 51.3516919,61.6350148 51.2767664,61.5160646 C51.0525488,61.1601013 50.7620081,60.8255684 50.2477507,60.3612535 C49.0002202,59.234878 46.4896297,58.6026641 44.2127995,58.9221557 C39.0066953,59.6521715 28.9886037,59.7957621 21.8081207,58.6226029 C21.3473637,58.5473073 20.8944702,58.4708131 20.4493925,58.3931787 C16.9957351,57.7907617 14.132994,57.1436357 11.8267302,56.4941598 C10.4930833,56.1185863 9.59959903,55.8173776 9.11681623,55.6268956 C8.88461299,55.5569005 8.62682737,55.4319858 8.36869263,55.2216107 C7.52734739,54.5359295 7.30137275,53.3959929 7.84758967,52.0834686 C8.14413212,51.3713751 8.68645291,50.5445232 9.57068699,49.3629678 C9.66541055,49.2363937 9.76488228,49.1046386 9.87385167,48.9612678 C11.6263089,46.6555629 11.5129339,46.8089811 11.6615847,46.4981217 C11.7901077,46.2293612 11.8321837,46.1239698 11.8439051,46.0607577 C11.6558374,45.6321915 10.9968232,44.945131 9.63826482,43.8524937 L1.78262214,36.9618211 C1.57325782,36.7908413 1.32272536,36.5249403 1.0829296,36.1556336 C0.474339642,35.218351 0.240333654,34.0508492 0.582114947,32.7341365 C0.590856183,32.6628229 0.60270233,32.5684878 0.617584108,32.4533537 C0.655522471,32.1598405 0.700152395,31.8333329 0.751234036,31.4819189 C0.897406509,30.4763314 1.06637185,29.4700232 1.25681417,28.5259542 C1.54712912,27.0867923 1.86056036,25.920541 2.21349983,25.087756 C2.44098328,24.5509932 2.72734791,23.9274883 3.1381548,23.0647471 C3.28876861,22.7484409 4.03866179,21.1884367 4.24912228,20.7457626 C4.41459943,20.3977047 4.56386308,20.0806001 4.70455366,19.777693 C5.34129393,18.4067898 5.80749704,17.3136497 6.13785818,16.3872235 C6.59574575,15.1037181 6.99356788,13.8059002 7.27589398,12.7010842 C7.51239956,11.7755759 7.644658,11.0495959 7.63712384,10.8974981 C7.55323747,9.20483433 8.89114548,8.48524097 11.4098345,8.35522224 C11.9712116,8.2749084 12.2786082,8.22025131 12.6106327,8.15034218 C13.5570758,7.95106471 14.5018112,7.67170823 15.3719272,7.30328884 C16.1113379,6.99021195 16.7604366,6.62691968 17.2951001,6.21528198 C17.717232,5.89033296 19.1685058,4.71255928 19.505689,4.45338144 C21.460037,2.95116045 23.1537952,2.19598769 25.8289241,1.85025716 C29.9348477,1.31961238 32.6022553,2.14932056 37.2233635,5.08158521 C38.2078211,5.70630832 39.4081857,6.43660529 40.8248207,7.27667389 C41.0237752,7.39465448 41.2268276,7.51469968 41.4342613,7.63699036 C42.4418522,8.23100631 48.3644086,11.6566025 48.7316661,11.9133543 C48.9476282,12.0478539 49.1500626,12.1632676 49.173095,12.1766128 C50.5259438,12.9604654 50.9169391,14.1238888 49.9325079,15.7644469 C49.8644415,15.8778798 49.629869,16.2536115 49.591997,16.3157626 C49.1156925,17.0974162 48.9577374,17.6111893 49.0552039,18.3671217 C49.2051131,19.5297887 50.0084169,21.0766657 51.6965082,23.1223362 C51.7885707,23.2485972 51.8143216,23.2870683 51.8532663,23.3445684 C51.9196542,23.4425871 51.9980575,23.5569131 52.0878786,23.6861739 C52.3461057,24.0577867 52.6429276,24.472823 52.9735223,24.9202729 C53.9179607,26.1985419 54.9408027,27.4764796 56.0018055,28.6650122 C57.3928907,30.2233022 58.7418207,31.5046952 59.992051,32.4090177 C63.7953133,35.1598127 69.8811285,37.083541 73.3475445,36.8757228 L85.9343665,35.8005715 C86.3317724,35.5513416 86.5977095,35.3402367 86.8446349,35.0860427 C86.9549356,34.9724952 87.0589839,34.8526586 87.1558336,34.7265235 C87.4711941,34.3158044 88.0643341,33.5743492 88.8622526,32.5894247 C89.3254752,32.0177928 89.7839947,31.4546081 90.2424813,30.8932223 C90.4029261,30.6967684 90.5519189,30.5145565 90.6856522,30.3511754 C90.9919463,29.9513615 91.2557785,29.7216941 91.6204335,29.5339243 C92.0852218,29.2945932 92.668558,29.1495481 93.3773633,29.1148474 C94.4973956,29.0600275 102.030971,28.4660001 104.489545,28.2473175 C104.712418,28.2274596 104.957173,28.1976306 105.269113,28.1534255 C105.458206,28.1266291 106.173666,28.0195051 106.181797,28.0183079 C108.917702,27.6154413 110.954986,27.5933456 113.824008,28.1861249 C114.028483,28.2459275 114.092478,28.2690898 114.184413,28.3029983 C114.334672,28.3584187 114.510615,28.4245732 114.711117,28.5014576 C115.280439,28.7197689 115.934461,28.980931 116.664202,29.2849176 C118.74382,30.1512193 121.017926,31.1883407 123.399851,32.3888714 L133.489255,37.3102242 C133.82611,37.4414903 134.262536,37.6612133 134.710012,37.9856946 C135.830624,38.7982917 136.47313,39.914514 136.131874,41.2895912 C135.9408,42.0599566 135.067709,44.188163 133.643212,47.458877 C133.593943,47.5720008 133.544165,47.6861291 133.493896,47.8012239 C132.924299,49.1053657 132.314342,50.4820766 131.704428,51.8454681 C131.490989,52.3225871 131.29278,52.7640059 131.114867,53.1589562 C131.052564,53.2972617 130.997237,53.4199054 130.949518,53.5255405 C130.917235,53.5969683 130.886836,53.6641677 130.85832,53.7271387 C130.594034,54.1603551 130.230845,54.6783268 129.765229,55.2053933 C129.091949,55.9675308 128.405796,56.513407 127.637837,56.7502459 C127.255867,56.8471073 127.104921,56.8774057 126.915004,56.9051893 C125.952497,57.045998 124.712198,57.0234457 123.211274,56.7394052 L112.666964,54.0027531 C112.49394,53.988918 112.373818,53.9838105 112.259304,53.9840139 C112.282605,54.2551139 112.317128,54.5299675 112.37067,54.8948528 C112.392372,55.0427503 112.416091,55.1984862 112.450309,55.4191292 C112.471734,55.5570601 112.471734,55.5570601 112.493722,55.698442 C112.511457,55.8125918 112.525086,55.9007237 112.538394,55.9875022 C112.593965,56.3498711 112.63673,56.6428128 112.675285,56.9313338 C113.005214,59.4032517 112.99992,60.9676292 112.476824,62.1533952 C112.402722,62.3211996 112.166721,62.8921655 112.169186,62.8863447 C111.829942,63.6874521 111.507466,64.195497 110.915116,64.717549 C110.803359,64.8160428 110.684183,64.9119095 110.556745,65.0058788 C110.093832,65.3471793 109.533815,65.5571335 108.89467,65.6806197 C108.258591,65.8035137 107.616481,65.8296416 107.043526,65.8036676 C107.0167,65.8024515 90.0672834,65.822637 56.1952757,65.8642242 Z" id="Stroke-3" fill="#EBEBEB"></path>
                                <path d="M107.032649,61.9579942 C107.548208,61.9839174 108.003926,61.9653739 108.409045,61.8871026 C108.706187,61.8296932 108.926946,61.7469293 109.037501,61.665418 C109.480264,61.2897895 109.609141,61.0867503 109.81184,60.6080852 C109.798847,60.6387686 110.046214,60.0403047 110.134803,59.8396942 C110.401778,59.2345098 110.405958,57.9992233 110.137814,55.9902157 C110.101803,55.720736 110.061257,55.4429878 110.007976,55.0955537 C109.994966,55.0107156 109.981572,54.9241072 109.964073,54.8114763 C109.942183,54.6707223 109.942183,54.6707223 109.92055,54.5314537 C109.885353,54.3045029 109.860717,54.1427414 109.837794,53.9865198 C109.777521,53.5757645 109.737309,53.255622 109.712508,52.9688832 C109.627822,51.9897598 109.688404,51.3820818 110.175251,50.8469524 C110.607789,50.3715173 111.163861,50.2078219 111.869233,50.1575477 C112.1837,50.1351345 112.502826,50.1418067 112.810569,50.1658571 C112.881988,50.1714385 116.521349,51.1000914 123.728654,52.9518156 C124.928223,53.1751799 125.868621,53.1910192 126.544437,53.0921516 C127.095862,52.9584139 127.458398,52.6699949 127.846651,52.2305017 C128.04992,52.0004059 128.244582,51.7489275 128.421082,51.4972067 C128.496088,51.3902349 128.554716,51.302344 128.594244,51.2409194 C128.66387,51.0868141 128.71883,50.9649842 128.78076,50.8275077 C128.957794,50.4345094 129.155099,49.9951013 129.367598,49.5200857 C129.97465,48.1630925 130.581659,46.7930336 131.147896,45.4965846 C131.197816,45.3822902 131.247241,45.2689695 131.296155,45.1566613 C132.623128,42.1098664 133.508897,39.9507583 133.647203,39.3931418 C133.685895,39.2372332 133.575296,39.0450901 133.207189,38.7781624 C133.057947,38.6699415 132.891007,38.5725894 132.723853,38.4909344 C132.659347,38.4594234 132.557615,38.4145522 132.418655,38.356321 L122.26264,33.4023564 C119.923126,32.2233209 117.704671,31.2115791 115.679786,30.3680774 C114.972951,30.0736329 114.341518,29.8214913 113.794539,29.6117474 C113.604337,29.5388125 113.438626,29.4765051 113.298538,29.4248361 C110.728854,28.8896845 108.989754,28.9124369 106.554739,29.2709969 C106.555557,29.2708765 105.829161,29.3796379 105.628303,29.4081016 C105.276154,29.4580047 104.990318,29.4928403 104.716547,29.5172332 C102.224068,29.7389315 94.6676885,30.334757 93.5025275,30.3917858 C93.1560069,30.4087502 92.9320706,30.46213 92.8051507,30.5235432 C92.7726582,30.563196 92.7259302,30.6202487 92.666639,30.6926844 C92.5334781,30.8553661 92.3850746,31.0368573 92.2252464,31.2325562 C91.7686673,31.7916066 91.3121211,32.3523674 90.8862343,32.8779202 C90.0679174,33.8880176 89.4833347,34.6187758 89.1863294,35.0055895 C89.0279815,35.2118186 88.8590054,35.4064352 88.6808913,35.5897922 C88.2871279,35.9951466 87.8666127,36.3289581 87.4434522,36.5983991 C87.1796366,36.7663796 86.9624716,36.8802902 86.8142138,36.9455805 L86.4072708,37.0494989 L73.5332344,38.1487754 C69.4222428,38.3957205 62.7584367,36.2892892 58.4917282,33.2032962 C57.0708771,32.1755595 55.5957973,30.7743328 54.0920558,29.0898454 C52.9735975,27.8369513 51.9027813,26.4990747 50.9145472,25.1615295 C50.5687064,24.6934444 50.257533,24.258341 49.9856027,23.867008 C49.8898686,23.7292378 49.8057005,23.6065056 49.7336754,23.5001638 C46.0963688,19.0607992 45.7612715,16.4025955 47.405889,13.703647 C47.4553671,13.6224496 47.6836004,13.2568716 47.7373829,13.167243 C47.7287831,13.0196053 47.6359755,12.9663266 47.5930915,12.9409843 C47.4730995,12.870075 47.3680515,12.8036095 47.264862,12.7314691 C47.0027484,12.548224 41.31493,9.25839991 40.1341514,8.56228267 C39.9248673,8.43890111 39.7199334,8.31774361 39.519058,8.19862391 C38.0821033,7.34650568 36.861198,6.60371178 35.8517358,5.96312112 C31.6911148,3.32305265 29.580867,2.66665133 26.1570466,3.10914188 C23.9566479,3.39351883 22.6787294,3.96328685 21.0658153,5.20306265 C20.7641296,5.43495514 19.3137926,6.61196859 18.8567367,6.96380135 C18.1352567,7.51926923 17.2986309,7.98751803 16.3700797,8.38067967 C15.3332405,8.81969205 14.2348095,9.144496 13.1380862,9.3754156 C12.4785241,9.51428911 11.9587687,9.5921157 11.6448107,9.6248063 C10.9131413,9.66252836 10.4527225,9.73147336 10.1869537,9.81190184 C10.1018197,10.9694068 9.43546966,13.4825888 8.54907646,15.9672388 C8.18718671,16.9820802 7.69342096,18.1398485 7.02633518,19.5760856 C6.88216214,19.8864904 6.72970103,20.2103879 6.56112734,20.564959 C6.34762578,21.0140295 5.59728835,22.5749579 5.4495009,22.8853284 C5.05342226,23.7171386 4.78020373,24.3120203 4.57055867,24.8066923 C4.30077727,25.44326 4.02512585,26.4689358 3.76626479,27.7521732 C3.58610401,28.6452741 3.42456348,29.6073622 3.28460933,30.570171 C3.23554665,30.9076957 3.19273283,31.2209169 3.15646327,31.5015193 C3.13487439,31.6685433 3.12038127,31.7865517 3.11326553,31.8472776 L3.07441101,32.0439587 C2.90244063,32.657136 2.98915519,33.1105488 3.23001879,33.4815001 C3.31490781,33.6122368 3.3878955,33.6879385 3.39710523,33.6951749 L11.2641948,40.5949532 C14.388839,43.1115511 14.9259252,44.3258594 13.9711034,46.3225326 C13.8029094,46.674261 13.5290726,47.0862774 13.0949295,47.673757 C12.9375342,47.8867431 12.7665702,48.1127815 12.522315,48.432159 C12.4544928,48.5208403 12.2040585,48.8477121 12.21879,48.828475 C12.0957968,48.9890863 12.002673,49.111018 11.9119751,49.2303491 C11.8066351,49.3689448 11.7109241,49.4957185 11.6202949,49.6168215 C10.862658,50.6292118 10.3986636,51.3366431 10.2109762,51.7873405 C10.1757275,51.8720408 10.1515071,51.9409709 10.1352926,51.9952748 C10.2383364,52.0337134 10.38768,52.0872736 10.5845067,52.1545069 C11.1066908,52.3328776 11.7506308,52.5331536 12.5206697,52.7500072 C14.7422063,53.3756228 17.5201855,54.0035882 20.8892881,54.5912565 C21.3253522,54.6673186 21.7692374,54.7422913 22.2209482,54.8161085 C29.1221795,55.9436432 38.8888056,55.8036569 43.8571822,55.1069759 C46.8428949,54.6880119 50.1144868,55.5118602 51.963326,57.1811479 C52.6427419,57.7945818 53.0856642,58.3045691 53.4428684,58.8716591 C53.5581995,59.0547564 53.6625445,59.2394441 53.7802227,59.4638386 C53.8366188,59.5713776 54.0834609,60.0571735 54.1568437,60.197026 C54.3131818,60.4949744 54.4658728,60.7660578 54.6483395,61.0634949 C54.8087723,61.3250913 54.9832732,61.5250382 55.1685554,61.6753421 C55.3729373,61.8411401 55.583174,61.9411958 55.7926311,61.9924407 C55.870451,62.0114798 72.950457,61.9999976 107.032649,61.9579942 Z M56.1952757,64.5842242 C55.4059024,64.6265285 54.4567245,64.3943067 53.5557759,63.6634423 C53.1437565,63.3292054 52.7771783,62.9091722 52.4661376,62.4019996 C52.2519874,62.0529156 52.0715722,61.7326112 51.8899597,61.3864951 C51.8062317,61.2269268 51.5592135,60.7407845 51.5130678,60.6527915 C51.4243318,60.4835853 51.3516919,60.3550148 51.2767664,60.2360646 C51.0525488,59.8801013 50.7620081,59.5455684 50.2477507,59.0812535 C49.0002202,57.954878 46.4896297,57.3226641 44.2127995,57.6421557 C39.0066953,58.3721715 28.9886037,58.5157621 21.8081207,57.3426029 C21.3473637,57.2673073 20.8944702,57.1908131 20.4493925,57.1131787 C16.9957351,56.5107617 14.132994,55.8636357 11.8267302,55.2141598 C10.4930833,54.8385863 9.59959903,54.5373776 9.11681623,54.3468956 C8.88461299,54.2769005 8.62682737,54.1519858 8.36869263,53.9416107 C7.52734739,53.2559295 7.30137275,52.1159929 7.84758967,50.8034686 C8.14413212,50.0913751 8.68645291,49.2645232 9.57068699,48.0829678 C9.66541055,47.9563937 9.76488228,47.8246386 9.87385167,47.6812678 C11.6263089,45.3755629 11.5129339,45.5289811 11.6615847,45.2181217 C11.7901077,44.9493612 11.8321837,44.8439698 11.8439051,44.7807577 C11.6558374,44.3521915 10.9968232,43.665131 9.63826482,42.5724937 L1.78262214,35.6818211 C1.57325782,35.5108413 1.32272536,35.2449403 1.0829296,34.8756336 C0.474339642,33.938351 0.240333654,32.7708492 0.582114947,31.4541365 C0.590856183,31.3828229 0.60270233,31.2884878 0.617584108,31.1733537 C0.655522471,30.8798405 0.700152395,30.5533329 0.751234036,30.2019189 C0.897406509,29.1963314 1.06637185,28.1900232 1.25681417,27.2459542 C1.54712912,25.8067923 1.86056036,24.640541 2.21349983,23.807756 C2.44098328,23.2709932 2.72734791,22.6474883 3.1381548,21.7847471 C3.28876861,21.4684409 4.03866179,19.9084367 4.24912228,19.4657626 C4.41459943,19.1177047 4.56386308,18.8006001 4.70455366,18.497693 C5.34129393,17.1267898 5.80749704,16.0336497 6.13785818,15.1072235 C6.59574575,13.8237181 6.99356788,12.5259002 7.27589398,11.4210842 C7.51239956,10.4955759 7.644658,9.76959589 7.63712384,9.61749813 C7.55323747,7.92483433 8.89114548,7.20524097 11.4098345,7.07522224 C11.9712116,6.9949084 12.2786082,6.94025131 12.6106327,6.87034218 C13.5570758,6.67106471 14.5018112,6.39170823 15.3719272,6.02328884 C16.1113379,5.71021195 16.7604366,5.34691968 17.2951001,4.93528198 C17.717232,4.61033296 19.1685058,3.43255928 19.505689,3.17338144 C21.460037,1.67116045 23.1537952,0.915987686 25.8289241,0.570257156 C29.9348477,0.0396123818 32.6022553,0.869320555 37.2233635,3.80158521 C38.2078211,4.42630832 39.4081857,5.15660529 40.8248207,5.99667389 C41.0237752,6.11465448 41.2268276,6.23469968 41.4342613,6.35699036 C42.4418522,6.95100631 48.3644086,10.3766025 48.7316661,10.6333543 C48.9476282,10.7678539 49.1500626,10.8832676 49.173095,10.8966128 C50.5259438,11.6804654 50.9169391,12.8438888 49.9325079,14.4844469 C49.8644415,14.5978798 49.629869,14.9736115 49.591997,15.0357626 C49.1156925,15.8174162 48.9577374,16.3311893 49.0552039,17.0871217 C49.2051131,18.2497887 50.0084169,19.7966657 51.6965082,21.8423362 C51.7885707,21.9685972 51.8143216,22.0070683 51.8532663,22.0645684 C51.9196542,22.1625871 51.9980575,22.2769131 52.0878786,22.4061739 C52.3461057,22.7777867 52.6429276,23.192823 52.9735223,23.6402729 C53.9179607,24.9185419 54.9408027,26.1964796 56.0018055,27.3850122 C57.3928907,28.9433022 58.7418207,30.2246952 59.992051,31.1290177 C63.7953133,33.8798127 69.8811285,35.803541 73.3475445,35.5957228 L85.9343665,34.5205715 C86.3317724,34.2713416 86.5977095,34.0602367 86.8446349,33.8060427 C86.9549356,33.6924952 87.0589839,33.5726586 87.1558336,33.4465235 C87.4711941,33.0358044 88.0643341,32.2943492 88.8622526,31.3094247 C89.3254752,30.7377928 89.7839947,30.1746081 90.2424813,29.6132223 C90.4029261,29.4167684 90.5519189,29.2345565 90.6856522,29.0711754 C90.9919463,28.6713615 91.2557785,28.4416941 91.6204335,28.2539243 C92.0852218,28.0145932 92.668558,27.8695481 93.3773633,27.8348474 C94.4973956,27.7800275 102.030971,27.1860001 104.489545,26.9673175 C104.712418,26.9474596 104.957173,26.9176306 105.269113,26.8734255 C105.458206,26.8466291 106.173666,26.7395051 106.181797,26.7383079 C108.917702,26.3354413 110.954986,26.3133456 113.824008,26.9061249 C114.028483,26.9659275 114.092478,26.9890898 114.184413,27.0229983 C114.334672,27.0784187 114.510615,27.1445732 114.711117,27.2214576 C115.280439,27.4397689 115.934461,27.700931 116.664202,28.0049176 C118.74382,28.8712193 121.017926,29.9083407 123.399851,31.1088714 L133.489255,36.0302242 C133.82611,36.1614903 134.262536,36.3812133 134.710012,36.7056946 C135.830624,37.5182917 136.47313,38.634514 136.131874,40.0095912 C135.9408,40.7799566 135.067709,42.908163 133.643212,46.178877 C133.593943,46.2920008 133.544165,46.4061291 133.493896,46.5212239 C132.924299,47.8253657 132.314342,49.2020766 131.704428,50.5654681 C131.490989,51.0425871 131.29278,51.4840059 131.114867,51.8789562 C131.052564,52.0172617 130.997237,52.1399054 130.949518,52.2455405 C130.917235,52.3169683 130.886836,52.3841677 130.85832,52.4471387 C130.594034,52.8803551 130.230845,53.3983268 129.765229,53.9253933 C129.091949,54.6875308 128.405796,55.233407 127.637837,55.4702459 C127.255867,55.5671073 127.104921,55.5974057 126.915004,55.6251893 C125.952497,55.765998 124.712198,55.7434457 123.211274,55.4594052 L112.666964,52.7227531 C112.49394,52.708918 112.373818,52.7038105 112.259304,52.7040139 C112.282605,52.9751139 112.317128,53.2499675 112.37067,53.6148528 C112.392372,53.7627503 112.416091,53.9184862 112.450309,54.1391292 C112.471734,54.2770601 112.471734,54.2770601 112.493722,54.418442 C112.511457,54.5325918 112.525086,54.6207237 112.538394,54.7075022 C112.593965,55.0698711 112.63673,55.3628128 112.675285,55.6513338 C113.005214,58.1232517 112.99992,59.6876292 112.476824,60.8733952 C112.402722,61.0411996 112.166721,61.6121655 112.169186,61.6063447 C111.829942,62.4074521 111.507466,62.915497 110.915116,63.437549 C110.803359,63.5360428 110.684183,63.6319095 110.556745,63.7258788 C110.093832,64.0671793 109.533815,64.2771335 108.89467,64.4006197 C108.258591,64.5235137 107.616481,64.5496416 107.043526,64.5236676 C107.0167,64.5224515 90.0672834,64.542637 56.1952757,64.5842242 Z" id="Stroke-3" fill="#F2F2F2"></path>
                                <path d="M48.0330909,14.15682 C48.0796674,14.0803842 48.3094856,13.7122678 48.366839,13.6166881 C48.765506,12.9523081 48.7657349,12.9529891 48.2912061,12.6780428 C48.2797467,12.6714032 48.0669388,12.5500753 47.99937,12.5101455 C47.8923427,12.4468977 47.8004731,12.3887703 47.7122379,12.3270846 C47.4238383,12.1254628 41.6773354,8.80169566 40.5398538,8.13110374 C40.3310322,8.0079949 40.1265687,7.88711547 39.9261735,7.76828055 C38.4942988,6.91917473 37.2785286,6.17950507 36.2753081,5.5428753 C31.9995748,2.82976378 29.750037,2.13003574 26.1556908,2.59456484 C23.8366096,2.89428019 22.4547311,3.5103994 20.7564586,4.8157865 C20.4458985,5.05450033 18.9953273,6.23170383 18.5469833,6.57683034 C17.8722266,7.09632599 17.0824825,7.53833566 16.2012165,7.91147611 C15.206058,8.33284024 14.1460509,8.64628232 13.0868977,8.86929139 C12.7165788,8.94726356 12.3722553,9.00848649 12.062279,9.0549014 C11.8737117,9.08313689 11.7365505,9.10033828 11.624195,9.11106885 C10.6955565,9.15649808 10.0979201,9.27290042 9.79288961,9.43488711 C9.64647513,9.51264063 9.63039392,9.54068116 9.63544595,9.64262119 C9.67659299,10.4732866 8.97852578,13.2050065 8.02693241,15.8724193 C7.53648025,17.2477861 6.88577647,18.7003785 5.69898936,21.1735983 C4.48511858,23.7032594 4.38359502,23.9182032 4.06196882,24.6771023 C3.7713979,25.3627244 3.48630152,26.4235441 3.21957699,27.7457626 C3.03684583,28.6516055 2.8734491,29.6247486 2.73194036,30.5982521 C2.68237294,30.9392491 2.63910509,31.2557919 2.60241833,31.539622 C2.58049271,31.7092514 2.56569154,31.829768 2.55828946,31.8929376 C2.31465311,32.7907177 2.43722884,33.4316413 2.77392135,33.9501776 C2.90070477,34.1454354 3.02153753,34.2707613 3.10904246,34.3407114 L10.9222385,41.1964855 C13.8613462,43.5602989 14.275958,44.4903949 13.474397,46.1665772 C13.3292829,46.4700408 13.0714342,46.8580015 12.6608977,47.4135366 C12.5060541,47.62307 12.3369121,47.8466994 12.0946203,48.1635095 C12.0269959,48.2519322 11.7767645,48.5785393 11.7913398,48.5595062 C11.6679171,48.7206782 11.5743667,48.8431687 11.4831191,48.9632229 C11.3768717,49.1030124 11.2802206,49.2310314 11.1885678,49.3535022 C10.3992816,50.4081838 9.91570557,51.1454702 9.70077508,51.6615872 C9.46695007,52.2234538 9.51204738,52.4509486 9.66232906,52.5734255 C9.86827405,52.6675934 9.91537708,52.6859534 9.98968096,52.7136979 C10.1174243,52.7613963 10.2734511,52.8171494 10.4583031,52.8802922 C10.9915827,53.062453 11.6466577,53.2661922 12.4278597,53.4861895 C14.6705781,54.1177701 17.4697477,54.7505257 20.8599891,55.3418812 C21.2983066,55.4183364 21.7444438,55.4936895 22.198427,55.567878 C29.1694604,56.706817 38.9989528,56.5659297 44.0267924,55.8609106 C46.8352535,55.4668191 49.916595,56.2427588 51.615107,57.7763184 C52.2532333,58.3524726 52.6580602,58.8185963 52.9820177,59.3329046 C53.0872475,59.4999651 53.1836662,59.6706235 53.2941088,59.881221 C53.3479423,59.9838734 53.5948285,60.469756 53.6707976,60.6145375 C53.8334543,60.9245278 53.9930763,61.2079164 54.183442,61.5182296 C54.3815487,61.8412557 54.6040689,62.0962241 54.8460354,62.2925113 C55.3316557,62.6864545 55.8204095,62.806031 56.1723476,62.7871734 C56.1761758,62.7869145 73.1393822,62.7639253 107.061967,62.7182058 C107.645951,62.7454926 108.148267,62.725053 108.611127,62.635626 C108.993769,62.5616974 109.299342,62.4471359 109.498001,62.3006668 C109.581274,62.2392639 109.657072,62.1782907 109.726312,62.1172684 C110.067739,61.8163606 110.245016,61.5370699 110.481851,60.9777942 C110.47149,61.002262 110.716016,60.4106725 110.801032,60.2181532 C111.131988,59.4679338 111.136447,58.1503746 110.85285,56.0255892 C110.81621,55.7513993 110.775109,55.4698528 110.721255,55.1186849 C110.258347,52.1001402 110.243762,51.9315045 110.729326,51.397784 C111.017907,51.0805832 111.443004,50.9554441 111.995407,50.9160724 C112.273684,50.8962387 112.562782,50.9022831 112.841379,50.9240557 C112.905699,50.9290824 116.515196,51.8533888 123.66987,53.6969748 C124.949782,53.9373048 125.968529,53.955162 126.717754,53.8455552 C127.085637,53.7742067 127.118337,53.7662512 127.15268,53.7556599 C127.504021,53.6473063 127.947461,53.294523 128.406971,52.7743688 C128.627488,52.5247485 128.836427,52.2548246 129.025776,51.9847796 C129.122638,51.8466366 129.195302,51.7362732 129.239399,51.6660656 C129.327887,51.4702311 129.382939,51.3481978 129.444961,51.210514 C129.622215,50.8170277 129.819747,50.3771169 130.03248,49.9015754 C130.640248,48.5429827 131.247994,47.1712608 131.815071,45.8728885 C131.865078,45.7583941 131.914592,45.6448715 131.963594,45.5323594 C133.314948,42.4295847 134.197548,40.278202 134.349035,39.6674401 C134.463378,39.2066975 134.219803,38.7835346 133.66357,38.3801896 C133.481894,38.2484494 133.283721,38.1328842 133.085442,38.0360246 C133.007308,37.9978562 132.905463,37.9529302 132.779907,37.9012464 L122.631343,32.9509768 C120.277501,31.76472 118.045133,30.7466333 116.006565,29.8974316 C115.294004,29.6006015 114.656923,29.3462049 114.104359,29.1343191 C113.911581,29.0603968 113.743312,28.9971277 113.600682,28.9445208 C110.876419,28.3656079 109.059849,28.3872377 106.542178,28.7579688 C106.540759,28.7581778 105.817097,28.8665299 105.61918,28.8945767 C105.277084,28.9430553 105.001517,28.9766393 104.74052,28.9998941 C102.256469,29.2208428 94.7057901,29.8162188 93.5519075,29.8726955 C93.1058783,29.8945316 92.7895856,29.973177 92.5800791,30.0810571 C92.389145,30.2400468 92.33202,30.3097734 92.2520672,30.4074513 C92.1187632,30.5703079 91.9702124,30.7519792 91.81023,30.9478668 C91.353174,31.5075011 90.8961345,32.0688679 90.4696757,32.5951265 C89.6476964,33.6097447 89.0609744,34.3431771 88.7593803,34.7359672 C88.6164069,34.9221728 88.4636628,35.0980944 88.3025021,35.263999 C87.6887576,35.8958098 87.0725351,36.2881802 86.6369475,36.480006 L73.575534,37.6300711 C69.6176391,37.8678198 63.0983307,35.8070642 58.9474926,32.8048772 C57.5692879,31.8079875 56.1257455,30.4367193 54.6501681,28.7837812 C53.5460737,27.5469775 52.487251,26.2240857 51.5099658,24.9013595 C51.1679366,24.4384332 50.8603511,24.0083466 50.5918465,23.6219436 C50.4975907,23.4863008 50.4148638,23.3656701 50.344248,23.2614091 C46.8371327,18.9844905 46.5352786,16.6148495 48.0330909,14.15682 Z M92.4465202,30.1686024 C92.4456347,30.1694242 92.4447691,30.170239 92.4439232,30.1710465 C92.4439537,30.1710174 92.4442904,30.1706001 92.4449166,30.1697806 L92.4465202,30.1686024 Z M56.255807,64.0643941 C56.0187976,64.0772371 55.7375593,64.0560008 55.4170242,63.97758 C54.9416185,63.8612693 54.4734146,63.638442 54.0396456,63.2865614 C53.6843105,62.9983077 53.3657516,62.6332961 53.0923411,62.1874819 C52.8861336,61.8513453 52.7126494,61.5433462 52.5373555,61.209272 C52.4562139,61.0546326 52.2092397,60.5685769 52.1605314,60.4756975 C52.0645599,60.2926941 51.9839937,60.1500943 51.8989668,60.0151074 C51.6415025,59.6063624 51.3128664,59.2279659 50.7573194,58.7263713 C49.3594617,57.4642677 46.6586209,56.7841452 44.204601,57.1285005 C39.0578977,57.850187 29.1026725,57.9928765 21.9920133,56.8311252 C21.533507,56.7561975 21.0828656,56.6800836 20.6400412,56.6028423 C17.2075225,56.0041125 14.3659719,55.3617766 12.0808899,54.7182658 C11.2773618,54.4919811 10.6000167,54.2813156 10.0445461,54.0915747 C9.74202153,53.9882365 9.53018871,53.9101514 9.40596217,53.8611225 C9.24230281,53.8148095 9.04809211,53.7240809 8.85368801,53.5656451 C8.24269729,53.0676986 8.07701509,52.2319093 8.51908181,51.1696512 C8.78843984,50.5228362 9.31117903,49.7258395 10.1637638,48.5865754 C10.2574638,48.461369 10.3559953,48.3308593 10.4640574,48.1886823 C12.3060355,45.7651949 12.1402145,45.9895828 12.3196377,45.6143718 C12.810296,44.5883328 12.6499518,44.2286336 10.099053,42.1762888 L2.29154483,35.3250362 C2.12747187,35.1961186 1.91094898,34.9715443 1.70037675,34.6472443 C1.17949177,33.8450352 0.983285726,32.846262 1.292795,31.6952129 C1.30155136,31.6226439 1.31498976,31.5147126 1.33297875,31.3755393 C1.37049992,31.0852538 1.41467581,30.7620678 1.46525272,30.4141261 C1.60987061,29.4192333 1.77697975,28.4239801 1.96485168,27.4926531 C2.24730316,26.0924723 2.55128945,24.9613649 2.8834394,24.1776342 C3.21687838,23.390862 3.31684814,23.1792079 4.54497462,20.6198384 C5.71242057,18.1869249 6.35088309,16.7616592 6.82132327,15.4424117 C7.71513255,12.9369735 8.38685358,10.3083531 8.35701419,9.70596354 C8.29672477,8.48944006 9.32781743,7.9418775 11.5266423,7.83527473 C12.158676,7.74619719 12.4783816,7.68935149 12.8231709,7.61675468 C13.8071841,7.40956668 14.7903434,7.11884833 15.7021402,6.7327807 C16.488836,6.39968262 17.1848165,6.01015122 17.766165,5.56257066 C18.197047,5.23088602 19.6480866,4.05330239 19.9763954,3.80094589 C21.8453849,2.3643362 23.4351833,1.65551462 25.9916296,1.32512248 C29.9270274,0.816516268 32.455145,1.60289773 36.961122,4.46210735 C37.9518402,5.09080334 39.1573399,5.82422454 40.5790548,6.66730554 C40.7784896,6.78557091 40.9820123,6.90589418 41.1899087,7.02845759 C42.2407965,7.64799886 48.1046684,11.039652 48.4456399,11.2780272 C48.7078483,11.4420238 48.9137405,11.5594089 48.9329153,11.5705189 C49.9929907,12.184736 50.253578,12.9601247 49.4644015,14.2752901 C49.3999061,14.3827719 49.1669184,14.7559652 49.1261448,14.8228778 C48.5810403,15.7174379 48.381974,16.3649312 48.5011332,17.2891071 C48.6688409,18.589817 49.5254098,20.2392635 51.2835531,22.3698247 C51.4718407,22.6437109 51.5516852,22.7601384 51.6429845,22.8915266 C51.9046374,23.2680694 52.2050472,23.6881225 52.5394534,24.1407312 C53.4948407,25.4338193 54.5296763,26.7267417 55.6050429,27.9313647 C57.0242922,29.521204 58.4047597,30.8325554 59.697654,31.7677379 C63.616769,34.602326 69.8470819,36.57173 73.482689,36.3535448 L86.2066559,35.2666787 C86.2774604,35.2296238 86.3751508,35.1739594 86.4928983,35.0989855 C86.7961573,34.9058899 87.100739,34.6641083 87.3843739,34.3721242 C87.5116279,34.2411244 87.6319081,34.1025928 87.7441324,33.9564342 C88.0549041,33.5516914 88.6459047,32.8129104 89.4402163,31.8324383 C89.9028115,31.2615806 90.3608377,30.6990019 90.8188474,30.1381999 C90.9791381,29.9419348 91.1279836,29.759903 91.2615738,29.5966968 C91.3267329,29.5170923 91.3767531,29.4560244 91.4096606,29.4158708 C91.5199815,29.2583457 91.7101564,29.0892735 91.9940986,28.9430646 C92.373793,28.7475506 92.8681147,28.6246387 93.4893255,28.5942263 C94.6206436,28.538854 102.15992,27.9443771 104.627019,27.7249363 C104.862567,27.7039489 105.117593,27.6728683 105.439585,27.6272387 C105.63162,27.6000255 106.349814,27.4924921 106.355707,27.4916243 C109.023605,27.0987719 110.98941,27.0774514 113.775185,27.6530308 C114.191335,27.7980844 114.36472,27.8632771 114.562647,27.9391742 C115.126383,28.1553437 115.774759,28.4142506 116.498773,28.7158517 C118.564708,29.5764534 120.824901,30.6072299 123.199949,31.8042342 L133.314039,36.7376285 C133.606433,36.8492499 134.007786,37.0486829 134.414982,37.3439557 C135.347467,38.0201354 135.856996,38.9053379 135.59137,39.9756648 C135.413499,40.6928012 134.537238,42.828733 133.137122,46.0434672 C133.087942,46.1563871 133.038252,46.2703135 132.988071,46.3852082 C132.419314,47.6874268 131.810094,49.0624747 131.200896,50.4242666 C130.987691,50.9008598 130.789709,51.3417759 130.612015,51.7362383 C130.549805,51.8743365 130.49457,51.9967767 130.446942,52.1022114 C130.414743,52.1734528 130.383007,52.2397237 130.351734,52.301024 C130.298113,52.3889188 130.203469,52.5347261 130.073814,52.7196369 C129.858769,53.0263306 129.621273,53.3331454 129.36626,53.6218146 C128.764237,54.303291 128.158987,54.7848029 127.529901,54.9788134 C127.217835,55.0579779 127.082911,55.0857596 126.903037,55.112074 C126.010266,55.2426808 124.841479,55.2214288 123.410953,54.9507107 L112.859678,52.210758 C112.521344,52.1829475 112.292301,52.1781588 112.086406,52.1928336 C111.895379,52.2064488 111.754404,52.2383621 111.700339,52.252371 C111.679736,52.4635209 111.683541,52.6634303 111.706042,52.9235804 C111.726956,53.165385 111.762901,53.4515609 111.818126,53.8279137 C111.840134,53.9778922 111.864081,54.1351346 111.898544,54.3573545 C111.920021,54.4956198 111.920021,54.4956198 111.941984,54.6368447 C111.959661,54.7506148 111.973231,54.8383658 111.986464,54.9246592 C112.041463,55.2832944 112.083673,55.5724377 112.121586,55.8561482 C112.436074,58.2123888 112.43106,59.6944935 111.972042,60.7350037 C111.89427,60.91112 111.655427,61.4889605 111.660524,61.476924 C111.355417,62.1974208 111.08134,62.6292143 110.572631,63.0775515 C110.475047,63.1635549 110.370329,63.2477904 110.257623,63.3308972 C109.882785,63.607261 109.407583,63.7854176 108.853939,63.8923846 C108.275599,64.0041229 107.680088,64.0283547 107.153185,64.0044684 C107.121962,64.0030529 90.1561695,64.0230281 56.255807,64.0643941 Z" id="Stroke-5" fill="url(#linearGradient-1)"></path>
                                <path d="M43.8815378,55.8486175 L44.0592843,57.1162161 C38.912581,57.8379026 28.9573558,57.9805921 21.8467183,56.8188443 C21.3851611,56.7434343 20.931574,56.666821 20.4859082,56.5890644 C17.0561194,55.990659 14.2167425,55.3486707 11.9333337,54.7055074 C11.130392,54.4793444 10.4535288,54.2687918 9.89844279,54.0791523 C9.56060628,53.9637339 9.33594057,53.8798336 9.22014675,53.8327562 L9.70222775,52.6470083 C9.72265515,52.6553134 9.76972321,52.6736621 9.84397291,52.7013903 C9.97162526,52.7490614 10.1275401,52.8047828 10.3122583,52.8678898 C10.8451547,53.0499485 11.4997488,53.2535738 12.2803653,53.4734485 C14.5214088,54.1046789 17.3184021,54.7370841 20.7059102,55.3281127 C21.1470365,55.4050774 21.596087,55.4809244 22.0531103,55.5555936 C29.0241437,56.6945326 38.8536361,56.5536452 43.8815378,55.8486175 Z" id="Stroke-9" fill="#FFB819"></path>
                                <polygon id="Stroke-11" fill="#FFB819" points="82.3001381 62.779844 82.3001381 64.059844 56.8332223 64.059844 56.8332223 62.779844"></polygon>
                                <polygon id="Stroke-13" fill="#FF9219" points="107.14591 62.7746765 107.14591 64.0546765 79.1192582 64.0546765 79.1192582 62.7746765"></polygon>
                                <path d="M48.0330909,14.15682 C48.0796674,14.0803842 48.3094856,13.7122678 48.366839,13.6166881 C48.765506,12.9523081 48.7657349,12.9529891 48.2912061,12.6780428 C48.2797467,12.6714032 48.0669388,12.5500753 47.99937,12.5101455 C47.8923427,12.4468977 47.8004731,12.3887703 47.7122379,12.3270846 C47.4238383,12.1254628 41.6773354,8.80169566 40.5398538,8.13110374 C40.3310322,8.0079949 40.1265687,7.88711547 39.9261735,7.76828055 C38.4942988,6.91917473 37.2785286,6.17950507 36.2753081,5.5428753 C31.9995748,2.82976378 29.750037,2.13003574 26.1556908,2.59456484 C23.8366096,2.89428019 22.4547311,3.5103994 20.7564586,4.8157865 C20.4458985,5.05450033 18.9953273,6.23170383 18.5469833,6.57683034 C17.8722266,7.09632599 17.0824825,7.53833566 16.2012165,7.91147611 C15.206058,8.33284024 14.1460509,8.64628232 13.0868977,8.86929139 C12.7165788,8.94726356 12.3722553,9.00848649 12.062279,9.0549014 C11.8737117,9.08313689 11.7365505,9.10033828 11.624195,9.11106885 C10.6955565,9.15649808 10.0979201,9.27290042 9.79288961,9.43488711 C9.64647513,9.51264063 9.63039392,9.54068116 9.63544595,9.64262119 C9.66269615,10.192741 9.36926092,11.5681672 8.8776867,13.2513843 L7.64901155,12.8925565 C8.09795986,11.3552964 8.37450405,10.059044 8.35701419,9.70596354 C8.29672477,8.48944006 9.32781743,7.9418775 11.5266423,7.83527473 C11.5855073,7.82914546 11.703742,7.81431763 11.8727288,7.78901406 C12.158676,7.74619719 12.4783816,7.68935149 12.8231709,7.61675468 C13.8071841,7.40956668 14.7903434,7.11884833 15.7021402,6.7327807 C16.488836,6.39968262 17.1848165,6.01015122 17.766165,5.56257066 C18.197047,5.23088602 19.6480866,4.05330239 19.9763954,3.80094589 C21.8453849,2.3643362 23.4351833,1.65551462 25.9916296,1.32512248 C29.9270274,0.816516268 32.455145,1.60289773 36.961122,4.46210735 C37.9518402,5.09080334 39.1573399,5.82422454 40.5790548,6.66730554 C40.7784896,6.78557091 40.9820123,6.90589418 41.1899087,7.02845759 C42.2407965,7.64799886 48.1046684,11.039652 48.4456399,11.2780272 C48.5039664,11.3188036 48.5694794,11.3602547 48.6505772,11.4081794 C48.7078483,11.4420238 48.9137405,11.5594089 48.9329153,11.5705189 C49.9929907,12.184736 50.253578,12.9601247 49.4644015,14.2752901 C49.3999061,14.3827719 49.1669184,14.7559652 49.1261448,14.8228778 C48.5810403,15.7174379 48.381974,16.3649312 48.5011332,17.2891071 C48.6688409,18.589817 49.5254098,20.2392635 51.2835531,22.3698247 C51.3367987,22.4438545 51.3638091,22.4842073 51.4040434,22.5436114 C51.4718407,22.6437109 51.5516852,22.7601384 51.6429845,22.8915266 C51.9046374,23.2680694 52.2050472,23.6881225 52.5394534,24.1407312 C53.4948407,25.4338193 54.5296763,26.7267417 55.6050429,27.9313647 C57.0242922,29.521204 58.4047597,30.8325554 59.697654,31.7677379 C63.616769,34.602326 69.8470819,36.57173 73.482689,36.3535448 L82.3778764,35.5937285 L82.4868157,36.8690842 C78.995492,37.1673089 78.995492,37.1673089 73.575534,37.6300711 C69.6176391,37.8678198 63.0983307,35.8070642 58.9474926,32.8048772 C57.5692879,31.8079875 56.1257455,30.4367193 54.6501681,28.7837812 C53.5460737,27.5469775 52.487251,26.2240857 51.5099658,24.9013595 C51.1679366,24.4384332 50.8603511,24.0083466 50.5918465,23.6219436 C50.4975907,23.4863008 50.4148638,23.3656701 50.344248,23.2614091 C46.8371327,18.9844905 46.5352786,16.6148495 48.0330909,14.15682 Z" id="Stroke-5" fill-opacity="0.2" fill="#000000"></path>
                                <path d="M92.446214,30.1955066 C92.4453223,30.1963343 92.4444508,30.1971548 92.4435993,30.1979679 C92.4436343,30.1979345 92.4439754,30.1975125 92.444606,30.1966879 L92.446214,30.1955066 Z M92.2516634,30.4344956 C92.1183594,30.5973522 91.9698086,30.7790236 91.8098263,30.9749112 C91.3527703,31.5345454 90.8957307,32.0959122 90.469272,32.6221708 C89.6472927,33.636789 89.0605707,34.3702214 88.7589232,34.7630809 C88.6161108,34.9490243 88.4635567,35.1247202 88.30261,35.290434 C87.6888559,35.9223668 87.0726332,36.3149521 86.6370661,36.506957 L82.4828788,36.8962923 L82.3739921,35.6209321 L86.2064577,35.2937271 C86.2772839,35.2566303 86.3749796,35.2009237 86.4927217,35.1259121 C86.7960528,34.9326648 87.1007046,34.6907415 87.3844028,34.3986406 C87.5115115,34.267767 87.6316641,34.1293878 87.7437286,33.9834785 C88.0545003,33.5787357 88.645501,32.8399548 89.4398126,31.8594826 C89.9024078,31.2886249 90.360434,30.7260462 90.8184437,30.1652442 C90.9787343,29.9689791 91.1275798,29.7869474 91.26117,29.6237411 C91.3262906,29.5441838 91.3762901,29.4831411 91.4091983,29.4429866 C91.5195553,29.2853369 91.7098241,29.1161698 91.993932,28.9699003 C92.3735792,28.7744438 92.8678699,28.6515148 93.4892323,28.6209612 C94.6234472,28.5654471 102.17543,27.9700718 104.626615,27.7516712 C104.862116,27.7306881 105.117087,27.6996204 105.43901,27.6540133 C105.630984,27.6268162 106.348865,27.5193629 106.354906,27.5184737 C109.022962,27.1257204 110.98892,27.1044543 113.775083,27.6800734 C113.892382,27.7153228 113.953974,27.7376124 114.043488,27.770624 C114.191195,27.8250962 114.364569,27.8902775 114.562485,27.9661622 C115.126187,28.1822961 115.774528,28.4411675 116.498511,28.7427356 C118.564353,29.6032422 120.824493,30.6339626 123.199559,31.830976 L133.313623,36.764666 C133.606045,36.8762771 134.007426,37.0756984 134.41465,37.3709717 C135.346967,38.0469834 135.856518,38.9319897 135.591257,40.0024832 C135.413264,40.7196976 134.536887,42.8556719 133.136689,46.0703317 C133.087523,46.1832106 133.037847,46.2970953 132.987681,46.4119476 C132.418851,47.7142282 131.809554,49.0893493 131.200278,50.4512189 C130.987047,50.9278393 130.789039,51.3687812 130.611322,51.7632671 C130.549105,51.9013736 130.493862,52.0238212 130.446228,52.1292623 C130.397924,52.2361309 130.397924,52.2361309 130.387665,52.2587844 C130.297444,52.4159097 130.202818,52.5617195 130.073187,52.7466329 C129.858181,53.0533307 129.620724,53.3601496 129.365745,53.6488232 C128.763441,54.3307195 128.15789,54.8124061 127.528417,55.00619 C127.454617,55.0289094 127.380688,55.0474746 127.306642,55.0616854 C127.217465,55.0850126 127.082608,55.1127806 126.902832,55.1390816 C126.010064,55.2696923 124.841273,55.2483639 123.410766,54.9774278 L112.859034,52.2375105 C112.521059,52.2097839 112.291936,52.2050301 112.08597,52.2197541 C111.89496,52.233409 111.754002,52.2653511 111.699938,52.2793896 C111.679333,52.4903033 111.683114,52.6900586 111.705573,52.9500198 C111.726449,53.1916625 111.762346,53.4776524 111.817505,53.8537896 C111.839486,54.0036755 111.863403,54.1608112 111.897831,54.3829392 C111.919284,54.5211326 111.919284,54.5211326 111.941224,54.6622864 C111.958877,54.7759779 111.972435,54.8637018 111.985655,54.9499615 C112.040714,55.3092149 112.082956,55.5988059 112.120845,55.8826824 C112.435876,58.2373048 112.43078,59.7213064 111.971396,60.7615852 C111.893723,60.9376019 111.655214,61.5149939 111.660197,61.5032204 C111.355578,62.223015 111.082043,62.6545054 110.574631,63.1025827 C110.476508,63.1892312 110.371163,63.2740865 110.257449,63.3580015 C109.882566,63.6343074 109.407337,63.8124406 108.853678,63.9194037 C108.275193,64.0311629 107.679528,64.055401 107.152496,64.0315129 C107.109211,64.029551 107.096163,63.601482 107.113351,62.7473061 C107.645389,62.7725395 108.147866,62.7520933 108.61088,62.6626422 C108.993594,62.5887048 109.299244,62.4741356 109.497717,62.3278521 C109.58153,62.2660028 109.65777,62.2045916 109.727371,62.143129 C110.067898,61.8424218 110.244911,61.5631914 110.481412,61.0043558 C110.471177,61.0285398 110.71535,60.4374356 110.800415,60.2446673 C111.131682,59.4945107 111.136211,58.1755741 110.852123,56.0522237 C110.815468,55.7775997 110.774339,55.4956306 110.720428,55.1438698 C110.258006,52.1266251 110.243474,51.9584213 110.728923,51.4248284 C111.017446,51.1076908 111.442448,50.9824916 111.994698,50.9430124 C112.273086,50.9231111 112.56229,50.9291114 112.840949,50.9508499 C112.937253,50.9583627 113.011148,50.9660774 113.056103,50.9717263 L123.669819,53.723721 C124.949672,53.9642417 125.968374,53.982166 126.717542,53.8725637 C126.864876,53.8510088 126.955181,53.8313604 126.987566,53.822045 C127.085093,53.8012756 127.117637,53.7933674 127.15181,53.7828475 C127.503168,53.6746814 127.946745,53.3218375 128.406392,52.8014488 C128.626873,52.551833 128.835772,52.2819132 129.025081,52.0118722 C129.121937,51.8737116 129.194591,51.7633384 129.238675,51.6931343 C129.327192,51.4972464 129.382251,51.3752056 129.444282,51.2375134 C129.621559,50.8440032 129.819115,50.4040663 130.031877,49.9284972 C130.639722,48.5698256 131.247546,47.1980294 131.814696,45.8995937 C131.864688,45.7851414 131.914187,45.6716602 131.963176,45.5591888 C133.314648,42.4563967 134.197351,40.3050044 134.348887,39.6943969 C134.463059,39.2336392 134.219428,38.8104923 133.663272,38.4072297 C133.481582,38.2754883 133.283394,38.1599267 133.0851,38.063074 C132.96789,38.0058257 132.880186,37.9689185 132.837942,37.9532843 L122.63094,32.9777117 C120.277102,31.7914571 118.044796,30.7734304 116.00633,29.924327 C115.293805,29.6275316 114.656764,29.3731719 114.104238,29.1613231 C113.911474,29.0874138 113.743218,29.0241567 113.600599,28.9715608 C110.875922,28.3926048 109.059174,28.414184 106.54132,28.7848266 C106.53975,28.7850578 105.816407,28.8933285 105.618556,28.9213583 C105.276543,28.9698115 105.001047,29.0033801 104.740213,29.0266204 C102.272211,29.2465194 94.7085957,29.8428118 93.5519516,29.8994237 C93.1057757,29.921363 92.7893846,30.0000488 92.579834,30.1079332 C92.5152318,30.1411929 92.4721667,30.1714163 92.446214,30.1955066 C92.3887413,30.2670911 92.3316163,30.3368178 92.2516634,30.4344956 Z" id="Stroke-15" fill-opacity="0.3731601" fill="#000000"></path>
                            </g>
                            <g id="Group-23" transform="translate(56.898095, 53.532435)">
                                <g id="Group-2" transform="translate(0.270545, 0.208046)"></g>
                            </g>
                            <g id="Group-27" transform="translate(61.336518, 61.110569)"></g>
                        </g>
                        <path d="M63.443158,11.5379167 L64.0514913,11.5379167 C64.080658,11.7816667 64.3264913,11.9379167 64.680658,11.9379167 C65.0077413,11.9379167 65.2389913,11.7795833 65.2389913,11.5525 C65.2389913,11.3608333 65.0889913,11.2504167 64.7202413,11.17125 L64.3285746,11.0879167 C63.780658,10.9733333 63.511908,10.6879167 63.511908,10.2295833 C63.511908,9.66291667 63.968158,9.29 64.661908,9.29 C65.324408,9.29 65.793158,9.66083333 65.811908,10.19625 L65.2202413,10.19625 C65.1910746,9.95875 64.9702413,9.80041667 64.6660746,9.80041667 C64.3514913,9.80041667 64.143158,9.94625 64.143158,10.1754167 C64.143158,10.3608333 64.286908,10.4670833 64.6389913,10.5420833 L65.0014913,10.6191667 C65.605658,10.74625 65.8660746,11.0066667 65.8660746,11.4733333 C65.8660746,12.0795833 65.4014913,12.4504167 64.6473246,12.4504167 C63.930658,12.4504167 63.4660746,12.0983333 63.443158,11.5379167 Z M66.3639913,10.2670833 C66.3639913,9.68583333 66.8098246,9.29 67.4598246,9.29 C68.086908,9.29 68.524408,9.65041667 68.524408,10.1670833 C68.524408,10.4941667 68.3473246,10.7754167 67.8264913,11.265 L67.2514913,11.8129167 L67.2514913,11.8504167 L68.568158,11.8504167 L68.568158,12.3733333 L66.399408,12.3733333 L66.399408,11.93375 L67.380658,10.9733333 C67.8035746,10.5608333 67.9098246,10.4045833 67.9098246,10.20875 C67.9098246,9.96708333 67.7139913,9.79625 67.4389913,9.79625 C67.1473246,9.79625 66.9473246,9.98791667 66.9473246,10.265 L66.9473246,10.2775 L66.3639913,10.2775 L66.3639913,10.2670833 Z M62.517533,15.1641667 L62.3908663,15.1641667 C62.247533,14.985 62.1658663,14.7191667 62.1658663,14.4333333 C62.1658663,14.1483333 62.235033,13.9416667 62.3991996,13.7316667 L62.520033,13.7316667 C62.3991996,13.8733333 62.3133663,14.1641667 62.3133663,14.4333333 C62.3133663,14.6933333 62.3758663,14.9158333 62.517533,15.1641667 Z M62.7191996,14.6191667 L62.8708663,14.6191667 C62.8891996,14.745 63.0091996,14.825 63.180033,14.825 C63.3416996,14.825 63.4608663,14.7375 63.4608663,14.6183333 C63.4608663,14.5158333 63.3858663,14.4508333 63.220033,14.4091667 L63.0658663,14.3691667 C62.8483663,14.3141667 62.7541996,14.2158333 62.7541996,14.045 C62.7541996,13.8408333 62.925033,13.7025 63.1791996,13.7025 C63.4116996,13.7025 63.585033,13.8408333 63.597533,14.035 L63.4466996,14.035 C63.4258663,13.9116667 63.3241996,13.8383333 63.1741996,13.8383333 C63.0141996,13.8383333 62.9083663,13.9183333 62.9083663,14.04 C62.9083663,14.1341667 62.9741996,14.1883333 63.140033,14.2308333 L63.2658663,14.2641667 C63.515033,14.3266667 63.615033,14.4233333 63.615033,14.6 C63.615033,14.8208333 63.4408663,14.9616667 63.1658663,14.9616667 C62.9108663,14.9616667 62.735033,14.8266667 62.7191996,14.6191667 Z M64.2041996,14.1458333 C64.0608663,14.1458333 63.9608663,14.2508333 63.950033,14.41 L64.445033,14.41 C64.4416996,14.2508333 64.3466996,14.1458333 64.2041996,14.1458333 Z M64.4408663,14.7008333 L64.5841996,14.7008333 C64.5408663,14.855 64.402533,14.9491667 64.2058663,14.9491667 C63.9566996,14.9491667 63.8008663,14.7691667 63.8008663,14.485 C63.8008663,14.2025 63.9591996,14.0191667 64.2058663,14.0191667 C64.4483663,14.0191667 64.5958663,14.1916667 64.5958663,14.4708333 L64.5958663,14.5258333 L63.950033,14.5258333 L63.950033,14.5325 C63.957533,14.71 64.0566996,14.8225 64.2091996,14.8225 C64.325033,14.8225 64.4033663,14.78 64.4408663,14.7008333 Z M65.5641996,14.31 L65.4191996,14.31 C65.3958663,14.2208333 65.3166996,14.1483333 65.187533,14.1483333 C65.0258663,14.1483333 64.9241996,14.2775 64.9241996,14.4808333 C64.9241996,14.6883333 65.027533,14.82 65.187533,14.82 C65.3083663,14.82 65.392533,14.7641667 65.4191996,14.6625 L65.5641996,14.6625 C65.5383663,14.8275 65.4041996,14.9491667 65.1883663,14.9491667 C64.9366996,14.9491667 64.7758663,14.7666667 64.7758663,14.4808333 C64.7758663,14.2008333 64.9358663,14.0191667 65.187533,14.0191667 C65.4058663,14.0191667 65.5391996,14.15 65.5641996,14.31 Z M65.8358663,13.8025 L65.9791996,13.8025 L65.9791996,14.035 L66.1791996,14.035 L66.1791996,14.155 L65.9791996,14.155 L65.9791996,14.6633333 C65.9791996,14.7691667 66.0191996,14.8141667 66.112533,14.8141667 C66.1383663,14.8141667 66.152533,14.8133333 66.1791996,14.8108333 L66.1791996,14.9316667 C66.1508663,14.9366667 66.1233663,14.94 66.095033,14.94 C65.910033,14.94 65.8358663,14.8716667 65.8358663,14.7 L65.8358663,14.155 L65.6908663,14.155 L65.6908663,14.035 L65.8358663,14.035 L65.8358663,13.8025 Z M66.765033,14.82 C66.935033,14.82 67.0308663,14.6966667 67.0308663,14.4841667 C67.0308663,14.2708333 66.935033,14.1483333 66.765033,14.1483333 C66.595033,14.1483333 66.4991996,14.2708333 66.4991996,14.4841667 C66.4991996,14.6966667 66.595033,14.82 66.765033,14.82 Z M66.765033,14.9491667 C66.5091996,14.9491667 66.3508663,14.7725 66.3508663,14.4841667 C66.3508663,14.195 66.5091996,14.0191667 66.765033,14.0191667 C67.0208663,14.0191667 67.1791996,14.195 67.1791996,14.4841667 C67.1791996,14.7725 67.0208663,14.9491667 66.765033,14.9491667 Z M67.4041996,14.9333333 L67.4041996,14.035 L67.5408663,14.035 L67.5408663,14.1683333 L67.5541996,14.1683333 C67.5808663,14.0808333 67.6841996,14.0191667 67.8033663,14.0191667 C67.8266996,14.0191667 67.8566996,14.0208333 67.875033,14.0233333 L67.875033,14.1666667 C67.8633663,14.1633333 67.8116996,14.1583333 67.7833663,14.1583333 C67.6466996,14.1583333 67.547533,14.25 67.547533,14.3766667 L67.547533,14.9333333 L67.4041996,14.9333333 Z M68.527533,14.0691667 C68.527533,13.8558333 68.6891996,13.7025 68.912533,13.7025 C69.1283663,13.7025 69.2933663,13.8491667 69.2933663,14.04 C69.2933663,14.165 69.2366996,14.2625 69.0391996,14.4741667 L68.750033,14.785 L68.750033,14.7983333 L69.3133663,14.7983333 L69.3133663,14.9333333 L68.535033,14.9333333 L68.535033,14.83 L68.9508663,14.3758333 C69.1058663,14.2075 69.1433663,14.1425 69.1433663,14.0458333 C69.1433663,13.9258333 69.0408663,13.8333333 68.9083663,13.8333333 C68.767533,13.8333333 68.672533,13.9275 68.672533,14.0691667 L68.672533,14.07 L68.527533,14.07 L68.527533,14.0691667 Z M69.5366996,15.1641667 C69.6783663,14.9158333 69.7408663,14.6933333 69.7408663,14.4333333 C69.7408663,14.1625 69.6558663,13.8725 69.535033,13.7316667 L69.6566996,13.7316667 C69.8208663,13.9416667 69.8891996,14.1483333 69.8891996,14.4333333 C69.8891996,14.7175 69.807533,14.9833333 69.6641996,15.1641667 L69.5366996,15.1641667 Z" id="S2-(Sector-2)" fill="#999999"></path>
                        <path d="M30.1495369,43.6056264 L30.7578703,43.6056264 C30.7870369,43.8493764 31.0328703,44.0056264 31.3870369,44.0056264 C31.7141203,44.0056264 31.9453703,43.8472931 31.9453703,43.6202098 C31.9453703,43.4285431 31.7953703,43.3181264 31.4266203,43.2389598 L31.0349536,43.1556264 C30.4870369,43.0410431 30.2182869,42.7556264 30.2182869,42.2972931 C30.2182869,41.7306264 30.6745369,41.3577098 31.3682869,41.3577098 C32.0307869,41.3577098 32.4995369,41.7285431 32.5182869,42.2639598 L31.9266203,42.2639598 C31.8974536,42.0264598 31.6766203,41.8681264 31.3724536,41.8681264 C31.0578703,41.8681264 30.8495369,42.0139598 30.8495369,42.2431264 C30.8495369,42.4285431 30.9932869,42.5347931 31.3453703,42.6097931 L31.7078703,42.6868764 C32.3120369,42.8139598 32.5724536,43.0743764 32.5724536,43.5410431 C32.5724536,44.1472931 32.1078703,44.5181264 31.3537036,44.5181264 C30.6370369,44.5181264 30.1724536,44.1660431 30.1495369,43.6056264 Z M33.8328703,44.4410431 L33.8328703,42.0472931 L33.7953703,42.0472931 L33.0578703,42.5556264 L33.0578703,41.9702098 L33.8349536,41.4347931 L34.4620369,41.4347931 L34.4620369,44.4410431 L33.8328703,44.4410431 Z M29.0632869,47.2318764 L28.9366203,47.2318764 C28.7932869,47.0527098 28.7116203,46.7868764 28.7116203,46.5010431 C28.7116203,46.2160431 28.7807869,46.0093764 28.9449536,45.7993764 L29.0657869,45.7993764 C28.9449536,45.9410431 28.8591203,46.2318764 28.8591203,46.5010431 C28.8591203,46.7610431 28.9216203,46.9835431 29.0632869,47.2318764 Z M29.2649536,46.6868764 L29.4166203,46.6868764 C29.4349536,46.8127098 29.5549536,46.8927098 29.7257869,46.8927098 C29.8874536,46.8927098 30.0066203,46.8052098 30.0066203,46.6860431 C30.0066203,46.5835431 29.9316203,46.5185431 29.7657869,46.4768764 L29.6116203,46.4368764 C29.3941203,46.3818764 29.2999536,46.2835431 29.2999536,46.1127098 C29.2999536,45.9085431 29.4707869,45.7702098 29.7249536,45.7702098 C29.9574536,45.7702098 30.1307869,45.9085431 30.1432869,46.1027098 L29.9924536,46.1027098 C29.9716203,45.9793764 29.8699536,45.9060431 29.7199536,45.9060431 C29.5599536,45.9060431 29.4541203,45.9860431 29.4541203,46.1077098 C29.4541203,46.2018764 29.5199536,46.2560431 29.6857869,46.2985431 L29.8116203,46.3318764 C30.0607869,46.3943764 30.1607869,46.4910431 30.1607869,46.6677098 C30.1607869,46.8885431 29.9866203,47.0293764 29.7116203,47.0293764 C29.4566203,47.0293764 29.2807869,46.8943764 29.2649536,46.6868764 Z M30.7499536,46.2135431 C30.6066203,46.2135431 30.5066203,46.3185431 30.4957869,46.4777098 L30.9907869,46.4777098 C30.9874536,46.3185431 30.8924536,46.2135431 30.7499536,46.2135431 Z M30.9866203,46.7685431 L31.1299536,46.7685431 C31.0866203,46.9227098 30.9482869,47.0168764 30.7516203,47.0168764 C30.5024536,47.0168764 30.3466203,46.8368764 30.3466203,46.5527098 C30.3466203,46.2702098 30.5049536,46.0868764 30.7516203,46.0868764 C30.9941203,46.0868764 31.1416203,46.2593764 31.1416203,46.5385431 L31.1416203,46.5935431 L30.4957869,46.5935431 L30.4957869,46.6002098 C30.5032869,46.7777098 30.6024536,46.8902098 30.7549536,46.8902098 C30.8707869,46.8902098 30.9491203,46.8477098 30.9866203,46.7685431 Z M32.1099536,46.3777098 L31.9649536,46.3777098 C31.9416203,46.2885431 31.8624536,46.2160431 31.7332869,46.2160431 C31.5716203,46.2160431 31.4699536,46.3452098 31.4699536,46.5485431 C31.4699536,46.7560431 31.5732869,46.8877098 31.7332869,46.8877098 C31.8541203,46.8877098 31.9382869,46.8318764 31.9649536,46.7302098 L32.1099536,46.7302098 C32.0841203,46.8952098 31.9499536,47.0168764 31.7341203,47.0168764 C31.4824536,47.0168764 31.3216203,46.8343764 31.3216203,46.5485431 C31.3216203,46.2685431 31.4816203,46.0868764 31.7332869,46.0868764 C31.9516203,46.0868764 32.0849536,46.2177098 32.1099536,46.3777098 Z M32.3816203,45.8702098 L32.5249536,45.8702098 L32.5249536,46.1027098 L32.7249536,46.1027098 L32.7249536,46.2227098 L32.5249536,46.2227098 L32.5249536,46.7310431 C32.5249536,46.8368764 32.5649536,46.8818764 32.6582869,46.8818764 C32.6841203,46.8818764 32.6982869,46.8810431 32.7249536,46.8785431 L32.7249536,46.9993764 C32.6966203,47.0043764 32.6691203,47.0077098 32.6407869,47.0077098 C32.4557869,47.0077098 32.3816203,46.9393764 32.3816203,46.7677098 L32.3816203,46.2227098 L32.2366203,46.2227098 L32.2366203,46.1027098 L32.3816203,46.1027098 L32.3816203,45.8702098 Z M33.3107869,46.8877098 C33.4807869,46.8877098 33.5766203,46.7643764 33.5766203,46.5518764 C33.5766203,46.3385431 33.4807869,46.2160431 33.3107869,46.2160431 C33.1407869,46.2160431 33.0449536,46.3385431 33.0449536,46.5518764 C33.0449536,46.7643764 33.1407869,46.8877098 33.3107869,46.8877098 Z M33.3107869,47.0168764 C33.0549536,47.0168764 32.8966203,46.8402098 32.8966203,46.5518764 C32.8966203,46.2627098 33.0549536,46.0868764 33.3107869,46.0868764 C33.5666203,46.0868764 33.7249536,46.2627098 33.7249536,46.5518764 C33.7249536,46.8402098 33.5666203,47.0168764 33.3107869,47.0168764 Z M33.9499536,47.0010431 L33.9499536,46.1027098 L34.0866203,46.1027098 L34.0866203,46.2360431 L34.0999536,46.2360431 C34.1266203,46.1485431 34.2299536,46.0868764 34.3491203,46.0868764 C34.3724536,46.0868764 34.4024536,46.0885431 34.4207869,46.0910431 L34.4207869,46.2343764 C34.4091203,46.2310431 34.3574536,46.2260431 34.3291203,46.2260431 C34.1924536,46.2260431 34.0932869,46.3177098 34.0932869,46.4443764 L34.0932869,47.0010431 L33.9499536,47.0010431 Z M35.3682869,47.0010431 L35.3682869,45.9652098 L35.3549536,45.9652098 L35.0491203,46.1868764 L35.0491203,46.0285431 L35.3691203,45.7985431 L35.5182869,45.7985431 L35.5182869,47.0010431 L35.3682869,47.0010431 Z M35.8474536,47.2318764 C35.9891203,46.9835431 36.0516203,46.7610431 36.0516203,46.5010431 C36.0516203,46.2302098 35.9666203,45.9402098 35.8457869,45.7993764 L35.9674536,45.7993764 C36.1316203,46.0093764 36.1999536,46.2160431 36.1999536,46.5010431 C36.1999536,46.7852098 36.1182869,47.0510431 35.9749536,47.2318764 L35.8474536,47.2318764 Z" id="S1-(Sector-1)" fill="#C6C6C6"></path>
                        <path d="M107.807987,37.9241817 L108.41632,37.9241817 C108.445487,38.1679317 108.69132,38.3241817 109.045487,38.3241817 C109.37257,38.3241817 109.60382,38.1658483 109.60382,37.938765 C109.60382,37.7470983 109.45382,37.6366817 109.08507,37.557515 L108.693404,37.4741817 C108.145487,37.3595983 107.876737,37.0741817 107.876737,36.6158483 C107.876737,36.0491817 108.332987,35.676265 109.026737,35.676265 C109.689237,35.676265 110.157987,36.0470983 110.176737,36.582515 L109.58507,36.582515 C109.555904,36.345015 109.33507,36.1866817 109.030904,36.1866817 C108.71632,36.1866817 108.507987,36.332515 108.507987,36.5616817 C108.507987,36.7470983 108.651737,36.8533483 109.00382,36.9283483 L109.36632,37.0054317 C109.970487,37.132515 110.230904,37.3929317 110.230904,37.8595983 C110.230904,38.4658483 109.76632,38.8366817 109.012154,38.8366817 C108.295487,38.8366817 107.830904,38.4845983 107.807987,37.9241817 Z M111.49757,37.4554317 L111.49757,36.9866817 L111.864237,36.9866817 C112.149654,36.9866817 112.343404,36.820015 112.343404,36.5741817 C112.343404,36.332515 112.155904,36.1783483 111.862154,36.1783483 C111.570487,36.1783483 111.376737,36.3429317 111.36007,36.6033483 L110.77882,36.6033483 C110.799654,36.0345983 111.22257,35.676265 111.87882,35.676265 C112.495487,35.676265 112.939237,36.013765 112.939237,36.4866817 C112.939237,36.8345983 112.720487,37.1054317 112.38507,37.1741817 L112.38507,37.2116817 C112.79757,37.257515 113.055904,37.532515 113.055904,37.9283483 C113.055904,38.4554317 112.56007,38.8366817 111.874654,38.8366817 C111.20382,38.8366817 110.749654,38.4658483 110.72257,37.8991817 L111.324654,37.8991817 C111.343404,38.1533483 111.557987,38.313765 111.880904,38.313765 C112.195487,38.313765 112.414237,38.1366817 112.414237,37.8804317 C112.414237,37.6179317 112.207987,37.4554317 111.870487,37.4554317 L111.49757,37.4554317 Z M106.916945,41.5504317 L106.790279,41.5504317 C106.646945,41.371265 106.565279,41.1054317 106.565279,40.8195983 C106.565279,40.5345983 106.634445,40.3279317 106.798612,40.1179317 L106.919445,40.1179317 C106.798612,40.2595983 106.712779,40.5504317 106.712779,40.8195983 C106.712779,41.0795983 106.775279,41.3020983 106.916945,41.5504317 Z M107.118612,41.0054317 L107.270279,41.0054317 C107.288612,41.131265 107.408612,41.211265 107.579445,41.211265 C107.741112,41.211265 107.860279,41.123765 107.860279,41.0045983 C107.860279,40.9020983 107.785279,40.8370983 107.619445,40.7954317 L107.465279,40.7554317 C107.247779,40.7004317 107.153612,40.6020983 107.153612,40.431265 C107.153612,40.2270983 107.324445,40.088765 107.578612,40.088765 C107.811112,40.088765 107.984445,40.2270983 107.996945,40.421265 L107.846112,40.421265 C107.825279,40.2979317 107.723612,40.2245983 107.573612,40.2245983 C107.413612,40.2245983 107.307779,40.3045983 107.307779,40.426265 C107.307779,40.5204317 107.373612,40.5745983 107.539445,40.6170983 L107.665279,40.6504317 C107.914445,40.7129317 108.014445,40.8095983 108.014445,40.986265 C108.014445,41.2070983 107.840279,41.3479317 107.565279,41.3479317 C107.310279,41.3479317 107.134445,41.2129317 107.118612,41.0054317 Z M108.603612,40.5320983 C108.460279,40.5320983 108.360279,40.6370983 108.349445,40.796265 L108.844445,40.796265 C108.841112,40.6370983 108.746112,40.5320983 108.603612,40.5320983 Z M108.840279,41.0870983 L108.983612,41.0870983 C108.940279,41.241265 108.801945,41.3354317 108.605279,41.3354317 C108.356112,41.3354317 108.200279,41.1554317 108.200279,40.871265 C108.200279,40.588765 108.358612,40.4054317 108.605279,40.4054317 C108.847779,40.4054317 108.995279,40.5779317 108.995279,40.8570983 L108.995279,40.9120983 L108.349445,40.9120983 L108.349445,40.918765 C108.356945,41.096265 108.456112,41.208765 108.608612,41.208765 C108.724445,41.208765 108.802779,41.166265 108.840279,41.0870983 Z M109.963612,40.696265 L109.818612,40.696265 C109.795279,40.6070983 109.716112,40.5345983 109.586945,40.5345983 C109.425279,40.5345983 109.323612,40.663765 109.323612,40.8670983 C109.323612,41.0745983 109.426945,41.206265 109.586945,41.206265 C109.707779,41.206265 109.791945,41.1504317 109.818612,41.048765 L109.963612,41.048765 C109.937779,41.213765 109.803612,41.3354317 109.587779,41.3354317 C109.336112,41.3354317 109.175279,41.1529317 109.175279,40.8670983 C109.175279,40.5870983 109.335279,40.4054317 109.586945,40.4054317 C109.805279,40.4054317 109.938612,40.536265 109.963612,40.696265 Z M110.235279,40.188765 L110.378612,40.188765 L110.378612,40.421265 L110.578612,40.421265 L110.578612,40.541265 L110.378612,40.541265 L110.378612,41.0495983 C110.378612,41.1554317 110.418612,41.2004317 110.511945,41.2004317 C110.537779,41.2004317 110.551945,41.1995983 110.578612,41.1970983 L110.578612,41.3179317 C110.550279,41.3229317 110.522779,41.326265 110.494445,41.326265 C110.309445,41.326265 110.235279,41.2579317 110.235279,41.086265 L110.235279,40.541265 L110.090279,40.541265 L110.090279,40.421265 L110.235279,40.421265 L110.235279,40.188765 Z M111.164445,41.206265 C111.334445,41.206265 111.430279,41.0829317 111.430279,40.8704317 C111.430279,40.6570983 111.334445,40.5345983 111.164445,40.5345983 C110.994445,40.5345983 110.898612,40.6570983 110.898612,40.8704317 C110.898612,41.0829317 110.994445,41.206265 111.164445,41.206265 Z M111.164445,41.3354317 C110.908612,41.3354317 110.750279,41.158765 110.750279,40.8704317 C110.750279,40.581265 110.908612,40.4054317 111.164445,40.4054317 C111.420279,40.4054317 111.578612,40.581265 111.578612,40.8704317 C111.578612,41.158765 111.420279,41.3354317 111.164445,41.3354317 Z M111.803612,41.3195983 L111.803612,40.421265 L111.940279,40.421265 L111.940279,40.5545983 L111.953612,40.5545983 C111.980279,40.4670983 112.083612,40.4054317 112.202779,40.4054317 C112.226112,40.4054317 112.256112,40.4070983 112.274445,40.4095983 L112.274445,40.5529317 C112.262779,40.5495983 112.211112,40.5445983 112.182779,40.5445983 C112.046112,40.5445983 111.946945,40.636265 111.946945,40.7629317 L111.946945,41.3195983 L111.803612,41.3195983 Z M113.180279,40.7654317 L113.180279,40.6370983 L113.326112,40.6370983 C113.462779,40.6370983 113.559445,40.548765 113.559445,40.423765 C113.559445,40.301265 113.466945,40.2195983 113.328612,40.2195983 C113.190279,40.2195983 113.099445,40.296265 113.086945,40.4254317 L112.941112,40.4254317 C112.956112,40.2170983 113.105279,40.088765 113.334445,40.088765 C113.544445,40.088765 113.711945,40.228765 113.711945,40.403765 C113.711945,40.5470983 113.632779,40.6520983 113.501112,40.683765 L113.501112,40.6970983 C113.664445,40.7179317 113.763612,40.831265 113.763612,40.9954317 C113.763612,41.193765 113.577779,41.3479317 113.340279,41.3479317 C113.096112,41.3479317 112.927779,41.2120983 112.916945,41.006265 L113.061945,41.006265 C113.075279,41.1345983 113.183612,41.2170983 113.338612,41.2170983 C113.496945,41.2170983 113.609445,41.1229317 113.609445,40.991265 C113.609445,40.8520983 113.503612,40.7654317 113.332779,40.7654317 L113.180279,40.7654317 Z M113.975279,41.5504317 C114.116945,41.3020983 114.179445,41.0795983 114.179445,40.8195983 C114.179445,40.548765 114.094445,40.258765 113.973612,40.1179317 L114.095279,40.1179317 C114.259445,40.3279317 114.327779,40.5345983 114.327779,40.8195983 C114.327779,41.103765 114.246112,41.3695983 114.102779,41.5504317 L113.975279,41.5504317 Z" id="S3-(Sector-3)" fill="#666666"></path>
                        <g id="Group-Copy-8" transform="translate(128.853333, 48.213333)">
                            <circle id="Oval-Copy-2" fill-opacity="0.7" fill="#FFFFFF" cx="2.56" cy="2.56" r="2.56"></circle>
                            <circle id="Oval-Copy-2" fill-opacity="0.2" fill="#FFB819" cx="2.56" cy="2.56" r="2.56"></circle>
                            <circle id="Oval" stroke="#FFB819" stroke-width="0.5" fill="#FFFFFF" cx="2.56" cy="2.56" r="1.70666667"></circle>
                            <circle id="Oval-Copy" fill="#FFB819" cx="2.56" cy="2.56" r="1"></circle>
                        </g>
                        <g id="Group-6" transform="translate(78.080000, 62.933333)">
                            <rect id="Rectangle-2" fill="#000000" x="0" y="0" width="1" height="1"></rect>
                            <rect id="Rectangle-2-Copy-4" fill="#FFFFFF" x="0" y="0.64" width="1" height="1"></rect>
                            <rect id="Rectangle-2-Copy-7" fill="#000000" x="0" y="1.28" width="1" height="1"></rect>
                            <rect id="Rectangle-2-Copy" fill="#FFFFFF" x="0.64" y="0" width="1" height="1"></rect>
                            <rect id="Rectangle-2-Copy-5" fill="#000000" x="0.64" y="0.64" width="1" height="1"></rect>
                            <rect id="Rectangle-2-Copy-9" fill="#FFFFFF" x="0.64" y="1.28" width="1" height="1"></rect>
                            <rect id="Rectangle-2-Copy-3" fill="#000000" x="1.28" y="0" width="1" height="1"></rect>
                            <rect id="Rectangle-2-Copy-6" fill="#FFFFFF" x="1.28" y="0.64" width="1" height="1"></rect>
                            <rect id="Rectangle-2-Copy-10" fill="#000000" x="1.28" y="1.28" width="1" height="1"></rect>
                        </g>
                        <g id="Group-Copy-7" transform="translate(61.866667, 61.440000)">
                            <circle id="Oval-Copy-2" fill-opacity="0.7" fill="#FFFFFF" cx="2.56" cy="2.56" r="2.56"></circle>
                            <circle id="Oval-Copy-2" fill-opacity="0.2" fill="#D0021B" cx="2.56" cy="2.56" r="2.56"></circle>
                            <circle id="Oval" stroke="#D0021B" stroke-width="0.5" fill="#FFFFFF" cx="2.56" cy="2.56" r="1.70666667"></circle>
                            <circle id="Oval-Copy" fill="#D0021B" cx="2.56" cy="2.56" r="1"></circle>
                        </g>
                    </g>
                </g>
            </g>
        </g>
    </g>
</svg>