<svg xmlns="http://www.w3.org/2000/svg" xmlns:xlink="http://www.w3.org/1999/xlink" viewBox="0 0 320 192"><defs><style>.cls-1{fill:#ebebeb;}.cls-2{fill:#f2f2f2;}.cls-3{fill:#ffa019;}.cls-12,.cls-4{fill:#ffb819;}.cls-5{fill:url(#linear-gradient);}.cls-6{opacity:0.37;}.cls-7{opacity:0.2;}.cls-10,.cls-8{fill:#fff;}.cls-8{fill-opacity:0.7;}.cls-11,.cls-9{fill:#d0021b;}.cls-12,.cls-9{fill-opacity:0.2;}</style><linearGradient id="linear-gradient" x1="159.13" y1="10.77" x2="159.13" y2="176.59" gradientUnits="userSpaceOnUse"><stop offset="0" stop-color="#1b94e2"/><stop offset="1" stop-color="#40d8ab"/></linearGradient></defs><g id="Track"><path class="cls-1" d="M302,16.92a5.92,5.92,0,0,0-3.39-3.85,8.47,8.47,0,0,0-7,.61,1.38,1.38,0,0,0-.24.14c-.4.26-40.17,26.41-42.29,27.91S198.3,84.18,195.63,86.52a4.86,4.86,0,0,0-1.91,3.61c0,1.93,1.33,3.15,2.3,4,.17.15.45.4.68.63-1,.34-3.72.88-10.32,1h-.14l-1.17,0c-3.11.15-5.94,2-9.53,4.37l-.67.44c-3.43,2.25-22.65,12.71-23.46,13.12-1.2.63-2.45,2-1.58,5a1.67,1.67,0,0,1,.06.26c.28,1.59.23,4.74-3.16,7.94-3.08,2.91-8.18,1.76-11.56,1-.89-.21-1.67-.38-2.34-.47-3.4-.42-6.14,1.23-8,2.34l-.71.42a21.76,21.76,0,0,0-6.61,6.08,9.33,9.33,0,0,0-1.4,5.15,12.88,12.88,0,0,1-.19,2c-.1.33-.88,1.11-4.89,2.57-.47.17-.9.33-1.26.48-2.69,1.08-5.83,2.14-8.78,1.7-1.7-.26-2.6-1.37-3.86-2.91a11,11,0,0,0-5.09-4c-3.25-1.05-6.15-.16-8.7.62a20.25,20.25,0,0,1-3.39.85,18.22,18.22,0,0,1-4.47.11c-.84-.06-1.78-.13-3.11-.13A18.73,18.73,0,0,0,65.46,144l-18.75,8c-1.93.82-3.85,1.65-5.78,2.49-4.82,2.1-9.81,4.27-14.8,6.1a24.82,24.82,0,0,0-4.24,1.95,13,13,0,0,0-4.4,4.1,9,9,0,0,0,4.37,13.5,11.25,11.25,0,0,0,4.38.86,13.86,13.86,0,0,0,5.89-1.37c3.92-1.84,6.46-4.94,8.92-7.94.77-.94,1.57-1.91,2.37-2.78,3.76-4.11,7.19-6.68,10.79-8.09,5-2,10.12-1.38,15.53-.74l2.27.26A18.28,18.28,0,0,0,80,159,14.16,14.16,0,0,1,85.3,158c.9.07.9.07,1.28.88.77,1.62,1.92,4.06,6.77,5.82,8.68,3.14,22.09-6,24.69-7.91a72.22,72.22,0,0,0,6.68-6.38c1.92-2,4.1-4.2,6.08-6.07,3.59-3.38,9.93-5.19,13.73-6.27l1.78-.53c2.93-.92,5.61-3,8.72-5.32.81-.62,1.65-1.26,2.54-1.91,3.57-2.62,7-7.51,9-10.45.51-.73.95-1.36,1.24-1.73l.05-.07c1.35-1.74,1.52-2,7.35-6.17,5.49-4,13.21-5.76,16.51-6.53l.5-.12a28.47,28.47,0,0,1,5.18-.59c1.05,0,2-.09,3-.23,4.81-.69,6.09-5.46,6.94-8.63a16.65,16.65,0,0,1,.85-2.65,8.63,8.63,0,0,1,3.18-3.15l.23-.14a57.54,57.54,0,0,0,4.9-3.46,6.87,6.87,0,0,1,3.15-1.17c4.56-.78,9.54,0,14.37.83l.33,0c7.95,1.3,14.32.88,20.64-1.36a58.75,58.75,0,0,0,17.3-10.19,93.16,93.16,0,0,0,14.23-13.93c8.91-11.14,12.56-24.25,15.18-36.75.16-.75.33-1.59.45-2.44A10.21,10.21,0,0,0,302,16.92Zm-48.7,62.84c-5.44,1.93-11,2.28-18,1.13l-.32,0c-5.25-.86-10.68-1.75-16.1-.82a11.88,11.88,0,0,0-5.56,2.25,51.68,51.68,0,0,1-4.47,3.14l-.23.15a13.84,13.84,0,0,0-5,5.21,20.6,20.6,0,0,0-1.22,3.63,1.17,1.17,0,0,1-.05.2,7.21,7.21,0,0,0-2.71-4.32l-.13-.11c5.81-5,50.78-42.87,52.62-44.17s35.23-23.25,41.9-27.65l.12-.07a3.5,3.5,0,0,1,2.49-.39c.1,0,.28.12.42.58a5.11,5.11,0,0,1,0,2.18c-.09.67-.24,1.36-.4,2.15-2.48,11.84-5.92,24.22-14.14,34.51A88.18,88.18,0,0,1,269,70.44,53.93,53.93,0,0,1,253.26,79.76ZM199.54,99.21a6.29,6.29,0,0,0,1.31-.85,1.68,1.68,0,0,1-1.17.83ZM155,118.14l-.06-.3c2.28-1.24,7.86-4.28,13-7.14a18.32,18.32,0,0,0-4.21,4.11l0,.06c-.37.48-.82,1.13-1.39,1.95-1.86,2.66-5,7.11-7.85,9.22-.31.23-.62.47-.93.69A13.11,13.11,0,0,0,155,118.14Zm30.27-17c.29,0,.7,0,1.2,0l.66,0c-1.87.51-4.11,1.18-6.44,2.07A11.36,11.36,0,0,1,185.31,101.11ZM85.67,152.74a18.65,18.65,0,0,0-7.39,1.34,13.47,13.47,0,0,1-5.7,1.06l-2-.23-.2,0c-6-.71-11.77-1.39-18,1.07-4.37,1.72-8.42,4.71-12.73,9.42-.9,1-1.75,2-2.57,3-2.18,2.66-4.25,5.18-7.1,6.52a7.49,7.49,0,0,1-6,.42,4.29,4.29,0,0,1-2.71-3.94,4.18,4.18,0,0,1,.7-1.9,8,8,0,0,1,2.7-2.45,19.24,19.24,0,0,1,3.34-1.53c5.16-1.88,10.21-4.08,15.1-6.21l.19-.08q2.76-1.22,5.54-2.4l18.78-8A13.45,13.45,0,0,1,72.4,148c1.15,0,2,.06,2.74.12a23,23,0,0,0,5.51-.14,25.77,25.77,0,0,0,4.26-1c2.16-.67,3.87-1.19,5.55-.65,1,.3,1.7,1.22,2.65,2.38,1.53,1.88,3.44,4.22,7.13,4.77,4.19.63,8.17-.67,11.52-2l1.1-.42c3-1.08,7.48-2.72,8.22-6.45a17.29,17.29,0,0,0,.29-2.76,4.44,4.44,0,0,1,.56-2.53,16.45,16.45,0,0,1,4.82-4.39c.26-.14.53-.31.82-.49,1.41-.85,3-1.81,4.61-1.62.42.06,1.1.21,1.83.38a38.78,38.78,0,0,0,5.49,1c-4,1.29-8.89,3.23-12.28,6.43-2.06,1.94-4.28,4.21-6.24,6.22a75.12,75.12,0,0,1-6,5.79c-6.42,4.62-15.37,8.86-19.85,7.24-2.82-1-3.28-2-3.82-3.14C90.64,155.17,89.62,153,85.67,152.74Z"/><path class="cls-2" d="M26.24,176.59a9.86,9.86,0,0,1-3.87-.76,8.17,8.17,0,0,1-5.1-7.88,8,8,0,0,1,1.32-3.7,11.77,11.77,0,0,1,4-3.69h0a22.94,22.94,0,0,1,4-1.85c5-1.83,10-4,14.88-6.12q2.86-1.26,5.76-2.49l18.75-8a17.49,17.49,0,0,1,6.43-1.2c1.29,0,2.21.06,3,.12a19.79,19.79,0,0,0,4.72-.11,22.78,22.78,0,0,0,3.62-.9c2.48-.76,5-1.55,7.9-.63,2,.66,3.29,2.17,4.49,3.64,1.33,1.63,2.48,3,4.68,3.37,3.25.48,6.6-.63,9.46-1.78l1.23-.47c1.89-.69,5.4-2,5.71-3.53a13.09,13.09,0,0,0,.22-2.17,8.11,8.11,0,0,1,1.18-4.49,20.5,20.5,0,0,1,6.17-5.65l.74-.45c1.76-1.06,4.17-2.53,7.13-2.15a21.88,21.88,0,0,1,2.21.44c3.65.83,9.15,2.08,12.75-1.31,3.83-3.62,3.87-7.26,3.55-9.11a4.11,4.11,0,0,0-.11-.47c-.2-.69-.74-2.53,1-3.41.8-.41,20.12-10.93,23.57-13.19l.67-.44c3.42-2.25,6.12-4,8.87-4.15.31,0,.75,0,1.28,0,10.17-.26,11.75-1.41,12-1.89,0-.67-.57-1.26-1.47-2.07S195,88.38,195,87a3.62,3.62,0,0,1,1.46-2.63c2.67-2.34,51-43.13,53.28-44.7,2.06-1.46,40.62-26.81,42.26-27.89l.12-.07a7.19,7.19,0,0,1,5.91-.57,4.63,4.63,0,0,1,2.65,3,9,9,0,0,1,.17,3.88c-.12.81-.28,1.6-.44,2.36-2.59,12.37-6.19,25.27-14.92,36.2a91.91,91.91,0,0,1-14,13.73,57.72,57.72,0,0,1-16.92,10c-6.1,2.16-12.26,2.56-20,1.3l-.33,0c-4.93-.81-10-1.65-14.8-.83a7.9,7.9,0,0,0-3.75,1.44,54.85,54.85,0,0,1-4.8,3.38l-.23.14A9.82,9.82,0,0,0,207,89.41a17.61,17.61,0,0,0-.95,2.9c-.8,3-1.9,7.1-5.86,7.66-.88.13-1.84.17-2.85.22a29.33,29.33,0,0,0-5.43.63l-.49.11c-3.37.79-11.27,2.64-17,6.75-6,4.31-6.21,4.59-7.62,6.43l-.05.06c-.31.4-.77,1-1.29,1.8-2,2.86-5.34,7.64-8.74,10.13q-1.33,1-2.55,1.92c-3,2.29-5.61,4.27-8.32,5.12l-1.75.52c-3.91,1.11-10.44,3-14.26,6.58-2,1.88-4.2,4.12-6.13,6.1a70,70,0,0,1-6.51,6.23c-1.53,1.11-15.25,10.73-23.47,7.75-4.34-1.58-5.32-3.64-6-5.15-.53-1.12-.71-1.5-2.37-1.62a15,15,0,0,0-5.85,1.14,16.94,16.94,0,0,1-7.39,1.25l-2.28-.26c-5.55-.66-10.79-1.28-16.13.82-3.8,1.49-7.38,4.17-11.28,8.42-.83.91-1.64,1.89-2.42,2.85-2.37,2.88-4.82,5.86-8.47,7.58A12.61,12.61,0,0,1,26.24,176.59ZM72.4,143.54a15,15,0,0,0-5.38,1l-18.78,8q-2.88,1.22-5.74,2.48c-4.88,2.12-9.92,4.32-15,6.18a21,21,0,0,0-3.56,1.64h0a9.21,9.21,0,0,0-3.13,2.86,5.07,5.07,0,0,0,2.6,7.75,8.77,8.77,0,0,0,7.08-.44c3.12-1.47,5.27-4.09,7.55-6.87.81-1,1.64-2,2.52-3,4.18-4.56,8.07-7.44,12.25-9.09,6-2.34,11.51-1.68,17.4-1l2.26.26a14.66,14.66,0,0,0,6.27-1.13,17.47,17.47,0,0,1,6.87-1.27c3.18.23,3.91,1.76,4.55,3.11s1.23,2.6,4.56,3.81c5.65,2,15.89-3.69,21-7.41a69.82,69.82,0,0,0,6.17-5.94c2-2,4.16-4.25,6.2-6.18,4.28-4,11.2-6,15.34-7.19l1.68-.49c2.28-.72,4.71-2.57,7.52-4.71.83-.63,1.69-1.28,2.6-1.94,3.05-2.24,6.23-6.8,8.14-9.53.56-.81,1-1.45,1.36-1.9l.05-.06c1.65-2.14,2.1-2.59,8.16-7s14.38-6.35,17.9-7.17l.49-.12a31.42,31.42,0,0,1,5.91-.69c.94,0,1.84-.09,2.6-.2,2.09-.29,2.86-2.57,3.71-5.74a18.19,18.19,0,0,1,1.13-3.39,12.41,12.41,0,0,1,4.55-4.7l.22-.14a55.23,55.23,0,0,0,4.58-3.22,10.73,10.73,0,0,1,5-2c5.21-.89,10.52,0,15.67.82l.32.06c7.27,1.18,13,.82,18.7-1.19a55.13,55.13,0,0,0,16.14-9.54A89,89,0,0,0,283.47,55c8.4-10.5,11.88-23.06,14.4-35.06.17-.8.32-1.51.42-2.23a6.4,6.4,0,0,0-.08-2.75,2.08,2.08,0,0,0-1.16-1.4,4.73,4.73,0,0,0-3.65.46c-1.79,1.17-40.13,26.39-42.12,27.79s-48.92,40.9-53.06,44.53c-.53.47-.57.7-.57.7,0,.21.65.76,1,1.09,1,.92,2.39,2.17,2.32,4.13-.13,3.34-5.65,4.16-14.5,4.38l-1.23,0c-2,.1-4.47,1.7-7.55,3.72l-.68.45c-3.46,2.27-21.22,11.94-23.57,13.2,0,.16.09.35.13.49a6.24,6.24,0,0,1,.17.69c.42,2.42.39,7.06-4.32,11.51s-11.2,2.86-15.13,2c-.8-.18-1.48-.34-2-.4-2.06-.25-3.94.89-5.45,1.8l-.8.48a17.76,17.76,0,0,0-5.27,4.8,5.71,5.71,0,0,0-.77,3.19,16,16,0,0,1-.26,2.56c-.6,3-4.68,4.5-7.39,5.48l-1.14.43c-3.18,1.29-7,2.52-10.83,1.94-3.2-.48-4.86-2.51-6.32-4.3-1-1.27-1.94-2.38-3.26-2.8-2.07-.67-4-.06-6.34.64a23.62,23.62,0,0,1-4,1,21.71,21.71,0,0,1-5.24.13C74.43,143.6,73.59,143.54,72.4,143.54ZM23.24,161.69Z"/><path class="cls-2" d="M26.24,177.89a11.25,11.25,0,0,1-4.38-.85,9,9,0,0,1-4.37-13.5,13,13,0,0,1,4.4-4.1,25.21,25.21,0,0,1,4.24-2c5-1.82,10-4,14.8-6.09,1.93-.84,3.85-1.68,5.78-2.5l18.75-8a18.67,18.67,0,0,1,6.94-1.31c1.33,0,2.27.07,3.11.13a18.22,18.22,0,0,0,4.47-.11,20.5,20.5,0,0,0,3.39-.85c2.56-.78,5.45-1.67,8.7-.63a11.07,11.07,0,0,1,5.09,4.06c1.26,1.54,2.16,2.65,3.86,2.9,2.94.44,6.09-.61,8.78-1.7l1.26-.47c4-1.47,4.79-2.24,4.89-2.57a12.88,12.88,0,0,0,.19-2,9.33,9.33,0,0,1,1.4-5.15,21.64,21.64,0,0,1,6.61-6.08l.71-.42c1.83-1.11,4.57-2.76,8-2.34.67.09,1.45.26,2.34.46,3.38.77,8.48,1.93,11.56-1,3.39-3.2,3.44-6.35,3.16-7.94a1.43,1.43,0,0,0-.06-.26c-.88-3,.38-4.37,1.58-5,.81-.41,20-10.88,23.46-13.12l.67-.44c3.59-2.36,6.42-4.22,9.53-4.37l1.17,0h.14c6.6-.17,9.27-.71,10.32-1-.23-.23-.51-.49-.67-.63-1-.89-2.32-2.1-2.31-4a4.84,4.84,0,0,1,1.91-3.6c2.67-2.35,51.14-43.21,53.39-44.79S290.91,11,291.31,10.72l.23-.14a8.54,8.54,0,0,1,7-.62A5.94,5.94,0,0,1,302,13.82a10.17,10.17,0,0,1,.21,4.45c-.12.86-.29,1.7-.45,2.45-2.62,12.5-6.27,25.61-15.18,36.75A93.16,93.16,0,0,1,272.31,71.4,58.75,58.75,0,0,1,255,81.59c-6.32,2.24-12.69,2.66-20.64,1.36l-.33,0c-4.82-.79-9.81-1.61-14.37-.83a6.65,6.65,0,0,0-3.15,1.17,55.24,55.24,0,0,1-4.9,3.45l-.23.15A8.49,8.49,0,0,0,208.21,90a16.65,16.65,0,0,0-.85,2.65c-.85,3.17-2.13,7.94-6.94,8.63-.95.13-1.93.18-3,.23a27.61,27.61,0,0,0-5.18.59l-.5.12c-3.3.77-11,2.57-16.51,6.53-5.83,4.2-6,4.42-7.35,6.17l-.05.07c-.29.37-.73,1-1.24,1.73-2.05,2.93-5.47,7.83-9,10.45-.89.65-1.73,1.29-2.54,1.91-3.11,2.36-5.79,4.4-8.72,5.32-.49.15-1.09.33-1.78.52-3.8,1.09-10.14,2.9-13.73,6.28-2,1.88-4.16,4.1-6.08,6.06a72.65,72.65,0,0,1-6.68,6.39c-2.6,1.87-16,11.05-24.69,7.91-4.85-1.76-6-4.2-6.77-5.82-.38-.81-.38-.81-1.28-.88A13.78,13.78,0,0,0,80,155.93a18.28,18.28,0,0,1-8,1.31L69.73,157c-5.4-.64-10.48-1.24-15.52.74-3.6,1.41-7,4-10.79,8.08-.8.89-1.6,1.86-2.37,2.8-2.46,3-5,6.09-8.92,7.93A14,14,0,0,1,26.24,177.89Zm-2.68-3a8.93,8.93,0,0,0,1.81.36A9.07,9.07,0,0,1,23.56,174.88Zm48.84-30a13.6,13.6,0,0,0-4.88.89l-18.77,8-5.61,2.42-.12.06c-4.89,2.13-9.94,4.33-15.1,6.21a19.24,19.24,0,0,0-3.34,1.53,8,8,0,0,0-2.7,2.45,4.18,4.18,0,0,0-.7,1.9,4.3,4.3,0,0,0,2.71,3.94,7.54,7.54,0,0,0,6-.42c2.85-1.35,4.92-3.86,7.1-6.52.82-1,1.66-2,2.57-3,4.31-4.71,8.36-7.71,12.73-9.42,6.26-2.46,12-1.79,18-1.07l.18,0,2.07.24a13.47,13.47,0,0,0,5.7-1.06,18.83,18.83,0,0,1,7.39-1.35c4,.29,5,2.44,5.64,3.86.54,1.13,1,2.11,3.82,3.14,4.48,1.62,13.43-2.62,19.85-7.24a75.12,75.12,0,0,0,6-5.79c2-2,4.18-4.28,6.24-6.22,3.39-3.2,8.27-5.15,12.28-6.43A40.27,40.27,0,0,1,134,130c-.73-.17-1.41-.33-1.83-.38-1.61-.2-3.2.77-4.61,1.62l-.82.49a16.55,16.55,0,0,0-4.82,4.38,4.47,4.47,0,0,0-.56,2.54,17.29,17.29,0,0,1-.29,2.76c-.74,3.72-5.24,5.36-8.22,6.45l-1.1.41c-3.35,1.36-7.33,2.66-11.52,2-3.69-.56-5.6-2.89-7.13-4.77a6.75,6.75,0,0,0-2.65-2.39c-1.68-.54-3.39,0-5.55.65a24.8,24.8,0,0,1-4.26,1,24.15,24.15,0,0,1-5.51.14C74.36,144.91,73.55,144.85,72.4,144.85ZM19.7,172Zm0,0Zm.2-7.39-.21.32a6.76,6.76,0,0,0-1.12,3.1,6.12,6.12,0,0,0,1.13,4,6.12,6.12,0,0,1-1.13-4,6.76,6.76,0,0,1,1.12-3.1Zm20.91.16c-.61.71-1.2,1.43-1.79,2.14l-.94,1.14.94-1.14C39.61,166.23,40.2,165.51,40.81,164.8ZM51.67,156a33.76,33.76,0,0,0-9.84,7.71A33.76,33.76,0,0,1,51.67,156Zm-28.43,5.71h0c-.28.16-.54.33-.79.5.25-.17.51-.34.79-.5Zm0,0h0a20.83,20.83,0,0,1,3.23-1.53A21.28,21.28,0,0,0,23.24,161.68Zm63.85-9.13A3.39,3.39,0,0,1,89,154.61a6.94,6.94,0,0,0,3.5,3.7,6.94,6.94,0,0,1-3.5-3.7A3.3,3.3,0,0,0,87.09,152.55Zm-49.63,3.2-3.39,1.43Zm24.54-2a23.65,23.65,0,0,0-8.35,1.39c4.88-1.81,9.58-1.52,14.47-1A53.19,53.19,0,0,0,62,153.74Zm54.41-2.15A62.39,62.39,0,0,1,111,155,59.34,59.34,0,0,0,116.41,151.59Zm-43.53,3.1a14.81,14.81,0,0,0,5.39-1A15.08,15.08,0,0,1,72.88,154.69Zm-1.35-.14.77.09.2,0-.21,0Zm-19.39-5.12-4.41,1.87q-2.71,1.15-5.4,2.34,2.69-1.19,5.4-2.34Zm32.66,2.79a15.93,15.93,0,0,0-5,1,14.91,14.91,0,0,1,5.71-1l.29,0-.29,0Zm39.08-7.85-1,1L120,148.28c.87-.86,1.82-1.83,2.81-2.85Zm-22.08,3.46a21.6,21.6,0,0,0,9-2c.32-.13.72-.28,1.15-.43a23.16,23.16,0,0,0,4.62-2.1A23.45,23.45,0,0,1,112,145.4c-.46.17-.86.31-1.19.45A21.72,21.72,0,0,1,101.8,147.83Zm-4.86-1.94a7.21,7.21,0,0,0,2.11,1.38A7.21,7.21,0,0,1,96.94,145.89Zm0,0h0Zm0,0Zm0,0Zm-4.25-4.5a10.28,10.28,0,0,1,2,2A10.28,10.28,0,0,0,92.67,141.36Zm-18,.95.68.05a20.86,20.86,0,0,0,4.74-.09,21.47,21.47,0,0,1-4.74.09Zm-2.3-.07Zm0,0Zm0,0Zm0,0Zm0,0Zm20.27-.89h0Zm-3.67-1a16.61,16.61,0,0,0-4.82,1c2.29-.7,4.45-1.36,6.79-.72A7.52,7.52,0,0,0,89,140.3Zm30-3.72a12.28,12.28,0,0,0-.19,1.95,15.24,15.24,0,0,1-.2,2.11,14.82,14.82,0,0,0,.2-2.11A12.28,12.28,0,0,1,119,136.58Zm17.53-1.76a24.78,24.78,0,0,0-7.19,4.21A24.78,24.78,0,0,1,136.48,134.82Zm-17.16.62Zm.59-1-.18.26a6.23,6.23,0,0,0-.41.75,6.23,6.23,0,0,1,.41-.75Zm28-3.58a12.77,12.77,0,0,1-2.37,1l-.4.13.4-.13A12.77,12.77,0,0,0,147.9,130.85ZM131.72,127a10.76,10.76,0,0,0-5.49,2l-.36.21.35-.21c1.58-.95,3.73-2.26,6.2-2A5.48,5.48,0,0,0,131.72,127Zm3.17.53c3.87.88,9.51,2,13.5-1.57C144.4,129.55,138.56,128.34,134.89,127.51Zm18.68-.62-.12.09-.34.26.33-.25ZM155,114.73l.06.31a13.11,13.11,0,0,1-1.5,8.59l.93-.69c2.88-2.11,6-6.56,7.84-9.22.58-.82,1-1.47,1.4-2l0-.06a18.33,18.33,0,0,1,4.21-4.12C162.84,110.45,157.26,113.5,155,114.73Zm10.63-1.13c-.31.41-.69,1-1.15,1.62-.59.84-1.29,1.85-2.08,2.91.79-1.06,1.49-2.07,2.08-2.91C164.91,114.58,165.3,114,165.61,113.6Zm-13.21,1.61a1.31,1.31,0,0,1,.06.27h0A1.38,1.38,0,0,0,152.4,115.21Zm17.65-5.91a16.39,16.39,0,0,0-4.22,4l0,0,0,0A16.86,16.86,0,0,1,170.05,109.3ZM152.79,113l-.17.09-.07,0Zm33-17.58-.61,0c-2.39.12-5,1.81-8.21,3.94l-.67.44c-2.61,1.71-14.17,8.08-20.13,11.33,5.89-3.21,17.41-9.55,20.13-11.33l.67-.44c3.25-2.14,5.82-3.82,8.21-3.94Zm5.66,4.22-.3.07c-3.45.81-11.52,2.69-17.44,7l-1.45,1,1.45-1c5.92-4.27,14-6.15,17.44-7ZM187.17,98l-.66,0c-.5,0-.91,0-1.19,0-1.2,0-2.77.88-4.59,2A63.34,63.34,0,0,1,187.17,98Zm11.61.86-1.46.08c-.63,0-1.3.06-2,.11.7,0,1.36-.08,2-.11Zm2.07-3.55a6.29,6.29,0,0,1-1.31.85l.14,0A1.71,1.71,0,0,0,200.85,95.26Zm-8-.27c-1.67.17-3.78.3-6.44.36h0C188.59,95.3,190.85,95.2,192.88,95Zm6.72-2.38,0,.06,0,.09A1,1,0,0,0,199.6,92.61Zm-.19-5.55.13.12a7.18,7.18,0,0,1,2.71,4.32,1.17,1.17,0,0,0,.05-.2,20.32,20.32,0,0,1,1.22-3.63,13.69,13.69,0,0,1,5-5.21l.23-.15a53.27,53.27,0,0,0,4.47-3.14,11.91,11.91,0,0,1,5.56-2.26c5.42-.92,10.85,0,16.1.82l.32.06c7,1.15,12.61.8,18-1.13A53.93,53.93,0,0,0,269,67.34,88.2,88.2,0,0,0,282.45,54.2c8.23-10.28,11.66-22.66,14.14-34.51.16-.79.31-1.47.4-2.15a5.07,5.07,0,0,0,0-2.17c-.14-.47-.32-.54-.42-.58a3.54,3.54,0,0,0-2.49.38l-.1.07C287.27,19.63,253.87,41.61,252,42.9S205.22,82,199.41,87.06Zm-2.09,4.35Zm8.15-1.61c-.13.36-.24.74-.36,1.14C205.23,90.54,205.34,90.16,205.47,89.8Zm-7.9-.88.21.2.5.46-.5-.46C197.71,89.05,197.63,89,197.57,88.92Zm1.25-1.31Zm-2.16-1.48a1.51,1.51,0,0,0-.32.92v0h0A1.71,1.71,0,0,1,196.66,86.13Zm18.4-5.07-.18.14a55.12,55.12,0,0,1-4.69,3.3l-.23.15a14.29,14.29,0,0,0-2.55,2,14.68,14.68,0,0,1,2.55-2l.23-.15a55.12,55.12,0,0,0,4.69-3.3Zm22.08-.36a41,41,0,0,0,8.93.21A41,41,0,0,1,237.14,80.7Zm-13.46-1.56a26.53,26.53,0,0,0-4.45.35,12.53,12.53,0,0,0-2.49.66,13,13,0,0,1,2.49-.66,36.09,36.09,0,0,1,11,.17A48.34,48.34,0,0,0,223.68,79.14Zm29.64.26Zm11.44-5.68a49.07,49.07,0,0,1-10.62,5.4l-.82.28.82-.28A49.07,49.07,0,0,0,264.76,73.72ZM278.92,62Zm8.64-10.4q-1.41,2.16-3.07,4.23A73.11,73.11,0,0,1,278.93,62a73.11,73.11,0,0,0,5.56-6.16Q286.16,53.77,287.56,51.61Zm-37.09-10.8c-1.21.89-10.22,8.42-20.49,17C240.3,49.19,249.34,41.65,250.47,40.81ZM292.75,12.9h0c-5.49,3.62-30,19.76-39,25.71,8.91-5.91,33.18-21.88,38.77-25.55Zm6.94,3.1a10.1,10.1,0,0,1-.11,1.91c-.06.45-.14.9-.23,1.37.09-.46.17-.91.23-1.37A9.31,9.31,0,0,0,299.69,16Zm-.39-1.85c.06.14.11.29.16.44s.07.24.09.36a2.37,2.37,0,0,0-.09-.36C299.41,14.44,299.36,14.29,299.3,14.15Zm-3.37-2.07a7,7,0,0,0-3.16.81l.05,0a6.2,6.2,0,0,1,4.48-.58A4.28,4.28,0,0,0,295.93,12.08Z"/><path class="cls-3" d="M26.24,176.59a9.86,9.86,0,0,1-3.87-.76,8.17,8.17,0,0,1-5.1-7.88,8,8,0,0,1,1.32-3.7,11.77,11.77,0,0,1,4-3.69h0a22.94,22.94,0,0,1,4-1.85c5-1.83,10-4,14.88-6.12,1.92-.84,3.83-1.67,5.76-2.49l18.75-8a17.42,17.42,0,0,1,6.43-1.2c1.29,0,2.21.06,3,.12a19.79,19.79,0,0,0,4.72-.11,22.78,22.78,0,0,0,3.62-.9c2.48-.76,5-1.55,7.9-.63,2,.66,3.29,2.17,4.49,3.64,1.33,1.63,2.48,3,4.68,3.37,3.25.48,6.6-.63,9.46-1.78l1.23-.47c1.89-.69,5.4-2,5.71-3.53a13.09,13.09,0,0,0,.22-2.17,8.11,8.11,0,0,1,1.18-4.49,20.5,20.5,0,0,1,6.17-5.65l.74-.44c1.76-1.07,4.17-2.54,7.13-2.16a21.88,21.88,0,0,1,2.21.44c3.65.83,9.15,2.08,12.75-1.31,3.83-3.62,3.87-7.26,3.55-9.11a4.11,4.11,0,0,0-.11-.47c-.21-.69-.74-2.53,1-3.41,1.26-.65,20.14-10.94,23.57-13.19l.67-.44c3.42-2.25,6.12-4,8.87-4.15.31,0,.75,0,1.28,0,10.17-.26,11.75-1.41,12-1.89,0-.67-.57-1.26-1.47-2.07S195,88.38,195,87a3.62,3.62,0,0,1,1.46-2.63c2.67-2.34,51-43.13,53.28-44.7,2.06-1.46,40.62-26.81,42.26-27.89l.12-.07a7.22,7.22,0,0,1,5.91-.57,4.63,4.63,0,0,1,2.65,3,9,9,0,0,1,.17,3.88c-.12.83-.29,1.63-.45,2.41-2.58,12.32-6.18,25.22-14.91,36.15a91.91,91.91,0,0,1-14,13.73,57.59,57.59,0,0,1-16.92,10c-6.1,2.16-12.27,2.56-20,1.3l-.34-.06c-4.92-.8-10-1.63-14.79-.82a7.9,7.9,0,0,0-3.75,1.44,56.4,56.4,0,0,1-4.8,3.38l-.23.14A9.75,9.75,0,0,0,207,89.41a17.44,17.44,0,0,0-.95,2.91c-.8,3-1.9,7.09-5.86,7.65-.88.13-1.84.17-2.85.22a29.33,29.33,0,0,0-5.43.63l-.49.11c-3.38.79-11.27,2.64-17,6.75-6,4.31-6.21,4.59-7.62,6.43l-.05.06c-.31.4-.77,1-1.29,1.8-2,2.86-5.34,7.64-8.74,10.13q-1.33,1-2.55,1.92c-3,2.29-5.61,4.27-8.32,5.12l-1.75.52c-3.91,1.11-10.44,3-14.26,6.58-2,1.88-4.2,4.13-6.13,6.1a70,70,0,0,1-6.51,6.23c-1.53,1.11-15.25,10.73-23.47,7.75-4.34-1.58-5.32-3.64-6-5.15-.53-1.12-.71-1.5-2.37-1.62a15.07,15.07,0,0,0-5.85,1.14,16.94,16.94,0,0,1-7.39,1.25l-2.28-.26c-5.55-.66-10.79-1.28-16.13.82-3.8,1.49-7.38,4.17-11.28,8.42-.83.91-1.64,1.89-2.43,2.85-2.36,2.88-4.81,5.86-8.46,7.58A12.61,12.61,0,0,1,26.24,176.59ZM72.4,143.54a15,15,0,0,0-5.38,1l-18.78,8q-2.88,1.22-5.74,2.48c-4.88,2.12-9.92,4.32-15,6.18a21,21,0,0,0-3.56,1.64h0a9.21,9.21,0,0,0-3.13,2.86,5.07,5.07,0,0,0,2.6,7.75,8.77,8.77,0,0,0,7.08-.44c3.12-1.47,5.27-4.09,7.55-6.87.81-1,1.64-2,2.52-3,4.18-4.56,8.07-7.44,12.25-9.09,6-2.34,11.51-1.68,17.4-1l2.26.26a14.63,14.63,0,0,0,6.27-1.13,17.5,17.5,0,0,1,6.87-1.27c3.18.23,3.91,1.76,4.55,3.11s1.23,2.6,4.56,3.81c5.66,2,15.9-3.69,21-7.41a69.82,69.82,0,0,0,6.17-5.94c2-2,4.16-4.25,6.2-6.18,4.29-4,11.2-6,15.34-7.19l1.68-.49c2.28-.72,4.71-2.57,7.52-4.71.83-.63,1.69-1.28,2.6-1.94,3.05-2.24,6.23-6.8,8.14-9.53.56-.81,1-1.45,1.36-1.9l.05-.06c1.65-2.14,2.1-2.59,8.16-7s14.38-6.35,17.9-7.17l.49-.12a31.42,31.42,0,0,1,5.91-.69c.94,0,1.84-.09,2.6-.2,2.09-.29,2.86-2.57,3.71-5.74a18.19,18.19,0,0,1,1.13-3.39,12.48,12.48,0,0,1,4.55-4.7l.22-.14a53,53,0,0,0,4.58-3.22,10.73,10.73,0,0,1,5-2c5.2-.89,10.52,0,15.66.82l.33.06c7.27,1.18,13,.82,18.7-1.19a55.13,55.13,0,0,0,16.14-9.54A88.5,88.5,0,0,0,283.47,55c8.4-10.5,11.88-23.06,14.4-35.06.15-.73.31-1.5.42-2.24a6.36,6.36,0,0,0-.08-2.74,2.08,2.08,0,0,0-1.16-1.4,4.73,4.73,0,0,0-3.65.46c-1.79,1.17-40.13,26.39-42.12,27.79s-48.93,40.9-53.06,44.53c-.53.47-.57.7-.57.7,0,.21.65.76,1,1.09,1,.92,2.39,2.17,2.32,4.13-.13,3.34-5.65,4.16-14.5,4.38l-1.23,0c-2,.1-4.47,1.7-7.55,3.72l-.68.45c-3.43,2.25-21.22,11.94-23.57,13.2,0,.16.09.35.13.49a6.24,6.24,0,0,1,.17.69c.42,2.42.39,7.06-4.32,11.51s-11.2,2.86-15.13,2c-.8-.18-1.48-.34-2-.4-2.07-.25-3.94.89-5.46,1.8l-.79.48a17.76,17.76,0,0,0-5.27,4.8,5.71,5.71,0,0,0-.77,3.19,16,16,0,0,1-.26,2.56c-.6,3-4.68,4.5-7.39,5.48l-1.14.43c-3.18,1.29-7,2.52-10.83,1.94-3.2-.48-4.86-2.51-6.32-4.3-1-1.27-1.94-2.38-3.26-2.8-2.07-.67-4-.06-6.34.64a23.62,23.62,0,0,1-4,1,21.71,21.71,0,0,1-5.24.13C74.43,143.6,73.59,143.54,72.4,143.54ZM23.24,161.69Z"/><path class="cls-3" d="M26.24,176.59a9.86,9.86,0,0,1-3.87-.76,8.17,8.17,0,0,1-5.1-7.88,8,8,0,0,1,1.32-3.7,11.77,11.77,0,0,1,4-3.69h0a22.94,22.94,0,0,1,4-1.85c5-1.83,10-4,14.88-6.12,1.92-.84,3.83-1.67,5.76-2.49l18.75-8a17.42,17.42,0,0,1,6.43-1.2c1.29,0,2.21.06,3,.12a19.79,19.79,0,0,0,4.72-.11,22.78,22.78,0,0,0,3.62-.9c2.48-.76,5-1.55,7.9-.63,2,.66,3.29,2.17,4.49,3.64,1.33,1.63,2.48,3,4.68,3.37,3.25.48,6.6-.63,9.46-1.78l1.23-.47c1.89-.69,5.4-2,5.71-3.53a13.09,13.09,0,0,0,.22-2.17,8.11,8.11,0,0,1,1.18-4.49,20.5,20.5,0,0,1,6.17-5.65l.74-.44c1.76-1.07,4.17-2.54,7.13-2.16a21.88,21.88,0,0,1,2.21.44c3.65.83,9.15,2.08,12.75-1.31,3.83-3.62,3.87-7.26,3.55-9.11a4.11,4.11,0,0,0-.11-.47c-.21-.69-.74-2.53,1-3.41,1.26-.65,20.14-10.94,23.57-13.19l.67-.44c3.42-2.25,6.12-4,8.87-4.15.31,0,.75,0,1.28,0,10.17-.26,11.75-1.41,12-1.89,0-.67-.57-1.26-1.47-2.07S195,88.38,195,87a3.62,3.62,0,0,1,1.46-2.63c2.67-2.34,51-43.13,53.28-44.7.32-.23,1.44-1,3.63-2.43C263.57,30.52,291.74,12,292,11.81l.12-.07a7.22,7.22,0,0,1,5.91-.57,4.63,4.63,0,0,1,2.65,3,9,9,0,0,1,.17,3.88c-.12.83-.29,1.63-.45,2.41-2.58,12.32-6.18,25.22-14.91,36.15a91.91,91.91,0,0,1-14,13.73,57.59,57.59,0,0,1-16.92,10c-6.1,2.16-12.27,2.56-20,1.3l-.34-.06c-4.92-.8-10-1.63-14.79-.82a7.9,7.9,0,0,0-3.75,1.44,56.4,56.4,0,0,1-4.8,3.38l-.23.14A9.75,9.75,0,0,0,207,89.41a17.44,17.44,0,0,0-.95,2.91c-.8,3-1.9,7.09-5.86,7.65-.88.13-1.84.17-2.85.22a29.33,29.33,0,0,0-5.43.63l-.49.11c-3.38.79-11.27,2.64-17,6.75-6,4.31-6.21,4.59-7.62,6.43l-.05.06c-.31.4-.77,1-1.29,1.8-2,2.86-5.34,7.64-8.74,10.13q-1.33,1-2.55,1.92c-3,2.29-5.61,4.27-8.32,5.12l-1.75.52c-3.91,1.11-10.44,3-14.26,6.58-2,1.88-4.2,4.13-6.13,6.1a70,70,0,0,1-6.51,6.23c-1.53,1.11-15.25,10.73-23.47,7.75-4.34-1.58-5.32-3.64-6-5.15-.53-1.12-.71-1.5-2.37-1.62a15.07,15.07,0,0,0-5.85,1.14,16.94,16.94,0,0,1-7.39,1.25l-2.28-.26c-5.55-.66-10.79-1.28-16.13.82-3.8,1.49-7.38,4.17-11.28,8.42-.83.91-1.64,1.89-2.43,2.85-2.36,2.88-4.81,5.86-8.46,7.58A12.61,12.61,0,0,1,26.24,176.59ZM72.4,143.54a15,15,0,0,0-5.38,1l-18.78,8q-2.88,1.22-5.74,2.48c-4.88,2.12-9.92,4.32-15,6.18a21,21,0,0,0-3.56,1.64h0a9.21,9.21,0,0,0-3.13,2.86,5.07,5.07,0,0,0,2.6,7.75,8.77,8.77,0,0,0,7.08-.44c3.12-1.47,5.27-4.09,7.55-6.87.81-1,1.64-2,2.52-3,4.18-4.56,8.07-7.44,12.25-9.09,6-2.34,11.51-1.68,17.4-1l2.26.26a14.63,14.63,0,0,0,6.27-1.13,17.5,17.5,0,0,1,6.87-1.27c3.18.23,3.91,1.76,4.55,3.11s1.23,2.6,4.56,3.81c5.66,2,15.9-3.69,21-7.41a69.82,69.82,0,0,0,6.17-5.94c2-2,4.16-4.25,6.2-6.18,4.29-4,11.2-6,15.34-7.19l1.68-.49c2.28-.72,4.71-2.57,7.52-4.71.83-.63,1.69-1.28,2.6-1.94,3.05-2.24,6.23-6.8,8.14-9.53.56-.81,1-1.45,1.36-1.9l.05-.06c1.65-2.14,2.1-2.59,8.16-7s14.38-6.35,17.9-7.17l.49-.12a31.42,31.42,0,0,1,5.91-.69c.94,0,1.84-.09,2.6-.2,2.09-.29,2.86-2.57,3.71-5.74a18.19,18.19,0,0,1,1.13-3.39,12.48,12.48,0,0,1,4.55-4.7l.22-.14a53,53,0,0,0,4.58-3.22,10.73,10.73,0,0,1,5-2c5.2-.89,10.52,0,15.66.82l.33.06c7.27,1.18,13,.82,18.7-1.19a55.13,55.13,0,0,0,16.14-9.54A88.5,88.5,0,0,0,283.47,55c8.4-10.5,11.88-23.06,14.4-35.06.15-.73.31-1.5.42-2.24a6.36,6.36,0,0,0-.08-2.74,2.08,2.08,0,0,0-1.16-1.4,4.73,4.73,0,0,0-3.65.46c-1.49,1-28.62,18.82-38.56,25.41l-3.56,2.38c-1.9,1.34-48.93,40.9-53.06,44.53-.53.47-.57.7-.57.7,0,.21.65.76,1,1.09,1,.92,2.39,2.17,2.32,4.13-.13,3.34-5.65,4.16-14.5,4.38l-1.23,0c-2,.1-4.47,1.7-7.55,3.72l-.68.45c-3.43,2.25-21.22,11.94-23.57,13.2,0,.16.09.35.13.49a6.24,6.24,0,0,1,.17.69c.42,2.42.39,7.06-4.32,11.51s-11.2,2.86-15.13,2c-.8-.18-1.48-.34-2-.4-2.07-.25-3.94.89-5.46,1.8l-.79.48a17.76,17.76,0,0,0-5.27,4.8,5.71,5.71,0,0,0-.77,3.19,16,16,0,0,1-.26,2.56c-.6,3-4.68,4.5-7.39,5.48l-1.14.43c-3.18,1.29-7,2.52-10.83,1.94-3.2-.48-4.86-2.51-6.32-4.3-1-1.27-1.94-2.38-3.26-2.8-2.07-.67-4-.06-6.34.64a23.62,23.62,0,0,1-4,1,21.71,21.71,0,0,1-5.24.13C74.43,143.6,73.59,143.54,72.4,143.54ZM23.24,161.69Z"/><path class="cls-4" d="M26.24,176.59a9.86,9.86,0,0,1-3.87-.76,8.17,8.17,0,0,1-5.1-7.88,8,8,0,0,1,1.32-3.7,11.77,11.77,0,0,1,4-3.69h0a22.94,22.94,0,0,1,4-1.85c5-1.83,10-4,14.88-6.12,1.92-.84,3.83-1.67,5.76-2.49l18.75-8a17.42,17.42,0,0,1,6.43-1.2c1.29,0,2.21.06,3,.12a19.79,19.79,0,0,0,4.72-.11,22.78,22.78,0,0,0,3.62-.9c2.48-.76,5-1.55,7.9-.63,2,.66,3.29,2.17,4.49,3.64,1.33,1.63,2.48,3,4.68,3.37,3.25.48,6.6-.63,9.46-1.78l1.23-.47c1.89-.69,5.4-2,5.71-3.53a13.09,13.09,0,0,0,.22-2.17,8.11,8.11,0,0,1,1.18-4.49,20.5,20.5,0,0,1,6.17-5.65l.74-.44c1.76-1.07,4.17-2.54,7.13-2.16a21.88,21.88,0,0,1,2.21.44c3.65.83,9.15,2.08,12.75-1.31,3.83-3.62,3.87-7.26,3.55-9.11a4.11,4.11,0,0,0-.11-.47c-.21-.69-.74-2.53,1-3.41,1.26-.65,20.14-10.94,23.57-13.19l.67-.44c3.42-2.25,6.12-4,8.87-4.15.31,0,.75,0,1.28,0,10.17-.26,11.75-1.41,12-1.89,0-.67-.57-1.26-1.47-2.07S195,88.38,195,87a3.62,3.62,0,0,1,1.46-2.63c2.67-2.34,51-43.13,53.28-44.7.32-.23,1.44-1,3.63-2.43l10.3-6.81L292,11.81l.12-.07a7.22,7.22,0,0,1,5.91-.57,4.63,4.63,0,0,1,2.65,3,9,9,0,0,1,.17,3.88c-.12.83-.29,1.63-.45,2.41-2.58,12.32-6.18,25.22-14.91,36.15a91.91,91.91,0,0,1-14,13.73,57.59,57.59,0,0,1-16.92,10c-6.1,2.16-12.27,2.56-20,1.3l-.34-.06c-4.92-.8-10-1.63-14.79-.82a7.9,7.9,0,0,0-3.75,1.44,56.4,56.4,0,0,1-4.8,3.38l-.23.14A9.75,9.75,0,0,0,207,89.41a17.44,17.44,0,0,0-.95,2.91c-.8,3-1.9,7.09-5.86,7.65-.88.13-1.84.17-2.85.22a29.33,29.33,0,0,0-5.43.63l-.49.11c-3.38.79-11.27,2.64-17,6.75-6,4.31-6.21,4.59-7.62,6.43l-.05.06c-.31.4-.77,1-1.29,1.8-2,2.86-5.34,7.64-8.74,10.13q-1.33,1-2.55,1.92c-3,2.29-5.61,4.27-8.32,5.12l-1.75.52c-3.91,1.11-10.44,3-14.26,6.58-2,1.88-4.2,4.13-6.13,6.1a70,70,0,0,1-6.51,6.23c-1.53,1.11-15.25,10.73-23.47,7.75-4.34-1.58-5.32-3.64-6-5.15-.53-1.12-.71-1.5-2.37-1.62a15.07,15.07,0,0,0-5.85,1.14,16.94,16.94,0,0,1-7.39,1.25l-2.28-.26c-5.55-.66-10.79-1.28-16.13.82-3.8,1.49-7.38,4.17-11.28,8.42-.83.91-1.64,1.89-2.43,2.85-2.36,2.88-4.81,5.86-8.46,7.58A12.61,12.61,0,0,1,26.24,176.59ZM72.4,143.54a15,15,0,0,0-5.38,1l-18.78,8q-2.88,1.22-5.74,2.48c-4.88,2.12-9.92,4.32-15,6.18a21,21,0,0,0-3.56,1.64h0a9.21,9.21,0,0,0-3.13,2.86,5.07,5.07,0,0,0,2.6,7.75,8.77,8.77,0,0,0,7.08-.44c3.12-1.47,5.27-4.09,7.55-6.87.81-1,1.64-2,2.52-3,4.18-4.56,8.07-7.44,12.25-9.09,6-2.34,11.51-1.68,17.4-1l2.26.26a14.63,14.63,0,0,0,6.27-1.13,17.5,17.5,0,0,1,6.87-1.27c3.18.23,3.91,1.76,4.55,3.11s1.23,2.6,4.56,3.81c5.66,2,15.9-3.69,21-7.41a69.82,69.82,0,0,0,6.17-5.94c2-2,4.16-4.25,6.2-6.18,4.29-4,11.2-6,15.34-7.19l1.68-.49c2.28-.72,4.71-2.57,7.52-4.71.83-.63,1.69-1.28,2.6-1.94,3.05-2.24,6.23-6.8,8.14-9.53.56-.81,1-1.45,1.36-1.9l.05-.06c1.65-2.14,2.1-2.59,8.16-7s14.38-6.35,17.9-7.17l.49-.12a31.42,31.42,0,0,1,5.91-.69c.94,0,1.84-.09,2.6-.2,2.09-.29,2.86-2.57,3.71-5.74a18.19,18.19,0,0,1,1.13-3.39,12.48,12.48,0,0,1,4.55-4.7l.22-.14a53,53,0,0,0,4.58-3.22,10.73,10.73,0,0,1,5-2c5.2-.89,10.52,0,15.66.82l.33.06c7.27,1.18,13,.82,18.7-1.19a55.13,55.13,0,0,0,16.14-9.54A88.5,88.5,0,0,0,283.47,55c8.4-10.5,11.88-23.06,14.4-35.06.15-.73.31-1.5.42-2.24a6.36,6.36,0,0,0-.08-2.74,2.08,2.08,0,0,0-1.16-1.4,4.73,4.73,0,0,0-3.65.46c-1.09.71-16.39,10.77-28.26,18.61l-10.3,6.8-3.56,2.38c-1.9,1.34-48.93,40.9-53.06,44.53-.53.47-.57.7-.57.7,0,.21.65.76,1,1.09,1,.92,2.39,2.17,2.32,4.13-.13,3.34-5.65,4.16-14.5,4.38l-1.23,0c-2,.1-4.47,1.7-7.55,3.72l-.68.45c-3.43,2.25-21.22,11.94-23.57,13.2,0,.16.09.35.13.49a6.24,6.24,0,0,1,.17.69c.42,2.42.39,7.06-4.32,11.51s-11.2,2.86-15.13,2c-.8-.18-1.48-.34-2-.4-2.07-.25-3.94.89-5.46,1.8l-.79.48a17.76,17.76,0,0,0-5.27,4.8,5.71,5.71,0,0,0-.77,3.19,16,16,0,0,1-.26,2.56c-.6,3-4.68,4.5-7.39,5.48l-1.14.43c-3.18,1.29-7,2.52-10.83,1.94-3.2-.48-4.86-2.51-6.32-4.3-1-1.27-1.94-2.38-3.26-2.8-2.07-.67-4-.06-6.34.64a23.62,23.62,0,0,1-4,1,21.71,21.71,0,0,1-5.24.13C74.43,143.6,73.59,143.54,72.4,143.54Z"/><path class="cls-4" d="M26.24,176.59a9.86,9.86,0,0,1-3.87-.76,8.17,8.17,0,0,1-5.1-7.88,8,8,0,0,1,1.32-3.7,11.77,11.77,0,0,1,4-3.69h0a22.94,22.94,0,0,1,4-1.85c5-1.83,10-4,14.88-6.12,1.92-.84,3.83-1.67,5.76-2.49l18.75-8a17.42,17.42,0,0,1,6.43-1.2c1.29,0,2.21.06,3,.12a19.79,19.79,0,0,0,4.72-.11,22.78,22.78,0,0,0,3.62-.9c2.48-.76,5-1.55,7.9-.63,2,.66,3.29,2.17,4.49,3.64,1.33,1.63,2.48,3,4.68,3.37,3.25.48,6.6-.63,9.46-1.78l1.23-.47c1.89-.69,5.4-2,5.71-3.53a13.09,13.09,0,0,0,.22-2.17,8.11,8.11,0,0,1,1.18-4.49,20.5,20.5,0,0,1,6.17-5.65l.74-.44c1.76-1.07,4.17-2.54,7.13-2.16a21.88,21.88,0,0,1,2.21.44c3.65.83,9.15,2.08,12.75-1.31,3.83-3.62,3.87-7.26,3.55-9.11a4.11,4.11,0,0,0-.11-.47c-.21-.69-.74-2.53,1-3.41,1.26-.65,20.14-10.94,23.57-13.19l.67-.44c3.42-2.25,6.12-4,8.87-4.15.31,0,.75,0,1.28,0,10.17-.26,11.75-1.41,12-1.89,0-.67-.57-1.26-1.47-2.07S195,88.38,195,87a3.62,3.62,0,0,1,1.46-2.63c2.67-2.34,51-43.13,53.28-44.7.32-.23,1.44-1,3.63-2.43l10.3-6.81,18.38-12.11,10.07-6.61a7.22,7.22,0,0,1,5.91-.57,4.63,4.63,0,0,1,2.65,3,9,9,0,0,1,.17,3.88c-.12.83-.29,1.63-.45,2.41-2.58,12.32-6.18,25.22-14.91,36.15a91.91,91.91,0,0,1-14,13.73,57.59,57.59,0,0,1-16.92,10c-6.1,2.16-12.27,2.56-20,1.3l-.34-.06c-4.92-.8-10-1.63-14.79-.82a7.9,7.9,0,0,0-3.75,1.44,56.4,56.4,0,0,1-4.8,3.38l-.23.14A9.75,9.75,0,0,0,207,89.41a17.44,17.44,0,0,0-.95,2.91c-.8,3-1.9,7.09-5.86,7.65-.88.13-1.84.17-2.85.22a29.33,29.33,0,0,0-5.43.63l-.49.11c-3.38.79-11.27,2.64-17,6.75-6,4.31-6.21,4.59-7.62,6.43l-.05.06c-.31.4-.77,1-1.29,1.8-2,2.86-5.34,7.64-8.74,10.13q-1.33,1-2.55,1.92c-3,2.29-5.61,4.27-8.32,5.12l-1.75.52c-3.91,1.11-10.44,3-14.26,6.58-2,1.88-4.2,4.13-6.13,6.1a70,70,0,0,1-6.51,6.23c-1.53,1.11-15.25,10.73-23.47,7.75-4.34-1.58-5.32-3.64-6-5.15-.53-1.12-.71-1.5-2.37-1.62a15.07,15.07,0,0,0-5.85,1.14,16.94,16.94,0,0,1-7.39,1.25l-2.28-.26c-5.55-.66-10.79-1.28-16.13.82-3.8,1.49-7.38,4.17-11.28,8.42-.83.91-1.64,1.89-2.43,2.85-2.36,2.88-4.81,5.86-8.46,7.58A12.61,12.61,0,0,1,26.24,176.59ZM72.4,143.54a15,15,0,0,0-5.38,1l-18.78,8q-2.88,1.22-5.74,2.48c-4.88,2.12-9.92,4.32-15,6.18a21,21,0,0,0-3.56,1.64h0a9.21,9.21,0,0,0-3.13,2.86,5.07,5.07,0,0,0,2.6,7.75,8.77,8.77,0,0,0,7.08-.44c3.12-1.47,5.27-4.09,7.55-6.87.81-1,1.64-2,2.52-3,4.18-4.56,8.07-7.44,12.25-9.09,6-2.34,11.51-1.68,17.4-1l2.26.26a14.63,14.63,0,0,0,6.27-1.13,17.5,17.5,0,0,1,6.87-1.27c3.18.23,3.91,1.76,4.55,3.11s1.23,2.6,4.56,3.81c5.66,2,15.9-3.69,21-7.41a69.82,69.82,0,0,0,6.17-5.94c2-2,4.16-4.25,6.2-6.18,4.29-4,11.2-6,15.34-7.19l1.68-.49c2.28-.72,4.71-2.57,7.52-4.71.83-.63,1.69-1.28,2.6-1.94,3.05-2.24,6.23-6.8,8.14-9.53.56-.81,1-1.45,1.36-1.9l.05-.06c1.65-2.14,2.1-2.59,8.16-7s14.38-6.35,17.9-7.17l.49-.12a31.42,31.42,0,0,1,5.91-.69c.94,0,1.84-.09,2.6-.2,2.09-.29,2.86-2.57,3.71-5.74a18.19,18.19,0,0,1,1.13-3.39,12.48,12.48,0,0,1,4.55-4.7l.22-.14a53,53,0,0,0,4.58-3.22,10.73,10.73,0,0,1,5-2c5.2-.89,10.52,0,15.66.82l.33.06c7.27,1.18,13,.82,18.7-1.19a55.13,55.13,0,0,0,16.14-9.54A88.5,88.5,0,0,0,283.47,55c8.4-10.5,11.88-23.06,14.4-35.06.15-.73.31-1.5.42-2.24a6.36,6.36,0,0,0-.08-2.74,2.08,2.08,0,0,0-1.16-1.4,4.77,4.77,0,0,0-3.65.45l-9.89,6.51L265.14,32.65l-10.3,6.8-3.56,2.38c-1.9,1.34-48.93,40.9-53.06,44.53-.53.47-.57.7-.57.7,0,.21.65.76,1,1.09,1,.92,2.39,2.17,2.32,4.13-.13,3.34-5.65,4.16-14.5,4.38l-1.23,0c-2,.1-4.47,1.7-7.55,3.72l-.68.45c-3.43,2.25-21.22,11.94-23.57,13.2,0,.16.09.35.13.49a6.24,6.24,0,0,1,.17.69c.42,2.42.39,7.06-4.32,11.51s-11.2,2.86-15.13,2c-.8-.18-1.48-.34-2-.4-2.07-.25-3.94.89-5.46,1.8l-.79.48a17.76,17.76,0,0,0-5.27,4.8,5.71,5.71,0,0,0-.77,3.19,16,16,0,0,1-.26,2.56c-.6,3-4.68,4.5-7.39,5.48l-1.14.43c-3.18,1.29-7,2.52-10.83,1.94-3.2-.48-4.86-2.51-6.32-4.3-1-1.27-1.94-2.38-3.26-2.8-2.07-.67-4-.06-6.34.64a23.62,23.62,0,0,1-4,1,21.71,21.71,0,0,1-5.24.13C74.43,143.6,73.59,143.54,72.4,143.54Z"/><path class="cls-4" d="M26.24,176.59a9.86,9.86,0,0,1-3.87-.76,8.17,8.17,0,0,1-5.1-7.88,8,8,0,0,1,1.32-3.7,11.77,11.77,0,0,1,4-3.69h0a22.94,22.94,0,0,1,4-1.85c5-1.83,10-4,14.88-6.12,1.92-.84,3.83-1.67,5.76-2.49l18.75-8a17.42,17.42,0,0,1,6.43-1.2c1.29,0,2.21.06,3,.12a19.79,19.79,0,0,0,4.72-.11,22.78,22.78,0,0,0,3.62-.9c2.48-.76,5-1.55,7.9-.63,2,.66,3.29,2.17,4.49,3.64,1.33,1.63,2.48,3,4.68,3.37,3.25.48,6.6-.63,9.46-1.78l1.23-.47c1.89-.69,5.4-2,5.71-3.53a13.09,13.09,0,0,0,.22-2.17,8.11,8.11,0,0,1,1.18-4.49,20.5,20.5,0,0,1,6.17-5.65l.74-.44c1.76-1.07,4.17-2.54,7.13-2.16a21.88,21.88,0,0,1,2.21.44c3.65.83,9.15,2.08,12.75-1.31,3.83-3.62,3.87-7.26,3.55-9.11a4.11,4.11,0,0,0-.11-.47c-.21-.69-.74-2.53,1-3.41,1.26-.65,20.14-10.94,23.57-13.19l.67-.44c3.42-2.25,6.12-4,8.87-4.15.31,0,.75,0,1.28,0,10.17-.26,11.75-1.41,12-1.89,0-.67-.57-1.26-1.47-2.07S195,88.38,195,87a3.62,3.62,0,0,1,1.46-2.63c2.67-2.34,51-43.13,53.28-44.7.32-.23,1.44-1,3.63-2.43l10.3-6.81,18.38-12.11,10.07-6.61a7.22,7.22,0,0,1,5.91-.57,4.63,4.63,0,0,1,2.65,3,9,9,0,0,1,.17,3.88c-.12.83-.29,1.63-.45,2.41-2.58,12.32-6.18,25.22-14.91,36.15a91.91,91.91,0,0,1-14,13.73,57.59,57.59,0,0,1-16.92,10c-6.1,2.16-12.27,2.56-20,1.3l-.34-.06c-4.92-.8-10-1.63-14.79-.82a7.9,7.9,0,0,0-3.75,1.44,56.4,56.4,0,0,1-4.8,3.38l-.23.14A9.75,9.75,0,0,0,207,89.41a17.44,17.44,0,0,0-.95,2.91c-.8,3-1.9,7.09-5.86,7.65-.88.13-1.84.17-2.85.22a29.33,29.33,0,0,0-5.43.63l-.49.11c-3.38.79-11.27,2.64-17,6.75-6,4.31-6.21,4.59-7.62,6.43l-.05.06c-.31.4-.77,1-1.29,1.8-2,2.86-5.34,7.64-8.74,10.13q-1.33,1-2.55,1.92c-3,2.29-5.61,4.27-8.32,5.12l-1.75.52c-3.91,1.11-10.44,3-14.26,6.58-2,1.88-4.2,4.13-6.13,6.1a70,70,0,0,1-6.51,6.23c-1.53,1.11-15.25,10.73-23.47,7.75-4.34-1.58-5.32-3.64-6-5.15-.53-1.12-.71-1.5-2.37-1.62a15.07,15.07,0,0,0-5.85,1.14,16.94,16.94,0,0,1-7.39,1.25l-2.28-.26c-5.55-.66-10.79-1.28-16.13.82-3.8,1.49-7.38,4.17-11.28,8.42-.83.91-1.64,1.89-2.43,2.85-2.36,2.88-4.81,5.86-8.46,7.58A12.61,12.61,0,0,1,26.24,176.59ZM72.4,143.54a15,15,0,0,0-5.38,1l-18.78,8q-2.88,1.22-5.74,2.48c-4.88,2.12-9.92,4.32-15,6.18a21,21,0,0,0-3.56,1.64h0a9.21,9.21,0,0,0-3.13,2.86,5.07,5.07,0,0,0,2.6,7.75,8.77,8.77,0,0,0,7.08-.44c3.12-1.47,5.27-4.09,7.55-6.87.81-1,1.64-2,2.52-3,4.18-4.56,8.07-7.44,12.25-9.09,6-2.34,11.51-1.68,17.4-1l2.26.26a14.63,14.63,0,0,0,6.27-1.13,17.5,17.5,0,0,1,6.87-1.27c3.18.23,3.91,1.76,4.55,3.11s1.23,2.6,4.56,3.81c5.66,2,15.9-3.69,21-7.41a69.82,69.82,0,0,0,6.17-5.94c2-2,4.16-4.25,6.2-6.18,4.29-4,11.2-6,15.34-7.19l1.68-.49c2.28-.72,4.71-2.57,7.52-4.71.83-.63,1.69-1.28,2.6-1.94,3.05-2.24,6.23-6.8,8.14-9.53.56-.81,1-1.45,1.36-1.9l.05-.06c1.65-2.14,2.1-2.59,8.16-7s14.38-6.35,17.9-7.17l.49-.12a31.42,31.42,0,0,1,5.91-.69c.94,0,1.84-.09,2.6-.2,2.09-.29,2.86-2.57,3.71-5.74a18.19,18.19,0,0,1,1.13-3.39,12.48,12.48,0,0,1,4.55-4.7l.22-.14a53,53,0,0,0,4.58-3.22,10.73,10.73,0,0,1,5-2c5.2-.89,10.52,0,15.66.82l.33.06c7.27,1.18,13,.82,18.7-1.19a55.13,55.13,0,0,0,16.14-9.54A88.5,88.5,0,0,0,283.47,55c8.4-10.5,11.88-23.06,14.4-35.06.15-.73.31-1.5.42-2.24a6.36,6.36,0,0,0-.08-2.74,2.08,2.08,0,0,0-1.16-1.4,4.77,4.77,0,0,0-3.65.45l-9.89,6.51L265.14,32.65l-10.3,6.8-3.56,2.38c-1.9,1.34-48.93,40.9-53.06,44.53-.53.47-.57.7-.57.7,0,.21.65.76,1,1.09,1,.92,2.39,2.17,2.32,4.13-.13,3.34-5.65,4.16-14.5,4.38l-1.23,0c-2,.1-4.47,1.7-7.55,3.72l-.68.45c-3.43,2.25-21.22,11.94-23.57,13.2,0,.16.09.35.13.49a6.24,6.24,0,0,1,.17.69c.42,2.42.39,7.06-4.32,11.51s-11.2,2.86-15.13,2c-.8-.18-1.48-.34-2-.4-2.07-.25-3.94.89-5.46,1.8l-.79.48a17.76,17.76,0,0,0-5.27,4.8,5.71,5.71,0,0,0-.77,3.19,16,16,0,0,1-.26,2.56c-.6,3-4.68,4.5-7.39,5.48l-1.14.43c-3.18,1.29-7,2.52-10.83,1.94-3.2-.48-4.86-2.51-6.32-4.3-1-1.27-1.94-2.38-3.26-2.8-2.07-.67-4-.06-6.34.64a23.62,23.62,0,0,1-4,1,21.71,21.71,0,0,1-5.24.13C74.43,143.6,73.59,143.54,72.4,143.54Z"/><path class="cls-4" d="M26.24,176.59a9.86,9.86,0,0,1-3.87-.76,8.17,8.17,0,0,1-5.1-7.88,8,8,0,0,1,1.32-3.7,11.77,11.77,0,0,1,4-3.69h0a22.94,22.94,0,0,1,4-1.85c5-1.83,10-4,14.88-6.12,1.92-.84,3.83-1.67,5.76-2.49l18.75-8a17.42,17.42,0,0,1,6.43-1.2c1.29,0,2.21.06,3,.12a19.79,19.79,0,0,0,4.72-.11,22.78,22.78,0,0,0,3.62-.9c2.48-.76,5-1.55,7.9-.63,2,.66,3.29,2.17,4.49,3.64,1.33,1.63,2.48,3,4.68,3.37,3.25.48,6.6-.63,9.46-1.78l1.23-.47c1.89-.69,5.4-2,5.71-3.53a13.09,13.09,0,0,0,.22-2.17,8.11,8.11,0,0,1,1.18-4.49,20.5,20.5,0,0,1,6.17-5.65l.74-.44c1.76-1.07,4.17-2.54,7.13-2.16a21.88,21.88,0,0,1,2.21.44c3.65.83,9.15,2.08,12.75-1.31,3.83-3.62,3.87-7.26,3.55-9.11a4.11,4.11,0,0,0-.11-.47c-.21-.69-.74-2.53,1-3.41,1.26-.65,20.14-10.94,23.57-13.19l.67-.44c3.42-2.25,6.12-4,8.87-4.15.31,0,.75,0,1.28,0,10.17-.26,11.75-1.41,12-1.89,0-.67-.57-1.26-1.47-2.07S195,88.38,195,87a3.62,3.62,0,0,1,1.46-2.63c2.67-2.34,51-43.13,53.28-44.7.32-.23,1.44-1,3.63-2.43l10.3-6.81,18.38-12.11,10.07-6.61a7.22,7.22,0,0,1,5.91-.57,4.63,4.63,0,0,1,2.65,3,9,9,0,0,1,.17,3.88c-.12.83-.29,1.63-.45,2.41-2.58,12.32-6.18,25.22-14.91,36.15a91.91,91.91,0,0,1-14,13.73,57.59,57.59,0,0,1-16.92,10c-6.1,2.16-12.27,2.56-20,1.3l-.34-.06c-4.92-.8-10-1.63-14.79-.82a7.9,7.9,0,0,0-3.75,1.44,56.4,56.4,0,0,1-4.8,3.38l-.23.14A9.75,9.75,0,0,0,207,89.41a17.44,17.44,0,0,0-.95,2.91c-.8,3-1.9,7.09-5.86,7.65-.88.13-1.84.17-2.85.22a29.33,29.33,0,0,0-5.43.63l-.49.11c-3.38.79-11.27,2.64-17,6.75-6,4.31-6.21,4.59-7.62,6.43l-.05.06c-.31.4-.77,1-1.29,1.8-2,2.86-5.34,7.64-8.74,10.13q-1.33,1-2.55,1.92c-3,2.29-5.61,4.27-8.32,5.12l-1.75.52c-3.91,1.11-10.44,3-14.26,6.58-2,1.88-4.2,4.13-6.13,6.1a70,70,0,0,1-6.51,6.23c-1.53,1.11-15.25,10.73-23.47,7.75-4.34-1.58-5.32-3.64-6-5.15-.53-1.12-.71-1.5-2.37-1.62a15.07,15.07,0,0,0-5.85,1.14,16.94,16.94,0,0,1-7.39,1.25l-2.28-.26c-5.55-.66-10.79-1.28-16.13.82-3.8,1.49-7.38,4.17-11.28,8.42-.83.91-1.64,1.89-2.43,2.85-2.36,2.88-4.81,5.86-8.46,7.58A12.61,12.61,0,0,1,26.24,176.59ZM72.4,143.54a15,15,0,0,0-5.38,1l-18.78,8q-2.88,1.22-5.74,2.48c-4.88,2.12-9.92,4.32-15,6.18a21,21,0,0,0-3.56,1.64h0a9.21,9.21,0,0,0-3.13,2.86,5.07,5.07,0,0,0,2.6,7.75,8.77,8.77,0,0,0,7.08-.44c3.12-1.47,5.27-4.09,7.55-6.87.81-1,1.64-2,2.52-3,4.18-4.56,8.07-7.44,12.25-9.09,6-2.34,11.51-1.68,17.4-1l2.26.26a14.63,14.63,0,0,0,6.27-1.13,17.5,17.5,0,0,1,6.87-1.27c3.18.23,3.91,1.76,4.55,3.11s1.23,2.6,4.56,3.81c5.66,2,15.9-3.69,21-7.41a69.82,69.82,0,0,0,6.17-5.94c2-2,4.16-4.25,6.2-6.18,4.29-4,11.2-6,15.34-7.19l1.68-.49c2.28-.72,4.71-2.57,7.52-4.71.83-.63,1.69-1.28,2.6-1.94,3.05-2.24,6.23-6.8,8.14-9.53.56-.81,1-1.45,1.36-1.9l.05-.06c1.65-2.14,2.1-2.59,8.16-7s14.38-6.35,17.9-7.17l.49-.12a31.42,31.42,0,0,1,5.91-.69c.94,0,1.84-.09,2.6-.2,2.09-.29,2.86-2.57,3.71-5.74a18.19,18.19,0,0,1,1.13-3.39,12.48,12.48,0,0,1,4.55-4.7l.22-.14a53,53,0,0,0,4.58-3.22,10.73,10.73,0,0,1,5-2c5.2-.89,10.52,0,15.66.82l.33.06c7.27,1.18,13,.82,18.7-1.19a55.13,55.13,0,0,0,16.14-9.54A88.5,88.5,0,0,0,283.47,55c8.4-10.5,11.88-23.06,14.4-35.06.15-.73.31-1.5.42-2.24a6.36,6.36,0,0,0-.08-2.74,2.08,2.08,0,0,0-1.16-1.4,4.77,4.77,0,0,0-3.65.45l-9.89,6.51L265.14,32.65l-10.3,6.8-3.56,2.38c-1.9,1.34-48.93,40.9-53.06,44.53-.53.47-.57.7-.57.7,0,.21.65.76,1,1.09,1,.92,2.39,2.17,2.32,4.13-.13,3.34-5.65,4.16-14.5,4.38l-1.23,0c-2,.1-4.47,1.7-7.55,3.72l-.68.45c-3.43,2.25-21.22,11.94-23.57,13.2,0,.16.09.35.13.49a6.24,6.24,0,0,1,.17.69c.42,2.42.39,7.06-4.32,11.51s-11.2,2.86-15.13,2c-.8-.18-1.48-.34-2-.4-2.07-.25-3.94.89-5.46,1.8l-.79.48a17.76,17.76,0,0,0-5.27,4.8,5.71,5.71,0,0,0-.77,3.19,16,16,0,0,1-.26,2.56c-.6,3-4.68,4.5-7.39,5.48l-1.14.43c-3.18,1.29-7,2.52-10.83,1.94-3.2-.48-4.86-2.51-6.32-4.3-1-1.27-1.94-2.38-3.26-2.8-2.07-.67-4-.06-6.34.64a23.62,23.62,0,0,1-4,1,21.71,21.71,0,0,1-5.24.13C74.43,143.6,73.59,143.54,72.4,143.54Z"/><path class="cls-5" d="M26.24,176.59a9.86,9.86,0,0,1-3.87-.76,8.17,8.17,0,0,1-5.1-7.88,8,8,0,0,1,1.32-3.7,11.77,11.77,0,0,1,4-3.69h0a22.94,22.94,0,0,1,4-1.85c5-1.83,10-4,14.88-6.12,1.92-.84,3.83-1.67,5.76-2.49l18.75-8a17.42,17.42,0,0,1,6.43-1.2c1.29,0,2.21.06,3,.12a19.79,19.79,0,0,0,4.72-.11,22.78,22.78,0,0,0,3.62-.9c2.48-.76,5-1.55,7.9-.63,2,.66,3.29,2.17,4.49,3.64,1.33,1.63,2.48,3,4.68,3.37,3.25.48,6.6-.63,9.46-1.78l1.23-.47c1.89-.69,5.4-2,5.71-3.53a13.09,13.09,0,0,0,.22-2.17,8.11,8.11,0,0,1,1.18-4.49,20.5,20.5,0,0,1,6.17-5.65l.74-.44c1.76-1.07,4.17-2.54,7.13-2.16a21.88,21.88,0,0,1,2.21.44c3.65.83,9.15,2.08,12.75-1.31,3.83-3.62,3.87-7.26,3.55-9.11a4.11,4.11,0,0,0-.11-.47c-.21-.69-.74-2.53,1-3.41,1.26-.65,20.14-10.94,23.57-13.19l.67-.44c3.42-2.25,6.12-4,8.87-4.15.31,0,.75,0,1.28,0,10.17-.26,11.75-1.41,12-1.89,0-.67-.57-1.26-1.47-2.07S195,88.38,195,87a3.62,3.62,0,0,1,1.46-2.63c2.67-2.34,51-43.13,53.28-44.7.32-.23,1.44-1,3.63-2.43l10.3-6.81,18.38-12.11,10.07-6.61a7.22,7.22,0,0,1,5.91-.57,4.63,4.63,0,0,1,2.65,3,9,9,0,0,1,.17,3.88c-.12.83-.29,1.63-.45,2.41-2.58,12.32-6.18,25.22-14.91,36.15a91.91,91.91,0,0,1-14,13.73,57.59,57.59,0,0,1-16.92,10c-6.1,2.16-12.27,2.56-20,1.3l-.34-.06c-4.92-.8-10-1.63-14.79-.82a7.9,7.9,0,0,0-3.75,1.44,56.4,56.4,0,0,1-4.8,3.38l-.23.14A9.75,9.75,0,0,0,207,89.41a17.44,17.44,0,0,0-.95,2.91c-.8,3-1.9,7.09-5.86,7.65-.88.13-1.84.17-2.85.22a29.33,29.33,0,0,0-5.43.63l-.49.11c-3.38.79-11.27,2.64-17,6.75-6,4.31-6.21,4.59-7.62,6.43l-.05.06c-.31.4-.77,1-1.29,1.8-2,2.86-5.34,7.64-8.74,10.13q-1.33,1-2.55,1.92c-3,2.29-5.61,4.27-8.32,5.12l-1.75.52c-3.91,1.11-10.44,3-14.26,6.58-2,1.88-4.2,4.13-6.13,6.1a70,70,0,0,1-6.51,6.23c-1.53,1.11-15.25,10.73-23.47,7.75-4.34-1.58-5.32-3.64-6-5.15-.53-1.12-.71-1.5-2.37-1.62a15.07,15.07,0,0,0-5.85,1.14,16.94,16.94,0,0,1-7.39,1.25l-2.28-.26c-5.55-.66-10.79-1.28-16.13.82-3.8,1.49-7.38,4.17-11.28,8.42-.83.91-1.64,1.89-2.43,2.85-2.36,2.88-4.81,5.86-8.46,7.58A12.61,12.61,0,0,1,26.24,176.59ZM72.4,143.54a15,15,0,0,0-5.38,1l-18.78,8q-2.88,1.22-5.74,2.48c-4.88,2.12-9.92,4.32-15,6.18a21,21,0,0,0-3.56,1.64h0a9.21,9.21,0,0,0-3.13,2.86,5.07,5.07,0,0,0,2.6,7.75,8.77,8.77,0,0,0,7.08-.44c3.12-1.47,5.27-4.09,7.55-6.87.81-1,1.64-2,2.52-3,4.18-4.56,8.07-7.44,12.25-9.09,6-2.34,11.51-1.68,17.4-1l2.26.26a14.63,14.63,0,0,0,6.27-1.13,17.5,17.5,0,0,1,6.87-1.27c3.18.23,3.91,1.76,4.55,3.11s1.23,2.6,4.56,3.81c5.66,2,15.9-3.69,21-7.41a69.82,69.82,0,0,0,6.17-5.94c2-2,4.16-4.25,6.2-6.18,4.29-4,11.2-6,15.34-7.19l1.68-.49c2.28-.72,4.71-2.57,7.52-4.71.83-.63,1.69-1.28,2.6-1.94,3.05-2.24,6.23-6.8,8.14-9.53.56-.81,1-1.45,1.36-1.9l.05-.06c1.65-2.14,2.1-2.59,8.16-7s14.38-6.35,17.9-7.17l.49-.12a31.42,31.42,0,0,1,5.91-.69c.94,0,1.84-.09,2.6-.2,2.09-.29,2.86-2.57,3.71-5.74a18.19,18.19,0,0,1,1.13-3.39,12.48,12.48,0,0,1,4.55-4.7l.22-.14a53,53,0,0,0,4.58-3.22,10.73,10.73,0,0,1,5-2c5.2-.89,10.52,0,15.66.82l.33.06c7.27,1.18,13,.82,18.7-1.19a55.13,55.13,0,0,0,16.14-9.54A88.5,88.5,0,0,0,283.47,55c8.4-10.5,11.88-23.06,14.4-35.06.15-.73.31-1.5.42-2.24a6.36,6.36,0,0,0-.08-2.74,2.08,2.08,0,0,0-1.16-1.4,4.77,4.77,0,0,0-3.65.45l-9.89,6.51L265.14,32.65l-10.3,6.8-3.56,2.38c-1.9,1.34-48.93,40.9-53.06,44.53-.53.47-.57.7-.57.7,0,.21.65.76,1,1.09,1,.92,2.39,2.17,2.32,4.13-.13,3.34-5.65,4.16-14.5,4.38l-1.23,0c-2,.1-4.47,1.7-7.55,3.72l-.68.45c-3.43,2.25-21.22,11.94-23.57,13.2,0,.16.09.35.13.49a6.24,6.24,0,0,1,.17.69c.42,2.42.39,7.06-4.32,11.51s-11.2,2.86-15.13,2c-.8-.18-1.48-.34-2-.4-2.07-.25-3.94.89-5.46,1.8l-.79.48a17.76,17.76,0,0,0-5.27,4.8,5.71,5.71,0,0,0-.77,3.19,16,16,0,0,1-.26,2.56c-.6,3-4.68,4.5-7.39,5.48l-1.14.43c-3.18,1.29-7,2.52-10.83,1.94-3.2-.48-4.86-2.51-6.32-4.3-1-1.27-1.94-2.38-3.26-2.8-2.07-.67-4-.06-6.34.64a23.62,23.62,0,0,1-4,1,21.71,21.71,0,0,1-5.24.13C74.43,143.6,73.59,143.54,72.4,143.54Z"/><path class="cls-5" d="M26.24,176.59a9.86,9.86,0,0,1-3.87-.76,8.17,8.17,0,0,1-5.1-7.88,8,8,0,0,1,1.32-3.7,11.77,11.77,0,0,1,4-3.69h0a22.94,22.94,0,0,1,4-1.85c5-1.83,10-4,14.88-6.12,1.92-.84,3.83-1.67,5.76-2.49l18.75-8a17.42,17.42,0,0,1,6.43-1.2c1.29,0,2.21.06,3,.12a19.79,19.79,0,0,0,4.72-.11,22.78,22.78,0,0,0,3.62-.9c2.48-.76,5-1.55,7.9-.63,2,.66,3.29,2.17,4.49,3.64,1.33,1.63,2.48,3,4.68,3.37,3.25.48,6.6-.63,9.46-1.78l1.23-.47c1.89-.69,5.4-2,5.71-3.53a13.09,13.09,0,0,0,.22-2.17,8.11,8.11,0,0,1,1.18-4.49,20.5,20.5,0,0,1,6.17-5.65l.74-.44c1.76-1.07,4.17-2.54,7.13-2.16a21.88,21.88,0,0,1,2.21.44c3.65.83,9.15,2.08,12.75-1.31,3.83-3.62,3.87-7.26,3.55-9.11a4.11,4.11,0,0,0-.11-.47c-.21-.69-.74-2.53,1-3.41,1.26-.65,20.14-10.94,23.57-13.19l.67-.44c3.42-2.25,6.12-4,8.87-4.15.31,0,.75,0,1.28,0,10.17-.26,11.75-1.41,12-1.89,0-.67-.57-1.26-1.47-2.07S195,88.38,195,87a3.62,3.62,0,0,1,1.46-2.63c2.67-2.34,51-43.13,53.28-44.7.32-.23,1.44-1,3.63-2.43l10.3-6.81,18.38-12.11,10.07-6.61a7.22,7.22,0,0,1,5.91-.57,4.63,4.63,0,0,1,2.65,3,9,9,0,0,1,.17,3.88c-.12.83-.29,1.63-.45,2.41-2.58,12.32-6.18,25.22-14.91,36.15a91.91,91.91,0,0,1-14,13.73,57.59,57.59,0,0,1-16.92,10c-6.1,2.16-12.27,2.56-20,1.3l-.34-.06c-4.92-.8-10-1.63-14.79-.82a7.9,7.9,0,0,0-3.75,1.44,56.4,56.4,0,0,1-4.8,3.38l-.23.14A9.75,9.75,0,0,0,207,89.41a17.44,17.44,0,0,0-.95,2.91c-.8,3-1.9,7.09-5.86,7.65-.88.13-1.84.17-2.85.22a29.33,29.33,0,0,0-5.43.63l-.49.11c-3.38.79-11.27,2.64-17,6.75-6,4.31-6.21,4.59-7.62,6.43l-.05.06c-.31.4-.77,1-1.29,1.8-2,2.86-5.34,7.64-8.74,10.13q-1.33,1-2.55,1.92c-3,2.29-5.61,4.27-8.32,5.12l-1.75.52c-3.91,1.11-10.44,3-14.26,6.58-2,1.88-4.2,4.13-6.13,6.1a70,70,0,0,1-6.51,6.23c-1.53,1.11-15.25,10.73-23.47,7.75-4.34-1.58-5.32-3.64-6-5.15-.53-1.12-.71-1.5-2.37-1.62a15.07,15.07,0,0,0-5.85,1.14,16.94,16.94,0,0,1-7.39,1.25l-2.28-.26c-5.55-.66-10.79-1.28-16.13.82-3.8,1.49-7.38,4.17-11.28,8.42-.83.91-1.64,1.89-2.43,2.85-2.36,2.88-4.81,5.86-8.46,7.58A12.61,12.61,0,0,1,26.24,176.59ZM72.4,143.54a15,15,0,0,0-5.38,1l-18.78,8q-2.88,1.22-5.74,2.48c-4.88,2.12-9.92,4.32-15,6.18a21,21,0,0,0-3.56,1.64h0a9.21,9.21,0,0,0-3.13,2.86,5.07,5.07,0,0,0,2.6,7.75,8.77,8.77,0,0,0,7.08-.44c3.12-1.47,5.27-4.09,7.55-6.87.81-1,1.64-2,2.52-3,4.18-4.56,8.07-7.44,12.25-9.09,6-2.34,11.51-1.68,17.4-1l2.26.26a14.63,14.63,0,0,0,6.27-1.13,17.5,17.5,0,0,1,6.87-1.27c3.18.23,3.91,1.76,4.55,3.11s1.23,2.6,4.56,3.81c5.66,2,15.9-3.69,21-7.41a69.82,69.82,0,0,0,6.17-5.94c2-2,4.16-4.25,6.2-6.18,4.29-4,11.2-6,15.34-7.19l1.68-.49c2.28-.72,4.71-2.57,7.52-4.71.83-.63,1.69-1.28,2.6-1.94,3.05-2.24,6.23-6.8,8.14-9.53.56-.81,1-1.45,1.36-1.9l.05-.06c1.65-2.14,2.1-2.59,8.16-7s14.38-6.35,17.9-7.17l.49-.12a31.42,31.42,0,0,1,5.91-.69c.94,0,1.84-.09,2.6-.2,2.09-.29,2.86-2.57,3.71-5.74a18.19,18.19,0,0,1,1.13-3.39,12.48,12.48,0,0,1,4.55-4.7l.22-.14a53,53,0,0,0,4.58-3.22,10.73,10.73,0,0,1,5-2c5.2-.89,10.52,0,15.66.82l.33.06c7.27,1.18,13,.82,18.7-1.19a55.13,55.13,0,0,0,16.14-9.54A88.5,88.5,0,0,0,283.47,55c8.4-10.5,11.88-23.06,14.4-35.06.15-.73.31-1.5.42-2.24a6.36,6.36,0,0,0-.08-2.74,2.08,2.08,0,0,0-1.16-1.4,4.77,4.77,0,0,0-3.65.45l-9.89,6.51L265.14,32.65l-10.3,6.8-3.56,2.38c-1.9,1.34-48.93,40.9-53.06,44.53-.53.47-.57.7-.57.7,0,.21.65.76,1,1.09,1,.92,2.39,2.17,2.32,4.13-.13,3.34-5.65,4.16-14.5,4.38l-1.23,0c-2,.1-4.47,1.7-7.55,3.72l-.68.45c-3.43,2.25-21.22,11.94-23.57,13.2,0,.16.09.35.13.49a6.24,6.24,0,0,1,.17.69c.42,2.42.39,7.06-4.32,11.51s-11.2,2.86-15.13,2c-.8-.18-1.48-.34-2-.4-2.07-.25-3.94.89-5.46,1.8l-.79.48a17.76,17.76,0,0,0-5.27,4.8,5.71,5.71,0,0,0-.77,3.19,16,16,0,0,1-.26,2.56c-.6,3-4.68,4.5-7.39,5.48l-1.14.43c-3.18,1.29-7,2.52-10.83,1.94-3.2-.48-4.86-2.51-6.32-4.3-1-1.27-1.94-2.38-3.26-2.8-2.07-.67-4-.06-6.34.64a23.62,23.62,0,0,1-4,1,21.71,21.71,0,0,1-5.24.13C74.43,143.6,73.59,143.54,72.4,143.54Z"/><path class="cls-6" d="M200.23,100l-.37-2.59c2.09-.29,2.86-2.57,3.71-5.74a18.19,18.19,0,0,1,1.13-3.39,12.48,12.48,0,0,1,4.55-4.7l.22-.14a53,53,0,0,0,4.58-3.22,10.73,10.73,0,0,1,5-2c5.2-.89,10.52,0,15.66.82l.33.06c7.27,1.18,13,.82,18.7-1.19a55.13,55.13,0,0,0,16.14-9.54A88.5,88.5,0,0,0,283.47,55c8.4-10.5,11.88-23.06,14.4-35.06.15-.73.31-1.5.42-2.24a6.36,6.36,0,0,0-.08-2.74,2.08,2.08,0,0,0-1.16-1.4,4.73,4.73,0,0,0-3.65.46l-9.89,6.5-1.43-2.19,10.07-6.61a7.22,7.22,0,0,1,5.91-.57,4.63,4.63,0,0,1,2.65,3,9,9,0,0,1,.17,3.88c-.12.83-.29,1.63-.45,2.41-2.58,12.32-6.18,25.22-14.91,36.15a91.91,91.91,0,0,1-14,13.73,57.59,57.59,0,0,1-16.92,10c-6.1,2.16-12.27,2.56-20,1.3l-.34-.06c-4.92-.8-10-1.63-14.79-.82a7.9,7.9,0,0,0-3.75,1.44,56.4,56.4,0,0,1-4.8,3.38l-.23.14A9.75,9.75,0,0,0,207,89.41a17.44,17.44,0,0,0-.95,2.91C205.29,95.31,204.19,99.41,200.23,100Z"/><path class="cls-7" d="M26.24,176.59a9.86,9.86,0,0,1-3.87-.76,8.17,8.17,0,0,1-5.1-7.88,8,8,0,0,1,1.32-3.7,11.77,11.77,0,0,1,4-3.69,22.94,22.94,0,0,1,4-1.85c5-1.83,10-4,14.88-6.12,1.92-.84,3.83-1.67,5.76-2.49l1,2.41q-2.88,1.22-5.74,2.48c-4.88,2.12-9.92,4.32-15,6.18a21,21,0,0,0-3.56,1.64,9.21,9.21,0,0,0-3.13,2.86,5.07,5.07,0,0,0,2.6,7.75,8.77,8.77,0,0,0,7.08-.44c3.12-1.47,5.27-4.09,7.55-6.87.81-1,1.64-2,2.52-3,4.18-4.56,8.07-7.44,12.25-9.09,6-2.34,11.51-1.68,17.4-1l2.26.26a14.63,14.63,0,0,0,6.27-1.13,17.5,17.5,0,0,1,6.87-1.27c3.18.23,3.91,1.76,4.55,3.11s1.23,2.6,4.56,3.81c2.66,1,10.09.49,21-7.41a69.82,69.82,0,0,0,6.17-5.94c2-2,4.16-4.25,6.2-6.18,4.29-4,11.2-6,15.34-7.19l1.68-.49c2.28-.72,4.71-2.57,7.52-4.71.83-.63,1.69-1.28,2.6-1.94l1.54,2.1q-1.33,1-2.55,1.92c-3,2.29-5.61,4.27-8.32,5.12l-1.75.52c-3.91,1.11-10.44,3-14.26,6.58-2,1.88-4.2,4.13-6.13,6.1a70,70,0,0,1-6.51,6.23c-1.53,1.11-15.25,10.73-23.47,7.75-4.34-1.58-5.32-3.64-6-5.15-.53-1.12-.71-1.5-2.37-1.62a15.07,15.07,0,0,0-5.85,1.14,16.94,16.94,0,0,1-7.39,1.25l-2.28-.26c-5.55-.66-10.79-1.28-16.13.82-3.8,1.49-7.38,4.17-11.28,8.42-.83.91-1.64,1.89-2.43,2.85-2.36,2.88-4.81,5.86-8.46,7.58A12.61,12.61,0,0,1,26.24,176.59Z"/><path class="cls-4" d="M242.7,82.37a50.71,50.71,0,0,1-8.12-.71l.42-2.58c7.27,1.18,13,.82,18.7-1.19a55.13,55.13,0,0,0,16.14-9.54A88.5,88.5,0,0,0,283.47,55c8.4-10.5,11.88-23.06,14.4-35.06l2.56.54c-2.58,12.32-6.18,25.22-14.91,36.15a91.91,91.91,0,0,1-14,13.73,57.59,57.59,0,0,1-16.92,10A34.78,34.78,0,0,1,242.7,82.37Z"/><path class="cls-4" d="M156.79,126.1l-1.54-2.1c3.05-2.24,6.23-6.8,8.14-9.53.56-.81,1-1.45,1.36-1.9l.05-.06c1.65-2.14,2.1-2.59,8.16-7s14.38-6.35,17.9-7.17l.49-.12.6,2.55-.49.11c-3.38.79-11.27,2.64-17,6.75-6,4.31-6.21,4.59-7.62,6.43l-.05.06c-.31.4-.77,1-1.29,1.8C163.54,118.83,160.19,123.61,156.79,126.1Z"/><path class="cls-4" d="M198.22,86.36l-1.73-2c2.67-2.34,51-43.13,53.28-44.7.32-.23,1.44-1,3.63-2.43l10.3-6.81,18.38-12.11,1.43,2.19L265.14,32.65l-10.3,6.8-3.56,2.38C249.38,43.17,202.35,82.73,198.22,86.36Z"/><g id="Group-Copy-7"><circle id="Oval-Copy-2" class="cls-8" cx="293" cy="41.38" r="5.48"/><circle id="Oval-Copy-2-2" data-name="Oval-Copy-2" class="cls-9" cx="293" cy="41.38" r="5.48"/><circle id="Oval" class="cls-10" cx="293" cy="41.38" r="3.65"/><path class="cls-11" d="M293,45.43a4,4,0,1,1,4.05-4A4.05,4.05,0,0,1,293,45.43Zm0-7.31a3.26,3.26,0,1,0,3.26,3.26A3.27,3.27,0,0,0,293,38.12Z"/><circle id="Oval-Copy" class="cls-11" cx="293" cy="41.38" r="1.83"/></g><g id="Group-6"><rect id="Rectangle-2" x="253.12" y="36.15" width="1.37" height="1.37" transform="translate(27.55 157.59) rotate(-36.35)"/><rect id="Rectangle-2-Copy-4" class="cls-10" x="252.02" y="36.96" width="1.37" height="1.37" transform="translate(26.86 157.1) rotate(-36.35)"/><rect id="Rectangle-2-Copy-7" x="250.91" y="37.77" width="1.37" height="1.37" transform="translate(26.16 156.6) rotate(-36.35)"/><rect id="Rectangle-2-Copy" class="cls-10" x="253.93" y="37.25" width="1.37" height="1.37" transform="translate(27.06 158.29) rotate(-36.35)"/><rect id="Rectangle-2-Copy-5" x="252.83" y="38.06" width="1.37" height="1.37" transform="translate(26.36 157.79) rotate(-36.35)"/><rect id="Rectangle-2-Copy-9" class="cls-10" x="251.72" y="38.87" width="1.37" height="1.37" transform="translate(25.67 157.3) rotate(-36.35)"/><rect id="Rectangle-2-Copy-3" x="254.74" y="38.35" width="1.37" height="1.37" transform="translate(26.56 158.98) rotate(-36.35)"/><rect id="Rectangle-2-Copy-6" class="cls-10" x="253.64" y="39.16" width="1.37" height="1.37" transform="translate(25.86 158.49) rotate(-36.35)"/><rect id="Rectangle-2-Copy-10" x="252.54" y="39.98" width="1.37" height="1.37" transform="translate(25.17 157.99) rotate(-36.35)"/></g><g id="Group-Copy-8"><circle id="Oval-Copy-2-3" data-name="Oval-Copy-2" class="cls-8" cx="104.3" cy="158.29" r="5.48"/><circle id="Oval-Copy-2-4" data-name="Oval-Copy-2" class="cls-12" cx="104.3" cy="158.29" r="5.48"/><circle id="Oval-2" data-name="Oval" class="cls-10" cx="104.3" cy="158.29" r="3.65"/><path class="cls-4" d="M104.3,162.33a4,4,0,1,1,4-4A4,4,0,0,1,104.3,162.33Zm0-7.3a3.26,3.26,0,1,0,3.26,3.26A3.27,3.27,0,0,0,104.3,155Z"/><circle id="Oval-Copy-2-5" data-name="Oval-Copy" class="cls-4" cx="104.3" cy="158.29" r="1.83"/></g><g id="Group-Copy-8-2" data-name="Group-Copy-8"><circle id="Oval-Copy-2-6" data-name="Oval-Copy-2" class="cls-8" cx="193.24" cy="99.49" r="5.48"/><circle id="Oval-Copy-2-7" data-name="Oval-Copy-2" class="cls-12" cx="193.24" cy="99.49" r="5.48"/><circle id="Oval-3" data-name="Oval" class="cls-10" cx="193.24" cy="99.49" r="3.65"/><path class="cls-4" d="M193.24,103.53a4,4,0,1,1,4-4A4,4,0,0,1,193.24,103.53Zm0-7.3a3.26,3.26,0,1,0,3.26,3.26A3.27,3.27,0,0,0,193.24,96.23Z"/><circle id="Oval-Copy-3" data-name="Oval-Copy" class="cls-4" cx="193.24" cy="99.49" r="1.83"/></g><g id="Group-Copy-8-3" data-name="Group-Copy-8"><circle id="Oval-Copy-2-8" data-name="Oval-Copy-2" class="cls-8" cx="298.48" cy="23.27" r="5.48"/><circle id="Oval-Copy-2-9" data-name="Oval-Copy-2" class="cls-12" cx="298.48" cy="23.27" r="5.48"/><circle id="Oval-4" data-name="Oval" class="cls-10" cx="298.48" cy="23.27" r="3.65"/><path class="cls-4" d="M298.48,27.32a4,4,0,1,1,4-4.05A4.05,4.05,0,0,1,298.48,27.32Zm0-7.31a3.26,3.26,0,1,0,3.26,3.26A3.26,3.26,0,0,0,298.48,20Z"/><circle id="Oval-Copy-4" data-name="Oval-Copy" class="cls-4" cx="298.48" cy="23.27" r="1.83"/></g></g></svg>