<?xml version="1.0" encoding="UTF-8"?>
<svg width="160px" height="96px" viewBox="0 0 160 96" version="1.1" xmlns="http://www.w3.org/2000/svg" xmlns:xlink="http://www.w3.org/1999/xlink">
    <!-- Generator: Sketch 58 (84663) - https://sketch.com -->
    <title>circuit-gs-Bahrain-L-Eng</title>
    <desc>Created with Sketch.</desc>
    <defs>
        <linearGradient x1="21.45567%" y1="22.8969913%" x2="21.4556694%" y2="132.45958%" id="linearGradient-1">
            <stop stop-color="#1B94E2" offset="0%"></stop>
            <stop stop-color="#40D8AB" offset="100%"></stop>
        </linearGradient>
    </defs>
    <g id="circuit-gs-Bahrain-L-Eng" stroke="none" stroke-width="1" fill="none" fill-rule="evenodd">
        <g id="Group" transform="translate(12.373333, 5.546667)">
            <g id="Bahrain-Circuit">
                <g id="Group-2">
                    <path d="M31.3664593,83.5156937 L30.926874,82.784296 C32.393284,81.9029531 33.4566352,81.3396333 34.133159,81.0892817 C35.2373096,80.6806844 35.9542006,80.5264673 36.7324764,80.5264673 C37.5905569,80.5285644 38.2666265,80.5516483 39.5321918,80.6099398 C42.1907368,80.7323913 43.1205829,80.7323913 44.0461177,80.5357803 C46.0507317,80.1099408 47.9535806,79.890437 50.0154691,79.890437 L61.7691602,79.890437 C74.0057858,79.890437 74.0057858,79.890437 92.5911344,79.8905803 C94.6601944,79.8369419 96.0506207,79.9878723 96.8059825,80.3721371 C97.0419872,80.4921965 97.2456813,80.5761372 97.4451424,80.6359178 C97.9135595,80.7763075 98.2650216,80.7971338 99.656683,80.7943426 C99.8369025,80.7939812 99.9363364,80.7938392 100.054783,80.7938409 C100.34579,80.7946598 100.581726,80.7923593 101.159727,80.7845375 C101.356925,80.7818689 101.456799,80.7805745 101.572982,80.7792507 C103.454921,80.7578066 104.405799,80.818476 105.040585,81.0960458 C105.765956,81.4006814 106.724473,81.8731694 107.919196,82.514438 L107.515629,83.2663097 C106.342691,82.6367345 105.406515,82.1752592 104.704462,81.8803675 C104.225593,81.6710121 103.31336,81.6128083 101.582705,81.6325286 C101.467316,81.6338434 101.367883,81.6351321 101.171274,81.6377927 C100.588422,81.6456801 100.349724,81.6480076 100.053582,81.6471725 C99.937064,81.6471725 99.8380752,81.6473139 99.6583945,81.6476743 C98.1739538,81.6506515 97.7808057,81.6273551 97.2001557,81.453328 C96.9487722,81.3779856 96.6983589,81.2747923 96.419066,81.1327115 C95.8295118,80.8327957 94.546383,80.6935124 92.6021916,80.7437704 L50.0154691,80.7437704 C48.0163461,80.7437704 46.1722996,80.956491 44.2234344,81.3704877 C43.1948971,81.5889796 42.2417629,81.5889796 39.4929292,81.4623694 C38.2392273,81.4046244 37.5723336,81.3818538 36.8144447,81.3799065 C36.0669295,81.3798007 35.4458085,81.5134157 34.4293126,81.8895759 C33.8163176,82.1164183 32.7899562,82.6601425 31.3664593,83.5156937 Z" id="Path-4" fill="#E6E6E6" fill-rule="nonzero"></path>
                    <path d="M15.4435152,55.9874335 C15.1529007,57.9628457 15.3151833,59.551587 15.8967431,60.7723795 C16.8007504,63.9554919 17.460717,65.9901893 17.9344812,67.0438593 C18.9404971,69.2812774 19.0119791,72.7742904 17.7405567,74.2635727 C17.1533589,74.9513876 16.1118358,75.8132421 12.6248883,78.5926394 C10.9071353,79.9618894 10.0752494,80.6338865 9.30537422,81.2840544 C8.53614727,81.9336749 8.42044907,82.3605326 8.610439,82.6843904 C8.84547175,83.0850285 9.52447693,83.4181867 10.2924888,83.4181867 C10.3400651,83.4181867 20.7637073,83.4880526 27.3606222,83.5224441 C57.347919,83.6787757 88.2527752,83.6787757 118.191466,83.4182351 C120.495235,83.4181867 121.452747,82.7798611 124.299922,79.4934215 C125.682881,77.7156623 125.748052,77.319236 124.85856,75.3310862 C118.889564,63.6815137 113.677385,53.4314067 108.103739,42.4066794 C107.805977,41.8177039 99.294008,24.9540203 97.3206563,21.0693567 C96.622906,20.1120807 95.967246,19.2557863 95.2859613,18.4087581 C95.0297141,18.090171 94.7676555,17.7701523 94.4932036,17.4403884 C93.7529148,16.5509044 93.1951083,15.905095 91.5484205,14.0186217 C88.8230359,10.2510443 87.2013104,10.1996953 84.5933393,12.9892496 C83.8545561,14.2941111 82.9729723,16.1621138 81.8073403,18.846549 C81.138348,20.3872295 78.6806021,26.2141316 78.3895391,26.8954634 C78.2174076,27.2983953 78.0518599,27.684073 77.890516,28.0578941 C76.5839977,31.7174507 76.8117167,34.1593086 78.3315348,36.0144974 C79.6569092,37.6323356 81.8463263,38.8484872 86.0281673,40.4854601 C86.3847731,40.6250527 90.1121466,42.044721 91.3180058,42.5274301 C91.5223095,42.5974278 92.2236769,42.8322336 92.4259719,42.9014735 C92.9717285,43.0882708 93.4524202,43.2626907 93.9420997,43.4555467 C95.2519732,43.9714288 96.4591105,44.5569976 97.6075822,45.2709763 C101.635739,47.7751895 104.292224,51.4595409 104.993628,56.6683394 C105.407879,63.676038 102.765493,67.3432742 97.2790335,66.9434828 C58.070803,66.9431272 36.48713,66.5060698 32.0441984,65.6000936 C28.9999262,65.2567846 27.4791311,63.9120026 28.0592364,61.714301 C28.3845505,60.4818639 28.9551718,59.7051672 31.1715398,57.0691614 C31.4279185,56.764241 31.6124241,56.5428545 31.790414,56.3256109 C31.8721149,56.2258919 31.9497811,56.1302342 32.0243381,56.0374404 C33.9188116,54.4410217 35.5884135,53.7047827 37.4505953,53.4522142 C38.5883603,53.2978987 39.3959696,53.3114557 41.4926635,53.4436761 C41.9952462,53.4753696 42.2842754,53.492177 42.6032356,53.5069547 C43.5022267,53.5486058 44.9086185,53.7184771 47.1305587,54.0388096 C48.2874814,54.2056008 52.9627489,54.9094078 53.7796143,55.029849 C54.9726867,55.2057595 56.0370192,55.3585251 57.0511685,55.4985106 C60.6730397,55.9984462 63.5628114,56.3210851 65.8886131,56.4604612 C68.224184,56.4463008 69.1284536,55.0646965 68.4244022,54.5112829 C66.5860116,53.3056256 64.5118228,51.8679347 60.7214639,49.1965392 C60.355587,48.9386468 60.082974,48.7464363 59.5799968,48.391799 C59.1753624,48.1065231 58.8740448,47.8941738 58.5806311,47.6875498 C57.8300461,47.1589825 57.211453,46.7244914 56.604257,46.2991661 C56.8671229,46.4942262 52.3424099,43.2764998 51.4443678,42.4793435 C48.5816409,39.9382145 48.2210807,37.24387 50.3011676,32.449973 C51.1442084,29.7554654 51.1156292,27.8211522 50.4230365,26.4298991 C49.8818785,25.342842 48.9357875,24.5531742 47.4414796,23.8106994 C46.929481,23.5563034 45.1989541,22.805031 45.0630038,22.7417463 C43.599691,22.0857674 41.7612094,20.7667464 39.974202,19.1864654 C38.6127814,17.9825381 36.8977504,15.9606561 33.074427,11.2145882 C32.848275,10.9338174 32.8354961,10.9179516 32.7189446,10.7732332 C29.1326381,7.10517775 27.0816424,5.37527889 25.0068132,4.45225878 C24.0732489,4.03694816 23.6463861,4.27926226 23.1981798,5.74564706 C18.3538805,37.0281919 15.7674954,53.7852221 15.4435152,55.9874335 Z M27.3472764,86.0824093 C20.7417026,86.0479727 10.3299853,85.9781867 10.2924888,85.9781867 C8.67064566,85.9781867 7.13177797,85.2231314 6.40235547,83.9797541 C5.52402483,82.4825473 6.00062084,80.7241906 7.65363559,79.3282018 C8.44872182,78.6567429 9.29162674,77.9758447 10.9935471,76.6192145 C14.2233395,74.0447915 15.3746692,73.0920726 15.7935657,72.6013976 C16.2939483,72.0152738 16.242976,69.5244807 15.5996412,68.0936792 C15.0636685,66.9016553 14.3823386,64.8062058 13.5364019,61.7680836 C12.7565807,60.065808 12.5585773,58.008854 12.9107766,55.6148275 C13.2365986,53.400097 15.8254948,36.6268943 20.6819688,5.26583309 C21.5830462,2.19369442 23.5445872,0.999873881 26.0473501,2.11326695 C28.5255404,3.21572852 30.755943,5.10051582 34.5928955,9.02803587 C34.8280045,9.31062021 34.8280045,9.31062021 34.9818567,9.50163832 C38.759388,14.1908691 40.4698864,16.2074075 41.6700701,17.2687503 C43.2780474,18.6907119 44.9291601,19.8753048 45.9802537,20.3435773 C46.224285,20.4585483 47.9971067,21.2281821 48.5805997,21.5181015 C52.9588321,23.6935079 54.6699505,27.1307356 52.7221502,33.2850179 C50.9766969,37.2996354 51.1733268,38.8156752 53.1438249,40.5648082 C53.9207634,41.2544656 58.2700732,44.3474549 58.1006723,44.2223767 C58.6812919,44.6284993 59.3019765,45.0644594 60.0545988,45.5944613 C60.3484621,45.8014019 60.6501217,46.0139923 61.055103,46.2995128 C61.5582,46.6542345 61.8306483,46.8463289 62.062481,47.0097425 C65.9861272,49.7750834 68.0481418,51.2040565 69.8624071,52.3929246 C71.3451505,53.4771665 71.5936582,55.2963391 70.6399001,56.7798303 C69.743999,58.1733298 67.9849584,59.0205709 65.8523699,59.0205709 C63.3640264,58.8755089 60.4039131,58.5455707 56.7011245,58.0344659 C55.6784229,57.8932999 54.6065303,57.7394491 53.4061969,57.5624681 C52.5821484,57.4409678 47.912662,56.738031 46.7652654,56.5726133 C44.6274621,56.2644106 43.2719259,56.1006818 42.4847558,56.0642116 C42.147778,56.0485991 41.8474679,56.0311357 41.3315465,55.998601 C39.4094648,55.8773919 38.704682,55.865561 37.794659,55.9889878 C36.4412316,56.1725537 35.2418456,56.6913483 33.9347849,57.7465188 C33.5844245,58.1753321 33.3937407,58.4041317 33.1309668,58.7166582 C31.2699064,60.930084 30.7142975,61.6863467 30.5344579,62.3676604 C30.7534194,62.7540462 31.3630419,62.9523909 32.3819094,63.0618137 C36.5270387,63.9389571 58.29587,64.3834831 97.3269454,64.3834831 C101.155863,64.6751667 102.762942,62.4745304 102.450065,56.9625087 C101.848213,52.5879941 99.6584527,49.5603299 96.2559837,47.4450926 C95.2503818,46.8199328 94.1791983,46.3003136 93.0039994,45.8374719 C92.5544408,45.6604172 92.1087612,45.4987015 91.5969696,45.3235295 C91.3972145,45.2551589 90.6259655,44.9970411 90.4520576,44.9367651 C89.2473713,44.4548394 85.4742468,43.0177776 85.0950082,42.8693255 C80.5172398,41.0773676 78.0446271,39.7039099 76.3512175,37.6368239 C74.2006205,35.0116654 73.8908376,31.6218035 75.4944792,27.1554742 C75.6891395,26.6982521 75.8587113,26.3032653 76.0353581,25.8897637 C76.3217162,25.2194455 78.7837486,19.3823805 79.459157,17.8269239 C80.698193,14.9734403 81.6311754,13.0039147 82.445071,11.5887097 L82.6129693,11.3598825 C86.3194474,7.33391539 89.8534734,7.33555241 93.5153945,12.3791057 C95.1466035,14.2479534 95.7087693,14.8990647 96.4608808,15.802754 C96.7442569,16.1432406 97.0153428,16.4742832 97.2807714,16.8042854 C98.0076077,17.707947 98.7064201,18.6218948 99.4508699,19.6458527 C101.441114,23.5265379 110.089799,40.6610882 110.38837,41.2516644 C115.964801,52.2819007 121.179059,62.536041 127.152167,74.1935068 C128.495741,77.1844264 128.266762,78.567618 126.299046,81.0928754 C122.95325,84.9602319 121.438715,85.9769941 118.208294,85.9781856 C88.2576419,86.2387976 57.343638,86.2387882 27.3472764,86.0824093 Z" id="Path-2" fill="#EBEBEB" fill-rule="nonzero"></path>
                    <path d="M15.4435152,54.7074335 C15.1529007,56.6828457 15.3151833,58.271587 15.8967431,59.4923795 C16.8007504,62.6754919 17.460717,64.7101893 17.9344812,65.7638593 C18.9404971,68.0012774 19.0119791,71.4942904 17.7405567,72.9835727 C17.1533589,73.6713876 16.1118358,74.5332421 12.6248883,77.3126394 C10.9071353,78.6818894 10.0752494,79.3538865 9.30537422,80.0040544 C8.53614727,80.6536749 8.42044907,81.0805326 8.610439,81.4043904 C8.84547175,81.8050285 9.52447693,82.1381867 10.2924888,82.1381867 C10.3400651,82.1381867 20.7637073,82.2080526 27.3606222,82.2424441 C57.347919,82.3987757 88.2527752,82.3987757 118.191466,82.1382351 C120.495235,82.1381867 121.452747,81.4998611 124.299922,78.2134215 C125.682881,76.4356623 125.748052,76.039236 124.85856,74.0510862 C118.889564,62.4015137 113.677385,52.1514067 108.103739,41.1266794 C107.805977,40.5377039 99.294008,23.6740203 97.3206563,19.7893567 C96.622906,18.8320807 95.967246,17.9757863 95.2859613,17.1287581 C95.0297141,16.810171 94.7676555,16.4901523 94.4932036,16.1603884 C93.7529148,15.2709044 93.1951083,14.625095 91.5484205,12.7386217 C88.8230359,8.97104427 87.2013104,8.91969532 84.5933393,11.7092496 C83.8545561,13.0141111 82.9729723,14.8821138 81.8073403,17.566549 C81.138348,19.1072295 78.6806021,24.9341316 78.3895391,25.6154634 C78.2174076,26.0183953 78.0518599,26.404073 77.890516,26.7778941 C76.5839977,30.4374507 76.8117167,32.8793086 78.3315348,34.7344974 C79.6569092,36.3523356 81.8463263,37.5684872 86.0281673,39.2054601 C86.3847731,39.3450527 90.1121466,40.764721 91.3180058,41.2474301 C91.5223095,41.3174278 92.2236769,41.5522336 92.4259719,41.6214735 C92.9717285,41.8082708 93.4524202,41.9826907 93.9420997,42.1755467 C95.2519732,42.6914288 96.4591105,43.2769976 97.6075822,43.9909763 C101.635739,46.4951895 104.292224,50.1795409 104.993628,55.3883394 C105.407879,62.396038 102.765493,66.0632742 97.2790335,65.6634828 C58.070803,65.6631272 36.48713,65.2260698 32.0441984,64.3200936 C28.9999262,63.9767846 27.4791311,62.6320026 28.0592364,60.434301 C28.3845505,59.2018639 28.9551718,58.4251672 31.1715398,55.7891614 C31.4279185,55.484241 31.6124241,55.2628545 31.790414,55.0456109 C31.8721149,54.9458919 31.9497811,54.8502342 32.0243381,54.7574404 C33.9188116,53.1610217 35.5884135,52.4247827 37.4505953,52.1722142 C38.5883603,52.0178987 39.3959696,52.0314557 41.4926635,52.1636761 C41.9952462,52.1953696 42.2842754,52.212177 42.6032356,52.2269547 C43.5022267,52.2686058 44.9086185,52.4384771 47.1305587,52.7588096 C48.2874814,52.9256008 52.9627489,53.6294078 53.7796143,53.749849 C54.9726867,53.9257595 56.0370192,54.0785251 57.0511685,54.2185106 C60.6730397,54.7184462 63.5628114,55.0410851 65.8886131,55.1804612 C68.224184,55.1663008 69.1284536,53.7846965 68.4244022,53.2312829 C66.5860116,52.0256256 64.5118228,50.5879347 60.7214639,47.9165392 C60.355587,47.6586468 60.082974,47.4664363 59.5799968,47.111799 C59.1753624,46.8265231 58.8740448,46.6141738 58.5806311,46.4075498 C57.8300461,45.8789825 57.211453,45.4444914 56.604257,45.0191661 C56.8671229,45.2142262 52.3424099,41.9964998 51.4443678,41.1993435 C48.5816409,38.6582145 48.2210807,35.96387 50.3011676,31.169973 C51.1442084,28.4754654 51.1156292,26.5411522 50.4230365,25.1498991 C49.8818785,24.062842 48.9357875,23.2731742 47.4414796,22.5306994 C46.929481,22.2763034 45.1989541,21.525031 45.0630038,21.4617463 C43.599691,20.8057674 41.7612094,19.4867464 39.974202,17.9064654 C38.6127814,16.7025381 36.8977504,14.6806561 33.074427,9.93458825 C32.848275,9.65381743 32.8354961,9.6379516 32.7189446,9.49323316 C29.1326381,5.82517775 27.0816424,4.09527889 25.0068132,3.17225878 C24.0732489,2.75694816 23.6463861,2.99926226 23.1981798,4.46564706 C18.3538805,35.7481919 15.7674954,52.5052221 15.4435152,54.7074335 Z M27.3472764,84.8024093 C20.7417026,84.7679727 10.3299853,84.6981867 10.2924888,84.6981867 C8.67064566,84.6981867 7.13177797,83.9431314 6.40235547,82.6997541 C5.52402483,81.2025473 6.00062084,79.4441906 7.65363559,78.0482018 C8.44872182,77.3767429 9.29162674,76.6958447 10.9935471,75.3392145 C14.2233395,72.7647915 15.3746692,71.8120726 15.7935657,71.3213976 C16.2939483,70.7352738 16.242976,68.2444807 15.5996412,66.8136792 C15.0636685,65.6216553 14.3823386,63.5262058 13.5364019,60.4880836 C12.7565807,58.785808 12.5585773,56.728854 12.9107766,54.3348275 C13.2365986,52.120097 15.8254948,35.3468943 20.6819688,3.98583309 C21.5830462,0.913694424 23.5445872,-0.280126119 26.0473501,0.833266946 C28.5255404,1.93572852 30.755943,3.82051582 34.5928955,7.74803587 C34.8280045,8.03062021 34.8280045,8.03062021 34.9818567,8.22163832 C38.759388,12.9108691 40.4698864,14.9274075 41.6700701,15.9887503 C43.2780474,17.4107119 44.9291601,18.5953048 45.9802537,19.0635773 C46.224285,19.1785483 47.9971067,19.9481821 48.5805997,20.2381015 C52.9588321,22.4135079 54.6699505,25.8507356 52.7221502,32.0050179 C50.9766969,36.0196354 51.1733268,37.5356752 53.1438249,39.2848082 C53.9207634,39.9744656 58.2700732,43.0674549 58.1006723,42.9423767 C58.6812919,43.3484993 59.3019765,43.7844594 60.0545988,44.3144613 C60.3484621,44.5214019 60.6501217,44.7339923 61.055103,45.0195128 C61.5582,45.3742345 61.8306483,45.5663289 62.062481,45.7297425 C65.9861272,48.4950834 68.0481418,49.9240565 69.8624071,51.1129246 C71.3451505,52.1971665 71.5936582,54.0163391 70.6399001,55.4998303 C69.743999,56.8933298 67.9849584,57.7405709 65.8523699,57.7405709 C63.3640264,57.5955089 60.4039131,57.2655707 56.7011245,56.7544659 C55.6784229,56.6132999 54.6065303,56.4594491 53.4061969,56.2824681 C52.5821484,56.1609678 47.912662,55.458031 46.7652654,55.2926133 C44.6274621,54.9844106 43.2719259,54.8206818 42.4847558,54.7842116 C42.147778,54.7685991 41.8474679,54.7511357 41.3315465,54.718601 C39.4094648,54.5973919 38.704682,54.585561 37.794659,54.7089878 C36.4412316,54.8925537 35.2418456,55.4113483 33.9347849,56.4665188 C33.5844245,56.8953321 33.3937407,57.1241317 33.1309668,57.4366582 C31.2699064,59.650084 30.7142975,60.4063467 30.5344579,61.0876604 C30.7534194,61.4740462 31.3630419,61.6723909 32.3819094,61.7818137 C36.5270387,62.6589571 58.29587,63.1034831 97.3269454,63.1034831 C101.155863,63.3951667 102.762942,61.1945304 102.450065,55.6825087 C101.848213,51.3079941 99.6584527,48.2803299 96.2559837,46.1650926 C95.2503818,45.5399328 94.1791983,45.0203136 93.0039994,44.5574719 C92.5544408,44.3804172 92.1087612,44.2187015 91.5969696,44.0435295 C91.3972145,43.9751589 90.6259655,43.7170411 90.4520576,43.6567651 C89.2473713,43.1748394 85.4742468,41.7377776 85.0950082,41.5893255 C80.5172398,39.7973676 78.0446271,38.4239099 76.3512175,36.3568239 C74.2006205,33.7316654 73.8908376,30.3418035 75.4944792,25.8754742 C75.6891395,25.4182521 75.8587113,25.0232653 76.0353581,24.6097637 C76.3217162,23.9394455 78.7837486,18.1023805 79.459157,16.5469239 C80.698193,13.6934403 81.6311754,11.7239147 82.445071,10.3087097 L82.6129693,10.0798825 C86.3194474,6.05391539 89.8534734,6.05555241 93.5153945,11.0991057 C95.1466035,12.9679534 95.7087693,13.6190647 96.4608808,14.522754 C96.7442569,14.8632406 97.0153428,15.1942832 97.2807714,15.5242854 C98.0076077,16.427947 98.7064201,17.3418948 99.4508699,18.3658527 C101.441114,22.2465379 110.089799,39.3810882 110.38837,39.9716644 C115.964801,51.0019007 121.179059,61.256041 127.152167,72.9135068 C128.495741,75.9044264 128.266762,77.287618 126.299046,79.8128754 C122.95325,83.6802319 121.438715,84.6969941 118.208294,84.6981856 C88.2576419,84.9587976 57.343638,84.9587882 27.3472764,84.8024093 Z" id="Path-2" fill="#F2F2F2" fill-rule="nonzero"></path>
                    <path d="M14.8103305,54.614282 C14.5024968,56.7067399 14.6776414,58.4214008 15.3189546,59.7676258 C16.192318,62.8763783 16.8599504,64.9347098 17.3507712,66.0263142 C18.2661168,68.0620782 18.3324714,71.3045363 17.2538089,72.5680289 C16.7086865,73.2065588 15.6397117,74.0911295 12.2259734,76.8121727 C10.5032582,78.1853782 9.6686175,78.8596006 8.89243956,79.5150913 C7.90226566,80.3513038 7.69634301,81.1110363 8.05841812,81.7282314 C8.4170483,82.3395542 9.31101912,82.7781867 10.2924888,82.7781867 C10.3375451,82.7781867 20.7582061,82.8480326 27.3572858,82.8824354 C57.3473035,83.0387812 88.2549292,83.0387812 118.197035,82.7782109 C120.735026,82.7781867 121.831028,82.0430798 124.784544,78.6327545 C126.333603,76.6447783 126.438709,76.0098703 125.443415,73.7890452 C119.468605,62.1282561 114.252803,51.8710811 108.674897,40.8379257 C108.376349,40.2473951 99.7975025,23.2512125 97.8680774,19.4538781 C97.1530818,18.4716765 96.4821671,17.5948323 95.7846638,16.72764 C95.5261213,16.4061991 95.2618059,16.0834244 94.9851229,15.7509798 C94.2404118,14.8561824 93.6807926,14.2082742 92.0305729,12.3177547 C89.0779638,8.23059804 86.9772129,8.19969812 84.0739058,11.3279596 C83.3130427,12.6611942 82.4137807,14.5630595 81.2202945,17.3116427 C80.5496982,18.8560173 78.0908806,24.6854601 77.8009938,25.3640384 C77.6234097,25.7797342 77.4528685,26.1769792 77.3015287,26.5242977 C75.9095589,30.4010963 76.1550721,33.0876731 77.8364555,35.140079 C79.2538387,36.8702292 81.5140547,38.1257073 85.7948775,39.8014265 C86.1594002,39.9441181 89.9433502,41.3853029 91.0808275,41.8426405 C91.2427734,41.8987704 92.0092092,42.1552773 92.2187213,42.2269875 C92.7559867,42.4108784 93.2279253,42.5821223 93.7075746,42.771028 C94.9837794,43.27365 96.1569283,43.8427314 97.2696825,44.5345054 C101.144491,46.9433853 103.685174,50.4671269 104.359352,55.4737492 C104.749291,62.0975384 102.361485,65.4024632 97.3026507,65.023483 C58.083204,65.0233014 36.4450741,64.5833212 32.1444012,63.6873039 C29.4170662,63.3871341 28.2195477,62.3346243 28.6780418,60.5976408 C28.9669873,59.5029846 29.5338554,58.7313964 31.6613965,56.2010356 C31.9193741,55.8942136 32.1054242,55.6709739 32.2854727,55.4512178 C32.368423,55.3499738 32.4473673,55.2527419 32.5232487,55.1582998 C34.2345781,53.7301511 35.7931457,53.0428745 37.5366112,52.8064076 C38.6174407,52.6598142 39.3993434,52.6729398 41.4523843,52.8024073 C41.9583016,52.8343111 42.2501511,52.8512826 42.5736157,52.8662689 C43.4446515,52.9066248 44.8383294,53.0749605 47.0392354,53.3922605 C48.1937765,53.5587083 52.8675988,54.2622978 53.68626,54.3830038 C54.8811476,54.5591819 55.9473701,54.7122188 56.9636575,54.8524994 C60.6211168,55.3573473 63.537606,55.6824231 65.8523699,55.8205709 C68.7633993,55.8205709 70.1334496,53.6895719 68.8100657,52.7188442 C66.971187,51.5138471 64.8983936,50.0774043 61.0901586,47.3934099 C60.7243523,47.1355673 60.4517805,46.9433858 59.9487734,46.5887275 C59.5440522,46.3033904 59.2426492,46.0909808 58.949123,45.8842777 C58.1980287,45.3553517 57.5789127,44.9204934 56.9856374,44.5052119 C57.2178605,44.6775334 52.7369983,41.4909913 51.8692321,40.7207097 C49.2261215,38.3745254 48.9090703,35.97095 50.9016644,31.393927 C52.5329691,26.2135897 51.290348,23.7284337 47.7262596,21.95755 C47.1963874,21.694273 45.4552868,20.9384104 45.333094,20.8815297 C43.9320583,20.2531518 42.1404189,18.9677378 40.398169,17.4270366 C39.0770577,16.2587554 37.3631598,14.2382093 33.5728242,9.53309084 C33.3393638,9.24324612 33.3329517,9.23528506 33.1981041,9.06784889 C29.5424906,5.3274082 27.4445456,3.55624933 25.2669474,2.58751082 C23.9381589,1.99637854 23.130902,2.47749427 22.5726017,4.32325539 C17.7230218,35.6398488 15.1348485,52.4084153 14.8103305,54.614282 Z M27.3506129,84.162418 C20.7472038,84.1279927 10.3325053,84.0581867 10.2924888,84.0581867 C8.88410348,84.0581867 7.56020142,83.4086057 6.95437635,82.3759132 C6.24813089,81.1720436 6.63450245,79.7465617 8.06657025,78.537165 C8.85535371,77.8710288 9.69550389,77.1923558 11.3924716,75.8396735 C14.6954635,73.2069041 15.8193416,72.2769013 16.2803135,71.7369414 C16.973456,70.9250279 16.9173563,68.1836799 16.1833512,66.5512242 C15.6614182,65.390425 14.9832565,63.3021946 14.1390833,60.2665868 C13.3983102,58.6787912 13.2053611,56.7295676 13.5439612,54.427979 C13.8693987,52.2158619 16.4588045,35.439358 21.3144303,4.08377406 C22.0950605,1.43733261 23.6725293,0.477263642 25.7872159,1.41801491 C28.1666243,2.47653182 30.3541862,4.32511687 34.1350996,8.19527511 C34.3295563,8.43205433 34.3295563,8.43205433 34.483436,8.62310661 C38.2939786,13.3533158 40.0056102,15.3711901 41.2461031,16.468179 C42.8988379,17.9297205 44.5967929,19.1479205 45.7017583,19.6398067 C45.9679523,19.765169 47.7302003,20.5302124 48.2958197,20.811251 C52.4050949,22.853021 53.9593105,25.9750685 52.111981,31.8119023 C50.2870112,35.9997617 50.5222542,37.8135129 52.7189606,39.763442 C53.526175,40.4799742 57.9193357,43.6041477 57.7338451,43.4668172 C58.3138322,43.8724973 58.9339939,44.3080902 59.6861069,44.8377335 C59.9798578,45.0445949 60.2814319,45.257125 60.6863265,45.5425843 C61.1893935,45.897285 61.4618829,46.0894084 61.6937548,46.2528496 C65.6235493,49.0225237 67.6891568,50.4539867 69.5391066,51.6672828 C70.6826008,52.5051223 70.8791848,53.944193 70.1015599,55.1537236 C69.3306319,56.352838 67.7781899,57.1005709 65.81455,57.0994524 C63.4218863,56.9578136 60.4763143,56.6294962 56.7886355,56.120477 C55.768072,55.9796062 54.6980694,55.8260267 53.4995512,55.6493134 C52.6772986,55.5280778 48.0063668,54.8249235 46.8565887,54.6591623 C44.6977512,54.3479272 43.3295011,54.1826628 42.5143757,54.1448974 C42.1819023,54.1294936 41.8844125,54.1121942 41.3718258,54.0798698 C39.406091,53.9559079 38.6756016,53.9436454 37.708643,54.0747944 C36.2200723,54.2766898 34.897127,54.8547948 33.4792159,56.0120118 C33.4136544,56.0933043 33.3459613,56.1765406 33.2755901,56.2624314 C33.0914244,56.4872127 32.9022852,56.714159 32.64111,57.024784 C30.6912227,59.3438548 30.1318607,60.105226 29.9156526,60.9243206 C29.7030776,61.7296507 30.2369707,62.1951351 32.3135686,62.4181544 C36.4631328,63.2997221 58.1945013,63.7434831 97.3269454,63.7434831 C101.556676,64.0680018 103.426415,61.4975732 103.087576,55.6207415 C102.463094,51.0312423 100.155833,47.8359467 96.5938833,45.6215635 C95.552564,44.974199 94.447392,44.4380924 93.2385244,43.9619906 C92.7789356,43.7809856 92.324503,43.6160938 91.8042202,43.4380155 C91.6012128,43.3685317 90.8315681,43.1109508 90.6328495,43.0412941 C89.4793643,42.5783272 85.7026313,41.1398911 85.328298,40.9933591 C80.8495115,39.2401475 78.4476976,37.9060163 76.8462968,35.9512423 C74.8521044,33.5170013 74.5637447,30.3615678 76.111609,26.0543273 C76.2770492,25.6711611 76.4469441,25.2754216 76.6239033,24.8611886 C76.9114377,24.188117 79.3723985,18.3535928 80.0462028,16.8018302 C81.2762687,13.9690047 82.2011367,12.0166084 82.9998651,10.6277762 C86.533001,6.76686475 89.5942827,6.77309676 93.0142192,11.4981789 C94.6565578,13.3797232 95.2183451,14.0302696 95.9689615,14.9321626 C96.2501065,15.2699685 96.5189357,15.5982552 96.7820689,15.9254036 C97.5023593,16.8209268 98.1948561,17.7266148 98.9332195,18.742201 C100.870098,22.5355754 109.518247,39.6690622 109.817212,40.2604182 C115.394135,51.2916275 120.608908,61.5467794 126.596937,73.2352516 C127.810063,75.9395744 127.622376,77.0733381 125.773246,79.4450222 C122.578883,83.1348528 121.203828,84.0576093 118.20542,84.0581864 C88.2573319,84.3187922 57.3451481,84.3187873 27.3506129,84.162418 Z" id="Path-2" fill="url(#linearGradient-1)" fill-rule="nonzero"></path>
                    <path d="M47.7262596,21.95755 C47.1963874,21.694273 45.4552868,20.9384104 45.333094,20.8815297 C45.2678501,20.8511588 45.2052348,20.8214897 45.16314,20.8007891 C44.1623677,20.3556032 42.8004742,19.4306511 41.363151,18.249811 C41.038988,17.9834932 40.7154895,17.7076485 40.398169,17.4270366 L41.2461031,16.468179 C41.5518542,16.7385599 41.8635552,17.004345 42.1756921,17.2607827 C43.5317649,18.3748711 44.8089708,19.2423062 45.7017583,19.6398067 C45.756462,19.6662454 45.8134933,19.6932685 45.8732743,19.7210965 C45.9679523,19.765169 47.7302003,20.5302124 48.2958197,20.811251 C52.4050949,22.853021 53.9593105,25.9750685 52.111981,31.8119023 C50.2870112,35.9997617 50.5222542,37.8135129 52.7189606,39.763442 C53.526175,40.4799742 57.9193357,43.6041477 57.7338451,43.4668172 C58.3138322,43.8724973 58.9339939,44.3080902 59.6861069,44.8377335 C59.9798578,45.0445949 60.2814319,45.257125 60.6863265,45.5425843 C61.1893935,45.897285 61.4618829,46.0894084 61.6937548,46.2528496 C61.7606511,46.3000023 61.7606511,46.3000023 61.8275479,46.3471514 C65.6235493,49.0225237 67.6891568,50.4539867 69.5391066,51.6672828 C70.6826008,52.5051223 70.8791848,53.944193 70.1015599,55.1537236 C69.3306319,56.352838 67.7781899,57.1005709 65.81455,57.0994524 C63.4218863,56.9578136 60.4763143,56.6294962 56.7886355,56.120477 C55.768072,55.9796062 54.6980694,55.8260267 53.4995512,55.6493134 C52.6772986,55.5280778 48.0063668,54.8249235 46.8565887,54.6591623 C44.6977512,54.3479272 43.3295011,54.1826628 42.5143757,54.1448974 C42.1819023,54.1294936 41.8844125,54.1121942 41.3718258,54.0798698 C39.406091,53.9559079 38.6756016,53.9436454 37.708643,54.0747944 C36.2200723,54.2766898 34.897127,54.8547948 33.4792159,56.0120118 C33.4136544,56.0933043 33.3459613,56.1765406 33.2755901,56.2624314 C33.0914244,56.4872127 32.9022852,56.714159 32.64111,57.024784 C30.6912227,59.3438548 30.1318607,60.105226 29.9156526,60.9243206 C29.7030776,61.7296507 30.2369707,62.1951351 32.3135686,62.4181544 C32.6438848,62.4851281 32.9947073,62.5411464 33.4286481,62.5957111 L33.2689554,63.8657104 C32.8183326,63.8090481 32.4442294,63.7498523 32.1443583,63.6872992 C29.4170536,63.3871231 28.2195501,62.3346152 28.6780418,60.5976408 C28.9669873,59.5029846 29.5338554,58.7313964 31.6613965,56.2010356 C31.9193741,55.8942136 32.1054242,55.6709739 32.2854727,55.4512178 C32.368423,55.3499738 32.4473673,55.2527419 32.5232487,55.1582998 C34.2345781,53.7301511 35.7931457,53.0428745 37.5366112,52.8064076 C38.6174407,52.6598142 39.3993434,52.6729398 41.4523843,52.8024073 C41.9583016,52.8343111 42.2501511,52.8512826 42.5736157,52.8662689 C43.4446515,52.9066248 44.8383294,53.0749605 47.0392354,53.3922605 C48.1937765,53.5587083 52.8675988,54.2622978 53.68626,54.3830038 C54.8811476,54.5591819 55.9473701,54.7122188 56.9636575,54.8524994 C60.6211168,55.3573473 63.537606,55.6824231 65.8523699,55.8205709 C68.7633993,55.8205709 70.1334496,53.6895719 68.8100657,52.7188442 C66.971187,51.5138471 64.8983936,50.0774043 61.0901586,47.3934099 C61.0232282,47.3462372 61.0232282,47.3462372 60.9563024,47.2990637 C60.7243523,47.1355673 60.4517805,46.9433858 59.9487734,46.5887275 C59.5440522,46.3033904 59.2426492,46.0909808 58.949123,45.8842777 C58.1980287,45.3553517 57.5789127,44.9204934 56.9856374,44.5052119 C57.2178605,44.6775334 52.7369983,41.4909913 51.8692321,40.7207097 C49.2261215,38.3745254 48.9090703,35.97095 50.9016644,31.393927 C52.5329691,26.2135897 51.290348,23.7284337 47.7262596,21.95755 Z" id="Path" fill-opacity="0.2" fill="#000000" fill-rule="nonzero"></path>
                    <path d="M96.5938833,45.6215635 C95.552564,44.974199 94.447392,44.4380924 93.2385244,43.9619906 C92.7789356,43.7809856 92.324503,43.6160938 91.8042202,43.4380155 C91.6012128,43.3685317 90.8315681,43.1109508 90.6328495,43.0412941 C89.4793643,42.5783272 85.7026313,41.1398911 85.328298,40.9933591 C80.8495115,39.2401475 78.4476976,37.9060163 76.8462968,35.9512423 C74.8521044,33.5170013 74.5637447,30.3615678 76.111609,26.0543273 C76.394428,25.399307 76.6884787,24.711735 77.0123237,23.9490744 L78.1905061,24.4493604 C77.8657156,25.2142477 77.5706745,25.9041357 77.3015287,26.5242977 C75.9095589,30.4010963 76.1550721,33.0876731 77.8364555,35.140079 C79.2538387,36.8702292 81.5140547,38.1257073 85.7948775,39.8014265 C86.1594002,39.9441181 89.9433502,41.3853029 91.0808275,41.8426405 C91.2427734,41.8987704 92.0092092,42.1552773 92.2187213,42.2269875 C92.7559867,42.4108784 93.2279253,42.5821223 93.7075746,42.771028 C94.9837794,43.27365 96.1569283,43.8427314 97.2696825,44.5345054 C101.144491,46.9433853 103.685174,50.4671269 104.359352,55.4737492 C104.62725,60.0147449 103.217301,62.8135898 100.684083,64.1753743 C99.9568913,64.5662918 99.1840357,64.8089433 98.401213,64.9333808 C97.8777561,65.0165896 97.4282756,65.0372136 97.0557482,65.0239036 C97.0307784,65.0230114 97.0163658,64.595502 97.0125103,63.7413754 C97.0610003,63.7429826 97.087729,63.7442295 97.1014523,63.7447198 C97.396749,63.7552705 97.7656094,63.7383456 98.2002671,63.6692524 C98.8491109,63.5661121 99.4862346,63.366076 100.078014,63.0479525 C102.148191,61.9350851 103.316776,59.6213608 103.087569,55.6206852 C102.463075,51.0312162 100.155819,47.8359376 96.5938833,45.6215635 Z" id="Path" fill-opacity="0.17" fill="#000000" fill-rule="nonzero"></path>
                    <path d="M88.0615092,82.9535655 L88.0655858,84.233559 C74.8009649,84.2758053 61.4621826,84.2763113 48.2204631,84.2430606 C40.9914225,84.224908 34.0534488,84.1973616 27.3506129,84.162418 C22.24119,84.1357812 18.6132228,84.1129795 13.2926596,84.0766739 C11.1026692,84.0617302 10.5426461,84.0581867 10.2924888,84.0581867 L10.2924888,82.7781867 C10.5473747,82.7781867 11.102426,82.7816987 13.3013937,82.7967037 C18.6213272,82.833005 22.2486919,82.8558029 27.3572858,82.8824354 C34.059011,82.9173732 40.9958392,82.9449151 48.2236772,82.9630646 C61.4630791,82.9963096 74.7994582,82.9958037 88.0615092,82.9535655 Z" id="Path" fill="#FFB819" fill-rule="nonzero"></path>
                    <path d="M33.2689554,63.8657104 L33.4286481,62.5957111 C37.4522219,63.1016445 58.6939899,63.4855915 97.0125103,63.7413754 L97.0039662,65.0213469 C58.5698686,64.7647915 37.3720123,64.3816382 33.2689554,63.8657104 Z" id="Path" fill="#FFA019" fill-rule="nonzero"></path>
                    <path d="M81.3943281,16.91206 C80.9491911,17.930873 80.4804595,19.0277974 79.8372959,20.5500926 C79.9534761,20.2751071 78.5746224,23.5447598 78.1905061,24.4493604 L77.0123237,23.9490744 C77.3957116,23.0461891 78.7738182,19.7783081 78.6582121,20.0519345 C79.3032278,18.5252557 79.7737519,17.4241364 80.2213959,16.3995857 C81.3609259,13.791472 82.2395552,11.9498061 82.9998651,10.6277762 C86.533001,6.76686475 89.5942827,6.77309676 93.0142192,11.4981789 C94.6565578,13.3797232 95.2183451,14.0302696 95.9689615,14.9321626 C96.2501065,15.2699685 96.5189357,15.5982552 96.7820689,15.9254036 C97.5023593,16.8209268 98.1948561,17.7266148 98.9332195,18.742201 C100.870098,22.5355754 109.518247,39.6690622 109.817212,40.2604182 C115.394135,51.2916275 120.608908,61.5467794 126.596937,73.2352516 C127.810063,75.9395744 127.622376,77.0733381 125.773246,79.4450222 C122.577883,83.1360077 121.202967,84.0581867 118.208174,84.0581624 C110.717984,84.1233456 103.034532,84.1725061 95.1892191,84.2067202 L95.1836369,82.9267324 C103.027151,82.8925261 110.708758,82.8433774 118.202604,82.7781867 C120.735026,82.7781867 121.831028,82.0430798 124.784544,78.6327545 C126.333603,76.6447783 126.438709,76.0098703 125.443415,73.7890452 C119.468605,62.1282561 114.252803,51.8710811 108.674897,40.8379257 C108.376349,40.2473951 99.7975025,23.2512125 97.8680774,19.4538781 C97.1530818,18.4716765 96.4821671,17.5948323 95.7846638,16.72764 C95.5261213,16.4061991 95.2618059,16.0834244 94.9851229,15.7509798 C94.2404118,14.8561824 93.6807926,14.2082742 92.0305729,12.3177547 C89.0779645,8.23059906 86.977214,8.19969813 84.073908,11.3279572 C83.3505627,12.5955088 82.4982173,14.3855198 81.3943281,16.91206 Z" id="Path" fill-opacity="0.37" fill="#000000" fill-rule="nonzero"></path>
                    <path d="M95.1836369,82.9267324 L95.1892191,84.2067202 C92.8259675,84.2170266 90.4511056,84.2259613 88.0655858,84.233559 L88.0615092,82.9535655 C90.4465316,82.9459694 92.8208919,82.9370366 95.1836369,82.9267324 Z" id="Path" fill="#FF9219" fill-rule="nonzero"></path>
                    <path d="M1.85461631,46.0979167 L2.46294964,46.0979167 C2.49211631,46.3416667 2.73794964,46.4979167 3.09211631,46.4979167 C3.41919964,46.4979167 3.65044964,46.3395833 3.65044964,46.1125 C3.65044964,45.9208333 3.50044964,45.8104167 3.13169964,45.73125 L2.74003297,45.6479167 C2.19211631,45.5333333 1.92336631,45.2479167 1.92336631,44.7895833 C1.92336631,44.2229167 2.37961631,43.85 3.07336631,43.85 C3.73586631,43.85 4.20461631,44.2208333 4.22336631,44.75625 L3.63169964,44.75625 C3.60253297,44.51875 3.38169964,44.3604167 3.07753297,44.3604167 C2.76294964,44.3604167 2.55461631,44.50625 2.55461631,44.7354167 C2.55461631,44.9208333 2.69836631,45.0270833 3.05044964,45.1020833 L3.41294964,45.1791667 C4.01711631,45.30625 4.27753297,45.5666667 4.27753297,46.0333333 C4.27753297,46.6395833 3.81294964,47.0104167 3.05878297,47.0104167 C2.34211631,47.0104167 1.87753297,46.6583333 1.85461631,46.0979167 Z M5.53794964,46.9333333 L5.53794964,44.5395833 L5.50044964,44.5395833 L4.76294964,45.0479167 L4.76294964,44.4625 L5.54003297,43.9270833 L6.16711631,43.9270833 L6.16711631,46.9333333 L5.53794964,46.9333333 Z M0.768366308,49.7241667 L0.641699641,49.7241667 C0.498366308,49.545 0.416699641,49.2791667 0.416699641,48.9933333 C0.416699641,48.7083333 0.485866308,48.5016667 0.650032975,48.2916667 L0.770866308,48.2916667 C0.650032975,48.4333333 0.564199641,48.7241667 0.564199641,48.9933333 C0.564199641,49.2533333 0.626699641,49.4758333 0.768366308,49.7241667 Z M0.970032975,49.1791667 L1.12169964,49.1791667 C1.14003297,49.305 1.26003297,49.385 1.43086631,49.385 C1.59253297,49.385 1.71169964,49.2975 1.71169964,49.1783333 C1.71169964,49.0758333 1.63669964,49.0108333 1.47086631,48.9691667 L1.31669964,48.9291667 C1.09919964,48.8741667 1.00503297,48.7758333 1.00503297,48.605 C1.00503297,48.4008333 1.17586631,48.2625 1.43003297,48.2625 C1.66253297,48.2625 1.83586631,48.4008333 1.84836631,48.595 L1.69753297,48.595 C1.67669964,48.4716667 1.57503297,48.3983333 1.42503297,48.3983333 C1.26503297,48.3983333 1.15919964,48.4783333 1.15919964,48.6 C1.15919964,48.6941667 1.22503297,48.7483333 1.39086631,48.7908333 L1.51669964,48.8241667 C1.76586631,48.8866667 1.86586631,48.9833333 1.86586631,49.16 C1.86586631,49.3808333 1.69169964,49.5216667 1.41669964,49.5216667 C1.16169964,49.5216667 0.985866308,49.3866667 0.970032975,49.1791667 Z M2.45503297,48.7058333 C2.31169964,48.7058333 2.21169964,48.8108333 2.20086631,48.97 L2.69586631,48.97 C2.69253297,48.8108333 2.59753297,48.7058333 2.45503297,48.7058333 Z M2.69169964,49.2608333 L2.83503297,49.2608333 C2.79169964,49.415 2.65336631,49.5091667 2.45669964,49.5091667 C2.20753297,49.5091667 2.05169964,49.3291667 2.05169964,49.045 C2.05169964,48.7625 2.21003297,48.5791667 2.45669964,48.5791667 C2.69919964,48.5791667 2.84669964,48.7516667 2.84669964,49.0308333 L2.84669964,49.0858333 L2.20086631,49.0858333 L2.20086631,49.0925 C2.20836631,49.27 2.30753297,49.3825 2.46003297,49.3825 C2.57586631,49.3825 2.65419964,49.34 2.69169964,49.2608333 Z M3.81503297,48.87 L3.67003297,48.87 C3.64669964,48.7808333 3.56753297,48.7083333 3.43836631,48.7083333 C3.27669964,48.7083333 3.17503297,48.8375 3.17503297,49.0408333 C3.17503297,49.2483333 3.27836631,49.38 3.43836631,49.38 C3.55919964,49.38 3.64336631,49.3241667 3.67003297,49.2225 L3.81503297,49.2225 C3.78919964,49.3875 3.65503297,49.5091667 3.43919964,49.5091667 C3.18753297,49.5091667 3.02669964,49.3266667 3.02669964,49.0408333 C3.02669964,48.7608333 3.18669964,48.5791667 3.43836631,48.5791667 C3.65669964,48.5791667 3.79003297,48.71 3.81503297,48.87 Z M4.08669964,48.3625 L4.23003297,48.3625 L4.23003297,48.595 L4.43003297,48.595 L4.43003297,48.715 L4.23003297,48.715 L4.23003297,49.2233333 C4.23003297,49.3291667 4.27003297,49.3741667 4.36336631,49.3741667 C4.38919964,49.3741667 4.40336631,49.3733333 4.43003297,49.3708333 L4.43003297,49.4916667 C4.40169964,49.4966667 4.37419964,49.5 4.34586631,49.5 C4.16086631,49.5 4.08669964,49.4316667 4.08669964,49.26 L4.08669964,48.715 L3.94169964,48.715 L3.94169964,48.595 L4.08669964,48.595 L4.08669964,48.3625 Z M5.01586631,49.38 C5.18586631,49.38 5.28169964,49.2566667 5.28169964,49.0441667 C5.28169964,48.8308333 5.18586631,48.7083333 5.01586631,48.7083333 C4.84586631,48.7083333 4.75003297,48.8308333 4.75003297,49.0441667 C4.75003297,49.2566667 4.84586631,49.38 5.01586631,49.38 Z M5.01586631,49.5091667 C4.76003297,49.5091667 4.60169964,49.3325 4.60169964,49.0441667 C4.60169964,48.755 4.76003297,48.5791667 5.01586631,48.5791667 C5.27169964,48.5791667 5.43003297,48.755 5.43003297,49.0441667 C5.43003297,49.3325 5.27169964,49.5091667 5.01586631,49.5091667 Z M5.65503297,49.4933333 L5.65503297,48.595 L5.79169964,48.595 L5.79169964,48.7283333 L5.80503297,48.7283333 C5.83169964,48.6408333 5.93503297,48.5791667 6.05419964,48.5791667 C6.07753297,48.5791667 6.10753297,48.5808333 6.12586631,48.5833333 L6.12586631,48.7266667 C6.11419964,48.7233333 6.06253297,48.7183333 6.03419964,48.7183333 C5.89753297,48.7183333 5.79836631,48.81 5.79836631,48.9366667 L5.79836631,49.4933333 L5.65503297,49.4933333 Z M7.07336631,49.4933333 L7.07336631,48.4575 L7.06003297,48.4575 L6.75419964,48.6791667 L6.75419964,48.5208333 L7.07419964,48.2908333 L7.22336631,48.2908333 L7.22336631,49.4933333 L7.07336631,49.4933333 Z M7.55253297,49.7241667 C7.69419964,49.4758333 7.75669964,49.2533333 7.75669964,48.9933333 C7.75669964,48.7225 7.67169964,48.4325 7.55086631,48.2916667 L7.67253297,48.2916667 C7.83669964,48.5016667 7.90503297,48.7083333 7.90503297,48.9933333 C7.90503297,49.2775 7.82336631,49.5433333 7.68003297,49.7241667 L7.55253297,49.7241667 Z" id="S1-(Sector-1)-Copy" fill="#C6C6C6"></path>
                    <path d="M73.2564913,46.0979167 L73.8648246,46.0979167 C73.8939913,46.3416667 74.1398246,46.4979167 74.4939913,46.4979167 C74.8210746,46.4979167 75.0523246,46.3395833 75.0523246,46.1125 C75.0523246,45.9208333 74.9023246,45.8104167 74.5335746,45.73125 L74.141908,45.6479167 C73.5939913,45.5333333 73.3252413,45.2479167 73.3252413,44.7895833 C73.3252413,44.2229167 73.7814913,43.85 74.4752413,43.85 C75.1377413,43.85 75.6064913,44.2208333 75.6252413,44.75625 L75.0335746,44.75625 C75.004408,44.51875 74.7835746,44.3604167 74.479408,44.3604167 C74.1648246,44.3604167 73.9564913,44.50625 73.9564913,44.7354167 C73.9564913,44.9208333 74.1002413,45.0270833 74.4523246,45.1020833 L74.8148246,45.1791667 C75.4189913,45.30625 75.679408,45.5666667 75.679408,46.0333333 C75.679408,46.6395833 75.2148246,47.0104167 74.460658,47.0104167 C73.7439913,47.0104167 73.279408,46.6583333 73.2564913,46.0979167 Z M76.1773246,44.8270833 C76.1773246,44.2458333 76.623158,43.85 77.273158,43.85 C77.9002413,43.85 78.3377413,44.2104167 78.3377413,44.7270833 C78.3377413,45.0541667 78.160658,45.3354167 77.6398246,45.825 L77.0648246,46.3729167 L77.0648246,46.4104167 L78.3814913,46.4104167 L78.3814913,46.9333333 L76.2127413,46.9333333 L76.2127413,46.49375 L77.1939913,45.5333333 C77.616908,45.1208333 77.723158,44.9645833 77.723158,44.76875 C77.723158,44.5270833 77.5273246,44.35625 77.2523246,44.35625 C76.960658,44.35625 76.760658,44.5479167 76.760658,44.825 L76.760658,44.8375 L76.1773246,44.8375 L76.1773246,44.8270833 Z M72.3308663,49.7241667 L72.2041996,49.7241667 C72.0608663,49.545 71.9791996,49.2791667 71.9791996,48.9933333 C71.9791996,48.7083333 72.0483663,48.5016667 72.212533,48.2916667 L72.3333663,48.2916667 C72.212533,48.4333333 72.1266996,48.7241667 72.1266996,48.9933333 C72.1266996,49.2533333 72.1891996,49.4758333 72.3308663,49.7241667 Z M72.532533,49.1791667 L72.6841996,49.1791667 C72.702533,49.305 72.822533,49.385 72.9933663,49.385 C73.155033,49.385 73.2741996,49.2975 73.2741996,49.1783333 C73.2741996,49.0758333 73.1991996,49.0108333 73.0333663,48.9691667 L72.8791996,48.9291667 C72.6616996,48.8741667 72.567533,48.7758333 72.567533,48.605 C72.567533,48.4008333 72.7383663,48.2625 72.992533,48.2625 C73.225033,48.2625 73.3983663,48.4008333 73.4108663,48.595 L73.260033,48.595 C73.2391996,48.4716667 73.137533,48.3983333 72.987533,48.3983333 C72.827533,48.3983333 72.7216996,48.4783333 72.7216996,48.6 C72.7216996,48.6941667 72.787533,48.7483333 72.9533663,48.7908333 L73.0791996,48.8241667 C73.3283663,48.8866667 73.4283663,48.9833333 73.4283663,49.16 C73.4283663,49.3808333 73.2541996,49.5216667 72.9791996,49.5216667 C72.7241996,49.5216667 72.5483663,49.3866667 72.532533,49.1791667 Z M74.017533,48.7058333 C73.8741996,48.7058333 73.7741996,48.8108333 73.7633663,48.97 L74.2583663,48.97 C74.255033,48.8108333 74.160033,48.7058333 74.017533,48.7058333 Z M74.2541996,49.2608333 L74.397533,49.2608333 C74.3541996,49.415 74.2158663,49.5091667 74.0191996,49.5091667 C73.770033,49.5091667 73.6141996,49.3291667 73.6141996,49.045 C73.6141996,48.7625 73.772533,48.5791667 74.0191996,48.5791667 C74.2616996,48.5791667 74.4091996,48.7516667 74.4091996,49.0308333 L74.4091996,49.0858333 L73.7633663,49.0858333 L73.7633663,49.0925 C73.7708663,49.27 73.870033,49.3825 74.022533,49.3825 C74.1383663,49.3825 74.2166996,49.34 74.2541996,49.2608333 Z M75.377533,48.87 L75.232533,48.87 C75.2091996,48.7808333 75.130033,48.7083333 75.0008663,48.7083333 C74.8391996,48.7083333 74.737533,48.8375 74.737533,49.0408333 C74.737533,49.2483333 74.8408663,49.38 75.0008663,49.38 C75.1216996,49.38 75.2058663,49.3241667 75.232533,49.2225 L75.377533,49.2225 C75.3516996,49.3875 75.217533,49.5091667 75.0016996,49.5091667 C74.750033,49.5091667 74.5891996,49.3266667 74.5891996,49.0408333 C74.5891996,48.7608333 74.7491996,48.5791667 75.0008663,48.5791667 C75.2191996,48.5791667 75.352533,48.71 75.377533,48.87 Z M75.6491996,48.3625 L75.792533,48.3625 L75.792533,48.595 L75.992533,48.595 L75.992533,48.715 L75.792533,48.715 L75.792533,49.2233333 C75.792533,49.3291667 75.832533,49.3741667 75.9258663,49.3741667 C75.9516996,49.3741667 75.9658663,49.3733333 75.992533,49.3708333 L75.992533,49.4916667 C75.9641996,49.4966667 75.9366996,49.5 75.9083663,49.5 C75.7233663,49.5 75.6491996,49.4316667 75.6491996,49.26 L75.6491996,48.715 L75.5041996,48.715 L75.5041996,48.595 L75.6491996,48.595 L75.6491996,48.3625 Z M76.5783663,49.38 C76.7483663,49.38 76.8441996,49.2566667 76.8441996,49.0441667 C76.8441996,48.8308333 76.7483663,48.7083333 76.5783663,48.7083333 C76.4083663,48.7083333 76.312533,48.8308333 76.312533,49.0441667 C76.312533,49.2566667 76.4083663,49.38 76.5783663,49.38 Z M76.5783663,49.5091667 C76.322533,49.5091667 76.1641996,49.3325 76.1641996,49.0441667 C76.1641996,48.755 76.322533,48.5791667 76.5783663,48.5791667 C76.8341996,48.5791667 76.992533,48.755 76.992533,49.0441667 C76.992533,49.3325 76.8341996,49.5091667 76.5783663,49.5091667 Z M77.217533,49.4933333 L77.217533,48.595 L77.3541996,48.595 L77.3541996,48.7283333 L77.367533,48.7283333 C77.3941996,48.6408333 77.497533,48.5791667 77.6166996,48.5791667 C77.640033,48.5791667 77.670033,48.5808333 77.6883663,48.5833333 L77.6883663,48.7266667 C77.6766996,48.7233333 77.625033,48.7183333 77.5966996,48.7183333 C77.460033,48.7183333 77.3608663,48.81 77.3608663,48.9366667 L77.3608663,49.4933333 L77.217533,49.4933333 Z M78.3408663,48.6291667 C78.3408663,48.4158333 78.502533,48.2625 78.7258663,48.2625 C78.9416996,48.2625 79.1066996,48.4091667 79.1066996,48.6 C79.1066996,48.725 79.050033,48.8225 78.852533,49.0341667 L78.5633663,49.345 L78.5633663,49.3583333 L79.1266996,49.3583333 L79.1266996,49.4933333 L78.3483663,49.4933333 L78.3483663,49.39 L78.7641996,48.9358333 C78.9191996,48.7675 78.9566996,48.7025 78.9566996,48.6058333 C78.9566996,48.4858333 78.8541996,48.3933333 78.7216996,48.3933333 C78.5808663,48.3933333 78.4858663,48.4875 78.4858663,48.6291667 L78.4858663,48.63 L78.3408663,48.63 L78.3408663,48.6291667 Z M79.350033,49.7241667 C79.4916996,49.4758333 79.5541996,49.2533333 79.5541996,48.9933333 C79.5541996,48.7225 79.4691996,48.4325 79.3483663,48.2916667 L79.470033,48.2916667 C79.6341996,48.5016667 79.702533,48.7083333 79.702533,48.9933333 C79.702533,49.2775 79.6208663,49.5433333 79.477533,49.7241667 L79.350033,49.7241667 Z" id="S2-(Sector-2)-Copy" fill="#999999"></path>
                    <path d="M118.428991,41.83125 L119.037325,41.83125 C119.066491,42.075 119.312325,42.23125 119.666491,42.23125 C119.993575,42.23125 120.224825,42.0729167 120.224825,41.8458333 C120.224825,41.6541667 120.074825,41.54375 119.706075,41.4645833 L119.314408,41.38125 C118.766491,41.2666667 118.497741,40.98125 118.497741,40.5229167 C118.497741,39.95625 118.953991,39.5833333 119.647741,39.5833333 C120.310241,39.5833333 120.778991,39.9541667 120.797741,40.4895833 L120.206075,40.4895833 C120.176908,40.2520833 119.956075,40.09375 119.651908,40.09375 C119.337325,40.09375 119.128991,40.2395833 119.128991,40.46875 C119.128991,40.6541667 119.272741,40.7604167 119.624825,40.8354167 L119.987325,40.9125 C120.591491,41.0395833 120.851908,41.3 120.851908,41.7666667 C120.851908,42.3729167 120.387325,42.74375 119.633158,42.74375 C118.916491,42.74375 118.451908,42.3916667 118.428991,41.83125 Z M122.118575,41.3625 L122.118575,40.89375 L122.485241,40.89375 C122.770658,40.89375 122.964408,40.7270833 122.964408,40.48125 C122.964408,40.2395833 122.776908,40.0854167 122.483158,40.0854167 C122.191491,40.0854167 121.997741,40.25 121.981075,40.5104167 L121.399825,40.5104167 C121.420658,39.9416667 121.843575,39.5833333 122.499825,39.5833333 C123.116491,39.5833333 123.560241,39.9208333 123.560241,40.39375 C123.560241,40.7416667 123.341491,41.0125 123.006075,41.08125 L123.006075,41.11875 C123.418575,41.1645833 123.676908,41.4395833 123.676908,41.8354167 C123.676908,42.3625 123.181075,42.74375 122.495658,42.74375 C121.824825,42.74375 121.370658,42.3729167 121.343575,41.80625 L121.945658,41.80625 C121.964408,42.0604167 122.178991,42.2208333 122.501908,42.2208333 C122.816491,42.2208333 123.035241,42.04375 123.035241,41.7875 C123.035241,41.525 122.828991,41.3625 122.491491,41.3625 L122.118575,41.3625 Z M117.53795,45.4575 L117.411283,45.4575 C117.26795,45.2783333 117.186283,45.0125 117.186283,44.7266667 C117.186283,44.4416667 117.25545,44.235 117.419616,44.025 L117.54045,44.025 C117.419616,44.1666667 117.333783,44.4575 117.333783,44.7266667 C117.333783,44.9866667 117.396283,45.2091667 117.53795,45.4575 Z M117.739616,44.9125 L117.891283,44.9125 C117.909616,45.0383333 118.029616,45.1183333 118.20045,45.1183333 C118.362116,45.1183333 118.481283,45.0308333 118.481283,44.9116667 C118.481283,44.8091667 118.406283,44.7441667 118.24045,44.7025 L118.086283,44.6625 C117.868783,44.6075 117.774616,44.5091667 117.774616,44.3383333 C117.774616,44.1341667 117.94545,43.9958333 118.199616,43.9958333 C118.432116,43.9958333 118.60545,44.1341667 118.61795,44.3283333 L118.467116,44.3283333 C118.446283,44.205 118.344616,44.1316667 118.194616,44.1316667 C118.034616,44.1316667 117.928783,44.2116667 117.928783,44.3333333 C117.928783,44.4275 117.994616,44.4816667 118.16045,44.5241667 L118.286283,44.5575 C118.53545,44.62 118.63545,44.7166667 118.63545,44.8933333 C118.63545,45.1141667 118.461283,45.255 118.186283,45.255 C117.931283,45.255 117.75545,45.12 117.739616,44.9125 Z M119.224616,44.4391667 C119.081283,44.4391667 118.981283,44.5441667 118.97045,44.7033333 L119.46545,44.7033333 C119.462116,44.5441667 119.367116,44.4391667 119.224616,44.4391667 Z M119.461283,44.9941667 L119.604616,44.9941667 C119.561283,45.1483333 119.42295,45.2425 119.226283,45.2425 C118.977116,45.2425 118.821283,45.0625 118.821283,44.7783333 C118.821283,44.4958333 118.979616,44.3125 119.226283,44.3125 C119.468783,44.3125 119.616283,44.485 119.616283,44.7641667 L119.616283,44.8191667 L118.97045,44.8191667 L118.97045,44.8258333 C118.97795,45.0033333 119.077116,45.1158333 119.229616,45.1158333 C119.34545,45.1158333 119.423783,45.0733333 119.461283,44.9941667 Z M120.584616,44.6033333 L120.439616,44.6033333 C120.416283,44.5141667 120.337116,44.4416667 120.20795,44.4416667 C120.046283,44.4416667 119.944616,44.5708333 119.944616,44.7741667 C119.944616,44.9816667 120.04795,45.1133333 120.20795,45.1133333 C120.328783,45.1133333 120.41295,45.0575 120.439616,44.9558333 L120.584616,44.9558333 C120.558783,45.1208333 120.424616,45.2425 120.208783,45.2425 C119.957116,45.2425 119.796283,45.06 119.796283,44.7741667 C119.796283,44.4941667 119.956283,44.3125 120.20795,44.3125 C120.426283,44.3125 120.559616,44.4433333 120.584616,44.6033333 Z M120.856283,44.0958333 L120.999616,44.0958333 L120.999616,44.3283333 L121.199616,44.3283333 L121.199616,44.4483333 L120.999616,44.4483333 L120.999616,44.9566667 C120.999616,45.0625 121.039616,45.1075 121.13295,45.1075 C121.158783,45.1075 121.17295,45.1066667 121.199616,45.1041667 L121.199616,45.225 C121.171283,45.23 121.143783,45.2333333 121.11545,45.2333333 C120.93045,45.2333333 120.856283,45.165 120.856283,44.9933333 L120.856283,44.4483333 L120.711283,44.4483333 L120.711283,44.3283333 L120.856283,44.3283333 L120.856283,44.0958333 Z M121.78545,45.1133333 C121.95545,45.1133333 122.051283,44.99 122.051283,44.7775 C122.051283,44.5641667 121.95545,44.4416667 121.78545,44.4416667 C121.61545,44.4416667 121.519616,44.5641667 121.519616,44.7775 C121.519616,44.99 121.61545,45.1133333 121.78545,45.1133333 Z M121.78545,45.2425 C121.529616,45.2425 121.371283,45.0658333 121.371283,44.7775 C121.371283,44.4883333 121.529616,44.3125 121.78545,44.3125 C122.041283,44.3125 122.199616,44.4883333 122.199616,44.7775 C122.199616,45.0658333 122.041283,45.2425 121.78545,45.2425 Z M122.424616,45.2266667 L122.424616,44.3283333 L122.561283,44.3283333 L122.561283,44.4616667 L122.574616,44.4616667 C122.601283,44.3741667 122.704616,44.3125 122.823783,44.3125 C122.847116,44.3125 122.877116,44.3141667 122.89545,44.3166667 L122.89545,44.46 C122.883783,44.4566667 122.832116,44.4516667 122.803783,44.4516667 C122.667116,44.4516667 122.56795,44.5433333 122.56795,44.67 L122.56795,45.2266667 L122.424616,45.2266667 Z M123.801283,44.6725 L123.801283,44.5441667 L123.947116,44.5441667 C124.083783,44.5441667 124.18045,44.4558333 124.18045,44.3308333 C124.18045,44.2083333 124.08795,44.1266667 123.949616,44.1266667 C123.811283,44.1266667 123.72045,44.2033333 123.70795,44.3325 L123.562116,44.3325 C123.577116,44.1241667 123.726283,43.9958333 123.95545,43.9958333 C124.16545,43.9958333 124.33295,44.1358333 124.33295,44.3108333 C124.33295,44.4541667 124.253783,44.5591667 124.122116,44.5908333 L124.122116,44.6041667 C124.28545,44.625 124.384616,44.7383333 124.384616,44.9025 C124.384616,45.1008333 124.198783,45.255 123.961283,45.255 C123.717116,45.255 123.548783,45.1191667 123.53795,44.9133333 L123.68295,44.9133333 C123.696283,45.0416667 123.804616,45.1241667 123.959616,45.1241667 C124.11795,45.1241667 124.23045,45.03 124.23045,44.8983333 C124.23045,44.7591667 124.124616,44.6725 123.953783,44.6725 L123.801283,44.6725 Z M124.596283,45.4575 C124.73795,45.2091667 124.80045,44.9866667 124.80045,44.7266667 C124.80045,44.4558333 124.71545,44.1658333 124.594616,44.025 L124.716283,44.025 C124.88045,44.235 124.948783,44.4416667 124.948783,44.7266667 C124.948783,45.0108333 124.867116,45.2766667 124.723783,45.4575 L124.596283,45.4575 Z" id="S3-(Sector-3)-Copy" fill="#666666"></path>
                    <g id="Group-Copy-7" transform="translate(16.640000, 80.640000)">
                        <circle id="Oval-Copy-2" fill-opacity="0.7" fill="#FFFFFF" cx="2.56" cy="2.56" r="2.56"></circle>
                        <circle id="Oval-Copy-2" fill-opacity="0.2" fill="#D0021B" cx="2.56" cy="2.56" r="2.56"></circle>
                        <circle id="Oval" stroke="#D0021B" stroke-width="0.5" fill="#FFFFFF" cx="2.56" cy="2.56" r="1.70666667"></circle>
                        <circle id="Oval-Copy" fill="#D0021B" cx="2.56" cy="2.56" r="1"></circle>
                    </g>
                    <path d="M11.8685417,77.8883333 C11.8885417,78.2108333 12.1572917,78.4170833 12.5572917,78.4170833 C12.9847917,78.4170833 13.2522917,78.2008333 13.2522917,77.8558333 C13.2522917,77.6147222 13.1317978,77.4694136 12.8451586,77.3795233 L12.5310417,77.2995833 C12.2960417,77.2445833 12.2010417,77.1708333 12.2010417,77.0420833 C12.2010417,76.8795833 12.3485417,76.7733333 12.5697917,76.7733333 C12.7797917,76.7733333 12.9247917,76.8770833 12.9510417,77.0433333 L13.2235417,77.0433333 C13.2072917,76.7395833 12.9397917,76.5258333 12.5735417,76.5258333 C12.1797917,76.5258333 11.9172917,76.7395833 11.9172917,77.0608333 C11.9172917,77.3258333 12.0660417,77.4833333 12.3922917,77.5595833 L12.6247917,77.6158333 C12.8635417,77.6720833 12.9685417,77.7545833 12.9685417,77.8920833 C12.9685417,78.0520833 12.8035417,78.1683333 12.5785417,78.1683333 C12.3372917,78.1683333 12.1697917,78.0595833 12.1460417,77.8883333 L11.8685417,77.8883333 Z M13.6197917,76.5695833 L13.6197917,78.3733333 L13.8997917,78.3733333 L13.8997917,77.7658333 L14.3172917,77.7658333 C14.6710417,77.7658333 14.9210417,77.5233333 14.9210417,77.1708333 C14.9210417,76.8133333 14.6785417,76.5695833 14.3260417,76.5695833 L13.6197917,76.5695833 Z M13.8997917,76.8170833 L14.2522917,76.8170833 C14.4985417,76.8170833 14.6347917,76.9420833 14.6347917,77.1708333 C14.6347917,77.3945833 14.4935417,77.5195833 14.2522917,77.5195833 L13.8997917,77.5195833 L13.8997917,76.8170833 Z M16.4260417,78.1183333 L15.5610417,78.1183333 L15.5610417,77.5770833 L16.3797917,77.5770833 L16.3797917,77.3345833 L15.5610417,77.3345833 L15.5610417,76.8245833 L16.4260417,76.8245833 L16.4260417,76.5695833 L15.2810417,76.5695833 L15.2810417,78.3733333 L16.4260417,78.3733333 L16.4260417,78.1183333 Z M17.9747917,78.1183333 L17.1097917,78.1183333 L17.1097917,77.5770833 L17.9285417,77.5770833 L17.9285417,77.3345833 L17.1097917,77.3345833 L17.1097917,76.8245833 L17.9747917,76.8245833 L17.9747917,76.5695833 L16.8297917,76.5695833 L16.8297917,78.3733333 L17.9747917,78.3733333 L17.9747917,78.1183333 Z M18.3785417,76.5695833 L18.3785417,78.3733333 L19.0297917,78.3733333 C19.5672917,78.3733333 19.8785417,78.0420833 19.8785417,77.4658333 C19.8785417,76.8983333 19.5647917,76.5695833 19.0297917,76.5695833 L18.3785417,76.5695833 Z M18.6585417,76.8245833 L18.9985417,76.8245833 C19.3722917,76.8245833 19.5935417,77.0620833 19.5935417,77.4695833 C19.5935417,77.8833333 19.3760417,78.1183333 18.9985417,78.1183333 L18.6585417,78.1183333 L18.6585417,76.8245833 Z M21.6935417,78.3733333 L21.6935417,76.8245833 L22.2597917,76.8245833 L22.2597917,76.5695833 L20.8460417,76.5695833 L20.8460417,76.8245833 L21.4135417,76.8245833 L21.4135417,78.3733333 L21.6935417,78.3733333 Z M22.8822917,76.8158333 L23.2772917,76.8158333 C23.4935417,76.8158333 23.6260417,76.9345833 23.6260417,77.1308333 C23.6260417,77.3320833 23.5010417,77.4470833 23.2847917,77.4470833 L22.8822917,77.4470833 L22.8822917,76.8158333 Z M22.8822917,77.6858333 L23.2772917,77.6858333 L23.6447917,78.3733333 L23.9685417,78.3733333 L23.5635417,77.6395833 C23.7835417,77.5645833 23.9135417,77.3670833 23.9135417,77.1245833 C23.9135417,76.7858333 23.6797917,76.5695833 23.3160417,76.5695833 L22.6022917,76.5695833 L22.6022917,78.3733333 L22.8822917,78.3733333 L22.8822917,77.6858333 Z M25.4797917,78.3733333 L25.7772917,78.3733333 L25.1260417,76.5695833 L24.8247917,76.5695833 L24.1735417,78.3733333 L24.4610417,78.3733333 L24.6272917,77.8945833 L25.3147917,77.8945833 L25.4797917,78.3733333 Z M24.9610417,76.8970833 L24.9822917,76.8970833 L25.2435417,77.6595833 L24.6985417,77.6595833 L24.9610417,76.8970833 Z M26.0910417,76.5695833 L26.0910417,78.3733333 L26.3710417,78.3733333 L26.3710417,77.7658333 L26.7885417,77.7658333 C27.1422917,77.7658333 27.3922917,77.5233333 27.3922917,77.1708333 C27.3922917,76.8133333 27.1497917,76.5695833 26.7972917,76.5695833 L26.0910417,76.5695833 Z M26.3710417,76.8170833 L26.7235417,76.8170833 C26.9697917,76.8170833 27.1060417,76.9420833 27.1060417,77.1708333 C27.1060417,77.3945833 26.9647917,77.5195833 26.7235417,77.5195833 L26.3710417,77.5195833 L26.3710417,76.8170833 Z" id="SPEEDTRAP" fill="#D0021B" fill-rule="nonzero"></path>
                    <g id="Group-Copy-8" transform="translate(30.293333, 53.760000)">
                        <circle id="Oval-Copy-2" fill-opacity="0.7" fill="#FFFFFF" cx="2.56" cy="2.56" r="2.56"></circle>
                        <circle id="Oval-Copy-2" fill-opacity="0.2" fill="#FFB819" cx="2.56" cy="2.56" r="2.56"></circle>
                        <circle id="Oval" stroke="#FFB819" stroke-width="0.5" fill="#FFFFFF" cx="2.56" cy="2.56" r="1.70666667"></circle>
                        <circle id="Oval-Copy" fill="#FFB819" cx="2.56" cy="2.56" r="1"></circle>
                    </g>
                    <g id="Group-Copy-8" transform="translate(122.453333, 69.120000)">
                        <circle id="Oval-Copy-2" fill-opacity="0.7" fill="#FFFFFF" cx="2.56" cy="2.56" r="2.56"></circle>
                        <circle id="Oval-Copy-2" fill-opacity="0.2" fill="#FFB819" cx="2.56" cy="2.56" r="2.56"></circle>
                        <circle id="Oval" stroke="#FFB819" stroke-width="0.5" fill="#FFFFFF" cx="2.56" cy="2.56" r="1.70666667"></circle>
                        <circle id="Oval-Copy" fill="#FFB819" cx="2.56" cy="2.56" r="1"></circle>
                    </g>
                    <g id="Group-6" transform="translate(87.040000, 82.560000)">
                        <rect id="Rectangle-2" fill="#000000" x="0" y="0" width="1" height="1"></rect>
                        <rect id="Rectangle-2-Copy-4" fill="#FFFFFF" x="0" y="0.64" width="1" height="1"></rect>
                        <rect id="Rectangle-2-Copy-7" fill="#000000" x="0" y="1.28" width="1" height="1"></rect>
                        <rect id="Rectangle-2-Copy" fill="#FFFFFF" x="0.64" y="0" width="1" height="1"></rect>
                        <rect id="Rectangle-2-Copy-5" fill="#000000" x="0.64" y="0.64" width="1" height="1"></rect>
                        <rect id="Rectangle-2-Copy-9" fill="#FFFFFF" x="0.64" y="1.28" width="1" height="1"></rect>
                        <rect id="Rectangle-2-Copy-3" fill="#000000" x="1.28" y="0" width="1" height="1"></rect>
                        <rect id="Rectangle-2-Copy-6" fill="#FFFFFF" x="1.28" y="0.64" width="1" height="1"></rect>
                        <rect id="Rectangle-2-Copy-10" fill="#000000" x="1.28" y="1.28" width="1" height="1"></rect>
                    </g>
                </g>
            </g>
        </g>
    </g>
</svg>