<?xml version="1.0" encoding="UTF-8"?>
<svg width="160px" height="96px" viewBox="0 0 160 96" version="1.1" xmlns="http://www.w3.org/2000/svg" xmlns:xlink="http://www.w3.org/1999/xlink">
    <!-- Generator: Sketch 58 (84663) - https://sketch.com -->
    <title>circuit-gs-Baku-L-Eng</title>
    <desc>Created with Sketch.</desc>
    <defs>
        <linearGradient x1="50%" y1="23.3035083%" x2="50%" y2="112.667183%" id="linearGradient-1">
            <stop stop-color="#1B94E2" offset="0%"></stop>
            <stop stop-color="#40D8AB" offset="100%"></stop>
        </linearGradient>
    </defs>
    <g id="circuit-gs-Baku-L-Eng" stroke="none" stroke-width="1" fill="none" fill-rule="evenodd">
        <g id="Azerbaijan-Circuit" transform="translate(5.120000, 8.533333)">
            <g id="Group-9">
                <path d="M107.408889,40.505573 L106.777778,39.9312247 C107.92466,38.670995 109.303163,38.0300934 110.888658,38.0267735 C111.284276,38.0259451 111.621798,38.0338714 112.121951,38.0520674 C113.635105,38.1071171 113.966542,38.0718069 114.459077,37.7326182 C114.535075,37.680282 114.611698,37.6200354 114.689922,37.5508607 C115.747418,36.615696 116.790826,36.5730728 118.425164,37.1815304 C118.832161,37.3330537 119.201093,37.4129992 119.583223,37.4372594 C120.154537,37.4735302 120.225766,37.4643249 122.097579,37.1602397 C123.440759,36.9420337 144.286917,34.4990168 145.268051,34.4144917 C145.540344,34.3910335 145.684961,34.351723 145.765672,34.2776337 C145.870559,34.1813506 145.912384,33.9659193 145.816701,33.5299245 C145.581462,32.4580084 145.083695,26.4360151 145.083695,25.3924202 C145.083695,24.7716908 145.11657,24.2889046 145.232545,23.7885224 C145.416658,22.9941496 145.778655,22.4263578 146.398421,22.2104218 L146.679183,23.0162449 C146.145754,23.2020997 145.937028,24.1026679 145.937028,25.3924202 C145.937028,26.3795635 146.430011,32.3436723 146.6502,33.3470074 C146.805055,34.0526355 146.70365,34.5749567 146.342733,34.9062655 C146.079955,35.1474862 145.791527,35.2258882 145.341295,35.2646758 C144.379942,35.3474969 123.554287,37.7881108 122.234414,38.0025307 C120.267357,38.3220887 120.196501,38.3312457 119.529157,38.2888782 C119.062678,38.2592629 118.611757,38.1615511 118.127435,37.98124 C116.758217,37.4714854 116.034393,37.5010536 115.255212,38.1900984 C115.151752,38.2815901 115.048093,38.3630944 114.943068,38.4354203 C114.240016,38.9195837 113.796134,38.9668734 112.090927,38.9048365 C111.60079,38.887005 111.272871,38.8793042 110.890445,38.880105 C109.550362,38.882911 108.398053,39.4186491 107.408889,40.505573 Z" id="Path-61" fill="#E6E6E6" fill-rule="nonzero"></path>
                <path d="M90.528094,19.3401612 C90.5251019,19.3406024 90.5221125,19.3410453 90.519126,19.3414899 C90.5205062,19.3412823 90.5234322,19.3408486 90.528094,19.3401612 Z M91.1490619,19.2408435 C91.7513621,19.1220908 96.8145887,18.4219493 107.573266,16.9563916 C124.535552,14.6458772 123.610886,14.772257 124.121088,14.6868851 C125.292502,14.4908728 139.215328,13.5141265 143.53286,13.2726637 C146.101763,13.1289949 147.203999,14.1158939 147.461057,16.0244791 C147.498687,16.3175307 147.506238,16.3739743 147.515291,16.4331764 C147.808701,18.3518752 149.533949,33.6905647 149.615067,35.7335166 C149.758349,37.7685423 148.918505,38.593107 146.89851,38.9566772 C146.727753,38.987411 146.058576,39.0994989 145.91593,39.1244067 C145.525535,39.1731093 117.892248,42.2742479 106.683449,43.538152 C106.416881,43.568211 106.416881,43.568211 106.150328,43.5982715 C82.8159647,46.2298823 68.5839244,47.8637183 67.6382654,48.0358829 C66.8037068,48.1878208 63.4204109,49.4534703 57.8946372,51.6452068 C57.6999445,51.722448 57.6999445,51.722448 57.5053152,51.799734 C56.2592301,52.2946527 51.9438491,54.018895 51.1386585,54.3385542 C49.2070089,55.1054158 48.1729595,55.5042366 47.7129922,55.6484622 C47.5235764,55.834068 47.359529,56.033086 47.1690962,56.2950802 C46.8012798,56.8011153 46.363657,57.499538 45.8328817,58.4149755 C45.6908793,58.6598896 45.5422547,58.9201823 45.3808181,59.2062402 C45.2311272,59.4714855 44.1762095,61.3679355 43.9077083,61.8349272 C43.3239527,62.8502264 42.9994468,63.346401 42.6482823,63.6428072 C41.7223882,64.4243233 30.5115458,69.9185727 28.4535451,70.6632864 C27.9018019,70.8629417 26.6995474,72.0239491 25.1226844,73.898439 C24.8519267,74.2203013 24.5690192,74.5635503 24.2660705,74.9370289 C23.7617014,75.558821 21.9621239,77.8325125 21.6018889,78.2737884 C19.6051714,80.7197012 17.9248202,80.7981237 16.0909848,79.3745132 C16.0933184,79.3763247 15.9051,79.229461 15.8568054,79.19243 C15.392097,78.8361035 13.465308,76.9678098 8.66792983,72.262853 C3.2137945,66.9137277 2.08271268,65.8102351 1.68138204,65.4665202 C0.156602652,64.1606409 -0.0937788745,63.2801616 0.716847495,61.5647238 C1.18717589,60.5694205 1.51744284,59.5898243 2.05131605,57.6722248 C2.07007474,57.6048461 2.08973059,57.5354198 2.11131542,57.4601567 C2.10960613,57.4661168 2.29140104,56.8408741 2.34307598,56.6558048 C2.42988275,56.344914 2.50229,56.0622794 2.57152422,55.7571787 C2.73384384,55.0418701 2.87306985,54.2215655 2.99899651,53.1795028 C3.01401349,51.0877452 3.62214697,48.310122 4.53677118,46.7177681 C4.84229583,45.9155752 5.76433335,44.5418434 7.4951085,42.1513327 C7.55986236,42.0618961 7.62596919,41.9707543 7.6936887,41.8775424 C7.6166519,41.983579 9.88676502,38.8825608 10.260904,38.348367 C11.6842024,36.316189 13.218039,35.4498287 16.2910217,34.5906874 C17.264998,34.3183842 19.3669759,33.9067726 22.4510865,33.3632851 C22.8039331,33.3011058 23.1683509,33.2374438 23.5446798,33.1722103 C25.553448,32.8240069 30.64741,31.9733729 30.8148597,31.9440424 C32.5152047,31.8310133 33.7403272,31.8126667 36.696,31.8126667 C38.1384501,31.8126667 39.1048036,32.1846167 39.6447327,33.1634006 C40.0209102,33.8453354 40.0650856,34.3472253 40.0650856,36.0173333 C40.0650856,36.3643824 40.1445334,36.6997156 40.262067,36.9120868 C40.7110741,36.9283683 40.8992645,36.9335672 41.1536793,36.9532582 C41.443405,36.9756822 41.7262722,37.0159717 42.0692638,37.0833119 C43.0384448,37.4579707 43.452612,37.9542857 43.7283839,38.6298511 C45.4787973,38.7617115 46.144039,39.7516691 46.0785869,41.1635357 C46.0674401,41.3800033 46.0656667,41.4242665 46.0656667,41.4663333 L46.0656667,51.2039103 C46.2154511,51.2463862 46.4035823,51.1668863 46.7902635,51.0048517 C47.2802902,50.8077924 54.9659233,47.8356824 57.5045983,46.8504891 C63.5767189,44.4937961 67.3100225,43.0246961 67.9002773,42.7498721 C68.0260558,42.5373283 68.0052758,42.2531987 67.9584078,41.67081 C67.7730511,38.8042017 68.4165085,38.0913427 71.5587705,36.9982329 C75.137686,35.8958122 77.0354433,35.4525648 80.0902719,34.9736137 C82.3287762,34.5792792 85.519282,34.3232528 88.664472,34.1973575 C89.4901651,34.1643068 89.4543284,34.2246692 89.3516759,33.6906075 C89.1119295,32.4432995 88.1209363,24.2432552 88.0594855,22.5261109 C87.9847145,20.4367536 88.7727649,19.6014521 90.519126,19.3414899 C90.9601402,19.2756447 91.0566173,19.2590703 91.1490619,19.2408435 Z M68.2032315,42.6437675 C68.2065007,42.6423857 68.209339,42.6411009 68.2117508,42.6399225 C68.2108729,42.6403515 68.2099344,42.6408323 68.2089375,42.6413656 L68.2032315,42.6437675 Z M45.9955137,51.3273286 C45.9849947,51.3270161 45.975601,51.327379 45.9676343,51.3283308 C45.9831489,51.3264772 45.9918372,51.3264844 46.0015694,51.3252665 L45.9955137,51.3273286 Z M47.7378196,55.6262265 C47.7423228,55.6234737 47.7463835,55.620813 47.7500333,55.6182647 C47.7486209,55.6192508 47.7470888,55.6203587 47.7454403,55.6215877 L47.7378196,55.6262265 Z M146.445033,36.4371616 C146.744638,36.383237 146.936383,36.339591 147.066202,36.2965563 C147.073263,36.2043512 147.07251,36.0687122 147.059251,35.8745684 C146.980481,33.9050756 145.264937,18.6526556 144.984709,16.8201569 C144.971343,16.7327551 144.961728,16.6608823 144.944179,16.5226066 C144.933811,16.4408233 144.929467,16.4070366 144.923965,16.3661875 C144.880869,16.0462167 144.849651,15.9593714 144.836971,15.9480174 C144.819492,15.9323681 144.765306,15.9057887 144.641575,15.8767878 C144.4212,15.8251347 144.10152,15.8048612 143.675807,15.8286696 C139.517114,16.0612492 125.57341,17.0394601 124.543578,17.2117816 C123.989246,17.3045378 125.300557,17.1253128 108.038074,19.476718 C97.5060059,20.9114064 92.1626405,21.6502855 91.6442714,21.7524899 C91.5134259,21.778288 91.3832511,21.8006515 91.2369356,21.8232404 C91.1521583,21.8363288 90.8347426,21.8826478 90.8968746,21.8734647 C90.7816411,21.8904897 90.6962707,21.9045063 90.6317282,21.9170139 C90.6159997,22.0397984 90.6098691,22.2116047 90.6178478,22.4345558 C90.6743451,24.0132815 91.6496751,32.0837195 91.8656574,33.2073925 C92.2376115,35.1425258 91.3412953,36.65226 88.7668614,36.7553091 C85.7287483,36.8769184 82.6305419,37.1255381 80.5106921,37.4987412 C77.5611504,37.9614055 75.7835854,38.3760952 72.3778432,39.4237724 C70.2348153,40.1683694 70.4133416,39.9756592 70.5023356,41.3668035 C70.5062284,41.4164115 70.5062284,41.4164115 70.5101582,41.4654565 C70.6234734,42.873527 70.6270788,42.959928 70.513095,43.4598392 C70.3205685,44.3042236 69.7499536,44.8527954 68.8821526,45.1152497 C68.7473545,45.1748342 68.5489156,45.2584291 68.2884002,45.365468 C72.126815,44.8801217 85.2676422,43.3771574 105.863435,41.0543981 C106.13001,41.0243349 106.13001,41.0243349 106.396601,40.9942734 C117.467866,39.7458777 144.438182,36.7190552 145.512771,36.5961276 C145.717329,36.5609439 146.3029,36.4627435 146.445033,36.4371616 Z M44.1493645,52.9298507 C43.9634792,52.6924708 43.794505,52.4115964 43.6338209,52.0800589 L43.5056667,51.8156398 L43.5056667,41.4663333 C43.5056667,41.4162962 43.5063501,41.3735815 43.5080329,41.3242322 C42.9857,41.3332978 42.5249074,41.1972152 42.1398236,40.8825105 C41.7732649,40.5829453 41.6198907,40.2982787 41.4353318,39.8012332 C41.3531714,39.5799627 41.3759007,39.6405951 41.3582519,39.5973604 C41.2003469,39.5297719 41.0781752,39.5150706 40.9561327,39.5056248 C40.7552489,39.490077 40.5883654,39.487171 40.0636919,39.487171 C38.4335569,39.487171 37.5050856,37.8095177 37.5050856,36.0173333 C37.5050856,34.1367873 37.6352044,34.3726667 36.696,34.3726667 C33.8380044,34.3726667 32.6390766,34.3899689 31.1824295,34.4782623 C30.5199247,34.5901701 25.8685345,35.3675653 23.9819143,35.6945953 C23.6078693,35.7594329 23.2457924,35.822686 22.8953687,35.8844383 C19.9087323,36.4107487 17.8393294,36.8159814 16.9803116,37.0561447 C14.424194,37.7707813 13.3763445,38.3626405 12.3577626,39.8169663 C11.9656117,40.3768773 9.66940122,43.5135451 9.76480248,43.382231 C9.69788538,43.4743384 9.63259546,43.5643539 9.56867747,43.6526361 C8.7955199,44.7205052 8.20108384,45.5654239 7.74770139,46.249017 C7.26983688,46.9695232 6.96852301,47.4930936 6.93307379,47.6153521 L6.88557309,47.7791741 L6.79683072,47.9248408 C6.10436574,49.0614911 5.55871193,51.5351471 5.55871193,53.2583709 L5.54973162,53.4097279 C5.41131921,54.5720455 5.25465175,55.5013963 5.06805314,56.3236973 C4.98889233,56.6725424 4.90624209,56.9951596 4.8087629,57.3442727 C4.75272967,57.5449508 4.56706888,58.1834893 4.57211504,58.1658941 C4.55225914,58.2351286 4.53437973,58.2982804 4.51752128,58.3588337 C3.94774758,60.4053829 3.57828708,61.50123 3.03143297,62.6584761 C2.9455279,62.8402674 2.88888933,62.9741659 2.85553162,63.0698026 C2.95021078,63.1726393 3.10107223,63.3118517 3.34661796,63.5221465 C3.82152566,63.9288755 4.75980433,64.8442678 10.4345095,70.4097165 C14.8927493,74.7820685 17.0872922,76.9099874 17.4145279,77.1609033 C17.4729617,77.2057089 17.6709266,77.3601776 17.6608131,77.3523264 C18.0549381,77.6582866 18.2165405,77.7389824 18.3207272,77.7343241 C18.5499724,77.723421 18.975621,77.4427239 19.6187777,76.6548783 C19.9634635,76.2326496 21.7597084,73.9631687 22.2779095,73.3243244 C22.5899516,72.9396353 22.8824054,72.5848038 23.1636599,72.2504637 C25.0719996,69.981932 26.4257681,68.6746087 27.5824549,68.2560469 C29.3739667,67.6077657 40.3234249,62.2420038 40.9937415,61.6892865 C41.0291754,61.6308437 41.0858738,61.5497849 41.1536254,61.4461916 C41.2927838,61.2334163 41.4679301,60.9423432 41.6883891,60.5589092 C41.94606,60.110754 42.9937205,58.2273504 43.1513485,57.948041 C43.3173869,57.6538288 43.470844,57.3850727 43.6182145,57.1309002 C44.5462375,55.5303226 45.2117096,54.4961121 45.8366659,53.8828437 C45.1862038,53.8404682 44.6085777,53.5162769 44.1493645,52.9298507 Z M43.8574721,41.2980584 C43.8554758,41.2971054 43.853475,41.296132 43.8514702,41.2951382 L43.7273333,41.304 C43.7544587,41.304 43.7780605,41.3044798 43.7981775,41.305181 C43.8178654,41.3029883 43.8376305,41.3006136 43.8574721,41.2980584 Z M43.5244574,40.8877032 C43.5241313,40.8795687 43.523662,40.8733142 43.5230846,40.8687652 C43.5233037,40.8704914 43.5235462,40.8722501 43.5238128,40.8740408 L43.5244574,40.8877032 Z M90.9015455,21.8727753 C90.9001634,21.8729791 90.8987857,21.8731824 90.8974121,21.8733853 C90.8982448,21.8732622 90.8997996,21.8730327 90.9015455,21.8727753 Z" id="Path-9" fill="#EBEBEB" fill-rule="nonzero"></path>
                <path d="M90.528094,18.0601612 C90.5251019,18.0606024 90.5221125,18.0610453 90.519126,18.0614899 C90.5205062,18.0612823 90.5234322,18.0608486 90.528094,18.0601612 Z M91.1490619,17.9608435 C91.7513621,17.8420908 96.8145887,17.1419493 107.573266,15.6763916 C124.535552,13.3658772 123.610886,13.492257 124.121088,13.4068851 C125.292502,13.2108728 139.215328,12.2341265 143.53286,11.9926637 C146.101763,11.8489949 147.203999,12.8358939 147.461057,14.7444791 C147.498687,15.0375307 147.506238,15.0939743 147.515291,15.1531764 C147.808701,17.0718752 149.533949,32.4105647 149.615067,34.4535166 C149.758349,36.4885423 148.918505,37.313107 146.89851,37.6766772 C146.727753,37.707411 146.058576,37.8194989 145.91593,37.8444067 C145.525535,37.8931093 117.892248,40.9942479 106.683449,42.258152 C106.416881,42.288211 106.416881,42.288211 106.150328,42.3182715 C82.8159647,44.9498823 68.5839244,46.5837183 67.6382654,46.7558829 C66.8037068,46.9078208 63.4204109,48.1734703 57.8946372,50.3652068 C57.6999445,50.442448 57.6999445,50.442448 57.5053152,50.519734 C56.2592301,51.0146527 51.9438491,52.738895 51.1386585,53.0585542 C49.2070089,53.8254158 48.1729595,54.2242366 47.7129922,54.3684622 C47.5235764,54.554068 47.359529,54.753086 47.1690962,55.0150802 C46.8012798,55.5211153 46.363657,56.219538 45.8328817,57.1349755 C45.6908793,57.3798896 45.5422547,57.6401823 45.3808181,57.9262402 C45.2311272,58.1914855 44.1762095,60.0879355 43.9077083,60.5549272 C43.3239527,61.5702264 42.9994468,62.066401 42.6482823,62.3628072 C41.7223882,63.1443233 30.5115458,68.6385727 28.4535451,69.3832864 C27.9018019,69.5829417 26.6995474,70.7439491 25.1226844,72.618439 C24.8519267,72.9403013 24.5690192,73.2835503 24.2660705,73.6570289 C23.7617014,74.278821 21.9621239,76.5525125 21.6018889,76.9937884 C19.6051714,79.4397012 17.9248202,79.5181237 16.0909848,78.0945132 C16.0933184,78.0963247 15.9051,77.949461 15.8568054,77.91243 C15.392097,77.5561035 13.465308,75.6878098 8.66792983,70.982853 C3.2137945,65.6337277 2.08271268,64.5302351 1.68138204,64.1865202 C0.156602652,62.8806409 -0.0937788745,62.0001616 0.716847495,60.2847238 C1.18717589,59.2894205 1.51744284,58.3098243 2.05131605,56.3922248 C2.07007474,56.3248461 2.08973059,56.2554198 2.11131542,56.1801567 C2.10960613,56.1861168 2.29140104,55.5608741 2.34307598,55.3758048 C2.42988275,55.064914 2.50229,54.7822794 2.57152422,54.4771787 C2.73384384,53.7618701 2.87306985,52.9415655 2.99899651,51.8995028 C3.01401349,49.8077452 3.62214697,47.030122 4.53677118,45.4377681 C4.84229583,44.6355752 5.76433335,43.2618434 7.4951085,40.8713327 C7.55986236,40.7818961 7.62596919,40.6907543 7.6936887,40.5975424 C7.6166519,40.703579 9.88676502,37.6025608 10.260904,37.068367 C11.6842024,35.036189 13.218039,34.1698287 16.2910217,33.3106874 C17.264998,33.0383842 19.3669759,32.6267726 22.4510865,32.0832851 C22.8039331,32.0211058 23.1683509,31.9574438 23.5446798,31.8922103 C25.553448,31.5440069 30.64741,30.6933729 30.8148597,30.6640424 C32.5152047,30.5510133 33.7403272,30.5326667 36.696,30.5326667 C38.1384501,30.5326667 39.1048036,30.9046167 39.6447327,31.8834006 C40.0209102,32.5653354 40.0650856,33.0672253 40.0650856,34.7373333 C40.0650856,35.0843824 40.1445334,35.4197156 40.262067,35.6320868 C40.7110741,35.6483683 40.8992645,35.6535672 41.1536793,35.6732582 C41.443405,35.6956822 41.7262722,35.7359717 42.0692638,35.8033119 C43.0384448,36.1779707 43.452612,36.6742857 43.7283839,37.3498511 C45.4787973,37.4817115 46.144039,38.4716691 46.0785869,39.8835357 C46.0674401,40.1000033 46.0656667,40.1442665 46.0656667,40.1863333 L46.0656667,49.9239103 C46.2154511,49.9663862 46.4035823,49.8868863 46.7902635,49.7248517 C47.2802902,49.5277924 54.9659233,46.5556824 57.5045983,45.5704891 C63.5767189,43.2137961 67.3100225,41.7446961 67.9002773,41.4698721 C68.0260558,41.2573283 68.0052758,40.9731987 67.9584078,40.39081 C67.7730511,37.5242017 68.4165085,36.8113427 71.5587705,35.7182329 C75.137686,34.6158122 77.0354433,34.1725648 80.0902719,33.6936137 C82.3287762,33.2992792 85.519282,33.0432528 88.664472,32.9173575 C89.4901651,32.8843068 89.4543284,32.9446692 89.3516759,32.4106075 C89.1119295,31.1632995 88.1209363,22.9632552 88.0594855,21.2461109 C87.9847145,19.1567536 88.7727649,18.3214521 90.519126,18.0614899 C90.9601402,17.9956447 91.0566173,17.9790703 91.1490619,17.9608435 Z M68.2032315,41.3637675 C68.2065007,41.3623857 68.209339,41.3611009 68.2117508,41.3599225 C68.2108729,41.3603515 68.2099344,41.3608323 68.2089375,41.3613656 L68.2032315,41.3637675 Z M45.9955137,50.0473286 C45.9849947,50.0470161 45.975601,50.047379 45.9676343,50.0483308 C45.9831489,50.0464772 45.9918372,50.0464844 46.0015694,50.0452665 L45.9955137,50.0473286 Z M47.7378196,54.3462265 C47.7423228,54.3434737 47.7463835,54.340813 47.7500333,54.3382647 C47.7486209,54.3392508 47.7470888,54.3403587 47.7454403,54.3415877 L47.7378196,54.3462265 Z M146.445033,35.1571616 C146.744638,35.103237 146.936383,35.059591 147.066202,35.0165563 C147.073263,34.9243512 147.07251,34.7887122 147.059251,34.5945684 C146.980481,32.6250756 145.264937,17.3726556 144.984709,15.5401569 C144.971343,15.4527551 144.961728,15.3808823 144.944179,15.2426066 C144.933811,15.1608233 144.929467,15.1270366 144.923965,15.0861875 C144.880869,14.7662167 144.849651,14.6793714 144.836971,14.6680174 C144.819492,14.6523681 144.765306,14.6257887 144.641575,14.5967878 C144.4212,14.5451347 144.10152,14.5248612 143.675807,14.5486696 C139.517114,14.7812492 125.57341,15.7594601 124.543578,15.9317816 C123.989246,16.0245378 125.300557,15.8453128 108.038074,18.196718 C97.5060059,19.6314064 92.1626405,20.3702855 91.6442714,20.4724899 C91.5134259,20.498288 91.3832511,20.5206515 91.2369356,20.5432404 C91.1521583,20.5563288 90.8347426,20.6026478 90.8968746,20.5934647 C90.7816411,20.6104897 90.6962707,20.6245063 90.6317282,20.6370139 C90.6159997,20.7597984 90.6098691,20.9316047 90.6178478,21.1545558 C90.6743451,22.7332815 91.6496751,30.8037195 91.8656574,31.9273925 C92.2376115,33.8625258 91.3412953,35.37226 88.7668614,35.4753091 C85.7287483,35.5969184 82.6305419,35.8455381 80.5106921,36.2187412 C77.5611504,36.6814055 75.7835854,37.0960952 72.3778432,38.1437724 C70.2348153,38.8883694 70.4133416,38.6956592 70.5023356,40.0868035 C70.5062284,40.1364115 70.5062284,40.1364115 70.5101582,40.1854565 C70.6234734,41.593527 70.6270788,41.679928 70.513095,42.1798392 C70.3205685,43.0242236 69.7499536,43.5727954 68.8821526,43.8352497 C68.7473545,43.8948342 68.5489156,43.9784291 68.2884002,44.085468 C72.126815,43.6001217 85.2676422,42.0971574 105.863435,39.7743981 C106.13001,39.7443349 106.13001,39.7443349 106.396601,39.7142734 C117.467866,38.4658777 144.438182,35.4390552 145.512771,35.3161276 C145.717329,35.2809439 146.3029,35.1827435 146.445033,35.1571616 Z M44.1493645,51.6498507 C43.9634792,51.4124708 43.794505,51.1315964 43.6338209,50.8000589 L43.5056667,50.5356398 L43.5056667,40.1863333 C43.5056667,40.1362962 43.5063501,40.0935815 43.5080329,40.0442322 C42.9857,40.0532978 42.5249074,39.9172152 42.1398236,39.6025105 C41.7732649,39.3029453 41.6198907,39.0182787 41.4353318,38.5212332 C41.3531714,38.2999627 41.3759007,38.3605951 41.3582519,38.3173604 C41.2003469,38.2497719 41.0781752,38.2350706 40.9561327,38.2256248 C40.7552489,38.210077 40.5883654,38.207171 40.0636919,38.207171 C38.4335569,38.207171 37.5050856,36.5295177 37.5050856,34.7373333 C37.5050856,32.8567873 37.6352044,33.0926667 36.696,33.0926667 C33.8380044,33.0926667 32.6390766,33.1099689 31.1824295,33.1982623 C30.5199247,33.3101701 25.8685345,34.0875653 23.9819143,34.4145953 C23.6078693,34.4794329 23.2457924,34.542686 22.8953687,34.6044383 C19.9087323,35.1307487 17.8393294,35.5359814 16.9803116,35.7761447 C14.424194,36.4907813 13.3763445,37.0826405 12.3577626,38.5369663 C11.9656117,39.0968773 9.66940122,42.2335451 9.76480248,42.102231 C9.69788538,42.1943384 9.63259546,42.2843539 9.56867747,42.3726361 C8.7955199,43.4405052 8.20108384,44.2854239 7.74770139,44.969017 C7.26983688,45.6895232 6.96852301,46.2130936 6.93307379,46.3353521 L6.88557309,46.4991741 L6.79683072,46.6448408 C6.10436574,47.7814911 5.55871193,50.2551471 5.55871193,51.9783709 L5.54973162,52.1297279 C5.41131921,53.2920455 5.25465175,54.2213963 5.06805314,55.0436973 C4.98889233,55.3925424 4.90624209,55.7151596 4.8087629,56.0642727 C4.75272967,56.2649508 4.56706888,56.9034893 4.57211504,56.8858941 C4.55225914,56.9551286 4.53437973,57.0182804 4.51752128,57.0788337 C3.94774758,59.1253829 3.57828708,60.22123 3.03143297,61.3784761 C2.9455279,61.5602674 2.88888933,61.6941659 2.85553162,61.7898026 C2.95021078,61.8926393 3.10107223,62.0318517 3.34661796,62.2421465 C3.82152566,62.6488755 4.75980433,63.5642678 10.4345095,69.1297165 C14.8927493,73.5020685 17.0872922,75.6299874 17.4145279,75.8809033 C17.4729617,75.9257089 17.6709266,76.0801776 17.6608131,76.0723264 C18.0549381,76.3782866 18.2165405,76.4589824 18.3207272,76.4543241 C18.5499724,76.443421 18.975621,76.1627239 19.6187777,75.3748783 C19.9634635,74.9526496 21.7597084,72.6831687 22.2779095,72.0443244 C22.5899516,71.6596353 22.8824054,71.3048038 23.1636599,70.9704637 C25.0719996,68.701932 26.4257681,67.3946087 27.5824549,66.9760469 C29.3739667,66.3277657 40.3234249,60.9620038 40.9937415,60.4092865 C41.0291754,60.3508437 41.0858738,60.2697849 41.1536254,60.1661916 C41.2927838,59.9534163 41.4679301,59.6623432 41.6883891,59.2789092 C41.94606,58.830754 42.9937205,56.9473504 43.1513485,56.668041 C43.3173869,56.3738288 43.470844,56.1050727 43.6182145,55.8509002 C44.5462375,54.2503226 45.2117096,53.2161121 45.8366659,52.6028437 C45.1862038,52.5604682 44.6085777,52.2362769 44.1493645,51.6498507 Z M43.8574721,40.0180584 C43.8554758,40.0171054 43.853475,40.016132 43.8514702,40.0151382 L43.7273333,40.024 C43.7544587,40.024 43.7780605,40.0244798 43.7981775,40.025181 C43.8178654,40.0229883 43.8376305,40.0206136 43.8574721,40.0180584 Z M43.5244574,39.6077032 C43.5241313,39.5995687 43.523662,39.5933142 43.5230846,39.5887652 C43.5233037,39.5904914 43.5235462,39.5922501 43.5238128,39.5940408 L43.5244574,39.6077032 Z M90.9015455,20.5927753 C90.9001634,20.5929791 90.8987857,20.5931824 90.8974121,20.5933853 C90.8982448,20.5932622 90.8997996,20.5930327 90.9015455,20.5927753 Z" id="Path-9" fill="#F2F2F2" fill-rule="nonzero"></path>
                <path d="M90.6214569,18.6933147 C90.6161136,18.6941026 90.6129078,18.6945781 90.6115835,18.6947782 C90.61487,18.6942885 90.6181611,18.6938007 90.6214569,18.6933147 Z M91.2728643,18.5887551 C91.8541817,18.4741395 96.987443,17.7643135 107.659649,16.310535 C124.726804,13.9857361 123.705476,14.1253272 124.226711,14.0381092 C125.362729,13.8480196 139.290775,12.8709072 143.568596,12.6316652 C145.792349,12.5072994 146.612917,13.2420048 146.826784,14.8299062 C146.864447,15.1233686 146.872514,15.1836695 146.882646,15.2499215 C147.17276,17.1470703 148.895582,32.4641924 148.976648,34.4984663 C149.094015,36.1654286 148.513081,36.7357939 146.78514,37.0467983 C146.619043,37.0766934 145.952148,37.1883993 145.805844,37.2139458 C145.452116,37.2573279 117.826703,40.3575829 106.611737,41.6221823 C106.345163,41.6522419 106.345163,41.6522419 106.078605,41.6823031 C82.628612,44.3269545 68.4934665,45.9496669 67.5236327,46.1262327 C66.6234504,46.2901179 63.2709502,47.5442471 57.658672,49.7702947 C57.4638355,49.8475929 57.4638355,49.8475929 57.2690725,49.9249321 C56.0221573,50.4201804 51.7068382,52.144398 50.9025085,52.4637154 C48.8167293,53.2917661 47.7620567,53.6959629 47.4207823,53.7874888 C47.1592981,53.8576159 46.3388836,54.9863275 45.2792149,56.8139567 C45.1358704,57.0611854 44.9860377,57.3235939 44.8234507,57.6116904 C44.6717755,57.8804517 43.6186721,59.7736401 43.3528785,60.2359227 C42.8186604,61.1650635 42.5026871,61.6481917 42.2354745,61.8737369 C41.3819041,62.594207 30.2279078,68.0605971 28.2357725,68.7814765 C27.5327934,69.0358584 26.2926604,70.2334448 24.6329283,72.2064452 C24.3595464,72.5314269 24.0742523,72.8775715 23.7690302,73.2538528 C23.2612032,73.8799079 21.4624588,76.1525468 21.1061111,76.5890609 C19.3418312,78.7502452 18.0566178,78.8102266 16.4834419,77.5889665 C16.4877204,77.5922879 16.2970654,77.443523 16.246236,77.4045483 C15.8158958,77.0745745 13.8221683,75.1413745 9.11605541,70.5259247 C3.60029696,65.1163627 2.51741593,64.0598952 2.09769102,63.7004268 C0.780090725,62.5719836 0.616203882,61.9956672 1.29549386,60.5581619 C1.78495368,59.5223729 2.12501903,58.513714 2.66786735,56.563877 C2.68615099,56.4982047 2.70536273,56.430347 2.72651533,56.356591 C2.72397181,56.3654599 2.9067332,55.7368932 2.95949771,55.5479218 C3.04897259,55.2274754 3.12394058,54.9348451 3.19565645,54.6188083 C3.36492977,53.8728563 3.50916433,53.0201604 3.63878541,51.9396453 C3.64640552,49.9258108 4.24602754,47.1939558 5.11766608,45.711888 C5.36232255,45.0174625 6.29714659,43.6172512 8.01350075,41.2466586 C8.07804563,41.1575105 8.14394824,41.0666503 8.21146714,40.9737146 C8.12983923,41.0860705 10.4064767,37.9761399 10.7851187,37.4355168 C12.1072379,35.5478019 13.5195778,34.7500669 16.4633442,33.9270517 C17.4085808,33.6627835 19.502415,33.2527667 22.5621571,32.7135734 C22.914398,32.6515008 23.2782305,32.5879411 23.6539884,32.5228065 C25.659949,32.1750899 30.7546595,31.3243308 30.9252808,31.2944448 C32.5369965,31.1908871 33.7536911,31.1726667 36.696,31.1726667 C39.0032181,31.1726667 39.4250856,31.9374283 39.4250856,34.7373333 C39.4250856,35.610163 39.7997652,36.287171 40.0636919,36.287171 C40.6407555,36.287171 40.835768,36.2905668 41.1042927,36.3113499 C41.367827,36.3317468 41.6262918,36.3685605 41.9459652,36.4313226 C42.6136511,36.6946207 42.9190244,37.0605631 43.1358509,37.5917284 C43.2007445,37.759451 43.213887,37.7950373 43.2352568,37.8528995 C43.3589388,38.1859942 43.3217967,38.1556403 43.6364212,38.11049 C45.0461227,38.104 45.4901768,38.7558631 45.4392735,39.8538981 C45.4277165,40.0779485 45.4256667,40.1291089 45.4256667,40.1863333 L45.4256667,50.0898459 C45.5074033,50.2455841 45.5859915,50.3702733 45.661035,50.4661057 C45.9109192,50.7852138 45.9177171,50.7844016 47.0376101,50.3151226 C47.513457,50.1238173 55.1933519,47.1539263 57.7361414,46.1671363 C63.8492426,43.7945379 67.5595431,42.33449 68.1704168,42.0500657 C68.7215437,41.8928365 68.7214029,41.8934537 68.5963454,40.3394716 C68.4330477,37.815878 68.87078,37.3309332 71.7910603,36.3154887 C75.2972522,35.2363285 77.1652855,34.8000235 80.2013045,34.3239087 C82.4042176,33.9358439 85.5716486,33.6816692 88.6900693,33.5568454 C89.9529476,33.5062951 90.1501492,33.1741333 89.9801713,32.2898038 C89.7463659,31.0734045 88.7592885,22.9057618 88.6990761,21.2232221 C88.6366624,19.4791724 89.1729278,18.9091468 90.6115835,18.6947782 C91.0659179,18.6268964 91.1708195,18.6088748 91.2728643,18.5887551 Z M146.558402,35.7870405 C147.702232,35.5811675 147.765347,35.5192014 147.698739,34.5689922 C147.618848,32.5714478 145.900878,17.2974605 145.617354,15.4434118 C145.605067,15.3630599 145.595968,15.2950444 145.579086,15.1620261 C145.430754,14.0542267 145.173519,13.8239083 143.64007,13.9096681 C139.441667,14.1444685 125.503183,15.1223133 124.437956,15.3005574 C123.894656,15.3914676 125.109306,15.2254539 107.951695,17.562574 C97.3331516,19.0090421 92.0598209,19.7382368 91.520469,19.8445783 C91.0557447,19.9236314 90.7303576,19.9710978 90.8081258,19.9596301 C89.9752159,20.0824499 89.9403872,20.1192282 89.9782572,21.1774445 C90.0359929,22.7907749 91.0152387,30.8936145 91.2371621,32.0481962 C91.5417907,33.6330616 90.8785127,34.7502717 88.741264,34.8358212 C85.6763818,34.958502 82.5551004,35.2089734 80.4115147,35.5864724 C77.4249697,36.054941 75.6163846,36.4773611 72.1896069,37.5316401 C69.779323,38.370114 69.753041,38.3992308 69.8642733,40.1365684 C69.9765884,41.5336834 69.9808288,41.6353013 69.8891093,42.0375654 C69.7487855,42.6529986 69.3416809,43.0376677 68.6604753,43.2334103 C67.8873343,43.581449 64.253392,45.0107066 58.3185952,47.3141045 C55.6482091,48.350414 47.9797906,51.3158669 47.6966059,51.4284474 C47.5646944,51.4820911 47.0387676,51.7078363 46.8962322,51.7633042 C46.6333926,51.8655887 46.4156669,51.9284571 46.1954047,51.9547727 C45.5952095,52.0264805 45.0778184,51.7974471 44.6532546,51.255269 C44.4978437,51.0568056 44.3518348,50.8141048 44.2097438,50.5209301 L44.1456667,40.1863333 C44.1456667,40.0987935 44.1482692,40.0338388 44.1561548,39.8836707 C44.1806241,39.3636913 44.2032533,39.3822963 43.7713108,39.3839123 C42.800359,39.5093494 42.3426753,39.1262457 42.0353068,38.2984553 C41.9477752,38.0627192 41.9725193,38.1287263 41.9507849,38.075483 C41.8613854,37.8564788 41.7810901,37.7494744 41.6287159,37.673737 C41.3894199,37.6285871 41.1980902,37.6024377 41.0055194,37.5875332 C40.7820886,37.5702402 40.6058288,37.567171 40.0636919,37.567171 C38.8889596,37.567171 38.1450856,36.2230662 38.1450856,34.7373333 C38.1450856,32.5503343 38.0912089,32.4526667 36.696,32.4526667 C33.8025906,32.4526667 32.5989278,32.4703624 31.1094538,32.561521 C30.6139235,32.6455827 25.8024792,33.4494714 23.8726057,33.783999 C23.4979897,33.8489356 23.1353276,33.9122909 22.7842982,33.97415 C19.7732932,34.5047547 17.6957465,34.9115821 16.8079892,35.1597804 C14.1226553,35.9105432 12.9533089,36.5710276 11.833548,38.1698165 C11.4459001,38.7232982 9.15621389,41.8510536 9.24702403,41.7260588 C9.17990634,41.8184423 9.11441218,41.9087394 9.05028523,41.9973102 C7.41458322,44.2565078 6.44606217,45.7168077 6.31839141,46.1571231 C5.48908791,47.5613136 4.91871193,50.1470446 4.91871193,51.9783709 C4.77836004,53.1949477 4.62538611,54.1023885 4.44392091,54.9020676 C4.36724174,55.2399766 4.28715226,55.5525982 4.19234117,55.8921557 C4.13739751,56.0889316 3.95270319,56.7241462 3.95691514,56.7094597 C3.936627,56.7802014 3.91830349,56.8449218 3.90096997,56.9071815 C3.3401714,58.9214932 2.98050928,59.9882776 2.4527866,61.105038 C2.03616939,61.9866784 2.02706687,61.9546689 2.93030898,62.7282399 C3.38682241,63.1192154 4.37330187,64.0816328 9.98638124,69.5866421 C14.535889,74.0485038 16.6634934,76.1115164 17.0250973,76.388785 C17.0809963,76.4316469 17.2765245,76.5842144 17.268356,76.5778731 C18.3202132,77.3944323 18.815151,77.3713333 20.1145555,75.7796058 C20.4631286,75.3526153 22.2602066,73.0820818 22.7749498,72.4475005 C23.0847185,72.065614 23.3747857,71.7136782 23.653416,71.3824575 C25.4788865,69.2124363 26.7947765,67.941692 27.8002275,67.5778568 C29.6606317,66.9046459 40.700936,61.4939744 41.4098589,60.8955964 C41.5091676,60.8117732 41.8080759,60.3547377 42.2432189,59.5979137 C42.5035974,59.1450494 43.5530722,57.2583842 43.7087159,56.9825908 C43.8736039,56.6904172 44.0258528,56.423777 44.1718813,56.171919 C45.501646,53.8784506 46.3155764,52.7586596 47.0892177,52.5511778 C47.3553121,52.4798143 48.4423845,52.0632005 50.4302086,51.2740378 C51.2328163,50.955404 55.5480117,49.2312359 56.796587,48.7353282 C56.9916174,48.6578828 56.9916174,48.6578828 57.1867415,48.5804705 C62.9720288,46.2858008 66.2629377,45.0547121 67.2943673,44.8669323 C68.3125507,44.6815641 82.2539066,43.0810987 105.935158,40.4103664 C106.201728,40.3803039 106.201728,40.3803039 106.468313,40.350243 C117.591962,39.0959406 144.796889,36.0428195 145.603829,35.9498705 C145.785496,35.9184581 146.407167,35.8142606 146.558402,35.7870405 Z" id="Path-9" fill="url(#linearGradient-1)" fill-rule="nonzero"></path>
                <path d="M90.6887073,43.4232201 L90.544274,42.151395 C100.343769,41.0385271 111.962579,39.7292419 126.441854,38.103339 L126.58469,39.3753445 C112.105907,41.001192 100.487542,42.3104273 90.6887073,43.4232201 Z" id="Path" fill="#FF9219" fill-rule="nonzero"></path>
                <path d="M126.603212,39.3852687 L126.460379,38.1132629 C135.471943,37.1013619 144.881974,36.0365807 145.585671,35.9530239 C145.769018,35.9210093 146.324742,35.8278949 146.40052,35.8148175 L146.618197,37.0761726 C146.537817,37.0900442 145.983783,37.1828754 145.772039,37.2189226 C145.029485,37.3080627 135.621148,38.3726522 126.603212,39.3852687 Z" id="Path" fill="#FFB819" fill-rule="nonzero"></path>
                <path d="M140.67935,12.8123988 L140.762533,14.0896931 C133.363625,14.5715399 125.309131,15.154784 124.437956,15.3005574 C123.894656,15.3914676 125.109306,15.2254539 107.951695,17.562574 L107.832417,17.5788218 C97.3331516,19.0090421 92.0598209,19.7382368 91.520469,19.8445783 L91.2728643,18.5887551 C91.8541817,18.4741395 96.987443,17.7643135 107.659649,16.310535 L107.778935,16.2942862 C124.726804,13.9857361 123.705476,14.1253272 124.226711,14.0381092 C125.166857,13.8807949 133.146828,13.3029472 140.67935,12.8123988 Z" id="Path" fill="#FFB819" fill-rule="nonzero"></path>
                <path d="M45.4256667,50.0898459 C45.5074033,50.2455841 45.5859915,50.3702733 45.661035,50.4661057 C45.9109192,50.7852138 45.9177171,50.7844016 47.0376101,50.3151226 C47.1027723,50.2878171 47.1638127,50.2628189 47.2237376,50.2389956 C47.513457,50.1238173 55.1933519,47.1539263 57.7361414,46.1671363 C63.8492426,43.7945379 67.5595431,42.33449 68.1704168,42.0500657 C68.7215437,41.8928365 68.7214029,41.8934537 68.5963454,40.3394716 C68.4330477,37.815878 68.87078,37.3309332 71.7910603,36.3154887 C72.3890618,36.1314316 72.933513,35.9681876 73.4391207,35.8214402 L73.7959036,37.0507107 C73.2972394,37.1954428 72.7593103,37.3567313 72.1896069,37.5316401 C69.779323,38.370114 69.753041,38.3992308 69.8642733,40.1365684 C69.9765884,41.5336834 69.9808288,41.6353013 69.8891093,42.0375654 C69.7487855,42.6529986 69.3416809,43.0376677 68.6604753,43.2334103 C67.8873343,43.581449 64.253392,45.0107066 58.3185952,47.3141045 C55.6482091,48.350414 47.9797906,51.3158669 47.6966059,51.4284474 C47.5646944,51.4820911 47.0387676,51.7078363 46.8962322,51.7633042 C46.6333926,51.8655887 46.4156669,51.9284571 46.1954047,51.9547727 C45.5952095,52.0264805 45.0778184,51.7974471 44.6532546,51.255269 C44.4978437,51.0568056 44.3518348,50.8141048 44.2097438,50.5209301 L44.1456667,50.3887206 L44.1456667,40.1863333 C44.1456667,40.0987935 44.1482692,40.0338388 44.1561548,39.8836707 C44.1806241,39.3636913 44.2032533,39.3822963 43.7713108,39.3839123 C42.800359,39.5093494 42.3426753,39.1262457 42.0353068,38.2984553 C41.9477752,38.0627192 41.9725193,38.1287263 41.9507849,38.075483 C41.8613854,37.8564788 41.7810901,37.7494744 41.6287159,37.673737 C41.3894199,37.6285871 41.1980902,37.6024377 41.0055194,37.5875332 C40.7820886,37.5702402 40.6058288,37.567171 40.0636919,37.567171 C38.8889596,37.567171 38.1450856,36.2230662 38.1450856,34.7373333 C38.1450856,32.5503343 38.0912089,32.4526667 36.696,32.4526667 C33.8025906,32.4526667 32.5989278,32.4703624 31.1094538,32.561521 C30.6139235,32.6455827 25.8024792,33.4494714 23.8726057,33.783999 C23.4979897,33.8489356 23.1353276,33.9122909 22.7842982,33.97415 C19.7732932,34.5047547 17.6957465,34.9115821 16.8079892,35.1597804 C14.1226553,35.9105432 12.9533089,36.5710276 11.833548,38.1698165 C11.4459001,38.7232982 9.15621389,41.8510536 9.24702403,41.7260588 C9.17990634,41.8184423 9.11441218,41.9087394 9.05028523,41.9973102 C7.41458322,44.2565078 6.44606217,45.7168077 6.31839141,46.1571231 L6.25026988,46.3118674 C5.48908791,47.5613136 4.91871193,50.1470446 4.91871193,51.9783709 C4.77836004,53.1949477 4.62538611,54.1023885 4.44392091,54.9020676 C4.36724174,55.2399766 4.28715226,55.5525982 4.19234117,55.8921557 C4.13739751,56.0889316 3.95270319,56.7241462 3.95691514,56.7094597 C3.936627,56.7802014 3.91830349,56.8449218 3.90096997,56.9071815 C3.3401714,58.9214932 2.98050928,59.9882776 2.4527866,61.105038 C2.03616939,61.9866784 2.02706687,61.9546689 2.93030898,62.7282399 C3.37682636,63.1106544 4.60026239,64.3048827 10.1612506,69.7621311 C12.6898246,72.2435201 14.1129437,73.6360534 15.2892331,74.7763209 L14.3983181,75.6953805 C13.2194823,74.5526445 11.7952193,73.1589919 9.28334888,70.6939948 C3.82614859,65.3385983 2.50726891,64.0512049 2.09769102,63.7004268 C0.780090725,62.5719836 0.616203882,61.9956672 1.29549386,60.5581619 C1.78495368,59.5223729 2.12501903,58.513714 2.66786735,56.563877 C2.68615099,56.4982047 2.70536273,56.430347 2.72651533,56.356591 C2.72397181,56.3654599 2.9067332,55.7368932 2.95949771,55.5479218 C3.04897259,55.2274754 3.12394058,54.9348451 3.19565645,54.6188083 C3.36492977,53.8728563 3.50916433,53.0201604 3.63878541,51.9396453 C3.64640552,49.9258108 4.24602754,47.1939558 5.11766608,45.711888 C5.36232255,45.0174625 6.29714659,43.6172512 8.01350075,41.2466586 C8.07804563,41.1575105 8.14394824,41.0666503 8.21146714,40.9737146 C8.12983923,41.0860705 10.4064767,37.9761399 10.7851187,37.4355168 C12.1072379,35.5478019 13.5195778,34.7500669 16.4633442,33.9270517 C17.4085808,33.6627835 19.502415,33.2527667 22.5621571,32.7135734 C22.914398,32.6515008 23.2782305,32.5879411 23.6539884,32.5228065 C25.659949,32.1750899 30.7546595,31.3243308 30.9252808,31.2944448 C32.5369965,31.1908871 33.7536911,31.1726667 36.696,31.1726667 C39.0032181,31.1726667 39.4250856,31.9374283 39.4250856,34.7373333 C39.4250856,35.610163 39.7997652,36.287171 40.0636919,36.287171 C40.6407555,36.287171 40.835768,36.2905668 41.1042927,36.3113499 C41.367827,36.3317468 41.6262918,36.3685605 41.9459652,36.4313226 C42.6136511,36.6946207 42.9190244,37.0605631 43.1358509,37.5917284 C43.153584,37.6351696 43.1706765,37.6792421 43.1900521,37.730928 C43.3589388,38.1859942 43.3217967,38.1556403 43.6364212,38.11049 C45.0461227,38.104 45.4901768,38.7558631 45.4392735,39.8538981 C45.4277165,40.0779485 45.4256667,40.1291089 45.4256667,40.1863333 L45.4256667,50.0898459 Z" id="Path-9" fill-opacity="0.2" fill="#000000" fill-rule="nonzero"></path>
                <path d="M14.4101752,75.6922459 L15.2984466,74.7706311 C16.2676713,75.7047898 16.8748366,76.2735689 17.0250973,76.388785 C17.0809963,76.4316469 17.2765245,76.5842144 17.268356,76.5778731 C18.3202132,77.3944323 18.815151,77.3713333 20.1145555,75.7796058 C20.4631286,75.3526153 22.2602066,73.0820818 22.7749498,72.4475005 C23.0847185,72.065614 23.3747857,71.7136782 23.653416,71.3824575 C25.4788865,69.2124363 26.7947765,67.941692 27.8002275,67.5778568 C29.6606317,66.9046459 40.700936,61.4939744 41.4098589,60.8955964 C41.5091676,60.8117732 41.8080759,60.3547377 42.2432189,59.5979137 C42.5035974,59.1450494 43.5530722,57.2583842 43.7087159,56.9825908 C43.8736039,56.6904172 44.0258528,56.423777 44.1718813,56.171919 C45.501646,53.8784506 46.3155764,52.7586596 47.0892177,52.5511778 C47.3553121,52.4798143 48.4423845,52.0632005 50.4302086,51.2740378 C51.2328163,50.955404 55.5480117,49.2312359 56.796587,48.7353282 C56.9916174,48.6578828 56.9916174,48.6578828 57.1867415,48.5804705 C62.9720288,46.2858008 66.2629377,45.0547121 67.2943673,44.8669323 C68.0625012,44.7270876 76.2101259,43.7792695 90.5127474,42.1549754 L90.6571836,43.4268001 C76.5170154,45.032645 68.2445221,45.9949892 67.5236327,46.1262327 C66.6234504,46.2901179 63.2709502,47.5442471 57.658672,49.7702947 C57.4638355,49.8475929 57.4638355,49.8475929 57.2690725,49.9249321 C56.0221573,50.4201804 51.7068382,52.144398 50.9025085,52.4637154 C48.8167293,53.2917661 47.7620567,53.6959629 47.4207823,53.7874888 C47.1592981,53.8576159 46.3388836,54.9863275 45.2792149,56.8139567 C45.1358704,57.0611854 44.9860377,57.3235939 44.8234507,57.6116904 C44.6717755,57.8804517 43.6186721,59.7736401 43.3528785,60.2359227 C42.8186604,61.1650635 42.5026871,61.6481917 42.2354745,61.8737369 C41.3819041,62.594207 30.2279078,68.0605971 28.2357725,68.7814765 C27.5327934,69.0358584 26.2926604,70.2334448 24.6329283,72.2064452 C24.3595464,72.5314269 24.0742523,72.8775715 23.7690302,73.2538528 C23.2612032,73.8799079 21.4624588,76.1525468 21.1061111,76.5890609 C19.3418312,78.7502452 18.0566178,78.8102266 16.4834419,77.5889665 C16.4877204,77.5922879 16.2970654,77.443523 16.246236,77.4045483 C16.0373212,77.2443578 15.4395601,76.6843882 14.4101752,75.6922459 Z" id="Path" fill-opacity="0.37" fill="#000000" fill-rule="nonzero"></path>
                <path d="M108.94795,2.57791667 L109.556283,2.57791667 C109.58545,2.82166667 109.831283,2.97791667 110.18545,2.97791667 C110.512533,2.97791667 110.743783,2.81958333 110.743783,2.5925 C110.743783,2.40083333 110.593783,2.29041667 110.225033,2.21125 L109.833366,2.12791667 C109.28545,2.01333333 109.0167,1.72791667 109.0167,1.26958333 C109.0167,0.702916667 109.47295,0.33 110.1667,0.33 C110.8292,0.33 111.29795,0.700833333 111.3167,1.23625 L110.725033,1.23625 C110.695866,0.99875 110.475033,0.840416667 110.170866,0.840416667 C109.856283,0.840416667 109.64795,0.98625 109.64795,1.21541667 C109.64795,1.40083333 109.7917,1.50708333 110.143783,1.58208333 L110.506283,1.65916667 C111.11045,1.78625 111.370866,2.04666667 111.370866,2.51333333 C111.370866,3.11958333 110.906283,3.49041667 110.152116,3.49041667 C109.43545,3.49041667 108.970866,3.13833333 108.94795,2.57791667 Z M112.631283,3.41333333 L112.631283,1.01958333 L112.593783,1.01958333 L111.856283,1.52791667 L111.856283,0.9425 L112.633366,0.407083333 L113.26045,0.407083333 L113.26045,3.41333333 L112.631283,3.41333333 Z M107.8617,6.20416667 L107.735033,6.20416667 C107.5917,6.025 107.510033,5.75916667 107.510033,5.47333333 C107.510033,5.18833333 107.5792,4.98166667 107.743366,4.77166667 L107.8642,4.77166667 C107.743366,4.91333333 107.657533,5.20416667 107.657533,5.47333333 C107.657533,5.73333333 107.720033,5.95583333 107.8617,6.20416667 Z M108.063366,5.65916667 L108.215033,5.65916667 C108.233366,5.785 108.353366,5.865 108.5242,5.865 C108.685866,5.865 108.805033,5.7775 108.805033,5.65833333 C108.805033,5.55583333 108.730033,5.49083333 108.5642,5.44916667 L108.410033,5.40916667 C108.192533,5.35416667 108.098366,5.25583333 108.098366,5.085 C108.098366,4.88083333 108.2692,4.7425 108.523366,4.7425 C108.755866,4.7425 108.9292,4.88083333 108.9417,5.075 L108.790866,5.075 C108.770033,4.95166667 108.668366,4.87833333 108.518366,4.87833333 C108.358366,4.87833333 108.252533,4.95833333 108.252533,5.08 C108.252533,5.17416667 108.318366,5.22833333 108.4842,5.27083333 L108.610033,5.30416667 C108.8592,5.36666667 108.9592,5.46333333 108.9592,5.64 C108.9592,5.86083333 108.785033,6.00166667 108.510033,6.00166667 C108.255033,6.00166667 108.0792,5.86666667 108.063366,5.65916667 Z M109.548366,5.18583333 C109.405033,5.18583333 109.305033,5.29083333 109.2942,5.45 L109.7892,5.45 C109.785866,5.29083333 109.690866,5.18583333 109.548366,5.18583333 Z M109.785033,5.74083333 L109.928366,5.74083333 C109.885033,5.895 109.7467,5.98916667 109.550033,5.98916667 C109.300866,5.98916667 109.145033,5.80916667 109.145033,5.525 C109.145033,5.2425 109.303366,5.05916667 109.550033,5.05916667 C109.792533,5.05916667 109.940033,5.23166667 109.940033,5.51083333 L109.940033,5.56583333 L109.2942,5.56583333 L109.2942,5.5725 C109.3017,5.75 109.400866,5.8625 109.553366,5.8625 C109.6692,5.8625 109.747533,5.82 109.785033,5.74083333 Z M110.908366,5.35 L110.763366,5.35 C110.740033,5.26083333 110.660866,5.18833333 110.5317,5.18833333 C110.370033,5.18833333 110.268366,5.3175 110.268366,5.52083333 C110.268366,5.72833333 110.3717,5.86 110.5317,5.86 C110.652533,5.86 110.7367,5.80416667 110.763366,5.7025 L110.908366,5.7025 C110.882533,5.8675 110.748366,5.98916667 110.532533,5.98916667 C110.280866,5.98916667 110.120033,5.80666667 110.120033,5.52083333 C110.120033,5.24083333 110.280033,5.05916667 110.5317,5.05916667 C110.750033,5.05916667 110.883366,5.19 110.908366,5.35 Z M111.180033,4.8425 L111.323366,4.8425 L111.323366,5.075 L111.523366,5.075 L111.523366,5.195 L111.323366,5.195 L111.323366,5.70333333 C111.323366,5.80916667 111.363366,5.85416667 111.4567,5.85416667 C111.482533,5.85416667 111.4967,5.85333333 111.523366,5.85083333 L111.523366,5.97166667 C111.495033,5.97666667 111.467533,5.98 111.4392,5.98 C111.2542,5.98 111.180033,5.91166667 111.180033,5.74 L111.180033,5.195 L111.035033,5.195 L111.035033,5.075 L111.180033,5.075 L111.180033,4.8425 Z M112.1092,5.86 C112.2792,5.86 112.375033,5.73666667 112.375033,5.52416667 C112.375033,5.31083333 112.2792,5.18833333 112.1092,5.18833333 C111.9392,5.18833333 111.843366,5.31083333 111.843366,5.52416667 C111.843366,5.73666667 111.9392,5.86 112.1092,5.86 Z M112.1092,5.98916667 C111.853366,5.98916667 111.695033,5.8125 111.695033,5.52416667 C111.695033,5.235 111.853366,5.05916667 112.1092,5.05916667 C112.365033,5.05916667 112.523366,5.235 112.523366,5.52416667 C112.523366,5.8125 112.365033,5.98916667 112.1092,5.98916667 Z M112.748366,5.97333333 L112.748366,5.075 L112.885033,5.075 L112.885033,5.20833333 L112.898366,5.20833333 C112.925033,5.12083333 113.028366,5.05916667 113.147533,5.05916667 C113.170866,5.05916667 113.200866,5.06083333 113.2192,5.06333333 L113.2192,5.20666667 C113.207533,5.20333333 113.155866,5.19833333 113.127533,5.19833333 C112.990866,5.19833333 112.8917,5.29 112.8917,5.41666667 L112.8917,5.97333333 L112.748366,5.97333333 Z M114.1667,5.97333333 L114.1667,4.9375 L114.153366,4.9375 L113.847533,5.15916667 L113.847533,5.00083333 L114.167533,4.77083333 L114.3167,4.77083333 L114.3167,5.97333333 L114.1667,5.97333333 Z M114.645866,6.20416667 C114.787533,5.95583333 114.850033,5.73333333 114.850033,5.47333333 C114.850033,5.2025 114.765033,4.9125 114.6442,4.77166667 L114.765866,4.77166667 C114.930033,4.98166667 114.998366,5.18833333 114.998366,5.47333333 C114.998366,5.7575 114.9167,6.02333333 114.773366,6.20416667 L114.645866,6.20416667 Z" id="S1-(Sector-1)-Copy" fill="#C6C6C6"></path>
                <path d="M16.615625,45.2445833 L17.2239583,45.2445833 C17.253125,45.4883333 17.4989583,45.6445833 17.853125,45.6445833 C18.1802083,45.6445833 18.4114583,45.48625 18.4114583,45.2591667 C18.4114583,45.0675 18.2614583,44.9570833 17.8927083,44.8779167 L17.5010417,44.7945833 C16.953125,44.68 16.684375,44.3945833 16.684375,43.93625 C16.684375,43.3695833 17.140625,42.9966667 17.834375,42.9966667 C18.496875,42.9966667 18.965625,43.3675 18.984375,43.9029167 L18.3927083,43.9029167 C18.3635417,43.6654167 18.1427083,43.5070833 17.8385417,43.5070833 C17.5239583,43.5070833 17.315625,43.6529167 17.315625,43.8820833 C17.315625,44.0675 17.459375,44.17375 17.8114583,44.24875 L18.1739583,44.3258333 C18.778125,44.4529167 19.0385417,44.7133333 19.0385417,45.18 C19.0385417,45.78625 18.5739583,46.1570833 17.8197917,46.1570833 C17.103125,46.1570833 16.6385417,45.805 16.615625,45.2445833 Z M19.5364583,43.97375 C19.5364583,43.3925 19.9822917,42.9966667 20.6322917,42.9966667 C21.259375,42.9966667 21.696875,43.3570833 21.696875,43.87375 C21.696875,44.2008333 21.5197917,44.4820833 20.9989583,44.9716667 L20.4239583,45.5195833 L20.4239583,45.5570833 L21.740625,45.5570833 L21.740625,46.08 L19.571875,46.08 L19.571875,45.6404167 L20.553125,44.68 C20.9760417,44.2675 21.0822917,44.11125 21.0822917,43.9154167 C21.0822917,43.67375 20.8864583,43.5029167 20.6114583,43.5029167 C20.3197917,43.5029167 20.1197917,43.6945833 20.1197917,43.9716667 L20.1197917,43.9841667 L19.5364583,43.9841667 L19.5364583,43.97375 Z M15.69,48.8708333 L15.5633333,48.8708333 C15.42,48.6916667 15.3383333,48.4258333 15.3383333,48.14 C15.3383333,47.855 15.4075,47.6483333 15.5716667,47.4383333 L15.6925,47.4383333 C15.5716667,47.58 15.4858333,47.8708333 15.4858333,48.14 C15.4858333,48.4 15.5483333,48.6225 15.69,48.8708333 Z M15.8916667,48.3258333 L16.0433333,48.3258333 C16.0616667,48.4516667 16.1816667,48.5316667 16.3525,48.5316667 C16.5141667,48.5316667 16.6333333,48.4441667 16.6333333,48.325 C16.6333333,48.2225 16.5583333,48.1575 16.3925,48.1158333 L16.2383333,48.0758333 C16.0208333,48.0208333 15.9266667,47.9225 15.9266667,47.7516667 C15.9266667,47.5475 16.0975,47.4091667 16.3516667,47.4091667 C16.5841667,47.4091667 16.7575,47.5475 16.77,47.7416667 L16.6191667,47.7416667 C16.5983333,47.6183333 16.4966667,47.545 16.3466667,47.545 C16.1866667,47.545 16.0808333,47.625 16.0808333,47.7466667 C16.0808333,47.8408333 16.1466667,47.895 16.3125,47.9375 L16.4383333,47.9708333 C16.6875,48.0333333 16.7875,48.13 16.7875,48.3066667 C16.7875,48.5275 16.6133333,48.6683333 16.3383333,48.6683333 C16.0833333,48.6683333 15.9075,48.5333333 15.8916667,48.3258333 Z M17.3766667,47.8525 C17.2333333,47.8525 17.1333333,47.9575 17.1225,48.1166667 L17.6175,48.1166667 C17.6141667,47.9575 17.5191667,47.8525 17.3766667,47.8525 Z M17.6133333,48.4075 L17.7566667,48.4075 C17.7133333,48.5616667 17.575,48.6558333 17.3783333,48.6558333 C17.1291667,48.6558333 16.9733333,48.4758333 16.9733333,48.1916667 C16.9733333,47.9091667 17.1316667,47.7258333 17.3783333,47.7258333 C17.6208333,47.7258333 17.7683333,47.8983333 17.7683333,48.1775 L17.7683333,48.2325 L17.1225,48.2325 L17.1225,48.2391667 C17.13,48.4166667 17.2291667,48.5291667 17.3816667,48.5291667 C17.4975,48.5291667 17.5758333,48.4866667 17.6133333,48.4075 Z M18.7366667,48.0166667 L18.5916667,48.0166667 C18.5683333,47.9275 18.4891667,47.855 18.36,47.855 C18.1983333,47.855 18.0966667,47.9841667 18.0966667,48.1875 C18.0966667,48.395 18.2,48.5266667 18.36,48.5266667 C18.4808333,48.5266667 18.565,48.4708333 18.5916667,48.3691667 L18.7366667,48.3691667 C18.7108333,48.5341667 18.5766667,48.6558333 18.3608333,48.6558333 C18.1091667,48.6558333 17.9483333,48.4733333 17.9483333,48.1875 C17.9483333,47.9075 18.1083333,47.7258333 18.36,47.7258333 C18.5783333,47.7258333 18.7116667,47.8566667 18.7366667,48.0166667 Z M19.0083333,47.5091667 L19.1516667,47.5091667 L19.1516667,47.7416667 L19.3516667,47.7416667 L19.3516667,47.8616667 L19.1516667,47.8616667 L19.1516667,48.37 C19.1516667,48.4758333 19.1916667,48.5208333 19.285,48.5208333 C19.3108333,48.5208333 19.325,48.52 19.3516667,48.5175 L19.3516667,48.6383333 C19.3233333,48.6433333 19.2958333,48.6466667 19.2675,48.6466667 C19.0825,48.6466667 19.0083333,48.5783333 19.0083333,48.4066667 L19.0083333,47.8616667 L18.8633333,47.8616667 L18.8633333,47.7416667 L19.0083333,47.7416667 L19.0083333,47.5091667 Z M19.9375,48.5266667 C20.1075,48.5266667 20.2033333,48.4033333 20.2033333,48.1908333 C20.2033333,47.9775 20.1075,47.855 19.9375,47.855 C19.7675,47.855 19.6716667,47.9775 19.6716667,48.1908333 C19.6716667,48.4033333 19.7675,48.5266667 19.9375,48.5266667 Z M19.9375,48.6558333 C19.6816667,48.6558333 19.5233333,48.4791667 19.5233333,48.1908333 C19.5233333,47.9016667 19.6816667,47.7258333 19.9375,47.7258333 C20.1933333,47.7258333 20.3516667,47.9016667 20.3516667,48.1908333 C20.3516667,48.4791667 20.1933333,48.6558333 19.9375,48.6558333 Z M20.5766667,48.64 L20.5766667,47.7416667 L20.7133333,47.7416667 L20.7133333,47.875 L20.7266667,47.875 C20.7533333,47.7875 20.8566667,47.7258333 20.9758333,47.7258333 C20.9991667,47.7258333 21.0291667,47.7275 21.0475,47.73 L21.0475,47.8733333 C21.0358333,47.87 20.9841667,47.865 20.9558333,47.865 C20.8191667,47.865 20.72,47.9566667 20.72,48.0833333 L20.72,48.64 L20.5766667,48.64 Z M21.7,47.7758333 C21.7,47.5625 21.8616667,47.4091667 22.085,47.4091667 C22.3008333,47.4091667 22.4658333,47.5558333 22.4658333,47.7466667 C22.4658333,47.8716667 22.4091667,47.9691667 22.2116667,48.1808333 L21.9225,48.4916667 L21.9225,48.505 L22.4858333,48.505 L22.4858333,48.64 L21.7075,48.64 L21.7075,48.5366667 L22.1233333,48.0825 C22.2783333,47.9141667 22.3158333,47.8491667 22.3158333,47.7525 C22.3158333,47.6325 22.2133333,47.54 22.0808333,47.54 C21.94,47.54 21.845,47.6341667 21.845,47.7758333 L21.845,47.7766667 L21.7,47.7766667 L21.7,47.7758333 Z M22.7091667,48.8708333 C22.8508333,48.6225 22.9133333,48.4 22.9133333,48.14 C22.9133333,47.8691667 22.8283333,47.5791667 22.7075,47.4383333 L22.8291667,47.4383333 C22.9933333,47.6483333 23.0616667,47.855 23.0616667,48.14 C23.0616667,48.4241667 22.98,48.69 22.8366667,48.8708333 L22.7091667,48.8708333 Z" id="S2-(Sector-2)-Copy" fill="#999999"></path>
                <path d="M64.2423246,64.87125 L64.850658,64.87125 C64.8798246,65.115 65.125658,65.27125 65.4798246,65.27125 C65.806908,65.27125 66.038158,65.1129167 66.038158,64.8858333 C66.038158,64.6941667 65.888158,64.58375 65.519408,64.5045833 L65.1277413,64.42125 C64.5798246,64.3066667 64.3110746,64.02125 64.3110746,63.5629167 C64.3110746,62.99625 64.7673246,62.6233333 65.4610746,62.6233333 C66.1235746,62.6233333 66.5923246,62.9941667 66.6110746,63.5295833 L66.019408,63.5295833 C65.9902413,63.2920833 65.769408,63.13375 65.4652413,63.13375 C65.150658,63.13375 64.9423246,63.2795833 64.9423246,63.50875 C64.9423246,63.6941667 65.0860746,63.8004167 65.438158,63.8754167 L65.800658,63.9525 C66.4048246,64.0795833 66.6652413,64.34 66.6652413,64.8066667 C66.6652413,65.4129167 66.200658,65.78375 65.4464913,65.78375 C64.7298246,65.78375 64.2652413,65.4316667 64.2423246,64.87125 Z M67.931908,64.4025 L67.931908,63.93375 L68.2985746,63.93375 C68.5839913,63.93375 68.7777413,63.7670833 68.7777413,63.52125 C68.7777413,63.2795833 68.5902413,63.1254167 68.2964913,63.1254167 C68.0048246,63.1254167 67.8110746,63.29 67.794408,63.5504167 L67.213158,63.5504167 C67.2339913,62.9816667 67.656908,62.6233333 68.313158,62.6233333 C68.9298246,62.6233333 69.3735746,62.9608333 69.3735746,63.43375 C69.3735746,63.7816667 69.1548246,64.0525 68.819408,64.12125 L68.819408,64.15875 C69.231908,64.2045833 69.4902413,64.4795833 69.4902413,64.8754167 C69.4902413,65.4025 68.994408,65.78375 68.3089913,65.78375 C67.638158,65.78375 67.1839913,65.4129167 67.156908,64.84625 L67.7589913,64.84625 C67.7777413,65.1004167 67.9923246,65.2608333 68.3152413,65.2608333 C68.6298246,65.2608333 68.8485746,65.08375 68.8485746,64.8275 C68.8485746,64.565 68.6423246,64.4025 68.3048246,64.4025 L67.931908,64.4025 Z M63.351283,68.4975 L63.2246163,68.4975 C63.081283,68.3183333 62.9996163,68.0525 62.9996163,67.7666667 C62.9996163,67.4816667 63.068783,67.275 63.2329496,67.065 L63.353783,67.065 C63.2329496,67.2066667 63.1471163,67.4975 63.1471163,67.7666667 C63.1471163,68.0266667 63.2096163,68.2491667 63.351283,68.4975 Z M63.5529496,67.9525 L63.7046163,67.9525 C63.7229496,68.0783333 63.8429496,68.1583333 64.013783,68.1583333 C64.1754496,68.1583333 64.2946163,68.0708333 64.2946163,67.9516667 C64.2946163,67.8491667 64.2196163,67.7841667 64.053783,67.7425 L63.8996163,67.7025 C63.6821163,67.6475 63.5879496,67.5491667 63.5879496,67.3783333 C63.5879496,67.1741667 63.758783,67.0358333 64.0129496,67.0358333 C64.2454496,67.0358333 64.418783,67.1741667 64.431283,67.3683333 L64.2804496,67.3683333 C64.2596163,67.245 64.1579496,67.1716667 64.0079496,67.1716667 C63.8479496,67.1716667 63.7421163,67.2516667 63.7421163,67.3733333 C63.7421163,67.4675 63.8079496,67.5216667 63.973783,67.5641667 L64.0996163,67.5975 C64.348783,67.66 64.448783,67.7566667 64.448783,67.9333333 C64.448783,68.1541667 64.2746163,68.295 63.9996163,68.295 C63.7446163,68.295 63.568783,68.16 63.5529496,67.9525 Z M65.0379496,67.4791667 C64.8946163,67.4791667 64.7946163,67.5841667 64.783783,67.7433333 L65.278783,67.7433333 C65.2754496,67.5841667 65.1804496,67.4791667 65.0379496,67.4791667 Z M65.2746163,68.0341667 L65.4179496,68.0341667 C65.3746163,68.1883333 65.236283,68.2825 65.0396163,68.2825 C64.7904496,68.2825 64.6346163,68.1025 64.6346163,67.8183333 C64.6346163,67.5358333 64.7929496,67.3525 65.0396163,67.3525 C65.2821163,67.3525 65.4296163,67.525 65.4296163,67.8041667 L65.4296163,67.8591667 L64.783783,67.8591667 L64.783783,67.8658333 C64.791283,68.0433333 64.8904496,68.1558333 65.0429496,68.1558333 C65.158783,68.1558333 65.2371163,68.1133333 65.2746163,68.0341667 Z M66.3979496,67.6433333 L66.2529496,67.6433333 C66.2296163,67.5541667 66.1504496,67.4816667 66.021283,67.4816667 C65.8596163,67.4816667 65.7579496,67.6108333 65.7579496,67.8141667 C65.7579496,68.0216667 65.861283,68.1533333 66.021283,68.1533333 C66.1421163,68.1533333 66.226283,68.0975 66.2529496,67.9958333 L66.3979496,67.9958333 C66.3721163,68.1608333 66.2379496,68.2825 66.0221163,68.2825 C65.7704496,68.2825 65.6096163,68.1 65.6096163,67.8141667 C65.6096163,67.5341667 65.7696163,67.3525 66.021283,67.3525 C66.2396163,67.3525 66.3729496,67.4833333 66.3979496,67.6433333 Z M66.6696163,67.1358333 L66.8129496,67.1358333 L66.8129496,67.3683333 L67.0129496,67.3683333 L67.0129496,67.4883333 L66.8129496,67.4883333 L66.8129496,67.9966667 C66.8129496,68.1025 66.8529496,68.1475 66.946283,68.1475 C66.9721163,68.1475 66.986283,68.1466667 67.0129496,68.1441667 L67.0129496,68.265 C66.9846163,68.27 66.9571163,68.2733333 66.928783,68.2733333 C66.743783,68.2733333 66.6696163,68.205 66.6696163,68.0333333 L66.6696163,67.4883333 L66.5246163,67.4883333 L66.5246163,67.3683333 L66.6696163,67.3683333 L66.6696163,67.1358333 Z M67.598783,68.1533333 C67.768783,68.1533333 67.8646163,68.03 67.8646163,67.8175 C67.8646163,67.6041667 67.768783,67.4816667 67.598783,67.4816667 C67.428783,67.4816667 67.3329496,67.6041667 67.3329496,67.8175 C67.3329496,68.03 67.428783,68.1533333 67.598783,68.1533333 Z M67.598783,68.2825 C67.3429496,68.2825 67.1846163,68.1058333 67.1846163,67.8175 C67.1846163,67.5283333 67.3429496,67.3525 67.598783,67.3525 C67.8546163,67.3525 68.0129496,67.5283333 68.0129496,67.8175 C68.0129496,68.1058333 67.8546163,68.2825 67.598783,68.2825 Z M68.2379496,68.2666667 L68.2379496,67.3683333 L68.3746163,67.3683333 L68.3746163,67.5016667 L68.3879496,67.5016667 C68.4146163,67.4141667 68.5179496,67.3525 68.6371163,67.3525 C68.6604496,67.3525 68.6904496,67.3541667 68.708783,67.3566667 L68.708783,67.5 C68.6971163,67.4966667 68.6454496,67.4916667 68.6171163,67.4916667 C68.4804496,67.4916667 68.381283,67.5833333 68.381283,67.71 L68.381283,68.2666667 L68.2379496,68.2666667 Z M69.6146163,67.7125 L69.6146163,67.5841667 L69.7604496,67.5841667 C69.8971163,67.5841667 69.993783,67.4958333 69.993783,67.3708333 C69.993783,67.2483333 69.901283,67.1666667 69.7629496,67.1666667 C69.6246163,67.1666667 69.533783,67.2433333 69.521283,67.3725 L69.3754496,67.3725 C69.3904496,67.1641667 69.5396163,67.0358333 69.768783,67.0358333 C69.978783,67.0358333 70.146283,67.1758333 70.146283,67.3508333 C70.146283,67.4941667 70.0671163,67.5991667 69.9354496,67.6308333 L69.9354496,67.6441667 C70.098783,67.665 70.1979496,67.7783333 70.1979496,67.9425 C70.1979496,68.1408333 70.0121163,68.295 69.7746163,68.295 C69.5304496,68.295 69.3621163,68.1591667 69.351283,67.9533333 L69.496283,67.9533333 C69.5096163,68.0816667 69.6179496,68.1641667 69.7729496,68.1641667 C69.931283,68.1641667 70.043783,68.07 70.043783,67.9383333 C70.043783,67.7991667 69.9379496,67.7125 69.7671163,67.7125 L69.6146163,67.7125 Z M70.4096163,68.4975 C70.551283,68.2491667 70.613783,68.0266667 70.613783,67.7666667 C70.613783,67.4958333 70.528783,67.2058333 70.4079496,67.065 L70.5296163,67.065 C70.693783,67.275 70.7621163,67.4816667 70.7621163,67.7666667 C70.7621163,68.0508333 70.6804496,68.3166667 70.5371163,68.4975 L70.4096163,68.4975 Z" id="S3-(Sector-3)-Copy" fill="#666666"></path>
                <g id="Group-6" transform="translate(126.506667, 38.826667) rotate(-6.000000) translate(-126.506667, -38.826667) translate(125.440000, 37.760000)">
                    <rect id="Rectangle-2" fill="#000000" x="0" y="0" width="1" height="1"></rect>
                    <rect id="Rectangle-2-Copy-4" fill="#FFFFFF" x="0" y="0.64" width="1" height="1"></rect>
                    <rect id="Rectangle-2-Copy-7" fill="#000000" x="0" y="1.28" width="1" height="1"></rect>
                    <rect id="Rectangle-2-Copy" fill="#FFFFFF" x="0.64" y="0" width="1" height="1"></rect>
                    <rect id="Rectangle-2-Copy-5" fill="#000000" x="0.64" y="0.64" width="1" height="1"></rect>
                    <rect id="Rectangle-2-Copy-9" fill="#FFFFFF" x="0.64" y="1.28" width="1" height="1"></rect>
                    <rect id="Rectangle-2-Copy-3" fill="#000000" x="1.28" y="0" width="1" height="1"></rect>
                    <rect id="Rectangle-2-Copy-6" fill="#FFFFFF" x="1.28" y="0.64" width="1" height="1"></rect>
                    <rect id="Rectangle-2-Copy-10" fill="#000000" x="1.28" y="1.28" width="1" height="1"></rect>
                </g>
                <g id="Group-Copy-8" transform="translate(65.706667, 42.666667)">
                    <circle id="Oval-Copy-2" fill-opacity="0.7" fill="#FFFFFF" cx="2.56" cy="2.56" r="2.56"></circle>
                    <circle id="Oval-Copy-2" fill-opacity="0.2" fill="#FFB819" cx="2.56" cy="2.56" r="2.56"></circle>
                    <circle id="Oval" stroke="#FFB819" stroke-width="0.5" fill="#FFFFFF" cx="2.56" cy="2.56" r="1.70666667"></circle>
                    <circle id="Oval-Copy" fill="#FFB819" cx="2.56" cy="2.56" r="1"></circle>
                </g>
                <g id="Group-Copy-8" transform="translate(143.786667, 15.786667)">
                    <circle id="Oval-Copy-2" fill-opacity="0.7" fill="#FFFFFF" cx="2.56" cy="2.56" r="2.56"></circle>
                    <circle id="Oval-Copy-2" fill-opacity="0.2" fill="#FFB819" cx="2.56" cy="2.56" r="2.56"></circle>
                    <circle id="Oval" stroke="#FFB819" stroke-width="0.5" fill="#FFFFFF" cx="2.56" cy="2.56" r="1.70666667"></circle>
                    <circle id="Oval-Copy" fill="#FFB819" cx="2.56" cy="2.56" r="1"></circle>
                </g>
                <g id="Group-Copy-15" transform="translate(81.066667, 40.960000)">
                    <circle id="Oval-Copy-2" fill-opacity="0.7" fill="#FFFFFF" cx="2.56" cy="2.56" r="2.56"></circle>
                    <circle id="Oval-Copy-2" fill-opacity="0.2" fill="#D0021B" cx="2.56" cy="2.56" r="2.56"></circle>
                    <circle id="Oval" stroke="#D0021B" stroke-width="0.5" fill="#FFFFFF" cx="2.56" cy="2.56" r="1.70666667"></circle>
                    <circle id="Oval-Copy" fill="#D0021B" cx="2.56" cy="2.56" r="1"></circle>
                </g>
            </g>
        </g>
    </g>
</svg>