<?xml version="1.0" encoding="UTF-8"?>
<svg width="160px" height="96px" viewBox="0 0 160 96" version="1.1" xmlns="http://www.w3.org/2000/svg" xmlns:xlink="http://www.w3.org/1999/xlink">
    <!-- Generator: Sketch 58 (84663) - https://sketch.com -->
    <title>circuit-gs-Jose-Carlos-Ponce-L-Eng</title>
    <desc>Created with Sketch.</desc>
    <defs>
        <linearGradient x1="50%" y1="23.3035083%" x2="50%" y2="112.667183%" id="linearGradient-1">
            <stop stop-color="#1B94E2" offset="0%"></stop>
            <stop stop-color="#40D8AB" offset="100%"></stop>
        </linearGradient>
    </defs>
    <g id="circuit-gs-Jose-Carlos-Ponce-L-Eng" stroke="none" stroke-width="1" fill="none" fill-rule="evenodd">
        <g id="Brazil-Circuit">
            <g id="Group-5" transform="translate(9.386667, 5.120000)">
                <path d="M6.67348573,41.8144396 C6.93793106,40.9401688 7.62073847,40.2744426 8.65804602,39.6178234 C13.1923042,36.7476228 39.8499463,21.2648587 59.6588726,10.3301016 C61.2529198,9.36429709 62.2055804,9.16099714 63.80199,9.20725333 C65.3540424,9.2532653 66.0952007,9.12279429 67.5005114,8.36428196 C68.4039438,7.9598648 69.1949521,7.57369294 70.4885405,6.9177097 C72.8673215,5.71142145 73.487778,5.40675828 74.7883982,4.83980971 C77.2978296,3.74593267 79.9942826,2.83816779 83.4217178,1.99404615 L83.6257822,2.82262052 C80.2447963,3.65530247 77.5941566,4.5476442 75.1293836,5.62205438 C73.8497097,6.17987234 73.2374037,6.48053333 70.8744816,7.67877947 C69.5695335,8.3405233 68.7681611,8.73175495 67.8777744,9.12902543 C66.3509021,9.9546235 65.4665077,10.1103093 63.8596598,10.0626537 C62.3337142,10.0184013 61.5408139,10.187608 60.0861681,11.0685461 C40.2760006,22.0043847 13.6319166,37.4792742 9.11445398,40.3388432 C8.2374329,40.8940005 7.67860941,41.4388444 7.49027226,42.0614974 C7.240181,42.8883129 7.69389157,43.8532418 9.15217771,45.0155098 C9.89226364,45.8087788 12.1465151,47.9089165 12.5263194,48.3267245 C14.0284034,49.9791087 14.3601307,51.5379731 13.4678003,54.0600694 C11.1081742,59.5854142 10.9712688,64.9640712 13.7252349,71.5715861 C16.5045253,76.5109072 18.1255572,77.7234874 24.1443176,80.0450169 C29.7045065,81.5683311 35.9043777,82.707073 42.7437096,83.460728 L42.6502429,84.3089271 C35.7595612,83.5496136 29.5088874,82.4009134 23.8979993,80.8623098 C17.6432969,78.4534169 15.8685178,77.1257991 12.9691613,71.9680203 C10.0921331,65.0865123 10.2325887,59.4629369 12.673137,53.7503186 C13.4497074,51.553136 13.1879755,50.3231964 11.894888,48.9007211 C11.5495855,48.5208672 9.34023535,46.4619789 8.59511649,45.6626748 C6.90982099,44.3115056 6.30818161,43.0221552 6.67348573,41.8144396 Z" id="Path-53" fill="#E6E6E6" fill-rule="nonzero"></path>
                <path d="M107.254404,10.6777386 C106.235887,10.9713529 97.9199635,15.9561824 97.1342279,16.7144798 C97.0017033,16.8423766 96.6623733,17.494061 95.9464962,19.0380579 C94.8548634,21.3924811 94.3492484,22.4277754 93.5532214,23.8348388 C92.9489354,24.9029793 92.3310721,25.8725417 91.681849,26.7519184 C88.5948202,30.4497865 84.2291673,30.7813985 80.4302397,29.1298965 L80.125032,28.942594 C78.6790256,27.7472891 77.725549,25.8549682 77.9551771,23.9131496 C78.0673526,22.9645522 78.2667749,21.9513481 78.5521544,20.8167882 C78.7541554,20.0137097 78.9827814,19.207066 79.3101676,18.1161406 C79.32115,18.0795447 79.7622901,16.6211351 79.8800481,16.2224615 C80.0802095,15.5448093 80.227772,15.0129364 80.3452329,14.5362459 C80.5540184,13.6889339 80.4743917,13.5751621 79.8886712,13.4818753 C79.1859054,13.3699469 78.1270402,13.5235024 77.1022545,13.8187275 C75.5346507,14.2703303 72.9886326,15.1062374 70.5083434,16.0480163 C66.7976848,17.4569728 63.7267904,18.9073955 61.7386682,20.2957037 C60.2480394,21.3366116 59.4409621,22.8059366 59.164201,24.6884141 C58.9561702,26.1034013 59.0528619,27.5868059 59.369329,29.3750703 C59.4223213,29.6745143 59.6144898,30.6725943 59.6474596,30.8674902 C59.851915,32.0760974 59.9734026,32.6790575 60.1845752,33.3986033 C60.668185,35.0464472 61.373243,36.1054741 62.3849008,36.5620766 C63.0419836,36.858645 64.0810027,37.3735979 65.8037585,38.2494756 C66.1040589,38.4021533 69.6285668,40.2020705 70.7376496,40.7638673 C70.9221126,40.8573055 71.1024896,40.9485354 71.2794824,41.0379058 C74.4840096,42.6559941 76.786675,43.7679935 78.3737546,44.4407568 C82.3284229,46.1171412 90.0801052,48.7966535 99.4266188,51.770207 C102.861295,53.2208158 105.371692,55.1461529 107.203499,57.4881494 C108.24889,58.8246999 109.03088,60.2377135 109.638061,61.7580015 C109.866227,62.3292969 110.060135,62.8898437 110.251161,63.508064 C110.34382,63.8079342 110.592057,64.6559321 110.627906,64.7721849 C111.13037,66.4015987 111.267339,69.2096203 111.259134,74.3833935 C111.258294,74.912726 111.256604,75.3590115 111.252451,76.2670688 C111.24706,77.4457961 111.245417,77.9127156 111.245417,78.5091667 C111.245417,81.1316604 110.011962,83.1953671 107.951452,84.5765911 C106.390445,85.622982 104.401801,86.2104167 102.837083,86.2104167 C102.564267,86.2104167 102.354569,86.2104303 102.045229,86.2104857 C101.590651,86.2105671 101.090232,86.2107217 100.537859,86.2109692 C99.0545469,86.2116339 97.394579,86.2128744 95.5626098,86.2148372 C90.5202329,86.2202396 84.9866879,86.2301789 79.0739559,86.2457824 C62.5287019,86.2894446 45.9685831,86.3689996 30.3764899,86.4933373 C24.9323788,86.3022113 23.0740538,86.1350216 20.8488236,85.4789185 C18.2046481,84.6992906 15.9296598,83.2668848 13.0459675,80.5882081 C9.28081581,76.4401257 8.05301015,73.1121967 7.48152476,67.8053828 C7.13014836,64.5425013 8.18077694,58.7335466 9.4026318,55.0407932 C9.4558432,54.8722746 9.39024147,54.7283145 8.92892387,54.3447192 C8.31732934,53.8361654 3.79156542,51.2921757 2.51770681,50.4458105 C0.669190997,49.1039936 -0.0817538449,47.4619074 0.263847281,45.6422522 C0.532914611,44.2255619 1.42502108,42.8319884 2.89492048,41.258667 C4.83294402,39.1842842 6.94011466,37.5073564 9.50542784,35.7151775 C11.0247918,34.6537196 68.7631423,3.5554557 70.3275605,3.0703462 C71.2551144,2.78272157 75.1758651,2.61770685 85.1150562,2.34411717 C86.3680747,2.30962614 91.1226933,2.18162904 90.7417496,2.19194281 C97.3840052,2.01210863 101.225603,1.89206604 104.441424,1.74999726 C115.701761,1.25253714 116.616242,1.39259467 121.487288,4.54198981 C125.900515,7.11761266 130.253948,12.1580711 134.299494,18.6864111 C137.100464,23.2063655 139.686425,28.4855182 140.237914,30.400962 C140.718546,31.7478169 140.88105,32.515104 140.88105,33.6733271 C140.88105,34.6910155 140.250605,40.8006135 139.807101,44.440172 C139.487403,46.3440892 139.14447,47.10452 138.051506,48.0512926 C137.943833,48.135005 137.654914,48.3398325 137.552164,48.4122691 C137.365678,48.5437372 137.199168,48.6597328 137.036836,48.7707653 C136.370071,49.2211478 135.982537,49.4592819 135.676341,49.6001764 C134.692577,50.0528516 133.569974,50.2588895 131.990516,50.2588895 C129.657134,50.2588895 115.949347,45.7290034 109.882717,43.3222941 C107.825829,42.5063007 106.721141,41.5202813 105.6102,39.7365088 C105.385549,39.3757992 104.595516,38.0190498 104.519727,37.8920948 C104.042101,37.0920162 103.597413,36.4077037 103.06839,35.6811462 C101.209239,32.2939691 101.76852,28.3178425 103.374619,25.3779878 C104.25144,23.7730253 106.994289,18.9403004 107.886722,17.43267 C108.249722,16.7141262 108.441036,16.3953117 109.60154,14.5128434 C109.75918,14.2571337 109.884272,14.0527622 110.002945,13.8565275 C111.095835,12.0493519 111.641999,10.8393975 111.688835,10.1597829 C110.85434,9.71186265 109.051617,9.93943847 107.254404,10.6777386 Z M79.0672002,83.6857913 C84.9813237,83.6701842 90.5161987,83.6602424 95.559867,83.6548387 C97.3923791,83.6528753 99.052878,83.6516344 100.536712,83.6509695 C101.089318,83.6507218 101.589967,83.6505672 102.044771,83.6504858 C102.354289,83.6504304 102.564121,83.6504167 102.837083,83.6504167 C103.901155,83.6504167 105.392777,83.2097997 106.526029,82.4501454 C107.912301,81.5208849 108.685417,80.2273755 108.685417,78.5091667 C108.685417,77.9073923 108.687068,77.4381701 108.692478,76.2553612 C108.696619,75.3497942 108.698303,74.9053176 108.699137,74.3793337 C108.706803,69.5452059 108.572641,66.7947153 108.181579,65.5265615 C108.138444,65.3866824 107.89048,64.5396161 107.805264,64.2638315 C107.633103,63.7066656 107.460946,63.2089969 107.260657,62.7075015 C106.738882,61.4010561 106.073377,60.1985259 105.187043,59.0653323 C103.6322,57.0774389 101.488692,55.4285746 98.592862,54.1913833 C89.1988174,51.2018332 81.4165146,48.5110912 77.3746308,46.7977361 C75.7189777,46.0959045 73.3794952,44.9661255 70.1255966,43.3231077 C69.9476098,43.2332353 69.7662621,43.1415145 69.5808466,43.0475938 C68.46719,42.4834801 64.9403099,40.6823516 64.6435521,40.531475 C62.9587292,39.674883 61.9390569,39.1695186 61.3317659,38.8954234 C59.5049804,38.0709203 58.4013245,36.4131825 57.7281761,34.1195081 C57.479868,33.2734272 57.3441054,32.5996184 57.1233217,31.294489 C57.0963455,31.1350233 56.9066732,30.1499078 56.8484984,29.8211788 C56.4883389,27.7860217 56.3755869,26.0562261 56.6314273,24.3160467 C57.0048239,21.7762726 58.1608113,19.6717392 60.2729985,18.1967963 C62.4741153,16.6597537 65.7074667,15.1326005 69.5996024,13.6547361 C72.1495431,12.6865102 74.7616144,11.8289166 76.3935789,11.3587725 C77.750849,10.9677636 79.1266591,10.7682451 80.2913235,10.9537394 C82.328188,11.2781477 83.405381,12.8172561 82.8308836,15.1487331 C82.7025647,15.6694884 82.5454339,16.2358493 82.3351867,16.9476473 C82.2146253,17.3558118 81.770986,18.822484 81.7621357,18.8519751 C81.4448798,19.909144 81.225566,20.6829319 81.034821,21.4412614 C80.7742854,22.4770514 80.5953056,23.3863933 80.4974631,24.2137854 C80.387239,25.1458807 80.8717782,26.1692083 81.6254893,26.8560679 C84.4347831,28.0132676 87.504194,27.7369741 89.6456861,25.1996975 C90.2206323,24.4177429 90.7762611,23.5443853 91.3250761,22.5742959 C92.0758696,21.2471875 92.5613318,20.253158 93.6239913,17.9612241 C94.571028,15.9186644 94.8727039,15.3392949 95.3564832,14.8724093 C96.409386,13.8562742 104.691513,8.88210234 106.312621,8.29706548 C109.265281,7.09063785 112.182093,6.83376173 113.837219,8.62510391 L114.046997,8.85214596 L114.130035,9.14990299 C114.566396,10.7145868 113.900918,12.3579739 112.193523,15.18128 C112.070504,15.3847011 111.941865,15.5948667 111.780719,15.8562637 C110.653559,17.6846437 110.480495,17.9739725 110.153141,18.6237897 C109.259074,20.1365689 106.491559,25.0122381 105.621215,26.6053456 C104.402414,28.8362784 103.960465,31.9151633 105.189947,34.2459522 C105.74632,35.0147603 106.218466,35.743373 106.717838,36.5798801 C106.81083,36.7356518 107.582479,38.0608293 107.783218,38.3831451 C108.618654,39.7245552 109.30872,40.3404921 110.82673,40.9427059 C116.469593,43.1813012 130.140165,47.6988895 131.990516,47.6988895 C133.224837,47.6988895 133.988798,47.5586753 134.606223,47.2745698 C134.746886,47.209844 135.051195,47.0228509 135.444067,46.7579529 C135.742704,46.5543832 135.899752,46.4449794 136.07712,46.3199389 C136.151256,46.2676748 136.329881,46.1411146 136.420411,46.076962 C136.948112,45.6117799 137.057264,45.3538793 137.269464,44.101231 C137.694792,40.60563 138.32105,34.5342128 138.32105,33.6733271 C138.32105,32.8385819 138.214195,32.3417445 137.813286,31.2234867 C137.340147,29.5360101 134.831389,24.4047343 132.123441,20.0348891 C128.272011,13.8197968 124.15032,9.05117964 120.17395,6.73961676 C115.778492,3.89806304 115.34982,3.83058221 104.55441,4.30750274 C101.319039,4.45043518 97.46804,4.57077154 90.8110343,4.75100506 C91.19124,4.74071128 86.4376036,4.86868193 85.185497,4.90314786 C76.2433736,5.14929191 71.6422038,5.34294379 71.0857728,5.51548713 C69.812212,5.91040483 12.2926148,36.8908467 10.971547,37.8137709 C8.54328637,39.5102022 6.5493916,41.0969829 4.76555226,43.006333 C2.3922146,45.5466586 2.11337803,46.9762823 3.9569208,48.3284386 C5.09958254,49.0813169 9.74551471,51.6943266 10.5656897,52.3763194 C11.7461763,53.3579189 12.2615159,54.4888091 11.8384467,55.8282575 C10.7161699,59.2204101 9.72310509,64.711093 10.0268086,67.5312838 C10.5432197,72.3266779 11.5816784,75.1541549 14.8287682,78.7501518 C17.4239053,81.1547862 19.3629747,82.371862 21.5728182,83.0234284 C23.5083932,83.5941274 25.2493781,83.7514705 30.3838053,83.9331976 C45.972851,83.8089465 62.5275299,83.7294388 79.0672002,83.6857913 Z" id="Path-52" fill="#EBEBEB" fill-rule="nonzero"></path>
                <path d="M107.254404,9.39773856 C106.235887,9.69135288 97.9199635,14.6761824 97.1342279,15.4344798 C97.0017033,15.5623766 96.6623733,16.214061 95.9464962,17.7580579 C94.8548634,20.1124811 94.3492484,21.1477754 93.5532214,22.5548388 C92.9489354,23.6229793 92.3310721,24.5925417 91.681849,25.4719184 C88.5948202,29.1697865 84.2291673,29.5013985 80.4302397,27.8498965 L80.125032,27.662594 C78.6790256,26.4672891 77.725549,24.5749682 77.9551771,22.6331496 C78.0673526,21.6845522 78.2667749,20.6713481 78.5521544,19.5367882 C78.7541554,18.7337097 78.9827814,17.927066 79.3101676,16.8361406 C79.32115,16.7995447 79.7622901,15.3411351 79.8800481,14.9424615 C80.0802095,14.2648093 80.227772,13.7329364 80.3452329,13.2562459 C80.5540184,12.4089339 80.4743917,12.2951621 79.8886712,12.2018753 C79.1859054,12.0899469 78.1270402,12.2435024 77.1022545,12.5387275 C75.5346507,12.9903303 72.9886326,13.8262374 70.5083434,14.7680163 C66.7976848,16.1769728 63.7267904,17.6273955 61.7386682,19.0157037 C60.2480394,20.0566116 59.4409621,21.5259366 59.164201,23.4084141 C58.9561702,24.8234013 59.0528619,26.3068059 59.369329,28.0950703 C59.4223213,28.3945143 59.6144898,29.3925943 59.6474596,29.5874902 C59.851915,30.7960974 59.9734026,31.3990575 60.1845752,32.1186033 C60.668185,33.7664472 61.373243,34.8254741 62.3849008,35.2820766 C63.0419836,35.578645 64.0810027,36.0935979 65.8037585,36.9694756 C66.1040589,37.1221533 69.6285668,38.9220705 70.7376496,39.4838673 C70.9221126,39.5773055 71.1024896,39.6685354 71.2794824,39.7579058 C74.4840096,41.3759941 76.786675,42.4879935 78.3737546,43.1607568 C82.3284229,44.8371412 90.0801052,47.5166535 99.4266188,50.490207 C102.861295,51.9408158 105.371692,53.8661529 107.203499,56.2081494 C108.24889,57.5446999 109.03088,58.9577135 109.638061,60.4780015 C109.866227,61.0492969 110.060135,61.6098437 110.251161,62.228064 C110.34382,62.5279342 110.592057,63.3759321 110.627906,63.4921849 C111.13037,65.1215987 111.267339,67.9296203 111.259134,73.1033935 C111.258294,73.632726 111.256604,74.0790115 111.252451,74.9870688 C111.24706,76.1657961 111.245417,76.6327156 111.245417,77.2291667 C111.245417,79.8516604 110.011962,81.9153671 107.951452,83.2965911 C106.390445,84.342982 104.401801,84.9304167 102.837083,84.9304167 C102.564267,84.9304167 102.354569,84.9304303 102.045229,84.9304857 C101.590651,84.9305671 101.090232,84.9307217 100.537859,84.9309692 C99.0545469,84.9316339 97.394579,84.9328744 95.5626098,84.9348372 C90.5202329,84.9402396 84.9866879,84.9501789 79.0739559,84.9657824 C62.5287019,85.0094446 45.9685831,85.0889996 30.3764899,85.2133373 C24.9323788,85.0222113 23.0740538,84.8550216 20.8488236,84.1989185 C18.2046481,83.4192906 15.9296598,81.9868848 13.0459675,79.3082081 C9.28081581,75.1601257 8.05301015,71.8321967 7.48152476,66.5253828 C7.13014836,63.2625013 8.18077694,57.4535466 9.4026318,53.7607932 C9.4558432,53.5922746 9.39024147,53.4483145 8.92892387,53.0647192 C8.31732934,52.5561654 3.79156542,50.0121757 2.51770681,49.1658105 C0.669190997,47.8239936 -0.0817538449,46.1819074 0.263847281,44.3622522 C0.532914611,42.9455619 1.42502108,41.5519884 2.89492048,39.978667 C4.83294402,37.9042842 6.94011466,36.2273564 9.50542784,34.4351775 C11.0247918,33.3737196 68.7631423,2.2754557 70.3275605,1.7903462 C71.2551144,1.50272157 75.1758651,1.33770685 85.1150562,1.06411717 C86.3680747,1.02962614 91.1226933,0.901629038 90.7417496,0.911942809 C97.3840052,0.732108632 101.225603,0.612066044 104.441424,0.469997264 C115.701761,-0.0274628579 116.616242,0.112594669 121.487288,3.26198981 C125.900515,5.83761266 130.253948,10.8780711 134.299494,17.4064111 C137.100464,21.9263655 139.686425,27.2055182 140.237914,29.120962 C140.718546,30.4678169 140.88105,31.235104 140.88105,32.3933271 C140.88105,33.4110155 140.250605,39.5206135 139.807101,43.160172 C139.487403,45.0640892 139.14447,45.82452 138.051506,46.7712926 C137.943833,46.855005 137.654914,47.0598325 137.552164,47.1322691 C137.365678,47.2637372 137.199168,47.3797328 137.036836,47.4907653 C136.370071,47.9411478 135.982537,48.1792819 135.676341,48.3201764 C134.692577,48.7728516 133.569974,48.9788895 131.990516,48.9788895 C129.657134,48.9788895 115.949347,44.4490034 109.882717,42.0422941 C107.825829,41.2263007 106.721141,40.2402813 105.6102,38.4565088 C105.385549,38.0957992 104.595516,36.7390498 104.519727,36.6120948 C104.042101,35.8120162 103.597413,35.1277037 103.06839,34.4011462 C101.209239,31.0139691 101.76852,27.0378425 103.374619,24.0979878 C104.25144,22.4930253 106.994289,17.6603004 107.886722,16.15267 C108.249722,15.4341262 108.441036,15.1153117 109.60154,13.2328434 C109.75918,12.9771337 109.884272,12.7727622 110.002945,12.5765275 C111.095835,10.7693519 111.641999,9.55939755 111.688835,8.87978288 C110.85434,8.43186265 109.051617,8.65943847 107.254404,9.39773856 Z M79.0672002,82.4057913 C84.9813237,82.3901842 90.5161987,82.3802424 95.559867,82.3748387 C97.3923791,82.3728753 99.052878,82.3716344 100.536712,82.3709695 C101.089318,82.3707218 101.589967,82.3705672 102.044771,82.3704858 C102.354289,82.3704304 102.564121,82.3704167 102.837083,82.3704167 C103.901155,82.3704167 105.392777,81.9297997 106.526029,81.1701454 C107.912301,80.2408849 108.685417,78.9473755 108.685417,77.2291667 C108.685417,76.6273923 108.687068,76.1581701 108.692478,74.9753612 C108.696619,74.0697942 108.698303,73.6253176 108.699137,73.0993337 C108.706803,68.2652059 108.572641,65.5147153 108.181579,64.2465615 C108.138444,64.1066824 107.89048,63.2596161 107.805264,62.9838315 C107.633103,62.4266656 107.460946,61.9289969 107.260657,61.4275015 C106.738882,60.1210561 106.073377,58.9185259 105.187043,57.7853323 C103.6322,55.7974389 101.488692,54.1485746 98.592862,52.9113833 C89.1988174,49.9218332 81.4165146,47.2310912 77.3746308,45.5177361 C75.7189777,44.8159045 73.3794952,43.6861255 70.1255966,42.0431077 C69.9476098,41.9532353 69.7662621,41.8615145 69.5808466,41.7675938 C68.46719,41.2034801 64.9403099,39.4023516 64.6435521,39.251475 C62.9587292,38.394883 61.9390569,37.8895186 61.3317659,37.6154234 C59.5049804,36.7909203 58.4013245,35.1331825 57.7281761,32.8395081 C57.479868,31.9934272 57.3441054,31.3196184 57.1233217,30.014489 C57.0963455,29.8550233 56.9066732,28.8699078 56.8484984,28.5411788 C56.4883389,26.5060217 56.3755869,24.7762261 56.6314273,23.0360467 C57.0048239,20.4962726 58.1608113,18.3917392 60.2729985,16.9167963 C62.4741153,15.3797537 65.7074667,13.8526005 69.5996024,12.3747361 C72.1495431,11.4065102 74.7616144,10.5489166 76.3935789,10.0787725 C77.750849,9.68776361 79.1266591,9.48824513 80.2913235,9.67373942 C82.328188,9.99814767 83.405381,11.5372561 82.8308836,13.8687331 C82.7025647,14.3894884 82.5454339,14.9558493 82.3351867,15.6676473 C82.2146253,16.0758118 81.770986,17.542484 81.7621357,17.5719751 C81.4448798,18.629144 81.225566,19.4029319 81.034821,20.1612614 C80.7742854,21.1970514 80.5953056,22.1063933 80.4974631,22.9337854 C80.387239,23.8658807 80.8717782,24.8892083 81.6254893,25.5760679 C84.4347831,26.7332676 87.504194,26.4569741 89.6456861,23.9196975 C90.2206323,23.1377429 90.7762611,22.2643853 91.3250761,21.2942959 C92.0758696,19.9671875 92.5613318,18.973158 93.6239913,16.6812241 C94.571028,14.6386644 94.8727039,14.0592949 95.3564832,13.5924093 C96.409386,12.5762742 104.691513,7.60210234 106.312621,7.01706548 C109.265281,5.81063785 112.182093,5.55376173 113.837219,7.34510391 L114.046997,7.57214596 L114.130035,7.86990299 C114.566396,9.43458677 113.900918,11.0779739 112.193523,13.90128 C112.070504,14.1047011 111.941865,14.3148667 111.780719,14.5762637 C110.653559,16.4046437 110.480495,16.6939725 110.153141,17.3437897 C109.259074,18.8565689 106.491559,23.7322381 105.621215,25.3253456 C104.402414,27.5562784 103.960465,30.6351633 105.189947,32.9659522 C105.74632,33.7347603 106.218466,34.463373 106.717838,35.2998801 C106.81083,35.4556518 107.582479,36.7808293 107.783218,37.1031451 C108.618654,38.4445552 109.30872,39.0604921 110.82673,39.6627059 C116.469593,41.9013012 130.140165,46.4188895 131.990516,46.4188895 C133.224837,46.4188895 133.988798,46.2786753 134.606223,45.9945698 C134.746886,45.929844 135.051195,45.7428509 135.444067,45.4779529 C135.742704,45.2743832 135.899752,45.1649794 136.07712,45.0399389 C136.151256,44.9876748 136.329881,44.8611146 136.420411,44.796962 C136.948112,44.3317799 137.057264,44.0738793 137.269464,42.821231 C137.694792,39.32563 138.32105,33.2542128 138.32105,32.3933271 C138.32105,31.5585819 138.214195,31.0617445 137.813286,29.9434867 C137.340147,28.2560101 134.831389,23.1247343 132.123441,18.7548891 C128.272011,12.5397968 124.15032,7.77117964 120.17395,5.45961676 C115.778492,2.61806304 115.34982,2.55058221 104.55441,3.02750274 C101.319039,3.17043518 97.46804,3.29077154 90.8110343,3.47100506 C91.19124,3.46071128 86.4376036,3.58868193 85.185497,3.62314786 C76.2433736,3.86929191 71.6422038,4.06294379 71.0857728,4.23548713 C69.812212,4.63040483 12.2926148,35.6108467 10.971547,36.5337709 C8.54328637,38.2302022 6.5493916,39.8169829 4.76555226,41.726333 C2.3922146,44.2666586 2.11337803,45.6962823 3.9569208,47.0484386 C5.09958254,47.8013169 9.74551471,50.4143266 10.5656897,51.0963194 C11.7461763,52.0779189 12.2615159,53.2088091 11.8384467,54.5482575 C10.7161699,57.9404101 9.72310509,63.431093 10.0268086,66.2512838 C10.5432197,71.0466779 11.5816784,73.8741549 14.8287682,77.4701518 C17.4239053,79.8747862 19.3629747,81.091862 21.5728182,81.7434284 C23.5083932,82.3141274 25.2493781,82.4714705 30.3838053,82.6531976 C45.972851,82.5289465 62.5275299,82.4494388 79.0672002,82.4057913 Z" id="Path-52" fill="#F2F2F2" fill-rule="nonzero"></path>
                <path d="M107.011211,8.80574428 C105.956891,9.1047815 97.5490516,14.144708 96.6897917,14.9739622 C96.4067698,15.2471008 93.9297165,20.5895858 92.9961851,22.2397031 C92.4039088,23.286615 91.7996996,24.2347511 91.1431902,25.1220495 C88.3168731,28.5043146 84.2512479,28.8131367 80.6853977,27.2629601 C79.2414116,26.1018201 78.3894109,24.4108936 78.5907486,22.7083085 C78.6993409,21.7900125 78.8936525,20.802774 79.172821,19.6929065 C79.372008,18.9010152 79.598306,18.1025855 79.9231597,17.0200992 C79.933609,16.9852796 80.3753739,15.5248042 80.4938328,15.123758 C80.6965156,14.4375693 80.8464701,13.8970744 80.9666456,13.4093677 C81.266859,12.1910144 80.9378407,11.7209085 79.9893343,11.5698413 C79.1710938,11.4395214 78.0329924,11.6045677 76.9250856,11.9237388 C75.3413916,12.3799769 72.7788602,13.2213056 70.2811582,14.1696962 C66.5251303,15.5958797 63.4136216,17.065485 61.3722508,18.4909769 C59.7262324,19.6403935 58.8319275,21.2685206 58.5310076,23.3153223 C58.3110244,24.8116075 58.4117312,26.3566098 58.7391214,28.2065974 C58.7934093,28.5133627 58.9849537,29.5082016 59.0164251,29.6942399 C59.2249626,30.9269776 59.350019,31.5476499 59.5704754,32.2988295 C60.1014699,34.108131 60.9061773,35.3168356 62.1216171,35.8654133 C62.7662519,36.1563634 63.8004344,36.6689192 65.5137069,37.5399755 C65.8131216,37.6922029 69.3382226,39.4924229 70.4484488,40.0547989 C70.6331499,40.1483577 70.8137696,40.2397104 70.9910109,40.3292063 C74.207881,41.953527 76.5197507,43.0699712 78.1239737,43.7500016 C82.1025116,45.4365044 89.8677422,48.1206999 99.2325884,51.1000859 C102.51148,52.4876368 104.934404,54.3458868 106.699385,56.6024451 C107.705012,57.8881564 108.45788,59.2485492 109.04371,60.7153765 C109.264907,61.2692219 109.453377,61.8140492 109.639687,62.4170059 C109.730485,62.7108547 109.978654,63.5586197 110.016324,63.680779 C110.490938,65.2198779 110.627205,68.0135167 110.619134,73.1023786 C110.618296,73.6308739 110.616607,74.0767071 110.612457,74.9841419 C110.607062,76.1638896 110.605417,76.6313848 110.605417,77.2291667 C110.605417,79.6255892 109.487047,81.4967465 107.595096,82.7649797 C106.141028,83.7396864 104.276639,84.2904167 102.837083,84.2904167 C102.564231,84.2904167 102.354499,84.2904304 102.045114,84.2904857 C101.59048,84.2905671 101.090003,84.2907217 100.537573,84.2909693 C99.0541296,84.291634 97.394029,84.2928747 95.5619241,84.2948376 C90.5192243,84.3002403 84.9853468,84.3101802 79.072267,84.3257846 C62.5259571,84.3694496 45.964742,84.4490099 30.3713864,84.5733576 C25.0131902,84.3846669 23.1835068,84.220054 21.0298223,83.585046 C18.491359,82.836587 16.2981848,81.4556941 13.4815403,78.8392983 C9.85799289,74.8439614 8.67604977,71.6403414 8.11784571,66.4568581 C7.77838754,63.3046492 8.81462518,57.5752625 10.0129299,53.9535008 C10.1572614,53.4964082 9.97922518,53.1057156 9.33811534,52.5726192 C8.67300065,52.0195623 4.1029487,49.4506778 2.84984093,48.6174238 C-0.210589453,46.3935878 0.30276366,43.6906867 3.36257842,40.4155835 C5.26205591,38.3824588 7.34090759,36.7280678 9.87195764,34.9598259 C11.3417475,33.9330014 69.0254098,2.86419298 70.5171136,2.40163144 C71.3518868,2.14277712 75.4427422,1.97060312 85.1326664,1.70387484 C86.3854569,1.66939009 91.13983,1.5413996 90.7590708,1.55170837 C97.4050139,1.37177436 101.248962,1.25165833 104.46967,1.10937363 C115.628304,0.616406575 116.409141,0.739324587 121.138894,3.79971209 C125.449771,6.30573213 129.752333,11.2836093 133.755481,17.7435306 C136.538954,22.2352512 139.110468,27.4898051 139.628276,29.316837 C140.091597,30.6122374 140.24105,31.3130166 140.24105,32.3933271 C140.24105,33.372417 139.610774,39.4803711 139.16759,43.1117626 C138.878789,44.8243841 138.594929,45.4538247 137.632468,46.2875502 C137.573791,46.3328274 137.285312,46.5373433 137.183403,46.6091866 C136.999197,46.7390478 136.835052,46.8533954 136.67552,46.962513 C136.040352,47.3915736 135.673624,47.6169224 135.408812,47.7387748 C134.516632,48.1493075 133.48369,48.3388895 131.990516,48.3388895 C129.777892,48.3388895 116.079409,43.8120778 110.11872,41.447397 C108.196552,40.6848486 107.195519,39.7913498 106.153455,38.1181679 C105.934781,37.7670567 105.149344,36.4182003 105.069255,36.2840411 C104.582319,35.4683674 104.127322,34.7681914 103.585772,34.0244287 C101.894877,30.9345319 102.423977,27.1729741 103.936268,24.4048272 C104.813304,22.7994712 107.571897,17.93926 108.448354,16.4602937 C108.805761,15.751845 108.989094,15.4458727 110.146334,13.5686985 C110.304851,13.3115669 110.43083,13.1057469 110.550589,12.9077156 C111.865869,10.7328018 112.441071,9.37556769 112.312929,8.53709927 C111.346797,7.6911538 109.180249,7.91469749 107.011211,8.80574428 Z M79.0688891,83.0457891 C84.9826647,83.0301828 90.5172072,83.0202417 95.5605527,83.0148383 C97.3929291,83.0128751 99.0532952,83.0116342 100.536999,83.0109694 C101.089547,83.0107218 101.590138,83.0105672 102.044885,83.0104858 C102.354359,83.0104304 102.564158,83.0104167 102.837083,83.0104167 C104.026316,83.0104167 105.642194,82.5330953 106.882385,81.7017568 C108.437216,80.6595055 109.325417,79.1734468 109.325417,77.2291667 C109.325417,76.6287231 109.327066,76.1600766 109.332471,74.9782881 C109.336615,74.0720985 109.338301,73.6271697 109.339136,73.1003486 C109.346937,68.1813095 109.212073,65.4164362 108.793161,64.0579674 C108.751848,63.9239948 108.503815,63.0766956 108.416738,62.7948896 C108.239861,62.2224601 108.062267,61.7090719 107.855008,61.1901265 C107.311881,59.8302205 106.617255,58.5750694 105.691157,57.3910366 C104.064732,55.3116236 101.825358,53.5916461 98.815919,52.3107412 C89.4272092,49.3233285 81.6466044,46.6334993 77.6244117,44.9284913 C75.9859021,44.2339268 73.6556238,43.1085927 70.414068,41.4718072 C70.2363297,41.3820603 70.0552247,41.2904622 69.8700473,41.1966622 C68.7575342,40.6331277 65.2312471,38.832302 64.9336037,38.6809751 C63.2392976,37.8195617 62.2147886,37.3118002 61.5950496,37.0320867 C59.972046,36.2995587 58.9680396,34.7914987 58.3422759,32.6592819 C58.1032517,31.8448348 57.9710578,31.1887381 57.7543562,29.9077393 C57.7258816,29.7394161 57.5355852,28.7510594 57.478706,28.4296517 C57.1294697,26.4562177 57.0207327,24.7880199 57.2646208,23.1291386 C57.6138584,20.7536886 58.6826184,18.8079573 60.6394159,17.4415231 C62.7872841,15.9416641 65.9800212,14.4336936 69.8267876,12.9730562 C72.3593155,12.011442 74.9548735,11.15927 76.5707478,10.6937612 C77.8448968,10.3266983 79.1414707,10.1386706 80.1906604,10.3057734 C81.8647389,10.5724013 82.6925403,11.7551755 82.2094709,13.7156113 C82.0838665,14.2253504 81.9291278,14.7830893 81.7214021,15.4863509 C81.6015415,15.8921426 81.158527,17.3567492 81.1491437,17.3880164 C80.8293552,18.4536245 80.6077134,19.2356263 80.4141543,20.0051431 C80.1474077,21.0656256 79.9633174,22.000933 79.8618916,22.8586264 C79.7204888,24.0543801 80.3365313,25.311221 81.2805879,26.1255428 C84.358513,27.4315985 87.782644,27.1474604 90.1372005,24.3315408 C90.7369548,23.5191699 91.3138557,22.6138865 91.8821124,21.6094316 C92.6442143,20.2623345 93.1347147,19.2579888 94.2046175,16.9504326 C95.0938643,15.0325135 95.4049537,14.4350653 95.8009194,14.0529269 C96.7956324,13.0929496 105.201907,8.04977002 106.551562,7.61079995 C109.271019,6.49929004 111.964388,6.2612173 113.367152,7.77942696 L113.51356,8.04182649 C113.880991,9.35934488 113.250011,10.9175374 111.645878,13.5700918 C111.523946,13.7717164 111.396194,13.9804334 111.235924,14.2404087 C110.095183,16.0908187 109.921152,16.381765 109.58157,17.0558532 C108.704629,18.5367984 105.933402,23.4190068 105.059566,25.0185061 C103.74101,27.4320329 103.270502,30.7448792 104.645785,33.3057236 C105.201311,34.0709878 105.670282,34.7936792 106.168311,35.6279338 C106.257001,35.7765013 107.033246,37.1095718 107.239964,37.441486 C108.144275,38.8934867 108.937997,39.6019443 110.590726,40.257603 C116.339531,42.5382267 130.019408,47.0588895 131.990516,47.0588895 C133.311122,47.0588895 134.164743,46.9022194 134.873752,46.5759714 C135.055799,46.4922035 135.380914,46.2924251 135.80186,46.0085979 C136.10682,45.8007206 136.266233,45.6896689 136.445881,45.5630215 C136.529227,45.5042644 136.74215,45.3533697 136.817445,45.3000116 C137.499517,44.7041865 137.664208,44.3293179 137.901199,42.9279257 C138.331114,39.3998863 138.96105,33.2952199 138.96105,32.3933271 C138.96105,31.4747571 138.839449,30.9093571 138.415739,29.7274998 C137.937531,28.0154868 135.404517,22.8345972 132.667454,18.4177696 C128.765452,12.1210676 124.583471,7.28269714 120.469637,4.89038536 C115.988708,1.99181689 115.442648,1.905857 104.526163,2.38812637 C101.29568,2.5308429 97.4470313,2.65110581 90.7937131,2.8312395 C91.1741033,2.82094072 86.4202213,2.94891799 85.1678868,2.98339019 C75.9764964,3.23639564 71.5454314,3.42288823 70.8962197,3.6242019 C69.5499446,4.04166755 11.9756591,35.0515649 10.6050172,36.0091226 C8.14249344,37.7294907 6.1202797,39.3388082 4.29789431,41.2894165 C1.68958799,44.0812431 1.33729982,45.9361069 3.58023219,47.5666107 C4.72571527,48.3276819 9.38434325,50.9463562 10.1564983,51.5884194 C11.1571926,52.4205178 11.5600978,53.3046755 11.2308373,54.347233 C10.0823216,57.8186942 9.07486591,63.3889451 9.39048762,66.3198086 C9.92115942,71.2476273 11.0083723,74.2008479 14.3729047,77.9202488 C17.0454413,80.399734 19.0706306,81.6729047 21.3918196,82.3573009 C23.4006329,82.9495941 25.1716748,83.1092955 30.3750385,83.2932878 C45.9668723,83.1689833 62.5253693,83.0894467 79.0688891,83.0457891 Z" id="Path-52" fill="url(#linearGradient-1)" fill-rule="nonzero"></path>
                <path d="M26.7991378,84.4234672 L26.8719132,83.1455377 C27.771909,83.1967906 28.6149626,83.2311093 30.3611795,83.2933983 C49.3178514,83.1422302 69.3959058,83.0586196 88.6373516,83.0247042 L88.6396077,84.3047022 C69.4005999,84.3386134 49.3250521,84.4222134 30.3436876,84.572979 C28.560555,84.5099857 27.711401,84.4754186 26.7991378,84.4234672 Z" id="Path" fill="#FFB819" fill-rule="nonzero"></path>
                <path d="M107.011211,8.80574428 C105.956891,9.1047815 97.5490516,14.144708 96.6897917,14.9739622 C96.4067698,15.2471008 93.9297165,20.5895858 92.9961851,22.2397031 C92.4039088,23.286615 91.7996996,24.2347511 91.1431902,25.1220495 C88.3168731,28.5043146 84.2512479,28.8131367 80.6853977,27.2629601 C79.2414116,26.1018201 78.3894109,24.4108936 78.5907486,22.7083085 C78.6993409,21.7900125 78.8936525,20.802774 79.172821,19.6929065 C79.372008,18.9010152 79.598306,18.1025855 79.9231597,17.0200992 C79.933609,16.9852796 80.3753739,15.5248042 80.4938328,15.123758 C80.6965156,14.4375693 80.8464701,13.8970744 80.9666456,13.4093677 C81.266859,12.1910144 80.9378407,11.7209085 79.9893343,11.5698413 C79.1710938,11.4395214 78.0329924,11.6045677 76.9250856,11.9237388 C75.3413916,12.3799769 72.7788602,13.2213056 70.2811582,14.1696962 C66.5251303,15.5958797 63.4136216,17.065485 61.3722508,18.4909769 C59.7262324,19.6403935 58.8319275,21.2685206 58.5310076,23.3153223 C58.3110244,24.8116075 58.4117312,26.3566098 58.7391214,28.2065974 C58.7934093,28.5133627 58.9849537,29.5082016 59.0164251,29.6942399 C59.2249626,30.9269776 59.350019,31.5476499 59.5704754,32.2988295 C60.1014699,34.108131 60.9061773,35.3168356 62.1216171,35.8654133 C62.7662519,36.1563634 63.8004344,36.6689192 65.5137069,37.5399755 C65.8131216,37.6922029 69.3382226,39.4924229 70.4484488,40.0547989 C70.6331499,40.1483577 70.8137696,40.2397104 70.9910109,40.3292063 C74.207881,41.953527 76.5197507,43.0699712 78.1239737,43.7500016 C82.1025116,45.4365044 89.8677422,48.1206999 99.2325884,51.1000859 C102.51148,52.4876368 104.934404,54.3458868 106.699385,56.6024451 C107.705012,57.8881564 108.45788,59.2485492 109.04371,60.7153765 C109.264907,61.2692219 109.453377,61.8140492 109.639687,62.4170059 C109.730485,62.7108547 109.978654,63.5586197 110.016324,63.680779 C110.490938,65.2198779 110.627205,68.0135167 110.619134,73.1023786 C110.618296,73.6308739 110.616607,74.0767071 110.612457,74.9841419 C110.607062,76.1638896 110.605417,76.6313848 110.605417,77.2291667 C110.605417,79.6255892 109.487047,81.4967465 107.595096,82.7649797 C106.141028,83.7396864 104.276639,84.2907256 102.837083,84.2907256 C102.319776,84.2907256 101.84809,84.2907256 101.147598,84.2907256 L101.147152,83.0107257 C101.847811,83.010481 102.319639,83.0104167 102.837083,83.0104167 C104.026316,83.0104167 105.642194,82.5330953 106.882385,81.7017568 C108.437216,80.6595055 109.325417,79.1734468 109.325417,77.2291667 C109.325417,76.6287231 109.327066,76.1600766 109.332471,74.9782881 C109.336615,74.0720985 109.338301,73.6271697 109.339136,73.1003486 C109.346937,68.1813095 109.212073,65.4164362 108.793161,64.0579674 C108.751848,63.9239948 108.503815,63.0766956 108.416738,62.7948896 C108.239861,62.2224601 108.062267,61.7090719 107.855008,61.1901265 C107.311881,59.8302205 106.617255,58.5750694 105.691157,57.3910366 C104.064732,55.3116236 101.825358,53.5916461 98.815919,52.3107412 C89.4272092,49.3233285 81.6466044,46.6334993 77.6244117,44.9284913 C75.9859021,44.2339268 73.6556238,43.1085927 70.414068,41.4718072 C70.2363297,41.3820603 70.0552247,41.2904622 69.8700473,41.1966622 C68.7575342,40.6331277 65.2312471,38.832302 64.9336037,38.6809751 C63.2392976,37.8195617 62.2147886,37.3118002 61.5950496,37.0320867 C59.972046,36.2995587 58.9680396,34.7914987 58.3422759,32.6592819 C58.1032517,31.8448348 57.9710578,31.1887381 57.7543562,29.9077393 C57.7258816,29.7394161 57.5355852,28.7510594 57.478706,28.4296517 C57.1294697,26.4562177 57.0207327,24.7880199 57.2646208,23.1291386 C57.6138584,20.7536886 58.6826184,18.8079573 60.6394159,17.4415231 C62.7872841,15.9416641 65.9800212,14.4336936 69.8267876,12.9730562 C72.3593155,12.011442 74.9548735,11.15927 76.5707478,10.6937612 C77.8448968,10.3266983 79.1414707,10.1386706 80.1906604,10.3057734 C81.8647389,10.5724013 82.6925403,11.7551755 82.2094709,13.7156113 C82.0838665,14.2253504 81.9291278,14.7830893 81.7214021,15.4863509 C81.6015415,15.8921426 81.158527,17.3567492 81.1491437,17.3880164 C80.8293552,18.4536245 80.6077134,19.2356263 80.4141543,20.0051431 C80.1474077,21.0656256 79.9633174,22.000933 79.8618916,22.8586264 C79.7204888,24.0543801 80.3365313,25.311221 81.2805879,26.1255428 C84.358513,27.4315985 87.782644,27.1474604 90.1372005,24.3315408 C90.7369548,23.5191699 91.3138557,22.6138865 91.8821124,21.6094316 C92.6442143,20.2623345 93.1347147,19.2579888 94.2046175,16.9504326 C95.0938643,15.0325135 95.4049537,14.4350653 95.8009194,14.0529269 C96.7956324,13.0929496 105.201907,8.04977002 106.551562,7.61079995 C109.271019,6.49929004 111.964388,6.2612173 113.367152,7.77942696 L113.51356,8.04182649 C113.880991,9.35934488 113.250011,10.9175374 111.645878,13.5700918 C111.523946,13.7717164 111.396194,13.9804334 111.235924,14.2404087 C110.095183,16.0908187 109.921152,16.381765 109.58157,17.0558532 C108.704629,18.5367984 105.933402,23.4190068 105.059566,25.0185061 C103.74101,27.4320329 103.270502,30.7448792 104.645785,33.3057236 C105.201311,34.0709878 105.670282,34.7936792 106.168311,35.6279338 C106.257001,35.7765013 107.033246,37.1095718 107.239964,37.441486 C108.144275,38.8934867 108.937997,39.6019443 110.590726,40.257603 C112.294468,40.9334989 116.302619,42.3668904 120.093151,43.6441182 L119.684431,44.8571096 C115.87443,43.5733216 111.847202,42.1331077 110.11872,41.447397 C108.196552,40.6848486 107.195519,39.7913498 106.153455,38.1181679 C105.934781,37.7670567 105.149344,36.4182003 105.069255,36.2840411 C104.582319,35.4683674 104.127322,34.7681914 103.585772,34.0244287 C101.894877,30.9345319 102.423977,27.1729741 103.936268,24.4048272 C104.813304,22.7994712 107.571897,17.93926 108.448354,16.4602937 C108.805761,15.751845 108.989094,15.4458727 110.146334,13.5686985 C110.304851,13.3115669 110.43083,13.1057469 110.550589,12.9077156 C111.865869,10.7328018 112.441071,9.37556769 112.312929,8.53709927 C111.346797,7.6911538 109.180249,7.91469749 107.011211,8.80574428 Z" id="Path" fill-opacity="0.2" fill="#000000" fill-rule="nonzero"></path>
                <path d="M36.194019,20.6208929 L36.8016751,21.7474603 C22.9264056,29.2316039 11.0616446,35.6901136 10.6050172,36.0091226 L9.87195764,34.9598259 C10.396798,34.5931619 22.012975,28.2699673 36.194019,20.6208929 Z" id="Path" fill="#FFB819" fill-rule="nonzero"></path>
                <path d="M88.6396077,84.3047022 L88.6373516,83.0247042 C93.509356,83.0161167 97.7067758,83.0119268 101.147152,83.0107257 L101.147598,84.2907256 C97.7078034,84.2919266 93.5109826,84.2961158 88.6396077,84.3047022 Z" id="Path" fill="#FFA019" fill-rule="nonzero"></path>
                <path d="M80.6599763,1.83271759 L80.6991664,3.1121175 C74.7417825,3.29460194 71.4149494,3.46334932 70.8962197,3.6242019 C70.175506,3.8476876 55.5219784,11.6499672 36.8016751,21.7474603 L36.194019,20.6208929 C55.5355859,10.1882982 69.6614933,2.66695021 70.5171136,2.40163144 C71.2152404,2.18514973 74.3570875,2.02578541 80.6599763,1.83271759 Z" id="Path" fill="#FF9219" fill-rule="nonzero"></path>
                <path d="M140.24105,32.3933271 C140.24105,33.372417 139.610774,39.4803711 139.16759,43.1117626 C138.878789,44.8243841 138.594929,45.4538247 137.632468,46.2875502 C137.573791,46.3328274 137.285312,46.5373433 137.183403,46.6091866 C136.999197,46.7390478 136.835052,46.8533954 136.67552,46.962513 C136.621666,46.9993477 136.569001,47.0351267 136.517446,47.0698878 C136.040352,47.3915736 135.673624,47.6169224 135.408812,47.7387748 C134.516632,48.1493075 133.48369,48.3388895 131.990516,48.3388895 C130.616636,48.3388895 126.050931,47.0023154 119.684431,44.8571096 L120.093151,43.6441182 C126.228673,45.7114956 130.831338,47.0588895 131.990516,47.0588895 C133.311122,47.0588895 134.164743,46.9022194 134.873752,46.5759714 C135.055799,46.4922035 135.380914,46.2924251 135.80186,46.0085979 C135.850997,45.9754667 135.90132,45.941279 135.952887,45.9060083 C136.10682,45.8007206 136.266233,45.6896689 136.445881,45.5630215 C136.529227,45.5042644 136.74215,45.3533697 136.817445,45.3000116 C137.499517,44.7041865 137.664208,44.3293179 137.901199,42.9279257 C138.331114,39.3998863 138.96105,33.2952199 138.96105,32.3933271 C138.96105,31.4747571 138.839449,30.9093571 138.415739,29.7274998 C137.937531,28.0154868 135.404517,22.8345972 132.667454,18.4177696 C128.765452,12.1210676 124.583471,7.28269714 120.469637,4.89038536 C115.988708,1.99181689 115.442648,1.905857 104.526163,2.38812637 C101.29568,2.5308429 97.4470313,2.65110581 90.7937131,2.8312395 C91.1741033,2.82094072 86.4202213,2.94891799 85.1678868,2.98339019 C83.4276985,3.03129123 81.9973524,3.07235193 80.6991664,3.1121175 L80.6599763,1.83271759 C81.9596747,1.79290569 83.3912634,1.75180932 85.1326664,1.70387484 C86.3854569,1.66939009 91.13983,1.5413996 90.7590708,1.55170837 C97.4050139,1.37177436 101.248962,1.25165833 104.46967,1.10937363 C115.628304,0.616406575 116.409141,0.739324587 121.138894,3.79971209 C125.449771,6.30573213 129.752333,11.2836093 133.755481,17.7435306 C136.538954,22.2352512 139.110468,27.4898051 139.628276,29.316837 C140.091597,30.6122374 140.24105,31.3130166 140.24105,32.3933271 Z" id="Path-52" fill-opacity="0.37" fill="#000000" fill-rule="nonzero"></path>
                <g id="Group-6" transform="translate(36.456499, 21.333333) rotate(-32.000000) translate(-36.456499, -21.333333) translate(35.389832, 20.266667)">
                    <rect id="Rectangle-2" fill="#000000" x="0" y="0" width="1" height="1"></rect>
                    <rect id="Rectangle-2-Copy-4" fill="#FFFFFF" x="0" y="0.64" width="1" height="1"></rect>
                    <rect id="Rectangle-2-Copy-7" fill="#000000" x="0" y="1.28" width="1" height="1"></rect>
                    <rect id="Rectangle-2-Copy" fill="#FFFFFF" x="0.64" y="0" width="1" height="1"></rect>
                    <rect id="Rectangle-2-Copy-5" fill="#000000" x="0.64" y="0.64" width="1" height="1"></rect>
                    <rect id="Rectangle-2-Copy-9" fill="#FFFFFF" x="0.64" y="1.28" width="1" height="1"></rect>
                    <rect id="Rectangle-2-Copy-3" fill="#000000" x="1.28" y="0" width="1" height="1"></rect>
                    <rect id="Rectangle-2-Copy-6" fill="#FFFFFF" x="1.28" y="0.64" width="1" height="1"></rect>
                    <rect id="Rectangle-2-Copy-10" fill="#000000" x="1.28" y="1.28" width="1" height="1"></rect>
                </g>
                <g id="Group-Copy-7" transform="translate(11.520000, 30.720000)">
                    <circle id="Oval-Copy-2" fill-opacity="0.7" fill="#FFFFFF" cx="2.56" cy="2.56" r="2.56"></circle>
                    <circle id="Oval-Copy-2" fill-opacity="0.2" fill="#D0021B" cx="2.56" cy="2.56" r="2.56"></circle>
                    <circle id="Oval" stroke="#D0021B" stroke-width="0.5" fill="#FFFFFF" cx="2.56" cy="2.56" r="1.70666667"></circle>
                    <circle id="Oval-Copy" fill="#D0021B" cx="2.56" cy="2.56" r="1"></circle>
                </g>
                <path d="M18.0679496,70.4179167 L18.676283,70.4179167 C18.7054496,70.6616667 18.951283,70.8179167 19.3054496,70.8179167 C19.632533,70.8179167 19.863783,70.6595833 19.863783,70.4325 C19.863783,70.2408333 19.713783,70.1304167 19.345033,70.05125 L18.9533663,69.9679167 C18.4054496,69.8533333 18.1366996,69.5679167 18.1366996,69.1095833 C18.1366996,68.5429167 18.5929496,68.17 19.2866996,68.17 C19.9491996,68.17 20.4179496,68.5408333 20.4366996,69.07625 L19.845033,69.07625 C19.8158663,68.83875 19.595033,68.6804167 19.2908663,68.6804167 C18.976283,68.6804167 18.7679496,68.82625 18.7679496,69.0554167 C18.7679496,69.2408333 18.9116996,69.3470833 19.263783,69.4220833 L19.626283,69.4991667 C20.2304496,69.62625 20.4908663,69.8866667 20.4908663,70.3533333 C20.4908663,70.9595833 20.026283,71.3304167 19.2721163,71.3304167 C18.5554496,71.3304167 18.0908663,70.9783333 18.0679496,70.4179167 Z M21.751283,71.2533333 L21.751283,68.8595833 L21.713783,68.8595833 L20.976283,69.3679167 L20.976283,68.7825 L21.7533663,68.2470833 L22.3804496,68.2470833 L22.3804496,71.2533333 L21.751283,71.2533333 Z M16.9816996,74.0441667 L16.855033,74.0441667 C16.7116996,73.865 16.630033,73.5991667 16.630033,73.3133333 C16.630033,73.0283333 16.6991996,72.8216667 16.8633663,72.6116667 L16.9841996,72.6116667 C16.8633663,72.7533333 16.777533,73.0441667 16.777533,73.3133333 C16.777533,73.5733333 16.840033,73.7958333 16.9816996,74.0441667 Z M17.1833663,73.4991667 L17.335033,73.4991667 C17.3533663,73.625 17.4733663,73.705 17.6441996,73.705 C17.8058663,73.705 17.925033,73.6175 17.925033,73.4983333 C17.925033,73.3958333 17.850033,73.3308333 17.6841996,73.2891667 L17.530033,73.2491667 C17.312533,73.1941667 17.2183663,73.0958333 17.2183663,72.925 C17.2183663,72.7208333 17.3891996,72.5825 17.6433663,72.5825 C17.8758663,72.5825 18.0491996,72.7208333 18.0616996,72.915 L17.9108663,72.915 C17.890033,72.7916667 17.7883663,72.7183333 17.6383663,72.7183333 C17.4783663,72.7183333 17.372533,72.7983333 17.372533,72.92 C17.372533,73.0141667 17.4383663,73.0683333 17.6041996,73.1108333 L17.730033,73.1441667 C17.9791996,73.2066667 18.0791996,73.3033333 18.0791996,73.48 C18.0791996,73.7008333 17.905033,73.8416667 17.630033,73.8416667 C17.375033,73.8416667 17.1991996,73.7066667 17.1833663,73.4991667 Z M18.6683663,73.0258333 C18.525033,73.0258333 18.425033,73.1308333 18.4141996,73.29 L18.9091996,73.29 C18.9058663,73.1308333 18.8108663,73.0258333 18.6683663,73.0258333 Z M18.905033,73.5808333 L19.0483663,73.5808333 C19.005033,73.735 18.8666996,73.8291667 18.670033,73.8291667 C18.4208663,73.8291667 18.265033,73.6491667 18.265033,73.365 C18.265033,73.0825 18.4233663,72.8991667 18.670033,72.8991667 C18.912533,72.8991667 19.060033,73.0716667 19.060033,73.3508333 L19.060033,73.4058333 L18.4141996,73.4058333 L18.4141996,73.4125 C18.4216996,73.59 18.5208663,73.7025 18.6733663,73.7025 C18.7891996,73.7025 18.867533,73.66 18.905033,73.5808333 Z M20.0283663,73.19 L19.8833663,73.19 C19.860033,73.1008333 19.7808663,73.0283333 19.6516996,73.0283333 C19.490033,73.0283333 19.3883663,73.1575 19.3883663,73.3608333 C19.3883663,73.5683333 19.4916996,73.7 19.6516996,73.7 C19.772533,73.7 19.8566996,73.6441667 19.8833663,73.5425 L20.0283663,73.5425 C20.002533,73.7075 19.8683663,73.8291667 19.652533,73.8291667 C19.4008663,73.8291667 19.240033,73.6466667 19.240033,73.3608333 C19.240033,73.0808333 19.400033,72.8991667 19.6516996,72.8991667 C19.870033,72.8991667 20.0033663,73.03 20.0283663,73.19 Z M20.300033,72.6825 L20.4433663,72.6825 L20.4433663,72.915 L20.6433663,72.915 L20.6433663,73.035 L20.4433663,73.035 L20.4433663,73.5433333 C20.4433663,73.6491667 20.4833663,73.6941667 20.5766996,73.6941667 C20.602533,73.6941667 20.6166996,73.6933333 20.6433663,73.6908333 L20.6433663,73.8116667 C20.615033,73.8166667 20.587533,73.82 20.5591996,73.82 C20.3741996,73.82 20.300033,73.7516667 20.300033,73.58 L20.300033,73.035 L20.155033,73.035 L20.155033,72.915 L20.300033,72.915 L20.300033,72.6825 Z M21.2291996,73.7 C21.3991996,73.7 21.495033,73.5766667 21.495033,73.3641667 C21.495033,73.1508333 21.3991996,73.0283333 21.2291996,73.0283333 C21.0591996,73.0283333 20.9633663,73.1508333 20.9633663,73.3641667 C20.9633663,73.5766667 21.0591996,73.7 21.2291996,73.7 Z M21.2291996,73.8291667 C20.9733663,73.8291667 20.815033,73.6525 20.815033,73.3641667 C20.815033,73.075 20.9733663,72.8991667 21.2291996,72.8991667 C21.485033,72.8991667 21.6433663,73.075 21.6433663,73.3641667 C21.6433663,73.6525 21.485033,73.8291667 21.2291996,73.8291667 Z M21.8683663,73.8133333 L21.8683663,72.915 L22.005033,72.915 L22.005033,73.0483333 L22.0183663,73.0483333 C22.045033,72.9608333 22.1483663,72.8991667 22.267533,72.8991667 C22.2908663,72.8991667 22.3208663,72.9008333 22.3391996,72.9033333 L22.3391996,73.0466667 C22.327533,73.0433333 22.2758663,73.0383333 22.247533,73.0383333 C22.1108663,73.0383333 22.0116996,73.13 22.0116996,73.2566667 L22.0116996,73.8133333 L21.8683663,73.8133333 Z M23.2866996,73.8133333 L23.2866996,72.7775 L23.2733663,72.7775 L22.967533,72.9991667 L22.967533,72.8408333 L23.287533,72.6108333 L23.4366996,72.6108333 L23.4366996,73.8133333 L23.2866996,73.8133333 Z M23.7658663,74.0441667 C23.907533,73.7958333 23.970033,73.5733333 23.970033,73.3133333 C23.970033,73.0425 23.885033,72.7525 23.7641996,72.6116667 L23.8858663,72.6116667 C24.050033,72.8216667 24.1183663,73.0283333 24.1183663,73.3133333 C24.1183663,73.5975 24.0366996,73.8633333 23.8933663,74.0441667 L23.7658663,74.0441667 Z" id="S1-(Sector-1)-Copy" fill="#C6C6C6"></path>
                <path d="M83.4964913,38.8445833 L84.1048246,38.8445833 C84.1339913,39.0883333 84.3798246,39.2445833 84.7339913,39.2445833 C85.0610746,39.2445833 85.2923246,39.08625 85.2923246,38.8591667 C85.2923246,38.6675 85.1423246,38.5570833 84.7735746,38.4779167 L84.381908,38.3945833 C83.8339913,38.28 83.5652413,37.9945833 83.5652413,37.53625 C83.5652413,36.9695833 84.0214913,36.5966667 84.7152413,36.5966667 C85.3777413,36.5966667 85.8464913,36.9675 85.8652413,37.5029167 L85.2735746,37.5029167 C85.244408,37.2654167 85.0235746,37.1070833 84.719408,37.1070833 C84.4048246,37.1070833 84.1964913,37.2529167 84.1964913,37.4820833 C84.1964913,37.6675 84.3402413,37.77375 84.6923246,37.84875 L85.0548246,37.9258333 C85.6589913,38.0529167 85.919408,38.3133333 85.919408,38.78 C85.919408,39.38625 85.4548246,39.7570833 84.700658,39.7570833 C83.9839913,39.7570833 83.519408,39.405 83.4964913,38.8445833 Z M86.4173246,37.57375 C86.4173246,36.9925 86.863158,36.5966667 87.513158,36.5966667 C88.1402413,36.5966667 88.5777413,36.9570833 88.5777413,37.47375 C88.5777413,37.8008333 88.400658,38.0820833 87.8798246,38.5716667 L87.3048246,39.1195833 L87.3048246,39.1570833 L88.6214913,39.1570833 L88.6214913,39.68 L86.4527413,39.68 L86.4527413,39.2404167 L87.4339913,38.28 C87.856908,37.8675 87.963158,37.71125 87.963158,37.5154167 C87.963158,37.27375 87.7673246,37.1029167 87.4923246,37.1029167 C87.200658,37.1029167 87.000658,37.2945833 87.000658,37.5716667 L87.000658,37.5841667 L86.4173246,37.5841667 L86.4173246,37.57375 Z M82.5708663,42.4708333 L82.4441996,42.4708333 C82.3008663,42.2916667 82.2191996,42.0258333 82.2191996,41.74 C82.2191996,41.455 82.2883663,41.2483333 82.452533,41.0383333 L82.5733663,41.0383333 C82.452533,41.18 82.3666996,41.4708333 82.3666996,41.74 C82.3666996,42 82.4291996,42.2225 82.5708663,42.4708333 Z M82.772533,41.9258333 L82.9241996,41.9258333 C82.942533,42.0516667 83.062533,42.1316667 83.2333663,42.1316667 C83.395033,42.1316667 83.5141996,42.0441667 83.5141996,41.925 C83.5141996,41.8225 83.4391996,41.7575 83.2733663,41.7158333 L83.1191996,41.6758333 C82.9016996,41.6208333 82.807533,41.5225 82.807533,41.3516667 C82.807533,41.1475 82.9783663,41.0091667 83.232533,41.0091667 C83.465033,41.0091667 83.6383663,41.1475 83.6508663,41.3416667 L83.500033,41.3416667 C83.4791996,41.2183333 83.377533,41.145 83.227533,41.145 C83.067533,41.145 82.9616996,41.225 82.9616996,41.3466667 C82.9616996,41.4408333 83.027533,41.495 83.1933663,41.5375 L83.3191996,41.5708333 C83.5683663,41.6333333 83.6683663,41.73 83.6683663,41.9066667 C83.6683663,42.1275 83.4941996,42.2683333 83.2191996,42.2683333 C82.9641996,42.2683333 82.7883663,42.1333333 82.772533,41.9258333 Z M84.257533,41.4525 C84.1141996,41.4525 84.0141996,41.5575 84.0033663,41.7166667 L84.4983663,41.7166667 C84.495033,41.5575 84.400033,41.4525 84.257533,41.4525 Z M84.4941996,42.0075 L84.637533,42.0075 C84.5941996,42.1616667 84.4558663,42.2558333 84.2591996,42.2558333 C84.010033,42.2558333 83.8541996,42.0758333 83.8541996,41.7916667 C83.8541996,41.5091667 84.012533,41.3258333 84.2591996,41.3258333 C84.5016996,41.3258333 84.6491996,41.4983333 84.6491996,41.7775 L84.6491996,41.8325 L84.0033663,41.8325 L84.0033663,41.8391667 C84.0108663,42.0166667 84.110033,42.1291667 84.262533,42.1291667 C84.3783663,42.1291667 84.4566996,42.0866667 84.4941996,42.0075 Z M85.617533,41.6166667 L85.472533,41.6166667 C85.4491996,41.5275 85.370033,41.455 85.2408663,41.455 C85.0791996,41.455 84.977533,41.5841667 84.977533,41.7875 C84.977533,41.995 85.0808663,42.1266667 85.2408663,42.1266667 C85.3616996,42.1266667 85.4458663,42.0708333 85.472533,41.9691667 L85.617533,41.9691667 C85.5916996,42.1341667 85.457533,42.2558333 85.2416996,42.2558333 C84.990033,42.2558333 84.8291996,42.0733333 84.8291996,41.7875 C84.8291996,41.5075 84.9891996,41.3258333 85.2408663,41.3258333 C85.4591996,41.3258333 85.592533,41.4566667 85.617533,41.6166667 Z M85.8891996,41.1091667 L86.032533,41.1091667 L86.032533,41.3416667 L86.232533,41.3416667 L86.232533,41.4616667 L86.032533,41.4616667 L86.032533,41.97 C86.032533,42.0758333 86.072533,42.1208333 86.1658663,42.1208333 C86.1916996,42.1208333 86.2058663,42.12 86.232533,42.1175 L86.232533,42.2383333 C86.2041996,42.2433333 86.1766996,42.2466667 86.1483663,42.2466667 C85.9633663,42.2466667 85.8891996,42.1783333 85.8891996,42.0066667 L85.8891996,41.4616667 L85.7441996,41.4616667 L85.7441996,41.3416667 L85.8891996,41.3416667 L85.8891996,41.1091667 Z M86.8183663,42.1266667 C86.9883663,42.1266667 87.0841996,42.0033333 87.0841996,41.7908333 C87.0841996,41.5775 86.9883663,41.455 86.8183663,41.455 C86.6483663,41.455 86.552533,41.5775 86.552533,41.7908333 C86.552533,42.0033333 86.6483663,42.1266667 86.8183663,42.1266667 Z M86.8183663,42.2558333 C86.562533,42.2558333 86.4041996,42.0791667 86.4041996,41.7908333 C86.4041996,41.5016667 86.562533,41.3258333 86.8183663,41.3258333 C87.0741996,41.3258333 87.232533,41.5016667 87.232533,41.7908333 C87.232533,42.0791667 87.0741996,42.2558333 86.8183663,42.2558333 Z M87.457533,42.24 L87.457533,41.3416667 L87.5941996,41.3416667 L87.5941996,41.475 L87.607533,41.475 C87.6341996,41.3875 87.737533,41.3258333 87.8566996,41.3258333 C87.880033,41.3258333 87.910033,41.3275 87.9283663,41.33 L87.9283663,41.4733333 C87.9166996,41.47 87.865033,41.465 87.8366996,41.465 C87.700033,41.465 87.6008663,41.5566667 87.6008663,41.6833333 L87.6008663,42.24 L87.457533,42.24 Z M88.5808663,41.3758333 C88.5808663,41.1625 88.742533,41.0091667 88.9658663,41.0091667 C89.1816996,41.0091667 89.3466996,41.1558333 89.3466996,41.3466667 C89.3466996,41.4716667 89.290033,41.5691667 89.092533,41.7808333 L88.8033663,42.0916667 L88.8033663,42.105 L89.3666996,42.105 L89.3666996,42.24 L88.5883663,42.24 L88.5883663,42.1366667 L89.0041996,41.6825 C89.1591996,41.5141667 89.1966996,41.4491667 89.1966996,41.3525 C89.1966996,41.2325 89.0941996,41.14 88.9616996,41.14 C88.8208663,41.14 88.7258663,41.2341667 88.7258663,41.3758333 L88.7258663,41.3766667 L88.5808663,41.3766667 L88.5808663,41.3758333 Z M89.590033,42.4708333 C89.7316996,42.2225 89.7941996,42 89.7941996,41.74 C89.7941996,41.4691667 89.7091996,41.1791667 89.5883663,41.0383333 L89.710033,41.0383333 C89.8741996,41.2483333 89.942533,41.455 89.942533,41.74 C89.942533,42.0241667 89.8608663,42.29 89.717533,42.4708333 L89.590033,42.4708333 Z" id="S2-(Sector-2)-Copy" fill="#999999"></path>
                <path d="M131.655658,6.84458333 L132.263991,6.84458333 C132.293158,7.08833333 132.538991,7.24458333 132.893158,7.24458333 C133.220241,7.24458333 133.451491,7.08625 133.451491,6.85916667 C133.451491,6.6675 133.301491,6.55708333 132.932741,6.47791667 L132.541075,6.39458333 C131.993158,6.28 131.724408,5.99458333 131.724408,5.53625 C131.724408,4.96958333 132.180658,4.59666667 132.874408,4.59666667 C133.536908,4.59666667 134.005658,4.9675 134.024408,5.50291667 L133.432741,5.50291667 C133.403575,5.26541667 133.182741,5.10708333 132.878575,5.10708333 C132.563991,5.10708333 132.355658,5.25291667 132.355658,5.48208333 C132.355658,5.6675 132.499408,5.77375 132.851491,5.84875 L133.213991,5.92583333 C133.818158,6.05291667 134.078575,6.31333333 134.078575,6.78 C134.078575,7.38625 133.613991,7.75708333 132.859825,7.75708333 C132.143158,7.75708333 131.678575,7.405 131.655658,6.84458333 Z M135.345241,6.37583333 L135.345241,5.90708333 L135.711908,5.90708333 C135.997325,5.90708333 136.191075,5.74041667 136.191075,5.49458333 C136.191075,5.25291667 136.003575,5.09875 135.709825,5.09875 C135.418158,5.09875 135.224408,5.26333333 135.207741,5.52375 L134.626491,5.52375 C134.647325,4.955 135.070241,4.59666667 135.726491,4.59666667 C136.343158,4.59666667 136.786908,4.93416667 136.786908,5.40708333 C136.786908,5.755 136.568158,6.02583333 136.232741,6.09458333 L136.232741,6.13208333 C136.645241,6.17791667 136.903575,6.45291667 136.903575,6.84875 C136.903575,7.37583333 136.407741,7.75708333 135.722325,7.75708333 C135.051491,7.75708333 134.597325,7.38625 134.570241,6.81958333 L135.172325,6.81958333 C135.191075,7.07375 135.405658,7.23416667 135.728575,7.23416667 C136.043158,7.23416667 136.261908,7.05708333 136.261908,6.80083333 C136.261908,6.53833333 136.055658,6.37583333 135.718158,6.37583333 L135.345241,6.37583333 Z M130.764616,10.4708333 L130.63795,10.4708333 C130.494616,10.2916667 130.41295,10.0258333 130.41295,9.74 C130.41295,9.455 130.482116,9.24833333 130.646283,9.03833333 L130.767116,9.03833333 C130.646283,9.18 130.56045,9.47083333 130.56045,9.74 C130.56045,10 130.62295,10.2225 130.764616,10.4708333 Z M130.966283,9.92583333 L131.11795,9.92583333 C131.136283,10.0516667 131.256283,10.1316667 131.427116,10.1316667 C131.588783,10.1316667 131.70795,10.0441667 131.70795,9.925 C131.70795,9.8225 131.63295,9.7575 131.467116,9.71583333 L131.31295,9.67583333 C131.09545,9.62083333 131.001283,9.5225 131.001283,9.35166667 C131.001283,9.1475 131.172116,9.00916667 131.426283,9.00916667 C131.658783,9.00916667 131.832116,9.1475 131.844616,9.34166667 L131.693783,9.34166667 C131.67295,9.21833333 131.571283,9.145 131.421283,9.145 C131.261283,9.145 131.15545,9.225 131.15545,9.34666667 C131.15545,9.44083333 131.221283,9.495 131.387116,9.5375 L131.51295,9.57083333 C131.762116,9.63333333 131.862116,9.73 131.862116,9.90666667 C131.862116,10.1275 131.68795,10.2683333 131.41295,10.2683333 C131.15795,10.2683333 130.982116,10.1333333 130.966283,9.92583333 Z M132.451283,9.4525 C132.30795,9.4525 132.20795,9.5575 132.197116,9.71666667 L132.692116,9.71666667 C132.688783,9.5575 132.593783,9.4525 132.451283,9.4525 Z M132.68795,10.0075 L132.831283,10.0075 C132.78795,10.1616667 132.649616,10.2558333 132.45295,10.2558333 C132.203783,10.2558333 132.04795,10.0758333 132.04795,9.79166667 C132.04795,9.50916667 132.206283,9.32583333 132.45295,9.32583333 C132.69545,9.32583333 132.84295,9.49833333 132.84295,9.7775 L132.84295,9.8325 L132.197116,9.8325 L132.197116,9.83916667 C132.204616,10.0166667 132.303783,10.1291667 132.456283,10.1291667 C132.572116,10.1291667 132.65045,10.0866667 132.68795,10.0075 Z M133.811283,9.61666667 L133.666283,9.61666667 C133.64295,9.5275 133.563783,9.455 133.434616,9.455 C133.27295,9.455 133.171283,9.58416667 133.171283,9.7875 C133.171283,9.995 133.274616,10.1266667 133.434616,10.1266667 C133.55545,10.1266667 133.639616,10.0708333 133.666283,9.96916667 L133.811283,9.96916667 C133.78545,10.1341667 133.651283,10.2558333 133.43545,10.2558333 C133.183783,10.2558333 133.02295,10.0733333 133.02295,9.7875 C133.02295,9.5075 133.18295,9.32583333 133.434616,9.32583333 C133.65295,9.32583333 133.786283,9.45666667 133.811283,9.61666667 Z M134.08295,9.10916667 L134.226283,9.10916667 L134.226283,9.34166667 L134.426283,9.34166667 L134.426283,9.46166667 L134.226283,9.46166667 L134.226283,9.97 C134.226283,10.0758333 134.266283,10.1208333 134.359616,10.1208333 C134.38545,10.1208333 134.399616,10.12 134.426283,10.1175 L134.426283,10.2383333 C134.39795,10.2433333 134.37045,10.2466667 134.342116,10.2466667 C134.157116,10.2466667 134.08295,10.1783333 134.08295,10.0066667 L134.08295,9.46166667 L133.93795,9.46166667 L133.93795,9.34166667 L134.08295,9.34166667 L134.08295,9.10916667 Z M135.012116,10.1266667 C135.182116,10.1266667 135.27795,10.0033333 135.27795,9.79083333 C135.27795,9.5775 135.182116,9.455 135.012116,9.455 C134.842116,9.455 134.746283,9.5775 134.746283,9.79083333 C134.746283,10.0033333 134.842116,10.1266667 135.012116,10.1266667 Z M135.012116,10.2558333 C134.756283,10.2558333 134.59795,10.0791667 134.59795,9.79083333 C134.59795,9.50166667 134.756283,9.32583333 135.012116,9.32583333 C135.26795,9.32583333 135.426283,9.50166667 135.426283,9.79083333 C135.426283,10.0791667 135.26795,10.2558333 135.012116,10.2558333 Z M135.651283,10.24 L135.651283,9.34166667 L135.78795,9.34166667 L135.78795,9.475 L135.801283,9.475 C135.82795,9.3875 135.931283,9.32583333 136.05045,9.32583333 C136.073783,9.32583333 136.103783,9.3275 136.122116,9.33 L136.122116,9.47333333 C136.11045,9.47 136.058783,9.465 136.03045,9.465 C135.893783,9.465 135.794616,9.55666667 135.794616,9.68333333 L135.794616,10.24 L135.651283,10.24 Z M137.02795,9.68583333 L137.02795,9.5575 L137.173783,9.5575 C137.31045,9.5575 137.407116,9.46916667 137.407116,9.34416667 C137.407116,9.22166667 137.314616,9.14 137.176283,9.14 C137.03795,9.14 136.947116,9.21666667 136.934616,9.34583333 L136.788783,9.34583333 C136.803783,9.1375 136.95295,9.00916667 137.182116,9.00916667 C137.392116,9.00916667 137.559616,9.14916667 137.559616,9.32416667 C137.559616,9.4675 137.48045,9.5725 137.348783,9.60416667 L137.348783,9.6175 C137.512116,9.63833333 137.611283,9.75166667 137.611283,9.91583333 C137.611283,10.1141667 137.42545,10.2683333 137.18795,10.2683333 C136.943783,10.2683333 136.77545,10.1325 136.764616,9.92666667 L136.909616,9.92666667 C136.92295,10.055 137.031283,10.1375 137.186283,10.1375 C137.344616,10.1375 137.457116,10.0433333 137.457116,9.91166667 C137.457116,9.7725 137.351283,9.68583333 137.18045,9.68583333 L137.02795,9.68583333 Z M137.82295,10.4708333 C137.964616,10.2225 138.027116,10 138.027116,9.74 C138.027116,9.46916667 137.942116,9.17916667 137.821283,9.03833333 L137.94295,9.03833333 C138.107116,9.24833333 138.17545,9.455 138.17545,9.74 C138.17545,10.0241667 138.093783,10.29 137.95045,10.4708333 L137.82295,10.4708333 Z" id="S3-(Sector-3)-Copy" fill="#666666"></path>
                <g id="Group-Copy-8" transform="translate(3.840000, 47.360000)">
                    <circle id="Oval-Copy-2" fill-opacity="0.7" fill="#FFFFFF" cx="2.56" cy="2.56" r="2.56"></circle>
                    <circle id="Oval-Copy-2" fill-opacity="0.2" fill="#FFB819" cx="2.56" cy="2.56" r="2.56"></circle>
                    <circle id="Oval" stroke="#FFB819" stroke-width="0.5" fill="#FFFFFF" cx="2.56" cy="2.56" r="1.70666667"></circle>
                    <circle id="Oval-Copy" fill="#FFB819" cx="2.56" cy="2.56" r="1"></circle>
                </g>
                <g id="Group-Copy-8" transform="translate(134.400000, 21.760000)">
                    <circle id="Oval-Copy-2" fill-opacity="0.7" fill="#FFFFFF" cx="2.56" cy="2.56" r="2.56"></circle>
                    <circle id="Oval-Copy-2" fill-opacity="0.2" fill="#FFB819" cx="2.56" cy="2.56" r="2.56"></circle>
                    <circle id="Oval" stroke="#FFB819" stroke-width="0.5" fill="#FFFFFF" cx="2.56" cy="2.56" r="1.70666667"></circle>
                    <circle id="Oval-Copy" fill="#FFB819" cx="2.56" cy="2.56" r="1"></circle>
                </g>
            </g>
        </g>
    </g>
</svg>