<?xml version="1.0" encoding="UTF-8"?>
<svg width="160px" height="96px" viewBox="0 0 160 96" version="1.1" xmlns="http://www.w3.org/2000/svg" xmlns:xlink="http://www.w3.org/1999/xlink">
    <!-- Generator: Sketch 58 (84663) - https://sketch.com -->
    <title>circuit-gs-Gilles-Villeneuve-L-Eng</title>
    <desc>Created with Sketch.</desc>
    <defs>
        <linearGradient x1="50%" y1="23.3035083%" x2="50%" y2="112.667183%" id="linearGradient-1">
            <stop stop-color="#1B94E2" offset="0%"></stop>
            <stop stop-color="#40D8AB" offset="100%"></stop>
        </linearGradient>
    </defs>
    <g id="circuit-gs-Gilles-Villeneuve-L-Eng" stroke="none" stroke-width="1" fill="none" fill-rule="evenodd">
        <g id="circuit--cananda" transform="translate(0.000000, -0.426667)">
            <g id="Group-5" transform="translate(8.533333, 6.400000)">
                <path d="M91.7516272,31.8282067 L92.0104508,31.0150719 C95.2403757,32.0431679 97.3031293,32.8053783 98.2282692,33.3173589 C98.424078,33.476104 98.5247172,33.5888774 98.6064319,33.7089963 C98.8122196,34.0114998 98.8655346,34.2461669 98.9007251,34.7080343 C98.9318547,35.1166014 98.9695255,35.1914344 99.2907063,35.3334639 C100.525837,35.8960432 113.500812,41.5442509 138.184832,52.2646144 L137.844901,53.0473179 C113.138786,42.3173584 100.179749,36.6760886 98.941321,36.1119787 C98.2827943,35.8208304 98.1024012,35.46248 98.049858,34.7728635 C98.0253363,34.4510227 97.9983522,34.3322516 97.9008804,34.1889701 C97.8671669,34.139412 97.8250158,34.090237 97.7725742,34.0407556 C96.8910021,33.5647573 94.874637,32.8222712 91.7516272,31.8282067 Z" id="Path-3" fill="#E6E6E6" fill-rule="nonzero"></path>
                <path d="M76.974965,25.055953 C78.2425962,25.5881387 92.4726048,31.5829531 93.2771448,31.9046973 C95.4140864,32.8134482 96.200479,33.7385887 95.9048003,35.6488314 C95.7949505,36.1879003 95.8500624,36.2613133 96.3954278,36.4453289 C98.9727215,37.3220313 114.269839,44.0800367 119.383463,46.5159313 C121.420152,47.486116 123.402248,48.8294864 125.505006,50.5659481 C126.161364,51.1079704 126.813326,51.6742564 127.54202,52.3291886 C127.81783,52.5770797 128.089382,52.823753 128.444317,53.1480847 C128.540454,53.2359332 128.657832,53.3433022 128.86418,53.5320562 C129.026871,53.6808229 129.147154,53.790609 129.272102,53.9043598 C129.594721,54.2041409 129.910531,54.429376 130.223213,54.5896605 C131.535583,55.2623968 132.478701,55.028291 135.98574,53.4371692 C136.249396,53.3175503 136.470056,53.2189012 136.675079,53.1294135 C140.694357,51.3338876 144.628057,52.2164764 145.501172,55.1557614 C146.250787,57.9754451 145.513701,59.720644 143.361292,61.4712037 C143.069141,61.7088111 142.955455,61.795699 142.194113,62.3692907 C141.77916,62.6626124 141.308304,62.9505121 140.752215,63.2566057 C140.006434,63.6671128 136.84938,65.2164472 136.128668,65.5957215 C134.217911,66.4484111 132.66441,67.0979092 131.170949,67.6832157 C130.587048,67.9120539 130.029998,68.1244525 129.375119,68.3694356 C129.140597,68.4571677 128.089948,68.8476791 127.810776,68.9523936 C127.65289,69.0116153 127.50653,69.0668363 127.365785,69.1203251 C127.200708,69.1830614 126.603755,69.4142231 126.584507,69.4216282 C123.374991,70.6564185 121.330006,70.885616 118.816939,69.6168447 C115.739906,68.0633448 114.934114,67.9671575 111.300609,69.1268572 C102.993868,72.5508132 93.6887123,69.2051791 86.6829109,62.2967488 C86.0809174,61.8510538 85.5910245,61.583158 85.2191864,61.4701491 C84.6829338,61.4842148 84.4868189,61.7971263 84.267675,62.4593739 C84.2068901,62.6430641 84.0091434,63.2987618 83.9967763,63.3381505 C83.9469595,63.4968155 83.9019571,63.6305958 83.8552341,63.7558126 C81.9835243,68.1553965 79.1323912,69.2731105 74.9209446,66.6686488 C73.9431921,66.2292991 70.6839207,64.3495957 65.5648261,61.3148328 C63.6954625,60.2066143 61.7052054,59.0190103 59.7037352,57.8193697 C58.9699085,57.3795289 58.2747955,56.9621653 57.6316946,56.5754498 C57.1949908,56.3128471 56.8407321,56.0995422 56.5731964,55.9382738 C56.169455,55.6949018 55.3755112,55.068353 53.9591644,53.8987066 C53.1451855,53.2265071 49.6033981,50.2662403 49.7778386,50.4116117 C49.6695978,50.321403 49.6692765,50.3211354 49.5603459,50.2304078 C47.1816636,48.249545 45.5712575,46.9425618 44.4149508,46.0733552 C41.0619269,43.2043442 40.4326667,42.3891862 40.4326667,40.4036667 C40.936141,36.9226994 40.4888429,35.2592081 39.0208997,34.0807666 C38.3785848,33.3869817 21.8039995,18.0903218 18.5193689,15.1131862 C17.9856384,14.6804772 16.9802612,14.1959517 15.2744118,13.5134969 C15.1013179,13.4442477 13.842263,12.9475416 13.4932241,12.8059715 C12.858704,12.5486102 12.3827995,12.3408514 11.986826,12.1420281 C9.25543837,11.1092885 6.08401972,9.8426671 3.76704762,8.81886726 C2.43854471,8.32207422 1.66698102,7.90594652 1.0854724,7.22765798 C0.281132091,6.28945208 0.152364662,5.08991155 0.652222363,3.68770789 C1.38154776,2.17417571 2.59020557,1.50598147 4.07768382,1.51948088 C5.08091773,1.5289315 6.15006877,1.82740152 7.43122193,2.37138011 C7.89292162,2.46992149 8.60381769,2.69982311 9.72933988,3.09735071 C10.4442532,3.34985374 13.4592311,4.44569118 13.4184537,4.43097759 C13.6120723,4.50084042 13.7966805,4.5672253 13.9753996,4.63123439 C16.7922436,5.64010085 18.6054169,6.21599542 19.5583256,6.36907034 C20.8658617,6.57911248 23.6154719,7.16333595 28.4799481,8.24195618 C29.2837841,8.42029929 32.3444915,9.10117493 33.1448549,9.27841151 C34.6886759,9.62028319 35.7563299,9.85315665 36.4933526,10.0084967 C37.9180116,10.2608505 56.2619159,16.609877 60.6334099,18.375156 C61.9374545,18.7915954 67.5104511,21.0832765 76.974965,25.055953 Z M139.517746,61.0139093 C139.996017,60.7506502 140.38808,60.5109272 140.684385,60.3022283 C141.381396,59.7763986 141.489094,59.6940866 141.746015,59.4851323 C143.173175,58.3244191 143.4932,57.5666976 143.037196,55.8493273 C142.701057,54.7184711 140.499876,54.2246007 137.709439,55.4711189 C137.507141,55.5594658 137.296947,55.6534355 137.04343,55.7684548 C134.66921,56.8456234 134.305577,56.9976176 133.278407,57.2525872 C131.751499,57.6316049 130.374719,57.5440746 129.055419,56.8677862 C128.526809,56.5968144 128.019405,56.2349357 127.539518,55.7889195 C127.422614,55.6825846 127.300845,55.5714413 127.136641,55.4212908 C126.929749,55.2320396 126.812988,55.1252344 126.71743,55.0379162 C126.36724,54.7179197 126.100433,54.4755571 125.830759,54.2331803 C125.126701,53.60039 124.500701,53.0566543 123.874924,52.5398864 C121.92088,50.9262335 120.103681,49.6946226 118.282525,48.8271076 C113.259743,46.4344858 98.0217689,39.702609 95.5739959,38.8699608 C93.9221661,38.3126174 93.0057847,37.101803 93.379485,35.2277928 C93.4522855,34.7562771 93.4359485,34.7540893 92.3013647,34.2712684 C91.4970071,33.9499312 77.1941828,27.924441 76.2402743,27.5239557 C66.6108366,23.4820416 60.8821359,21.1276475 59.827051,20.8051839 C55.6049862,19.0977441 37.2405343,12.7406982 36.0071764,12.5215825 C35.2187123,12.3560973 34.1438808,12.1216583 32.5913639,11.777861 C31.7895315,11.6002991 28.7280879,10.9192597 28.1845477,10.7986538 C23.1332533,9.67858907 20.385642,9.09479029 19.1522936,8.89666564 C17.9784961,8.70810722 16.1013636,8.11189814 13.1122156,7.04132016 C12.9315127,6.97660055 12.7450167,6.90953683 12.5495687,6.83901389 C12.5799408,6.84997297 9.57875475,5.75914839 8.87677789,5.51121443 C7.77740596,5.12292295 7.08266612,4.90310144 6.85199207,4.86625102 C4.4961943,3.89036851 3.45645143,3.86068925 3.03716179,4.62302857 C2.71970606,5.55432073 2.94523986,5.78140406 4.6965195,6.43327625 C7.05408682,7.47386537 10.2369061,8.74455412 12.9559855,9.77157715 C13.4142503,9.99690466 13.8488244,10.1876423 14.4554253,10.4336796 C14.7907546,10.5696891 16.0417865,11.06323 16.2253101,11.1366518 C18.2129568,11.9318446 19.3612522,12.4873052 20.1710054,13.1569052 C23.5110098,16.1811017 39.1865934,30.6461444 40.6792488,32.1296139 C42.8920111,33.9385611 43.5737173,36.4716204 42.9935927,40.4906018 C43.0134867,41.3783437 43.3740183,41.8131398 45.9861031,44.0518019 C47.1843935,44.9543317 48.8093864,46.2736138 51.198548,48.2632032 C51.3082685,48.3545887 51.3082685,48.3545887 51.4179379,48.4459881 C51.2352512,48.2937135 54.7806506,51.2570142 55.5892668,51.9247851 C56.8632196,52.9768398 57.652661,53.5998355 57.8948036,53.7457971 C58.1615822,53.9066091 58.5150608,54.1194442 58.9509476,54.3815557 C59.5930357,54.7676622 60.287106,55.1843996 61.0198427,55.6235872 C63.0180303,56.8212602 65.0048734,58.0068271 66.8703103,59.1127177 C71.9208278,62.1068259 75.3883531,64.1024556 75.9904237,64.3425337 C79.0441551,66.2342887 80.197329,65.8011763 81.4661568,62.8353656 C81.4923543,62.7633822 81.5209744,62.6775392 81.5543351,62.5712861 C81.557626,62.5608046 81.7636693,61.8775969 81.8372842,61.6551347 C82.2715977,60.3426499 82.7988795,59.5013441 83.8203443,59.0695133 C85.0759163,58.5387123 86.5350565,58.9821736 88.2889504,60.3010238 C94.7913903,66.7296183 103.148076,69.7438088 110.368867,66.7418887 C114.817461,65.3133745 116.304692,65.4807241 119.970699,67.3315797 C121.666774,68.187876 123.070833,68.030512 125.665287,67.0323535 C125.677904,67.0274992 126.282357,66.7934331 126.456341,66.7273121 C126.600747,66.6724317 126.750526,66.6159207 126.911711,66.555462 C127.195358,66.4490688 128.247433,66.0580275 128.478158,65.9717157 C129.121514,65.7310431 129.666629,65.5231952 130.236829,65.2997266 C131.684446,64.732387 133.191617,64.1025227 134.974966,63.3100958 C135.807722,62.8752622 138.847369,61.382911 139.517746,61.0139093 Z" id="Path-17" fill="#EBEBEB" fill-rule="nonzero"></path>
                <path d="M76.974965,23.775953 C78.2425962,24.3081387 92.4726048,30.3029531 93.2771448,30.6246973 C95.4140864,31.5334482 96.200479,32.4585887 95.9048003,34.3688314 C95.7949505,34.9079003 95.8500624,34.9813133 96.3954278,35.1653289 C98.9727215,36.0420313 114.269839,42.8000367 119.383463,45.2359313 C121.420152,46.206116 123.402248,47.5494864 125.505006,49.2859481 C126.161364,49.8279704 126.813326,50.3942564 127.54202,51.0491886 C127.81783,51.2970797 128.089382,51.543753 128.444317,51.8680847 C128.540454,51.9559332 128.657832,52.0633022 128.86418,52.2520562 C129.026871,52.4008229 129.147154,52.510609 129.272102,52.6243598 C129.594721,52.9241409 129.910531,53.149376 130.223213,53.3096605 C131.535583,53.9823968 132.478701,53.748291 135.98574,52.1571692 C136.249396,52.0375503 136.470056,51.9389012 136.675079,51.8494135 C140.694357,50.0538876 144.628057,50.9364764 145.501172,53.8757614 C146.250787,56.6954451 145.513701,58.440644 143.361292,60.1912037 C143.069141,60.4288111 142.955455,60.515699 142.194113,61.0892907 C141.77916,61.3826124 141.308304,61.6705121 140.752215,61.9766057 C140.006434,62.3871128 136.84938,63.9364472 136.128668,64.3157215 C134.217911,65.1684111 132.66441,65.8179092 131.170949,66.4032157 C130.587048,66.6320539 130.029998,66.8444525 129.375119,67.0894356 C129.140597,67.1771677 128.089948,67.5676791 127.810776,67.6723936 C127.65289,67.7316153 127.50653,67.7868363 127.365785,67.8403251 C127.200708,67.9030614 126.603755,68.1342231 126.584507,68.1416282 C123.374991,69.3764185 121.330006,69.605616 118.816939,68.3368447 C115.739906,66.7833448 114.934114,66.6871575 111.300609,67.8468572 C102.993868,71.2708132 93.6887123,67.9251791 86.6829109,61.0167488 C86.0809174,60.5710538 85.5910245,60.303158 85.2191864,60.1901491 C84.6829338,60.2042148 84.4868189,60.5171263 84.267675,61.1793739 C84.2068901,61.3630641 84.0091434,62.0187618 83.9967763,62.0581505 C83.9469595,62.2168155 83.9019571,62.3505958 83.8552341,62.4758126 C81.9835243,66.8753965 79.1323912,67.9931105 74.9209446,65.3886488 C73.9431921,64.9492991 70.6839207,63.0695957 65.5648261,60.0348328 C63.6954625,58.9266143 61.7052054,57.7390103 59.7037352,56.5393697 C58.9699085,56.0995289 58.2747955,55.6821653 57.6316946,55.2954498 C57.1949908,55.0328471 56.8407321,54.8195422 56.5731964,54.6582738 C56.169455,54.4149018 55.3755112,53.788353 53.9591644,52.6187066 C53.1451855,51.9465071 49.6033981,48.9862403 49.7778386,49.1316117 C49.6695978,49.041403 49.6692765,49.0411354 49.5603459,48.9504078 C47.1816636,46.969545 45.5712575,45.6625618 44.4149508,44.7933552 C41.0619269,41.9243442 40.4326667,41.1091862 40.4326667,39.1236667 C40.936141,35.6426994 40.4888429,33.9792081 39.0208997,32.8007666 C38.3785848,32.1069817 21.8039995,16.8103218 18.5193689,13.8331862 C17.9856384,13.4004772 16.9802612,12.9159517 15.2744118,12.2334969 C15.1013179,12.1642477 13.842263,11.6675416 13.4932241,11.5259715 C12.858704,11.2686102 12.3827995,11.0608514 11.986826,10.8620281 C9.25543837,9.82928852 6.08401972,8.5626671 3.76704762,7.53886726 C2.43854471,7.04207422 1.66698102,6.62594652 1.0854724,5.94765798 C0.281132091,5.00945208 0.152364662,3.80991155 0.652222363,2.40770789 C1.38154776,0.894175713 2.59020557,0.225981472 4.07768382,0.239480879 C5.08091773,0.248931505 6.15006877,0.547401517 7.43122193,1.09138011 C7.89292162,1.18992149 8.60381769,1.41982311 9.72933988,1.81735071 C10.4442532,2.06985374 13.4592311,3.16569118 13.4184537,3.15097759 C13.6120723,3.22084042 13.7966805,3.2872253 13.9753996,3.35123439 C16.7922436,4.36010085 18.6054169,4.93599542 19.5583256,5.08907034 C20.8658617,5.29911248 23.6154719,5.88333595 28.4799481,6.96195618 C29.2837841,7.14029929 32.3444915,7.82117493 33.1448549,7.99841151 C34.6886759,8.34028319 35.7563299,8.57315665 36.4933526,8.7284967 C37.9180116,8.98085051 56.2619159,15.329877 60.6334099,17.095156 C61.9374545,17.5115954 67.5104511,19.8032765 76.974965,23.775953 Z M139.517746,59.7339093 C139.996017,59.4706502 140.38808,59.2309272 140.684385,59.0222283 C141.381396,58.4963986 141.489094,58.4140866 141.746015,58.2051323 C143.173175,57.0444191 143.4932,56.2866976 143.037196,54.5693273 C142.701057,53.4384711 140.499876,52.9446007 137.709439,54.1911189 C137.507141,54.2794658 137.296947,54.3734355 137.04343,54.4884548 C134.66921,55.5656234 134.305577,55.7176176 133.278407,55.9725872 C131.751499,56.3516049 130.374719,56.2640746 129.055419,55.5877862 C128.526809,55.3168144 128.019405,54.9549357 127.539518,54.5089195 C127.422614,54.4025846 127.300845,54.2914413 127.136641,54.1412908 C126.929749,53.9520396 126.812988,53.8452344 126.71743,53.7579162 C126.36724,53.4379197 126.100433,53.1955571 125.830759,52.9531803 C125.126701,52.32039 124.500701,51.7766543 123.874924,51.2598864 C121.92088,49.6462335 120.103681,48.4146226 118.282525,47.5471076 C113.259743,45.1544858 98.0217689,38.422609 95.5739959,37.5899608 C93.9221661,37.0326174 93.0057847,35.821803 93.379485,33.9477928 C93.4522855,33.4762771 93.4359485,33.4740893 92.3013647,32.9912684 C91.4970071,32.6699312 77.1941828,26.644441 76.2402743,26.2439557 C66.6108366,22.2020416 60.8821359,19.8476475 59.827051,19.5251839 C55.6049862,17.8177441 37.2405343,11.4606982 36.0071764,11.2415825 C35.2187123,11.0760973 34.1438808,10.8416583 32.5913639,10.497861 C31.7895315,10.3202991 28.7280879,9.6392597 28.1845477,9.51865379 C23.1332533,8.39858907 20.385642,7.81479029 19.1522936,7.61666564 C17.9784961,7.42810722 16.1013636,6.83189814 13.1122156,5.76132016 C12.9315127,5.69660055 12.7450167,5.62953683 12.5495687,5.55901389 C12.5799408,5.56997297 9.57875475,4.47914839 8.87677789,4.23121443 C7.77740596,3.84292295 7.08266612,3.62310144 6.85199207,3.58625102 C4.4961943,2.61036851 3.45645143,2.58068925 3.03716179,3.34302857 C2.71970606,4.27432073 2.94523986,4.50140406 4.6965195,5.15327625 C7.05408682,6.19386537 10.2369061,7.46455412 12.9559855,8.49157715 C13.4142503,8.71690466 13.8488244,8.9076423 14.4554253,9.15367956 C14.7907546,9.28968907 16.0417865,9.78323002 16.2253101,9.85665184 C18.2129568,10.6518446 19.3612522,11.2073052 20.1710054,11.8769052 C23.5110098,14.9011017 39.1865934,29.3661444 40.6792488,30.8496139 C42.8920111,32.6585611 43.5737173,35.1916204 42.9935927,39.2106018 C43.0134867,40.0983437 43.3740183,40.5331398 45.9861031,42.7718019 C47.1843935,43.6743317 48.8093864,44.9936138 51.198548,46.9832032 C51.3082685,47.0745887 51.3082685,47.0745887 51.4179379,47.1659881 C51.2352512,47.0137135 54.7806506,49.9770142 55.5892668,50.6447851 C56.8632196,51.6968398 57.652661,52.3198355 57.8948036,52.4657971 C58.1615822,52.6266091 58.5150608,52.8394442 58.9509476,53.1015557 C59.5930357,53.4876622 60.287106,53.9043996 61.0198427,54.3435872 C63.0180303,55.5412602 65.0048734,56.7268271 66.8703103,57.8327177 C71.9208278,60.8268259 75.3883531,62.8224556 75.9904237,63.0625337 C79.0441551,64.9542887 80.197329,64.5211763 81.4661568,61.5553656 C81.4923543,61.4833822 81.5209744,61.3975392 81.5543351,61.2912861 C81.557626,61.2808046 81.7636693,60.5975969 81.8372842,60.3751347 C82.2715977,59.0626499 82.7988795,58.2213441 83.8203443,57.7895133 C85.0759163,57.2587123 86.5350565,57.7021736 88.2889504,59.0210238 C94.7913903,65.4496183 103.148076,68.4638088 110.368867,65.4618887 C114.817461,64.0333745 116.304692,64.2007241 119.970699,66.0515797 C121.666774,66.907876 123.070833,66.750512 125.665287,65.7523535 C125.677904,65.7474992 126.282357,65.5134331 126.456341,65.4473121 C126.600747,65.3924317 126.750526,65.3359207 126.911711,65.275462 C127.195358,65.1690688 128.247433,64.7780275 128.478158,64.6917157 C129.121514,64.4510431 129.666629,64.2431952 130.236829,64.0197266 C131.684446,63.452387 133.191617,62.8225227 134.974966,62.0300958 C135.807722,61.5952622 138.847369,60.102911 139.517746,59.7339093 Z" id="Path-17" fill="#F2F2F2" fill-rule="nonzero"></path>
                <path d="M60.4164009,17.6977459 C61.6325093,18.0787009 67.2497404,20.3879379 76.7272644,24.3660754 C77.9804929,24.8922143 92.2287054,30.8946976 93.0266862,31.2136544 C94.9253381,32.0210708 95.5134809,32.7129831 95.2665953,34.3026812 C95.0948971,35.1327118 95.365593,35.4932973 96.189321,35.7712332 C98.7349833,36.6371757 114.017315,43.3886489 119.108228,45.8137253 C121.091034,46.7582427 123.031906,48.0736731 125.097485,49.7794327 C125.746199,50.3151413 126.39167,50.8757898 127.114205,51.5251865 C127.388481,51.7716991 127.658846,52.0172946 128.012595,52.3405426 C128.108588,52.4282585 128.225811,52.5354865 128.432295,52.7243649 C128.595365,52.8734775 128.716019,52.9836029 128.836452,53.0931976 C129.200892,53.4318396 129.564601,53.6912356 129.931265,53.8791919 C131.494999,54.6807806 132.549166,54.4191095 136.250163,52.7399906 C136.511284,52.6215216 136.729327,52.5240423 136.936122,52.4337565 C140.645737,50.7765659 144.146307,51.561975 144.882657,54.0401943 C145.56139,56.5932582 144.92857,58.0915878 142.957473,59.6946859 C142.674129,59.92513 142.56194,60.0108739 141.824689,60.5666767 C141.43139,60.8446911 140.980232,61.1205467 140.443597,61.4159316 C139.713969,61.8175478 136.56434,63.3632386 135.83062,63.7493584 C133.96662,64.579731 132.421955,65.2255346 130.937419,65.8073434 C130.356943,66.0348392 129.802877,66.2461001 129.150879,66.4900056 C128.917306,66.5773827 127.8663,66.9680265 127.58601,67.0731607 C127.427299,67.1326917 127.280084,67.1882352 127.138424,67.2420718 C126.97112,67.3056543 126.372292,67.5375421 126.354702,67.5443095 C123.298952,68.7199418 121.414198,68.931181 119.105379,67.7655285 C115.877643,66.1359429 114.903732,66.0235618 111.080703,67.2452431 C103.035286,70.5752867 93.9530894,67.3044757 87.1006834,60.5298456 C85.855651,59.6002536 85.044015,59.3567237 84.5679723,59.5579738 C84.2119202,59.7084971 83.9330136,60.1535072 83.6600773,60.9783141 C83.5960849,61.1716973 83.396264,61.8342725 83.386166,61.8664344 C83.3394559,62.0152049 83.2978453,62.1389023 83.2448518,62.2790395 C81.5361314,66.2924357 79.102772,67.2386709 75.2214348,64.8219128 C74.3678782,64.454159 71.0459632,62.5402141 65.8911971,59.484304 C64.0228152,58.3766675 62.0334116,57.1895728 60.0327621,55.9904241 C59.2992079,55.5507466 58.6043555,55.1335395 57.9615078,54.7469763 C57.5250083,54.4844964 57.1709446,54.2713089 56.9035982,54.1101546 C56.5402565,53.8911352 55.7474383,53.2654747 54.36669,52.1252262 C53.5544139,51.4544329 50.0145347,48.4957609 50.1876271,48.6400088 C50.0792652,48.5496992 50.0789484,48.5494354 49.9698964,48.4586067 C47.5831076,46.4709932 45.9670941,45.159459 44.7676957,44.2562331 C41.6195588,41.559318 41.0726667,40.8508614 41.0726667,39.1236667 C41.5996182,35.5321103 41.0914543,33.6422608 39.4215512,32.301689 C38.8308565,31.652554 22.1969881,16.3014151 18.9474617,13.3565474 C18.3487409,12.861454 17.3047958,12.3564703 15.5121364,11.6392856 C15.3364351,11.5689932 14.0793859,11.0730785 13.7337744,10.9328985 C13.0976479,10.6748857 12.6276199,10.4691707 12.2447551,10.2753287 C9.50257896,9.23903421 6.30711977,7.96290236 4.02674025,6.95266386 C1.37484316,5.96555824 0.448535509,4.88508608 1.25506363,2.62260881 C2.30606138,0.458534646 4.3315651,0.460778979 7.23939022,1.70535217 C7.65143506,1.78559846 8.3651474,2.01427208 9.51619938,2.42081664 C10.2278786,2.6721774 13.2394085,3.76676162 13.2012325,3.75298667 C13.3953084,3.82301452 13.5803886,3.88956912 13.7596036,3.95375583 C16.6195236,4.97805017 18.4486867,5.55902337 19.4568176,5.72096917 C20.7458068,5.92803193 23.4949172,6.51214923 28.3414032,7.58678042 C29.14486,7.7650394 32.2057515,8.44595597 33.0064821,8.62327388 C34.5524771,8.96562697 35.6219255,9.19889182 36.3817253,9.35868663 C37.7499638,9.60104653 56.128807,15.9626159 60.4164009,17.6977459 Z M139.826363,60.2945834 C140.324089,60.0206157 140.73585,59.7688485 141.069825,59.5331455 C141.774911,59.0012237 141.884106,58.9177677 142.149834,58.7016502 C143.758307,57.3934753 144.182596,56.3888845 143.650668,54.3869772 C143.182807,52.8129724 140.548496,52.2219224 137.453302,53.6046092 C137.24787,53.6943246 137.035059,53.7894642 136.779008,53.9056334 C134.45262,54.961101 134.095682,55.1102965 133.124222,55.3514376 C131.737795,55.6955841 130.517331,55.6179918 129.347368,55.0182548 C128.87274,54.7749548 128.413234,54.447237 127.97016,54.0354775 C127.853749,53.9295907 127.732352,53.8187867 127.568526,53.6689822 C127.36177,53.4798552 127.244854,53.3729091 127.149152,53.2854584 C126.797775,52.964378 126.529782,52.7209377 126.258574,52.4771823 C125.548357,51.8388566 124.915867,51.2894833 124.282444,50.7664018 C122.291222,49.1220467 120.432799,47.862496 118.557759,46.9693135 C113.512267,44.5658735 98.2595071,37.8274646 95.7786051,36.9835491 C94.3966542,36.5172655 93.6947903,35.5823348 94.0073955,34.0751398 C94.1394848,33.2217719 93.9478416,32.996316 92.5387962,32.39694 C91.7409065,32.0781867 77.4562862,26.0603654 76.4880209,25.6538527 C66.7986899,21.5867986 61.1025713,19.2457952 60.0141115,18.9131313 C55.8039419,17.2077963 37.4112496,10.8409747 36.1386372,10.6152295 C35.3531167,10.4503622 34.2800795,10.2163145 32.7297366,9.87299862 C31.9282715,9.69551806 28.8670119,9.0145196 28.3231852,8.8938501 C23.253808,7.76977579 20.5056969,7.18587084 19.2538016,6.98476681 C18.1352263,6.80507927 16.2740836,6.21394881 13.3280116,5.15879872 C13.1478047,5.09425674 12.9617806,5.02736273 12.76679,4.95700481 C12.7997634,4.96890252 9.79512936,3.87682473 9.08991839,3.6277485 C7.94564055,3.22359652 7.23868932,2.99991123 6.95295258,2.95426449 C4.4392695,1.88841206 3.06605599,1.86747601 2.44846611,3.0872116 C1.96265667,4.47844132 2.40818918,4.9844089 4.50895794,5.76759815 C6.80813126,6.78488823 10.0006367,8.05944402 12.7298447,9.09029274 C13.1432076,9.29712218 13.5924252,9.49428699 14.214875,9.74675253 C14.5536317,9.8841522 15.8066694,10.3784844 15.9875855,10.4508631 C17.9102365,11.2200532 19.0237484,11.7586881 19.7850102,12.3890366 C23.0833531,15.3772501 39.1566813,30.2100918 40.2553326,31.3297586 C42.2947277,32.9860399 42.9183451,35.3119632 42.3528552,39.1693774 C42.3627526,40.3470777 42.7707564,40.8600705 45.5686291,43.2586154 C46.7587672,44.1532534 48.3859957,45.4738894 50.7889975,47.4750044 C50.898601,47.5662925 50.898601,47.5662925 51.0081633,47.6576025 C50.824027,47.5041197 54.3714099,50.4690782 55.1817412,51.1382655 C56.4912925,52.2197181 57.2818595,52.8436021 57.5644018,53.0139163 C57.8313697,53.1748423 58.1850433,53.3877949 58.6211343,53.6500292 C59.2634757,54.036288 59.9578066,54.4531819 60.6908158,54.8925328 C62.689824,56.0906977 64.6775207,57.2767739 66.5439392,58.3832465 C71.670954,61.4227047 75.1016417,63.3971337 75.7533725,63.6570138 C79.0634383,65.7219837 80.6462737,65.1149388 82.056383,61.8045937 C82.0896215,61.7155152 82.1244485,61.6119836 82.1649454,61.4830022 C82.1705054,61.4652939 82.3744745,60.7889637 82.4448819,60.5761945 C82.825403,59.426269 83.269893,58.7170618 84.0695537,58.3790001 C85.0667371,57.9574345 86.3135574,58.3363676 87.9043105,59.5325433 C94.5050402,66.0669131 103.112689,69.1716239 110.614551,66.0528536 C114.844787,64.6966072 116.159965,64.8445966 119.682259,66.622896 C121.582582,67.582311 123.146873,67.4069886 125.895092,66.3496722 C125.909367,66.3441801 126.511945,66.1108402 126.683702,66.0455653 C126.827193,65.9910329 126.976117,65.9348444 127.136477,65.8746949 C127.419005,65.7687213 128.470724,65.3778126 128.702398,65.2911457 C129.348635,65.0493955 129.896734,64.8404099 130.470359,64.6155988 C131.931901,64.042802 133.453323,63.4068496 135.253513,62.6066606 C136.045048,62.1918939 139.134707,60.6752984 139.826363,60.2945834 Z" id="Path-17" fill="url(#linearGradient-1)" fill-rule="nonzero"></path>
                <path d="M9.51619938,2.42081664 C10.2278786,2.6721774 13.2394085,3.76676162 13.2012325,3.75298667 C13.3953084,3.82301452 13.5803886,3.88956912 13.7596036,3.95375583 C16.6195236,4.97805017 18.4486867,5.55902337 19.4568176,5.72096917 C20.7458068,5.92803193 23.4949172,6.51214923 28.3414032,7.58678042 C28.4709477,7.61550841 28.4709477,7.61550841 28.6004601,7.6442427 C28.9987663,7.73262272 29.4124857,7.82455216 29.9193256,7.93727067 C30.1672031,7.99239729 31.0386291,8.18625995 31.2106142,8.2245116 L30.9327166,9.47398065 C30.7606849,9.43571865 29.8892732,9.24185918 29.6414493,9.18674446 C29.1347934,9.07406688 28.7212624,8.98217929 28.3231852,8.8938501 C28.1937617,8.86513552 28.1937617,8.86513552 28.0643136,8.83642889 C23.253808,7.76977579 20.5056969,7.18587084 19.2538016,6.98476681 C18.1352263,6.80507927 16.2740836,6.21394881 13.3280116,5.15879872 C13.1478047,5.09425674 12.9617806,5.02736273 12.76679,4.95700481 C12.7997634,4.96890252 9.79512936,3.87682473 9.08991839,3.6277485 C7.94564055,3.22359652 7.23868932,2.99991123 6.95295258,2.95426449 L6.87356915,2.94158291 L6.79978816,2.90966244 C4.4392695,1.88841206 3.06605599,1.86747601 2.44846611,3.0872116 C1.96265667,4.47844132 2.40818918,4.9844089 4.50895794,5.76759815 C5.36605092,6.14682671 6.35037378,6.5633209 7.4314856,7.00620192 L6.94626499,8.19066845 C5.85494024,7.74360367 4.86004262,7.322635 4.02674025,6.95266386 C1.37484316,5.96555824 0.448535509,4.88508608 1.25506363,2.62260881 L1.28266786,2.55697034 C2.30606138,0.458534646 4.3315651,0.460778979 7.23939022,1.70535217 C7.65143506,1.78559846 8.3651474,2.01427208 9.51619938,2.42081664 Z" id="Path" fill-opacity="0.37" fill="#000000" fill-rule="nonzero"></path>
                <path d="M128.136434,52.4537512 L127.27263,53.3983369 C123.630187,50.067397 121.382856,48.3150592 118.557759,46.9693135 C117.987714,46.69777 117.146972,46.3074671 116.09746,45.826975 L116.630288,44.6631478 C117.685196,45.1461102 118.531222,45.5388662 119.108228,45.8137253 C122.083411,47.2309655 124.403324,49.0398981 128.136434,52.4537512 Z" id="Path" fill="#FFB819" fill-rule="nonzero"></path>
                <path d="M96.1878234,35.7707258 L95.7786051,36.9835491 C94.3966542,36.5172655 93.6947903,35.5823348 94.0073955,34.0751398 C94.1394848,33.2217719 93.9478416,32.996316 92.5387962,32.39694 C92.3259755,32.3119191 91.9297753,32.1483695 91.3416858,31.9029922 L91.8345752,30.7216963 C92.4166689,30.9645719 92.8088796,31.1264746 93.0266862,31.2136544 C94.9253381,32.0210708 95.5134809,32.7129831 95.2665953,34.3026812 C95.0948971,35.1327118 95.365593,35.4932973 96.1878234,35.7707258 Z" id="Path" fill-opacity="0.37" fill="#000000" fill-rule="nonzero"></path>
                <path d="M6.3980391,7.96491024 L6.88768148,6.78226476 C8.788545,7.56926589 10.9551192,8.41996146 12.7298447,9.09029274 C13.1432076,9.29712218 13.5924252,9.49428699 14.214875,9.74675253 C14.5536317,9.8841522 15.8066694,10.3784844 15.9875855,10.4508631 C17.9102365,11.2200532 19.0237484,11.7586881 19.7850102,12.3890366 C23.0833531,15.3772501 39.1566813,30.2100918 40.2553326,31.3297586 C42.2947277,32.9860399 42.9183451,35.3119632 42.3528552,39.1693774 C42.3627526,40.3470777 42.7707564,40.8600705 45.5686291,43.2586154 C46.7587672,44.1532534 48.3859957,45.4738894 50.7889975,47.4750044 C50.8982923,47.5660353 50.8986002,47.5662917 51.0072401,47.6568332 C50.8368027,47.5147978 54.3728701,50.4702841 55.1817412,51.1382655 C56.4912925,52.2197181 57.2818595,52.8436021 57.5644018,53.0139163 C57.8313697,53.1748423 58.1850433,53.3877949 58.6211343,53.6500292 C59.2634757,54.036288 59.9578066,54.4531819 60.6908158,54.8925328 C62.689824,56.0906977 64.6775207,57.2767739 66.5439392,58.3832465 C71.670954,61.4227047 75.1016417,63.3971337 75.7533725,63.6570138 C79.0634383,65.7219837 80.6462737,65.1149388 82.056383,61.8045937 C82.0896215,61.7155152 82.1244485,61.6119836 82.1649454,61.4830022 C82.1705054,61.4652939 82.3744745,60.7889637 82.4448819,60.5761945 C82.825403,59.426269 83.269893,58.7170618 84.0695537,58.3790001 C85.0667371,57.9574345 86.3135574,58.3363676 87.9043105,59.5325433 C88.3965475,60.012105 88.8431152,60.4282787 89.3067059,60.8343683 L88.4632934,61.7972055 C87.9913504,61.3837995 87.5361492,60.9602041 87.1007072,60.5298633 C85.8556613,59.6002567 85.044018,59.3567224 84.5679723,59.5579738 C84.2119202,59.7084971 83.9330136,60.1535072 83.6600773,60.9783141 C83.5960849,61.1716973 83.396264,61.8342725 83.386166,61.8664344 C83.3394559,62.0152049 83.2978453,62.1389023 83.2448518,62.2790395 C81.5361314,66.2924357 79.102772,67.2386709 75.2214348,64.8219128 C74.3678782,64.454159 71.0459632,62.5402141 65.8911971,59.484304 C64.0228152,58.3766675 62.0334116,57.1895728 60.0327621,55.9904241 C59.2992079,55.5507466 58.6043555,55.1335395 57.9615078,54.7469763 C57.5250083,54.4844964 57.1709446,54.2713089 56.9035982,54.1101546 C56.5402565,53.8911352 55.7474383,53.2654747 54.36669,52.1252262 C53.5544139,51.4544329 50.0145347,48.4957609 50.1876271,48.6400088 C50.0792652,48.5496992 50.0789484,48.5494354 49.9698964,48.4586067 C47.5831076,46.4709932 45.9670941,45.159459 44.7676957,44.2562331 C41.6195588,41.559318 41.0726667,40.8508614 41.0726667,39.1236667 C41.5996182,35.5321103 41.0914543,33.6422608 39.4215512,32.301689 C38.8308565,31.652554 22.1969881,16.3014151 18.9474617,13.3565474 C18.3487409,12.861454 17.3047958,12.3564703 15.5121364,11.6392856 C15.3364351,11.5689932 14.0793859,11.0730785 13.7337744,10.9328985 C13.0976463,10.674885 12.6276175,10.4691697 12.2447522,10.2753272 C10.4645277,9.60252327 8.30078859,8.75269221 6.3980391,7.96491024 Z" id="Path" fill-opacity="0.2" fill="#000000" fill-rule="nonzero"></path>
                <path d="M116.542623,44.6230249 L116.010065,45.7869759 C108.468102,42.3362002 97.8897684,37.7016928 95.7771075,36.9830418 L96.189321,35.7712332 C98.3624431,36.5104509 108.946354,41.1474019 116.542623,44.6230249 Z" id="Path" fill="#FF9219" fill-rule="nonzero"></path>
                <path d="M76.7272644,24.3660754 C76.8553941,24.4198591 76.8553941,24.4198591 76.983514,24.4736465 C79.9225072,25.7075421 90.2514693,30.0602691 91.6410048,30.6408705 L91.1475181,31.8219171 C89.7558325,31.2404172 79.4254152,26.887077 76.4880209,25.6538527 C76.3599464,25.6000843 76.3599464,25.6000843 76.2318633,25.5463202 C66.7986899,21.5867986 61.1025713,19.2457952 60.0141115,18.9131313 C55.8039419,17.2077963 37.4112496,10.8409747 36.1386372,10.6152295 C35.04663,10.3860358 33.7069293,10.0911211 30.6274864,9.40608652 L30.9054334,8.15662845 C33.9787432,8.84029869 35.3167642,9.13484366 36.3817253,9.35868663 C37.7499638,9.60104653 56.128807,15.9626159 60.4164009,17.6977459 C61.6325093,18.0787009 67.2497404,20.3879379 76.7272644,24.3660754 Z" id="Path" fill="#FF9219" fill-rule="nonzero"></path>
                <path d="M125.58795,79.3779167 L126.196283,79.3779167 C126.22545,79.6216667 126.471283,79.7779167 126.82545,79.7779167 C127.152533,79.7779167 127.383783,79.6195833 127.383783,79.3925 C127.383783,79.2008333 127.233783,79.0904167 126.865033,79.01125 L126.473366,78.9279167 C125.92545,78.8133333 125.6567,78.5279167 125.6567,78.0695833 C125.6567,77.5029167 126.11295,77.13 126.8067,77.13 C127.4692,77.13 127.93795,77.5008333 127.9567,78.03625 L127.365033,78.03625 C127.335866,77.79875 127.115033,77.6404167 126.810866,77.6404167 C126.496283,77.6404167 126.28795,77.78625 126.28795,78.0154167 C126.28795,78.2008333 126.4317,78.3070833 126.783783,78.3820833 L127.146283,78.4591667 C127.75045,78.58625 128.010866,78.8466667 128.010866,79.3133333 C128.010866,79.9195833 127.546283,80.2904167 126.792116,80.2904167 C126.07545,80.2904167 125.610866,79.9383333 125.58795,79.3779167 Z M129.271283,80.2133333 L129.271283,77.8195833 L129.233783,77.8195833 L128.496283,78.3279167 L128.496283,77.7425 L129.273366,77.2070833 L129.90045,77.2070833 L129.90045,80.2133333 L129.271283,80.2133333 Z M124.5017,83.0041667 L124.375033,83.0041667 C124.2317,82.825 124.150033,82.5591667 124.150033,82.2733333 C124.150033,81.9883333 124.2192,81.7816667 124.383366,81.5716667 L124.5042,81.5716667 C124.383366,81.7133333 124.297533,82.0041667 124.297533,82.2733333 C124.297533,82.5333333 124.360033,82.7558333 124.5017,83.0041667 Z M124.703366,82.4591667 L124.855033,82.4591667 C124.873366,82.585 124.993366,82.665 125.1642,82.665 C125.325866,82.665 125.445033,82.5775 125.445033,82.4583333 C125.445033,82.3558333 125.370033,82.2908333 125.2042,82.2491667 L125.050033,82.2091667 C124.832533,82.1541667 124.738366,82.0558333 124.738366,81.885 C124.738366,81.6808333 124.9092,81.5425 125.163366,81.5425 C125.395866,81.5425 125.5692,81.6808333 125.5817,81.875 L125.430866,81.875 C125.410033,81.7516667 125.308366,81.6783333 125.158366,81.6783333 C124.998366,81.6783333 124.892533,81.7583333 124.892533,81.88 C124.892533,81.9741667 124.958366,82.0283333 125.1242,82.0708333 L125.250033,82.1041667 C125.4992,82.1666667 125.5992,82.2633333 125.5992,82.44 C125.5992,82.6608333 125.425033,82.8016667 125.150033,82.8016667 C124.895033,82.8016667 124.7192,82.6666667 124.703366,82.4591667 Z M126.188366,81.9858333 C126.045033,81.9858333 125.945033,82.0908333 125.9342,82.25 L126.4292,82.25 C126.425866,82.0908333 126.330866,81.9858333 126.188366,81.9858333 Z M126.425033,82.5408333 L126.568366,82.5408333 C126.525033,82.695 126.3867,82.7891667 126.190033,82.7891667 C125.940866,82.7891667 125.785033,82.6091667 125.785033,82.325 C125.785033,82.0425 125.943366,81.8591667 126.190033,81.8591667 C126.432533,81.8591667 126.580033,82.0316667 126.580033,82.3108333 L126.580033,82.3658333 L125.9342,82.3658333 L125.9342,82.3725 C125.9417,82.55 126.040866,82.6625 126.193366,82.6625 C126.3092,82.6625 126.387533,82.62 126.425033,82.5408333 Z M127.548366,82.15 L127.403366,82.15 C127.380033,82.0608333 127.300866,81.9883333 127.1717,81.9883333 C127.010033,81.9883333 126.908366,82.1175 126.908366,82.3208333 C126.908366,82.5283333 127.0117,82.66 127.1717,82.66 C127.292533,82.66 127.3767,82.6041667 127.403366,82.5025 L127.548366,82.5025 C127.522533,82.6675 127.388366,82.7891667 127.172533,82.7891667 C126.920866,82.7891667 126.760033,82.6066667 126.760033,82.3208333 C126.760033,82.0408333 126.920033,81.8591667 127.1717,81.8591667 C127.390033,81.8591667 127.523366,81.99 127.548366,82.15 Z M127.820033,81.6425 L127.963366,81.6425 L127.963366,81.875 L128.163366,81.875 L128.163366,81.995 L127.963366,81.995 L127.963366,82.5033333 C127.963366,82.6091667 128.003366,82.6541667 128.0967,82.6541667 C128.122533,82.6541667 128.1367,82.6533333 128.163366,82.6508333 L128.163366,82.7716667 C128.135033,82.7766667 128.107533,82.78 128.0792,82.78 C127.8942,82.78 127.820033,82.7116667 127.820033,82.54 L127.820033,81.995 L127.675033,81.995 L127.675033,81.875 L127.820033,81.875 L127.820033,81.6425 Z M128.7492,82.66 C128.9192,82.66 129.015033,82.5366667 129.015033,82.3241667 C129.015033,82.1108333 128.9192,81.9883333 128.7492,81.9883333 C128.5792,81.9883333 128.483366,82.1108333 128.483366,82.3241667 C128.483366,82.5366667 128.5792,82.66 128.7492,82.66 Z M128.7492,82.7891667 C128.493366,82.7891667 128.335033,82.6125 128.335033,82.3241667 C128.335033,82.035 128.493366,81.8591667 128.7492,81.8591667 C129.005033,81.8591667 129.163366,82.035 129.163366,82.3241667 C129.163366,82.6125 129.005033,82.7891667 128.7492,82.7891667 Z M129.388366,82.7733333 L129.388366,81.875 L129.525033,81.875 L129.525033,82.0083333 L129.538366,82.0083333 C129.565033,81.9208333 129.668366,81.8591667 129.787533,81.8591667 C129.810866,81.8591667 129.840866,81.8608333 129.8592,81.8633333 L129.8592,82.0066667 C129.847533,82.0033333 129.795866,81.9983333 129.767533,81.9983333 C129.630866,81.9983333 129.5317,82.09 129.5317,82.2166667 L129.5317,82.7733333 L129.388366,82.7733333 Z M130.8067,82.7733333 L130.8067,81.7375 L130.793366,81.7375 L130.487533,81.9591667 L130.487533,81.8008333 L130.807533,81.5708333 L130.9567,81.5708333 L130.9567,82.7733333 L130.8067,82.7733333 Z M131.285866,83.0041667 C131.427533,82.7558333 131.490033,82.5333333 131.490033,82.2733333 C131.490033,82.0025 131.405033,81.7125 131.2842,81.5716667 L131.405866,81.5716667 C131.570033,81.7816667 131.638366,81.9883333 131.638366,82.2733333 C131.638366,82.5575 131.5567,82.8233333 131.413366,83.0041667 L131.285866,83.0041667 Z" id="S1-(Sector-1)-Copy" fill="#C6C6C6"></path>
                <path d="M25.4698246,48.6579167 L26.078158,48.6579167 C26.1073246,48.9016667 26.353158,49.0579167 26.7073246,49.0579167 C27.034408,49.0579167 27.265658,48.8995833 27.265658,48.6725 C27.265658,48.4808333 27.115658,48.3704167 26.746908,48.29125 L26.3552413,48.2079167 C25.8073246,48.0933333 25.5385746,47.8079167 25.5385746,47.3495833 C25.5385746,46.7829167 25.9948246,46.41 26.6885746,46.41 C27.3510746,46.41 27.8198246,46.7808333 27.8385746,47.31625 L27.246908,47.31625 C27.2177413,47.07875 26.996908,46.9204167 26.6927413,46.9204167 C26.378158,46.9204167 26.1698246,47.06625 26.1698246,47.2954167 C26.1698246,47.4808333 26.3135746,47.5870833 26.665658,47.6620833 L27.028158,47.7391667 C27.6323246,47.86625 27.8927413,48.1266667 27.8927413,48.5933333 C27.8927413,49.1995833 27.428158,49.5704167 26.6739913,49.5704167 C25.9573246,49.5704167 25.4927413,49.2183333 25.4698246,48.6579167 Z M28.390658,47.3870833 C28.390658,46.8058333 28.8364913,46.41 29.4864913,46.41 C30.1135746,46.41 30.5510746,46.7704167 30.5510746,47.2870833 C30.5510746,47.6141667 30.3739913,47.8954167 29.853158,48.385 L29.278158,48.9329167 L29.278158,48.9704167 L30.5948246,48.9704167 L30.5948246,49.4933333 L28.4260746,49.4933333 L28.4260746,49.05375 L29.4073246,48.0933333 C29.8302413,47.6808333 29.9364913,47.5245833 29.9364913,47.32875 C29.9364913,47.0870833 29.740658,46.91625 29.465658,46.91625 C29.1739913,46.91625 28.9739913,47.1079167 28.9739913,47.385 L28.9739913,47.3975 L28.390658,47.3975 L28.390658,47.3870833 Z M24.5441996,52.2841667 L24.417533,52.2841667 C24.2741996,52.105 24.192533,51.8391667 24.192533,51.5533333 C24.192533,51.2683333 24.2616996,51.0616667 24.4258663,50.8516667 L24.5466996,50.8516667 C24.4258663,50.9933333 24.340033,51.2841667 24.340033,51.5533333 C24.340033,51.8133333 24.402533,52.0358333 24.5441996,52.2841667 Z M24.7458663,51.7391667 L24.897533,51.7391667 C24.9158663,51.865 25.0358663,51.945 25.2066996,51.945 C25.3683663,51.945 25.487533,51.8575 25.487533,51.7383333 C25.487533,51.6358333 25.412533,51.5708333 25.2466996,51.5291667 L25.092533,51.4891667 C24.875033,51.4341667 24.7808663,51.3358333 24.7808663,51.165 C24.7808663,50.9608333 24.9516996,50.8225 25.2058663,50.8225 C25.4383663,50.8225 25.6116996,50.9608333 25.6241996,51.155 L25.4733663,51.155 C25.452533,51.0316667 25.3508663,50.9583333 25.2008663,50.9583333 C25.0408663,50.9583333 24.935033,51.0383333 24.935033,51.16 C24.935033,51.2541667 25.0008663,51.3083333 25.1666996,51.3508333 L25.292533,51.3841667 C25.5416996,51.4466667 25.6416996,51.5433333 25.6416996,51.72 C25.6416996,51.9408333 25.467533,52.0816667 25.192533,52.0816667 C24.937533,52.0816667 24.7616996,51.9466667 24.7458663,51.7391667 Z M26.2308663,51.2658333 C26.087533,51.2658333 25.987533,51.3708333 25.9766996,51.53 L26.4716996,51.53 C26.4683663,51.3708333 26.3733663,51.2658333 26.2308663,51.2658333 Z M26.467533,51.8208333 L26.6108663,51.8208333 C26.567533,51.975 26.4291996,52.0691667 26.232533,52.0691667 C25.9833663,52.0691667 25.827533,51.8891667 25.827533,51.605 C25.827533,51.3225 25.9858663,51.1391667 26.232533,51.1391667 C26.475033,51.1391667 26.622533,51.3116667 26.622533,51.5908333 L26.622533,51.6458333 L25.9766996,51.6458333 L25.9766996,51.6525 C25.9841996,51.83 26.0833663,51.9425 26.2358663,51.9425 C26.3516996,51.9425 26.430033,51.9 26.467533,51.8208333 Z M27.5908663,51.43 L27.4458663,51.43 C27.422533,51.3408333 27.3433663,51.2683333 27.2141996,51.2683333 C27.052533,51.2683333 26.9508663,51.3975 26.9508663,51.6008333 C26.9508663,51.8083333 27.0541996,51.94 27.2141996,51.94 C27.335033,51.94 27.4191996,51.8841667 27.4458663,51.7825 L27.5908663,51.7825 C27.565033,51.9475 27.4308663,52.0691667 27.215033,52.0691667 C26.9633663,52.0691667 26.802533,51.8866667 26.802533,51.6008333 C26.802533,51.3208333 26.962533,51.1391667 27.2141996,51.1391667 C27.432533,51.1391667 27.5658663,51.27 27.5908663,51.43 Z M27.862533,50.9225 L28.0058663,50.9225 L28.0058663,51.155 L28.2058663,51.155 L28.2058663,51.275 L28.0058663,51.275 L28.0058663,51.7833333 C28.0058663,51.8891667 28.0458663,51.9341667 28.1391996,51.9341667 C28.165033,51.9341667 28.1791996,51.9333333 28.2058663,51.9308333 L28.2058663,52.0516667 C28.177533,52.0566667 28.150033,52.06 28.1216996,52.06 C27.9366996,52.06 27.862533,51.9916667 27.862533,51.82 L27.862533,51.275 L27.717533,51.275 L27.717533,51.155 L27.862533,51.155 L27.862533,50.9225 Z M28.7916996,51.94 C28.9616996,51.94 29.057533,51.8166667 29.057533,51.6041667 C29.057533,51.3908333 28.9616996,51.2683333 28.7916996,51.2683333 C28.6216996,51.2683333 28.5258663,51.3908333 28.5258663,51.6041667 C28.5258663,51.8166667 28.6216996,51.94 28.7916996,51.94 Z M28.7916996,52.0691667 C28.5358663,52.0691667 28.377533,51.8925 28.377533,51.6041667 C28.377533,51.315 28.5358663,51.1391667 28.7916996,51.1391667 C29.047533,51.1391667 29.2058663,51.315 29.2058663,51.6041667 C29.2058663,51.8925 29.047533,52.0691667 28.7916996,52.0691667 Z M29.4308663,52.0533333 L29.4308663,51.155 L29.567533,51.155 L29.567533,51.2883333 L29.5808663,51.2883333 C29.607533,51.2008333 29.7108663,51.1391667 29.830033,51.1391667 C29.8533663,51.1391667 29.8833663,51.1408333 29.9016996,51.1433333 L29.9016996,51.2866667 C29.890033,51.2833333 29.8383663,51.2783333 29.810033,51.2783333 C29.6733663,51.2783333 29.5741996,51.37 29.5741996,51.4966667 L29.5741996,52.0533333 L29.4308663,52.0533333 Z M30.5541996,51.1891667 C30.5541996,50.9758333 30.7158663,50.8225 30.9391996,50.8225 C31.155033,50.8225 31.320033,50.9691667 31.320033,51.16 C31.320033,51.285 31.2633663,51.3825 31.0658663,51.5941667 L30.7766996,51.905 L30.7766996,51.9183333 L31.340033,51.9183333 L31.340033,52.0533333 L30.5616996,52.0533333 L30.5616996,51.95 L30.977533,51.4958333 C31.132533,51.3275 31.170033,51.2625 31.170033,51.1658333 C31.170033,51.0458333 31.067533,50.9533333 30.935033,50.9533333 C30.7941996,50.9533333 30.6991996,51.0475 30.6991996,51.1891667 L30.6991996,51.19 L30.5541996,51.19 L30.5541996,51.1891667 Z M31.5633663,52.2841667 C31.705033,52.0358333 31.767533,51.8133333 31.767533,51.5533333 C31.767533,51.2825 31.682533,50.9925 31.5616996,50.8516667 L31.6833663,50.8516667 C31.847533,51.0616667 31.9158663,51.2683333 31.9158663,51.5533333 C31.9158663,51.8375 31.8341996,52.1033333 31.6908663,52.2841667 L31.5633663,52.2841667 Z" id="S2-(Sector-2)-Copy" fill="#999999"></path>
                <path d="M79.175658,11.11125 L79.7839913,11.11125 C79.813158,11.355 80.0589913,11.51125 80.413158,11.51125 C80.7402413,11.51125 80.9714913,11.3529167 80.9714913,11.1258333 C80.9714913,10.9341667 80.8214913,10.82375 80.4527413,10.7445833 L80.0610746,10.66125 C79.513158,10.5466667 79.244408,10.26125 79.244408,9.80291667 C79.244408,9.23625 79.700658,8.86333333 80.394408,8.86333333 C81.056908,8.86333333 81.525658,9.23416667 81.544408,9.76958333 L80.9527413,9.76958333 C80.9235746,9.53208333 80.7027413,9.37375 80.3985746,9.37375 C80.0839913,9.37375 79.875658,9.51958333 79.875658,9.74875 C79.875658,9.93416667 80.019408,10.0404167 80.3714913,10.1154167 L80.7339913,10.1925 C81.338158,10.3195833 81.5985746,10.58 81.5985746,11.0466667 C81.5985746,11.6529167 81.1339913,12.02375 80.3798246,12.02375 C79.663158,12.02375 79.1985746,11.6716667 79.175658,11.11125 Z M82.8652413,10.6425 L82.8652413,10.17375 L83.231908,10.17375 C83.5173246,10.17375 83.7110746,10.0070833 83.7110746,9.76125 C83.7110746,9.51958333 83.5235746,9.36541667 83.2298246,9.36541667 C82.938158,9.36541667 82.744408,9.53 82.7277413,9.79041667 L82.1464913,9.79041667 C82.1673246,9.22166667 82.5902413,8.86333333 83.2464913,8.86333333 C83.863158,8.86333333 84.306908,9.20083333 84.306908,9.67375 C84.306908,10.0216667 84.088158,10.2925 83.7527413,10.36125 L83.7527413,10.39875 C84.1652413,10.4445833 84.4235746,10.7195833 84.4235746,11.1154167 C84.4235746,11.6425 83.9277413,12.02375 83.2423246,12.02375 C82.5714913,12.02375 82.1173246,11.6529167 82.0902413,11.08625 L82.6923246,11.08625 C82.7110746,11.3404167 82.925658,11.5008333 83.2485746,11.5008333 C83.563158,11.5008333 83.781908,11.32375 83.781908,11.0675 C83.781908,10.805 83.575658,10.6425 83.238158,10.6425 L82.8652413,10.6425 Z M78.2846163,14.7375 L78.1579496,14.7375 C78.0146163,14.5583333 77.9329496,14.2925 77.9329496,14.0066667 C77.9329496,13.7216667 78.0021163,13.515 78.166283,13.305 L78.2871163,13.305 C78.166283,13.4466667 78.0804496,13.7375 78.0804496,14.0066667 C78.0804496,14.2666667 78.1429496,14.4891667 78.2846163,14.7375 Z M78.486283,14.1925 L78.6379496,14.1925 C78.656283,14.3183333 78.776283,14.3983333 78.9471163,14.3983333 C79.108783,14.3983333 79.2279496,14.3108333 79.2279496,14.1916667 C79.2279496,14.0891667 79.1529496,14.0241667 78.9871163,13.9825 L78.8329496,13.9425 C78.6154496,13.8875 78.521283,13.7891667 78.521283,13.6183333 C78.521283,13.4141667 78.6921163,13.2758333 78.946283,13.2758333 C79.178783,13.2758333 79.3521163,13.4141667 79.3646163,13.6083333 L79.213783,13.6083333 C79.1929496,13.485 79.091283,13.4116667 78.941283,13.4116667 C78.781283,13.4116667 78.6754496,13.4916667 78.6754496,13.6133333 C78.6754496,13.7075 78.741283,13.7616667 78.9071163,13.8041667 L79.0329496,13.8375 C79.2821163,13.9 79.3821163,13.9966667 79.3821163,14.1733333 C79.3821163,14.3941667 79.2079496,14.535 78.9329496,14.535 C78.6779496,14.535 78.5021163,14.4 78.486283,14.1925 Z M79.971283,13.7191667 C79.8279496,13.7191667 79.7279496,13.8241667 79.7171163,13.9833333 L80.2121163,13.9833333 C80.208783,13.8241667 80.113783,13.7191667 79.971283,13.7191667 Z M80.2079496,14.2741667 L80.351283,14.2741667 C80.3079496,14.4283333 80.1696163,14.5225 79.9729496,14.5225 C79.723783,14.5225 79.5679496,14.3425 79.5679496,14.0583333 C79.5679496,13.7758333 79.726283,13.5925 79.9729496,13.5925 C80.2154496,13.5925 80.3629496,13.765 80.3629496,14.0441667 L80.3629496,14.0991667 L79.7171163,14.0991667 L79.7171163,14.1058333 C79.7246163,14.2833333 79.823783,14.3958333 79.976283,14.3958333 C80.0921163,14.3958333 80.1704496,14.3533333 80.2079496,14.2741667 Z M81.331283,13.8833333 L81.186283,13.8833333 C81.1629496,13.7941667 81.083783,13.7216667 80.9546163,13.7216667 C80.7929496,13.7216667 80.691283,13.8508333 80.691283,14.0541667 C80.691283,14.2616667 80.7946163,14.3933333 80.9546163,14.3933333 C81.0754496,14.3933333 81.1596163,14.3375 81.186283,14.2358333 L81.331283,14.2358333 C81.3054496,14.4008333 81.171283,14.5225 80.9554496,14.5225 C80.703783,14.5225 80.5429496,14.34 80.5429496,14.0541667 C80.5429496,13.7741667 80.7029496,13.5925 80.9546163,13.5925 C81.1729496,13.5925 81.306283,13.7233333 81.331283,13.8833333 Z M81.6029496,13.3758333 L81.746283,13.3758333 L81.746283,13.6083333 L81.946283,13.6083333 L81.946283,13.7283333 L81.746283,13.7283333 L81.746283,14.2366667 C81.746283,14.3425 81.786283,14.3875 81.8796163,14.3875 C81.9054496,14.3875 81.9196163,14.3866667 81.946283,14.3841667 L81.946283,14.505 C81.9179496,14.51 81.8904496,14.5133333 81.8621163,14.5133333 C81.6771163,14.5133333 81.6029496,14.445 81.6029496,14.2733333 L81.6029496,13.7283333 L81.4579496,13.7283333 L81.4579496,13.6083333 L81.6029496,13.6083333 L81.6029496,13.3758333 Z M82.5321163,14.3933333 C82.7021163,14.3933333 82.7979496,14.27 82.7979496,14.0575 C82.7979496,13.8441667 82.7021163,13.7216667 82.5321163,13.7216667 C82.3621163,13.7216667 82.266283,13.8441667 82.266283,14.0575 C82.266283,14.27 82.3621163,14.3933333 82.5321163,14.3933333 Z M82.5321163,14.5225 C82.276283,14.5225 82.1179496,14.3458333 82.1179496,14.0575 C82.1179496,13.7683333 82.276283,13.5925 82.5321163,13.5925 C82.7879496,13.5925 82.946283,13.7683333 82.946283,14.0575 C82.946283,14.3458333 82.7879496,14.5225 82.5321163,14.5225 Z M83.171283,14.5066667 L83.171283,13.6083333 L83.3079496,13.6083333 L83.3079496,13.7416667 L83.321283,13.7416667 C83.3479496,13.6541667 83.451283,13.5925 83.5704496,13.5925 C83.593783,13.5925 83.623783,13.5941667 83.6421163,13.5966667 L83.6421163,13.74 C83.6304496,13.7366667 83.578783,13.7316667 83.5504496,13.7316667 C83.413783,13.7316667 83.3146163,13.8233333 83.3146163,13.95 L83.3146163,14.5066667 L83.171283,14.5066667 Z M84.5479496,13.9525 L84.5479496,13.8241667 L84.693783,13.8241667 C84.8304496,13.8241667 84.9271163,13.7358333 84.9271163,13.6108333 C84.9271163,13.4883333 84.8346163,13.4066667 84.696283,13.4066667 C84.5579496,13.4066667 84.4671163,13.4833333 84.4546163,13.6125 L84.308783,13.6125 C84.323783,13.4041667 84.4729496,13.2758333 84.7021163,13.2758333 C84.9121163,13.2758333 85.0796163,13.4158333 85.0796163,13.5908333 C85.0796163,13.7341667 85.0004496,13.8391667 84.868783,13.8708333 L84.868783,13.8841667 C85.0321163,13.905 85.131283,14.0183333 85.131283,14.1825 C85.131283,14.3808333 84.9454496,14.535 84.7079496,14.535 C84.463783,14.535 84.2954496,14.3991667 84.2846163,14.1933333 L84.4296163,14.1933333 C84.4429496,14.3216667 84.551283,14.4041667 84.706283,14.4041667 C84.8646163,14.4041667 84.9771163,14.31 84.9771163,14.1783333 C84.9771163,14.0391667 84.871283,13.9525 84.7004496,13.9525 L84.5479496,13.9525 Z M85.3429496,14.7375 C85.4846163,14.4891667 85.5471163,14.2666667 85.5471163,14.0066667 C85.5471163,13.7358333 85.4621163,13.4458333 85.341283,13.305 L85.4629496,13.305 C85.6271163,13.515 85.6954496,13.7216667 85.6954496,14.0066667 C85.6954496,14.2908333 85.613783,14.5566667 85.4704496,14.7375 L85.3429496,14.7375 Z" id="S3-(Sector-3)-Copy" fill="#666666"></path>
                <g id="Group-Copy-8" transform="translate(34.133333, 26.453333)">
                    <circle id="Oval-Copy-2" fill-opacity="0.7" fill="#FFFFFF" cx="2.56" cy="2.56" r="2.56"></circle>
                    <circle id="Oval-Copy-2" fill-opacity="0.2" fill="#FFB819" cx="2.56" cy="2.56" r="2.56"></circle>
                    <circle id="Oval" stroke="#FFB819" stroke-width="0.5" fill="#FFFFFF" cx="2.56" cy="2.56" r="1.70666667"></circle>
                    <circle id="Oval-Copy" fill="#FFB819" cx="2.56" cy="2.56" r="1"></circle>
                </g>
                <g id="Group-6" transform="translate(115.840000, 45.226667) rotate(25.000000) translate(-115.840000, -45.226667) translate(114.773333, 44.160000)">
                    <rect id="Rectangle-2" fill="#000000" x="0" y="0" width="1" height="1"></rect>
                    <rect id="Rectangle-2-Copy-4" fill="#FFFFFF" x="0" y="0.64" width="1" height="1"></rect>
                    <rect id="Rectangle-2-Copy-7" fill="#000000" x="0" y="1.28" width="1" height="1"></rect>
                    <rect id="Rectangle-2-Copy" fill="#FFFFFF" x="0.64" y="0" width="1" height="1"></rect>
                    <rect id="Rectangle-2-Copy-5" fill="#000000" x="0.64" y="0.64" width="1" height="1"></rect>
                    <rect id="Rectangle-2-Copy-9" fill="#FFFFFF" x="0.64" y="1.28" width="1" height="1"></rect>
                    <rect id="Rectangle-2-Copy-3" fill="#000000" x="1.28" y="0" width="1" height="1"></rect>
                    <rect id="Rectangle-2-Copy-6" fill="#FFFFFF" x="1.28" y="0.64" width="1" height="1"></rect>
                    <rect id="Rectangle-2-Copy-10" fill="#000000" x="1.28" y="1.28" width="1" height="1"></rect>
                </g>
                <g id="Group-Copy-7" transform="translate(86.186667, 27.733333)">
                    <circle id="Oval-Copy-2" fill-opacity="0.7" fill="#FFFFFF" cx="2.56" cy="2.56" r="2.56"></circle>
                    <circle id="Oval-Copy-2" fill-opacity="0.2" fill="#D0021B" cx="2.56" cy="2.56" r="2.56"></circle>
                    <circle id="Oval" stroke="#D0021B" stroke-width="0.5" fill="#FFFFFF" cx="2.56" cy="2.56" r="1.70666667"></circle>
                    <circle id="Oval-Copy" fill="#D0021B" cx="2.56" cy="2.56" r="1"></circle>
                </g>
            </g>
        </g>
    </g>
</svg>