<?xml version="1.0" encoding="UTF-8"?>
<svg width="160px" height="96px" viewBox="0 0 160 96" version="1.1" xmlns="http://www.w3.org/2000/svg" xmlns:xlink="http://www.w3.org/1999/xlink">
    <!-- Generator: Sketch 58 (84663) - https://sketch.com -->
    <title>circuit-gs-Shanghai-L-Eng</title>
    <desc>Created with Sketch.</desc>
    <defs>
        <linearGradient x1="50%" y1="23.3035083%" x2="50%" y2="112.667183%" id="linearGradient-1">
            <stop stop-color="#1B94E2" offset="0%"></stop>
            <stop stop-color="#40D8AB" offset="100%"></stop>
        </linearGradient>
    </defs>
    <g id="circuit-gs-Shanghai-L-Eng" stroke="none" stroke-width="1" fill="none" fill-rule="evenodd">
        <g id="Chinese-Circuit" transform="translate(8.960000, 1.706667)">
            <g id="Group-5">
                <path d="M62.1974631,13.2962929 L63.0393577,13.1570404 L64.0133784,19.0457853 C55.1213788,41.8702823 50.2795567,54.2811353 49.4435161,56.3922811 C48.6939537,58.2850547 48.8939889,59.584948 49.953038,62.2595171 C50.0898567,62.6050449 50.1168044,62.6733722 50.1761769,62.8265638 C50.3523353,63.281084 50.4810708,63.6406623 50.5900592,63.9945955 C50.9404699,65.1325327 51.1197177,66.4777822 51.1839578,68.1268784 C51.216975,68.9744597 51.2193367,69.6789692 51.206192,71.0975599 C51.2004663,71.7154855 51.1988446,71.9402841 51.1988446,72.2408711 C51.1988446,74.119129 49.9611167,75.0933333 47.6902015,75.0933333 L37.5466667,75.0933333 L37.5466667,74.24 L47.6902015,74.24 C49.5285882,74.24 50.3455113,73.5970073 50.3455113,72.2408711 C50.3455113,71.9366517 50.3471434,71.7104036 50.3528953,71.0896533 C50.3659157,69.684478 50.3635865,68.989657 50.3312712,68.1600946 C50.269662,66.578536 50.0994101,65.3008008 49.7745168,64.2457295 C49.672446,63.9142609 49.5499906,63.5722239 49.3805122,63.1349395 C49.3222123,62.9845154 49.295537,62.9168787 49.1596401,62.5736788 C48.0270439,59.7133704 47.7985424,58.2284944 48.6501299,56.07809 C49.4838976,53.9726836 54.3122518,41.5964031 63.1332882,18.9541144 L62.1974631,13.2962929 Z" id="Path-8" fill="#E6E6E6" fill-rule="nonzero"></path>
                <path d="M131.760879,81.4933333 C136.801847,81.4933333 139.621435,78.5352251 139.922389,74.0230809 C140.200052,69.860154 138.128954,65.7678264 135.216326,64.7697958 C132.391135,63.8017259 130.554041,64.2007535 129.773619,65.3905272 C129.115384,66.3940232 129.314376,67.8785559 130.278313,68.797486 C132.173324,70.7534954 132.266404,72.6796456 130.400281,73.6935296 C129.414233,74.2292597 128.029042,74.4082436 126.284072,74.4082436 C125.296765,74.4082436 118.32536,74.210458 99.632836,73.6632398 C80.8846813,73.1143868 75.0622515,72.9476232 73.3108278,72.9171233 C68.2520663,72.9171233 65.5023811,70.592231 65.5023811,65.2301078 C65.5023811,63.6613538 66.1577124,62.6802058 67.5643461,61.8713465 C67.9835732,61.6302775 68.2306274,61.5103171 69.3653304,60.9792628 C72.5597936,59.4842165 80.4339203,56.0709049 86.4004562,53.6655453 C89.0964988,52.5786579 90.2475094,50.7785159 90.2510561,48.4211307 C90.2538073,46.5924211 89.4854349,44.4920664 88.6569575,43.4621949 C88.6208491,43.4173091 88.0461885,42.7196723 87.8354762,42.4547357 C87.4378521,41.9547878 87.0864274,41.4794566 86.7499936,40.9740449 C83.7972219,36.5382078 83.1948254,31.5539868 86.3378417,25.7534781 C88.6464121,21.4929585 92.2235143,19.2648904 96.5555977,18.6995011 C99.4273372,18.3247043 102.210473,18.699791 104.624226,19.417833 C108.262201,20.5000559 118.760273,23.8596213 122.391693,25.1580042 C125.970019,26.4374041 126.863644,26.299837 130.372271,24.2298916 C131.311773,23.6832025 131.894355,23.2215488 132.146633,22.8792326 C131.985158,22.5726937 131.30588,22.1841892 129.95761,21.582108 C129.322601,21.2990171 129.105974,21.2011526 128.884328,21.0977368 C124.162305,19.1914544 115.109384,15.1210559 110.92916,13.021932 C108.445211,11.7746023 105.547122,11.602743 102.199521,12.531734 C93.4865057,15.1194168 87.219947,16.6829385 83.3625691,17.2256587 C79.1341988,17.8205762 77.5634377,17.6244359 76.049898,16.2613533 C75.7745867,16.01341 74.8323775,15.0397777 74.6804302,14.8913854 C72.9045034,13.1570074 72.3995802,11.3614097 73.691455,9.86117153 C75.3022158,8.02021205 77.5177203,8.33013602 79.7967298,10.345938 C80.554979,11.0166154 81.1218209,11.0222214 81.7678647,10.5445276 C82.3850145,10.0881985 82.9450101,9.20595488 83.0734275,8.62523326 C83.239207,7.87555446 83.0712704,6.75456657 82.4728295,5.88974539 C81.5932851,4.61869486 79.8499123,3.83929289 76.9757289,3.83929289 C71.3075245,4.02777898 66.957966,7.87269527 63.8752984,15.6147954 C50.2731356,51.4748983 43.0371054,70.677133 42.2174003,73.0864033 C41.1982012,76.0820247 38.7584409,77.5429091 35.2338662,77.3735116 L9.26545948,77.3735116 C5.90328062,78.5478395 3.82036642,79.5860879 3.1482642,80.3196568 C2.80270078,81.0550158 2.94421936,81.2508559 4.06938672,81.4933333 L131.760879,81.4933333 Z M132.222447,22.7632069 C132.224222,22.759851 132.224976,22.7583061 132.224939,22.7585514 C132.224923,22.758659 132.224092,22.7602109 132.222447,22.7632069 Z M127.633034,63.9864277 C129.131552,61.7018988 132.209468,61.0333574 136.046161,62.3480251 C140.188142,63.7673011 142.824655,68.9768469 142.476714,74.1934513 C142.090036,79.9908277 138.217767,84.0533333 131.760879,84.0533333 L127.059138,84.0533333 L3.80561949,84.0533333 C0.817762177,83.4375673 -0.316776133,81.5218253 0.921922946,79.0443855 C2.06687708,77.5454467 4.53816244,76.2984857 8.63128607,74.8837374 L35.2654851,74.8135116 C37.7864421,74.9401348 39.1612286,74.1211751 39.7938317,72.2618335 C40.629148,69.806679 47.8417086,50.6667256 61.4892931,14.687358 C64.9230687,6.06293633 70.0766343,1.50729505 76.9331883,1.28 C80.6383931,1.28 83.1824351,2.41632179 84.5779621,4.43303101 C85.6078378,5.921329 85.8846299,7.76893357 85.573041,9.17798313 C85.3131473,10.3532592 84.4116872,11.773462 83.2898833,12.6029395 C81.7000349,13.7784956 79.7921682,13.7596272 78.1006562,12.2634714 C76.7571672,11.0751447 76.1100588,10.9846216 75.6247336,11.5392452 C75.429943,11.7654624 75.5383382,12.1509352 76.4690724,13.0598944 C76.6766602,13.2626256 77.565816,14.181435 77.7630704,14.3590809 C78.5600344,15.0768207 79.4612194,15.1893514 83.0058987,14.6906269 C86.7043173,14.1702718 92.8716728,12.6315015 101.492755,10.0713368 C105.444819,8.97434916 108.99237,9.18472222 112.077971,10.7341746 C116.20362,12.8058934 125.224367,16.8613306 129.873858,18.7364677 C130.152697,18.8648641 130.361631,18.9593525 130.716425,19.1175196 C133.191989,20.2227918 134.049759,20.7401503 134.551185,21.7891943 C135.344116,23.4481022 134.246617,24.9373032 131.666439,26.4386626 C127.550013,28.867216 125.880731,29.12419 121.529819,27.568559 C117.948261,26.2880035 107.491556,22.9416763 103.894291,21.8715639 C101.794595,21.2469472 99.3463145,20.9169894 96.886899,21.2379729 C93.3308507,21.7020803 90.4839057,23.4753556 88.5886546,26.9730852 C85.9365801,31.8675495 86.4186744,35.8563913 88.8810293,39.5554938 C89.1736577,39.9950985 89.4833695,40.4140094 89.8390554,40.8612269 C90.032782,41.1048067 90.6012927,41.7949774 90.6516468,41.8575721 C91.8398644,43.3346326 92.8147024,45.9993637 92.8110532,48.4249821 C92.805975,51.8003072 91.0459269,54.5529636 87.3576435,56.0398646 C81.433185,58.4282612 73.6016352,61.8231163 70.4504775,63.2978951 C69.4009726,63.7890758 69.1687383,63.9018401 68.8404855,64.0905959 C68.1804788,64.4701209 68.0623811,64.6469342 68.0623811,65.2301078 C68.0623811,69.0742696 69.5796315,70.3571233 73.3329748,70.3573149 C75.123471,70.3882993 80.9153963,70.5541892 99.6149233,71.1016186 C118.208954,71.6459535 125.33913,71.8482436 126.284072,71.8482436 C127.575566,71.8482436 128.630473,71.7165809 129.136074,71.4659128 C128.973215,71.1787924 128.774832,70.9253073 128.491402,70.6307817 C126.664769,68.8710508 126.290395,66.0333146 127.633034,63.9864277 Z" id="Path-7" fill="#EBEBEB" fill-rule="nonzero"></path>
                <path d="M131.760879,80.2133333 C136.801847,80.2133333 139.621435,77.2552251 139.922389,72.7430809 C140.200052,68.580154 138.128954,64.4878264 135.216326,63.4897958 C132.391135,62.5217259 130.554041,62.9207535 129.773619,64.1105272 C129.115384,65.1140232 129.314376,66.5985559 130.278313,67.517486 C132.173324,69.4734954 132.266404,71.3996456 130.400281,72.4135296 C129.414233,72.9492597 128.029042,73.1282436 126.284072,73.1282436 C125.296765,73.1282436 118.32536,72.930458 99.632836,72.3832398 C80.8846813,71.8343868 75.0622515,71.6676232 73.3108278,71.6371233 C68.2520663,71.6371233 65.5023811,69.312231 65.5023811,63.9501078 C65.5023811,62.3813538 66.1577124,61.4002058 67.5643461,60.5913465 C67.9835732,60.3502775 68.2306274,60.2303171 69.3653304,59.6992628 C72.5597936,58.2042165 80.4339203,54.7909049 86.4004562,52.3855453 C89.0964988,51.2986579 90.2475094,49.4985159 90.2510561,47.1411307 C90.2538073,45.3124211 89.4854349,43.2120664 88.6569575,42.1821949 C88.6208491,42.1373091 88.0461885,41.4396723 87.8354762,41.1747357 C87.4378521,40.6747878 87.0864274,40.1994566 86.7499936,39.6940449 C83.7972219,35.2582078 83.1948254,30.2739868 86.3378417,24.4734781 C88.6464121,20.2129585 92.2235143,17.9848904 96.5555977,17.4195011 C99.4273372,17.0447043 102.210473,17.419791 104.624226,18.137833 C108.262201,19.2200559 118.760273,22.5796213 122.391693,23.8780042 C125.970019,25.1574041 126.863644,25.019837 130.372271,22.9498916 C131.311773,22.4032025 131.894355,21.9415488 132.146633,21.5992326 C131.985158,21.2926937 131.30588,20.9041892 129.95761,20.302108 C129.322601,20.0190171 129.105974,19.9211526 128.884328,19.8177368 C124.162305,17.9114544 115.109384,13.8410559 110.92916,11.741932 C108.445211,10.4946023 105.547122,10.322743 102.199521,11.251734 C93.4865057,13.8394168 87.219947,15.4029385 83.3625691,15.9456587 C79.1341988,16.5405762 77.5634377,16.3444359 76.049898,14.9813533 C75.7745867,14.73341 74.8323775,13.7597777 74.6804302,13.6113854 C72.9045034,11.8770074 72.3995802,10.0814097 73.691455,8.58117153 C75.3022158,6.74021205 77.5177203,7.05013602 79.7967298,9.065938 C80.554979,9.73661544 81.1218209,9.74222139 81.7678647,9.26452758 C82.3850145,8.80819845 82.9450101,7.92595488 83.0734275,7.34523326 C83.239207,6.59555446 83.0712704,5.47456657 82.4728295,4.60974539 C81.5932851,3.33869486 79.8499123,2.55929289 76.9757289,2.55929289 C71.3075245,2.74777898 66.957966,6.59269527 63.8752984,14.3347954 C50.2731356,50.1948983 43.0371054,69.397133 42.2174003,71.8064033 C41.1982012,74.8020247 38.7584409,76.2629091 35.2338662,76.0935116 L9.26545948,76.0935116 C5.90328062,77.2678395 3.82036642,78.3060879 3.1482642,79.0396568 C2.80270078,79.7750158 2.94421936,79.9708559 4.06938672,80.2133333 L131.760879,80.2133333 Z M132.222447,21.4832069 C132.224222,21.479851 132.224976,21.4783061 132.224939,21.4785514 C132.224923,21.478659 132.224092,21.4802109 132.222447,21.4832069 Z M127.633034,62.7064277 C129.131552,60.4218988 132.209468,59.7533574 136.046161,61.0680251 C140.188142,62.4873011 142.824655,67.6968469 142.476714,72.9134513 C142.090036,78.7108277 138.217767,82.7733333 131.760879,82.7733333 L127.059138,82.7733333 L3.80561949,82.7733333 C0.817762177,82.1575673 -0.316776133,80.2418253 0.921922946,77.7643855 C2.06687708,76.2654467 4.53816244,75.0184857 8.63128607,73.6037374 L35.2654851,73.5335116 C37.7864421,73.6601348 39.1612286,72.8411751 39.7938317,70.9818335 C40.629148,68.526679 47.8417086,49.3867256 61.4892931,13.407358 C64.9230687,4.78293633 70.0766343,0.227295052 76.9331883,0 C80.6383931,0 83.1824351,1.13632179 84.5779621,3.15303101 C85.6078378,4.641329 85.8846299,6.48893357 85.573041,7.89798313 C85.3131473,9.07325919 84.4116872,10.493462 83.2898833,11.3229395 C81.7000349,12.4984956 79.7921682,12.4796272 78.1006562,10.9834714 C76.7571672,9.79514472 76.1100588,9.70462159 75.6247336,10.2592452 C75.429943,10.4854624 75.5383382,10.8709352 76.4690724,11.7798944 C76.6766602,11.9826256 77.565816,12.901435 77.7630704,13.0790809 C78.5600344,13.7968207 79.4612194,13.9093514 83.0058987,13.4106269 C86.7043173,12.8902718 92.8716728,11.3515015 101.492755,8.79133679 C105.444819,7.69434916 108.99237,7.90472222 112.077971,9.45417463 C116.20362,11.5258934 125.224367,15.5813306 129.873858,17.4564677 C130.152697,17.5848641 130.361631,17.6793525 130.716425,17.8375196 C133.191989,18.9427918 134.049759,19.4601503 134.551185,20.5091943 C135.344116,22.1681022 134.246617,23.6573032 131.666439,25.1586626 C127.550013,27.587216 125.880731,27.84419 121.529819,26.288559 C117.948261,25.0080035 107.491556,21.6616763 103.894291,20.5915639 C101.794595,19.9669472 99.3463145,19.6369894 96.886899,19.9579729 C93.3308507,20.4220803 90.4839057,22.1953556 88.5886546,25.6930852 C85.9365801,30.5875495 86.4186744,34.5763913 88.8810293,38.2754938 C89.1736577,38.7150985 89.4833695,39.1340094 89.8390554,39.5812269 C90.032782,39.8248067 90.6012927,40.5149774 90.6516468,40.5775721 C91.8398644,42.0546326 92.8147024,44.7193637 92.8110532,47.1449821 C92.805975,50.5203072 91.0459269,53.2729636 87.3576435,54.7598646 C81.433185,57.1482612 73.6016352,60.5431163 70.4504775,62.0178951 C69.4009726,62.5090758 69.1687383,62.6218401 68.8404855,62.8105959 C68.1804788,63.1901209 68.0623811,63.3669342 68.0623811,63.9501078 C68.0623811,67.7942696 69.5796315,69.0771233 73.3329748,69.0773149 C75.123471,69.1082993 80.9153963,69.2741892 99.6149233,69.8216186 C118.208954,70.3659535 125.33913,70.5682436 126.284072,70.5682436 C127.575566,70.5682436 128.630473,70.4365809 129.136074,70.1859128 C128.973215,69.8987924 128.774832,69.6453073 128.491402,69.3507817 C126.664769,67.5910508 126.290395,64.7533146 127.633034,62.7064277 Z" id="Path-7" fill="#F2F2F2" fill-rule="nonzero"></path>
                <path d="M131.760879,80.8533333 C137.155827,80.8533333 140.238585,77.6191257 140.560971,72.7856735 C140.856203,68.3593272 138.643751,63.9876951 135.423785,62.8843531 C132.345718,61.8296338 130.198419,62.2960398 129.238473,63.7595023 C128.407885,65.025754 128.652678,66.8519725 129.85493,67.9988024 C131.454179,69.6507777 131.523012,71.0751783 130.094745,71.8511703 C129.233344,72.3191784 127.924916,72.4882436 126.284072,72.4882436 C125.750885,72.4882436 122.854049,72.412756 117.672614,72.2660577 C113.480721,72.1473756 108.888603,72.0139255 99.6515638,71.7435138 C80.89236,71.1943374 75.0775563,71.0277922 73.3108278,70.9971233 C68.5839576,70.9971233 66.1423811,68.9327406 66.1423811,63.9501078 C66.1423811,62.6277489 66.663404,61.8476846 67.8833809,61.1461588 C68.2798645,60.9181681 68.5232137,60.8000068 69.6366172,60.2789209 C72.820254,58.7889415 80.6837365,55.380244 86.6397531,52.9791251 C89.5838558,51.7922344 90.8871258,49.7539637 90.8910553,47.1420935 C90.8940311,45.1641567 90.0740423,42.922708 89.1556298,41.7810392 C89.11596,41.7317261 88.5428369,41.0359559 88.336371,40.7763585 C87.9492315,40.2895932 87.608235,39.8283671 87.2827525,39.3394071 C84.4525851,35.0877536 83.880264,30.3523775 86.9005449,24.7783798 C89.1057855,20.7085578 92.5003484,18.5941879 96.638423,18.054119 C99.4070815,17.6927756 102.106503,18.05658 104.441742,18.7512657 C108.06954,19.830461 118.55727,23.1867169 122.176224,24.4806429 C125.947697,25.8291006 127.035236,25.6616817 130.694154,23.5030567 C132.511196,22.4457335 133.01925,21.7563528 132.8189,21.3371981 C132.608783,20.8976057 131.89027,20.46424 130.21857,19.717728 C129.569797,19.4285012 129.3524,19.3301853 129.155726,19.2371099 C125.879155,17.9156707 120.267339,15.4439877 115.658108,13.2995597 C113.87817,12.4714501 112.353189,11.7408567 111.216363,11.1699927 C108.582001,9.8471323 105.521546,9.66564452 102.017313,10.6382194 C93.3327975,13.217438 87.0910396,14.7747718 83.2734015,15.3119007 C79.215954,15.88277 77.8125869,15.7075321 76.4781911,14.5057852 C76.222394,14.2754162 75.2934482,13.3154897 75.1275908,13.1535126 C73.5629621,11.6254893 73.1571709,10.1824228 74.1731143,9.0026028 C75.5041765,7.48131444 77.327582,7.73638819 79.3727114,9.54532135 C80.3642763,10.4223684 81.2663744,10.4312899 82.1483694,9.77913056 C82.8916827,9.22951433 83.5370444,8.21278096 83.6983308,7.48342073 C83.9005628,6.56889924 83.7054122,5.26625718 82.9991126,4.2455668 C81.9905726,2.78810159 80.0470325,1.91964644 76.9544586,1.91964644 C72.2222018,2.07700926 68.3911577,4.6412226 65.4167636,9.68239082 C64.9054109,10.5490599 64.1856355,12.0378322 63.2770692,14.10737 C59.5157529,24.0458468 56.8493727,31.0930123 55.2779418,35.2488313 C47.3447627,56.2289822 42.9131221,67.9984156 41.9876261,70.5447798 C41.8100568,71.0333355 41.6844412,71.3858967 41.6115082,71.6002609 C40.6865437,74.3189087 38.5038714,75.6191254 35.2654851,75.4535116 L9.15717359,75.4535116 C5.54669688,76.7077571 3.33997352,77.8154642 2.60925561,78.6840296 C2.02210298,79.9010021 2.387588,80.5072702 4.00263917,80.8533333 L131.760879,80.8533333 Z M127.059138,82.1333333 L3.87088237,82.1333333 C1.33511277,81.6107378 0.456285008,80.1267798 1.49435827,78.0505984 C2.46609959,76.7931876 4.86551545,75.5824905 8.84035937,74.2086245 L35.2980095,74.1743385 C38.0255852,74.3131317 39.669667,73.333753 40.3997239,71.187976 C40.476199,70.9632008 40.6042553,70.6037892 40.7846216,70.1075384 C41.7130582,67.5530835 46.1435409,55.7867252 54.0806762,34.7961119 C55.6521625,30.6401461 58.3185777,23.5928881 62.0923922,13.6237855 C63.0324343,11.4803654 63.770695,9.9533582 64.314349,9.03194327 C67.4993746,3.63378513 71.7134185,0.813220444 76.9331883,0.64 C80.4412729,0.64 82.7851476,1.68691506 84.0516789,3.51720961 C84.973696,4.84963839 85.2232742,6.51558879 84.9481376,7.75979566 C84.721113,8.78643311 83.9050191,10.0721461 82.9093786,10.8083365 C81.5554814,11.809427 79.9828709,11.7938743 78.5246746,10.5040881 C76.9473055,9.10889254 75.9080981,8.96351921 75.1397536,9.84163965 C74.6723523,10.3844492 74.8798795,11.1224533 76.0219119,12.2377672 C76.2155896,12.4269136 77.1180086,13.3594287 77.3347773,13.554649 C78.3108853,14.4337245 79.3794643,14.5671576 83.0950663,14.0443848 C86.8332248,13.5184385 93.025381,11.9734803 101.66393,9.40802075 C105.470395,8.35144762 108.855581,8.55219225 111.790768,10.026114 C112.91453,10.5904173 114.428726,11.3158438 116.198048,12.1390144 C120.788673,14.2747861 126.381074,16.7379183 129.666359,18.0638898 C129.885931,18.1666379 130.097686,18.2624021 130.455835,18.4220646 C132.758083,19.4499412 133.569434,19.9393021 133.973757,20.7851956 C134.56916,22.0308524 133.668143,23.2534466 131.341238,24.6074422 C127.378421,26.9453712 125.903053,27.1724935 121.745288,25.6859203 C118.151264,24.400908 107.684217,21.0512712 104.076775,19.9781312 C101.898564,19.3301582 99.3665702,18.9889181 96.8040737,19.323355 C93.0540166,19.8127828 90.0245323,21.6997563 88.0259513,25.3881834 C85.2511414,30.5091589 85.7633113,34.7468454 88.3482704,38.6301316 C88.6518502,39.086188 88.9719901,39.519204 89.3381606,39.9796041 C89.5361336,40.2285231 90.1061818,40.9205603 90.1529745,40.9787278 C91.251257,42.3439911 92.1744787,44.867628 92.1710539,47.1440193 C92.1663586,50.2648594 90.5585699,52.7793872 87.1183467,54.1662848 C81.1833688,56.5589221 73.3411748,59.9583913 70.1791907,61.438237 C69.1083863,61.9393861 68.8724471,62.0539494 68.5214506,62.2557836 C67.6747872,62.7426421 67.4223811,63.1205391 67.4223811,63.9501078 C67.4223811,68.1737599 69.2477402,69.7171233 73.3219013,69.7172191 C75.1081661,69.7481303 80.9077175,69.9142386 99.5961953,70.4613445 C108.92562,70.7344608 113.517511,70.8679043 117.708839,70.9865704 C122.856458,71.1323113 125.77036,71.2082436 126.284072,71.2082436 C127.716664,71.2082436 128.871567,71.0590159 129.483674,70.7264517 C130.036227,70.4262438 130.015887,70.0053424 128.953499,68.9071863 C127.329282,67.3588057 126.992888,64.8492155 128.16818,63.0574526 C129.487174,61.0466125 132.254884,60.4454495 135.838703,61.6734678 C139.673345,62.9874324 142.168504,67.9176737 141.838133,72.8708587 C141.472886,78.346927 137.863787,82.1333333 131.760879,82.1333333 L127.059138,82.1333333 Z" id="Path-7" fill="url(#linearGradient-1)" fill-rule="nonzero"></path>
                <path d="M115.658108,13.2995597 L116.198048,12.1390144 C120.788673,14.2747861 126.381074,16.7379183 129.666359,18.0638898 C129.885931,18.1666379 130.097686,18.2624021 130.455835,18.4220646 C130.597963,18.4853918 130.673581,18.5190895 130.740489,18.548968 C132.758083,19.4499412 133.569434,19.9393021 133.973757,20.7851956 C134.56916,22.0308524 133.668143,23.2534466 131.341238,24.6074422 C127.378421,26.9453712 125.903053,27.1724935 121.745288,25.6859203 C118.151264,24.400908 107.684217,21.0512712 104.076775,19.9781312 C101.898564,19.3301582 99.3665702,18.9889181 96.8040737,19.323355 C93.0540166,19.8127828 90.0245323,21.6997563 88.0259513,25.3881834 C85.2511414,30.5091589 85.7633113,34.7468454 88.3482704,38.6301316 C88.6518502,39.086188 88.9719901,39.519204 89.3381606,39.9796041 C89.5361336,40.2285231 90.1061818,40.9205603 90.1529745,40.9787278 C91.251257,42.3439911 92.1744787,44.867628 92.1710539,47.1440193 C92.1663586,50.2648594 90.5585699,52.7793872 87.1183467,54.1662848 C81.1833688,56.5589221 73.3411748,59.9583913 70.1791907,61.438237 C69.1083863,61.9393861 68.8724471,62.0539494 68.5214506,62.2557836 C67.6747872,62.7426421 67.4223811,63.1205391 67.4223811,63.9501078 C67.4223811,68.1737599 69.2477402,69.7171233 73.3219013,69.7172191 C75.1081661,69.7481303 80.9077175,69.9142386 99.5961953,70.4613445 C108.92562,70.7344608 113.517511,70.8679043 117.708839,70.9865704 L117.672614,72.2660577 C113.480721,72.1473756 108.888603,72.0139255 99.6515638,71.7435138 C80.89236,71.1943374 75.0775563,71.0277922 73.3108278,70.9971233 C68.5839576,70.9971233 66.1423811,68.9327406 66.1423811,63.9501078 C66.1423811,62.6277489 66.663404,61.8476846 67.8833809,61.1461588 C68.2798645,60.9181681 68.5232137,60.8000068 69.6366172,60.2789209 C72.820254,58.7889415 80.6837365,55.380244 86.6397531,52.9791251 C89.5838558,51.7922344 90.8871258,49.7539637 90.8910553,47.1420935 C90.8940311,45.1641567 90.0740423,42.922708 89.1556298,41.7810392 C89.11596,41.7317261 88.5428369,41.0359559 88.336371,40.7763585 C87.9492315,40.2895932 87.608235,39.8283671 87.2827525,39.3394071 C84.4525851,35.0877536 83.880264,30.3523775 86.9005449,24.7783798 C89.1057855,20.7085578 92.5003484,18.5941879 96.638423,18.054119 C99.4070815,17.6927756 102.106503,18.05658 104.441742,18.7512657 C108.06954,19.830461 118.55727,23.1867169 122.176224,24.4806429 C125.947697,25.8291006 127.035236,25.6616817 130.694154,23.5030567 C132.511196,22.4457335 133.01925,21.7563528 132.8189,21.3371981 C132.608783,20.8976057 131.89027,20.46424 130.21857,19.717728 C130.15219,19.6880855 130.077123,19.6546333 129.934655,19.5911546 C129.569797,19.4285012 129.3524,19.3301853 129.155726,19.2371099 C125.879155,17.9156707 120.267339,15.4439877 115.658108,13.2995597 Z" id="Path" fill-opacity="0.2" fill="#000000" fill-rule="nonzero"></path>
                <polygon id="Path" fill="#FF9219" fill-rule="nonzero" points="77.6851842 80.8533333 77.6851842 82.1333333 3.93614524 82.1333333 3.93614524 80.8533333"></polygon>
                <path d="M41.6115082,71.6002609 L40.3997239,71.187976 C40.476199,70.9632008 40.6042553,70.6037892 40.7846216,70.1075384 C41.7130582,67.5530835 46.1435409,55.7867252 54.0806762,34.7961119 L55.2779418,35.2488313 C47.3447627,56.2289822 42.9131221,67.9984156 41.9876261,70.5447798 C41.8100568,71.0333355 41.6844412,71.3858967 41.6115082,71.6002609 Z" id="Path" fill="#FF9219" fill-rule="nonzero"></path>
                <path d="M117.672614,72.2660577 L117.708839,70.9865704 C122.856458,71.1323113 125.77036,71.2082436 126.284072,71.2082436 C127.716664,71.2082436 128.871567,71.0590159 129.483674,70.7264517 C130.036227,70.4262438 130.015887,70.0053424 128.953499,68.9071863 C127.329282,67.3588057 126.992888,64.8492155 128.16818,63.0574526 C129.487174,61.0466125 132.254884,60.4454495 135.838703,61.6734678 C139.673345,62.9874324 142.168504,67.9176737 141.838133,72.8708587 C141.472886,78.346927 137.863787,82.1333333 131.760879,82.1333333 L77.6851842,82.1333333 L77.6851842,80.8533333 L131.760879,80.8533333 C137.155827,80.8533333 140.238585,77.6191257 140.560971,72.7856735 C140.856203,68.3593272 138.643751,63.9876951 135.423785,62.8843531 C132.345718,61.8296338 130.198419,62.2960398 129.238473,63.7595023 C128.407885,65.025754 128.652678,66.8519725 129.85493,67.9988024 C131.454179,69.6507777 131.523012,71.0751783 130.094745,71.8511703 C129.233344,72.3191784 127.924916,72.4882436 126.284072,72.4882436 C125.750885,72.4882436 122.854049,72.412756 117.672614,72.2660577 Z" id="Path" fill-opacity="0.37" fill="#000000" fill-rule="nonzero"></path>
                <path d="M4.06532769,80.8665065 L3.8069628,82.1201602 C1.33511277,81.6107378 0.456285008,80.1267798 1.49435827,78.0505984 L1.52344142,77.9924311 L1.56363048,77.9413028 C2.46609959,76.7931876 4.86551545,75.5824905 8.84035937,74.2086245 L8.9419475,74.1735116 L35.2980095,74.1743385 C38.0255852,74.3131317 39.669667,73.333753 40.3997239,71.187976 C40.476199,70.9632008 40.6042553,70.6037892 40.7846216,70.1075384 L41.9876261,70.5447798 C41.8100568,71.0333355 41.6844412,71.3858967 41.6115082,71.6002609 C40.6865437,74.3189087 38.5038714,75.6191254 35.2654851,75.4535116 L9.15717359,75.4535116 C5.54669688,76.7077571 3.33997352,77.8154642 2.60925561,78.6840296 C2.0145808,79.9165931 2.39710902,80.5227041 4.06532769,80.8665065 Z" id="Path" fill-opacity="0.37" fill="#000000" fill-rule="nonzero"></path>
                <path d="M55.2779418,35.2488313 L54.0806762,34.7961119 C55.6521625,30.6401461 58.3185777,23.5928881 62.0923922,13.6237855 C63.0324343,11.4803654 63.770695,9.9533582 64.314349,9.03194327 L65.4167636,9.68239082 C64.9054109,10.5490599 64.1856355,12.0378322 63.2770692,14.10737 C59.5157529,24.0458468 56.8493727,31.0930123 55.2779418,35.2488313 Z" id="Path" fill="#FFB819" fill-rule="nonzero"></path>
                <g id="Group-15" transform="translate(25.173333, 0.000000)">
                    <g id="Group-Copy-8" transform="translate(4.693333, 72.533333)">
                        <circle id="Oval-Copy-2" fill-opacity="0.7" fill="#FFFFFF" cx="2.56" cy="2.56" r="2.56"></circle>
                        <circle id="Oval-Copy-2" fill-opacity="0.2" fill="#FFB819" cx="2.56" cy="2.56" r="2.56"></circle>
                        <circle id="Oval" stroke="#FFB819" stroke-width="0.5" fill="#FFFFFF" cx="2.56" cy="2.56" r="1.70666667"></circle>
                        <circle id="Oval-Copy" fill="#FFB819" cx="2.56" cy="2.56" r="1"></circle>
                    </g>
                    <g id="Group-Copy-8" transform="translate(100.693333, 62.293333)">
                        <circle id="Oval-Copy-2" fill-opacity="0.7" fill="#FFFFFF" cx="2.56" cy="2.56" r="2.56"></circle>
                        <circle id="Oval-Copy-2" fill-opacity="0.2" fill="#FFB819" cx="2.56" cy="2.56" r="2.56"></circle>
                        <circle id="Oval" stroke="#FFB819" stroke-width="0.5" fill="#FFFFFF" cx="2.56" cy="2.56" r="1.70666667"></circle>
                        <circle id="Oval-Copy" fill="#FFB819" cx="2.56" cy="2.56" r="1"></circle>
                    </g>
                    <g id="Group-Copy-15" transform="translate(0.000000, 78.933333)">
                        <circle id="Oval-Copy-2" fill-opacity="0.7" fill="#FFFFFF" cx="2.56" cy="2.56" r="2.56"></circle>
                        <circle id="Oval-Copy-2" fill-opacity="0.2" fill="#D0021B" cx="2.56" cy="2.56" r="2.56"></circle>
                        <circle id="Oval" stroke="#D0021B" stroke-width="0.5" fill="#FFFFFF" cx="2.56" cy="2.56" r="1.70666667"></circle>
                        <circle id="Oval-Copy" fill="#D0021B" cx="2.56" cy="2.56" r="1"></circle>
                    </g>
                    <path d="M21.9079496,2.57791667 L22.516283,2.57791667 C22.5454496,2.82166667 22.791283,2.97791667 23.1454496,2.97791667 C23.472533,2.97791667 23.703783,2.81958333 23.703783,2.5925 C23.703783,2.40083333 23.553783,2.29041667 23.185033,2.21125 L22.7933663,2.12791667 C22.2454496,2.01333333 21.9766996,1.72791667 21.9766996,1.26958333 C21.9766996,0.702916667 22.4329496,0.33 23.1266996,0.33 C23.7891996,0.33 24.2579496,0.700833333 24.2766996,1.23625 L23.685033,1.23625 C23.6558663,0.99875 23.435033,0.840416667 23.1308663,0.840416667 C22.816283,0.840416667 22.6079496,0.98625 22.6079496,1.21541667 C22.6079496,1.40083333 22.7516996,1.50708333 23.103783,1.58208333 L23.466283,1.65916667 C24.0704496,1.78625 24.3308663,2.04666667 24.3308663,2.51333333 C24.3308663,3.11958333 23.866283,3.49041667 23.1121163,3.49041667 C22.3954496,3.49041667 21.9308663,3.13833333 21.9079496,2.57791667 Z M25.591283,3.41333333 L25.591283,1.01958333 L25.553783,1.01958333 L24.816283,1.52791667 L24.816283,0.9425 L25.5933663,0.407083333 L26.2204496,0.407083333 L26.2204496,3.41333333 L25.591283,3.41333333 Z M20.8216996,6.20416667 L20.695033,6.20416667 C20.5516996,6.025 20.470033,5.75916667 20.470033,5.47333333 C20.470033,5.18833333 20.5391996,4.98166667 20.7033663,4.77166667 L20.8241996,4.77166667 C20.7033663,4.91333333 20.617533,5.20416667 20.617533,5.47333333 C20.617533,5.73333333 20.680033,5.95583333 20.8216996,6.20416667 Z M21.0233663,5.65916667 L21.175033,5.65916667 C21.1933663,5.785 21.3133663,5.865 21.4841996,5.865 C21.6458663,5.865 21.765033,5.7775 21.765033,5.65833333 C21.765033,5.55583333 21.690033,5.49083333 21.5241996,5.44916667 L21.370033,5.40916667 C21.152533,5.35416667 21.0583663,5.25583333 21.0583663,5.085 C21.0583663,4.88083333 21.2291996,4.7425 21.4833663,4.7425 C21.7158663,4.7425 21.8891996,4.88083333 21.9016996,5.075 L21.7508663,5.075 C21.730033,4.95166667 21.6283663,4.87833333 21.4783663,4.87833333 C21.3183663,4.87833333 21.212533,4.95833333 21.212533,5.08 C21.212533,5.17416667 21.2783663,5.22833333 21.4441996,5.27083333 L21.570033,5.30416667 C21.8191996,5.36666667 21.9191996,5.46333333 21.9191996,5.64 C21.9191996,5.86083333 21.745033,6.00166667 21.470033,6.00166667 C21.215033,6.00166667 21.0391996,5.86666667 21.0233663,5.65916667 Z M22.5083663,5.18583333 C22.365033,5.18583333 22.265033,5.29083333 22.2541996,5.45 L22.7491996,5.45 C22.7458663,5.29083333 22.6508663,5.18583333 22.5083663,5.18583333 Z M22.745033,5.74083333 L22.8883663,5.74083333 C22.845033,5.895 22.7066996,5.98916667 22.510033,5.98916667 C22.2608663,5.98916667 22.105033,5.80916667 22.105033,5.525 C22.105033,5.2425 22.2633663,5.05916667 22.510033,5.05916667 C22.752533,5.05916667 22.900033,5.23166667 22.900033,5.51083333 L22.900033,5.56583333 L22.2541996,5.56583333 L22.2541996,5.5725 C22.2616996,5.75 22.3608663,5.8625 22.5133663,5.8625 C22.6291996,5.8625 22.707533,5.82 22.745033,5.74083333 Z M23.8683663,5.35 L23.7233663,5.35 C23.700033,5.26083333 23.6208663,5.18833333 23.4916996,5.18833333 C23.330033,5.18833333 23.2283663,5.3175 23.2283663,5.52083333 C23.2283663,5.72833333 23.3316996,5.86 23.4916996,5.86 C23.612533,5.86 23.6966996,5.80416667 23.7233663,5.7025 L23.8683663,5.7025 C23.842533,5.8675 23.7083663,5.98916667 23.492533,5.98916667 C23.2408663,5.98916667 23.080033,5.80666667 23.080033,5.52083333 C23.080033,5.24083333 23.240033,5.05916667 23.4916996,5.05916667 C23.710033,5.05916667 23.8433663,5.19 23.8683663,5.35 Z M24.140033,4.8425 L24.2833663,4.8425 L24.2833663,5.075 L24.4833663,5.075 L24.4833663,5.195 L24.2833663,5.195 L24.2833663,5.70333333 C24.2833663,5.80916667 24.3233663,5.85416667 24.4166996,5.85416667 C24.442533,5.85416667 24.4566996,5.85333333 24.4833663,5.85083333 L24.4833663,5.97166667 C24.455033,5.97666667 24.427533,5.98 24.3991996,5.98 C24.2141996,5.98 24.140033,5.91166667 24.140033,5.74 L24.140033,5.195 L23.995033,5.195 L23.995033,5.075 L24.140033,5.075 L24.140033,4.8425 Z M25.0691996,5.86 C25.2391996,5.86 25.335033,5.73666667 25.335033,5.52416667 C25.335033,5.31083333 25.2391996,5.18833333 25.0691996,5.18833333 C24.8991996,5.18833333 24.8033663,5.31083333 24.8033663,5.52416667 C24.8033663,5.73666667 24.8991996,5.86 25.0691996,5.86 Z M25.0691996,5.98916667 C24.8133663,5.98916667 24.655033,5.8125 24.655033,5.52416667 C24.655033,5.235 24.8133663,5.05916667 25.0691996,5.05916667 C25.325033,5.05916667 25.4833663,5.235 25.4833663,5.52416667 C25.4833663,5.8125 25.325033,5.98916667 25.0691996,5.98916667 Z M25.7083663,5.97333333 L25.7083663,5.075 L25.845033,5.075 L25.845033,5.20833333 L25.8583663,5.20833333 C25.885033,5.12083333 25.9883663,5.05916667 26.107533,5.05916667 C26.1308663,5.05916667 26.1608663,5.06083333 26.1791996,5.06333333 L26.1791996,5.20666667 C26.167533,5.20333333 26.1158663,5.19833333 26.087533,5.19833333 C25.9508663,5.19833333 25.8516996,5.29 25.8516996,5.41666667 L25.8516996,5.97333333 L25.7083663,5.97333333 Z M27.1266996,5.97333333 L27.1266996,4.9375 L27.1133663,4.9375 L26.807533,5.15916667 L26.807533,5.00083333 L27.127533,4.77083333 L27.2766996,4.77083333 L27.2766996,5.97333333 L27.1266996,5.97333333 Z M27.6058663,6.20416667 C27.747533,5.95583333 27.810033,5.73333333 27.810033,5.47333333 C27.810033,5.2025 27.725033,4.9125 27.6041996,4.77166667 L27.7258663,4.77166667 C27.890033,4.98166667 27.9583663,5.18833333 27.9583663,5.47333333 C27.9583663,5.7575 27.8766996,6.02333333 27.7333663,6.20416667 L27.6058663,6.20416667 Z" id="S1-(Sector-1)-Copy" fill="#C6C6C6"></path>
                    <path d="M74.5364913,46.5245833 L75.1448246,46.5245833 C75.1739913,46.7683333 75.4198246,46.9245833 75.7739913,46.9245833 C76.1010746,46.9245833 76.3323246,46.76625 76.3323246,46.5391667 C76.3323246,46.3475 76.1823246,46.2370833 75.8135746,46.1579167 L75.421908,46.0745833 C74.8739913,45.96 74.6052413,45.6745833 74.6052413,45.21625 C74.6052413,44.6495833 75.0614913,44.2766667 75.7552413,44.2766667 C76.4177413,44.2766667 76.8864913,44.6475 76.9052413,45.1829167 L76.3135746,45.1829167 C76.284408,44.9454167 76.0635746,44.7870833 75.759408,44.7870833 C75.4448246,44.7870833 75.2364913,44.9329167 75.2364913,45.1620833 C75.2364913,45.3475 75.3802413,45.45375 75.7323246,45.52875 L76.0948246,45.6058333 C76.6989913,45.7329167 76.959408,45.9933333 76.959408,46.46 C76.959408,47.06625 76.4948246,47.4370833 75.740658,47.4370833 C75.0239913,47.4370833 74.559408,47.085 74.5364913,46.5245833 Z M77.4573246,45.25375 C77.4573246,44.6725 77.903158,44.2766667 78.553158,44.2766667 C79.1802413,44.2766667 79.6177413,44.6370833 79.6177413,45.15375 C79.6177413,45.4808333 79.440658,45.7620833 78.9198246,46.2516667 L78.3448246,46.7995833 L78.3448246,46.8370833 L79.6614913,46.8370833 L79.6614913,47.36 L77.4927413,47.36 L77.4927413,46.9204167 L78.4739913,45.96 C78.896908,45.5475 79.003158,45.39125 79.003158,45.1954167 C79.003158,44.95375 78.8073246,44.7829167 78.5323246,44.7829167 C78.240658,44.7829167 78.040658,44.9745833 78.040658,45.2516667 L78.040658,45.2641667 L77.4573246,45.2641667 L77.4573246,45.25375 Z M73.6108663,50.1508333 L73.4841996,50.1508333 C73.3408663,49.9716667 73.2591996,49.7058333 73.2591996,49.42 C73.2591996,49.135 73.3283663,48.9283333 73.492533,48.7183333 L73.6133663,48.7183333 C73.492533,48.86 73.4066996,49.1508333 73.4066996,49.42 C73.4066996,49.68 73.4691996,49.9025 73.6108663,50.1508333 Z M73.812533,49.6058333 L73.9641996,49.6058333 C73.982533,49.7316667 74.102533,49.8116667 74.2733663,49.8116667 C74.435033,49.8116667 74.5541996,49.7241667 74.5541996,49.605 C74.5541996,49.5025 74.4791996,49.4375 74.3133663,49.3958333 L74.1591996,49.3558333 C73.9416996,49.3008333 73.847533,49.2025 73.847533,49.0316667 C73.847533,48.8275 74.0183663,48.6891667 74.272533,48.6891667 C74.505033,48.6891667 74.6783663,48.8275 74.6908663,49.0216667 L74.540033,49.0216667 C74.5191996,48.8983333 74.417533,48.825 74.267533,48.825 C74.107533,48.825 74.0016996,48.905 74.0016996,49.0266667 C74.0016996,49.1208333 74.067533,49.175 74.2333663,49.2175 L74.3591996,49.2508333 C74.6083663,49.3133333 74.7083663,49.41 74.7083663,49.5866667 C74.7083663,49.8075 74.5341996,49.9483333 74.2591996,49.9483333 C74.0041996,49.9483333 73.8283663,49.8133333 73.812533,49.6058333 Z M75.297533,49.1325 C75.1541996,49.1325 75.0541996,49.2375 75.0433663,49.3966667 L75.5383663,49.3966667 C75.535033,49.2375 75.440033,49.1325 75.297533,49.1325 Z M75.5341996,49.6875 L75.677533,49.6875 C75.6341996,49.8416667 75.4958663,49.9358333 75.2991996,49.9358333 C75.050033,49.9358333 74.8941996,49.7558333 74.8941996,49.4716667 C74.8941996,49.1891667 75.052533,49.0058333 75.2991996,49.0058333 C75.5416996,49.0058333 75.6891996,49.1783333 75.6891996,49.4575 L75.6891996,49.5125 L75.0433663,49.5125 L75.0433663,49.5191667 C75.0508663,49.6966667 75.150033,49.8091667 75.302533,49.8091667 C75.4183663,49.8091667 75.4966996,49.7666667 75.5341996,49.6875 Z M76.657533,49.2966667 L76.512533,49.2966667 C76.4891996,49.2075 76.410033,49.135 76.2808663,49.135 C76.1191996,49.135 76.017533,49.2641667 76.017533,49.4675 C76.017533,49.675 76.1208663,49.8066667 76.2808663,49.8066667 C76.4016996,49.8066667 76.4858663,49.7508333 76.512533,49.6491667 L76.657533,49.6491667 C76.6316996,49.8141667 76.497533,49.9358333 76.2816996,49.9358333 C76.030033,49.9358333 75.8691996,49.7533333 75.8691996,49.4675 C75.8691996,49.1875 76.0291996,49.0058333 76.2808663,49.0058333 C76.4991996,49.0058333 76.632533,49.1366667 76.657533,49.2966667 Z M76.9291996,48.7891667 L77.072533,48.7891667 L77.072533,49.0216667 L77.272533,49.0216667 L77.272533,49.1416667 L77.072533,49.1416667 L77.072533,49.65 C77.072533,49.7558333 77.112533,49.8008333 77.2058663,49.8008333 C77.2316996,49.8008333 77.2458663,49.8 77.272533,49.7975 L77.272533,49.9183333 C77.2441996,49.9233333 77.2166996,49.9266667 77.1883663,49.9266667 C77.0033663,49.9266667 76.9291996,49.8583333 76.9291996,49.6866667 L76.9291996,49.1416667 L76.7841996,49.1416667 L76.7841996,49.0216667 L76.9291996,49.0216667 L76.9291996,48.7891667 Z M77.8583663,49.8066667 C78.0283663,49.8066667 78.1241996,49.6833333 78.1241996,49.4708333 C78.1241996,49.2575 78.0283663,49.135 77.8583663,49.135 C77.6883663,49.135 77.592533,49.2575 77.592533,49.4708333 C77.592533,49.6833333 77.6883663,49.8066667 77.8583663,49.8066667 Z M77.8583663,49.9358333 C77.602533,49.9358333 77.4441996,49.7591667 77.4441996,49.4708333 C77.4441996,49.1816667 77.602533,49.0058333 77.8583663,49.0058333 C78.1141996,49.0058333 78.272533,49.1816667 78.272533,49.4708333 C78.272533,49.7591667 78.1141996,49.9358333 77.8583663,49.9358333 Z M78.497533,49.92 L78.497533,49.0216667 L78.6341996,49.0216667 L78.6341996,49.155 L78.647533,49.155 C78.6741996,49.0675 78.777533,49.0058333 78.8966996,49.0058333 C78.920033,49.0058333 78.950033,49.0075 78.9683663,49.01 L78.9683663,49.1533333 C78.9566996,49.15 78.905033,49.145 78.8766996,49.145 C78.740033,49.145 78.6408663,49.2366667 78.6408663,49.3633333 L78.6408663,49.92 L78.497533,49.92 Z M79.6208663,49.0558333 C79.6208663,48.8425 79.782533,48.6891667 80.0058663,48.6891667 C80.2216996,48.6891667 80.3866996,48.8358333 80.3866996,49.0266667 C80.3866996,49.1516667 80.330033,49.2491667 80.132533,49.4608333 L79.8433663,49.7716667 L79.8433663,49.785 L80.4066996,49.785 L80.4066996,49.92 L79.6283663,49.92 L79.6283663,49.8166667 L80.0441996,49.3625 C80.1991996,49.1941667 80.2366996,49.1291667 80.2366996,49.0325 C80.2366996,48.9125 80.1341996,48.82 80.0016996,48.82 C79.8608663,48.82 79.7658663,48.9141667 79.7658663,49.0558333 L79.7658663,49.0566667 L79.6208663,49.0566667 L79.6208663,49.0558333 Z M80.630033,50.1508333 C80.7716996,49.9025 80.8341996,49.68 80.8341996,49.42 C80.8341996,49.1491667 80.7491996,48.8591667 80.6283663,48.7183333 L80.750033,48.7183333 C80.9141996,48.9283333 80.982533,49.135 80.982533,49.42 C80.982533,49.7041667 80.9008663,49.97 80.757533,50.1508333 L80.630033,50.1508333 Z" id="S2-(Sector-2)-Copy" fill="#999999"></path>
                    <path d="M59.975658,89.19125 L60.5839913,89.19125 C60.613158,89.435 60.8589913,89.59125 61.213158,89.59125 C61.5402413,89.59125 61.7714913,89.4329167 61.7714913,89.2058333 C61.7714913,89.0141667 61.6214913,88.90375 61.2527413,88.8245833 L60.8610746,88.74125 C60.313158,88.6266667 60.044408,88.34125 60.044408,87.8829167 C60.044408,87.31625 60.500658,86.9433333 61.194408,86.9433333 C61.856908,86.9433333 62.325658,87.3141667 62.344408,87.8495833 L61.7527413,87.8495833 C61.7235746,87.6120833 61.5027413,87.45375 61.1985746,87.45375 C60.8839913,87.45375 60.675658,87.5995833 60.675658,87.82875 C60.675658,88.0141667 60.819408,88.1204167 61.1714913,88.1954167 L61.5339913,88.2725 C62.138158,88.3995833 62.3985746,88.66 62.3985746,89.1266667 C62.3985746,89.7329167 61.9339913,90.10375 61.1798246,90.10375 C60.463158,90.10375 59.9985746,89.7516667 59.975658,89.19125 Z M63.6652413,88.7225 L63.6652413,88.25375 L64.031908,88.25375 C64.3173246,88.25375 64.5110746,88.0870833 64.5110746,87.84125 C64.5110746,87.5995833 64.3235746,87.4454167 64.0298246,87.4454167 C63.738158,87.4454167 63.544408,87.61 63.5277413,87.8704167 L62.9464913,87.8704167 C62.9673246,87.3016667 63.3902413,86.9433333 64.0464913,86.9433333 C64.663158,86.9433333 65.106908,87.2808333 65.106908,87.75375 C65.106908,88.1016667 64.888158,88.3725 64.5527413,88.44125 L64.5527413,88.47875 C64.9652413,88.5245833 65.2235746,88.7995833 65.2235746,89.1954167 C65.2235746,89.7225 64.7277413,90.10375 64.0423246,90.10375 C63.3714913,90.10375 62.9173246,89.7329167 62.8902413,89.16625 L63.4923246,89.16625 C63.5110746,89.4204167 63.725658,89.5808333 64.0485746,89.5808333 C64.363158,89.5808333 64.581908,89.40375 64.581908,89.1475 C64.581908,88.885 64.375658,88.7225 64.038158,88.7225 L63.6652413,88.7225 Z M59.0846163,92.8175 L58.9579496,92.8175 C58.8146163,92.6383333 58.7329496,92.3725 58.7329496,92.0866667 C58.7329496,91.8016667 58.8021163,91.595 58.966283,91.385 L59.0871163,91.385 C58.966283,91.5266667 58.8804496,91.8175 58.8804496,92.0866667 C58.8804496,92.3466667 58.9429496,92.5691667 59.0846163,92.8175 Z M59.286283,92.2725 L59.4379496,92.2725 C59.456283,92.3983333 59.576283,92.4783333 59.7471163,92.4783333 C59.908783,92.4783333 60.0279496,92.3908333 60.0279496,92.2716667 C60.0279496,92.1691667 59.9529496,92.1041667 59.7871163,92.0625 L59.6329496,92.0225 C59.4154496,91.9675 59.321283,91.8691667 59.321283,91.6983333 C59.321283,91.4941667 59.4921163,91.3558333 59.746283,91.3558333 C59.978783,91.3558333 60.1521163,91.4941667 60.1646163,91.6883333 L60.013783,91.6883333 C59.9929496,91.565 59.891283,91.4916667 59.741283,91.4916667 C59.581283,91.4916667 59.4754496,91.5716667 59.4754496,91.6933333 C59.4754496,91.7875 59.541283,91.8416667 59.7071163,91.8841667 L59.8329496,91.9175 C60.0821163,91.98 60.1821163,92.0766667 60.1821163,92.2533333 C60.1821163,92.4741667 60.0079496,92.615 59.7329496,92.615 C59.4779496,92.615 59.3021163,92.48 59.286283,92.2725 Z M60.771283,91.7991667 C60.6279496,91.7991667 60.5279496,91.9041667 60.5171163,92.0633333 L61.0121163,92.0633333 C61.008783,91.9041667 60.913783,91.7991667 60.771283,91.7991667 Z M61.0079496,92.3541667 L61.151283,92.3541667 C61.1079496,92.5083333 60.9696163,92.6025 60.7729496,92.6025 C60.523783,92.6025 60.3679496,92.4225 60.3679496,92.1383333 C60.3679496,91.8558333 60.526283,91.6725 60.7729496,91.6725 C61.0154496,91.6725 61.1629496,91.845 61.1629496,92.1241667 L61.1629496,92.1791667 L60.5171163,92.1791667 L60.5171163,92.1858333 C60.5246163,92.3633333 60.623783,92.4758333 60.776283,92.4758333 C60.8921163,92.4758333 60.9704496,92.4333333 61.0079496,92.3541667 Z M62.131283,91.9633333 L61.986283,91.9633333 C61.9629496,91.8741667 61.883783,91.8016667 61.7546163,91.8016667 C61.5929496,91.8016667 61.491283,91.9308333 61.491283,92.1341667 C61.491283,92.3416667 61.5946163,92.4733333 61.7546163,92.4733333 C61.8754496,92.4733333 61.9596163,92.4175 61.986283,92.3158333 L62.131283,92.3158333 C62.1054496,92.4808333 61.971283,92.6025 61.7554496,92.6025 C61.503783,92.6025 61.3429496,92.42 61.3429496,92.1341667 C61.3429496,91.8541667 61.5029496,91.6725 61.7546163,91.6725 C61.9729496,91.6725 62.106283,91.8033333 62.131283,91.9633333 Z M62.4029496,91.4558333 L62.546283,91.4558333 L62.546283,91.6883333 L62.746283,91.6883333 L62.746283,91.8083333 L62.546283,91.8083333 L62.546283,92.3166667 C62.546283,92.4225 62.586283,92.4675 62.6796163,92.4675 C62.7054496,92.4675 62.7196163,92.4666667 62.746283,92.4641667 L62.746283,92.585 C62.7179496,92.59 62.6904496,92.5933333 62.6621163,92.5933333 C62.4771163,92.5933333 62.4029496,92.525 62.4029496,92.3533333 L62.4029496,91.8083333 L62.2579496,91.8083333 L62.2579496,91.6883333 L62.4029496,91.6883333 L62.4029496,91.4558333 Z M63.3321163,92.4733333 C63.5021163,92.4733333 63.5979496,92.35 63.5979496,92.1375 C63.5979496,91.9241667 63.5021163,91.8016667 63.3321163,91.8016667 C63.1621163,91.8016667 63.066283,91.9241667 63.066283,92.1375 C63.066283,92.35 63.1621163,92.4733333 63.3321163,92.4733333 Z M63.3321163,92.6025 C63.076283,92.6025 62.9179496,92.4258333 62.9179496,92.1375 C62.9179496,91.8483333 63.076283,91.6725 63.3321163,91.6725 C63.5879496,91.6725 63.746283,91.8483333 63.746283,92.1375 C63.746283,92.4258333 63.5879496,92.6025 63.3321163,92.6025 Z M63.971283,92.5866667 L63.971283,91.6883333 L64.1079496,91.6883333 L64.1079496,91.8216667 L64.121283,91.8216667 C64.1479496,91.7341667 64.251283,91.6725 64.3704496,91.6725 C64.393783,91.6725 64.423783,91.6741667 64.4421163,91.6766667 L64.4421163,91.82 C64.4304496,91.8166667 64.378783,91.8116667 64.3504496,91.8116667 C64.213783,91.8116667 64.1146163,91.9033333 64.1146163,92.03 L64.1146163,92.5866667 L63.971283,92.5866667 Z M65.3479496,92.0325 L65.3479496,91.9041667 L65.493783,91.9041667 C65.6304496,91.9041667 65.7271163,91.8158333 65.7271163,91.6908333 C65.7271163,91.5683333 65.6346163,91.4866667 65.496283,91.4866667 C65.3579496,91.4866667 65.2671163,91.5633333 65.2546163,91.6925 L65.108783,91.6925 C65.123783,91.4841667 65.2729496,91.3558333 65.5021163,91.3558333 C65.7121163,91.3558333 65.8796163,91.4958333 65.8796163,91.6708333 C65.8796163,91.8141667 65.8004496,91.9191667 65.668783,91.9508333 L65.668783,91.9641667 C65.8321163,91.985 65.931283,92.0983333 65.931283,92.2625 C65.931283,92.4608333 65.7454496,92.615 65.5079496,92.615 C65.263783,92.615 65.0954496,92.4791667 65.0846163,92.2733333 L65.2296163,92.2733333 C65.2429496,92.4016667 65.351283,92.4841667 65.506283,92.4841667 C65.6646163,92.4841667 65.7771163,92.39 65.7771163,92.2583333 C65.7771163,92.1191667 65.671283,92.0325 65.5004496,92.0325 L65.3479496,92.0325 Z M66.1429496,92.8175 C66.2846163,92.5691667 66.3471163,92.3466667 66.3471163,92.0866667 C66.3471163,91.8158333 66.2621163,91.5258333 66.141283,91.385 L66.2629496,91.385 C66.4271163,91.595 66.4954496,91.8016667 66.4954496,92.0866667 C66.4954496,92.3708333 66.413783,92.6366667 66.2704496,92.8175 L66.1429496,92.8175 Z" id="S3-(Sector-3)-Copy" fill="#666666"></path>
                    <g id="Group-6" transform="translate(29.092734, 35.951660) rotate(20.000000) translate(-29.092734, -35.951660) translate(28.026067, 34.884994)">
                        <rect id="Rectangle-2" fill="#000000" x="0" y="0" width="1" height="1"></rect>
                        <rect id="Rectangle-2-Copy-4" fill="#FFFFFF" x="0" y="0.64" width="1" height="1"></rect>
                        <rect id="Rectangle-2-Copy-7" fill="#000000" x="0" y="1.28" width="1" height="1"></rect>
                        <rect id="Rectangle-2-Copy" fill="#FFFFFF" x="0.64" y="0" width="1" height="1"></rect>
                        <rect id="Rectangle-2-Copy-5" fill="#000000" x="0.64" y="0.64" width="1" height="1"></rect>
                        <rect id="Rectangle-2-Copy-9" fill="#FFFFFF" x="0.64" y="1.28" width="1" height="1"></rect>
                        <rect id="Rectangle-2-Copy-3" fill="#000000" x="1.28" y="0" width="1" height="1"></rect>
                        <rect id="Rectangle-2-Copy-6" fill="#FFFFFF" x="1.28" y="0.64" width="1" height="1"></rect>
                        <rect id="Rectangle-2-Copy-10" fill="#000000" x="1.28" y="1.28" width="1" height="1"></rect>
                    </g>
                </g>
            </g>
        </g>
    </g>
</svg>