<?xml version="1.0" encoding="UTF-8"?>
<svg width="648px" height="273px" viewBox="0 0 648 273" version="1.1" xmlns="http://www.w3.org/2000/svg" xmlns:xlink="http://www.w3.org/1999/xlink">
    <title>circuit-mod-Barcelona@1x</title>
    <defs>
        <linearGradient x1="50%" y1="23.3035083%" x2="50%" y2="112.667183%" id="linearGradient-1">
            <stop stop-color="#1B94E2" offset="0%"></stop>
            <stop stop-color="#40D8AB" offset="100%"></stop>
        </linearGradient>
    </defs>
    <g id="circuit-mod-Barcelona" stroke="none" stroke-width="1" fill="none" fill-rule="evenodd">
        <rect fill="#FFFFFF" x="0" y="0" width="648" height="273"></rect>
        <g id="Spain-Circuit-Outlined-No-Numbers" transform="translate(-1.000000, -7.000000)">
            <path d="M597.413924,178.404225 L600.772258,179.204697 C597.443086,193.17204 591.137166,202.159016 582.764808,207.044512 C577.448091,210.146959 572.66613,211.120265 567.375975,211.195988 L549.659927,211.469895 C544.620824,211.537718 539.938403,211.57747 535.41636,211.584351 L532.423271,211.584015 C524.633887,211.570105 517.915601,211.449012 512.533912,211.200876 C510.17417,211.200876 507.552119,209.738545 505.799477,206.646491 L505.614297,206.302938 L503.972073,203.672142 C503.627566,203.126275 503.315995,202.642088 503.134572,202.384257 L503.047213,202.264604 C502.027278,200.944157 500.926522,200.993411 494.755948,203.94306 L492.389934,205.092061 C490.626062,205.958855 487.065574,207.263072 481.640049,209.039114 C480.432223,209.438947 479.165604,209.64226 477.886992,209.642968 L347.432119,209.642968 C346.641014,209.642968 345.853665,209.751732 345.092187,209.966206 L296.123725,223.758412 L295.187752,220.435294 L344.156214,206.643087 C345.222283,206.342824 346.324572,206.190554 347.432119,206.190554 L477.886037,206.190554 C478.796769,206.19005 479.69771,206.045434 480.560531,205.75982 L483.04718,204.934636 C486.938159,203.623759 489.55911,202.636419 490.867284,201.993562 L492.465822,201.215694 C500.966992,197.126705 503.269613,196.904812 505.779467,200.154167 C506.326942,200.862948 508.353697,204.184727 508.547289,204.482419 L508.634356,204.632262 C509.287837,205.89935 510.081234,206.741681 510.950918,207.246459 C511.548674,207.593406 512.136238,207.748462 512.61284,207.750267 L514.571853,207.832296 C519.264356,208.011548 524.801922,208.106301 531.074177,208.128058 L532.429437,208.131607 C538.356029,208.142191 544.493885,208.092608 551.305229,207.994171 L566.682987,207.748462 C571.695195,207.748462 576.107956,206.931755 581.024806,204.062641 C588.552174,199.67022 594.29635,191.48382 597.413924,178.404225 Z" id="Path-12" fill="#E6E6E6" fill-rule="nonzero"></path>
            <path d="M180.383701,52.6356364 L147.244683,52.4802186 L129.853765,52.4576389 C121.249668,52.4726754 115.182349,52.5399346 111.584072,52.6733664 L107.354814,52.8371878 C92.5620546,53.4429554 83.8730601,54.6731056 72.5733607,59.0341194 C57.1991615,64.9676486 45.1055611,75.3140377 37.5029832,91.0263479 L37.0774531,91.9214611 C29.5010137,107.315356 29.8193627,121.827618 36.2493374,134.705867 C40.6025993,143.424781 47.1777231,150.36624 53.8297615,155.146172 L54.3949594,155.551117 C63.2801369,161.899445 82.4641466,174.821892 94.6301692,182.519716 L96.7966695,183.877688 L97.5792978,184.392672 C100.010528,185.966319 104.369224,188.607191 105.245533,189.176477 L105.333628,189.234647 C109.106402,191.787161 109.994636,194.117528 109.994636,204.892418 L110.006735,205.246216 C110.844169,217.475282 114.499085,224.996422 122.13246,229.114724 L122.85666,229.491255 C128.816985,232.474207 135.990762,233.222487 150.695242,233.255573 L160.885832,233.238556 C178.181767,233.184595 215.727757,233.013143 273.528153,232.724185 L549.041306,231.282498 L548.868264,231.274765 C581.093988,233.111948 599.727604,223.058197 602.246036,200.82283 L603.662231,184.515188 C604.030064,180.20378 604.365134,176.162125 604.687494,172.119839 L604.824929,170.386603 C605.251874,164.971191 605.63768,159.772099 605.98046,154.765115 L606.336064,149.395723 L606.471364,147.243965 C607.075374,137.478314 607.471618,128.838821 607.628373,121.471027 C607.86564,109.988078 601.833517,103.337953 588.977898,96.3488138 L588.081457,95.8664733 L568.543055,87.5662507 L555.503241,82.0795107 L546.127823,78.1735124 C542.065628,76.491186 538.457898,75.0126312 535.360017,73.7623465 L531.897368,72.3757686 L529.475692,71.4235057 C527.416309,70.6222404 525.798104,70.0183186 524.619756,69.6144391 L523.980233,69.4005303 L524.213246,69.4959419 C506.71861,62.175399 487.439431,64.359457 479.940675,78.8521514 C471.265413,95.6771258 478.477189,110.072632 493.400668,115.573912 L496.20156,116.573345 C504.379778,119.523435 513.74931,123.282338 520.12131,126.097728 L520.857879,126.4316 C525.366753,128.533953 526.989445,130.504693 530.228671,138.021954 L530.659779,139.038392 C531.9888,142.218182 533.637943,146.567197 535.576126,151.948774 L536.386833,154.212543 L539.466201,162.999596 L542.79071,172.55003 L542.77796,172.501924 C543.844928,175.813383 543.554702,179.727241 542.157774,181.647682 C540.810084,183.500431 537.936973,183.898625 532.181725,181.350648 L531.666395,181.118143 C525.579952,178.32184 504.791731,165.900574 472.636039,146.028619 L447.75247,130.577345 L375.115977,85.1657327 C375.075604,85.1415496 375.044047,85.1229124 375.021499,85.1099436 L374.727181,84.9530502 L373.702732,84.4429552 L372.053061,83.594835 C369.75117,82.3872511 367.216873,80.9575769 363.040551,78.5465435 L358.25527,75.7865912 L356.833966,74.9775075 L355.397992,74.1699171 L353.504449,73.1254265 C343.258864,67.5457548 335.742618,64.6810334 328.110377,64.1357714 C317.502816,63.3779468 308.270825,67.6941157 300.567878,77.6718849 L298.202896,80.7495032 C297.806501,81.2676822 297.409003,81.7884601 297.010418,82.3118028 L295.255221,84.6236573 C288.246562,93.8838644 281.200278,103.523422 274.058504,113.54022 L267.893962,122.251287 L259.123195,134.769275 C258.888678,135.097976 257.951474,136.375907 257.890332,136.460078 L257.243789,137.364438 C256.94116,137.795992 256.664133,138.204951 256.388589,138.628868 C251.696424,145.847644 249.712818,154.661007 250.887671,168.857148 C251.867571,177.548602 250.89061,182.546352 248.671374,184.963236 C247.055382,186.72315 244.260831,187.571334 239.598038,187.636373 L211.32401,187.689445 L202.631265,187.682321 C200.056258,187.674521 197.893202,187.660933 196.128667,187.640771 C188.140862,187.549502 181.819495,185.335479 168.925112,178.245471 L152.477308,169.127126 L134.058551,158.870153 C129.415664,156.274169 125.760905,154.218436 123.266961,152.797999 L121.043231,151.521378 L119.897159,150.801325 C110.221093,144.631794 107.198114,140.263629 109.46686,134.354456 L109.801823,133.503865 C113.269917,124.929886 117.056764,122.9849 131.161806,122.9849 L135.72364,122.852064 C136.814062,122.822539 137.877335,122.79556 138.936807,122.770642 L146.199882,122.629747 C150.172074,122.567485 154.710186,122.516801 160.756906,122.458115 L167.023364,122.389989 C180.559018,122.214767 187.089074,121.895748 192.951558,120.94732 L194.062515,120.758799 L195.167057,120.554286 L195.535497,120.482432 C204.700548,118.673191 211.470647,115.084569 217.998751,108.482884 C219.595042,106.8686 221.192195,105.058891 222.833436,103.012794 C243.267672,77.5379192 235.18596,54.9033711 201.585099,52.7079851 L201.249412,52.6969671 L180.383701,52.6356364 Z M129.018609,62.8165577 L147.214953,62.8374226 L196.614673,63.050052 L201.055235,63.0532671 L200.909826,63.0431905 C225.695456,64.662614 230.199437,77.2769679 214.754202,96.532174 C213.327766,98.3104772 211.965782,99.8537207 210.634147,101.200365 L210.087259,101.746767 C201.741154,109.980237 195.048648,111.596823 167.323979,112.022434 L147.380497,112.253417 C141.439141,112.340109 136.909269,112.446252 131.000692,112.630165 C112.58596,112.627658 105.027305,117.02132 99.7977759,130.642143 C97.174032,137.475941 98.2516412,143.820679 102.402326,149.363783 C105.366739,153.322659 109.423937,156.505621 115.714734,160.401603 L119.514405,162.576127 C123.624787,164.906192 129.851376,168.391238 137.808457,172.821657 L153.663867,181.631028 L163.09292,186.856632 C177.614188,194.898296 185.438195,197.765291 195.397815,197.987044 L198.353943,198.018763 C200.466332,198.034014 202.97975,198.042868 205.913532,198.046192 L239.006484,197.997675 C255.59937,197.997675 263.615174,189.267976 261.194513,167.848487 C260.217069,156.009513 261.68577,149.483922 265.072574,144.273411 L265.505253,143.626108 C265.656722,143.405365 265.817468,143.176561 265.993599,142.93044 L267.618104,140.693714 L277.463266,126.649941 C278.433399,125.272344 279.344563,123.981676 280.122462,122.884862 C288.02479,111.74283 295.798075,101.068543 303.509073,90.8803602 L305.254822,88.58095 L307.601219,85.5137224 L308.766249,84.0011167 C318.791161,71.015663 329.364348,71.6170807 349.640369,82.8195129 L351.733726,83.9919003 L354.50938,85.5789837 L360.701671,89.1487731 C363.77968,90.9084551 365.890868,92.0737536 367.965327,93.1438221 L369.229056,93.7864646 L369.962865,94.1508864 L449.09803,143.618562 C492.295365,170.489881 519.561989,186.955035 527.342462,190.529629 C537.50414,195.198223 545.847823,194.181953 550.533542,187.740216 C554.09625,182.84235 554.637873,175.538255 552.636119,169.325578 L546.685167,152.262378 L545.870369,149.971484 L544.633185,146.540326 C542.826305,141.576327 541.276007,137.540386 539.980371,134.484727 L539.740423,133.923291 C535.347962,123.729721 531.92109,119.988143 524.307153,116.624018 L522.345813,115.76795 C515.898798,112.985818 507.317574,109.572346 499.702897,106.825877 L497.334007,105.982257 C487.605617,102.564438 483.492067,94.5645442 489.142878,83.6052428 C493.484588,75.2141181 506.649503,73.5992936 519.598785,78.7977349 L520.434096,79.1420183 L521.068664,79.3463533 C522.48706,79.8224744 525.092192,80.8136238 528.682498,82.2433464 L532.270329,83.6847954 C535.682896,85.0661414 539.694786,86.7153737 544.230124,88.5992014 L554.976356,93.0896442 L564.963448,97.2977064 L583.586161,105.208969 L583.399721,105.108003 C593.627424,110.575661 597.410537,114.617227 597.276991,121.253893 L597.213566,123.704214 C597.04225,129.949112 596.7089,137.08274 596.231583,145.004474 L595.93109,149.804197 L595.498756,156.202657 C595.297459,159.072747 595.082157,162.008326 594.853247,165.013087 L594.499726,169.572575 C594.272929,172.449292 594.041051,175.30708 593.796814,178.244029 L592.52447,193.073024 L591.940157,199.803109 C590.182048,215.307098 576.857466,222.496365 549.457771,220.934313 L549.135287,220.925992 L243.493061,222.515307 C193.332979,222.760088 163.314632,222.888029 153.441757,222.899115 L150.708344,222.899115 L147.153906,222.872688 C125.891775,222.595832 121.640558,219.97191 120.445931,205.928064 L120.349878,204.692005 L120.34334,203.411017 C120.194151,190.85204 118.059006,185.486793 111.519601,180.918967 L111.137424,180.656278 C110.275548,180.073165 105.735007,177.323545 103.37719,175.807534 L102.426475,175.18604 L100.177078,173.773084 C87.9348278,166.027769 68.3254087,152.808385 59.8736037,146.735201 C54.4758053,142.856524 49.0190224,137.095714 45.5157684,130.079236 C40.599852,120.233412 40.2673757,109.362169 46.0541478,97.1487378 L46.4160988,96.399297 C52.8395269,82.6477414 63.019667,73.8231128 76.3025471,68.6967087 C85.9959112,64.955645 93.699641,63.804496 106.785777,63.2281206 L112.365944,63.0093395 C115.725693,62.8954205 121.2911,62.833641 129.018609,62.8165577 Z" id="Darker-Gray-Shadow" fill="#EBEBEB" fill-rule="nonzero"></path>
            <path d="M180.383701,47.4570154 L147.244683,47.3015976 L129.853765,47.2790179 C121.249668,47.2940544 115.182349,47.3613135 111.584072,47.4947453 L107.354814,47.6585668 C92.5620546,48.2643344 83.8730601,49.4944845 72.5733607,53.8554984 C57.1991615,59.7890276 45.1055611,70.1354167 37.5029832,85.8477269 L37.0774531,86.7428401 C29.5010137,102.136735 29.8193627,116.648997 36.2493374,129.527246 C40.6025993,138.24616 47.1777231,145.187619 53.8297615,149.967551 L54.3949594,150.372496 C63.2801369,156.720824 82.4641466,169.643271 94.6301692,177.341095 L96.7966695,178.699066 L97.5792978,179.214051 C100.010528,180.787698 104.369224,183.42857 105.245533,183.997856 L105.333628,184.056026 C109.106402,186.60854 109.994636,188.938907 109.994636,199.713797 L110.006735,200.067595 C110.844169,212.296661 114.499085,219.817801 122.13246,223.936103 L122.85666,224.312634 C128.816985,227.295586 135.990762,228.043866 150.695242,228.076952 L160.885832,228.059935 C178.181767,228.005974 215.727757,227.834522 273.528153,227.545563 L549.041306,226.103877 L548.868264,226.096144 C581.093988,227.933327 599.727604,217.879576 602.246036,195.644209 L603.662231,179.336567 C604.030064,175.025159 604.365134,170.983504 604.687494,166.941218 L604.824929,165.207982 C605.251874,159.79257 605.63768,154.593478 605.98046,149.586494 L606.336064,144.217102 L606.471364,142.065344 C607.075374,132.299693 607.471618,123.6602 607.628373,116.292406 C607.86564,104.809457 601.833517,98.1593323 588.977898,91.1701928 L588.081457,90.6878523 L568.543055,82.3876296 L555.503241,76.9008897 L546.127823,72.9948914 C542.065628,71.312565 538.457898,69.8340101 535.360017,68.5837255 L531.897368,67.1971475 L529.475692,66.2448847 C527.416309,65.4436194 525.798104,64.8396976 524.619756,64.4358181 L523.980233,64.2219093 L524.213246,64.3173209 C506.71861,56.996778 487.439431,59.180836 479.940675,73.6735304 C471.265413,90.4985048 478.477189,104.894011 493.400668,110.395291 L496.20156,111.394724 C504.379778,114.344814 513.74931,118.103717 520.12131,120.919107 L520.857879,121.252979 C525.366753,123.355332 526.989445,125.326072 530.228671,132.843333 L530.659779,133.859771 C531.9888,137.039561 533.637943,141.388576 535.576126,146.770153 L536.386833,149.033922 L539.466201,157.820975 L542.79071,167.371409 L542.77796,167.323303 C543.844928,170.634762 543.554702,174.54862 542.157774,176.469061 C540.810084,178.32181 537.936973,178.720004 532.181725,176.172027 L531.666395,175.939522 C525.579952,173.143219 504.791731,160.721953 472.636039,140.849998 L447.75247,125.398724 L375.115977,79.9871117 C375.075604,79.9629285 375.044047,79.9442914 375.021499,79.9313226 L374.727181,79.7744292 L373.702732,79.2643342 L372.053061,78.416214 C369.75117,77.2086301 367.216873,75.7789559 363.040551,73.3679225 L358.25527,70.6079701 L356.833966,69.7988865 L355.397992,68.991296 L353.504449,67.9468054 C343.258864,62.3671337 335.742618,59.5024123 328.110377,58.9571503 C317.502816,58.1993257 308.270825,62.5154946 300.567878,72.4932638 L298.202896,75.5708821 C297.806501,76.0890612 297.409003,76.609839 297.010418,77.1331818 L295.255221,79.4450363 C288.246562,88.7052434 281.200278,98.3448014 274.058504,108.361599 L267.893962,117.072666 L259.123195,129.590654 C258.888678,129.919355 257.951474,131.197286 257.890332,131.281457 L257.243789,132.185817 C256.94116,132.617371 256.664133,133.02633 256.388589,133.450247 C251.696424,140.669023 249.712818,149.482386 250.887671,163.678527 C251.867571,172.369981 250.89061,177.367731 248.671374,179.784615 C247.055382,181.544529 244.260831,182.392713 239.598038,182.457752 L211.32401,182.510824 L202.631265,182.5037 C200.056258,182.4959 197.893202,182.482312 196.128667,182.46215 C188.140862,182.370881 181.819495,180.156858 168.925112,173.06685 L152.477308,163.948505 L134.058551,153.691532 C129.415664,151.095548 125.760905,149.039815 123.266961,147.619378 L121.043231,146.342757 L119.897159,145.622704 C110.221093,139.453172 107.198114,135.085008 109.46686,129.175835 L109.801823,128.325244 C113.269917,119.751265 117.056764,117.806279 131.161806,117.806279 L135.72364,117.673443 C136.814062,117.643918 137.877335,117.616939 138.936807,117.592021 L146.199882,117.451126 C150.172074,117.388864 154.710186,117.33818 160.756906,117.279494 L167.023364,117.211367 C180.559018,117.036146 187.089074,116.717127 192.951558,115.768699 L194.062515,115.580178 L195.167057,115.375665 L195.535497,115.303811 C204.700548,113.49457 211.470647,109.905948 217.998751,103.304263 C219.595042,101.689979 221.192195,99.8802695 222.833436,97.834173 C243.267672,72.3592982 235.18596,49.7247501 201.585099,47.5293641 L201.249412,47.5183461 L180.383701,47.4570154 Z M129.018609,57.6379367 L147.214953,57.6588016 L196.614673,57.8714309 L201.055235,57.8746461 L200.909826,57.8645694 C225.695456,59.4839929 230.199437,72.0983469 214.754202,91.353553 C213.327766,93.1318562 211.965782,94.6750996 210.634147,96.0217436 L210.087259,96.568146 C201.741154,104.801616 195.048648,106.418202 167.323979,106.843813 L147.380497,107.074796 C141.439141,107.161488 136.909269,107.267631 131.000692,107.451543 C112.58596,107.449037 105.027305,111.842699 99.7977759,125.463522 C97.174032,132.29732 98.2516412,138.642058 102.402326,144.185162 C105.366739,148.144038 109.423937,151.327 115.714734,155.222982 L119.514405,157.397506 C123.624787,159.727571 129.851376,163.212617 137.808457,167.643036 L153.663867,176.452407 L163.09292,181.67801 C177.614188,189.719675 185.438195,192.58667 195.397815,192.808423 L198.353943,192.840142 C200.466332,192.855393 202.97975,192.864247 205.913532,192.867571 L239.006484,192.819054 C255.59937,192.819054 263.615174,184.089355 261.194513,162.669866 C260.217069,150.830892 261.68577,144.305301 265.072574,139.09479 L265.505253,138.447487 C265.656722,138.226744 265.817468,137.99794 265.993599,137.751819 L267.618104,135.515093 L277.463266,121.47132 C278.433399,120.093723 279.344563,118.803055 280.122462,117.706241 C288.02479,106.564209 295.798075,95.8899222 303.509073,85.7017391 L305.254822,83.402329 L307.601219,80.3351013 L308.766249,78.8224957 C318.791161,65.837042 329.364348,66.4384596 349.640369,77.6408919 L351.733726,78.8132793 L354.50938,80.4003627 L360.701671,83.9701521 C363.77968,85.7298341 365.890868,86.8951325 367.965327,87.9652011 L369.229056,88.6078436 L369.962865,88.9722654 L449.09803,138.439941 C492.295365,165.31126 519.561989,181.776414 527.342462,185.351008 C537.50414,190.019602 545.847823,189.003332 550.533542,182.561595 C554.09625,177.663729 554.637873,170.359634 552.636119,164.146957 L546.685167,147.083757 L545.870369,144.792863 L544.633185,141.361705 C542.826305,136.397706 541.276007,132.361765 539.980371,129.306106 L539.740423,128.74467 C535.347962,118.5511 531.92109,114.809522 524.307153,111.445397 L522.345813,110.589329 C515.898798,107.807197 507.317574,104.393725 499.702897,101.647256 L497.334007,100.803636 C487.605617,97.3858165 483.492067,89.3859232 489.142878,78.4266218 C493.484588,70.0354971 506.649503,68.4206725 519.598785,73.6191139 L520.434096,73.9633973 L521.068664,74.1677323 C522.48706,74.6438534 525.092192,75.6350028 528.682498,77.0647254 L532.270329,78.5061744 C535.682896,79.8875204 539.694786,81.5367527 544.230124,83.4205803 L554.976356,87.9110232 L564.963448,92.1190853 L583.586161,100.030348 L583.399721,99.929382 C593.627424,105.39704 597.410537,109.438606 597.276991,116.075272 L597.213566,118.525593 C597.04225,124.770491 596.7089,131.904119 596.231583,139.825853 L595.93109,144.625576 L595.498756,151.024036 C595.297459,153.894126 595.082157,156.829705 594.853247,159.834466 L594.499726,164.393954 C594.272929,167.270671 594.041051,170.128459 593.796814,173.065408 L592.52447,187.894403 L591.940157,194.624488 C590.182048,210.128477 576.857466,217.317744 549.457771,215.755692 L549.135287,215.747371 L243.493061,217.336686 C193.332979,217.581467 163.314632,217.709408 153.441757,217.720494 L150.708344,217.720494 L147.153906,217.694067 C125.891775,217.417211 121.640558,214.793289 120.445931,200.749443 L120.349878,199.513384 L120.34334,198.232396 C120.194151,185.673419 118.059006,180.308172 111.519601,175.740346 L111.137424,175.477657 C110.275548,174.894544 105.735007,172.144924 103.37719,170.628913 L102.426475,170.007419 L100.177078,168.594463 C87.9348278,160.849148 68.3254087,147.629764 59.8736037,141.55658 C54.4758053,137.677903 49.0190224,131.917093 45.5157684,124.900615 C40.599852,115.054791 40.2673757,104.183548 46.0541478,91.9701168 L46.4160988,91.220676 C52.8395269,77.4691203 63.019667,68.6444917 76.3025471,63.5180877 C85.9959112,59.777024 93.699641,58.625875 106.785777,58.0494995 L112.365944,57.8307185 C115.725693,57.7167995 121.2911,57.65502 129.018609,57.6379367 Z" id="Light-Gray-Shadow" fill="#F2F2F2" fill-rule="nonzero"></path>
            <path d="M180.373276,50.0463056 L147.23725,49.8908986 L129.860854,49.8683194 C122.17731,49.8817478 116.523224,49.9369569 112.872298,50.043148 L107.48624,50.2446995 C92.9522649,50.8393437 84.4705817,52.0393351 73.5056573,56.2711457 C58.7210479,61.9771282 47.141826,71.880396 39.8400298,86.9626198 L39.4235256,87.838501 C32.1896889,102.537401 32.4894038,116.200211 38.5659452,128.370588 C42.706705,136.663893 49.0022437,143.31019 55.3407221,147.864808 L57.1149397,149.129162 C67.042552,156.153669 86.9513691,169.517401 98.3184989,176.60024 L99.0902368,177.107628 C101.521818,178.678579 106.109526,181.454719 106.784577,181.911433 C111.388356,185.026174 112.583946,188.162922 112.583946,199.713797 L112.589996,199.890696 C113.372495,211.31755 116.632931,218.026922 123.361908,221.65729 C128.953079,224.673797 135.845564,225.454222 150.701068,225.487648 L167.931853,225.446321 C212.563634,225.280935 339.639355,224.637247 549.176883,223.515191 L551.024764,223.613386 C580.938905,224.998747 597.715956,215.677256 600.002254,195.491412 L600.776022,186.273572 C601.69316,175.230456 602.51213,164.895436 603.305695,154.057885 L603.670769,149.008719 L604.244787,140.730224 C604.686379,134.161869 605.053725,128.166644 605.337242,122.830406 C606.31998,112.393317 603.085785,105.175665 596.629017,99.4404832 C595.905905,98.7981834 595.167963,98.1930744 594.322976,97.5405523 L591.210339,95.2070417 C588.62545,93.2195011 575.183068,87.3096086 556.07452,79.5053003 L551.87705,77.7980755 L545.265531,75.1384321 C535.437495,71.2120989 527.039668,67.982207 523.649656,66.8400109 L523.082605,66.6524088 L523.213739,66.7059428 C506.806372,59.8403624 488.967949,61.8612032 482.240382,74.8634363 C474.342696,90.1803683 480.728727,102.956401 494.278049,107.959102 L497.076894,108.957857 C505.314613,111.929318 514.741003,115.711091 521.167771,118.55068 L521.959675,118.91018 C526.953342,121.244388 529.021159,123.617811 532.348134,131.223228 L532.606609,131.818667 C534.029719,135.121274 535.842171,139.867294 538.012258,145.892776 L538.826007,148.165036 L541.909441,156.963493 L545.272608,166.617214 C546.543164,170.56598 546.190089,175.327397 544.251716,177.992194 C542.096506,180.955089 537.922123,181.532775 531.1273,178.536396 L530.585412,178.292393 C523.855144,175.200297 500.084389,160.923912 463.136129,138.014556 L447.592111,128.350621 L376.397154,83.8212293 C374.865882,82.8686899 373.928923,82.2899658 373.730513,82.1758455 L372.291551,81.4549219 C369.580546,80.0761547 367.013591,78.6467505 362.413346,75.9953515 L356.969538,72.8555071 L355.553014,72.049151 L354.128824,71.2482279 C343.216649,65.1564255 335.539164,62.0837871 327.925862,61.5398782 C318.199859,60.8450338 309.799694,64.7723051 302.617471,74.0755718 L300.259407,77.1441878 C299.864152,77.6608778 299.467786,78.1801719 299.070327,78.7020361 L297.317514,81.0107556 C290.327098,90.2468629 283.294903,99.8671696 276.166216,109.865621 L272.461433,115.08508 L261.056898,131.335892 C260.693955,131.836221 260.028892,132.743168 259.985273,132.803216 L259.367886,133.666655 C259.080062,134.07699 258.818375,134.46324 258.559585,134.861382 C254.19376,141.578092 252.338881,149.819513 253.46816,163.464969 L253.602099,164.73666 C255.121419,180.337705 250.820459,184.930602 239.463455,185.048767 L211.325995,185.100134 L202.622323,185.092993 C200.04043,185.085171 197.87115,185.071539 196.099083,185.051292 L195.045196,185.027287 C187.0291,184.750815 180.371265,182.314 167.691706,175.343562 L153.071774,167.240222 L130.760573,154.813268 C125.508392,151.872095 121.736221,149.740177 119.742303,148.581532 L118.549119,147.831554 C107.86647,141.013226 104.186996,135.703662 107.049589,128.247756 C111.034082,117.869753 115.597812,115.216968 131.161806,115.216968 L135.066812,115.101758 C139.651074,114.97435 143.698142,114.89289 148.902631,114.822092 L167.133642,114.620352 C181.826831,114.428043 188.124505,114.06269 194.319236,112.901121 L195.034028,112.763525 C203.695363,111.05372 209.997533,107.713132 216.1576,101.483633 C217.687727,99.9362592 219.226088,98.1931662 220.813628,96.214018 C240.000614,72.2940604 232.813334,52.1645608 201.416281,50.1131654 L180.373276,50.0463056 Z M129.006235,55.048643 L147.222385,55.0695006 L196.618501,55.282123 L201.246488,55.2862771 C228.068082,57.0441822 233.466496,72.1635847 216.774011,92.973708 C215.293874,94.8189595 213.873097,96.4288195 212.475298,97.8423733 L211.88893,98.4282416 C202.746386,107.448285 195.492468,109.059923 165.591798,109.457895 L150.607769,109.620735 C146.748103,109.669219 143.555228,109.721025 140.444629,109.78836 L134.708197,109.931779 C133.544054,109.96454 132.344211,110.000289 131.081249,110.039601 C113.589911,110.038347 107.029564,113.851717 102.215047,126.3916 C99.9214757,132.365432 100.841159,137.780335 104.474966,142.633166 C107.193954,146.264284 111.043613,149.284427 117.078054,153.021645 L119.704048,154.528453 C122.183304,155.939098 125.663415,157.89662 130.015697,160.330671 L145.648755,169.041138 L164.347335,179.412846 C178.526709,187.265174 186.001152,190.006397 195.44691,190.219523 L198.375053,190.250916 C200.480799,190.266111 202.988486,190.274945 205.916467,190.278263 L239.005946,190.229744 C254.07045,190.229744 260.866839,182.828061 258.621581,162.960639 C257.591006,150.493766 259.188433,143.396231 262.901578,137.683654 C263.12686,137.337062 263.357866,136.996228 263.616081,136.628332 L265.616567,133.859069 L274.360211,121.381597 C275.695857,119.482351 276.971278,117.673465 278.010421,116.208306 C285.927085,105.046059 293.715512,94.3509805 301.44444,84.139107 L303.192529,81.8366097 L305.548057,78.7574278 C305.93868,78.2490971 306.328248,77.7433 306.716656,77.2401877 C317.875549,62.7858682 329.882867,63.6436941 351.597512,75.7660276 L353.002894,76.5563474 L355.80195,78.1567517 L361.024315,81.1707567 C365.731353,83.8733001 368.227933,85.2327739 371.295699,86.7433381 L447.251692,134.240859 L461.693164,143.21319 C498.230057,165.858032 521.484254,179.810054 528.423445,182.998136 C537.569767,187.200244 544.578479,186.346574 548.4396,181.038461 C551.460863,176.884952 551.939637,170.428416 550.171579,164.941044 L544.244282,147.947823 L542.885593,144.141002 L541.918027,141.474421 C540.241249,136.890218 538.795903,133.143725 537.586485,130.293279 L537.362485,129.769336 C533.215711,120.145931 530.240923,116.897954 523.260692,113.813825 L521.315058,112.964635 C514.24458,109.91359 504.569082,106.089953 496.475746,103.246568 C485.364066,99.3427651 480.411305,89.7108046 486.841484,77.239982 C492.024986,67.2219375 506.981897,65.5275312 521.214725,71.4831867 L521.437332,71.5645761 L522.29849,71.8497427 C526.471013,73.2803615 537.780539,77.676333 549.942654,82.6018685 L557.265836,85.5903934 C573.866959,92.4185117 586.162714,97.8583799 588.053712,99.3123821 L590.550865,101.176563 C591.579265,101.95163 592.40409,102.614261 593.189925,103.312273 C598.472496,108.004483 601.000785,113.646787 600.17362,122.450822 L599.862702,127.982146 C599.610688,132.27211 599.316601,136.879165 598.982343,141.795079 L598.652571,146.560557 L598.356281,150.717139 C597.281603,165.606454 596.171472,179.36592 594.849315,194.981552 C592.898513,212.196065 578.142134,220.061195 549.317248,218.341205 L230.034315,219.991543 C190.087712,220.183207 165.063167,220.288603 154.953358,220.309034 L150.707619,220.309034 L148.427724,220.295902 C124.353032,220.065297 119.046115,216.852026 117.794318,200.06568 L117.762294,199.62904 L117.754983,198.291903 C117.624909,186.491222 115.792702,181.882406 110.030007,177.858334 L109.686475,177.622249 C108.784926,177.012295 103.11343,173.586817 101.133402,172.254416 L98.8621289,170.827486 C86.5099311,163.011841 66.8564963,149.762721 58.3626432,143.659322 C52.6512848,139.555332 46.9149166,133.49936 43.1991607,126.057273 C37.932749,115.509461 37.579022,103.798434 43.7238789,90.8410558 L44.0928485,90.0774189 C50.7922369,75.7336946 61.4920208,66.458614 75.3702505,61.1024404 C85.6530698,57.1338819 93.7130064,55.9921462 107.697838,55.4190617 L112.265736,55.2433333 C115.662723,55.127895 121.249442,55.0657971 129.006235,55.048643 Z" id="Path-11" fill="url(#linearGradient-1)" fill-rule="nonzero"></path>
            <path d="M440.555909,130.068391 L443.296479,125.674373 L459.939091,136.031353 C498.746067,160.121468 523.622298,175.09332 530.585412,178.292393 L528.423445,182.998136 L527.621847,182.617598 C518.325942,178.082837 487.849478,159.565622 440.555909,130.068391 Z" id="Path" fill="#FF9219" fill-rule="nonzero"></path>
            <path d="M123.112429,49.8885104 L133.414543,49.863383 L147.791275,49.8943661 L178.693745,50.0385125 L178.669123,55.217075 L144.549695,55.0624124 C141.171446,55.0521404 138.086054,55.0456381 135.268451,55.0431988 L126.453142,55.0517415 C119.299353,55.0756784 114.608169,55.1450982 111.547897,55.2697247 L107.697838,55.4190617 C93.7130064,55.9921462 85.6530698,57.1338819 75.3702505,61.1024404 C61.7695854,66.3514906 51.2214996,75.3642589 44.4996057,89.2228686 L44.0928485,90.0774189 C37.5670391,103.338731 37.8294861,115.302641 43.1991607,126.057273 C46.9149166,133.49936 52.6512848,139.555332 58.3626432,143.659322 L60.1207253,144.912127 C69.963992,151.876495 89.7884903,165.183656 101.133402,172.254416 L101.630734,172.582964 C103.927479,174.078846 108.851708,177.057477 109.686475,177.622249 C115.83623,181.782937 117.693991,186.435219 117.760688,198.994405 L117.762294,199.62904 L117.80176,200.158575 C118.862658,213.904037 123.329201,218.389663 135.960038,219.750568 L136.53107,219.809436 L136.023136,224.963087 C120.279067,223.41138 113.75402,216.888959 112.589996,199.890696 L112.583946,199.713797 L112.571085,197.761043 C112.434404,188.001616 111.171784,184.968958 107.051473,182.094742 L106.550549,181.759094 C105.237823,180.921618 100.218289,177.88043 98.3184989,176.60024 L96.0422288,175.170464 C83.6601376,167.337226 63.9186713,154.028635 55.3407221,147.864808 C49.0022437,143.31019 42.706705,136.663893 38.5659452,128.370588 C32.5998864,116.421491 32.2024973,103.033737 39.0364134,88.6392289 L39.4235256,87.838501 C46.6976568,72.2628431 58.4367285,62.0868586 73.5056573,56.2711457 C84.7447048,51.9335399 93.374797,50.781239 108.587769,50.2011983 L112.798229,50.0436629 C115.304169,49.9665333 118.645221,49.9159571 123.112429,49.8885104 Z" id="Path" fill="#979797" fill-rule="nonzero"></path>
            <path d="M439.719679,218.918729 L439.747008,224.097278 L168.099416,225.445705 C161.175493,225.471429 156.217748,225.485745 153.226061,225.488655 L149.62157,225.48371 C143.308056,225.454581 139.261873,225.304841 135.57988,224.91797 L136.121025,219.7677 L137.00332,219.854749 C140.42887,220.17113 144.400401,220.291194 150.528599,220.30838 L163.270424,220.284235 C195.937671,220.174116 288.094118,219.718922 439.719679,218.918729 Z" id="Path-11" fill="#FFB819" fill-rule="nonzero"></path>
            <path d="M482.240382,74.8634363 C488.883855,62.0237311 506.362148,59.8925993 522.597816,66.4526532 L523.106579,66.6593416 L524.603357,67.1609831 C529.302428,68.7849133 538.608836,72.3867882 548.476862,76.3413313 L552.644531,78.0189924 L558.304974,80.3216013 C565.068205,83.0898818 571.461473,85.7700857 576.153783,87.8275162 L580.350841,89.6852014 L582.033163,90.4433165 C589.924202,94.0433059 594.397242,96.7636016 598.265407,100.85287 C603.730877,106.630744 606.194803,114.097646 605.349671,123.860892 L604.732577,133.772655 C603.489528,153.106257 602.153236,170.097294 600.002254,195.491412 C597.669297,216.089212 580.248092,225.374691 549.176876,223.515192 L529.698466,223.619388 L529.670794,218.440841 L549.317248,218.341205 C578.142134,220.061195 592.898513,212.196065 594.849315,194.981552 L595.856234,182.978137 C597.748563,160.163776 598.951814,143.908152 600.18538,123.481828 C600.910686,115.094143 598.929822,109.091155 594.503275,104.411588 C591.092771,100.806141 586.882102,98.3048038 579.039624,94.7722788 L574.004951,92.5398901 C568.898577,90.302264 561.753224,87.3174651 554.327234,84.2913677 L545.536981,80.7426272 C534.868267,76.4759203 525.060413,72.7041538 521.437332,71.5645761 L521.214725,71.4831867 C506.981897,65.5275312 492.024986,67.2219375 486.841484,77.239982 C480.411305,89.7108046 485.364066,99.3427651 496.475746,103.246568 C505.339875,106.360752 516.101883,110.650793 523.260692,113.813825 C530.082282,116.82786 533.078425,119.998381 537.081506,129.123001 L537.362485,129.769336 C538.700985,132.875588 540.348257,137.152531 542.291986,142.50016 L543.819692,146.755182 C545.886485,152.590806 549.884138,164.143234 550.171579,164.941044 C551.939637,170.428416 551.460863,176.884952 548.4396,181.038461 C544.578479,186.346574 537.569767,187.200244 528.423445,182.998136 L530.585412,178.292393 C537.70102,181.561527 542.03979,181.03306 544.251716,177.992194 C546.112554,175.433989 546.512382,170.943539 545.417284,167.09478 L545.223146,166.47834 L539.652339,150.508833 L538.104176,146.148168 L536.762356,142.456899 C535.245337,138.332357 533.931524,134.940976 532.83764,132.359432 L532.606609,131.818667 C528.95121,123.335595 526.880589,121.074818 521.167771,118.55068 L519.253547,117.715245 C512.956282,114.998103 504.530068,111.646321 497.076894,108.957857 L494.759223,108.132432 C480.880963,103.256662 474.249782,90.3605675 482.240382,74.8634363 Z" id="Path" fill-opacity="0.37" fill="#000000" fill-rule="nonzero"></path>
            <path d="M347.690972,67.8226747 C349.354292,68.6535381 351.086109,69.568453 352.971017,70.6061803 L354.433548,71.4180654 C355.382775,71.9494405 356.375763,72.5138627 357.578466,73.2045307 L365.263815,77.6291855 C368.925355,79.7146663 371.027621,80.8406426 373.730513,82.1758455 L387.436525,90.7100734 L442.795348,125.361797 L440.054542,129.755667 L371.295699,86.7433381 L369.643961,85.9168579 L368.093551,85.1126074 C365.653847,83.8237877 362.931847,82.2774205 358.136991,79.5057668 L353.952268,77.0956413 C352.657546,76.3566502 351.59347,75.759351 350.473442,75.142725 C348.645509,74.1363644 346.973558,73.2530771 345.376797,72.4554611 L347.690972,67.8226747 Z" id="Path" fill="#FFA019" fill-rule="nonzero"></path>
            <path d="M259.665285,133.246961 L261.475046,130.743533 L270.319164,118.127304 C271.932651,115.834485 273.496392,113.618906 274.753052,111.850858 C283.310978,99.8103404 291.704342,88.3403634 299.950253,77.5485586 C300.845109,76.3774192 301.734249,75.2196255 302.617471,74.0755718 C314.051067,59.265423 327.595006,58.2437795 345.839463,66.919527 L343.615526,71.5963017 C327.340272,63.8569648 316.412267,64.6812837 306.716656,77.2401877 L304.065153,80.6927133 C296.490865,90.6055347 288.785245,101.101992 280.938679,112.093005 L278.153669,116.007244 L265.278673,134.335359 L264.175155,135.846734 C263.668417,136.54434 263.277049,137.106001 262.901578,137.683654 C259.188433,143.396231 257.591006,150.493766 258.621581,162.960639 C260.841032,182.5997 254.225494,190.057943 239.521614,190.226802 L211.634354,190.278474 L203.63884,190.274931 C200.831105,190.268496 198.52831,190.255658 196.566595,190.235311 L196.039915,190.229575 C186.508253,190.120665 179.128661,187.537471 165.224894,179.896984 L131.588168,161.211179 C124.690886,157.357431 119.61429,154.495952 117.078054,153.021645 C111.043613,149.284427 107.193954,146.264284 104.474966,142.633166 C100.841159,137.780335 99.9214757,132.365432 102.215047,126.3916 C107.029564,113.851717 113.589911,110.038347 131.081249,110.039601 L137.430333,109.859035 C141.669638,109.752098 145.711393,109.681159 151.023882,109.615552 L165.591798,109.457895 C196.128653,109.051456 203.044811,107.379155 212.475298,97.8423733 C213.873097,96.4288195 215.293874,94.8189595 216.774011,92.973708 C233.466496,72.1635847 228.068082,57.0441822 201.247463,55.2862773 L185.172625,55.2461723 C183.20839,55.2380479 181.115192,55.2286731 178.87101,55.2180336 L178.895561,50.0394707 L201.416281,50.1131654 C232.813334,52.1645608 240.000614,72.2940604 220.813628,96.214018 C219.226088,98.1931662 217.687727,99.9362592 216.1576,101.483633 C209.997533,107.713132 203.695363,111.05372 195.034028,112.763525 L194.319236,112.901121 C193.60446,113.035148 192.888312,113.158575 192.158056,113.272358 L191.422624,113.382963 C185.489153,114.243354 178.378991,114.506027 163.553808,114.662326 L150.352007,114.803022 C142.948915,114.897318 137.984519,115.005477 131.161806,115.216968 C115.597812,115.216968 111.034082,117.869753 107.049589,128.247756 C104.082902,135.974785 108.142719,141.396538 119.742303,148.581532 L123.002365,150.447924 C130.83747,154.893846 147.177026,163.984498 166.856165,174.882516 L169.312018,176.227234 C181.4819,182.80793 187.950927,184.95819 196.099083,185.051292 L201.484247,185.089678 C202.867294,185.095101 204.387706,185.098542 206.071759,185.100176 L216.777019,185.092721 L235.83302,185.052856 L239.005409,185.051123 C251.012609,185.051123 255.37017,180.305473 253.46816,163.464969 C252.338881,149.819513 254.19376,141.578092 258.559585,134.861382 C258.904638,134.330527 259.254841,133.82081 259.665285,133.246961 Z" id="Path" fill-opacity="0.2" fill="#000000" fill-rule="nonzero"></path>
            <g id="Group-Copy-15" transform="translate(215.775876, 212.323462)">
                <circle id="Oval-Copy-2" fill-opacity="0.7" fill="#FFFFFF" cx="10.3572421" cy="10.3572421" r="10.3572421"></circle>
                <circle id="Oval-Copy-2" fill-opacity="0.2" fill="#D0021B" cx="10.3572421" cy="10.3572421" r="10.3572421"></circle>
                <circle id="Oval" fill="#FFFFFF" cx="10.3572421" cy="10.3572421" r="6.90482804"></circle>
                <path d="M10.3572421,3.02086227 C6.30547138,3.02086227 3.02086227,6.30547138 3.02086227,10.3572421 C3.02086227,14.4090127 6.30547138,17.6936219 10.3572421,17.6936219 C14.4090127,17.6936219 17.6936219,14.4090127 17.6936219,10.3572421 C17.6936219,6.30547138 14.4090127,3.02086227 10.3572421,3.02086227 Z M10.3572421,3.88396577 C13.9323338,3.88396577 16.8305184,6.78215029 16.8305184,10.3572421 C16.8305184,13.9323338 13.9323338,16.8305184 10.3572421,16.8305184 C6.78215029,16.8305184 3.88396577,13.9323338 3.88396577,10.3572421 C3.88396577,6.78215029 6.78215029,3.88396577 10.3572421,3.88396577 Z" id="Oval" fill="#D0021B" fill-rule="nonzero"></path>
                <circle id="Oval-Copy" fill="#D0021B" cx="10.3572421" cy="10.3572421" r="3.45241402"></circle>
            </g>
            <g id="Group-Copy-8" transform="translate(277.919329, 88.036558)">
                <circle id="Oval-Copy-2" fill-opacity="0.7" fill="#FFFFFF" cx="10.3572421" cy="10.3572421" r="10.3572421"></circle>
                <circle id="Oval-Copy-2" fill-opacity="0.2" fill="#FFB819" cx="10.3572421" cy="10.3572421" r="10.3572421"></circle>
                <circle id="Oval" stroke="#FFB819" stroke-width="0.5" fill="#FFFFFF" cx="10.3572421" cy="10.3572421" r="6.90482804"></circle>
                <circle id="Oval-Copy" fill="#FFB819" cx="10.3572421" cy="10.3572421" r="3.45241402"></circle>
            </g>
            <g id="Group-Copy-8" transform="translate(588.636591, 163.989666)">
                <circle id="Oval-Copy-2" fill-opacity="0.7" fill="#FFFFFF" cx="10.3572421" cy="10.3572421" r="10.3572421"></circle>
                <circle id="Oval-Copy-2" fill-opacity="0.2" fill="#FFB819" cx="10.3572421" cy="10.3572421" r="10.3572421"></circle>
                <circle id="Oval" fill="#FFFFFF" cx="10.3572421" cy="10.3572421" r="6.90482804"></circle>
                <path d="M10.3572421,3.02086227 C6.30547138,3.02086227 3.02086227,6.30547138 3.02086227,10.3572421 C3.02086227,14.4090127 6.30547138,17.6936219 10.3572421,17.6936219 C14.4090127,17.6936219 17.6936219,14.4090127 17.6936219,10.3572421 C17.6936219,6.30547138 14.4090127,3.02086227 10.3572421,3.02086227 Z M10.3572421,3.88396577 C13.9323338,3.88396577 16.8305184,6.78215029 16.8305184,10.3572421 C16.8305184,13.9323338 13.9323338,16.8305184 10.3572421,16.8305184 C6.78215029,16.8305184 3.88396577,13.9323338 3.88396577,10.3572421 C3.88396577,6.78215029 6.78215029,3.88396577 10.3572421,3.88396577 Z" id="Oval" fill="#FFB819" fill-rule="nonzero"></path>
                <circle id="Oval-Copy" fill="#FFB819" cx="10.3572421" cy="10.3572421" r="3.45241402"></circle>
            </g>
            <polygon id="Rectangle" fill="#FF9219" transform="translate(484.427076, 221.299620) rotate(-0.100000) translate(-484.427076, -221.299620) " points="439.207303 218.763748 529.759563 218.519319 529.799415 223.695488 439.054736 224.079921"></polygon>
            <g id="Finish-Line" transform="translate(433.277960, 217.502083)">
                <rect id="Rectangle-2" fill="#000000" x="0" y="0" width="2.58931052" height="2.58931052"></rect>
                <rect id="Rectangle-2-Copy-4" fill="#FFFFFF" x="0" y="2.58931052" width="2.58931052" height="2.58931052"></rect>
                <rect id="Rectangle-2-Copy-7" fill="#000000" x="0" y="5.17862103" width="2.58931052" height="2.58931052"></rect>
                <rect id="Rectangle-2-Copy" fill="#FFFFFF" x="2.58931052" y="0" width="2.58931052" height="2.58931052"></rect>
                <rect id="Rectangle-2-Copy-5" fill="#000000" x="2.58931052" y="2.58931052" width="2.58931052" height="2.58931052"></rect>
                <rect id="Rectangle-2-Copy-9" fill="#FFFFFF" x="2.58931052" y="5.17862103" width="2.58931052" height="2.58931052"></rect>
                <rect id="Rectangle-2-Copy-3" fill="#000000" x="5.17862103" y="0" width="2.58931052" height="2.58931052"></rect>
                <rect id="Rectangle-2-Copy-6" fill="#FFFFFF" x="5.17862103" y="2.58931052" width="2.58931052" height="2.58931052"></rect>
                <rect id="Rectangle-2-Copy-10" fill="#000000" x="5.17862103" y="5.17862103" width="2.58931052" height="2.58931052"></rect>
            </g>
        </g>
        <path d="M45.527196,198.044562 L47.990946,198.044562 C48.109071,199.03175 49.104696,199.664562 50.539071,199.664562 C51.8637585,199.664562 52.800321,199.023312 52.800321,198.103625 C52.800321,197.327375 52.192821,196.880187 50.6993835,196.559562 L49.1131335,196.222062 C46.894071,195.758 45.8056335,194.602062 45.8056335,192.745812 C45.8056335,190.450812 47.653446,188.9405 50.4631335,188.9405 C53.1462585,188.9405 55.044696,190.442375 55.1206335,192.610812 L52.7243835,192.610812 C52.6062585,191.648937 51.7118835,191.007687 50.4800085,191.007687 C49.205946,191.007687 48.362196,191.598312 48.362196,192.526437 C48.362196,193.277375 48.9443835,193.707687 50.370321,194.011437 L51.838446,194.323625 C54.285321,194.838312 55.3400085,195.893 55.3400085,197.783 C55.3400085,200.238312 53.458446,201.740187 50.404071,201.740187 C47.501571,201.740187 45.6200085,200.31425 45.527196,198.044562 Z M60.444696,201.428 L60.444696,191.733312 L60.292821,191.733312 L57.305946,193.792062 L57.305946,191.421125 L60.4531335,189.252687 L62.992821,189.252687 L62.992821,201.428 L60.444696,201.428 Z M41.1278835,212.730875 L40.6148835,212.730875 C40.0343835,212.00525 39.7036335,210.928625 39.7036335,209.771 C39.7036335,208.61675 39.9837585,207.77975 40.6486335,206.92925 L41.1380085,206.92925 C40.6486335,207.503 40.3010085,208.680875 40.3010085,209.771 C40.3010085,210.824 40.5541335,211.725125 41.1278835,212.730875 Z M41.9446335,210.523625 L42.5588835,210.523625 C42.6331335,211.03325 43.1191335,211.35725 43.8110085,211.35725 C44.4657585,211.35725 44.9483835,211.002875 44.9483835,210.52025 C44.9483835,210.105125 44.6446335,209.841875 43.9730085,209.673125 L43.3486335,209.511125 C42.4677585,209.288375 42.0863835,208.890125 42.0863835,208.19825 C42.0863835,207.371375 42.7782585,206.811125 43.8076335,206.811125 C44.7492585,206.811125 45.4512585,207.371375 45.5018835,208.15775 L44.8910085,208.15775 C44.8066335,207.65825 44.3948835,207.36125 43.7873835,207.36125 C43.1393835,207.36125 42.7107585,207.68525 42.7107585,208.178 C42.7107585,208.559375 42.9773835,208.77875 43.6490085,208.950875 L44.1586335,209.085875 C45.1677585,209.339 45.5727585,209.7305 45.5727585,210.446 C45.5727585,211.340375 44.8673835,211.91075 43.7536335,211.91075 C42.7208835,211.91075 42.0087585,211.364 41.9446335,210.523625 Z M47.9588835,208.606625 C47.3783835,208.606625 46.9733835,209.031875 46.9295085,209.6765 L48.9342585,209.6765 C48.9207585,209.031875 48.5360085,208.606625 47.9588835,208.606625 Z M48.9173835,210.854375 L49.4978835,210.854375 C49.3223835,211.47875 48.7621335,211.860125 47.9656335,211.860125 C46.9565085,211.860125 46.3253835,211.131125 46.3253835,209.98025 C46.3253835,208.836125 46.9666335,208.093625 47.9656335,208.093625 C48.9477585,208.093625 49.5451335,208.79225 49.5451335,209.922875 L49.5451335,210.145625 L46.9295085,210.145625 L46.9295085,210.172625 C46.9598835,210.8915 47.3615085,211.347125 47.9791335,211.347125 C48.4482585,211.347125 48.7655085,211.175 48.9173835,210.854375 Z M53.4668835,209.2715 L52.8796335,209.2715 C52.7851335,208.910375 52.4645085,208.61675 51.9413835,208.61675 C51.2866335,208.61675 50.8748835,209.139875 50.8748835,209.963375 C50.8748835,210.80375 51.2933835,211.337 51.9413835,211.337 C52.4307585,211.337 52.7716335,211.110875 52.8796335,210.699125 L53.4668835,210.699125 C53.3622585,211.367375 52.8188835,211.860125 51.9447585,211.860125 C50.9255085,211.860125 50.2741335,211.121 50.2741335,209.963375 C50.2741335,208.829375 50.9221335,208.093625 51.9413835,208.093625 C52.8256335,208.093625 53.3656335,208.6235 53.4668835,209.2715 Z M54.5671335,207.216125 L55.1476335,207.216125 L55.1476335,208.15775 L55.9576335,208.15775 L55.9576335,208.64375 L55.1476335,208.64375 L55.1476335,210.7025 C55.1476335,211.131125 55.3096335,211.313375 55.6876335,211.313375 C55.7922585,211.313375 55.8496335,211.31 55.9576335,211.299875 L55.9576335,211.78925 C55.8428835,211.8095 55.7315085,211.823 55.6167585,211.823 C54.8675085,211.823 54.5671335,211.54625 54.5671335,210.851 L54.5671335,208.64375 L53.9798835,208.64375 L53.9798835,208.15775 L54.5671335,208.15775 L54.5671335,207.216125 Z M58.3302585,211.337 C59.0187585,211.337 59.4068835,210.8375 59.4068835,209.976875 C59.4068835,209.112875 59.0187585,208.61675 58.3302585,208.61675 C57.6417585,208.61675 57.2536335,209.112875 57.2536335,209.976875 C57.2536335,210.8375 57.6417585,211.337 58.3302585,211.337 Z M58.3302585,211.860125 C57.2941335,211.860125 56.6528835,211.144625 56.6528835,209.976875 C56.6528835,208.80575 57.2941335,208.093625 58.3302585,208.093625 C59.3663835,208.093625 60.0076335,208.80575 60.0076335,209.976875 C60.0076335,211.144625 59.3663835,211.860125 58.3302585,211.860125 Z M60.9188835,211.796 L60.9188835,208.15775 L61.4723835,208.15775 L61.4723835,208.69775 L61.5263835,208.69775 C61.6343835,208.343375 62.0528835,208.093625 62.5355085,208.093625 C62.6300085,208.093625 62.7515085,208.100375 62.8257585,208.1105 L62.8257585,208.691 C62.7785085,208.6775 62.5692585,208.65725 62.4545085,208.65725 C61.9010085,208.65725 61.4993835,209.0285 61.4993835,209.5415 L61.4993835,211.796 L60.9188835,211.796 Z M66.6631335,211.796 L66.6631335,207.600875 L66.6091335,207.600875 L65.3705085,208.498625 L65.3705085,207.857375 L66.6665085,206.925875 L67.2706335,206.925875 L67.2706335,211.796 L66.6631335,211.796 Z M68.6037585,212.730875 C69.1775085,211.725125 69.4306335,210.824 69.4306335,209.771 C69.4306335,208.674125 69.0863835,207.499625 68.5970085,206.92925 L69.0897585,206.92925 C69.7546335,207.77975 70.0313835,208.61675 70.0313835,209.771 C70.0313835,210.921875 69.7006335,211.9985 69.1201335,212.730875 L68.6037585,212.730875 Z" id="S1-(Sector-1)-Copy" fill="#C6C6C6"></path>
        <path d="M203.37679,137.564562 L205.84054,137.564562 C205.958665,138.55175 206.95429,139.184562 208.388665,139.184562 C209.713352,139.184562 210.649915,138.543312 210.649915,137.623625 C210.649915,136.847375 210.042415,136.400187 208.548977,136.079562 L206.962727,135.742062 C204.743665,135.278 203.655227,134.122062 203.655227,132.265812 C203.655227,129.970812 205.50304,128.4605 208.312727,128.4605 C210.995852,128.4605 212.89429,129.962375 212.970227,132.130812 L210.573977,132.130812 C210.455852,131.168937 209.561477,130.527687 208.329602,130.527687 C207.05554,130.527687 206.21179,131.118312 206.21179,132.046437 C206.21179,132.797375 206.793977,133.227687 208.219915,133.531437 L209.68804,133.843625 C212.134915,134.358312 213.189602,135.413 213.189602,137.303 C213.189602,139.758312 211.30804,141.260187 208.253665,141.260187 C205.351165,141.260187 203.469602,139.83425 203.37679,137.564562 Z M215.206165,132.417687 C215.206165,130.063625 217.01179,128.4605 219.64429,128.4605 C222.183977,128.4605 223.955852,129.920187 223.955852,132.012687 C223.955852,133.337375 223.238665,134.476437 221.12929,136.45925 L218.80054,138.678312 L218.80054,138.830187 L224.13304,138.830187 L224.13304,140.948 L215.349602,140.948 L215.349602,139.167687 L219.323665,135.278 C221.036477,133.607375 221.46679,132.974562 221.46679,132.181437 C221.46679,131.202687 220.673665,130.510812 219.559915,130.510812 C218.378665,130.510812 217.568665,131.287062 217.568665,132.40925 L217.568665,132.459875 L215.206165,132.459875 L215.206165,132.417687 Z M199.628009,152.250875 L199.115009,152.250875 C198.534509,151.52525 198.203759,150.448625 198.203759,149.291 C198.203759,148.13675 198.483884,147.29975 199.148759,146.44925 L199.638134,146.44925 C199.148759,147.023 198.801134,148.200875 198.801134,149.291 C198.801134,150.344 199.054259,151.245125 199.628009,152.250875 Z M200.444759,150.043625 L201.059009,150.043625 C201.133259,150.55325 201.619259,150.87725 202.311134,150.87725 C202.965884,150.87725 203.448509,150.522875 203.448509,150.04025 C203.448509,149.625125 203.144759,149.361875 202.473134,149.193125 L201.848759,149.031125 C200.967884,148.808375 200.586509,148.410125 200.586509,147.71825 C200.586509,146.891375 201.278384,146.331125 202.307759,146.331125 C203.249384,146.331125 203.951384,146.891375 204.002009,147.67775 L203.391134,147.67775 C203.306759,147.17825 202.895009,146.88125 202.287509,146.88125 C201.639509,146.88125 201.210884,147.20525 201.210884,147.698 C201.210884,148.079375 201.477509,148.29875 202.149134,148.470875 L202.658759,148.605875 C203.667884,148.859 204.072884,149.2505 204.072884,149.966 C204.072884,150.860375 203.367509,151.43075 202.253759,151.43075 C201.221009,151.43075 200.508884,150.884 200.444759,150.043625 Z M206.459009,148.126625 C205.878509,148.126625 205.473509,148.551875 205.429634,149.1965 L207.434384,149.1965 C207.420884,148.551875 207.036134,148.126625 206.459009,148.126625 Z M207.417509,150.374375 L207.998009,150.374375 C207.822509,150.99875 207.262259,151.380125 206.465759,151.380125 C205.456634,151.380125 204.825509,150.651125 204.825509,149.50025 C204.825509,148.356125 205.466759,147.613625 206.465759,147.613625 C207.447884,147.613625 208.045259,148.31225 208.045259,149.442875 L208.045259,149.665625 L205.429634,149.665625 L205.429634,149.692625 C205.460009,150.4115 205.861634,150.867125 206.479259,150.867125 C206.948384,150.867125 207.265634,150.695 207.417509,150.374375 Z M211.967009,148.7915 L211.379759,148.7915 C211.285259,148.430375 210.964634,148.13675 210.441509,148.13675 C209.786759,148.13675 209.375009,148.659875 209.375009,149.483375 C209.375009,150.32375 209.793509,150.857 210.441509,150.857 C210.930884,150.857 211.271759,150.630875 211.379759,150.219125 L211.967009,150.219125 C211.862384,150.887375 211.319009,151.380125 210.444884,151.380125 C209.425634,151.380125 208.774259,150.641 208.774259,149.483375 C208.774259,148.349375 209.422259,147.613625 210.441509,147.613625 C211.325759,147.613625 211.865759,148.1435 211.967009,148.7915 Z M213.067259,146.736125 L213.647759,146.736125 L213.647759,147.67775 L214.457759,147.67775 L214.457759,148.16375 L213.647759,148.16375 L213.647759,150.2225 C213.647759,150.651125 213.809759,150.833375 214.187759,150.833375 C214.292384,150.833375 214.349759,150.83 214.457759,150.819875 L214.457759,151.30925 C214.343009,151.3295 214.231634,151.343 214.116884,151.343 C213.367634,151.343 213.067259,151.06625 213.067259,150.371 L213.067259,148.16375 L212.480009,148.16375 L212.480009,147.67775 L213.067259,147.67775 L213.067259,146.736125 Z M216.830384,150.857 C217.518884,150.857 217.907009,150.3575 217.907009,149.496875 C217.907009,148.632875 217.518884,148.13675 216.830384,148.13675 C216.141884,148.13675 215.753759,148.632875 215.753759,149.496875 C215.753759,150.3575 216.141884,150.857 216.830384,150.857 Z M216.830384,151.380125 C215.794259,151.380125 215.153009,150.664625 215.153009,149.496875 C215.153009,148.32575 215.794259,147.613625 216.830384,147.613625 C217.866509,147.613625 218.507759,148.32575 218.507759,149.496875 C218.507759,150.664625 217.866509,151.380125 216.830384,151.380125 Z M219.419009,151.316 L219.419009,147.67775 L219.972509,147.67775 L219.972509,148.21775 L220.026509,148.21775 C220.134509,147.863375 220.553009,147.613625 221.035634,147.613625 C221.130134,147.613625 221.251634,147.620375 221.325884,147.6305 L221.325884,148.211 C221.278634,148.1975 221.069384,148.17725 220.954634,148.17725 C220.401134,148.17725 219.999509,148.5485 219.999509,149.0615 L219.999509,151.316 L219.419009,151.316 Z M223.968509,147.816125 C223.968509,146.952125 224.623259,146.331125 225.527759,146.331125 C226.401884,146.331125 227.070134,146.925125 227.070134,147.698 C227.070134,148.20425 226.840634,148.599125 226.040759,149.456375 L224.869634,150.71525 L224.869634,150.76925 L227.151134,150.76925 L227.151134,151.316 L223.998884,151.316 L223.998884,150.8975 L225.683009,149.058125 C226.310759,148.376375 226.462634,148.113125 226.462634,147.721625 C226.462634,147.235625 226.047509,146.861 225.510884,146.861 C224.940509,146.861 224.555759,147.242375 224.555759,147.816125 L224.555759,147.8195 L223.968509,147.8195 L223.968509,147.816125 Z M228.055634,152.250875 C228.629384,151.245125 228.882509,150.344 228.882509,149.291 C228.882509,148.194125 228.538259,147.019625 228.048884,146.44925 L228.541634,146.44925 C229.206509,147.29975 229.483259,148.13675 229.483259,149.291 C229.483259,150.441875 229.152509,151.5185 228.572009,152.250875 L228.055634,152.250875 Z" id="S2-(Sector-2)-Copy" fill="#999999"></path>
        <path d="M606.141415,73.8205625 L608.605165,73.8205625 C608.72329,74.80775 609.718915,75.4405625 611.15329,75.4405625 C612.477977,75.4405625 613.41454,74.7993125 613.41454,73.879625 C613.41454,73.103375 612.80704,72.6561875 611.313602,72.3355625 L609.727352,71.9980625 C607.50829,71.534 606.419852,70.3780625 606.419852,68.5218125 C606.419852,66.2268125 608.267665,64.7165 611.077352,64.7165 C613.760477,64.7165 615.658915,66.218375 615.734852,68.3868125 L613.338602,68.3868125 C613.220477,67.4249375 612.326102,66.7836875 611.094227,66.7836875 C609.820165,66.7836875 608.976415,67.3743125 608.976415,68.3024375 C608.976415,69.053375 609.558602,69.4836875 610.98454,69.7874375 L612.452665,70.099625 C614.89954,70.6143125 615.954227,71.669 615.954227,73.559 C615.954227,76.0143125 614.072665,77.5161875 611.01829,77.5161875 C608.11579,77.5161875 606.234227,76.09025 606.141415,73.8205625 Z M621.084227,71.922125 L621.084227,70.0236875 L622.569227,70.0236875 C623.725165,70.0236875 624.509852,69.3486875 624.509852,68.3530625 C624.509852,67.3743125 623.750477,66.7499375 622.56079,66.7499375 C621.37954,66.7499375 620.594852,67.4165 620.527352,68.4711875 L618.17329,68.4711875 C618.257665,66.16775 619.970477,64.7165 622.62829,64.7165 C625.12579,64.7165 626.922977,66.083375 626.922977,67.9986875 C626.922977,69.40775 626.03704,70.504625 624.678602,70.7830625 L624.678602,70.9349375 C626.349227,71.1205625 627.395477,72.2343125 627.395477,73.8374375 C627.395477,75.972125 625.387352,77.5161875 622.611415,77.5161875 C619.89454,77.5161875 618.055165,76.0143125 617.945477,73.7193125 L620.383915,73.7193125 C620.459852,74.7486875 621.328915,75.398375 622.636727,75.398375 C623.91079,75.398375 624.796727,74.6811875 624.796727,73.643375 C624.796727,72.58025 623.961415,71.922125 622.59454,71.922125 L621.084227,71.922125 Z M602.532696,88.506875 L602.019696,88.506875 C601.439196,87.78125 601.108446,86.704625 601.108446,85.547 C601.108446,84.39275 601.388571,83.55575 602.053446,82.70525 L602.542821,82.70525 C602.053446,83.279 601.705821,84.456875 601.705821,85.547 C601.705821,86.6 601.958946,87.501125 602.532696,88.506875 Z M603.349446,86.299625 L603.963696,86.299625 C604.037946,86.80925 604.523946,87.13325 605.215821,87.13325 C605.870571,87.13325 606.353196,86.778875 606.353196,86.29625 C606.353196,85.881125 606.049446,85.617875 605.377821,85.449125 L604.753446,85.287125 C603.872571,85.064375 603.491196,84.666125 603.491196,83.97425 C603.491196,83.147375 604.183071,82.587125 605.212446,82.587125 C606.154071,82.587125 606.856071,83.147375 606.906696,83.93375 L606.295821,83.93375 C606.211446,83.43425 605.799696,83.13725 605.192196,83.13725 C604.544196,83.13725 604.115571,83.46125 604.115571,83.954 C604.115571,84.335375 604.382196,84.55475 605.053821,84.726875 L605.563446,84.861875 C606.572571,85.115 606.977571,85.5065 606.977571,86.222 C606.977571,87.116375 606.272196,87.68675 605.158446,87.68675 C604.125696,87.68675 603.413571,87.14 603.349446,86.299625 Z M609.363696,84.382625 C608.783196,84.382625 608.378196,84.807875 608.334321,85.4525 L610.339071,85.4525 C610.325571,84.807875 609.940821,84.382625 609.363696,84.382625 Z M610.322196,86.630375 L610.902696,86.630375 C610.727196,87.25475 610.166946,87.636125 609.370446,87.636125 C608.361321,87.636125 607.730196,86.907125 607.730196,85.75625 C607.730196,84.612125 608.371446,83.869625 609.370446,83.869625 C610.352571,83.869625 610.949946,84.56825 610.949946,85.698875 L610.949946,85.921625 L608.334321,85.921625 L608.334321,85.948625 C608.364696,86.6675 608.766321,87.123125 609.383946,87.123125 C609.853071,87.123125 610.170321,86.951 610.322196,86.630375 Z M614.871696,85.0475 L614.284446,85.0475 C614.189946,84.686375 613.869321,84.39275 613.346196,84.39275 C612.691446,84.39275 612.279696,84.915875 612.279696,85.739375 C612.279696,86.57975 612.698196,87.113 613.346196,87.113 C613.835571,87.113 614.176446,86.886875 614.284446,86.475125 L614.871696,86.475125 C614.767071,87.143375 614.223696,87.636125 613.349571,87.636125 C612.330321,87.636125 611.678946,86.897 611.678946,85.739375 C611.678946,84.605375 612.326946,83.869625 613.346196,83.869625 C614.230446,83.869625 614.770446,84.3995 614.871696,85.0475 Z M615.971946,82.992125 L616.552446,82.992125 L616.552446,83.93375 L617.362446,83.93375 L617.362446,84.41975 L616.552446,84.41975 L616.552446,86.4785 C616.552446,86.907125 616.714446,87.089375 617.092446,87.089375 C617.197071,87.089375 617.254446,87.086 617.362446,87.075875 L617.362446,87.56525 C617.247696,87.5855 617.136321,87.599 617.021571,87.599 C616.272321,87.599 615.971946,87.32225 615.971946,86.627 L615.971946,84.41975 L615.384696,84.41975 L615.384696,83.93375 L615.971946,83.93375 L615.971946,82.992125 Z M619.735071,87.113 C620.423571,87.113 620.811696,86.6135 620.811696,85.752875 C620.811696,84.888875 620.423571,84.39275 619.735071,84.39275 C619.046571,84.39275 618.658446,84.888875 618.658446,85.752875 C618.658446,86.6135 619.046571,87.113 619.735071,87.113 Z M619.735071,87.636125 C618.698946,87.636125 618.057696,86.920625 618.057696,85.752875 C618.057696,84.58175 618.698946,83.869625 619.735071,83.869625 C620.771196,83.869625 621.412446,84.58175 621.412446,85.752875 C621.412446,86.920625 620.771196,87.636125 619.735071,87.636125 Z M622.323696,87.572 L622.323696,83.93375 L622.877196,83.93375 L622.877196,84.47375 L622.931196,84.47375 C623.039196,84.119375 623.457696,83.869625 623.940321,83.869625 C624.034821,83.869625 624.156321,83.876375 624.230571,83.8865 L624.230571,84.467 C624.183321,84.4535 623.974071,84.43325 623.859321,84.43325 C623.305821,84.43325 622.904196,84.8045 622.904196,85.3175 L622.904196,87.572 L622.323696,87.572 Z M627.899196,85.327625 L627.899196,84.807875 L628.489821,84.807875 C629.043321,84.807875 629.434821,84.450125 629.434821,83.943875 C629.434821,83.44775 629.060196,83.117 628.499946,83.117 C627.939696,83.117 627.571821,83.4275 627.521196,83.950625 L626.930571,83.950625 C626.991321,83.106875 627.595446,82.587125 628.523571,82.587125 C629.374071,82.587125 630.052446,83.154125 630.052446,83.862875 C630.052446,84.443375 629.731821,84.868625 629.198571,84.996875 L629.198571,85.050875 C629.860071,85.13525 630.261696,85.59425 630.261696,86.259125 C630.261696,87.062375 629.509071,87.68675 628.547196,87.68675 C627.558321,87.68675 626.876571,87.136625 626.832696,86.303 L627.419946,86.303 C627.473946,86.82275 627.912696,87.156875 628.540446,87.156875 C629.181696,87.156875 629.637321,86.7755 629.637321,86.24225 C629.637321,85.678625 629.208696,85.327625 628.516821,85.327625 L627.899196,85.327625 Z M631.118946,88.506875 C631.692696,87.501125 631.945821,86.6 631.945821,85.547 C631.945821,84.450125 631.601571,83.275625 631.112196,82.70525 L631.604946,82.70525 C632.269821,83.55575 632.546571,84.39275 632.546571,85.547 C632.546571,86.697875 632.215821,87.7745 631.635321,88.506875 L631.118946,88.506875 Z" id="S3-(Sector-3)-Copy" fill="#666666"></path>
    </g>
</svg>