<?xml version="1.0" encoding="utf-8"?>
<!-- Generator: Adobe Illustrator 25.0.0, SVG Export Plug-In . SVG Version: 6.00 Build 0)  -->
<svg version="1.1" id="Layer_1" xmlns="http://www.w3.org/2000/svg" xmlns:xlink="http://www.w3.org/1999/xlink" x="0px" y="0px"
	 viewBox="0 0 1296 546" style="enable-background:new 0 0 1296 546;" xml:space="preserve">
<style type="text/css">
	.st0{fill:#F2F2F2;}
	.st1{fill:#EBEBEB;}
	.st2{fill:url(#SVGID_1_);}
	.st3{opacity:0.37;enable-background:new    ;}
	.st4{opacity:0.2;enable-background:new    ;}
	.st5{fill:#FFFFFF;fill-opacity:0.7;}
	.st6{fill:#D0021B;fill-opacity:0.2;}
	.st7{fill:#FFFFFF;}
	.st8{fill:#D0021B;}
	.st9{fill:#FFB819;fill-opacity:0.2;}
	.st10{fill:#FFB819;}
	.st11{fill:#FF9219;}
</style>
<g id="Track">
	<path class="st0" d="M712.4,106.8h-1.1c-9.2-0.1-21.8-2.6-35.2-5.2c-10.3-2-21-4.1-31.5-5.4c-14.4-1.8-44.3,8.1-44.6,8.2
		c-1.4,0.4-2.8-0.4-3.2-1.8c-0.4-1.3,0.3-2.7,1.6-3.2c1.3-0.4,31.4-10.4,46.9-8.4c10.6,1.3,21.4,3.4,31.8,5.5
		c13.2,2.6,25.6,5,34.3,5.1c16,0.2,122.4-4.7,131.2-5.8c9.5-1.2,19.5-6.2,30-11.6c11.2-5.7,22.7-11.6,33.9-12.6
		c8.5-0.8,37,2,38.2,2.1c1.4,0.2,2.4,1.5,2.2,2.9c-0.2,1.3-1.4,2.3-2.7,2.2c-0.3,0-29.2-2.8-37.2-2.1c-10.2,0.9-21.3,6.6-32,12
		c-10.5,5.4-21.4,10.9-31.8,12.2C834.5,102.1,731.8,106.8,712.4,106.8z"/>
	<path class="st1" d="M998.3,113l-18.7-35.5c-3-5.7-9.7-8.2-15.7-5.8c-76,30.6-113.2,45-116.1,45.7c-8.9,1.6-126.2,5.4-136.9,5.4
		c-6.7,0-29-4.1-48.6-7.8c-25.5-4.7-51.9-9.6-63.2-9.6c-6.3,0-23.9,2-42.6,4.2c-12.3,1.4-23.9,2.8-31.4,3.4
		c-14,1.2-72.4,11.5-80.6,20.8c-3.2,3.6-5.4,10.2-7.6,17.2c-1,3.3-2.1,6.5-3.5,9.6c-2.3,2.3-18,10.5-24,13.6
		c-10,5.2-15.9,8.3-18.3,10.4c-5.7,5-8.4,12.9-9,14.7c-9.2,24.1-54.3,143.6-54.3,157c0,11.1,3.5,19,6.1,24.8
		c0.8,1.6,1.4,3.2,1.9,4.8c-0.2,1.3-0.7,2.5-1.4,3.5c-1.1,1.7-2.4,3.2-4,4.5l-59.1,50.8c-5,4.2-8.9,9.4-11.7,15.3
		c-1.7,3.3-2.6,6.9-2.7,10.6c0,13,7.7,20.1,21.8,20.1c4.8,0,24.9-3.4,59.9-9.5c31.9-5.5,75.5-13.1,83.8-13.1
		c12.6,0,42.5,4.5,62.3,7.5c5.7,0.9,10.8,1.6,14.6,2.2c5.4,0.8,10.8-0.3,15.5-3c4.5-2.6,8-6.5,10-11.3c8.4-19.4,18.4-44.9,18.2-55.8
		c-0.4-9.8-8.1-43.8-15.9-77.8l-0.2-0.8c-1-4.4-1.9-8.2-2.5-11c-0.3-1.3,0-2.6,0.8-3.6l21.8-29.1l11.3,4c3.4,1.2,6.9,1.8,10.5,1.6
		c59.1-2.3,159.8-6.1,169-6.3c1.1,1.1,2.2,2.2,3.2,3.4c2.8,3.4,6.7,8.1,12.5,8.1c8.3,0,94.5-46.7,102.9-54.3
		c4.8-4.3,20.6-20.8,37.4-38.3c15.1-15.7,35.7-37.2,38.6-39.4l0.3-0.2c4.2-3.8,36.1-21.3,51.5-29.7l0.7-0.4c3.3-1.8,6.3-3.5,8.6-4.7
		C999.3,126.4,1001.5,119,998.3,113z M883.8,194.6c-15.8,16.5-32.2,33.6-36.7,37.6c-8.1,7.3-79.8,45.1-93.1,50.3
		c-0.6-0.6-1.3-1.5-2.3-2.7c-3-3.6-6.7-8.2-12.7-8.5c-3.8-0.2-169.1,6.2-170.8,6.3c-1.8,0.1-3.6-0.2-5.3-0.8l-12.3-4.4
		c-5.1-1.8-10.8-0.1-14.1,4.2l-22.5,30c-3.2,4.3-4.4,9.8-3.2,15c0.7,2.9,1.5,6.7,2.5,11.1l0.2,0.8c4.9,21.4,15.2,65.8,15.6,75
		c0.1,4.9-4.4,20.5-17.1,49.9c-1.8,4.2-6.3,6.7-10.9,6.1c-3.7-0.5-8.5-1.2-14-2.1l-0.5-0.1c-21.4-3.2-50.7-7.7-64.4-7.7
		c-9.5,0-46.7,6.5-86.2,13.3c-23.9,4.1-53.6,9.3-57.5,9.3c-7.9,0-7.9-2.4-7.9-6.3c0.2-1.7,0.7-3.3,1.5-4.8c1.9-4.1,4.7-7.7,8.1-10.6
		l59.1-50.8c2.7-2.2,4.9-4.9,6.8-7.9c2.1-3.2,3.3-6.9,3.4-10.7c0-3.5-1.5-6.8-3.1-10.5c-2.3-5.1-4.9-10.9-4.9-19.1
		c0-7.3,27.2-83.2,53.5-152.5l0.1-0.4c0.5-1.6,2.2-6.1,4.8-8.4c1.4-1.2,9.9-5.7,15.7-8.6c18.3-9.6,26.5-14.2,29.2-18.4
		c1.9-3,3.4-7.7,5.1-12.8c1.2-3.7,3.5-10.6,4.8-12.3c4.6-3.7,49.9-14.4,71.5-16.3c7.7-0.7,19.5-2,32-3.5c16.6-1.9,35.4-4.1,40.9-4.1
		c10,0,36.9,5,60.7,9.4c23.2,4.3,43.2,8,51.1,8c6.5,0,128-3.5,139.4-5.6c3.9-0.7,43.5-16.2,117.6-46l17.5,33.2l-8,4.4
		c-30.6,16.8-49.2,27.3-53.8,31.3C920.2,156.8,906.3,171.2,883.8,194.6z"/>
	<path class="st0" d="M278.7,480.6c-12.1,0-18.3-5.6-18.3-16.7c0.2-3.2,1-6.3,2.4-9.2c2.5-5.4,6.2-10.3,10.8-14.1l59.1-50.8
		c1.8-1.5,3.4-3.4,4.7-5.4c1.1-1.6,1.7-3.4,1.9-5.3c0-1.3-1.1-3.7-2.2-6.2c-2.5-5.5-5.8-13-5.8-23.4c0-13.1,48.4-140.7,54.1-155.9
		c0.4-1.3,2.8-8.7,7.9-13.2c2.2-1.9,8.1-5,17.7-10c8.7-4.6,23.4-12.2,25.2-14.7c1.2-1.9,2.6-6.3,4-10.5c2.2-6.6,4.2-12.9,7-16
		c6.7-7.7,62.1-18.3,78.3-19.7c7.6-0.7,19.3-2,31.7-3.4c18.5-2.1,36-4.2,42.1-4.2c10.9,0,37.2,4.9,62.5,9.6
		c20.8,3.8,42.3,7.8,49.2,7.8c11.1,0,128.1-3.7,137.5-5.4c3.6-0.8,49.4-18.8,116.8-45.9c4.3-1.7,9.2,0.1,11.3,4.2l18.7,35.5
		c2.3,4.3,0.7,9.7-3.6,12.1c-2.5,1.4-5.6,3.1-9.2,5.1c-16.7,9.2-47.6,26.2-52.2,30.2l-0.2,0.2c-3,2.3-22.1,22.1-38.9,39.7
		S858.8,228.7,854,233c-9.4,8.5-94,53.4-100.5,53.4c-4.2,0-7.2-3.6-9.9-6.9c-1.6-2-3.8-4.6-5.2-4.7h-0.1c-5.6,0-108.9,3.9-169.7,6.3
		c-3.1,0.1-6.3-0.4-9.2-1.4l-12.3-4.4c-0.8-0.3-1.8,0-2.3,0.7l-22.5,30c-1.4,1.8-1.9,4.2-1.4,6.4c0.7,3,1.6,7.1,2.7,11.8
		c5.8,25,15.4,66.8,15.9,77.1c0.2,10.8-11.2,38.6-18,54.3c-3.7,8.5-12.6,13.5-21.8,12.2c-3.8-0.5-8.9-1.3-14.6-2.2
		c-19.9-3-50-7.6-62.8-7.6c-8.6,0-50.6,7.3-84.4,13.1S283.3,480.6,278.7,480.6z M278.2,445.9c-3.8,3.2-6.9,7.2-9,11.8
		c-1,1.9-1.6,4.1-1.8,6.3c0,5.1,0.9,9.7,11.4,9.7c4.2,0,31.6-4.7,58.1-9.3c37.6-6.5,76.4-13.2,85.6-13.2c13.4,0,42.5,4.4,63.8,7.7
		c5.7,0.9,10.7,1.6,14.5,2.2c3,0.4,6.2-0.2,8.8-1.7c2.5-1.5,4.5-3.7,5.7-6.4c11-25.4,17.5-44.6,17.4-51.3
		c-0.4-9.6-10.3-52.6-15.7-75.8c-1.1-4.7-2-8.8-2.7-11.8c-1-4.2,0-8.7,2.6-12.1l22.5-30c2.3-3.1,6.4-4.4,10.1-3.1l12.3,4.4
		c2.1,0.8,4.4,1.1,6.6,1c39.2-1.5,167.5-6.4,170.5-6.3c4.4,0.2,7.4,4,10.1,7.2c1.2,1.4,3.3,4.1,4.4,4.3c8.2-2.1,87.2-43.6,96.1-51.6
		c4.5-4.1,21-21.2,36.9-37.8c21.7-22.6,36.2-37.6,39.6-40.3c4.9-4.3,29-17.6,53.3-31c3.6-2,6.8-3.7,9.2-5.1c1-0.5,1.4-1.8,0.8-2.8
		l-18.7-35.5c-0.5-1-1.6-1.4-2.6-1c-42,16.9-113.2,45.4-118.1,46.3c-10.9,2-132.4,5.5-138.8,5.5c-7.6,0-27.5-3.7-50.5-8
		c-23.9-4.4-51-9.4-61.3-9.4c-5.7,0-23.8,2.1-41.3,4.1c-12.5,1.4-24.2,2.8-31.9,3.5c-20.3,1.8-69.3,12.8-73.7,17.3
		c-1.8,2-3.9,8.4-5.6,13.6c-1.6,4.9-3.1,9.4-4.7,12c-2.2,3.6-12,8.9-27.8,17.1c-6.9,3.6-14.6,7.6-16.3,9.1c-4,3.4-5.8,9.9-5.9,10
		l-0.1,0.3c-21.6,56.8-53.7,144.6-53.7,153.6s2.9,15.4,5.2,20.5c1.6,3.5,2.8,6.3,2.8,9.1c-0.1,3.2-1.2,6.2-2.9,8.9
		c-1.6,2.6-3.7,5-6.1,7L278.2,445.9z"/>
	<path class="st0" d="M278.7,484c-14,0-21.8-7.1-21.8-20.1c0.1-3.7,1.1-7.3,2.7-10.6c2.7-5.9,6.7-11.1,11.7-15.3l59.1-50.8
		c1.5-1.3,2.9-2.8,4-4.5c0.8-1,1.2-2.2,1.4-3.5c-0.5-1.7-1.2-3.3-1.9-4.8c-2.6-5.8-6.1-13.7-6.1-24.8c0-13.4,45.1-132.9,54.3-157
		c0.6-1.9,3.2-9.7,9-14.7c2.5-2.1,8.3-5.2,18.3-10.5c6-3.1,21.7-11.3,24-13.6c1-1.7,2.4-6,3.5-9.6c2.3-7,4.4-13.6,7.6-17.2
		c8.2-9.4,66.6-19.6,80.6-20.8c7.5-0.7,19.2-2,31.6-3.4c18.6-2.2,36.2-4.2,42.5-4.2c11.2,0,37.6,4.9,63.2,9.6
		c19.7,3.6,42,7.8,48.6,7.8c10.7,0,128-3.7,136.9-5.4c2.9-0.7,40.1-15.1,116.1-45.7c5.9-2.4,12.7,0.1,15.7,5.8l18.7,35.5
		c3.2,6,1,13.4-5,16.7c-2.2,1.2-4.9,2.7-8,4.4l-1.2,0.7c-15.4,8.5-47.2,26-51.5,29.7l-0.3,0.2c-2.9,2.2-23.5,23.7-38.6,39.4
		c-16.8,17.5-32.6,33.9-37.4,38.3c-8.4,7.5-94.5,54.3-102.9,54.3c-5.8,0-9.7-4.7-12.5-8.1c-1-1.2-2-2.4-3.2-3.5
		c-9.3,0.2-109.9,4-169,6.3c-3.6,0.2-7.1-0.4-10.5-1.6l-11.3-4L525.1,308c-0.8,1-1.1,2.3-0.8,3.6c0.7,2.9,1.5,6.7,2.5,11l0.2,0.7
		c7.8,34,15.5,67.9,15.9,77.8c0.2,10.9-9.8,36.4-18.2,55.8c-2,4.7-5.5,8.7-10,11.3c-4.7,2.7-10.1,3.8-15.5,3
		c-3.8-0.5-8.8-1.3-14.5-2.2c-19.9-3-49.8-7.6-62.4-7.6c-8.2,0-51.9,7.5-83.8,13.1C303.6,480.6,283.6,484,278.7,484z M278.7,477.1
		L278.7,477.1z M267.5,473.9c2.4,2.2,6.1,3.2,11.2,3.2C273.1,477.1,269.6,475.8,267.5,473.9L267.5,473.9z M278.8,477.1L278.8,477.1z
		 M422.4,454.5c-8.9,0-49.3,7-85,13.2c-27.3,4.7-47,8.1-55.2,9.1c8.9-1.1,30.6-4.8,55.1-9.1C373.1,461.5,413.5,454.5,422.4,454.5
		c11.2,0,35.1,3.4,54.3,6.3C457,457.9,433.7,454.5,422.4,454.5L422.4,454.5z M280.5,448.5c-3.4,2.9-6.2,6.5-8.1,10.6
		c-0.8,1.5-1.3,3.1-1.5,4.8c0,3.9,0,6.3,7.9,6.3c3.9,0,33.6-5.1,57.5-9.3c39.5-6.8,76.7-13.3,86.2-13.3c13.6,0,42.9,4.5,64.4,7.7
		l0.4,0.1c5.5,0.8,10.3,1.6,14,2.1c2.3,0.3,4.6-0.1,6.6-1.3c1.9-1.1,3.4-2.8,4.3-4.8c12.7-29.4,17.2-45,17.1-49.9
		c-0.4-9.2-10.7-53.7-15.6-75.1c-1.1-4.7-2-8.8-2.7-11.8c-1.2-5.2,0-10.7,3.2-15l22.5-30c3.2-4.3,8.9-6,14-4.2l12.3,4.4
		c1.7,0.6,3.5,0.9,5.3,0.8c1.7-0.1,163.2-6.3,170.6-6.3h0.2c5.9,0.3,9.7,4.9,12.7,8.5c1,1.2,1.7,2.1,2.3,2.7
		c13.3-5.2,85-43,93.1-50.3c4.4-4,20.8-21,36.6-37.4c22.6-23.5,36.5-37.9,40-40.7c4.6-4,23.2-14.5,53.8-31.3l8-4.4L968,78.1
		c-74.1,29.8-113.7,45.3-117.6,46c-11.4,2.2-132.9,5.6-139.4,5.6c-7.9,0-27.9-3.7-51-8c-23.8-4.4-50.8-9.4-60.7-9.4
		c-5.5,0-24.3,2.2-40.9,4.1H558c-12.3,1.4-24,2.8-31.7,3.4c-21.5,1.9-66.8,12.6-71.5,16.3c-1.3,1.7-3.6,8.6-4.8,12.3
		c-1.7,5.1-3.2,9.8-5.1,12.8c-2.6,4.2-10.9,8.8-29.2,18.4c-5.7,3-14.3,7.5-15.7,8.6c-2.6,2.2-4.4,6.8-4.8,8.4l-0.1,0.4
		c-26.4,69.4-53.6,145.3-53.6,152.5c0,8.2,2.6,14,4.9,19.1c1.7,3.8,3.1,7,3.1,10.5c-0.1,3.8-1.3,7.5-3.4,10.7
		c-1.8,3-4.1,5.6-6.8,7.9L280.5,448.5z M499.3,464.2l1,0.1l0,0L499.3,464.2z M338.1,389.5c-0.9,1.1-1.9,2.1-3,3l-59.1,50.8
		c-4.2,3.5-7.6,8-9.9,12.9l-0.5,1.1l0.5-1.1c2.3-5,5.7-9.4,9.9-12.9l2.3,2.6l-2.3-2.6l59.1-50.8
		C336.2,391.5,337.2,390.5,338.1,389.5z M517.5,455.9L517.5,455.9z M531.2,421.8c-4,11.9-9.6,25.1-12.8,32.4
		c-0.3,0.6-0.5,1.2-0.9,1.8c0.3-0.6,0.6-1.2,0.9-1.8C523.9,441.6,528.2,430.6,531.2,421.8z M536.1,401.1c0,0.1,0,0.2,0,0.2l0,0
		C536.1,401.2,536.1,401.2,536.1,401.1z M342.8,379.2c-0.1,2.1-0.7,4.2-1.8,6C342.1,383.4,342.7,381.3,342.8,379.2L342.8,379.2z
		 M338.3,366.9c0.7,1.7,1.4,3.2,2,4.6c0.9,2,1.6,3.5,2,4.9c-0.6-1.7-1.2-3.3-2-4.9C339.7,370.1,339,368.6,338.3,366.9L338.3,366.9z
		 M518.3,306c-1,2.2-1.3,4.8-0.7,7.2c0.7,3,1.6,7.1,2.7,11.8c2.5,10.7,5,21.8,7.3,32.1c-2.6-11.6-5.3-23.3-7.3-32.1l-0.2-0.7
		c-1-4.4-1.9-8.2-2.5-11.1C517,310.7,517.3,308.2,518.3,306L518.3,306z M334.8,349.6L334.8,349.6z M334.8,349.5l207.5-76l-0.2,0.3
		l-10.4,13.9l10.4-13.9L334.8,349.5z M388.8,194.4l0,0.2l-0.1,0.2c-10,26.4-20.4,54.2-29.3,78.8c13.7-37.8,28.2-76,29.3-79v-0.1
		L388.8,194.4z M546.8,271.7c0.4,0,0.8,0.1,1.2,0.2C547.6,271.8,547.2,271.7,546.8,271.7L546.8,271.7z M738.7,271.3
		c0.3,0,0.5,0.1,0.8,0.1C739.2,271.3,738.9,271.3,738.7,271.3L738.7,271.3z M878.4,203.3c-12.2,12.7-23,23.8-26.6,27.1
		c-5.6,5-38.3,23.1-64.5,36.6c26-13.4,58.5-31.2,64.5-36.6C855.4,227.1,865.9,216.2,878.4,203.3L878.4,203.3z M411.5,174.1
		c-3,1.6-5.9,3.1-8.4,4.4C405.4,177.3,408.2,175.8,411.5,174.1z M432,162.9c-4,2.4-9.9,5.6-18.6,10.1C420,169.6,427,166,432,162.9z
		 M439,157.7L439,157.7l-0.1,0.1L439,157.7z M928.2,152.3L928.2,152.3l-0.3,0.3l0.2-0.1L928.2,152.3L928.2,152.3z M446.9,136.8
		c-1.1,2.8-2.3,6.2-3.4,9.5c-0.1,0.4-0.3,0.9-0.4,1.3c0.1-0.4,0.3-0.8,0.4-1.3C444.7,142.6,445.8,139.4,446.9,136.8z M981.2,121.6
		l-0.4,0.2c-9.2,5-21.5,11.8-32,17.8c9.5-5.4,20.9-11.7,31.9-17.8L981.2,121.6z M544.2,111.1c-7.2,0.8-13.7,1.5-18.5,1.9
		c-18.8,1.6-70.6,12.5-76,18.5c6-6.1,57.6-16.9,76-18.5C530.5,112.6,537,111.9,544.2,111.1L544.2,111.1z M673.4,117.2
		c17.4,3.2,31.6,5.6,37.5,5.6C705.1,122.8,690.4,120.3,673.4,117.2L673.4,117.2z M992.4,109.7c1.1,2.6,0.1,5.6-2.4,7l-3.3,1.8
		l3.3-1.8C992.5,115.3,993.5,112.3,992.4,109.7L992.4,109.7z M849.2,117.3c-1.8,0.3-6.7,0.7-13.7,1.1
		C842.5,118,847.4,117.6,849.2,117.3L849.2,117.3z M599.2,105.4c9.1,0,30.4,3.7,51.4,7.6C629,109,608.3,105.4,599.2,105.4
		L599.2,105.4z M599.2,105.4c-6,0-24.1,2.1-41.7,4.1l-7.6,0.9l7.3-0.8h0.3C575.1,107.5,593.2,105.4,599.2,105.4L599.2,105.4z
		 M992.4,109.7L992.4,109.7z M969.7,70.9c1.7,0.3,3.1,1.4,3.8,2.9l17.8,33.8l-17.8-33.8C972.8,72.3,971.4,71.2,969.7,70.9z
		 M966.7,71.2L966.7,71.2c-17.1,6.9-59.6,23.9-88.6,35.3C895.5,99.6,923,88.7,966.7,71.2L966.7,71.2z"/>
	
		<linearGradient id="SVGID_1_" gradientUnits="userSpaceOnUse" x1="628.4182" y1="480.6503" x2="628.4182" y2="67.44" gradientTransform="matrix(1 0 0 -1 0 548)">
		<stop  offset="0" style="stop-color:#1B94E2"/>
		<stop  offset="1" style="stop-color:#40D8AB"/>
	</linearGradient>
	<path class="st2" d="M278.7,480.6c-12.1,0-18.3-5.6-18.3-16.7c0.2-3.2,1-6.3,2.4-9.2c2.5-5.4,6.2-10.3,10.8-14.1l59.1-50.8
		c1.8-1.5,3.4-3.4,4.6-5.4c1.1-1.6,1.8-3.4,1.9-5.3c0-1.3-1.1-3.7-2.2-6.2c-2.5-5.5-5.8-13-5.8-23.4c0-13.1,48.3-140.7,54.1-155.9
		c0.4-1.2,2.8-8.7,7.9-13.2c2.2-1.9,8.1-5,17.7-10c8.8-4.6,23.4-12.2,25.2-14.7c1.2-1.9,2.6-6.3,4-10.5c2.2-6.6,4.2-12.9,7-16
		c6.7-7.7,62.1-18.3,78.3-19.7c7.6-0.7,19.3-2,31.7-3.4c18.5-2.1,36-4.2,42.1-4.2c10.9,0,37.2,4.9,62.5,9.6
		c20.8,3.8,42.3,7.8,49.2,7.8c11.1,0,128.1-3.7,137.5-5.4c3.6-0.8,49.4-18.8,116.8-45.9c4.3-1.7,9.2,0.1,11.3,4.2l18.7,35.5
		c2.3,4.3,0.7,9.7-3.6,12.1l-9.2,5.1c-16.7,9.2-47.7,26.2-52.2,30.2l-0.2,0.2c-3,2.3-22.1,22.1-38.9,39.7S858.8,228.7,854,233
		c-9.4,8.5-94,53.4-100.5,53.4c-4.2,0-7.2-3.6-9.9-6.9c-1.6-2-3.8-4.6-5.2-4.7c-1,0-12.1,0.3-75.3,2.7c-39.2,1.5-81.5,3.1-94.6,3.6
		c-3.1,0.1-6.3-0.3-9.2-1.4l-12.3-4.4c-0.8-0.3-1.8,0-2.3,0.7l-22.5,30c-1.4,1.8-1.9,4.2-1.4,6.4c0.7,3,1.6,7.1,2.7,11.7
		c5.8,25,15.5,66.9,15.9,77.2c0.2,10.8-11.2,38.6-18,54.3c-1.7,4.1-4.8,7.4-8.6,9.6l-0.5,0.2c-1.3,0.5-8.3,3-12.7,2.3
		c-3.8-0.5-8.9-1.3-14.6-2.2c-19.9-3-50-7.6-62.8-7.6c-8.6,0-50.6,7.3-84.4,13.1S283.3,480.6,278.7,480.6z M599.2,108.9
		c-5.7,0-23.8,2.1-41.3,4.1c-12.5,1.4-24.2,2.8-31.9,3.5c-20.3,1.8-69.3,12.8-73.7,17.3c-1.8,2-3.9,8.4-5.6,13.6
		c-1.6,4.9-3.1,9.4-4.7,12c-2.2,3.6-12,8.9-27.8,17.1c-6.9,3.6-14.7,7.7-16.3,9.1c-4,3.4-5.8,9.9-5.9,10l-0.1,0.3
		c-21.6,56.8-53.7,144.6-53.7,153.6s2.9,15.4,5.2,20.5c1.6,3.5,2.8,6.3,2.8,9.1c-0.1,3.2-1.2,6.2-2.9,8.9c-1.6,2.6-3.7,5-6.1,7
		l-59.1,50.8c-3.8,3.2-6.9,7.2-9,11.8c-1,1.9-1.6,4.1-1.8,6.3c0,5.1,0.9,9.8,11.4,9.8c4.2,0,31.6-4.7,58.1-9.3
		c37.6-6.5,76.4-13.2,85.6-13.2c13.4,0,42.5,4.4,63.8,7.7c5.7,0.9,10.7,1.6,14.5,2.2c2,0.3,6.4-0.9,9.1-1.9c2.4-1.5,4.3-3.7,5.5-6.3
		c11-25.4,17.5-44.6,17.4-51.3c-0.4-9.6-10.3-52.7-15.7-75.9c-1.1-4.7-2-8.7-2.7-11.8c-1-4.2,0-8.7,2.6-12.1l22.5-30
		c2.3-3.1,6.5-4.4,10.1-3.1l12.3,4.4c2.1,0.8,4.4,1.1,6.6,1c13.1-0.5,55.4-2.1,94.6-3.6c73.9-2.8,75.4-2.7,75.9-2.7
		c4.4,0.2,7.4,4,10.1,7.2c1.2,1.4,3.3,4.1,4.4,4.3c8.2-2.1,87.2-43.6,96.1-51.6c4.5-4.1,21-21.2,36.9-37.8
		c21.7-22.6,36.2-37.6,39.6-40.3c4.9-4.3,29-17.7,53.3-31c3.6-2,6.7-3.7,9.2-5.1c1-0.5,1.4-1.8,0.8-2.8l-18.7-35.4
		c-0.5-1-1.6-1.4-2.6-1c-42,16.9-113.2,45.4-118.1,46.3c-10.9,2-132.4,5.5-138.8,5.5c-7.6,0-27.5-3.7-50.5-8
		C636.6,113.9,609.5,108.9,599.2,108.9z"/>
	<path class="st3" d="M753.5,286.3c-4.2,0-7.2-3.6-9.9-6.9c-1.6-2-3.8-4.6-5.2-4.7c-1,0-12.1,0.3-75.3,2.7l-0.3-6.9
		c73.9-2.8,75.4-2.7,75.9-2.7c4.4,0.2,7.4,4,10.1,7.2c1.2,1.4,3.3,4.1,4.4,4.3c8.2-2.1,87.2-43.6,96.1-51.6
		c4.5-4.1,21-21.2,36.9-37.8c21.7-22.6,36.2-37.6,39.6-40.3c4.9-4.3,29-17.7,53.3-31c3.6-2,6.7-3.7,9.2-5.1c1-0.5,1.4-1.8,0.8-2.8
		l-18.7-35.5c-0.5-1-1.6-1.4-2.6-1c-42,16.9-113.2,45.4-118.1,46.3l-1.3-6.8c3.6-0.8,49.5-18.8,116.8-45.9c4.3-1.7,9.2,0.1,11.3,4.2
		l18.7,35.5c2.3,4.3,0.7,9.7-3.6,12.1l-9.2,5.1c-16.6,9.2-47.6,26.2-52.1,30.2l-0.2,0.2c-3,2.3-22.1,22.1-38.9,39.7
		S858.8,228.7,854,233C844.6,241.4,760,286.3,753.5,286.3z"/>
	<path class="st4" d="M278.7,480.6c-12.1,0-18.3-5.6-18.3-16.7c0.2-3.2,1-6.3,2.4-9.2c2.5-5.4,6.2-10.3,10.8-14.1l29.3-25.1l4.5,5.2
		l-29.3,25.1c-3.8,3.2-6.9,7.2-9,11.8c-1,1.9-1.6,4.1-1.8,6.3c0,5.1,0.9,9.8,11.4,9.8c4.2,0,31.6-4.7,58.1-9.3
		c37.6-6.5,76.4-13.2,85.6-13.2c13.4,0,42.5,4.4,63.8,7.7c5.7,0.9,10.7,1.6,14.5,2.2c2,0.3,6.4-0.9,9.1-1.9c2.4-1.5,4.3-3.7,5.5-6.3
		c11-25.4,17.5-44.6,17.4-51.3c-0.4-9.6-10.3-52.7-15.7-75.9c-1.1-4.7-2-8.7-2.7-11.8c-1-4.2,0-8.7,2.6-12.1l22.5-30
		c2.3-3.1,6.5-4.4,10.1-3.1l12.3,4.4c2.1,0.8,4.4,1.1,6.6,1c13.1-0.5,55.4-2.1,94.6-3.6l0.3,6.9c-39.2,1.5-81.5,3.1-94.6,3.6
		c-3.1,0.1-6.3-0.3-9.2-1.4l-12.3-4.4c-0.8-0.3-1.8,0-2.3,0.7l-22.5,30c-1.4,1.8-1.9,4.2-1.4,6.4c0.7,3,1.6,7.1,2.7,11.7
		c5.8,25,15.5,66.9,15.9,77.2c0.2,10.8-11.2,38.6-18,54.3c-1.7,4.1-4.8,7.4-8.6,9.6l-0.5,0.2c-1.3,0.5-8.3,3-12.7,2.3
		c-3.8-0.5-8.9-1.3-14.6-2.2c-19.9-3-50-7.6-62.8-7.6c-8.6,0-50.6,7.3-84.4,13.1S283.3,480.6,278.7,480.6z"/>
	<g id="Group-Copy-7">
		<circle id="Oval-Copy-2" class="st5" cx="952.5" cy="139.6" r="14.5"/>
		<circle id="Oval-Copy-2-2" class="st6" cx="952.5" cy="139.6" r="14.5"/>
		<circle id="Oval" class="st7" cx="952.5" cy="139.6" r="9.7"/>
		<path class="st8" d="M952.5,150.3c-5.9,0-10.7-4.8-10.7-10.7s4.8-10.7,10.7-10.7c5.9,0,10.7,4.8,10.7,10.7
			C963.2,145.5,958.5,150.2,952.5,150.3z M952.5,130.9c-4.8,0-8.6,3.9-8.6,8.6s3.9,8.6,8.6,8.6c4.8,0,8.6-3.9,8.6-8.6
			C961.2,134.8,957.3,130.9,952.5,130.9z"/>
		<circle id="Oval-Copy" class="st8" cx="952.5" cy="139.6" r="4.8"/>
	</g>
	<g id="Group-Copy-8">
		<circle id="Oval-Copy-2-3" class="st5" cx="852.8" cy="231" r="14.5"/>
		<circle id="Oval-Copy-2-4" class="st9" cx="852.8" cy="231" r="14.5"/>
		<circle id="Oval-2" class="st7" cx="852.8" cy="231" r="9.7"/>
		<path class="st10" d="M852.8,241.7c-5.9,0-10.7-4.8-10.7-10.7c0-5.9,4.8-10.7,10.7-10.7s10.7,4.8,10.7,10.7c0,0,0,0,0,0
			C863.5,236.9,858.7,241.7,852.8,241.7z M852.8,222.4c-4.8,0-8.6,3.9-8.6,8.6s3.9,8.6,8.6,8.6c4.8,0,8.6-3.9,8.6-8.6
			C861.5,226.2,857.6,222.4,852.8,222.4z"/>
		<circle id="Oval-Copy-2-5" class="st10" cx="852.8" cy="231" r="4.8"/>
	</g>
	<path class="st10" d="M455.2,132.2l-2.8-6.3c14.1-6.3,56.5-14.9,73.1-16.3c7.6-0.7,19.3-2,31.7-3.4c18.5-2.1,36-4.2,42.1-4.2
		c10.9,0,37.2,4.9,62.5,9.6c20.8,3.8,42.3,7.8,49.2,7.8c6.1,0,63.5-1.7,102.1-3.3l0.3,6.9c-38.7,1.6-96.3,3.3-102.4,3.3
		c-7.6,0-27.5-3.7-50.5-8c-23.9-4.4-51-9.4-61.3-9.4c-5.7,0-23.8,2.1-41.3,4.1c-12.5,1.4-24.2,2.8-31.9,3.5
		C510.3,117.8,468.5,126.3,455.2,132.2z"/>
	<path class="st11" d="M813.3,122.9L813,116c27.2-1.2,33.9-1.8,35.4-2.1c0.5-0.1,3-0.9,15.6-5.7l2.5,6.5c-14.8,5.7-16.2,6-16.8,6.1
		C848.6,121,845.1,121.6,813.3,122.9z"/>
	<g id="Group-6">
		
			<rect id="Rectangle-2" x="813.2" y="114" transform="matrix(0.9998 -1.780142e-02 1.780142e-02 0.9998 -1.9328 14.526)" width="3.6" height="3.6"/>
		
			<rect id="Rectangle-2-Copy-4" x="809.9" y="112.3" transform="matrix(0.9998 -1.999600e-02 1.999600e-02 0.9998 -2.1198 16.2541)" class="st7" width="3.6" height="3.6"/>
		
			<rect id="Rectangle-2-Copy-7" x="805.9" y="114.2" transform="matrix(0.9998 -1.780142e-02 1.780142e-02 0.9998 -1.9364 14.397)" width="3.6" height="3.6"/>
		
			<rect id="Rectangle-2-Copy" x="813.2" y="117.6" transform="matrix(0.9998 -1.780142e-02 1.780142e-02 0.9998 -1.9974 14.5277)" class="st7" width="3.6" height="3.6"/>
		
			<rect id="Rectangle-2-Copy-5" x="810" y="115.9" transform="matrix(0.9998 -1.999600e-02 1.999600e-02 0.9998 -2.1924 16.2564)" width="3.6" height="3.6"/>
		
			<rect id="Rectangle-2-Copy-9" x="806" y="117.8" transform="matrix(0.9998 -1.780142e-02 1.780142e-02 0.9998 -2.0008 14.3987)" class="st7" width="3.6" height="3.6"/>
		
			<rect id="Rectangle-2-Copy-3" x="813.7" y="119.5" transform="matrix(0.9998 -1.999600e-02 1.999600e-02 0.9998 -2.2627 16.3309)" width="3.6" height="3.6"/>
		
			<rect id="Rectangle-2-Copy-6" x="809.7" y="121.3" transform="matrix(0.9998 -1.780142e-02 1.780142e-02 0.9998 -2.0635 14.4648)" class="st7" width="3.6" height="3.6"/>
		
			<rect id="Rectangle-2-Copy-10" x="806" y="121.4" transform="matrix(0.9998 -1.780142e-02 1.780142e-02 0.9998 -2.0654 14.4004)" width="3.6" height="3.6"/>
	</g>
</g>
</svg>
