<?xml version="1.0" encoding="UTF-8"?>
<svg width="160px" height="96px" viewBox="0 0 160 96" version="1.1" xmlns="http://www.w3.org/2000/svg" xmlns:xlink="http://www.w3.org/1999/xlink">
    <!-- Generator: Sketch 58 (84663) - https://sketch.com -->
    <title>circuit-gs-Yas-Marina-L-Eng</title>
    <desc>Created with Sketch.</desc>
    <defs>
        <linearGradient x1="50%" y1="23.3035083%" x2="50%" y2="112.667183%" id="linearGradient-1">
            <stop stop-color="#1B94E2" offset="0%"></stop>
            <stop stop-color="#40D8AB" offset="100%"></stop>
        </linearGradient>
    </defs>
    <g id="circuit-gs-Yas-Marina-L-Eng" stroke="none" stroke-width="1" fill="none" fill-rule="evenodd">
        <g id="Abu-Dhabi-Circuit">
            <g id="Group-5" transform="translate(8.106667, 2.986667)">
                <path d="M70.1996477,49.0786963 C70.7820606,48.3471811 71.9911564,47.405736 73.7197683,46.2774146 C74.2065438,45.9596803 74.7296424,45.6305878 75.2849421,45.2916947 C76.871907,44.3231879 78.2714234,43.53259 80.150423,42.5058889 C80.2354239,42.4594437 80.3211228,42.4129107 80.435076,42.3512499 C80.5744354,42.2758922 80.6473771,42.2364427 80.7106409,42.202139 C80.9275501,42.0845234 81.0833708,41.9987678 81.2315396,41.9148784 C82.6695472,41.1007158 83.2669549,40.4595728 83.4971785,39.2440149 C84.4746466,35.4713393 85.4543098,32.3754486 86.2672665,30.9347346 C86.9070731,29.8008755 87.8677553,28.4805375 89.1500106,26.9699778 L89.8005643,27.5222075 C88.5505944,28.9947335 87.6203228,30.2732758 87.0104471,31.3540917 C86.2488511,32.7037848 85.2796675,35.7665583 84.3294829,39.4300998 C84.0497975,40.9131071 83.2870139,41.7317329 81.6519668,42.6574542 C81.4983713,42.744416 81.3384981,42.8324019 81.117398,42.9522899 C81.0536584,42.9868517 80.9802193,43.0265701 80.8411789,43.1017551 C80.7281617,43.1629095 80.6433911,43.2089385 80.5595939,43.254726 C78.6917924,44.2753083 77.3017471,45.060556 75.7294765,46.0200949 C75.1812081,46.3546969 74.6653371,46.6792424 74.1861969,46.9919928 C72.5322786,48.0715594 71.3745678,48.9729942 70.8575634,49.6219219 C69.6697015,51.0095135 68.9090326,52.6943513 68.3125969,55.4345232 C68.0557149,56.1186741 67.62997,56.2885682 66.8084057,56.2880848 C65.4179767,56.2217742 64.5593326,55.4600031 63.3864547,53.6667638 C62.034891,51.6962109 57.6774623,43.6184319 54.132864,36.3359939 C53.8484903,35.7517431 53.5608489,35.1571314 53.2701201,34.5526393 C51.4147088,30.6948119 49.5027309,26.5813592 47.5735229,22.3323148 C46.8772316,20.7987464 46.2217132,19.3423341 45.5652652,17.8740917 C45.2443072,17.156222 44.5226327,15.5362768 44.4608204,15.3983578 C43.6021167,13.4823714 42.9013989,12.7195092 42.1348961,12.5685556 C41.8515986,12.5127635 41.6230075,12.5227472 41.0079873,12.5952811 C40.2040102,12.6895643 39.0184568,13.4350618 37.4650368,14.8437057 L36.8918155,14.2115704 C38.5687733,12.6909022 39.8760966,11.8688336 40.8680543,11.7525252 C41.6136141,11.6646075 41.8980389,11.6521853 42.2997829,11.731304 C43.3984914,11.9476817 44.2790802,12.9063671 45.2395234,15.04936 C45.3018146,15.1883476 46.0237045,16.8087764 46.344282,17.5257949 C47.0000989,18.9926259 47.6549568,20.4475708 48.3505187,21.9795327 C50.2773209,26.2232782 52.1867544,30.3312569 54.0391354,34.1827836 C54.3292949,34.7860921 54.6163562,35.3795046 54.900137,35.9625372 C58.4271914,43.2089308 62.7692751,51.2582635 64.0953734,53.1918694 C65.1350399,54.7812729 65.8172463,55.3865122 66.8287304,55.4352348 C67.293131,55.4352348 67.4094227,55.3972554 67.4864867,55.2177568 C68.1100528,52.3688666 68.926933,50.5649941 70.1996477,49.0786963 Z" id="Path-55" fill="#E6E6E6" fill-rule="nonzero"></path>
                <path d="M65.5801894,54.7613026 C64.8896287,53.759092 58.3941328,40.8499927 45.6007053,15.0809264 C45.2408596,14.1166979 44.8371451,13.4934834 44.3380128,13.0579531 C43.1326305,12.6513853 41.9063357,12.7545932 41.2070674,13.4097072 C40.9761653,13.6289518 40.3814583,14.2530247 39.3836738,15.3204543 C38.8419201,15.9000222 36.6236737,18.2843266 36.258773,18.6756632 C33.5096999,21.622981 31.9591174,23.2449785 31.2158074,23.9182398 C30.8004636,24.294442 30.6649922,24.7938741 30.7556382,25.4656489 C30.826129,25.9880543 31.0184799,26.5010237 31.2300293,26.9001243 C32.3170305,28.950817 39.366721,42.6090608 39.6493828,43.3034257 C39.8732078,43.8532566 40.0377838,44.6253546 40.3112482,46.1826185 C40.3097188,46.1739091 40.4483667,46.9684227 40.4862827,47.1812669 C40.5496989,47.5372577 40.6008051,47.8098182 40.6478767,48.0393591 C41.0345978,49.9251726 39.9910856,51.2031379 38.434521,51.7023869 C38.241032,51.7644461 35.5666864,52.7887201 34.8426636,53.0578396 C34.6634655,53.1244476 34.4890661,53.1888177 34.3188637,53.2511429 C33.1819926,53.6674456 32.2470635,53.9873746 31.5118469,54.2042484 C29.7970203,54.9884729 28.679624,54.5276664 27.7156363,53.2400573 C27.3234065,52.7226679 27.033686,52.166124 26.5500798,51.1460637 C26.3094218,50.638449 25.365322,48.5971129 25.2376831,48.3240634 C25.1376861,48.1101464 25.0435524,47.9099666 24.9529315,47.718658 C24.6956739,47.1755641 24.466815,46.7042029 24.2557399,46.2847951 C24.0564325,45.8887699 23.8730794,45.6102071 23.7172037,45.4378641 C22.7212889,46.3267426 19.3227358,48.5635112 17.1790277,49.4745306 C15.5653365,50.058313 14.7446654,51.1173971 14.1320935,53.0239909 C13.9681704,53.4061898 13.8001443,54.0428332 13.5637401,55.1220613 C13.5485785,55.1912766 13.0042251,57.7559499 12.8206915,58.5626918 C12.6399881,59.3569937 12.4686073,60.0524792 12.2941832,60.6868664 C11.7322749,62.7305487 11.9857102,64.5945959 12.3844775,65.1144464 C12.5586752,65.3415382 12.961756,66.1281809 14.1753885,68.5523471 C14.6206449,69.4417231 16.8706807,73.9549034 17.4886633,75.1902619 C20.3714323,80.9506252 22.0716022,84.2422261 22.4655838,84.7845513 C23.2572882,85.8743513 23.3583903,87.028298 22.7830044,87.9876403 C22.3876061,88.6468888 21.7206318,89.1157715 21.0704315,89.3257584 C20.8128822,89.4089358 20.5148292,89.5069947 20.1411327,89.6329325 C19.5903799,89.8185392 19.0048205,90.0214691 18.3954713,90.239569 C16.7432639,90.8309314 15.1565059,91.4470827 13.7422992,92.0636879 C10.7551822,93.3660943 9.43616589,93.3894415 8.26775363,91.7708376 C8.08134546,91.512606 7.98562194,91.3548387 7.61349701,90.7167417 C7.08747018,89.3759179 7.01914718,89.3589476 4.27801717,89.6912939 C2.09173723,89.9563677 0.725111844,89.2894792 0.371711753,87.8149787 C0.299956529,87.5155925 0.286614671,87.3008924 0.286614671,86.9306362 C0.286614671,85.6165182 0.473131183,82.5962268 0.805914923,79.7459357 C1.96278902,69.8373148 2.74465136,63.3929947 2.86837755,62.7687558 C3.04962943,62.016805 3.21951718,61.337596 3.39081499,60.6734372 C4.00050355,58.3095422 4.63030043,56.1252072 5.36339662,53.8074853 C6.15998495,51.2890298 10.7570487,38.0181948 12.557478,32.5109588 C14.5037552,26.557597 17.1525017,21.8598951 20.363525,18.2198386 C23.5923116,14.5596453 26.2377618,12.8247339 30.5041877,10.7746227 C30.7530661,10.6550312 30.9563051,10.5394682 31.1160319,10.4293903 C31.3277183,10.2835038 31.4295907,10.1742955 31.4614565,10.1083144 C31.4133909,9.81601639 31.3564964,9.70884156 30.7009923,8.60350429 C30.2893692,7.90940893 30.0332967,7.39869532 29.8417841,6.81211911 C29.3376629,5.26806697 29.6006847,3.99653856 30.6149752,3.24138961 C31.2700085,2.75371101 32.0093143,2.60996576 32.8884948,2.60996576 C32.4631798,2.60996576 49.2868774,2.59044307 60.6295896,2.57938859 C69.7346158,2.57051493 78.5399868,2.56319915 86.8391684,2.55791591 C119.808866,2.53692748 139.635689,2.54994203 140.813103,2.61172431 C143.140963,2.73387377 144.125946,4.46373897 143.853616,6.81076366 C143.613264,8.8821981 141.488661,10.1217238 139.066273,10.4551568 C136.363853,10.4671129 135.613239,10.4350405 132.745621,10.1904399 C131.991083,10.097332 131.57991,10.0989103 131.414616,10.1437934 C131.384799,10.2580544 131.372704,10.4523614 131.394022,10.7297442 C132.117183,13.8103319 131.638057,15.1490262 129.595677,16.2099732 C129.096348,16.4509582 127.602549,17.14074 121.152209,20.1135192 C116.757721,22.1388155 114.633402,23.1198618 113.435804,23.6794079 C110.080597,25.2470399 104.303631,26.0754732 99.6177029,25.7125143 C95.5754292,25.3994109 93.7489091,26.0782258 90.7655526,29.0054309 C89.5160223,30.2314431 89.1554636,31.6061781 89.1284666,34.610379 C89.123729,35.1375676 89.1238204,35.7295462 89.127816,36.4477041 C89.1297169,36.7893573 89.1321128,37.1102692 89.1364887,37.6392362 C89.1533989,39.6833798 89.1542205,40.3143112 89.1285101,40.818009 C89.1273851,42.3468817 89.0114086,43.2617789 88.4880118,44.3922552 C87.9963761,45.454131 87.205469,46.3736301 86.0787891,47.1210003 C85.6686199,47.3448025 80.1501713,50.9557375 78.2832704,52.1322536 C77.8519372,52.4040787 77.4324005,52.6661113 77.0235238,52.9189025 C75.4162401,53.9126182 73.9918112,54.7525009 72.7516355,55.4294319 C69.4074796,57.5666835 67.2177445,57.1378855 65.5801894,54.7613026 Z M23.8519858,45.3085541 C23.8554827,45.3069074 23.8573801,45.3056399 23.8579224,45.3050896 C23.857406,45.3056136 23.8568883,45.3061385 23.8563692,45.3066641 L23.8519858,45.3085541 Z M67.6882224,53.3087885 C68.0948352,53.8989055 68.4011143,54.1561993 68.7478212,54.2227995 C69.2820139,54.3254145 70.137186,54.0675981 71.4063475,53.2509741 C72.6895437,52.5480925 74.0892312,51.72329 75.6772995,50.7414544 C76.0797388,50.4926432 76.4930803,50.2344799 76.918388,49.9664521 C78.592367,48.9115149 83.845723,45.4758596 84.6850954,44.9734037 C85.4057117,44.4907908 85.8755031,43.941795 86.1649186,43.3166911 C86.4906286,42.6131954 86.5685337,41.9883466 86.5685184,40.7949915 C86.5935555,40.2868905 86.5930885,39.6564476 86.5765763,37.6604131 C86.5721825,37.1292846 86.5697727,36.8065139 86.5678556,36.461947 C86.5637967,35.7324163 86.5637036,35.1288955 86.5685699,34.5873747 C86.6011194,30.9653055 87.1168327,28.9989983 88.9726373,27.1781228 C92.4794235,23.7373398 95.0298629,22.7894849 99.8154012,23.1601594 C104.088741,23.4911604 109.430513,22.7251352 112.352156,21.3600744 C113.555797,20.7977048 115.680234,19.8166043 120.073226,17.7919973 C126.453441,14.851537 128.006594,14.1343477 128.449,13.9214611 C128.934622,13.6690475 129.056664,13.5612095 129.104344,13.4231319 C129.211796,13.1119614 129.170837,12.4355061 128.88224,11.2325047 C128.577535,8.16430951 130.133912,7.29224878 132.987312,7.64175878 C135.727462,7.87532167 136.426148,7.90635231 138.799828,7.90709878 C140.154719,7.70106174 141.248323,7.053091 141.310677,6.51570165 C141.43198,5.47027823 141.277875,5.19963417 140.678957,5.16820722 C139.578768,5.11047718 119.366497,5.09720961 86.8407981,5.11791539 C78.5419292,5.12319844 69.7368401,5.13051398 60.6320846,5.13938737 C49.2911957,5.15044008 32.4649191,5.16996576 32.8884948,5.16996576 C32.5352651,5.16996576 32.2654399,5.2191448 32.1586018,5.28478044 C32.1321818,5.41253714 32.1565687,5.65372903 32.2753615,6.01757483 C32.3953857,6.38519195 32.5793342,6.75206071 32.9029109,7.29768864 C32.954939,7.38542056 33.1547734,7.71793509 33.2006891,7.79523837 C33.3225404,8.00038599 33.4156847,8.16353032 33.5010607,8.32435705 C33.7410032,8.77634778 33.8981367,9.17312264 33.9745995,9.58947666 C34.1869645,10.7458439 33.6974524,11.7594221 32.5687259,12.5372993 C32.2929863,12.7273289 31.9756291,12.9077803 31.6129579,13.0820518 C27.6286621,14.9965932 25.2369057,16.5651299 22.2833169,19.9133553 C19.3063398,23.2880941 16.8303369,27.6794255 14.9907478,33.306445 C13.179411,38.8470449 8.58785584,52.101978 7.80420992,54.5795154 C7.08466749,56.8543863 6.46759135,58.9946018 5.86969343,61.312782 C5.70405159,61.9550114 5.53966719,62.6119133 5.37548298,63.288028 C5.25791708,63.9429514 4.460203,70.5223035 3.3486429,80.0428102 C3.02703417,82.7973873 2.84661477,85.7189465 2.84661477,86.9143356 C3.0381968,87.198784 3.40402297,87.2185131 3.96988838,87.1499051 C6.08743946,86.8931642 6.56051236,86.8640041 7.3889242,87.0697683 C8.55852184,87.3602776 9.33986766,88.157985 9.87612917,89.5148418 C10.1538733,89.9904411 10.2338349,90.120627 10.3434451,90.2724702 C10.8732228,90.4425016 11.542127,90.2302293 12.7191428,89.7170411 C14.1925798,89.0746111 15.8305565,88.4385711 17.5327835,87.8293056 C18.1578016,87.6055975 18.7583039,87.397489 19.3235763,87.206989 C19.7083095,87.0773318 20.0164327,86.9759598 20.2836735,86.8896525 C20.3857671,86.8566806 20.5420852,86.7467891 20.587601,86.6709005 C20.581748,86.6016778 20.5300198,86.4758273 20.3944265,86.2891799 C19.8670872,85.5632847 18.2619906,82.4557496 15.3076606,76.5524393 C14.5800674,75.0980118 12.3302726,70.5853149 11.8862404,69.6983843 C11.3880363,68.7032483 11.0211001,67.9756405 10.7541049,67.4545791 C10.6097259,67.1728126 10.4959639,66.9542213 10.4134401,66.8000776 C9.42847637,65.4598131 9.0652115,62.7744188 9.82578516,60.0081829 C9.98895344,59.4147336 10.1515899,58.7547338 10.3244739,57.994803 C10.5030516,57.2098454 11.0443083,54.6597619 11.0630324,54.574283 C11.3290077,53.3600575 11.5128114,52.6532856 11.7152551,52.1777303 C12.5448855,49.6340022 13.842326,47.9701771 16.2084969,47.1053476 C17.3124486,46.6325218 18.6475945,45.8641282 20.0275277,44.9450875 C20.9646389,44.3209679 21.9516501,43.5923025 22.0344416,43.508282 C22.2090047,43.3311274 22.3864219,43.1836794 22.6292811,43.0477146 C23.0183984,42.8298673 23.4618936,42.7220869 23.9407537,42.7761503 C24.9727534,42.8926632 25.818315,43.6950396 26.5424751,45.1339511 C26.7637446,45.5736152 27.0011568,46.0625929 27.266496,46.6227476 C27.3590866,46.8182145 27.4550529,47.0222915 27.5568091,47.2399718 C27.6890342,47.5228323 28.628871,49.5549507 28.8632803,50.0493853 C29.2503979,50.8659243 29.5154796,51.3751379 29.6020213,51.488445 C30.0852239,52.1336039 29.9898875,52.0957437 30.5057441,51.848719 C31.382789,51.5767882 32.3019383,51.2634687 33.4385971,50.8472438 C33.6047916,50.7863862 33.7753158,50.7234465 33.9507332,50.6582438 C34.598891,50.4173233 37.380027,49.3521486 37.6526639,49.2647037 C38.0924092,49.1236608 38.223929,48.9625916 38.1400644,48.5536326 C38.0877108,48.2983351 38.0329306,48.0061796 37.9659602,47.6302372 C37.9271092,47.4121445 37.7875955,46.6126692 37.78983,46.6253939 C37.5574373,45.302016 37.4018579,44.5721252 37.2783149,44.2686392 C37.0464052,43.698948 29.9736667,29.9960504 28.9681439,28.0990714 C28.6273614,27.456165 28.3362838,26.679907 28.2186303,25.8079803 C28.024019,24.365722 28.387394,23.0260953 29.4972271,22.0208517 C30.1605742,21.4200177 31.7114194,19.7977454 34.2893504,17.033927 C34.7494841,16.5404743 36.9692668,14.1545186 37.5134985,13.5722997 C38.5589145,12.453914 39.1590177,11.8241785 39.4505544,11.5473996 C41.021985,10.0751115 43.3474662,9.93591563 45.4350845,10.7324272 L45.7626587,10.9164286 C46.7165526,11.6553508 47.4351809,12.6938739 47.9242437,14.0041273 C60.3626236,39.0577445 67.1145456,52.4762117 67.6882224,53.3087885 Z M10.343523,66.6598803 C10.3464081,66.6636401 10.3496376,66.6678498 10.3532514,66.6725608 C10.3517559,66.6706112 10.3502618,66.6686577 10.3487692,66.6667003 L10.343523,66.6598803 Z M10.5013807,90.4568147 C10.4979945,90.4547862 10.4950788,90.4532776 10.494669,90.4521345 C10.497234,90.4541198 10.4994701,90.4556702 10.5013807,90.4568147 Z" id="Path-54" fill="#EBEBEB" fill-rule="nonzero"></path>
                <path d="M65.5801894,53.4813026 C64.8896287,52.479092 58.3941328,39.5699927 45.6007053,13.8009264 C45.2408596,12.8366979 44.8371451,12.2134834 44.3380128,11.7779531 C43.1326305,11.3713853 41.9063357,11.4745932 41.2070674,12.1297072 C40.9761653,12.3489518 40.3814583,12.9730247 39.3836738,14.0404543 C38.8419201,14.6200222 36.6236737,17.0043266 36.258773,17.3956632 C33.5096999,20.342981 31.9591174,21.9649785 31.2158074,22.6382398 C30.8004636,23.014442 30.6649922,23.5138741 30.7556382,24.1856489 C30.826129,24.7080543 31.0184799,25.2210237 31.2300293,25.6201243 C32.3170305,27.670817 39.366721,41.3290608 39.6493828,42.0234257 C39.8732078,42.5732566 40.0377838,43.3453546 40.3112482,44.9026185 C40.3097188,44.8939091 40.4483667,45.6884227 40.4862827,45.9012669 C40.5496989,46.2572577 40.6008051,46.5298182 40.6478767,46.7593591 C41.0345978,48.6451726 39.9910856,49.9231379 38.434521,50.4223869 C38.241032,50.4844461 35.5666864,51.5087201 34.8426636,51.7778396 C34.6634655,51.8444476 34.4890661,51.9088177 34.3188637,51.9711429 C33.1819926,52.3874456 32.2470635,52.7073746 31.5118469,52.9242484 C29.7970203,53.7084729 28.679624,53.2476664 27.7156363,51.9600573 C27.3234065,51.4426679 27.033686,50.886124 26.5500798,49.8660637 C26.3094218,49.358449 25.365322,47.3171129 25.2376831,47.0440634 C25.1376861,46.8301464 25.0435524,46.6299666 24.9529315,46.438658 C24.6956739,45.8955641 24.466815,45.4242029 24.2557399,45.0047951 C24.0564325,44.6087699 23.8730794,44.3302071 23.7172037,44.1578641 C22.7212889,45.0467426 19.3227358,47.2835112 17.1790277,48.1945306 C15.5653365,48.778313 14.7446654,49.8373971 14.1320935,51.7439909 C13.9681704,52.1261898 13.8001443,52.7628332 13.5637401,53.8420613 C13.5485785,53.9112766 13.0042251,56.4759499 12.8206915,57.2826918 C12.6399881,58.0769937 12.4686073,58.7724792 12.2941832,59.4068664 C11.7322749,61.4505487 11.9857102,63.3145959 12.3844775,63.8344464 C12.5586752,64.0615382 12.961756,64.8481809 14.1753885,67.2723471 C14.6206449,68.1617231 16.8706807,72.6749034 17.4886633,73.9102619 C20.3714323,79.6706252 22.0716022,82.9622261 22.4655838,83.5045513 C23.2572882,84.5943513 23.3583903,85.748298 22.7830044,86.7076403 C22.3876061,87.3668888 21.7206318,87.8357715 21.0704315,88.0457584 C20.8128822,88.1289358 20.5148292,88.2269947 20.1411327,88.3529325 C19.5903799,88.5385392 19.0048205,88.7414691 18.3954713,88.959569 C16.7432639,89.5509314 15.1565059,90.1670827 13.7422992,90.7836879 C10.7551822,92.0860943 9.43616589,92.1094415 8.26775363,90.4908376 C8.08134546,90.232606 7.98562194,90.0748387 7.61349701,89.4367417 C7.08747018,88.0959179 7.01914718,88.0789476 4.27801717,88.4112939 C2.09173723,88.6763677 0.725111844,88.0094792 0.371711753,86.5349787 C0.299956529,86.2355925 0.286614671,86.0208924 0.286614671,85.6506362 C0.286614671,84.3365182 0.473131183,81.3162268 0.805914923,78.4659357 C1.96278902,68.5573148 2.74465136,62.1129947 2.86837755,61.4887558 C3.04962943,60.736805 3.21951718,60.057596 3.39081499,59.3934372 C4.00050355,57.0295422 4.63030043,54.8452072 5.36339662,52.5274853 C6.15998495,50.0090298 10.7570487,36.7381948 12.557478,31.2309588 C14.5037552,25.277597 17.1525017,20.5798951 20.363525,16.9398386 C23.5923116,13.2796453 26.2377618,11.5447339 30.5041877,9.49462275 C30.7530661,9.37503124 30.9563051,9.25946822 31.1160319,9.14939033 C31.3277183,9.00350378 31.4295907,8.89429551 31.4614565,8.82831436 C31.4133909,8.53601639 31.3564964,8.42884156 30.7009923,7.32350429 C30.2893692,6.62940893 30.0332967,6.11869532 29.8417841,5.53211911 C29.3376629,3.98806697 29.6006847,2.71653856 30.6149752,1.96138961 C31.2700085,1.47371101 32.0093143,1.32996576 32.8884948,1.32996576 C32.4631798,1.32996576 49.2868774,1.31044307 60.6295896,1.29938859 C69.7346158,1.29051493 78.5399868,1.28319915 86.8391684,1.27791591 C119.808866,1.25692748 139.635689,1.26994203 140.813103,1.33172431 C143.140963,1.45387377 144.125946,3.18373897 143.853616,5.53076366 C143.613264,7.6021981 141.488661,8.84172381 139.066273,9.17515677 C136.363853,9.18711292 135.613239,9.15504049 132.745621,8.91043989 C131.991083,8.81733198 131.57991,8.81891026 131.414616,8.8637934 C131.384799,8.9780544 131.372704,9.17236142 131.394022,9.44974423 C132.117183,12.5303319 131.638057,13.8690262 129.595677,14.9299732 C129.096348,15.1709582 127.602549,15.86074 121.152209,18.8335192 C116.757721,20.8588155 114.633402,21.8398618 113.435804,22.3994079 C110.080597,23.9670399 104.303631,24.7954732 99.6177029,24.4325143 C95.5754292,24.1194109 93.7489091,24.7982258 90.7655526,27.7254309 C89.5160223,28.9514431 89.1554636,30.3261781 89.1284666,33.330379 C89.123729,33.8575676 89.1238204,34.4495462 89.127816,35.1677041 C89.1297169,35.5093573 89.1321128,35.8302692 89.1364887,36.3592362 C89.1533989,38.4033798 89.1542205,39.0343112 89.1285101,39.538009 C89.1273851,41.0668817 89.0114086,41.9817789 88.4880118,43.1122552 C87.9963761,44.174131 87.205469,45.0936301 86.0787891,45.8410003 C85.6686199,46.0648025 80.1501713,49.6757375 78.2832704,50.8522536 C77.8519372,51.1240787 77.4324005,51.3861113 77.0235238,51.6389025 C75.4162401,52.6326182 73.9918112,53.4725009 72.7516355,54.1494319 C69.4074796,56.2866835 67.2177445,55.8578855 65.5801894,53.4813026 Z M23.8519858,44.0285541 C23.8554827,44.0269074 23.8573801,44.0256399 23.8579224,44.0250896 C23.857406,44.0256136 23.8568883,44.0261385 23.8563692,44.0266641 L23.8519858,44.0285541 Z M67.6882224,52.0287885 C68.0948352,52.6189055 68.4011143,52.8761993 68.7478212,52.9427995 C69.2820139,53.0454145 70.137186,52.7875981 71.4063475,51.9709741 C72.6895437,51.2680925 74.0892312,50.44329 75.6772995,49.4614544 C76.0797388,49.2126432 76.4930803,48.9544799 76.918388,48.6864521 C78.592367,47.6315149 83.845723,44.1958596 84.6850954,43.6934037 C85.4057117,43.2107908 85.8755031,42.661795 86.1649186,42.0366911 C86.4906286,41.3331954 86.5685337,40.7083466 86.5685184,39.5149915 C86.5935555,39.0068905 86.5930885,38.3764476 86.5765763,36.3804131 C86.5721825,35.8492846 86.5697727,35.5265139 86.5678556,35.181947 C86.5637967,34.4524163 86.5637036,33.8488955 86.5685699,33.3073747 C86.6011194,29.6853055 87.1168327,27.7189983 88.9726373,25.8981228 C92.4794235,22.4573398 95.0298629,21.5094849 99.8154012,21.8801594 C104.088741,22.2111604 109.430513,21.4451352 112.352156,20.0800744 C113.555797,19.5177048 115.680234,18.5366043 120.073226,16.5119973 C126.453441,13.571537 128.006594,12.8543477 128.449,12.6414611 C128.934622,12.3890475 129.056664,12.2812095 129.104344,12.1431319 C129.211796,11.8319614 129.170837,11.1555061 128.88224,9.95250474 C128.577535,6.88430951 130.133912,6.01224878 132.987312,6.36175878 C135.727462,6.59532167 136.426148,6.62635231 138.799828,6.62709878 C140.154719,6.42106174 141.248323,5.773091 141.310677,5.23570165 C141.43198,4.19027823 141.277875,3.91963417 140.678957,3.88820722 C139.578768,3.83047718 119.366497,3.81720961 86.8407981,3.83791539 C78.5419292,3.84319844 69.7368401,3.85051398 60.6320846,3.85938737 C49.2911957,3.87044008 32.4649191,3.88996576 32.8884948,3.88996576 C32.5352651,3.88996576 32.2654399,3.9391448 32.1586018,4.00478044 C32.1321818,4.13253714 32.1565687,4.37372903 32.2753615,4.73757483 C32.3953857,5.10519195 32.5793342,5.47206071 32.9029109,6.01768864 C32.954939,6.10542056 33.1547734,6.43793509 33.2006891,6.51523837 C33.3225404,6.72038599 33.4156847,6.88353032 33.5010607,7.04435705 C33.7410032,7.49634778 33.8981367,7.89312264 33.9745995,8.30947666 C34.1869645,9.46584385 33.6974524,10.4794221 32.5687259,11.2572993 C32.2929863,11.4473289 31.9756291,11.6277803 31.6129579,11.8020518 C27.6286621,13.7165932 25.2369057,15.2851299 22.2833169,18.6333553 C19.3063398,22.0080941 16.8303369,26.3994255 14.9907478,32.026445 C13.179411,37.5670449 8.58785584,50.821978 7.80420992,53.2995154 C7.08466749,55.5743863 6.46759135,57.7146018 5.86969343,60.032782 C5.70405159,60.6750114 5.53966719,61.3319133 5.37548298,62.008028 C5.25791708,62.6629514 4.460203,69.2423035 3.3486429,78.7628102 C3.02703417,81.5173873 2.84661477,84.4389465 2.84661477,85.6343356 C3.0381968,85.918784 3.40402297,85.9385131 3.96988838,85.8699051 C6.08743946,85.6131642 6.56051236,85.5840041 7.3889242,85.7897683 C8.55852184,86.0802776 9.33986766,86.877985 9.87612917,88.2348418 C10.1538733,88.7104411 10.2338349,88.840627 10.3434451,88.9924702 C10.8732228,89.1625016 11.542127,88.9502293 12.7191428,88.4370411 C14.1925798,87.7946111 15.8305565,87.1585711 17.5327835,86.5493056 C18.1578016,86.3255975 18.7583039,86.117489 19.3235763,85.926989 C19.7083095,85.7973318 20.0164327,85.6959598 20.2836735,85.6096525 C20.3857671,85.5766806 20.5420852,85.4667891 20.587601,85.3909005 C20.581748,85.3216778 20.5300198,85.1958273 20.3944265,85.0091799 C19.8670872,84.2832847 18.2619906,81.1757496 15.3076606,75.2724393 C14.5800674,73.8180118 12.3302726,69.3053149 11.8862404,68.4183843 C11.3880363,67.4232483 11.0211001,66.6956405 10.7541049,66.1745791 C10.6097259,65.8928126 10.4959639,65.6742213 10.4134401,65.5200776 C9.42847637,64.1798131 9.0652115,61.4944188 9.82578516,58.7281829 C9.98895344,58.1347336 10.1515899,57.4747338 10.3244739,56.714803 C10.5030516,55.9298454 11.0443083,53.3797619 11.0630324,53.294283 C11.3290077,52.0800575 11.5128114,51.3732856 11.7152551,50.8977303 C12.5448855,48.3540022 13.842326,46.6901771 16.2084969,45.8253476 C17.3124486,45.3525218 18.6475945,44.5841282 20.0275277,43.6650875 C20.9646389,43.0409679 21.9516501,42.3123025 22.0344416,42.228282 C22.2090047,42.0511274 22.3864219,41.9036794 22.6292811,41.7677146 C23.0183984,41.5498673 23.4618936,41.4420869 23.9407537,41.4961503 C24.9727534,41.6126632 25.818315,42.4150396 26.5424751,43.8539511 C26.7637446,44.2936152 27.0011568,44.7825929 27.266496,45.3427476 C27.3590866,45.5382145 27.4550529,45.7422915 27.5568091,45.9599718 C27.6890342,46.2428323 28.628871,48.2749507 28.8632803,48.7693853 C29.2503979,49.5859243 29.5154796,50.0951379 29.6020213,50.208445 C30.0852239,50.8536039 29.9898875,50.8157437 30.5057441,50.568719 C31.382789,50.2967882 32.3019383,49.9834687 33.4385971,49.5672438 C33.6047916,49.5063862 33.7753158,49.4434465 33.9507332,49.3782438 C34.598891,49.1373233 37.380027,48.0721486 37.6526639,47.9847037 C38.0924092,47.8436608 38.223929,47.6825916 38.1400644,47.2736326 C38.0877108,47.0183351 38.0329306,46.7261796 37.9659602,46.3502372 C37.9271092,46.1321445 37.7875955,45.3326692 37.78983,45.3453939 C37.5574373,44.022016 37.4018579,43.2921252 37.2783149,42.9886392 C37.0464052,42.418948 29.9736667,28.7160504 28.9681439,26.8190714 C28.6273614,26.176165 28.3362838,25.399907 28.2186303,24.5279803 C28.024019,23.085722 28.387394,21.7460953 29.4972271,20.7408517 C30.1605742,20.1400177 31.7114194,18.5177454 34.2893504,15.753927 C34.7494841,15.2604743 36.9692668,12.8745186 37.5134985,12.2922997 C38.5589145,11.173914 39.1590177,10.5441785 39.4505544,10.2673996 C41.021985,8.79511154 43.3474662,8.65591563 45.4350845,9.45242721 L45.7626587,9.63642855 C46.7165526,10.3753508 47.4351809,11.4138739 47.9242437,12.7241273 C60.3626236,37.7777445 67.1145456,51.1962117 67.6882224,52.0287885 Z M10.343523,65.3798803 C10.3464081,65.3836401 10.3496376,65.3878498 10.3532514,65.3925608 C10.3517559,65.3906112 10.3502618,65.3886577 10.3487692,65.3867003 L10.343523,65.3798803 Z M10.5013807,89.1768147 C10.4979945,89.1747862 10.4950788,89.1732776 10.494669,89.1721345 C10.497234,89.1741198 10.4994701,89.1756702 10.5013807,89.1768147 Z" id="Path-54" fill="#F2F2F2" fill-rule="nonzero"></path>
                <path d="M72.4254682,53.5983275 C69.3595336,55.5645715 67.5507616,55.2132178 66.1071977,53.118174 C65.4457404,52.1582015 58.8834897,39.1164339 46.1739471,13.5163322 C45.7881209,12.4692466 45.2920657,11.7275626 44.6603938,11.212723 C43.2174182,10.6898625 41.6927019,10.7977402 40.7663864,11.6655948 C40.5218784,11.8977585 39.9258223,12.523247 38.91613,13.6034156 C38.3737568,14.1836463 36.1551263,16.5683635 35.7906908,16.9592013 C33.0601298,19.8866721 31.5094816,21.5087383 30.7861623,22.1638928 C30.1971962,22.6973553 30.0047489,23.4068361 30.1213862,24.2712318 C30.2036677,24.8810175 30.4207003,25.4598091 30.6645579,25.9198611 C31.7311895,27.9321254 38.7866421,41.6015326 39.0566158,42.264729 C39.2553703,42.7529738 39.4176972,43.51452 39.6808937,45.0133124 C39.679188,45.0035991 39.8180523,45.7993532 39.8562021,46.0135095 C39.9205069,46.3744882 39.9725315,46.6519474 40.0209236,46.8879275 C40.3319306,48.4045273 39.5164165,49.4032686 38.2390567,49.8129661 C38.0257807,49.8813718 35.3247375,50.9158709 34.619681,51.1779406 C34.4414281,51.2441973 34.2679974,51.3082098 34.0987971,51.3701681 C32.9502934,51.7907304 32.0116951,52.1113331 31.2862481,52.3234755 C29.8588497,52.9908463 29.0357714,52.6554919 28.2279645,51.5764952 C27.8714248,51.1057854 27.587864,50.5610741 27.1283799,49.5918941 C26.8892841,49.0875744 25.94625,47.0485428 25.8174646,46.7730405 C25.7170278,46.5581827 25.6224359,46.3570286 25.5313227,46.1646804 C25.2720446,45.6173213 25.0410474,45.141556 24.8274237,44.7170841 C24.3647167,43.797682 23.9801976,43.4328013 23.7253539,43.4040295 C22.6995113,44.2888577 19.1139953,46.676825 16.8954152,47.6185771 C15.1329502,48.2538605 14.1904186,49.4702069 13.5227709,51.5482209 C13.3591228,51.91967 13.1858688,52.5761216 12.9385632,53.7051167 C12.922511,53.778398 12.3789317,56.3394238 12.1966371,57.1407196 C12.0178885,57.9264287 11.8486938,58.6130428 11.6770837,59.2371955 C11.3339249,60.4852771 11.2594257,61.6495568 11.3980478,62.6691389 C11.4980806,63.4048921 11.7108598,64.0078163 11.876671,64.223975 C12.0096537,64.3973371 12.4741695,65.3038751 13.6031014,67.5588564 C14.0480518,68.447621 16.2980274,72.9606805 16.9162861,74.196591 C19.8440719,80.0469063 21.5204735,83.2924908 21.9477945,83.8807084 C22.5946303,84.7710934 22.6715617,85.6491637 22.2341536,86.3784554 C21.9262259,86.8918639 21.3869156,87.2709988 20.873742,87.4367319 C20.6137698,87.5206918 20.3131993,87.6195789 19.9367436,87.7464466 C19.3823609,87.9332766 18.7930658,88.1375012 18.1797993,88.3570032 C16.515087,88.9528413 14.9155244,89.5739648 13.4865101,90.1970262 C10.7452531,91.3922357 9.72085706,91.410368 8.7866765,90.1162458 C8.61785298,89.8823742 8.52535443,89.7299221 8.16635257,89.1143278 C7.54459324,87.4954159 7.20678762,87.4115104 4.20098497,87.7759467 C2.30466559,88.0058645 1.26021529,87.4961916 0.994085576,86.3858116 C0.93767436,86.1504456 0.92661471,85.9723957 0.92661471,85.6508465 C0.92661471,84.3621253 1.11160693,81.3665169 1.44159692,78.5401543 C2.59057548,68.6991587 3.37788317,62.2099565 3.50199553,61.5867202 C3.67086809,60.8906615 3.8400105,60.2144324 4.0105346,59.5532734 C4.6172755,57.2008071 5.2438922,55.0275019 5.97359995,52.7204929 C6.76695267,50.2122669 11.3626393,36.9454073 13.1657955,31.4298304 C15.0854006,25.5580541 17.6909612,20.9369448 20.8434729,17.3632178 C24.0034602,13.7810165 26.5854869,12.0876987 30.7813802,10.07148 C31.0587068,9.9382185 31.2904754,9.80643339 31.4792054,9.67636757 C32.0170432,9.30570935 32.1535418,9.02307682 32.0861805,8.65628177 C32.0219673,8.30662897 31.9696227,8.20802488 31.2514719,6.99705038 C30.8618604,6.34007188 30.6238189,5.86531948 30.4501784,5.33348304 C30.0245023,4.02969683 30.2276414,3.04765998 30.9971689,2.47473932 C31.5121443,2.09133522 32.1363676,1.96996576 32.8884948,1.96996576 C32.4636147,1.96996576 49.287957,1.95044232 60.6302134,1.93938828 C69.7351719,1.93051469 78.5404724,1.92319897 86.8395758,1.91791578 C119.698274,1.89699801 139.621459,1.91007582 140.779566,1.97084504 C142.675191,2.07031387 143.452454,3.43537378 143.217881,5.45699816 C143.021713,7.14764229 141.143996,8.24313136 138.979003,8.54113484 C136.382042,8.54711292 135.649575,8.51581588 132.775216,8.27015273 C130.973134,8.04544257 130.640427,8.216827 130.760005,9.54957755 C131.437056,12.3985349 131.068649,13.4437041 129.317504,14.3535883 C128.823909,14.5918056 127.315272,15.2884393 120.884331,18.2522778 C116.488349,20.2782627 114.364,21.2593226 113.164892,21.8195745 C109.918076,23.3365638 104.249908,24.149395 99.6671275,23.7944255 C95.4390376,23.4669294 93.4315377,24.2130043 90.3173238,27.2686039 C88.9162249,28.6433319 88.5168775,30.1659599 88.4884924,33.324628 C88.4837227,33.8553995 88.4838145,34.4502637 88.4878259,35.1712648 C88.4897308,35.5136464 88.4921303,35.8350231 88.4965106,36.3645305 C88.51362,38.4327585 88.5140766,39.0491599 88.4885183,39.5042558 C88.4885371,40.9703691 88.3831824,41.8153806 87.9072385,42.8433642 C87.4654434,43.7975901 86.7532059,44.6256288 85.7250108,45.3076703 C85.3387079,45.5152643 79.7804484,49.1522492 77.9420498,50.3108032 C77.512223,50.581679 77.0942351,50.8427443 76.6869677,51.0945405 C75.0802349,52.0879156 73.6586904,52.9258529 72.4254682,53.5983275 Z M67.1612142,52.391917 C68.2130898,53.9185036 69.252149,54.1181003 71.7526527,52.5091866 C73.0073758,51.8237539 74.4166165,50.993322 76.0138556,50.0058165 C76.4179042,49.7560103 76.8327945,49.4968796 77.2596086,49.2279025 C78.9978364,48.1324758 84.4079177,44.5934666 85.0346706,44.2295501 C85.8563493,43.6806934 86.4059455,43.0393949 86.7456919,42.3055822 C87.1214799,41.4939238 87.2085348,40.7956875 87.2085184,39.5149833 C87.2337292,39.0209803 87.2332657,38.3952179 87.2165544,36.3751189 C87.2121651,35.8445308 87.2097587,35.5222247 87.2078457,35.1783863 C87.2038026,34.4516988 87.20371,33.8510635 87.2085441,33.3131258 C87.2397054,29.8455237 87.7166301,28.0271095 89.4208662,26.3549498 C92.7967949,23.0425613 95.1662545,22.1619664 99.7659767,22.5182481 C104.142463,22.8572386 109.593034,22.0756114 112.623068,20.6599078 C113.825198,20.098244 115.949606,19.1171571 120.341104,17.0932386 C126.740718,14.1438377 128.279032,13.4335003 128.744165,13.2093323 C129.915883,12.6003034 130.069133,12.1565045 129.504583,9.80320637 C129.262277,7.32400587 130.413329,6.68572502 132.9088,6.99738664 C135.705184,7.23591118 136.409898,7.26674436 138.846925,7.26710959 C140.478345,7.03206672 141.839537,6.23055036 141.946412,5.30946716 C142.105471,3.93864341 141.743647,3.30319407 140.712493,3.24908649 C139.592998,3.19034339 119.477089,3.17713907 86.8403907,3.19791552 C78.5414436,3.20319861 69.736284,3.21051422 60.6314608,3.21938768 C49.2901162,3.23044083 32.4644843,3.24996576 32.8884948,3.24996576 C32.3904744,3.24996576 31.9964159,3.32658363 31.7615565,3.50143873 C31.4815546,3.70990283 31.398181,4.11295656 31.6669672,4.9362109 C31.8048634,5.35856779 32.0068429,5.76139777 32.3524312,6.34414255 C33.1958752,7.76639153 33.2391202,7.84785413 33.3451265,8.42507836 C33.5091569,9.31825484 33.137316,10.0881845 32.2055524,10.730322 C31.958816,10.9003638 31.6699883,11.064593 31.3357654,11.2251945 C27.2809371,13.1736284 24.8257572,14.7837587 21.8033689,18.2099762 C18.7678803,21.6510444 16.2486915,26.1189684 14.3824303,31.8275735 C12.5738204,37.3598324 7.98088812,50.6187409 7.1940066,53.1065079 C6.47107572,55.3920915 5.8508194,57.5433369 5.24997382,59.8729458 C5.08099712,60.5281052 4.91334541,61.1983744 4.75174039,61.8620444 C4.64434677,62.4038802 3.84614839,68.9828464 2.71296091,78.6885915 C2.38855843,81.4670972 2.20661477,84.4133394 2.20661477,85.6343356 C2.20661477,85.8754023 2.21311002,85.9801518 2.23883322,86.0874774 C2.33042218,86.4696164 2.73052232,86.664858 4.04692058,86.5052523 C6.05980267,86.2612019 6.51821675,86.2329453 7.23464631,86.4108949 C8.19431055,86.6492601 8.8314248,87.3079923 9.2983003,88.514476 C9.60946744,89.0477245 9.69445119,89.1868744 9.82452223,89.3670621 C10.2902394,90.012221 10.725395,90.0045185 12.9749319,89.0237028 C14.4335614,88.387729 16.0587334,87.7566612 17.7484555,87.1518714 C18.3695563,86.9295654 18.9663229,86.7227515 19.5279654,86.5334749 C19.9099395,86.4047475 20.215545,86.3042038 20.480363,86.218679 C20.7194833,86.1414533 21.0034654,85.941814 21.1364519,85.7200854 C21.2979046,85.4508949 21.2693146,85.1245777 20.9122158,84.6330227 C20.418216,83.9530201 18.789351,80.7994685 15.8799902,74.9860152 C15.1527207,73.5322347 12.9028656,69.0194169 12.4585274,68.131875 C11.4989966,66.2152633 10.9116107,65.068935 10.8610579,65.0030322 C10.0686708,63.9700417 9.73105217,61.4868161 10.4428847,58.8978538 C10.6088669,58.29417 10.7736894,57.6252988 10.9485283,56.8567752 C11.1283449,56.0663715 11.6703759,53.5126406 11.6882093,53.4312275 C11.9498716,52.2366918 12.1307958,51.5455584 12.3147467,51.1237569 C13.0927184,48.7219387 14.2779857,47.201425 16.4280771,46.4274785 C17.5809102,45.9375548 18.9593796,45.1454272 20.3822914,44.1977626 C21.3569636,43.5486271 22.3657812,42.8038631 22.4903118,42.6774839 C22.626211,42.5395672 22.7613776,42.4272328 22.9419235,42.3261542 C23.2207902,42.1700306 23.5329301,42.0941729 23.8689538,42.13211 C24.6419015,42.2193759 25.3337822,42.8759204 25.9707913,44.1416621 C26.1895122,44.5762621 26.4247861,45.0608357 26.6881049,45.6167252 C26.780203,45.8111525 26.8757112,46.0142552 26.9770276,46.2309947 C27.1081062,46.5114025 28.0490087,48.5458253 28.2849802,49.0435549 C28.69622,49.9109742 28.9674613,50.4320204 29.093405,50.5969157 C29.7384565,51.4583072 29.9524244,51.5432785 30.7821585,51.1459496 C31.5780669,50.9065357 32.5092498,50.5891142 33.6586638,50.1682186 C33.8258602,50.1069941 33.9973532,50.0436967 34.1737158,49.9781427 C34.8408398,49.7301725 37.5952782,48.675223 37.8481282,48.5941245 C38.5670783,48.36353 38.9265962,47.9232368 38.7670174,47.1450642 C38.7159844,46.8962059 38.6621227,46.6089491 38.5960408,46.2379946 C38.5574235,46.0212141 38.4181263,45.2229792 38.4201845,45.2347 C38.1775239,43.8528507 38.0196954,43.1124081 37.8710819,42.7473358 C37.6264842,42.1464762 30.5595077,28.4547421 29.5336152,26.5193346 C29.2251411,25.9373797 28.9587451,25.2269438 28.8528822,24.4423974 C28.6842623,23.19276 28.9906614,22.0631819 29.9268721,21.2151987 C30.61021,20.5962579 32.1609895,18.9740543 34.7573636,16.1904629 C35.2180315,15.6964374 37.4374301,13.3108945 37.9810424,12.7293383 C39.0145505,11.6236916 39.6133046,10.9953718 39.8881299,10.7344411 C41.2520033,9.4566153 43.3254239,9.33250694 45.2069402,10.0503822 C46.232085,10.8096231 46.8862,11.7597522 47.335993,12.9784901 C59.8677423,38.2203243 66.5582136,51.5167826 67.1612142,52.391917 Z" id="Path-54" fill="url(#linearGradient-1)" fill-rule="nonzero"></path>
                <path d="M17.642956,21.666737 L18.7269913,22.3473746 C17.0294496,25.0510089 15.5698709,28.1953757 14.3824303,31.8275735 C12.5738204,37.3598324 7.98088812,50.6187409 7.1940066,53.1065079 C6.47107572,55.3920915 5.8508194,57.5433369 5.24997382,59.8729458 C5.08099712,60.5281052 4.91334541,61.1983744 4.75174039,61.8620444 C4.64434677,62.4038802 3.84614839,68.9828464 2.71296091,78.6885915 L1.44159692,78.5401543 C2.59057548,68.6991587 3.37788317,62.2099565 3.50199553,61.5867202 C3.67086809,60.8906615 3.8400105,60.2144324 4.0105346,59.5532734 C4.6172755,57.2008071 5.2438922,55.0275019 5.97359995,52.7204929 C6.76695267,50.2122669 11.3626393,36.9454073 13.1657955,31.4298304 C14.3852364,27.6997484 15.8889521,24.4602974 17.642956,21.666737 Z" id="Path" fill="#FFA019" fill-rule="nonzero"></path>
                <path d="M28.2279645,51.5764952 C28.0978872,51.4023968 28.0978872,51.4023968 28.0761725,51.3738571 C27.8714248,51.1057854 27.587864,50.5610741 27.1283799,49.5918941 C26.8892841,49.0875744 25.94625,47.0485428 25.8174646,46.7730405 C25.7170278,46.5581827 25.6224359,46.3570286 25.5313227,46.1646804 C25.2720446,45.6173213 25.0410474,45.141556 24.8274237,44.7170841 C24.3647167,43.797682 23.9801976,43.4328013 23.7253539,43.4040295 C23.6294467,43.3932015 23.5237665,43.4523666 23.4020522,43.5758877 C22.6995113,44.2888577 19.1139953,46.676825 16.8954152,47.6185771 C15.1329502,48.2538605 14.1904186,49.4702069 13.5227709,51.5482209 C13.3591228,51.91967 13.1858688,52.5761216 12.9385632,53.7051167 C12.922511,53.778398 12.3789317,56.3394238 12.1966371,57.1407196 C12.0178885,57.9264287 11.8486938,58.6130428 11.6770837,59.2371955 C11.3339249,60.4852771 11.2594257,61.6495568 11.3980478,62.6691389 C11.4980806,63.4048921 11.7108598,64.0078163 11.876671,64.223975 C12.0096537,64.3973371 12.4741695,65.3038751 13.6031014,67.5588564 C14.0480518,68.447621 16.2980274,72.9606805 16.9162861,74.196591 C16.9704646,74.3048876 16.9704646,74.3048876 17.0246495,74.4131669 C19.8440719,80.0469063 21.5204735,83.2924908 21.9477945,83.8807084 C22.5946303,84.7710934 22.6715617,85.6491637 22.2341536,86.3784554 C21.9262259,86.8918639 21.3869156,87.2709988 20.873742,87.4367319 C20.6137698,87.5206918 20.3131993,87.6195789 19.9367436,87.7464466 C19.3823609,87.9332766 18.7930658,88.1375012 18.1797993,88.3570032 C16.515087,88.9528413 14.9155244,89.5739648 13.4865101,90.1970262 C10.7452531,91.3922357 9.72085706,91.410368 8.7866765,90.1162458 C8.61785298,89.8823742 8.52535443,89.7299221 8.16635257,89.1143278 C7.54459324,87.4954159 7.20678762,87.4115104 4.20098497,87.7759467 C2.30466559,88.0058645 1.26021529,87.4961916 0.994085576,86.3858116 C0.93767436,86.1504456 0.92661471,85.9723957 0.92661471,85.6508465 L2.20661911,85.6343356 C2.20654173,85.8754023 2.21311002,85.9801518 2.23883322,86.0874774 C2.33042218,86.4696164 2.73052232,86.664858 4.04692058,86.5052523 C6.05980267,86.2612019 6.51821675,86.2329453 7.23464631,86.4108949 C8.19431055,86.6492601 8.8314248,87.3079923 9.2983003,88.514476 C9.60946744,89.0477245 9.69445119,89.1868744 9.82452223,89.3670621 C10.2902394,90.012221 10.725395,90.0045185 12.9749319,89.0237028 C14.4335614,88.387729 16.0587334,87.7566612 17.7484555,87.1518714 C18.3695563,86.9295654 18.9663229,86.7227515 19.5279654,86.5334749 C19.9099395,86.4047475 20.215545,86.3042038 20.480363,86.218679 C20.7194833,86.1414533 21.0034654,85.941814 21.1364519,85.7200854 C21.2979046,85.4508949 21.2693146,85.1245777 20.9122158,84.6330227 C20.418216,83.9530201 18.789351,80.7994685 15.8799902,74.9860152 C15.8257568,74.8776389 15.8257568,74.8776389 15.7715317,74.7692492 C15.1527207,73.5322347 12.9028656,69.0194169 12.4585274,68.131875 C11.4989966,66.2152633 10.9116107,65.068935 10.8610579,65.0030322 C10.0686708,63.9700417 9.73105217,61.4868161 10.4428847,58.8978538 C10.6088669,58.29417 10.7736894,57.6252988 10.9485283,56.8567752 C11.1283449,56.0663715 11.6703759,53.5126406 11.6882093,53.4312275 C11.9498716,52.2366918 12.1307958,51.5455584 12.3147467,51.1237569 C13.0927184,48.7219387 14.2779857,47.201425 16.4280771,46.4274785 C17.5809102,45.9375548 18.9593796,45.1454272 20.3822914,44.1977626 C21.3569636,43.5486271 22.3657812,42.8038631 22.4903118,42.6774839 C22.626211,42.5395672 22.7613776,42.4272328 22.9419235,42.3261542 C23.2207902,42.1700306 23.5329301,42.0941729 23.8689538,42.13211 C24.6419015,42.2193759 25.3337822,42.8759204 25.9707913,44.1416621 C26.1895122,44.5762621 26.4247861,45.0608357 26.6881049,45.6167252 C26.780203,45.8111525 26.8757112,46.0142552 26.9770276,46.2309947 C27.1081062,46.5114025 28.0490087,48.5458253 28.2849802,49.0435549 C28.69622,49.9109742 28.9674613,50.4320204 29.093405,50.5969157 C29.165365,50.6922824 29.2385919,50.7906325 29.2526207,50.809371 C29.7384565,51.4583072 29.9524244,51.5432785 30.7821585,51.1459496 C31.5780669,50.9065357 32.5092498,50.5891142 33.6586638,50.1682186 C33.8258602,50.1069941 33.9973532,50.0436967 34.1737158,49.9781427 C34.8408398,49.7301725 37.5952782,48.675223 37.8481282,48.5941245 C38.5670783,48.36353 38.9265962,47.9232368 38.7670174,47.1450642 C38.7159844,46.8962059 38.6621227,46.6089491 38.5960408,46.2379946 C38.5574235,46.0212141 38.4181263,45.2229792 38.4201845,45.2347 C38.1775239,43.8528507 38.0196954,43.1124081 37.8710819,42.7473358 C37.6264842,42.1464762 30.5595077,28.4547421 29.5336152,26.5193346 C29.2251411,25.9373797 28.9587451,25.2269438 28.8528822,24.4423974 C28.6842623,23.19276 28.9906614,22.0631819 29.9268721,21.2151987 C30.61021,20.5962579 32.1609895,18.9740543 34.7573636,16.1904629 C35.2180315,15.6964374 37.4374301,13.3108945 37.9810424,12.7293383 C39.0145505,11.6236916 39.6133046,10.9953718 39.8881299,10.7344411 C41.2520033,9.4566153 43.3254239,9.33250694 45.2069402,10.0503822 L45.3707274,10.1423829 C46.2320734,10.8096141 46.8861824,11.7597267 47.3359748,12.9784409 C49.1736267,16.6784117 50.5146154,19.3772336 51.3589163,21.0748572 L50.2128339,21.644853 C49.3660197,19.942176 48.0197477,17.2327165 46.173993,13.5164247 C45.7881209,12.4692466 45.2920657,11.7275626 44.6603938,11.212723 C43.2174182,10.6898625 41.6927019,10.7977402 40.7663864,11.6655948 C40.5218784,11.8977585 39.9258223,12.523247 38.91613,13.6034156 C38.3737568,14.1836463 36.1551263,16.5683635 35.7906908,16.9592013 C33.0601298,19.8866721 31.5094816,21.5087383 30.7861623,22.1638928 C30.1971962,22.6973553 30.0047489,23.4068361 30.1213862,24.2712318 C30.2036677,24.8810175 30.4207003,25.4598091 30.6645579,25.9198611 C31.7311895,27.9321254 38.7866421,41.6015326 39.0566158,42.264729 C39.2553703,42.7529738 39.4176972,43.51452 39.6808937,45.0133124 C39.679188,45.0035991 39.8180523,45.7993532 39.8562021,46.0135095 C39.9205069,46.3744882 39.9725315,46.6519474 40.0209236,46.8879275 C40.3319306,48.4045273 39.5164165,49.4032686 38.2390567,49.8129661 C38.0257807,49.8813718 35.3247375,50.9158709 34.619681,51.1779406 C34.4414281,51.2441973 34.2679974,51.3082098 34.0987971,51.3701681 C32.9502934,51.7907304 32.0116951,52.1113331 31.2862481,52.3234755 C29.8588497,52.9908463 29.0357714,52.6554919 28.2279645,51.5764952 Z" id="Path" fill-opacity="0.37" fill="#000000" fill-rule="nonzero"></path>
                <path d="M32.8884948,1.96996576 C32.4636147,1.96996576 49.287957,1.95044232 60.6302134,1.93938828 C69.7351719,1.93051469 78.5404724,1.92319897 86.8395758,1.91791578 C94.4108919,1.9130959 101.384689,1.91008803 107.645066,1.90913621 L107.645066,3.18913619 C101.385109,3.19008798 94.4115129,3.19309576 86.8403907,3.19791552 C78.5414436,3.20319861 69.736284,3.21051422 60.6314608,3.21938768 C49.5719731,3.23016613 33.2974038,3.24900052 32.8884948,3.24993001 L32.8884948,1.96996576 Z" id="Path" fill="#FFA019" fill-rule="nonzero"></path>
                <path d="M1.44159692,78.5401543 L2.71296091,78.6885915 C2.38855843,81.4670972 2.20661911,84.4133394 2.20661911,85.6343356 L0.926619107,85.6343356 C0.926619107,84.3621253 1.11160693,81.3665169 1.44159692,78.5401543 Z" id="Path" fill="#FF9219" fill-rule="nonzero"></path>
                <path d="M32.8884948,1.96996576 L32.8884948,3.24996576 C32.3904744,3.24996576 31.9964159,3.32658363 31.7615565,3.50143873 C31.4815546,3.70990283 31.398181,4.11295656 31.6669672,4.9362109 C31.8048634,5.35856779 32.0068429,5.76139777 32.3524312,6.34414255 C33.1958752,7.76639153 33.2391202,7.84785413 33.3451265,8.42507836 C33.5091569,9.31825484 33.137316,10.0881845 32.2055524,10.730322 C31.958816,10.9003638 31.6699883,11.064593 31.3357654,11.2251945 C27.2809371,13.1736284 24.8257572,14.7837587 21.8033689,18.2099762 C20.7134692,19.4455002 19.6858635,20.8202016 18.7269913,22.3473746 L17.642956,21.666737 C18.6386802,20.0808707 19.70781,18.6506196 20.8434729,17.3632178 C24.0034602,13.7810165 26.5854869,12.0876987 30.7813802,10.07148 C31.0587068,9.9382185 31.2904754,9.80643339 31.4792054,9.67636757 C32.0170432,9.30570935 32.1535418,9.02307682 32.0861805,8.65628177 C32.0219673,8.30662897 31.9696227,8.20802488 31.2514719,6.99705038 C30.8618604,6.34007188 30.6238189,5.86531948 30.4501784,5.33348304 C30.0245023,4.02969683 30.2276414,3.04765998 30.9971689,2.47473932 C31.5121443,2.09133522 32.1363676,1.96996576 32.8884948,1.96996576 Z" id="Path" fill-opacity="0.2" fill="#000000" fill-rule="nonzero"></path>
                <path d="M129.317504,14.3535883 C129.10873,14.4543464 128.507409,14.7344676 127.515378,15.1935326 L126.977821,14.0318818 C127.96099,13.5769178 128.561637,13.2971104 128.744165,13.2093323 C129.915883,12.6003034 130.069133,12.1565045 129.504583,9.80320637 L129.489804,9.71454795 C129.262277,7.32400587 130.413329,6.68572502 132.9088,6.99738664 C135.705184,7.23591118 136.409898,7.26674436 138.846925,7.26710959 C140.478345,7.03206672 141.839537,6.23055036 141.946412,5.30946716 C142.105471,3.93864341 141.743647,3.30319407 140.712493,3.24908649 C139.868244,3.2047863 127.964643,3.18604672 107.644871,3.18913619 L107.644871,1.90913621 C128.125474,1.90602225 139.897386,1.92455451 140.779566,1.97084504 C142.675191,2.07031387 143.452454,3.43537378 143.217881,5.45699816 C143.021713,7.14764229 141.143996,8.24313136 138.979003,8.54113484 C136.382042,8.54711292 135.649575,8.51581588 132.775216,8.27015273 C130.973134,8.04544257 130.640427,8.216827 130.760005,9.54957755 C131.437056,12.3985349 131.068649,13.4437041 129.317504,14.3535883 Z" id="Path-54" fill-opacity="0.2" fill="#000000" fill-rule="nonzero"></path>
                <g id="Group-6" transform="translate(50.773333, 21.120000) rotate(-27.000000) translate(-50.773333, -21.120000) translate(49.706667, 20.053333)">
                    <rect id="Rectangle-2" fill="#000000" x="0" y="0" width="1" height="1"></rect>
                    <rect id="Rectangle-2-Copy-4" fill="#FFFFFF" x="0" y="0.64" width="1" height="1"></rect>
                    <rect id="Rectangle-2-Copy-7" fill="#000000" x="0" y="1.28" width="1" height="1"></rect>
                    <rect id="Rectangle-2-Copy" fill="#FFFFFF" x="0.64" y="0" width="1" height="1"></rect>
                    <rect id="Rectangle-2-Copy-5" fill="#000000" x="0.64" y="0.64" width="1" height="1"></rect>
                    <rect id="Rectangle-2-Copy-9" fill="#FFFFFF" x="0.64" y="1.28" width="1" height="1"></rect>
                    <rect id="Rectangle-2-Copy-3" fill="#000000" x="1.28" y="0" width="1" height="1"></rect>
                    <rect id="Rectangle-2-Copy-6" fill="#FFFFFF" x="1.28" y="0.64" width="1" height="1"></rect>
                    <rect id="Rectangle-2-Copy-10" fill="#000000" x="1.28" y="1.28" width="1" height="1"></rect>
                </g>
                <g id="Group-Copy-8" transform="translate(25.600000, 9.813333)">
                    <circle id="Oval-Copy-2" fill-opacity="0.7" fill="#FFFFFF" cx="2.56" cy="2.56" r="2.56"></circle>
                    <circle id="Oval-Copy-2" fill-opacity="0.2" fill="#FFB819" cx="2.56" cy="2.56" r="2.56"></circle>
                    <circle id="Oval" stroke="#FFB819" stroke-width="0.5" fill="#FFFFFF" cx="2.56" cy="2.56" r="1.70666667"></circle>
                    <circle id="Oval-Copy" fill="#FFB819" cx="2.56" cy="2.56" r="1"></circle>
                </g>
                <g id="Group-Copy-8" transform="translate(136.960000, 5.120000)">
                    <circle id="Oval-Copy-2" fill-opacity="0.7" fill="#FFFFFF" cx="2.56" cy="2.56" r="2.56"></circle>
                    <circle id="Oval-Copy-2" fill-opacity="0.2" fill="#FFB819" cx="2.56" cy="2.56" r="2.56"></circle>
                    <circle id="Oval" stroke="#FFB819" stroke-width="0.5" fill="#FFFFFF" cx="2.56" cy="2.56" r="1.70666667"></circle>
                    <circle id="Oval-Copy" fill="#FFB819" cx="2.56" cy="2.56" r="1"></circle>
                </g>
                <g id="Group-Copy-7" transform="translate(43.946667, 0.000000)">
                    <circle id="Oval-Copy-2" fill-opacity="0.7" fill="#FFFFFF" cx="2.56" cy="2.56" r="2.56"></circle>
                    <circle id="Oval-Copy-2" fill-opacity="0.2" fill="#D0021B" cx="2.56" cy="2.56" r="2.56"></circle>
                    <circle id="Oval" stroke="#D0021B" stroke-width="0.5" fill="#FFFFFF" cx="2.56" cy="2.56" r="1.70666667"></circle>
                    <circle id="Oval-Copy" fill="#D0021B" cx="2.56" cy="2.56" r="1"></circle>
                </g>
                <path d="M96.5746163,34.5779167 L97.1829496,34.5779167 C97.2121163,34.8216667 97.4579496,34.9779167 97.8121163,34.9779167 C98.1391996,34.9779167 98.3704496,34.8195833 98.3704496,34.5925 C98.3704496,34.4008333 98.2204496,34.2904167 97.8516996,34.21125 L97.460033,34.1279167 C96.9121163,34.0133333 96.6433663,33.7279167 96.6433663,33.2695833 C96.6433663,32.7029167 97.0996163,32.33 97.7933663,32.33 C98.4558663,32.33 98.9246163,32.7008333 98.9433663,33.23625 L98.3516996,33.23625 C98.322533,32.99875 98.1016996,32.8404167 97.797533,32.8404167 C97.4829496,32.8404167 97.2746163,32.98625 97.2746163,33.2154167 C97.2746163,33.4008333 97.4183663,33.5070833 97.7704496,33.5820833 L98.1329496,33.6591667 C98.7371163,33.78625 98.997533,34.0466667 98.997533,34.5133333 C98.997533,35.1195833 98.5329496,35.4904167 97.778783,35.4904167 C97.0621163,35.4904167 96.597533,35.1383333 96.5746163,34.5779167 Z M100.25795,35.4133333 L100.25795,33.0195833 L100.22045,33.0195833 L99.4829496,33.5279167 L99.4829496,32.9425 L100.260033,32.4070833 L100.887116,32.4070833 L100.887116,35.4133333 L100.25795,35.4133333 Z M95.4883663,38.2041667 L95.3616996,38.2041667 C95.2183663,38.025 95.1366996,37.7591667 95.1366996,37.4733333 C95.1366996,37.1883333 95.2058663,36.9816667 95.370033,36.7716667 L95.4908663,36.7716667 C95.370033,36.9133333 95.2841996,37.2041667 95.2841996,37.4733333 C95.2841996,37.7333333 95.3466996,37.9558333 95.4883663,38.2041667 Z M95.690033,37.6591667 L95.8416996,37.6591667 C95.860033,37.785 95.980033,37.865 96.1508663,37.865 C96.312533,37.865 96.4316996,37.7775 96.4316996,37.6583333 C96.4316996,37.5558333 96.3566996,37.4908333 96.1908663,37.4491667 L96.0366996,37.4091667 C95.8191996,37.3541667 95.725033,37.2558333 95.725033,37.085 C95.725033,36.8808333 95.8958663,36.7425 96.150033,36.7425 C96.382533,36.7425 96.5558663,36.8808333 96.5683663,37.075 L96.417533,37.075 C96.3966996,36.9516667 96.295033,36.8783333 96.145033,36.8783333 C95.985033,36.8783333 95.8791996,36.9583333 95.8791996,37.08 C95.8791996,37.1741667 95.945033,37.2283333 96.1108663,37.2708333 L96.2366996,37.3041667 C96.4858663,37.3666667 96.5858663,37.4633333 96.5858663,37.64 C96.5858663,37.8608333 96.4116996,38.0016667 96.1366996,38.0016667 C95.8816996,38.0016667 95.7058663,37.8666667 95.690033,37.6591667 Z M97.175033,37.1858333 C97.0316996,37.1858333 96.9316996,37.2908333 96.9208663,37.45 L97.4158663,37.45 C97.412533,37.2908333 97.317533,37.1858333 97.175033,37.1858333 Z M97.4116996,37.7408333 L97.555033,37.7408333 C97.5116996,37.895 97.3733663,37.9891667 97.1766996,37.9891667 C96.927533,37.9891667 96.7716996,37.8091667 96.7716996,37.525 C96.7716996,37.2425 96.930033,37.0591667 97.1766996,37.0591667 C97.4191996,37.0591667 97.5666996,37.2316667 97.5666996,37.5108333 L97.5666996,37.5658333 L96.9208663,37.5658333 L96.9208663,37.5725 C96.9283663,37.75 97.027533,37.8625 97.180033,37.8625 C97.2958663,37.8625 97.3741996,37.82 97.4116996,37.7408333 Z M98.535033,37.35 L98.390033,37.35 C98.3666996,37.2608333 98.287533,37.1883333 98.1583663,37.1883333 C97.9966996,37.1883333 97.895033,37.3175 97.895033,37.5208333 C97.895033,37.7283333 97.9983663,37.86 98.1583663,37.86 C98.2791996,37.86 98.3633663,37.8041667 98.390033,37.7025 L98.535033,37.7025 C98.5091996,37.8675 98.375033,37.9891667 98.1591996,37.9891667 C97.907533,37.9891667 97.7466996,37.8066667 97.7466996,37.5208333 C97.7466996,37.2408333 97.9066996,37.0591667 98.1583663,37.0591667 C98.3766996,37.0591667 98.510033,37.19 98.535033,37.35 Z M98.8066996,36.8425 L98.950033,36.8425 L98.950033,37.075 L99.150033,37.075 L99.150033,37.195 L98.950033,37.195 L98.950033,37.7033333 C98.950033,37.8091667 98.990033,37.8541667 99.0833663,37.8541667 C99.1091996,37.8541667 99.1233663,37.8533333 99.150033,37.8508333 L99.150033,37.9716667 C99.1216996,37.9766667 99.0941996,37.98 99.0658663,37.98 C98.8808663,37.98 98.8066996,37.9116667 98.8066996,37.74 L98.8066996,37.195 L98.6616996,37.195 L98.6616996,37.075 L98.8066996,37.075 L98.8066996,36.8425 Z M99.7358663,37.86 C99.9058663,37.86 100.0017,37.7366667 100.0017,37.5241667 C100.0017,37.3108333 99.9058663,37.1883333 99.7358663,37.1883333 C99.5658663,37.1883333 99.470033,37.3108333 99.470033,37.5241667 C99.470033,37.7366667 99.5658663,37.86 99.7358663,37.86 Z M99.7358663,37.9891667 C99.480033,37.9891667 99.3216996,37.8125 99.3216996,37.5241667 C99.3216996,37.235 99.480033,37.0591667 99.7358663,37.0591667 C99.9916996,37.0591667 100.150033,37.235 100.150033,37.5241667 C100.150033,37.8125 99.9916996,37.9891667 99.7358663,37.9891667 Z M100.375033,37.9733333 L100.375033,37.075 L100.5117,37.075 L100.5117,37.2083333 L100.525033,37.2083333 C100.5517,37.1208333 100.655033,37.0591667 100.7742,37.0591667 C100.797533,37.0591667 100.827533,37.0608333 100.845866,37.0633333 L100.845866,37.2066667 C100.8342,37.2033333 100.782533,37.1983333 100.7542,37.1983333 C100.617533,37.1983333 100.518366,37.29 100.518366,37.4166667 L100.518366,37.9733333 L100.375033,37.9733333 Z M101.793366,37.9733333 L101.793366,36.9375 L101.780033,36.9375 L101.4742,37.1591667 L101.4742,37.0008333 L101.7942,36.7708333 L101.943366,36.7708333 L101.943366,37.9733333 L101.793366,37.9733333 Z M102.272533,38.2041667 C102.4142,37.9558333 102.4767,37.7333333 102.4767,37.4733333 C102.4767,37.2025 102.3917,36.9125 102.270866,36.7716667 L102.392533,36.7716667 C102.5567,36.9816667 102.625033,37.1883333 102.625033,37.4733333 C102.625033,37.7575 102.543366,38.0233333 102.400033,38.2041667 L102.272533,38.2041667 Z" id="S1-(Sector-1)-Copy" fill="#C6C6C6"></path>
                <path d="M3.28315797,21.35125 L3.89149131,21.35125 C3.92065797,21.595 4.16649131,21.75125 4.52065797,21.75125 C4.84774131,21.75125 5.07899131,21.5929167 5.07899131,21.3658333 C5.07899131,21.1741667 4.92899131,21.06375 4.56024131,20.9845833 L4.16857464,20.90125 C3.62065797,20.7866667 3.35190797,20.50125 3.35190797,20.0429167 C3.35190797,19.47625 3.80815797,19.1033333 4.50190797,19.1033333 C5.16440797,19.1033333 5.63315797,19.4741667 5.65190797,20.0095833 L5.06024131,20.0095833 C5.03107464,19.7720833 4.81024131,19.61375 4.50607464,19.61375 C4.19149131,19.61375 3.98315797,19.7595833 3.98315797,19.98875 C3.98315797,20.1741667 4.12690797,20.2804167 4.47899131,20.3554167 L4.84149131,20.4325 C5.44565797,20.5595833 5.70607464,20.82 5.70607464,21.2866667 C5.70607464,21.8929167 5.24149131,22.26375 4.48732464,22.26375 C3.77065797,22.26375 3.30607464,21.9116667 3.28315797,21.35125 Z M6.20399131,20.0804167 C6.20399131,19.4991667 6.64982464,19.1033333 7.29982464,19.1033333 C7.92690797,19.1033333 8.36440797,19.46375 8.36440797,19.9804167 C8.36440797,20.3075 8.18732464,20.58875 7.66649131,21.0783333 L7.09149131,21.62625 L7.09149131,21.66375 L8.40815797,21.66375 L8.40815797,22.1866667 L6.23940797,22.1866667 L6.23940797,21.7470833 L7.22065797,20.7866667 C7.64357464,20.3741667 7.74982464,20.2179167 7.74982464,20.0220833 C7.74982464,19.7804167 7.55399131,19.6095833 7.27899131,19.6095833 C6.98732464,19.6095833 6.78732464,19.80125 6.78732464,20.0783333 L6.78732464,20.0908333 L6.20399131,20.0908333 L6.20399131,20.0804167 Z M2.35753297,24.9775 L2.23086631,24.9775 C2.08753297,24.7983333 2.00586631,24.5325 2.00586631,24.2466667 C2.00586631,23.9616667 2.07503297,23.755 2.23919964,23.545 L2.36003297,23.545 C2.23919964,23.6866667 2.15336631,23.9775 2.15336631,24.2466667 C2.15336631,24.5066667 2.21586631,24.7291667 2.35753297,24.9775 Z M2.55919964,24.4325 L2.71086631,24.4325 C2.72919964,24.5583333 2.84919964,24.6383333 3.02003297,24.6383333 C3.18169964,24.6383333 3.30086631,24.5508333 3.30086631,24.4316667 C3.30086631,24.3291667 3.22586631,24.2641667 3.06003297,24.2225 L2.90586631,24.1825 C2.68836631,24.1275 2.59419964,24.0291667 2.59419964,23.8583333 C2.59419964,23.6541667 2.76503297,23.5158333 3.01919964,23.5158333 C3.25169964,23.5158333 3.42503297,23.6541667 3.43753297,23.8483333 L3.28669964,23.8483333 C3.26586631,23.725 3.16419964,23.6516667 3.01419964,23.6516667 C2.85419964,23.6516667 2.74836631,23.7316667 2.74836631,23.8533333 C2.74836631,23.9475 2.81419964,24.0016667 2.98003297,24.0441667 L3.10586631,24.0775 C3.35503297,24.14 3.45503297,24.2366667 3.45503297,24.4133333 C3.45503297,24.6341667 3.28086631,24.775 3.00586631,24.775 C2.75086631,24.775 2.57503297,24.64 2.55919964,24.4325 Z M4.04419964,23.9591667 C3.90086631,23.9591667 3.80086631,24.0641667 3.79003297,24.2233333 L4.28503297,24.2233333 C4.28169964,24.0641667 4.18669964,23.9591667 4.04419964,23.9591667 Z M4.28086631,24.5141667 L4.42419964,24.5141667 C4.38086631,24.6683333 4.24253297,24.7625 4.04586631,24.7625 C3.79669964,24.7625 3.64086631,24.5825 3.64086631,24.2983333 C3.64086631,24.0158333 3.79919964,23.8325 4.04586631,23.8325 C4.28836631,23.8325 4.43586631,24.005 4.43586631,24.2841667 L4.43586631,24.3391667 L3.79003297,24.3391667 L3.79003297,24.3458333 C3.79753297,24.5233333 3.89669964,24.6358333 4.04919964,24.6358333 C4.16503297,24.6358333 4.24336631,24.5933333 4.28086631,24.5141667 Z M5.40419964,24.1233333 L5.25919964,24.1233333 C5.23586631,24.0341667 5.15669964,23.9616667 5.02753297,23.9616667 C4.86586631,23.9616667 4.76419964,24.0908333 4.76419964,24.2941667 C4.76419964,24.5016667 4.86753297,24.6333333 5.02753297,24.6333333 C5.14836631,24.6333333 5.23253297,24.5775 5.25919964,24.4758333 L5.40419964,24.4758333 C5.37836631,24.6408333 5.24419964,24.7625 5.02836631,24.7625 C4.77669964,24.7625 4.61586631,24.58 4.61586631,24.2941667 C4.61586631,24.0141667 4.77586631,23.8325 5.02753297,23.8325 C5.24586631,23.8325 5.37919964,23.9633333 5.40419964,24.1233333 Z M5.67586631,23.6158333 L5.81919964,23.6158333 L5.81919964,23.8483333 L6.01919964,23.8483333 L6.01919964,23.9683333 L5.81919964,23.9683333 L5.81919964,24.4766667 C5.81919964,24.5825 5.85919964,24.6275 5.95253297,24.6275 C5.97836631,24.6275 5.99253297,24.6266667 6.01919964,24.6241667 L6.01919964,24.745 C5.99086631,24.75 5.96336631,24.7533333 5.93503297,24.7533333 C5.75003297,24.7533333 5.67586631,24.685 5.67586631,24.5133333 L5.67586631,23.9683333 L5.53086631,23.9683333 L5.53086631,23.8483333 L5.67586631,23.8483333 L5.67586631,23.6158333 Z M6.60503297,24.6333333 C6.77503297,24.6333333 6.87086631,24.51 6.87086631,24.2975 C6.87086631,24.0841667 6.77503297,23.9616667 6.60503297,23.9616667 C6.43503297,23.9616667 6.33919964,24.0841667 6.33919964,24.2975 C6.33919964,24.51 6.43503297,24.6333333 6.60503297,24.6333333 Z M6.60503297,24.7625 C6.34919964,24.7625 6.19086631,24.5858333 6.19086631,24.2975 C6.19086631,24.0083333 6.34919964,23.8325 6.60503297,23.8325 C6.86086631,23.8325 7.01919964,24.0083333 7.01919964,24.2975 C7.01919964,24.5858333 6.86086631,24.7625 6.60503297,24.7625 Z M7.24419964,24.7466667 L7.24419964,23.8483333 L7.38086631,23.8483333 L7.38086631,23.9816667 L7.39419964,23.9816667 C7.42086631,23.8941667 7.52419964,23.8325 7.64336631,23.8325 C7.66669964,23.8325 7.69669964,23.8341667 7.71503297,23.8366667 L7.71503297,23.98 C7.70336631,23.9766667 7.65169964,23.9716667 7.62336631,23.9716667 C7.48669964,23.9716667 7.38753297,24.0633333 7.38753297,24.19 L7.38753297,24.7466667 L7.24419964,24.7466667 Z M8.36753297,23.8825 C8.36753297,23.6691667 8.52919964,23.5158333 8.75253297,23.5158333 C8.96836631,23.5158333 9.13336631,23.6625 9.13336631,23.8533333 C9.13336631,23.9783333 9.07669964,24.0758333 8.87919964,24.2875 L8.59003297,24.5983333 L8.59003297,24.6116667 L9.15336631,24.6116667 L9.15336631,24.7466667 L8.37503297,24.7466667 L8.37503297,24.6433333 L8.79086631,24.1891667 C8.94586631,24.0208333 8.98336631,23.9558333 8.98336631,23.8591667 C8.98336631,23.7391667 8.88086631,23.6466667 8.74836631,23.6466667 C8.60753297,23.6466667 8.51253297,23.7408333 8.51253297,23.8825 L8.51253297,23.8833333 L8.36753297,23.8833333 L8.36753297,23.8825 Z M9.37669964,24.9775 C9.51836631,24.7291667 9.58086631,24.5066667 9.58086631,24.2466667 C9.58086631,23.9758333 9.49586631,23.6858333 9.37503297,23.545 L9.49669964,23.545 C9.66086631,23.755 9.72919964,23.9616667 9.72919964,24.2466667 C9.72919964,24.5308333 9.64753297,24.7966667 9.50419964,24.9775 L9.37669964,24.9775 Z" id="S2-(Sector-2)-Copy" fill="#999999"></path>
                <path d="M20.295658,69.99125 L20.9039913,69.99125 C20.933158,70.235 21.1789913,70.39125 21.533158,70.39125 C21.8602413,70.39125 22.0914913,70.2329167 22.0914913,70.0058333 C22.0914913,69.8141667 21.9414913,69.70375 21.5727413,69.6245833 L21.1810746,69.54125 C20.633158,69.4266667 20.364408,69.14125 20.364408,68.6829167 C20.364408,68.11625 20.820658,67.7433333 21.514408,67.7433333 C22.176908,67.7433333 22.645658,68.1141667 22.664408,68.6495833 L22.0727413,68.6495833 C22.0435746,68.4120833 21.8227413,68.25375 21.5185746,68.25375 C21.2039913,68.25375 20.995658,68.3995833 20.995658,68.62875 C20.995658,68.8141667 21.139408,68.9204167 21.4914913,68.9954167 L21.8539913,69.0725 C22.458158,69.1995833 22.7185746,69.46 22.7185746,69.9266667 C22.7185746,70.5329167 22.2539913,70.90375 21.4998246,70.90375 C20.783158,70.90375 20.3185746,70.5516667 20.295658,69.99125 Z M23.9852413,69.5225 L23.9852413,69.05375 L24.351908,69.05375 C24.6373246,69.05375 24.8310746,68.8870833 24.8310746,68.64125 C24.8310746,68.3995833 24.6435746,68.2454167 24.3498246,68.2454167 C24.058158,68.2454167 23.864408,68.41 23.8477413,68.6704167 L23.2664913,68.6704167 C23.2873246,68.1016667 23.7102413,67.7433333 24.3664913,67.7433333 C24.983158,67.7433333 25.426908,68.0808333 25.426908,68.55375 C25.426908,68.9016667 25.208158,69.1725 24.8727413,69.24125 L24.8727413,69.27875 C25.2852413,69.3245833 25.5435746,69.5995833 25.5435746,69.9954167 C25.5435746,70.5225 25.0477413,70.90375 24.3623246,70.90375 C23.6914913,70.90375 23.2373246,70.5329167 23.2102413,69.96625 L23.8123246,69.96625 C23.8310746,70.2204167 24.045658,70.3808333 24.3685746,70.3808333 C24.683158,70.3808333 24.901908,70.20375 24.901908,69.9475 C24.901908,69.685 24.695658,69.5225 24.358158,69.5225 L23.9852413,69.5225 Z M19.4046163,73.6175 L19.2779496,73.6175 C19.1346163,73.4383333 19.0529496,73.1725 19.0529496,72.8866667 C19.0529496,72.6016667 19.1221163,72.395 19.286283,72.185 L19.4071163,72.185 C19.286283,72.3266667 19.2004496,72.6175 19.2004496,72.8866667 C19.2004496,73.1466667 19.2629496,73.3691667 19.4046163,73.6175 Z M19.606283,73.0725 L19.7579496,73.0725 C19.776283,73.1983333 19.896283,73.2783333 20.0671163,73.2783333 C20.228783,73.2783333 20.3479496,73.1908333 20.3479496,73.0716667 C20.3479496,72.9691667 20.2729496,72.9041667 20.1071163,72.8625 L19.9529496,72.8225 C19.7354496,72.7675 19.641283,72.6691667 19.641283,72.4983333 C19.641283,72.2941667 19.8121163,72.1558333 20.066283,72.1558333 C20.298783,72.1558333 20.4721163,72.2941667 20.4846163,72.4883333 L20.333783,72.4883333 C20.3129496,72.365 20.211283,72.2916667 20.061283,72.2916667 C19.901283,72.2916667 19.7954496,72.3716667 19.7954496,72.4933333 C19.7954496,72.5875 19.861283,72.6416667 20.0271163,72.6841667 L20.1529496,72.7175 C20.4021163,72.78 20.5021163,72.8766667 20.5021163,73.0533333 C20.5021163,73.2741667 20.3279496,73.415 20.0529496,73.415 C19.7979496,73.415 19.6221163,73.28 19.606283,73.0725 Z M21.091283,72.5991667 C20.9479496,72.5991667 20.8479496,72.7041667 20.8371163,72.8633333 L21.3321163,72.8633333 C21.328783,72.7041667 21.233783,72.5991667 21.091283,72.5991667 Z M21.3279496,73.1541667 L21.471283,73.1541667 C21.4279496,73.3083333 21.2896163,73.4025 21.0929496,73.4025 C20.843783,73.4025 20.6879496,73.2225 20.6879496,72.9383333 C20.6879496,72.6558333 20.846283,72.4725 21.0929496,72.4725 C21.3354496,72.4725 21.4829496,72.645 21.4829496,72.9241667 L21.4829496,72.9791667 L20.8371163,72.9791667 L20.8371163,72.9858333 C20.8446163,73.1633333 20.943783,73.2758333 21.096283,73.2758333 C21.2121163,73.2758333 21.2904496,73.2333333 21.3279496,73.1541667 Z M22.451283,72.7633333 L22.306283,72.7633333 C22.2829496,72.6741667 22.203783,72.6016667 22.0746163,72.6016667 C21.9129496,72.6016667 21.811283,72.7308333 21.811283,72.9341667 C21.811283,73.1416667 21.9146163,73.2733333 22.0746163,73.2733333 C22.1954496,73.2733333 22.2796163,73.2175 22.306283,73.1158333 L22.451283,73.1158333 C22.4254496,73.2808333 22.291283,73.4025 22.0754496,73.4025 C21.823783,73.4025 21.6629496,73.22 21.6629496,72.9341667 C21.6629496,72.6541667 21.8229496,72.4725 22.0746163,72.4725 C22.2929496,72.4725 22.426283,72.6033333 22.451283,72.7633333 Z M22.7229496,72.2558333 L22.866283,72.2558333 L22.866283,72.4883333 L23.066283,72.4883333 L23.066283,72.6083333 L22.866283,72.6083333 L22.866283,73.1166667 C22.866283,73.2225 22.906283,73.2675 22.9996163,73.2675 C23.0254496,73.2675 23.0396163,73.2666667 23.066283,73.2641667 L23.066283,73.385 C23.0379496,73.39 23.0104496,73.3933333 22.9821163,73.3933333 C22.7971163,73.3933333 22.7229496,73.325 22.7229496,73.1533333 L22.7229496,72.6083333 L22.5779496,72.6083333 L22.5779496,72.4883333 L22.7229496,72.4883333 L22.7229496,72.2558333 Z M23.6521163,73.2733333 C23.8221163,73.2733333 23.9179496,73.15 23.9179496,72.9375 C23.9179496,72.7241667 23.8221163,72.6016667 23.6521163,72.6016667 C23.4821163,72.6016667 23.386283,72.7241667 23.386283,72.9375 C23.386283,73.15 23.4821163,73.2733333 23.6521163,73.2733333 Z M23.6521163,73.4025 C23.396283,73.4025 23.2379496,73.2258333 23.2379496,72.9375 C23.2379496,72.6483333 23.396283,72.4725 23.6521163,72.4725 C23.9079496,72.4725 24.066283,72.6483333 24.066283,72.9375 C24.066283,73.2258333 23.9079496,73.4025 23.6521163,73.4025 Z M24.291283,73.3866667 L24.291283,72.4883333 L24.4279496,72.4883333 L24.4279496,72.6216667 L24.441283,72.6216667 C24.4679496,72.5341667 24.571283,72.4725 24.6904496,72.4725 C24.713783,72.4725 24.743783,72.4741667 24.7621163,72.4766667 L24.7621163,72.62 C24.7504496,72.6166667 24.698783,72.6116667 24.6704496,72.6116667 C24.533783,72.6116667 24.4346163,72.7033333 24.4346163,72.83 L24.4346163,73.3866667 L24.291283,73.3866667 Z M25.6679496,72.8325 L25.6679496,72.7041667 L25.813783,72.7041667 C25.9504496,72.7041667 26.0471163,72.6158333 26.0471163,72.4908333 C26.0471163,72.3683333 25.9546163,72.2866667 25.816283,72.2866667 C25.6779496,72.2866667 25.5871163,72.3633333 25.5746163,72.4925 L25.428783,72.4925 C25.443783,72.2841667 25.5929496,72.1558333 25.8221163,72.1558333 C26.0321163,72.1558333 26.1996163,72.2958333 26.1996163,72.4708333 C26.1996163,72.6141667 26.1204496,72.7191667 25.988783,72.7508333 L25.988783,72.7641667 C26.1521163,72.785 26.251283,72.8983333 26.251283,73.0625 C26.251283,73.2608333 26.0654496,73.415 25.8279496,73.415 C25.583783,73.415 25.4154496,73.2791667 25.4046163,73.0733333 L25.5496163,73.0733333 C25.5629496,73.2016667 25.671283,73.2841667 25.826283,73.2841667 C25.9846163,73.2841667 26.0971163,73.19 26.0971163,73.0583333 C26.0971163,72.9191667 25.991283,72.8325 25.8204496,72.8325 L25.6679496,72.8325 Z M26.4629496,73.6175 C26.6046163,73.3691667 26.6671163,73.1466667 26.6671163,72.8866667 C26.6671163,72.6158333 26.5821163,72.3258333 26.461283,72.185 L26.5829496,72.185 C26.7471163,72.395 26.8154496,72.6016667 26.8154496,72.8866667 C26.8154496,73.1708333 26.733783,73.4366667 26.5904496,73.6175 L26.4629496,73.6175 Z" id="S3-(Sector-3)-Copy" fill="#666666"></path>
            </g>
        </g>
    </g>
</svg>