<?xml version="1.0" encoding="UTF-8"?>
<svg width="160px" height="96px" viewBox="0 0 160 96" version="1.1" xmlns="http://www.w3.org/2000/svg" xmlns:xlink="http://www.w3.org/1999/xlink">
    <!-- Generator: Sketch 58 (84663) - https://sketch.com -->
    <title>circuit-gs-Hungararing-L-Eng</title>
    <desc>Created with Sketch.</desc>
    <defs>
        <linearGradient x1="50%" y1="23.3035083%" x2="50%" y2="112.667183%" id="linearGradient-1">
            <stop stop-color="#1B94E2" offset="0%"></stop>
            <stop stop-color="#40D8AB" offset="100%"></stop>
        </linearGradient>
    </defs>
    <g id="circuit-gs-Hungararing-L-Eng" stroke="none" stroke-width="1" fill="none" fill-rule="evenodd">
        <g id="Hungary-Circuit">
            <g id="Group-5" transform="translate(40.106667, 5.973333)">
                <path d="M2.14811027,24.0046495 L2.97188973,23.7820171 L6.12065772,35.4330183 C5.61153389,60.6111377 5.40705211,73.7888819 5.50849901,74.5909729 C5.67398858,75.8994179 6.54796894,76.6242774 8.57330079,76.6242774 C10.5715439,76.6242774 12.1032378,75.2465792 13.1871632,72.3907589 L13.9849644,72.6935641 C12.7871477,75.8494539 10.9769996,77.4776108 8.57330079,77.4776108 C6.12867569,77.4776108 4.88277086,76.4442855 4.66191012,74.6980478 C4.55170812,73.8267344 4.75191027,60.9184062 5.26503107,35.5378104 L2.14811027,24.0046495 Z" id="Path-31" fill="#E6E6E6" fill-rule="nonzero"></path>
                <path d="M25.1325736,83.0247849 C20.9347126,82.4768629 19.3548791,79.2144709 19.9907058,75.1966738 C20.1019214,74.4939012 20.2917775,73.6344616 20.6123688,72.331918 C20.6571819,72.1498448 21.312354,69.5384973 21.5157096,68.6969727 C22.008965,66.6557872 22.3676019,64.96542 22.6304379,63.3501265 C22.7018804,62.9110678 22.7650308,62.4833829 22.8197179,62.0663589 C23.4138869,57.5354411 21.6130925,53.5661825 19.1822119,53.1475976 C16.8362881,52.7436418 15.7818842,53.5405404 15.3210227,55.8558492 C15.0081833,58.0180814 14.9283211,63.5479101 14.9283211,73.952041 C14.9283211,76.9224845 13.8642934,79.0423244 11.978172,80.2968405 C10.6226742,81.1984229 9.02198754,81.55436 7.38480368,81.55436 C3.48215282,81.30033 1.74948203,79.4254506 1.45985001,76.3735458 C1.41207965,75.870181 1.40294909,75.4777455 1.40397244,74.6644111 C1.40411099,74.250081 1.38736589,62.7051145 1.38018407,56.9951692 C1.37276353,51.0954235 1.36682693,45.5103307 1.36267423,40.2439085 C1.34739934,20.8723703 1.35802699,8.56405946 1.40437159,6.26770143 C1.46926638,3.05218738 3.14311827,1.27328408 5.70075427,1.73319938 C7.62536867,2.07928443 9.81406541,3.73358587 11.5857604,6.06650329 C13.9670615,8.98526914 14.7054147,11.7950358 14.9267588,16.2708727 C14.9974898,17.7011362 14.9607767,20.1506539 14.8113761,26.4868268 C14.6972445,31.3266619 14.6605817,33.2171004 14.6605817,34.9238058 C14.6605817,39.2119057 15.817453,41.324002 18.1054254,41.324002 C19.3466084,41.4048515 20.2128142,40.7563831 20.9267006,39.1026026 C21.2462406,38.2708256 21.7819001,36.7374181 22.542277,34.4766966 C23.7203641,31.3164738 25.2282454,29.2637477 27.3093673,27.9286023 C29.0148155,26.8344707 30.8048415,26.298926 34.215394,25.6670806 C34.3469257,25.6427128 36.498661,25.2535465 37.1744109,25.1249201 C48.4450439,23.4191819 51.8042777,22.9022103 57.830034,21.9326609 C59.3233966,21.604696 60.444176,21.4583484 61.6642631,21.4131258 C62.165801,21.3945363 62.5390267,21.3922952 63.5090346,21.3957458 C63.8045889,21.3967972 63.960089,21.3971952 64.14567,21.3971952 C66.0088827,21.4923122 66.725883,21.1151335 67.8435709,19.8007762 C67.8971607,19.7377567 68.4346317,19.0927564 68.6114498,18.8884794 C68.7272084,18.7547443 69.3180641,18.0771162 69.4568631,17.9146273 C70.1000075,17.1575526 70.6734712,16.4115552 73.6410593,12.4788581 C76.2710302,9.43809895 77.4911694,8.83113825 80.5401953,8.83113825 C83.0957634,8.83113825 84.6807873,10.3783923 85.4452501,12.7777249 C85.6241054,13.3390775 85.7509655,13.9229524 85.8429678,14.5431013 C85.8774057,14.7752333 85.9056245,15.0029056 85.9317109,15.2479726 C85.9463628,15.385619 85.9832712,15.764325 85.9819176,15.7509867 C86.1617551,17.5231507 86.4039117,20.0598302 86.6082982,22.4183425 C86.9164303,25.9740246 87.0962298,28.6143171 87.0962298,29.9462873 C87.0962298,31.6464554 86.8243872,32.6911369 86.0298923,33.3641385 C85.3469687,33.9426301 84.8246283,34.0150018 83.340486,34.0123055 C82.4551131,34.0121093 82.2347301,34.1007497 81.91468,34.4485294 C81.7186099,34.6615872 81.7187102,34.6614457 80.9818245,35.6760136 C79.898318,37.167809 78.8914434,38.5659874 75.5685812,43.1918302 C75.1722308,43.6287292 74.9467664,43.9118231 74.775188,44.1809782 C74.1933634,45.093687 74.1482023,45.9849863 74.6561277,47.5536873 C75.1120787,48.9618684 74.9193022,48.5494452 78.1545497,55.2398181 C79.4215239,59.6942811 78.6406511,61.3538382 74.2612262,63.2109227 C72.2897781,63.9380049 70.9633016,64.4319162 69.2113342,65.090198 C68.9049132,65.20534 67.9260931,65.573425 67.937437,65.5691601 C67.4224628,65.762771 67.0106947,65.9174082 66.581835,66.078175 C65.4742653,66.4933699 64.3630702,66.9079429 63.0893386,67.3805041 C61.058266,68.1762113 59.8609376,69.2029434 59.1308354,70.6176168 C58.5230819,71.7952229 58.2473312,73.0451542 57.8908005,75.7877974 C57.8737406,75.9190321 57.8137237,76.3837117 57.8129513,76.3896792 C57.781197,76.6349976 57.7565021,76.8237799 57.7317304,77.0097047 C57.667938,77.488499 57.609821,77.9003184 57.551738,78.2788475 C57.0527495,81.9952541 55.4304926,84.1112069 52.5822091,84.9069575 C50.5528768,85.4739103 49.1292868,85.4294182 43.4173756,84.9090747 C42.9119916,84.8630352 42.4999139,84.8266414 42.0983925,84.7929948 C34.6171984,84.4612528 30.93579,84.0943269 25.1325736,83.0247849 Z M7.42671695,78.9942743 C10.4082431,78.9820521 12.3683211,77.6610737 12.3683211,73.952041 C12.3683211,63.2229737 12.4474792,57.7890148 12.7928511,55.4520242 C13.5179298,51.741978 15.8318116,49.9730001 19.616637,50.6247272 C23.6834533,51.3250118 26.1090941,56.6715388 25.3579858,62.3992187 C25.299782,62.8430598 25.2327874,63.2967798 25.157206,63.7612752 C24.8823486,65.4504474 24.5112537,67.1995329 24.0040856,69.2982922 C23.7975573,70.1529459 23.1405306,72.7716851 23.0981823,72.943744 C22.7939192,74.1799471 22.6160216,74.9852529 22.5192394,75.5968208 C22.0812357,78.3645721 22.9599384,80.1703445 25.4906012,80.4897438 C31.2625148,81.5526333 34.8328086,81.9087473 42.2367652,82.2366143 C42.7034227,82.2746449 43.1279891,82.3121116 43.6496247,82.3596316 C48.9464855,82.8421648 50.3066366,82.8846742 51.8933765,82.4413724 C53.6909403,81.9391709 54.6442596,80.6957311 55.0178221,77.9150818 C55.0764573,77.531533 55.1323705,77.1353295 55.1941544,76.6716098 C55.2184348,76.4893728 55.2427513,76.3034832 55.2741319,76.0610516 C55.2747842,76.0560121 55.3349395,75.590261 55.3521606,75.4577862 C55.7465711,72.423749 56.0666443,70.9729114 56.8559326,69.4435568 C57.8823857,67.4546626 59.5650243,66.0117677 62.1770144,64.9886982 C63.4696009,64.508918 64.578208,64.0953105 65.6832318,63.68107 C66.1112196,63.5206301 66.5222677,63.3662632 67.0365396,63.1729164 C67.0249271,63.1772822 68.0040763,62.8090735 68.2767447,62.7066141 C70.0590783,62.036922 71.3862859,61.5427084 73.2902176,60.8420136 C76.4095761,59.517588 76.6050284,59.1532781 75.7999482,56.2510566 C72.4998791,49.4267886 72.7312629,49.9193892 72.2206137,48.3422756 C71.4952259,46.1019532 71.579891,44.4310023 72.6164972,42.8048772 C72.8665389,42.4126366 73.171498,42.0257086 73.5376341,41.6311613 C76.824807,37.0550367 77.8286757,35.6610943 78.9105123,34.171598 C79.7515598,33.0136255 79.7317277,33.0401365 80.0309471,32.7149924 C80.856558,31.8178495 81.7658824,31.4521093 83.1762664,31.4521093 C84.1277758,31.4537316 84.3510825,31.4249599 84.3740767,31.4115536 C84.4958423,30.963994 84.5362298,30.5400537 84.5362298,29.9462873 C84.5362298,28.7169617 84.3589966,26.1143546 84.0578569,22.6393613 C83.854671,20.2947026 83.6136617,17.7700413 83.4349981,16.0094457 C83.3034074,14.7127175 83.2410533,14.2924147 83.0060655,13.5548852 C82.5462421,12.1116898 81.8081012,11.3911383 80.5401953,11.3911383 C78.2770574,11.3911383 77.7432261,11.6516721 75.6584385,14.0554553 C72.6714579,18.01377 72.0967067,18.7612136 71.4577239,19.5135586 C71.2545418,19.7515992 70.6552886,20.4388579 70.5470541,20.5639006 C70.3893136,20.7461373 69.8619061,21.3790607 69.793781,21.4591733 C68.2048304,23.327717 66.7676749,24.0881141 64.1132149,23.9571911 C63.9375406,23.9571465 63.7811859,23.9567301 63.4999279,23.9557296 C62.5656982,23.9524062 62.2136645,23.9545201 61.7590845,23.9713692 C60.6859784,24.0111439 59.7095368,24.1394504 58.3453532,24.4405157 C52.2183667,25.428603 48.862686,25.945117 37.6290239,27.6443423 C36.9146379,27.7798676 34.8014908,28.1620607 34.6817292,28.1842479 C28.6591223,29.3000075 26.7468232,30.5268445 24.9549796,35.3315177 C24.1902599,37.6072862 23.6425652,39.1743589 23.3067728,40.0457399 C22.1845764,42.6660529 20.3973915,44.023192 18.0629985,43.8838796 C13.9752343,43.8602584 12.1005817,40.4188009 12.1005817,34.9238058 C12.1005817,33.187949 12.1373568,31.2917163 12.2500006,26.5149807 C12.3987581,20.2060905 12.4358506,17.7312516 12.3698834,16.3973181 C12.1726811,12.409655 11.5574179,10.0747278 9.58916349,7.66890625 C8.13735281,5.75318425 6.43875905,4.46696776 5.24768077,4.25278752 C4.41326721,4.10274288 3.99971558,4.54224913 3.9638504,6.31935626 C3.91808845,8.58684452 3.90743848,20.9209976 3.92267344,40.2418898 C3.92682578,45.5078728 3.93276197,51.092577 3.94018205,56.9919493 C3.94736058,62.6992773 3.96411099,74.2479095 3.96411099,74.5011106 C3.96304886,75.4000626 3.97087042,75.7362367 4.00839911,76.1316833 C4.1834916,77.9766644 4.95688413,78.8228568 7.42671695,78.9942743 Z M84.3752248,31.410763 C84.374756,31.4111601 84.374374,31.4114272 84.3740767,31.4115536 C84.3745396,31.4112837 84.3749214,31.4110201 84.3752248,31.410763 Z" id="Path-30" fill="#EBEBEB" fill-rule="nonzero"></path>
                <path d="M25.1325736,81.7447849 C20.9347126,81.1968629 19.3548791,77.9344709 19.9907058,73.9166738 C20.1019214,73.2139012 20.2917775,72.3544616 20.6123688,71.051918 C20.6571819,70.8698448 21.312354,68.2584973 21.5157096,67.4169727 C22.008965,65.3757872 22.3676019,63.68542 22.6304379,62.0701265 C22.7018804,61.6310678 22.7650308,61.2033829 22.8197179,60.7863589 C23.4138869,56.2554411 21.6130925,52.2861825 19.1822119,51.8675976 C16.8362881,51.4636418 15.7818842,52.2605404 15.3210227,54.5758492 C15.0081833,56.7380814 14.9283211,62.2679101 14.9283211,72.672041 C14.9283211,75.6424845 13.8642934,77.7623244 11.978172,79.0168405 C10.6226742,79.9184229 9.02198754,80.27436 7.38480368,80.27436 C3.48215282,80.02033 1.74948203,78.1454506 1.45985001,75.0935458 C1.41207965,74.590181 1.40294909,74.1977455 1.40397244,73.3844111 C1.40411099,72.970081 1.38736589,61.4251145 1.38018407,55.7151692 C1.37276353,49.8154235 1.36682693,44.2303307 1.36267423,38.9639085 C1.34739934,19.5923703 1.35802699,7.28405946 1.40437159,4.98770143 C1.46926638,1.77218738 3.14311827,-0.00671591591 5.70075427,0.453199375 C7.62536867,0.799284427 9.81406541,2.45358587 11.5857604,4.78650329 C13.9670615,7.70526914 14.7054147,10.5150358 14.9267588,14.9908727 C14.9974898,16.4211362 14.9607767,18.8706539 14.8113761,25.2068268 C14.6972445,30.0466619 14.6605817,31.9371004 14.6605817,33.6438058 C14.6605817,37.9319057 15.817453,40.044002 18.1054254,40.044002 C19.3466084,40.1248515 20.2128142,39.4763831 20.9267006,37.8226026 C21.2462406,36.9908256 21.7819001,35.4574181 22.542277,33.1966966 C23.7203641,30.0364738 25.2282454,27.9837477 27.3093673,26.6486023 C29.0148155,25.5544707 30.8048415,25.018926 34.215394,24.3870806 C34.3469257,24.3627128 36.498661,23.9735465 37.1744109,23.8449201 C48.4450439,22.1391819 51.8042777,21.6222103 57.830034,20.6526609 C59.3233966,20.324696 60.444176,20.1783484 61.6642631,20.1331258 C62.165801,20.1145363 62.5390267,20.1122952 63.5090346,20.1157458 C63.8045889,20.1167972 63.960089,20.1171952 64.14567,20.1171952 C66.0088827,20.2123122 66.725883,19.8351335 67.8435709,18.5207762 C67.8971607,18.4577567 68.4346317,17.8127564 68.6114498,17.6084794 C68.7272084,17.4747443 69.3180641,16.7971162 69.4568631,16.6346273 C70.1000075,15.8775526 70.6734712,15.1315552 73.6410593,11.1988581 C76.2710302,8.15809895 77.4911694,7.55113825 80.5401953,7.55113825 C83.0957634,7.55113825 84.6807873,9.09839226 85.4452501,11.4977249 C85.6241054,12.0590775 85.7509655,12.6429524 85.8429678,13.2631013 C85.8774057,13.4952333 85.9056245,13.7229056 85.9317109,13.9679726 C85.9463628,14.105619 85.9832712,14.484325 85.9819176,14.4709867 C86.1617551,16.2431507 86.4039117,18.7798302 86.6082982,21.1383425 C86.9164303,24.6940246 87.0962298,27.3343171 87.0962298,28.6662873 C87.0962298,30.3664554 86.8243872,31.4111369 86.0298923,32.0841385 C85.3469687,32.6626301 84.8246283,32.7350018 83.340486,32.7323055 C82.4551131,32.7321093 82.2347301,32.8207497 81.91468,33.1685294 C81.7186099,33.3815872 81.7187102,33.3814457 80.9818245,34.3960136 C79.898318,35.887809 78.8914434,37.2859874 75.5685812,41.9118302 C75.1722308,42.3487292 74.9467664,42.6318231 74.775188,42.9009782 C74.1933634,43.813687 74.1482023,44.7049863 74.6561277,46.2736873 C75.1120787,47.6818684 74.9193022,47.2694452 78.1545497,53.9598181 C79.4215239,58.4142811 78.6406511,60.0738382 74.2612262,61.9309227 C72.2897781,62.6580049 70.9633016,63.1519162 69.2113342,63.810198 C68.9049132,63.92534 67.9260931,64.293425 67.937437,64.2891601 C67.4224628,64.482771 67.0106947,64.6374082 66.581835,64.798175 C65.4742653,65.2133699 64.3630702,65.6279429 63.0893386,66.1005041 C61.058266,66.8962113 59.8609376,67.9229434 59.1308354,69.3376168 C58.5230819,70.5152229 58.2473312,71.7651542 57.8908005,74.5077974 C57.8737406,74.6390321 57.8137237,75.1037117 57.8129513,75.1096792 C57.781197,75.3549976 57.7565021,75.5437799 57.7317304,75.7297047 C57.667938,76.208499 57.609821,76.6203184 57.551738,76.9988475 C57.0527495,80.7152541 55.4304926,82.8312069 52.5822091,83.6269575 C50.5528768,84.1939103 49.1292868,84.1494182 43.4173756,83.6290747 C42.9119916,83.5830352 42.4999139,83.5466414 42.0983925,83.5129948 C34.6171984,83.1812528 30.93579,82.8143269 25.1325736,81.7447849 Z M7.42671695,77.7142743 C10.4082431,77.7020521 12.3683211,76.3810737 12.3683211,72.672041 C12.3683211,61.9429737 12.4474792,56.5090148 12.7928511,54.1720242 C13.5179298,50.461978 15.8318116,48.6930001 19.616637,49.3447272 C23.6834533,50.0450118 26.1090941,55.3915388 25.3579858,61.1192187 C25.299782,61.5630598 25.2327874,62.0167798 25.157206,62.4812752 C24.8823486,64.1704474 24.5112537,65.9195329 24.0040856,68.0182922 C23.7975573,68.8729459 23.1405306,71.4916851 23.0981823,71.663744 C22.7939192,72.8999471 22.6160216,73.7052529 22.5192394,74.3168208 C22.0812357,77.0845721 22.9599384,78.8903445 25.4906012,79.2097438 C31.2625148,80.2726333 34.8328086,80.6287473 42.2367652,80.9566143 C42.7034227,80.9946449 43.1279891,81.0321116 43.6496247,81.0796316 C48.9464855,81.5621648 50.3066366,81.6046742 51.8933765,81.1613724 C53.6909403,80.6591709 54.6442596,79.4157311 55.0178221,76.6350818 C55.0764573,76.251533 55.1323705,75.8553295 55.1941544,75.3916098 C55.2184348,75.2093728 55.2427513,75.0234832 55.2741319,74.7810516 C55.2747842,74.7760121 55.3349395,74.310261 55.3521606,74.1777862 C55.7465711,71.143749 56.0666443,69.6929114 56.8559326,68.1635568 C57.8823857,66.1746626 59.5650243,64.7317677 62.1770144,63.7086982 C63.4696009,63.228918 64.578208,62.8153105 65.6832318,62.40107 C66.1112196,62.2406301 66.5222677,62.0862632 67.0365396,61.8929164 C67.0249271,61.8972822 68.0040763,61.5290735 68.2767447,61.4266141 C70.0590783,60.756922 71.3862859,60.2627084 73.2902176,59.5620136 C76.4095761,58.237588 76.6050284,57.8732781 75.7999482,54.9710566 C72.4998791,48.1467886 72.7312629,48.6393892 72.2206137,47.0622756 C71.4952259,44.8219532 71.579891,43.1510023 72.6164972,41.5248772 C72.8665389,41.1326366 73.171498,40.7457086 73.5376341,40.3511613 C76.824807,35.7750367 77.8286757,34.3810943 78.9105123,32.891598 C79.7515598,31.7336255 79.7317277,31.7601365 80.0309471,31.4349924 C80.856558,30.5378495 81.7658824,30.1721093 83.1762664,30.1721093 C84.1277758,30.1737316 84.3510825,30.1449599 84.3740767,30.1315536 C84.4958423,29.683994 84.5362298,29.2600537 84.5362298,28.6662873 C84.5362298,27.4369617 84.3589966,24.8343546 84.0578569,21.3593613 C83.854671,19.0147026 83.6136617,16.4900413 83.4349981,14.7294457 C83.3034074,13.4327175 83.2410533,13.0124147 83.0060655,12.2748852 C82.5462421,10.8316898 81.8081012,10.1111383 80.5401953,10.1111383 C78.2770574,10.1111383 77.7432261,10.3716721 75.6584385,12.7754553 C72.6714579,16.73377 72.0967067,17.4812136 71.4577239,18.2335586 C71.2545418,18.4715992 70.6552886,19.1588579 70.5470541,19.2839006 C70.3893136,19.4661373 69.8619061,20.0990607 69.793781,20.1791733 C68.2048304,22.047717 66.7676749,22.8081141 64.1132149,22.6771911 C63.9375406,22.6771465 63.7811859,22.6767301 63.4999279,22.6757296 C62.5656982,22.6724062 62.2136645,22.6745201 61.7590845,22.6913692 C60.6859784,22.7311439 59.7095368,22.8594504 58.3453532,23.1605157 C52.2183667,24.148603 48.862686,24.665117 37.6290239,26.3643423 C36.9146379,26.4998676 34.8014908,26.8820607 34.6817292,26.9042479 C28.6591223,28.0200075 26.7468232,29.2468445 24.9549796,34.0515177 C24.1902599,36.3272862 23.6425652,37.8943589 23.3067728,38.7657399 C22.1845764,41.3860529 20.3973915,42.743192 18.0629985,42.6038796 C13.9752343,42.5802584 12.1005817,39.1388009 12.1005817,33.6438058 C12.1005817,31.907949 12.1373568,30.0117163 12.2500006,25.2349807 C12.3987581,18.9260905 12.4358506,16.4512516 12.3698834,15.1173181 C12.1726811,11.129655 11.5574179,8.79472781 9.58916349,6.38890625 C8.13735281,4.47318425 6.43875905,3.18696776 5.24768077,2.97278752 C4.41326721,2.82274288 3.99971558,3.26224913 3.9638504,5.03935626 C3.91808845,7.30684452 3.90743848,19.6409976 3.92267344,38.9618898 C3.92682578,44.2278728 3.93276197,49.812577 3.94018205,55.7119493 C3.94736058,61.4192773 3.96411099,72.9679095 3.96411099,73.2211106 C3.96304886,74.1200626 3.97087042,74.4562367 4.00839911,74.8516833 C4.1834916,76.6966644 4.95688413,77.5428568 7.42671695,77.7142743 Z M84.3752248,30.130763 C84.374756,30.1311601 84.374374,30.1314272 84.3740767,30.1315536 C84.3745396,30.1312837 84.3749214,30.1310201 84.3752248,30.130763 Z" id="Path-30" fill="#F2F2F2" fill-rule="nonzero"></path>
                <path d="M25.250182,81.1146319 C21.4480712,80.6347609 20.0350521,77.730945 20.6228392,74.0167105 C20.7304464,73.3367391 20.9173129,72.490833 21.2338221,71.2048745 C21.2780191,71.0253048 21.9336548,68.4121095 22.1378036,67.5673026 C22.6345372,65.5117236 22.9962885,63.8066768 23.26213,62.1729137 C23.3346071,61.7274958 23.3987186,61.2933022 23.4542848,60.8695739 C24.0876887,56.0394655 22.1306827,51.7258898 19.2908182,51.23688 C16.5777716,50.7697076 15.209263,51.8159414 14.6922217,54.4527225 C14.3685584,56.6428197 14.2883211,62.1508605 14.2883211,72.672041 C14.2883211,75.434338 13.3258717,77.3518056 11.6237309,78.4839507 C10.3898625,79.3046338 8.90704892,79.63436 7.34278196,79.632979 C3.85303066,79.4033501 2.35823235,77.7858665 2.09698729,75.0330802 C2.05177735,74.5566949 2.04297403,74.1783248 2.04397194,73.3852164 C2.04411099,72.9695381 2.02736456,61.4236552 2.02018357,55.7143642 C2.01276314,49.8147119 2.00682664,44.2297162 2.00267404,38.9634038 C1.98740913,19.6045271 1.99804236,7.28975572 2.04424129,5.00061514 C2.10187868,2.14470282 3.4606555,0.700648784 5.5874859,1.08309641 C7.33266658,1.39691561 9.40387344,2.96528379 11.0752054,5.17314337 C13.3622946,7.96868063 14.0718784,10.6615551 14.2875399,15.0224841 C14.35708,16.4286651 14.3202721,18.8845131 14.171554,25.1917404 C14.0572725,30.0379255 14.0205817,31.9298126 14.0205817,33.6438058 C14.0205817,38.2383733 15.3601407,40.684002 18.1054254,40.684002 C19.60745,40.78391 20.7096197,39.953623 21.5151945,38.0753435 C21.8379993,37.2376652 22.3787829,35.6903667 23.1419631,33.4202512 C24.2746577,30.3817936 25.6999329,28.4415217 27.6549541,27.1872764 C29.2700558,26.1511067 30.9989155,25.6338618 34.3319778,25.0163724 C34.4609112,24.992486 36.6148677,24.602918 37.3180385,24.4695418 C48.5650689,22.768307 51.916764,22.2524363 57.9315799,21.2856313 C59.406313,20.9601685 60.4972113,20.8168221 61.6879685,20.7726867 C62.1777669,20.7545323 62.5456946,20.7523229 63.5067579,20.7557417 C63.8030349,20.7567957 63.9591126,20.7571952 64.1788907,20.758058 C66.1955207,20.8628771 67.0939278,20.3902692 68.3311234,18.9353755 C68.3883471,18.8680827 68.9233021,18.2261016 69.0953509,18.0273347 C69.2092284,17.8957727 69.8021835,17.215737 69.9434928,17.0503093 C70.5996466,16.2779212 71.173803,15.5310227 74.1519307,11.5843584 C76.6378919,8.71207719 77.6851065,8.19113825 80.5401953,8.19113825 C82.7738479,8.19113825 84.147151,9.53171664 84.835454,11.6920149 C85.0028289,12.2173355 85.1225965,12.7685669 85.2098966,13.3570206 C85.2429241,13.5796456 85.27009,13.7988231 85.2953062,14.0357152 C85.3095965,14.1699653 85.3462842,14.5464068 85.3451877,14.5356015 C85.5247317,16.3048734 85.7666015,18.8385483 85.9706879,21.1935972 C86.2770719,24.7291071 86.4562298,27.3599782 86.4562298,28.6662873 C86.4562298,30.1936739 86.2257239,31.0795 85.6162254,31.5957946 C85.1001883,32.0329199 84.6543543,32.0946914 83.3416487,32.0923066 C82.2828054,32.0921093 81.8901871,32.2500247 81.4437467,32.7351452 C81.2218894,32.9762245 81.2269226,32.9694963 80.4639964,34.0199097 C79.3795891,35.5129453 78.3723382,36.9116463 75.0487869,41.5384485 C74.6803422,41.937505 74.4300935,42.251718 74.2355153,42.556953 C73.5399953,43.6480158 73.4849582,44.734228 74.0472492,46.4708344 C74.5175151,47.923226 74.3138615,47.4875327 77.5783793,54.2384355 C78.7191277,58.2790522 78.0923131,59.6111957 73.9825427,61.3531182 C72.0672951,62.0579185 70.7394802,62.5523281 68.9862273,63.2110929 C68.679704,63.3262734 67.7008016,63.6943893 67.7122126,63.6900991 C67.197414,63.883644 66.7858259,64.0382137 66.3571842,64.1988987 C65.250251,64.613855 64.1397029,65.0281867 62.855884,65.5046023 C60.6849555,66.3551004 59.3662996,67.4858732 58.5621097,69.0441018 C57.9089725,70.309645 57.6221412,71.6098029 57.2561405,74.4252946 C57.2390403,74.5568393 57.1789889,75.0217868 57.1782464,75.0275223 C57.1465856,75.272119 57.1219853,75.4601781 57.0973364,75.645181 C57.0340462,76.1202066 56.9764801,76.5281221 56.9174299,76.9136813 C56.450627,80.3903734 54.9956045,82.2881979 52.410001,83.0105612 C50.4913167,83.5466013 49.0835865,83.5026049 43.4754379,82.9917139 C42.9633797,82.9450664 42.5465388,82.9082668 42.1392858,82.874179 C34.6620664,82.5428413 31.0082024,82.1781185 25.250182,81.1146319 Z M12.7405817,33.6438058 C12.7405817,31.9152368 12.7773287,30.0204527 12.8898227,25.2500688 C13.0392627,18.9122314 13.0762604,16.4437228 13.0091023,15.0857068 C12.8057469,10.9736217 12.1590434,8.51937875 10.0696388,5.96476051 C8.55952636,3.97055076 6.73672823,2.59028371 5.36094915,2.34289048 C4.09572998,2.11537818 3.36710328,2.88973369 3.32398069,5.02644256 C3.27807308,7.30114826 3.2674287,19.6288407 3.28267364,38.9623945 C3.28682607,44.2284873 3.29276236,49.8132886 3.30018255,55.7127542 C3.3073619,61.4207366 3.32411099,72.9684524 3.32411099,73.2211106 C3.32302392,74.1394833 3.33117273,74.4897228 3.37126184,74.9121489 C3.57573298,77.0666983 4.59478633,78.1693902 7.38480368,78.35436 C8.67717167,78.35436 9.92423895,78.0770556 10.9148488,77.4181711 C12.2490283,76.5307681 13.0083211,75.0180452 13.0083211,72.672041 C13.0083211,62.0122693 13.0878389,56.5536165 13.4310266,54.236168 C14.0817076,50.9132992 16.0804649,49.3852359 19.5080307,49.9754448 C23.1658631,50.6053045 25.4352923,55.6075143 24.7234188,61.0360037 C24.6660942,61.4731406 24.6000606,61.9203518 24.525514,62.378488 C24.2536619,64.0491905 23.8856815,65.7835965 23.3819916,67.8679623 C23.1762565,68.7193338 22.5196935,71.336225 22.4767289,71.5107875 C22.1683838,72.7635757 21.9874966,73.582415 21.887106,74.216784 C21.3991745,77.3000298 22.4559827,79.4718166 25.4464502,79.8502932 C31.1788166,80.9079932 34.7772556,81.2669144 42.208452,81.5959877 C42.6482947,81.6322688 43.0713769,81.6696045 43.5915625,81.7169923 C48.9921858,82.2089782 50.3681967,82.2519832 52.0655846,81.7777687 C54.1258284,81.2021799 55.2463821,79.7406119 55.650472,76.7317984 C55.7097982,76.3437293 55.7662624,75.9436219 55.8285484,75.4761335 C55.8529516,75.2929746 55.8773627,75.1063618 55.9088367,74.8632085 C55.9095191,74.857937 55.9696397,74.3924538 55.9868205,74.260289 C56.3717611,71.2991003 56.6807537,69.8984892 57.4246583,68.4570718 C58.3770237,66.6117328 59.9383347,65.2728786 62.3997219,64.3086994 C63.6929682,63.8286743 64.8022223,63.4148253 65.9078826,63.0003463 C66.3360884,62.8398247 66.7473165,62.6853902 67.2617639,62.4919773 C67.2502186,62.4963179 68.2292855,62.1281401 68.5018658,62.0257138 C70.2918375,61.3531519 71.6223291,60.8577456 73.5116624,60.1632819 C76.9764267,58.694057 77.3107245,58.0160879 76.4011132,54.7441261 C73.1041058,47.926113 73.327137,48.4020786 72.8294922,46.8651286 C72.15847,44.7927115 72.2332591,43.3166735 73.1561699,41.8689025 C73.3902363,41.5017222 73.6803791,41.1354346 74.033682,40.7576008 C77.3390853,36.1560804 78.3448022,34.7595409 79.4283404,33.2677019 C80.2433474,32.1455824 80.2284483,32.1654992 80.5018803,31.8683767 C81.2011011,31.1085746 81.9381901,30.8121093 83.1762664,30.8121093 C84.3138062,30.8140706 84.6066275,30.7734994 84.7888917,30.6191069 C85.0283972,30.4162263 85.1762298,29.8481111 85.1762298,28.6662873 C85.1762298,27.4113006 84.9983551,24.7992721 84.6954672,21.3041066 C84.4919811,18.9559845 84.250685,16.4283187 84.071728,14.664831 C84.0723104,14.6705705 84.0360641,14.2986579 84.0224968,14.1712004 C83.999021,13.950658 83.9739608,13.7484701 83.9437541,13.5448593 C83.8658583,13.0197958 83.7602758,12.5338513 83.6158616,12.0805951 C83.0798784,10.3983654 82.1300168,9.47113825 80.5401953,9.47113825 C78.0781935,9.47113825 77.3745871,9.81856087 75.1606457,12.3726233 C72.1727979,16.3321282 71.598013,17.0797319 70.9699195,17.8192557 C70.7704224,18.0529785 70.1732685,18.7378295 70.063153,18.8650453 C69.9006431,19.0527921 69.3707198,19.6887347 69.3062284,19.764574 C67.8300174,21.5005404 66.5687966,22.1640069 64.14567,22.0371952 C63.9571598,22.0371952 63.7999271,22.0367927 63.5022046,22.0357336 C62.5590303,22.0323785 62.2016986,22.0345242 61.7353792,22.0518083 C60.623056,22.0930366 59.6084622,22.2263564 58.1711828,22.5424642 C52.1149797,23.5170065 48.7603189,24.0333336 37.5334295,25.7310552 C36.847281,25.861661 34.6888821,26.2520324 34.5651454,26.2749561 C31.3870635,26.8637336 29.7805363,27.3443786 28.3461277,28.2646246 C26.6433081,29.3570698 25.3832451,31.0724331 24.3483144,33.8476617 C23.5864342,36.1149797 23.0410432,37.675461 22.7006267,38.5576152 C21.6918947,40.9109779 20.1302339,42.0930187 18.0840383,41.9639665 C14.4388737,41.9518552 12.7405817,38.8411545 12.7405817,33.6438058 Z" id="Path-30" fill="url(#linearGradient-1)" fill-rule="nonzero"></path>
                <path d="M5.51647674,1.50384045 L5.44043459,1.92367618 C3.88564233,1.64206663 2.94540261,2.63936532 2.89740089,5.01783342 L2.47082109,5.00922428 C2.52366617,2.39076948 3.67440468,1.17019776 5.51647674,1.50384045 Z" id="Path-30" fill="#979797" fill-rule="nonzero"></path>
                <path d="M2.04424129,5.00061514 L3.32398069,5.02644256 C3.28176059,7.11843367 3.269318,17.7696541 3.27964853,34.6587713 C3.28050403,36.0573972 3.28151458,37.4924801 3.28267364,38.9623945 C3.28682607,44.2284873 3.29276236,49.8132886 3.30018255,55.7127542 C3.3073619,61.4207366 3.32411099,72.9684524 3.32411099,73.2211106 C3.32302392,74.1394833 3.33117273,74.4897228 3.37126184,74.9121489 C3.37341627,74.9346238 3.37341627,74.9346238 3.37565438,74.9570607 L2.10210027,75.085357 C2.09949118,75.0592007 2.09949118,75.0592007 2.09698729,75.0330802 C2.05177735,74.5566949 2.04297403,74.1783248 2.04397194,73.3852164 C2.04411099,72.9695381 2.02736456,61.4236552 2.02018357,55.7143642 C2.01276314,49.8147119 2.00682664,44.2297162 2.00267404,38.9634038 C2.00151492,37.4934156 2.00050431,36.0582574 1.99964877,34.6595542 C1.98930418,17.7474493 2.0017344,7.10681633 2.04424129,5.00061514 Z" id="Path" fill="#FFB819" fill-rule="nonzero"></path>
                <path d="M70.9699195,17.8192557 C70.7704224,18.0529785 70.1732685,18.7378295 70.063153,18.8650453 C69.9006431,19.0527921 69.3707198,19.6887347 69.3062284,19.764574 C67.8300174,21.5005404 66.5687966,22.1640069 64.14567,22.0371952 C63.9571598,22.0371952 63.7999271,22.0367927 63.5022046,22.0357336 C62.5590303,22.0323785 62.2016986,22.0345242 61.7353792,22.0518083 C60.623056,22.0930366 59.6084622,22.2263564 58.1711828,22.5424642 C57.3125365,22.6806344 56.4830135,22.8134114 55.6713053,22.9426109 L55.4701006,21.6785236 C56.2810824,21.5494397 57.1098884,21.4167775 57.9315799,21.2856313 C59.406313,20.9601685 60.4972113,20.8168221 61.6879685,20.7726867 C62.1777669,20.7545323 62.5456946,20.7523229 63.5067579,20.7557417 C63.8030349,20.7567957 63.9591126,20.7571952 64.1788907,20.758058 C66.1955207,20.8628771 67.0939278,20.3902692 68.3311234,18.9353755 C68.3883471,18.8680827 68.9233021,18.2261016 69.0953509,18.0273347 C69.2092284,17.8957727 69.8021835,17.215737 69.9434928,17.0503093 C70.5996466,16.2779212 71.173803,15.5310227 74.1519307,11.5843584 C76.6378919,8.71207719 77.6851065,8.19113825 80.5401953,8.19113825 C82.7738479,8.19113825 84.147151,9.53171664 84.835454,11.6920149 C85.0028289,12.2173355 85.1225965,12.7685669 85.2098966,13.3570206 C85.2429241,13.5796456 85.27009,13.7988231 85.2953062,14.0357152 C85.3095965,14.1699653 85.3462842,14.5464068 85.3451877,14.5356015 C85.5247317,16.3048734 85.7666015,18.8385483 85.9706879,21.1935972 C86.2770719,24.7291071 86.4562298,27.3599782 86.4562298,28.6662873 C86.4562298,30.1936739 86.2257239,31.0795 85.6162254,31.5957946 C85.1001883,32.0329199 84.6543543,32.0946914 83.3416487,32.0923066 C83.2595072,32.0921583 83.2595072,32.0921583 83.1762664,32.0921093 C82.2828054,32.0921093 81.8901871,32.2500247 81.4437467,32.7351452 C81.2218894,32.9762245 81.2269226,32.9694963 80.4639964,34.0199097 C79.3795891,35.5129453 78.3723382,36.9116463 75.0487869,41.5384485 C74.6803422,41.937505 74.4300935,42.251718 74.2355153,42.556953 C73.5399953,43.6480158 73.4849582,44.734228 74.0472492,46.4708344 C74.5175151,47.923226 74.3138615,47.4875327 77.5783793,54.2384355 C78.7191277,58.2790522 78.0923131,59.6111957 73.9825427,61.3531182 C72.0672951,62.0579185 70.7394802,62.5523281 68.9862273,63.2110929 C68.679704,63.3262734 67.7008016,63.6943893 67.7122126,63.6900991 C67.197414,63.883644 66.7858259,64.0382137 66.3571842,64.1988987 C65.250251,64.613855 64.1397029,65.0281867 62.855884,65.5046023 C60.6849555,66.3551004 59.3662996,67.4858732 58.5621097,69.0441018 C57.9089725,70.309645 57.6221412,71.6098029 57.2561405,74.4252946 C57.2390403,74.5568393 57.1789889,75.0217868 57.1782464,75.0275223 C57.1465856,75.272119 57.1219853,75.4601781 57.0973364,75.645181 C57.0340462,76.1202066 56.9764801,76.5281221 56.9174299,76.9136813 C56.450627,80.3903734 54.9956045,82.2881979 52.410001,83.0105612 C50.4913167,83.5466013 49.0835865,83.5026049 43.4754379,82.9917139 C42.9581527,82.9445903 42.5380387,82.9075165 42.1518257,82.8747345 C41.8561585,82.8616416 41.5725812,82.8488201 41.2986536,82.8361482 L41.3578029,81.5575156 C41.6308636,81.5701474 41.9136028,81.582931 42.2334606,81.5975862 C42.6482947,81.6322688 43.0713769,81.6696045 43.5915625,81.7169923 C48.9921858,82.2089782 50.3681967,82.2519832 52.0655846,81.7777687 C54.1258284,81.2021799 55.2463821,79.7406119 55.650472,76.7317984 C55.7097982,76.3437293 55.7662624,75.9436219 55.8285484,75.4761335 C55.8529516,75.2929746 55.8773627,75.1063618 55.9088367,74.8632085 C55.9095191,74.857937 55.9696397,74.3924538 55.9868205,74.260289 C56.3717611,71.2991003 56.6807537,69.8984892 57.4246583,68.4570718 C58.3770237,66.6117328 59.9383347,65.2728786 62.3997219,64.3086994 C63.6929682,63.8286743 64.8022223,63.4148253 65.9078826,63.0003463 C66.3360884,62.8398247 66.7473165,62.6853902 67.2617639,62.4919773 C67.2502186,62.4963179 68.2292855,62.1281401 68.5018658,62.0257138 C70.2918375,61.3531519 71.6223291,60.8577456 73.5116624,60.1632819 C76.9764267,58.694057 77.3107245,58.0160879 76.4011132,54.7441261 C73.1041058,47.926113 73.327137,48.4020786 72.8294922,46.8651286 C72.15847,44.7927115 72.2332591,43.3166735 73.1561699,41.8689025 C73.3902363,41.5017222 73.6803791,41.1354346 74.033682,40.7576008 C77.3390853,36.1560804 78.3448022,34.7595409 79.4283404,33.2677019 C80.2433474,32.1455824 80.2284483,32.1654992 80.5018803,31.8683767 C81.2011011,31.1085746 81.9381901,30.8121093 83.1762664,30.8121093 C83.2614066,30.8121594 83.2614066,30.8121594 83.3439741,30.8123087 C84.3138062,30.8140706 84.6066275,30.7734994 84.7888917,30.6191069 C85.0283972,30.4162263 85.1762298,29.8481111 85.1762298,28.6662873 C85.1762298,27.4113006 84.9983551,24.7992721 84.6954672,21.3041066 C84.4919811,18.9559845 84.250685,16.4283187 84.071728,14.664831 C84.0723104,14.6705705 84.0360641,14.2986579 84.0224968,14.1712004 C83.999021,13.950658 83.9739608,13.7484701 83.9437541,13.5448593 C83.8658583,13.0197958 83.7602758,12.5338513 83.6158616,12.0805951 C83.0798784,10.3983654 82.1300168,9.47113825 80.5401953,9.47113825 C78.0781935,9.47113825 77.3745871,9.81856087 75.1606457,12.3726233 C72.1727979,16.3321282 71.598013,17.0797319 70.9699195,17.8192557 Z" id="Path" fill-opacity="0.37" fill="#000000" fill-rule="nonzero"></path>
                <path d="M14.0455613,34.6719527 L12.7671807,34.7363185 C12.7493968,34.3831083 12.7405817,34.0187802 12.7405817,33.6438058 C12.7405817,31.9152368 12.7773287,30.0204527 12.8898227,25.2500688 C13.0392627,18.9122314 13.0762604,16.4437228 13.0091023,15.0857068 C12.8057469,10.9736217 12.1590434,8.51937875 10.0696388,5.96476051 C8.58879814,4.00920622 6.80521815,2.64111534 5.43487755,2.35720358 L5.69455742,1.10382161 C7.41678806,1.46063912 9.43918282,3.01191231 11.0752054,5.17314337 C13.3622946,7.96868063 14.0718784,10.6615551 14.2875399,15.0224841 C14.35708,16.4286651 14.3202721,18.8845131 14.171554,25.1917404 C14.0572725,30.0379255 14.0205817,31.9298126 14.0205817,33.6438058 C14.0205817,33.9977093 14.0288782,34.3406064 14.0455613,34.6719527 Z" id="Path" fill="#FFB819" fill-rule="nonzero"></path>
                <path d="M22.3346163,3.85791667 L22.9429496,3.85791667 C22.9721163,4.10166667 23.2179496,4.25791667 23.5721163,4.25791667 C23.8991996,4.25791667 24.1304496,4.09958333 24.1304496,3.8725 C24.1304496,3.68083333 23.9804496,3.57041667 23.6116996,3.49125 L23.220033,3.40791667 C22.6721163,3.29333333 22.4033663,3.00791667 22.4033663,2.54958333 C22.4033663,1.98291667 22.8596163,1.61 23.5533663,1.61 C24.2158663,1.61 24.6846163,1.98083333 24.7033663,2.51625 L24.1116996,2.51625 C24.082533,2.27875 23.8616996,2.12041667 23.557533,2.12041667 C23.2429496,2.12041667 23.0346163,2.26625 23.0346163,2.49541667 C23.0346163,2.68083333 23.1783663,2.78708333 23.5304496,2.86208333 L23.8929496,2.93916667 C24.4971163,3.06625 24.757533,3.32666667 24.757533,3.79333333 C24.757533,4.39958333 24.2929496,4.77041667 23.538783,4.77041667 C22.8221163,4.77041667 22.357533,4.41833333 22.3346163,3.85791667 Z M26.0179496,4.69333333 L26.0179496,2.29958333 L25.9804496,2.29958333 L25.2429496,2.80791667 L25.2429496,2.2225 L26.020033,1.68708333 L26.6471163,1.68708333 L26.6471163,4.69333333 L26.0179496,4.69333333 Z M21.2483663,7.48416667 L21.1216996,7.48416667 C20.9783663,7.305 20.8966996,7.03916667 20.8966996,6.75333333 C20.8966996,6.46833333 20.9658663,6.26166667 21.130033,6.05166667 L21.2508663,6.05166667 C21.130033,6.19333333 21.0441996,6.48416667 21.0441996,6.75333333 C21.0441996,7.01333333 21.1066996,7.23583333 21.2483663,7.48416667 Z M21.450033,6.93916667 L21.6016996,6.93916667 C21.620033,7.065 21.740033,7.145 21.9108663,7.145 C22.072533,7.145 22.1916996,7.0575 22.1916996,6.93833333 C22.1916996,6.83583333 22.1166996,6.77083333 21.9508663,6.72916667 L21.7966996,6.68916667 C21.5791996,6.63416667 21.485033,6.53583333 21.485033,6.365 C21.485033,6.16083333 21.6558663,6.0225 21.910033,6.0225 C22.142533,6.0225 22.3158663,6.16083333 22.3283663,6.355 L22.177533,6.355 C22.1566996,6.23166667 22.055033,6.15833333 21.905033,6.15833333 C21.745033,6.15833333 21.6391996,6.23833333 21.6391996,6.36 C21.6391996,6.45416667 21.705033,6.50833333 21.8708663,6.55083333 L21.9966996,6.58416667 C22.2458663,6.64666667 22.3458663,6.74333333 22.3458663,6.92 C22.3458663,7.14083333 22.1716996,7.28166667 21.8966996,7.28166667 C21.6416996,7.28166667 21.4658663,7.14666667 21.450033,6.93916667 Z M22.935033,6.46583333 C22.7916996,6.46583333 22.6916996,6.57083333 22.6808663,6.73 L23.1758663,6.73 C23.172533,6.57083333 23.077533,6.46583333 22.935033,6.46583333 Z M23.1716996,7.02083333 L23.315033,7.02083333 C23.2716996,7.175 23.1333663,7.26916667 22.9366996,7.26916667 C22.687533,7.26916667 22.5316996,7.08916667 22.5316996,6.805 C22.5316996,6.5225 22.690033,6.33916667 22.9366996,6.33916667 C23.1791996,6.33916667 23.3266996,6.51166667 23.3266996,6.79083333 L23.3266996,6.84583333 L22.6808663,6.84583333 L22.6808663,6.8525 C22.6883663,7.03 22.787533,7.1425 22.940033,7.1425 C23.0558663,7.1425 23.1341996,7.1 23.1716996,7.02083333 Z M24.295033,6.63 L24.150033,6.63 C24.1266996,6.54083333 24.047533,6.46833333 23.9183663,6.46833333 C23.7566996,6.46833333 23.655033,6.5975 23.655033,6.80083333 C23.655033,7.00833333 23.7583663,7.14 23.9183663,7.14 C24.0391996,7.14 24.1233663,7.08416667 24.150033,6.9825 L24.295033,6.9825 C24.2691996,7.1475 24.135033,7.26916667 23.9191996,7.26916667 C23.667533,7.26916667 23.5066996,7.08666667 23.5066996,6.80083333 C23.5066996,6.52083333 23.6666996,6.33916667 23.9183663,6.33916667 C24.1366996,6.33916667 24.270033,6.47 24.295033,6.63 Z M24.5666996,6.1225 L24.710033,6.1225 L24.710033,6.355 L24.910033,6.355 L24.910033,6.475 L24.710033,6.475 L24.710033,6.98333333 C24.710033,7.08916667 24.750033,7.13416667 24.8433663,7.13416667 C24.8691996,7.13416667 24.8833663,7.13333333 24.910033,7.13083333 L24.910033,7.25166667 C24.8816996,7.25666667 24.8541996,7.26 24.8258663,7.26 C24.6408663,7.26 24.5666996,7.19166667 24.5666996,7.02 L24.5666996,6.475 L24.4216996,6.475 L24.4216996,6.355 L24.5666996,6.355 L24.5666996,6.1225 Z M25.4958663,7.14 C25.6658663,7.14 25.7616996,7.01666667 25.7616996,6.80416667 C25.7616996,6.59083333 25.6658663,6.46833333 25.4958663,6.46833333 C25.3258663,6.46833333 25.230033,6.59083333 25.230033,6.80416667 C25.230033,7.01666667 25.3258663,7.14 25.4958663,7.14 Z M25.4958663,7.26916667 C25.240033,7.26916667 25.0816996,7.0925 25.0816996,6.80416667 C25.0816996,6.515 25.240033,6.33916667 25.4958663,6.33916667 C25.7516996,6.33916667 25.910033,6.515 25.910033,6.80416667 C25.910033,7.0925 25.7516996,7.26916667 25.4958663,7.26916667 Z M26.135033,7.25333333 L26.135033,6.355 L26.2716996,6.355 L26.2716996,6.48833333 L26.285033,6.48833333 C26.3116996,6.40083333 26.415033,6.33916667 26.5341996,6.33916667 C26.557533,6.33916667 26.587533,6.34083333 26.6058663,6.34333333 L26.6058663,6.48666667 C26.5941996,6.48333333 26.542533,6.47833333 26.5141996,6.47833333 C26.377533,6.47833333 26.2783663,6.57 26.2783663,6.69666667 L26.2783663,7.25333333 L26.135033,7.25333333 Z M27.5533663,7.25333333 L27.5533663,6.2175 L27.540033,6.2175 L27.2341996,6.43916667 L27.2341996,6.28083333 L27.5541996,6.05083333 L27.7033663,6.05083333 L27.7033663,7.25333333 L27.5533663,7.25333333 Z M28.032533,7.48416667 C28.1741996,7.23583333 28.2366996,7.01333333 28.2366996,6.75333333 C28.2366996,6.4825 28.1516996,6.1925 28.0308663,6.05166667 L28.152533,6.05166667 C28.3166996,6.26166667 28.385033,6.46833333 28.385033,6.75333333 C28.385033,7.0375 28.3033663,7.30333333 28.160033,7.48416667 L28.032533,7.48416667 Z" id="S1-(Sector-1)-Copy" fill="#C6C6C6"></path>
                <path d="M87.763158,55.4845833 L88.3714913,55.4845833 C88.400658,55.7283333 88.6464913,55.8845833 89.000658,55.8845833 C89.3277413,55.8845833 89.5589913,55.72625 89.5589913,55.4991667 C89.5589913,55.3075 89.4089913,55.1970833 89.0402413,55.1179167 L88.6485746,55.0345833 C88.100658,54.92 87.831908,54.6345833 87.831908,54.17625 C87.831908,53.6095833 88.288158,53.2366667 88.981908,53.2366667 C89.644408,53.2366667 90.113158,53.6075 90.131908,54.1429167 L89.5402413,54.1429167 C89.5110746,53.9054167 89.2902413,53.7470833 88.9860746,53.7470833 C88.6714913,53.7470833 88.463158,53.8929167 88.463158,54.1220833 C88.463158,54.3075 88.606908,54.41375 88.9589913,54.48875 L89.3214913,54.5658333 C89.925658,54.6929167 90.1860746,54.9533333 90.1860746,55.42 C90.1860746,56.02625 89.7214913,56.3970833 88.9673246,56.3970833 C88.250658,56.3970833 87.7860746,56.045 87.763158,55.4845833 Z M90.6839913,54.21375 C90.6839913,53.6325 91.1298246,53.2366667 91.7798246,53.2366667 C92.406908,53.2366667 92.844408,53.5970833 92.844408,54.11375 C92.844408,54.4408333 92.6673246,54.7220833 92.1464913,55.2116667 L91.5714913,55.7595833 L91.5714913,55.7970833 L92.888158,55.7970833 L92.888158,56.32 L90.719408,56.32 L90.719408,55.8804167 L91.700658,54.92 C92.1235746,54.5075 92.2298246,54.35125 92.2298246,54.1554167 C92.2298246,53.91375 92.0339913,53.7429167 91.7589913,53.7429167 C91.4673246,53.7429167 91.2673246,53.9345833 91.2673246,54.2116667 L91.2673246,54.2241667 L90.6839913,54.2241667 L90.6839913,54.21375 Z M86.837533,59.1108333 L86.7108663,59.1108333 C86.567533,58.9316667 86.4858663,58.6658333 86.4858663,58.38 C86.4858663,58.095 86.555033,57.8883333 86.7191996,57.6783333 L86.840033,57.6783333 C86.7191996,57.82 86.6333663,58.1108333 86.6333663,58.38 C86.6333663,58.64 86.6958663,58.8625 86.837533,59.1108333 Z M87.0391996,58.5658333 L87.1908663,58.5658333 C87.2091996,58.6916667 87.3291996,58.7716667 87.500033,58.7716667 C87.6616996,58.7716667 87.7808663,58.6841667 87.7808663,58.565 C87.7808663,58.4625 87.7058663,58.3975 87.540033,58.3558333 L87.3858663,58.3158333 C87.1683663,58.2608333 87.0741996,58.1625 87.0741996,57.9916667 C87.0741996,57.7875 87.245033,57.6491667 87.4991996,57.6491667 C87.7316996,57.6491667 87.905033,57.7875 87.917533,57.9816667 L87.7666996,57.9816667 C87.7458663,57.8583333 87.6441996,57.785 87.4941996,57.785 C87.3341996,57.785 87.2283663,57.865 87.2283663,57.9866667 C87.2283663,58.0808333 87.2941996,58.135 87.460033,58.1775 L87.5858663,58.2108333 C87.835033,58.2733333 87.935033,58.37 87.935033,58.5466667 C87.935033,58.7675 87.7608663,58.9083333 87.4858663,58.9083333 C87.2308663,58.9083333 87.055033,58.7733333 87.0391996,58.5658333 Z M88.5241996,58.0925 C88.3808663,58.0925 88.2808663,58.1975 88.270033,58.3566667 L88.765033,58.3566667 C88.7616996,58.1975 88.6666996,58.0925 88.5241996,58.0925 Z M88.7608663,58.6475 L88.9041996,58.6475 C88.8608663,58.8016667 88.722533,58.8958333 88.5258663,58.8958333 C88.2766996,58.8958333 88.1208663,58.7158333 88.1208663,58.4316667 C88.1208663,58.1491667 88.2791996,57.9658333 88.5258663,57.9658333 C88.7683663,57.9658333 88.9158663,58.1383333 88.9158663,58.4175 L88.9158663,58.4725 L88.270033,58.4725 L88.270033,58.4791667 C88.277533,58.6566667 88.3766996,58.7691667 88.5291996,58.7691667 C88.645033,58.7691667 88.7233663,58.7266667 88.7608663,58.6475 Z M89.8841996,58.2566667 L89.7391996,58.2566667 C89.7158663,58.1675 89.6366996,58.095 89.507533,58.095 C89.3458663,58.095 89.2441996,58.2241667 89.2441996,58.4275 C89.2441996,58.635 89.347533,58.7666667 89.507533,58.7666667 C89.6283663,58.7666667 89.712533,58.7108333 89.7391996,58.6091667 L89.8841996,58.6091667 C89.8583663,58.7741667 89.7241996,58.8958333 89.5083663,58.8958333 C89.2566996,58.8958333 89.0958663,58.7133333 89.0958663,58.4275 C89.0958663,58.1475 89.2558663,57.9658333 89.507533,57.9658333 C89.7258663,57.9658333 89.8591996,58.0966667 89.8841996,58.2566667 Z M90.1558663,57.7491667 L90.2991996,57.7491667 L90.2991996,57.9816667 L90.4991996,57.9816667 L90.4991996,58.1016667 L90.2991996,58.1016667 L90.2991996,58.61 C90.2991996,58.7158333 90.3391996,58.7608333 90.432533,58.7608333 C90.4583663,58.7608333 90.472533,58.76 90.4991996,58.7575 L90.4991996,58.8783333 C90.4708663,58.8833333 90.4433663,58.8866667 90.415033,58.8866667 C90.230033,58.8866667 90.1558663,58.8183333 90.1558663,58.6466667 L90.1558663,58.1016667 L90.0108663,58.1016667 L90.0108663,57.9816667 L90.1558663,57.9816667 L90.1558663,57.7491667 Z M91.085033,58.7666667 C91.255033,58.7666667 91.3508663,58.6433333 91.3508663,58.4308333 C91.3508663,58.2175 91.255033,58.095 91.085033,58.095 C90.915033,58.095 90.8191996,58.2175 90.8191996,58.4308333 C90.8191996,58.6433333 90.915033,58.7666667 91.085033,58.7666667 Z M91.085033,58.8958333 C90.8291996,58.8958333 90.6708663,58.7191667 90.6708663,58.4308333 C90.6708663,58.1416667 90.8291996,57.9658333 91.085033,57.9658333 C91.3408663,57.9658333 91.4991996,58.1416667 91.4991996,58.4308333 C91.4991996,58.7191667 91.3408663,58.8958333 91.085033,58.8958333 Z M91.7241996,58.88 L91.7241996,57.9816667 L91.8608663,57.9816667 L91.8608663,58.115 L91.8741996,58.115 C91.9008663,58.0275 92.0041996,57.9658333 92.1233663,57.9658333 C92.1466996,57.9658333 92.1766996,57.9675 92.195033,57.97 L92.195033,58.1133333 C92.1833663,58.11 92.1316996,58.105 92.1033663,58.105 C91.9666996,58.105 91.867533,58.1966667 91.867533,58.3233333 L91.867533,58.88 L91.7241996,58.88 Z M92.847533,58.0158333 C92.847533,57.8025 93.0091996,57.6491667 93.232533,57.6491667 C93.4483663,57.6491667 93.6133663,57.7958333 93.6133663,57.9866667 C93.6133663,58.1116667 93.5566996,58.2091667 93.3591996,58.4208333 L93.070033,58.7316667 L93.070033,58.745 L93.6333663,58.745 L93.6333663,58.88 L92.855033,58.88 L92.855033,58.7766667 L93.2708663,58.3225 C93.4258663,58.1541667 93.4633663,58.0891667 93.4633663,57.9925 C93.4633663,57.8725 93.3608663,57.78 93.2283663,57.78 C93.087533,57.78 92.992533,57.8741667 92.992533,58.0158333 L92.992533,58.0166667 L92.847533,58.0166667 L92.847533,58.0158333 Z M93.8566996,59.1108333 C93.9983663,58.8625 94.0608663,58.64 94.0608663,58.38 C94.0608663,58.1091667 93.9758663,57.8191667 93.855033,57.6783333 L93.9766996,57.6783333 C94.1408663,57.8883333 94.2091996,58.095 94.2091996,58.38 C94.2091996,58.6641667 94.127533,58.93 93.9841996,59.1108333 L93.8566996,59.1108333 Z" id="S2-(Sector-2)-Copy" fill="#999999"></path>
                <path d="M32.6689913,55.4845833 L33.2773246,55.4845833 C33.3064913,55.7283333 33.5523246,55.8845833 33.9064913,55.8845833 C34.2335746,55.8845833 34.4648246,55.72625 34.4648246,55.4991667 C34.4648246,55.3075 34.3148246,55.1970833 33.9460746,55.1179167 L33.554408,55.0345833 C33.0064913,54.92 32.7377413,54.6345833 32.7377413,54.17625 C32.7377413,53.6095833 33.1939913,53.2366667 33.8877413,53.2366667 C34.5502413,53.2366667 35.0189913,53.6075 35.0377413,54.1429167 L34.4460746,54.1429167 C34.416908,53.9054167 34.1960746,53.7470833 33.891908,53.7470833 C33.5773246,53.7470833 33.3689913,53.8929167 33.3689913,54.1220833 C33.3689913,54.3075 33.5127413,54.41375 33.8648246,54.48875 L34.2273246,54.5658333 C34.8314913,54.6929167 35.091908,54.9533333 35.091908,55.42 C35.091908,56.02625 34.6273246,56.3970833 33.873158,56.3970833 C33.1564913,56.3970833 32.691908,56.045 32.6689913,55.4845833 Z M36.3585746,55.0158333 L36.3585746,54.5470833 L36.7252413,54.5470833 C37.010658,54.5470833 37.204408,54.3804167 37.204408,54.1345833 C37.204408,53.8929167 37.016908,53.73875 36.723158,53.73875 C36.4314913,53.73875 36.2377413,53.9033333 36.2210746,54.16375 L35.6398246,54.16375 C35.660658,53.595 36.0835746,53.2366667 36.7398246,53.2366667 C37.3564913,53.2366667 37.8002413,53.5741667 37.8002413,54.0470833 C37.8002413,54.395 37.5814913,54.6658333 37.2460746,54.7345833 L37.2460746,54.7720833 C37.6585746,54.8179167 37.916908,55.0929167 37.916908,55.48875 C37.916908,56.0158333 37.4210746,56.3970833 36.735658,56.3970833 C36.0648246,56.3970833 35.610658,56.02625 35.5835746,55.4595833 L36.185658,55.4595833 C36.204408,55.71375 36.4189913,55.8741667 36.741908,55.8741667 C37.0564913,55.8741667 37.2752413,55.6970833 37.2752413,55.4408333 C37.2752413,55.1783333 37.0689913,55.0158333 36.7314913,55.0158333 L36.3585746,55.0158333 Z M31.7779496,59.1108333 L31.651283,59.1108333 C31.5079496,58.9316667 31.426283,58.6658333 31.426283,58.38 C31.426283,58.095 31.4954496,57.8883333 31.6596163,57.6783333 L31.7804496,57.6783333 C31.6596163,57.82 31.573783,58.1108333 31.573783,58.38 C31.573783,58.64 31.636283,58.8625 31.7779496,59.1108333 Z M31.9796163,58.5658333 L32.131283,58.5658333 C32.1496163,58.6916667 32.2696163,58.7716667 32.4404496,58.7716667 C32.6021163,58.7716667 32.721283,58.6841667 32.721283,58.565 C32.721283,58.4625 32.646283,58.3975 32.4804496,58.3558333 L32.326283,58.3158333 C32.108783,58.2608333 32.0146163,58.1625 32.0146163,57.9916667 C32.0146163,57.7875 32.1854496,57.6491667 32.4396163,57.6491667 C32.6721163,57.6491667 32.8454496,57.7875 32.8579496,57.9816667 L32.7071163,57.9816667 C32.686283,57.8583333 32.5846163,57.785 32.4346163,57.785 C32.2746163,57.785 32.168783,57.865 32.168783,57.9866667 C32.168783,58.0808333 32.2346163,58.135 32.4004496,58.1775 L32.526283,58.2108333 C32.7754496,58.2733333 32.8754496,58.37 32.8754496,58.5466667 C32.8754496,58.7675 32.701283,58.9083333 32.426283,58.9083333 C32.171283,58.9083333 31.9954496,58.7733333 31.9796163,58.5658333 Z M33.4646163,58.0925 C33.321283,58.0925 33.221283,58.1975 33.2104496,58.3566667 L33.7054496,58.3566667 C33.7021163,58.1975 33.6071163,58.0925 33.4646163,58.0925 Z M33.701283,58.6475 L33.8446163,58.6475 C33.801283,58.8016667 33.6629496,58.8958333 33.466283,58.8958333 C33.2171163,58.8958333 33.061283,58.7158333 33.061283,58.4316667 C33.061283,58.1491667 33.2196163,57.9658333 33.466283,57.9658333 C33.708783,57.9658333 33.856283,58.1383333 33.856283,58.4175 L33.856283,58.4725 L33.2104496,58.4725 L33.2104496,58.4791667 C33.2179496,58.6566667 33.3171163,58.7691667 33.4696163,58.7691667 C33.5854496,58.7691667 33.663783,58.7266667 33.701283,58.6475 Z M34.8246163,58.2566667 L34.6796163,58.2566667 C34.656283,58.1675 34.5771163,58.095 34.4479496,58.095 C34.286283,58.095 34.1846163,58.2241667 34.1846163,58.4275 C34.1846163,58.635 34.2879496,58.7666667 34.4479496,58.7666667 C34.568783,58.7666667 34.6529496,58.7108333 34.6796163,58.6091667 L34.8246163,58.6091667 C34.798783,58.7741667 34.6646163,58.8958333 34.448783,58.8958333 C34.1971163,58.8958333 34.036283,58.7133333 34.036283,58.4275 C34.036283,58.1475 34.196283,57.9658333 34.4479496,57.9658333 C34.666283,57.9658333 34.7996163,58.0966667 34.8246163,58.2566667 Z M35.096283,57.7491667 L35.2396163,57.7491667 L35.2396163,57.9816667 L35.4396163,57.9816667 L35.4396163,58.1016667 L35.2396163,58.1016667 L35.2396163,58.61 C35.2396163,58.7158333 35.2796163,58.7608333 35.3729496,58.7608333 C35.398783,58.7608333 35.4129496,58.76 35.4396163,58.7575 L35.4396163,58.8783333 C35.411283,58.8833333 35.383783,58.8866667 35.3554496,58.8866667 C35.1704496,58.8866667 35.096283,58.8183333 35.096283,58.6466667 L35.096283,58.1016667 L34.951283,58.1016667 L34.951283,57.9816667 L35.096283,57.9816667 L35.096283,57.7491667 Z M36.0254496,58.7666667 C36.1954496,58.7666667 36.291283,58.6433333 36.291283,58.4308333 C36.291283,58.2175 36.1954496,58.095 36.0254496,58.095 C35.8554496,58.095 35.7596163,58.2175 35.7596163,58.4308333 C35.7596163,58.6433333 35.8554496,58.7666667 36.0254496,58.7666667 Z M36.0254496,58.8958333 C35.7696163,58.8958333 35.611283,58.7191667 35.611283,58.4308333 C35.611283,58.1416667 35.7696163,57.9658333 36.0254496,57.9658333 C36.281283,57.9658333 36.4396163,58.1416667 36.4396163,58.4308333 C36.4396163,58.7191667 36.281283,58.8958333 36.0254496,58.8958333 Z M36.6646163,58.88 L36.6646163,57.9816667 L36.801283,57.9816667 L36.801283,58.115 L36.8146163,58.115 C36.841283,58.0275 36.9446163,57.9658333 37.063783,57.9658333 C37.0871163,57.9658333 37.1171163,57.9675 37.1354496,57.97 L37.1354496,58.1133333 C37.123783,58.11 37.0721163,58.105 37.043783,58.105 C36.9071163,58.105 36.8079496,58.1966667 36.8079496,58.3233333 L36.8079496,58.88 L36.6646163,58.88 Z M38.041283,58.3258333 L38.041283,58.1975 L38.1871163,58.1975 C38.323783,58.1975 38.4204496,58.1091667 38.4204496,57.9841667 C38.4204496,57.8616667 38.3279496,57.78 38.1896163,57.78 C38.051283,57.78 37.9604496,57.8566667 37.9479496,57.9858333 L37.8021163,57.9858333 C37.8171163,57.7775 37.966283,57.6491667 38.1954496,57.6491667 C38.4054496,57.6491667 38.5729496,57.7891667 38.5729496,57.9641667 C38.5729496,58.1075 38.493783,58.2125 38.3621163,58.2441667 L38.3621163,58.2575 C38.5254496,58.2783333 38.6246163,58.3916667 38.6246163,58.5558333 C38.6246163,58.7541667 38.438783,58.9083333 38.201283,58.9083333 C37.9571163,58.9083333 37.788783,58.7725 37.7779496,58.5666667 L37.9229496,58.5666667 C37.936283,58.695 38.0446163,58.7775 38.1996163,58.7775 C38.3579496,58.7775 38.4704496,58.6833333 38.4704496,58.5516667 C38.4704496,58.4125 38.3646163,58.3258333 38.193783,58.3258333 L38.041283,58.3258333 Z M38.836283,59.1108333 C38.9779496,58.8625 39.0404496,58.64 39.0404496,58.38 C39.0404496,58.1091667 38.9554496,57.8191667 38.8346163,57.6783333 L38.956283,57.6783333 C39.1204496,57.8883333 39.188783,58.095 39.188783,58.38 C39.188783,58.6641667 39.1071163,58.93 38.963783,59.1108333 L38.836283,59.1108333 Z" id="S3-(Sector-3)-Copy" fill="#666666"></path>
                <g id="Group-Copy-8" transform="translate(11.093333, 70.400000)">
                    <circle id="Oval-Copy-2" fill-opacity="0.7" fill="#FFFFFF" cx="2.56" cy="2.56" r="2.56"></circle>
                    <circle id="Oval-Copy-2" fill-opacity="0.2" fill="#FFB819" cx="2.56" cy="2.56" r="2.56"></circle>
                    <circle id="Oval" stroke="#FFB819" stroke-width="0.5" fill="#FFFFFF" cx="2.56" cy="2.56" r="1.70666667"></circle>
                    <circle id="Oval-Copy" fill="#FFB819" cx="2.56" cy="2.56" r="1"></circle>
                </g>
                <g id="Group-Copy-7" transform="translate(0.000000, 31.146667)">
                    <circle id="Oval-Copy-2" fill-opacity="0.7" fill="#FFFFFF" cx="2.56" cy="2.56" r="2.56"></circle>
                    <circle id="Oval-Copy-2" fill-opacity="0.2" fill="#D0021B" cx="2.56" cy="2.56" r="2.56"></circle>
                    <circle id="Oval" stroke="#D0021B" stroke-width="0.5" fill="#FFFFFF" cx="2.56" cy="2.56" r="1.70666667"></circle>
                    <circle id="Oval-Copy" fill="#D0021B" cx="2.56" cy="2.56" r="1"></circle>
                </g>
            </g>
        </g>
    </g>
</svg>