<svg xmlns="http://www.w3.org/2000/svg" xmlns:xlink="http://www.w3.org/1999/xlink" viewBox="0 0 320 192"><defs><style>.cls-1{fill:#eaeaea;}.cls-2{fill:#f1f1f1;}.cls-3{fill:#ffb819;}.cls-4{fill:url(#linear-gradient);}.cls-5{opacity:0.37;}.cls-6{opacity:0.2;}.cls-7,.cls-9{fill:#fff;}.cls-7{fill-opacity:0.7;}.cls-10,.cls-8{fill:#ffb500;}.cls-8{fill-opacity:0.2;}</style><linearGradient id="linear-gradient" x1="61.23" y1="94.92" x2="258.35" y2="94.92" gradientUnits="userSpaceOnUse"><stop offset="0" stop-color="#1b94e2"/><stop offset="1" stop-color="#40d8ab"/></linearGradient></defs><g id="Track"><path class="cls-1" d="M256.87,28.64c-4-8.57-11.93-14.9-20.6-16.52a48.73,48.73,0,0,0-10.09-.57l-2.4,0a93.07,93.07,0,0,0-10.6.58,14.31,14.31,0,0,0-6.47,2.15,11.33,11.33,0,0,0-4.44,8,26,26,0,0,0,.64,8.05l0,.12.24,1.35q.82,4.68,1.64,9.37,1.62,9.27,3.2,18.55L209.59,69l.21,1.17a25.5,25.5,0,0,1,.6,6.89,4.46,4.46,0,0,1-.75,2.26,4.81,4.81,0,0,1-2.15,1.23,5.08,5.08,0,0,1-2.28.38c-1-.13-2.06-.9-3.3-2.38a23.63,23.63,0,0,1-2.59-3.7,4,4,0,0,0-2.89-2.24,4,4,0,0,0-2.22.45c-2.34,1.1-4.68,2.29-7,3.45A136.82,136.82,0,0,1,174,82.68a215.48,215.48,0,0,1-32.49,9.53c-2.76.58-5.67,1.05-8.64,1.41-10,1.21-20.63,1.14-34.48-.22-2.72-.26-4.62-1-5.8-2.13-1.42-1.41-2-3.84-1.66-6.51a8.29,8.29,0,0,1,1.29-3.56c2.54-3.62,8.45-4.8,13.2-5.75l.87-.17c1.68-.34,3.41-.62,5.1-.9l1.49-.25,1.82-.28A24.29,24.29,0,0,0,122,72a16.86,16.86,0,0,0,7.07-6.23,8.48,8.48,0,0,0,1.25-3.14c.36-2.25-.43-4.58-2.35-6.95a22.5,22.5,0,0,0-2-2.09c-4.87-4.59-11.34-7.3-15.91-8.76a46.58,46.58,0,0,0-19.07-2,8.73,8.73,0,0,0-4.19,1.32A9.41,9.41,0,0,0,83.91,48c-.86,1.79-1.7,3.6-2.55,5.42-2.55,5.44-5.19,11.08-8.27,16.27A124.71,124.71,0,0,1,64.69,82,23.88,23.88,0,0,0,60.18,98.6a19.94,19.94,0,0,0,2.68,8.53,24.12,24.12,0,0,0,7.22,7.06,28.71,28.71,0,0,0,5.19,2.9,16.24,16.24,0,0,0,2.26.76,27.7,27.7,0,0,0,6.68.6c.8,0,1.55,0,2.29,0,4.31.18,9.42.39,14.65.54l1.6,0c5.47.19,10.63.36,16.07-2.15A49.81,49.81,0,0,0,126.7,112l.45-.32a56.79,56.79,0,0,1,10.29-6.23,29.33,29.33,0,0,1,8.09-2.17c5.25-.64,10.74.41,16.06,1.44l1.08.2,4,.8h.07a135.88,135.88,0,0,0,14,2.3,35.4,35.4,0,0,0,10-.68A87.57,87.57,0,0,0,205.51,103c1.87-.7,3.72-1.44,5.45-2.14l.81-.33c1.8-.75,3.66-1.52,5.13-1.13a6.67,6.67,0,0,1,2.6,1.78,7.43,7.43,0,0,1,1.91,2.54,3.33,3.33,0,0,1-.37,2.91c-.95,1.36-3,2.16-5,2.93-.63.24-1.28.49-1.89.76-1.09.48-2.19,1-3.25,1.49a57.46,57.46,0,0,1-6.26,2.68l-.19.07a10.46,10.46,0,0,0-4.72,3.33,10.22,10.22,0,0,0-1.45,6c0,3,0,6.11.14,9.14l0,.48a30.84,30.84,0,0,1,0,4.82,29.58,29.58,0,0,1-1.82,6.4l-.13.34c-2.34,6.38-5.1,12.75-7.77,18.93-.54,1.23-1.08,2.47-1.61,3.71a10.47,10.47,0,0,0-.91,6.58,10.12,10.12,0,0,0,2.68,4.59,11.52,11.52,0,0,0,6.91,4,8,8,0,0,0,1.1.07,10.06,10.06,0,0,0,6.18-2.23c2.8-2.19,4.24-5.39,5.19-7.93,2.06-5.54,4.32-11.1,6.5-16.48l.23-.56,1.58-3.9L253,61.5c.54-1.34,1.15-2.73,1.75-4.1.8-1.82,1.63-3.71,2.36-5.64a40.48,40.48,0,0,0,1.83-5.95A27.07,27.07,0,0,0,256.87,28.64Zm-46.52,126c-2.2,5.42-4.47,11-6.55,16.61-.73,2-1.81,4.41-3.69,5.89a5.19,5.19,0,0,1-3.79,1.19,7.09,7.09,0,0,1-4.08-2.51,5.79,5.79,0,0,1-1.55-2.48,6,6,0,0,1,.65-3.66l1.38-3.21.22-.5c2.7-6.22,5.49-12.66,7.87-19.17l.13-.35A32.71,32.71,0,0,0,203,139a34.71,34.71,0,0,0,.08-5.57l0-.47c-.12-2.95-.17-6-.14-8.91a6.51,6.51,0,0,1,.6-3.4,6.43,6.43,0,0,1,2.67-1.68,62.47,62.47,0,0,0,6.67-2.85c1-.46,2.09-1,3.12-1.43.53-.24,1.14-.47,1.72-.69,2.53-1,5.4-2.08,7.17-4.62a8,8,0,0,0,.93-7.17,11.63,11.63,0,0,0-3.05-4.31,10.85,10.85,0,0,0-4.66-2.94c-3-.8-5.84.38-8.14,1.33l-.75.31c-1.71.69-3.54,1.42-5.34,2.1A83.71,83.71,0,0,1,190,102.76a31.11,31.11,0,0,1-8.74.62,132.2,132.2,0,0,1-13.54-2.23l-4.12-.81-1.08-.21C156.81,99,151,97.92,145,98.65a33.75,33.75,0,0,0-9.37,2.52,61.19,61.19,0,0,0-11.16,6.71l-.46.33a46,46,0,0,1-7.12,4.47c-4.42,2-9,1.89-13.94,1.72l-1.62-.05c-5.16-.15-10.27-.36-14.59-.54-.84,0-1.7,0-2.46,0a23.79,23.79,0,0,1-5.56-.45,12.32,12.32,0,0,1-1.61-.55,24.34,24.34,0,0,1-4.36-2.45,19,19,0,0,1-5.86-5.63,15.41,15.41,0,0,1-2-6.54,19.15,19.15,0,0,1,3.57-13.36A130.45,130.45,0,0,0,77.12,72C80.31,66.64,83,60.9,85.6,55.35l0-.07c.83-1.77,1.66-3.54,2.5-5.29a5.73,5.73,0,0,1,1.36-2.08,5,5,0,0,1,2-.52,42.06,42.06,0,0,1,17.14,1.84c4.11,1.32,9.9,3.73,14.14,7.72a17.61,17.61,0,0,1,1.52,1.63c1,1.27,1.51,2.4,1.37,3.27a4,4,0,0,1-.61,1.4A12.15,12.15,0,0,1,120,67.73a20.26,20.26,0,0,1-6,1.49l-1.91.29-1.49.25c-1.72.29-3.49.58-5.26.94l-.85.17c-5.28,1-12.5,2.49-16.12,7.64a12.92,12.92,0,0,0-2.09,5.58c-.6,4.13.52,8.06,3,10.51,2,2,4.8,3.09,8.63,3.46,14.21,1.39,25.16,1.46,35.5.2,3.11-.37,6.15-.87,9-1.47a219.91,219.91,0,0,0,33.2-9.74,140.08,140.08,0,0,0,13.74-6.35c2-1,4.08-2.07,6.17-3.07a30.47,30.47,0,0,0,2.82,4c1.3,1.54,3.36,3.62,6.28,4A9.7,9.7,0,0,0,209,85a9.32,9.32,0,0,0,4.23-2.67,8.71,8.71,0,0,0,1.79-4.73,29.09,29.09,0,0,0-.65-8.27c-.07-.36-.13-.73-.19-1.09L212.63,59q-1.59-9.28-3.2-18.56-.81-4.7-1.64-9.38c-.09-.51-.18-1-.28-1.53a22.09,22.09,0,0,1-.6-6.62,6.72,6.72,0,0,1,2.49-4.76,10,10,0,0,1,4.38-1.34,91.93,91.93,0,0,1,10.09-.55l2.42,0a45,45,0,0,1,9.12.49c7.11,1.33,13.88,6.79,17.23,13.91a22.4,22.4,0,0,1,1.73,14.18,37.67,37.67,0,0,1-1.63,5.29c-.69,1.81-1.5,3.65-2.28,5.43-.6,1.38-1.23,2.81-1.8,4.22l-36.5,90.39Z"/><path class="cls-2" d="M196.82,179.49a7.46,7.46,0,0,1-.95-.06,10.43,10.43,0,0,1-6.2-3.61,9,9,0,0,1-2.4-4.07,9.29,9.29,0,0,1,.85-5.85c.53-1.24,1.06-2.47,1.6-3.71,2.68-6.18,5.45-12.57,7.8-19l.13-.34a30.1,30.1,0,0,0,1.88-6.66,32.09,32.09,0,0,0,.05-5l0-.47c-.12-3-.17-6.07-.14-9.09a9.26,9.26,0,0,1,1.24-5.38,9.38,9.38,0,0,1,4.23-2.93l.1,0a57.09,57.09,0,0,0,6.38-2.72c1.06-.5,2.15-1,3.22-1.48.59-.26,1.24-.51,1.86-.74,2.16-.84,4.39-1.69,5.55-3.36a4.47,4.47,0,0,0,.51-4,8.51,8.51,0,0,0-2.2-3A7.54,7.54,0,0,0,217.2,96c-1.85-.5-3.9.36-5.88,1.18l-.8.32c-1.73.7-3.58,1.44-5.42,2.13a86.32,86.32,0,0,1-14.5,4.28,34.58,34.58,0,0,1-9.71.67A134.9,134.9,0,0,1,167,102.25l-4.09-.8-1.08-.21c-5.4-1-11-2.11-16.42-1.45a30.92,30.92,0,0,0-8.42,2.26,57.35,57.35,0,0,0-10.5,6.35l-.45.32a48.06,48.06,0,0,1-7.7,4.8c-5.18,2.41-10.21,2.23-15.53,2l-1.6,0c-5.23-.15-10.33-.36-14.64-.54-.76,0-1.52,0-2.33,0a26.52,26.52,0,0,1-6.4-.56,14.86,14.86,0,0,1-2.1-.71,27.92,27.92,0,0,1-5-2.78,23,23,0,0,1-6.88-6.71,18.71,18.71,0,0,1-2.51-8,22.68,22.68,0,0,1,4.27-15.83A127.08,127.08,0,0,0,74.1,67.91c3.11-5.25,5.76-10.91,8.32-16.38q1.26-2.72,2.55-5.4a8.18,8.18,0,0,1,2.52-3.45,7.78,7.78,0,0,1,3.66-1.12,45.57,45.57,0,0,1,18.58,2c4.45,1.43,10.75,4.07,15.47,8.5a20,20,0,0,1,1.85,2c1.7,2.1,2.41,4.12,2.11,6a7.26,7.26,0,0,1-1.09,2.7,15.6,15.6,0,0,1-6.59,5.79,22.9,22.9,0,0,1-7,1.8c-.61.09-1.22.18-1.84.29l-1.5.24c-1.69.28-3.43.57-5.13.92l-.87.17c-5,1-11.12,2.22-13.92,6.22a9.17,9.17,0,0,0-1.49,4.07c-.44,3,.3,5.83,2,7.5,1.38,1.37,3.51,2.18,6.51,2.47,13.94,1.37,24.65,1.43,34.73.21,3-.36,5.95-.84,8.74-1.42a216.74,216.74,0,0,0,32.67-9.59,138.08,138.08,0,0,0,13.39-6.2c2.27-1.15,4.62-2.34,7-3.45a2.93,2.93,0,0,1,1.57-.34,2.89,2.89,0,0,1,2,1.67A27.16,27.16,0,0,0,201,77c1.46,1.73,2.75,2.61,4,2.78a6.15,6.15,0,0,0,2.82-.44,5.71,5.71,0,0,0,2.66-1.59,5.31,5.31,0,0,0,1-2.87,25.61,25.61,0,0,0-.61-7.22c-.07-.39-.14-.78-.2-1.17l-1.58-9.21Q207.6,48,206,38.71c-.54-3.13-1.09-6.25-1.63-9.37-.09-.5-.19-1-.28-1.49a24.86,24.86,0,0,1-.63-7.69,10.13,10.13,0,0,1,4-7.21A13.09,13.09,0,0,1,213.33,11a92.89,92.89,0,0,1,10.48-.57l2.4,0a48.24,48.24,0,0,1,9.84.55c8.32,1.55,15.89,7.63,19.76,15.87a25.86,25.86,0,0,1,2,16.42A40.76,40.76,0,0,1,256,49h0c-.72,1.89-1.54,3.76-2.34,5.58-.6,1.36-1.21,2.77-1.76,4.13l-36.5,90.39c-.61,1.49-1.21,3-1.81,4.46-2.19,5.39-4.46,11-6.52,16.51-.89,2.4-2.24,5.41-4.81,7.43A8.94,8.94,0,0,1,196.82,179.49Zm9-64a7.34,7.34,0,0,0-3.21,2.11,7.3,7.3,0,0,0-.81,4.06c0,3,0,6,.14,9l0,.47a33.54,33.54,0,0,1-.07,5.39,31.74,31.74,0,0,1-2,7.19l-.12.34c-2.38,6.48-5.16,12.9-7.85,19.11-.54,1.24-1.07,2.47-1.61,3.7a7.14,7.14,0,0,0-.71,4.39,6.88,6.88,0,0,0,1.83,3,8.25,8.25,0,0,0,4.79,2.88,6.42,6.42,0,0,0,4.67-1.44c2.1-1.66,3.27-4.29,4.06-6.4,2.07-5.58,4.34-11.17,6.54-16.58l1.81-4.45,36.5-90.39c.56-1.4,1.18-2.82,1.79-4.2.78-1.79,1.59-3.64,2.29-5.48a38.79,38.79,0,0,0,1.69-5.45,23.52,23.52,0,0,0-1.83-14.92c-3.5-7.46-10.59-13.18-18.07-14.57a46,46,0,0,0-9.36-.51l-2.41,0a92.11,92.11,0,0,0-10.22.56,11.07,11.07,0,0,0-4.9,1.54,7.87,7.87,0,0,0-3,5.58,22.62,22.62,0,0,0,.61,7c.1.5.19,1,.28,1.51.55,3.13,1.1,6.25,1.64,9.38q1.6,9.27,3.2,18.56l1.57,9.2c.07.39.14.77.2,1.16a27.57,27.57,0,0,1,.64,7.88,7.51,7.51,0,0,1-1.53,4.11,8.11,8.11,0,0,1-3.71,2.31,8.59,8.59,0,0,1-3.88.55c-2.52-.32-4.36-2.21-5.54-3.59a28.75,28.75,0,0,1-2.95-4.22,3.45,3.45,0,0,0-.32-.49l-.24.12c-2.32,1.09-4.65,2.27-6.9,3.42a138.75,138.75,0,0,1-13.63,6.3,218.7,218.7,0,0,1-33,9.69c-2.85.59-5.85,1.08-8.93,1.45C123,96,112.12,95.94,98,94.56c-3.56-.35-6.15-1.38-7.93-3.13-2.21-2.19-3.21-5.75-2.66-9.51a11.69,11.69,0,0,1,1.89-5.07c3.35-4.77,10.3-6.16,15.39-7.18l.85-.17c1.74-.35,3.51-.64,5.22-.92l1.49-.25c.64-.11,1.27-.2,1.89-.29a21.2,21.2,0,0,0,6.32-1.59,13.4,13.4,0,0,0,5.62-4.92,5.14,5.14,0,0,0,.77-1.84c.19-1.22-.35-2.63-1.62-4.19a17.54,17.54,0,0,0-1.63-1.74c-4.4-4.14-10.36-6.62-14.59-8A43,43,0,0,0,91.4,43.89a5.63,5.63,0,0,0-2.57.71,6.38,6.38,0,0,0-1.75,2.54c-.86,1.79-1.7,3.58-2.54,5.38C82,58,79.28,63.76,76.11,69.1a129.86,129.86,0,0,1-8.63,12.64,20.29,20.29,0,0,0-3.8,14.18,16.35,16.35,0,0,0,2.17,7,20.26,20.26,0,0,0,6.2,6,26,26,0,0,0,4.57,2.56,12.34,12.34,0,0,0,1.77.6,24.87,24.87,0,0,0,5.84.49c.8,0,1.62,0,2.42,0,4.3.18,9.39.39,14.61.54l1.61,0c5,.18,9.8.34,14.47-1.83a46.9,46.9,0,0,0,7.32-4.58l.45-.33a60.31,60.31,0,0,1,10.94-6.59,32.9,32.9,0,0,1,9.06-2.43c5.8-.71,11.56.4,17.14,1.47l1.08.21q2.05.39,4.11.81a132.93,132.93,0,0,0,13.67,2.25,32.28,32.28,0,0,0,9.06-.64,83.88,83.88,0,0,0,14.11-4.17c1.81-.68,3.65-1.41,5.37-2.1l.77-.32c2.23-.93,4.76-2,7.38-1.28a9.65,9.65,0,0,1,4.14,2.65,10.61,10.61,0,0,1,2.77,3.87,6.79,6.79,0,0,1-.79,6.1c-1.57,2.25-4.26,3.29-6.63,4.2-.63.24-1.22.47-1.77.7-1,.46-2.11,1-3.15,1.46A59.76,59.76,0,0,1,205.78,115.48Zm49.14-66.89h0Z"/><path class="cls-2" d="M196.82,180.66a10,10,0,0,1-1.1-.07,11.59,11.59,0,0,1-6.91-4,10.07,10.07,0,0,1-2.68-4.59,10.47,10.47,0,0,1,.91-6.58c.53-1.24,1.07-2.48,1.61-3.71,2.67-6.18,5.43-12.55,7.77-18.93l.13-.34a29.58,29.58,0,0,0,1.82-6.4,30.84,30.84,0,0,0,0-4.82l0-.48c-.12-3-.17-6.1-.14-9.14a10.24,10.24,0,0,1,1.45-6,10.46,10.46,0,0,1,4.72-3.33l.19-.07a57.46,57.46,0,0,0,6.26-2.68c1.06-.5,2.16-1,3.25-1.49.61-.27,1.26-.52,1.89-.76,2-.77,4.08-1.57,5-2.93a3.33,3.33,0,0,0,.37-2.91,7.43,7.43,0,0,0-1.91-2.54,6.67,6.67,0,0,0-2.6-1.78c-1.47-.39-3.33.38-5.13,1.13l-.81.33c-1.73.7-3.58,1.44-5.45,2.14A87.57,87.57,0,0,1,190.82,105a35.38,35.38,0,0,1-10,.68,135.88,135.88,0,0,1-14-2.3h-.07l-4-.8-1.08-.2c-5.31-1-10.81-2.08-16.06-1.44a29.35,29.35,0,0,0-8.09,2.18,56.17,56.17,0,0,0-10.29,6.22l-.45.33a50.5,50.5,0,0,1-7.88,4.91c-5.44,2.51-10.6,2.34-16.07,2.15l-1.6,0c-5.23-.15-10.34-.36-14.65-.54-.74,0-1.49,0-2.29,0a28.19,28.19,0,0,1-6.68-.59,17.8,17.8,0,0,1-2.26-.77,28.71,28.71,0,0,1-5.19-2.9,24,24,0,0,1-7.22-7.06,19.94,19.94,0,0,1-2.68-8.53,23.88,23.88,0,0,1,4.51-16.65,124.71,124.71,0,0,0,8.4-12.3c3.08-5.19,5.72-10.83,8.27-16.27.85-1.82,1.69-3.63,2.55-5.42a9.41,9.41,0,0,1,2.92-3.9A8.77,8.77,0,0,1,91,40.4a46.56,46.56,0,0,1,19.07,2c4.57,1.46,11,4.17,15.91,8.76a22.5,22.5,0,0,1,2,2.09c1.92,2.37,2.71,4.71,2.35,7a8.48,8.48,0,0,1-1.25,3.14A16.86,16.86,0,0,1,122,69.61a24,24,0,0,1-7.34,1.9l-1.82.28-1.49.25c-1.69.28-3.42.56-5.1.9l-.87.18c-4.75.94-10.66,2.12-13.2,5.74a8.29,8.29,0,0,0-1.29,3.57,7.64,7.64,0,0,0,1.66,6.5c1.18,1.17,3.08,1.87,5.8,2.13,13.85,1.36,24.49,1.43,34.48.22,3-.36,5.88-.83,8.64-1.41A215.48,215.48,0,0,0,174,80.34a136.74,136.74,0,0,0,13.28-6.15c2.31-1.17,4.65-2.36,7-3.46a4,4,0,0,1,2.22-.45,4,4,0,0,1,2.89,2.24,23.63,23.63,0,0,0,2.59,3.7c1.24,1.48,2.32,2.26,3.3,2.38a5.08,5.08,0,0,0,2.28-.38A4.81,4.81,0,0,0,209.65,77a4.37,4.37,0,0,0,.75-2.26,25.5,25.5,0,0,0-.6-6.89l-.21-1.17L208,57.46q-1.59-9.27-3.2-18.55-.81-4.69-1.64-9.37l-.24-1.35,0-.12a26,26,0,0,1-.64-8,11.33,11.33,0,0,1,4.44-8,14.31,14.31,0,0,1,6.47-2.15,95.43,95.43,0,0,1,10.6-.58l2.4,0a49.29,49.29,0,0,1,10.08.57c8.68,1.62,16.58,8,20.61,16.52a27.07,27.07,0,0,1,2.07,17.17,41,41,0,0,1-1.83,6c-.73,1.92-1.56,3.81-2.36,5.63-.6,1.37-1.21,2.76-1.75,4.1l-36.5,90.39-1.58,3.9-.23.56c-2.18,5.38-4.44,10.94-6.5,16.48-.95,2.54-2.39,5.74-5.19,7.93A10.07,10.07,0,0,1,196.82,180.66Zm2.65-2.87h0ZM213,152c-.16.37-.31.74-.46,1.11-2.19,5.4-4.46,11-6.53,16.54-.83,2.26-2.09,5.08-4.43,6.92a8.44,8.44,0,0,1-2.09,1.2,8.44,8.44,0,0,0,2.09-1.2c2.34-1.84,3.6-4.66,4.43-6.92,2.08-5.57,4.34-11.15,6.53-16.54l.23-.56Zm-22,23.5a10.77,10.77,0,0,0,2.93,2.12A10.77,10.77,0,0,1,191,175.52Zm15.2-58.94a6.43,6.43,0,0,0-2.67,1.68,6.53,6.53,0,0,0-.6,3.4c0,3,0,6,.14,8.91l0,.47a34.85,34.85,0,0,1-.08,5.58,32.26,32.26,0,0,1-2.07,7.44l-.13.35c-2.38,6.51-5.17,13-7.87,19.17l-.22.5-1.38,3.21a6,6,0,0,0-.65,3.66,5.79,5.79,0,0,0,1.55,2.48,7.11,7.11,0,0,0,4.08,2.52,5.24,5.24,0,0,0,3.79-1.2c1.88-1.48,3-3.93,3.69-5.89,2.08-5.59,4.35-11.19,6.55-16.6q.92-2.23,1.81-4.46l36.5-90.39c.57-1.41,1.2-2.84,1.8-4.22.78-1.78,1.59-3.62,2.28-5.43a36.38,36.38,0,0,0,1.63-5.29,22.4,22.4,0,0,0-1.73-14.18c-3.35-7.12-10.12-12.58-17.23-13.91a45,45,0,0,0-9.12-.49l-2.42,0a91.93,91.93,0,0,0-10.09.55,10,10,0,0,0-4.38,1.34,6.72,6.72,0,0,0-2.49,4.76,22.09,22.09,0,0,0,.6,6.62c.1.52.19,1,.28,1.53q.83,4.68,1.64,9.38,1.62,9.27,3.2,18.56l1.57,9.21c.07.36.13.73.2,1.09a29.09,29.09,0,0,1,.65,8.27A8.71,8.71,0,0,1,213.26,80,9.32,9.32,0,0,1,209,82.64a9.7,9.7,0,0,1-4.41.6c-2.92-.38-5-2.46-6.28-4a29.8,29.8,0,0,1-2.82-3.95c-2.09,1-4.16,2-6.17,3.07a142.5,142.5,0,0,1-13.74,6.36,221,221,0,0,1-33.2,9.73c-2.88.6-5.92,1.1-9,1.47-10.34,1.26-21.29,1.19-35.5-.2-3.83-.37-6.65-1.51-8.63-3.46-2.48-2.45-3.6-6.38-3-10.51a12.92,12.92,0,0,1,2.09-5.58C92,71,99.18,69.58,104.46,68.53l.85-.17c1.77-.36,3.54-.65,5.26-.94l1.49-.25,1.91-.29a20.26,20.26,0,0,0,6-1.49,12.12,12.12,0,0,0,5.12-4.47,4.08,4.08,0,0,0,.61-1.41c.14-.87-.33-2-1.36-3.27a19.25,19.25,0,0,0-1.53-1.63c-4.24-4-10-6.4-14.14-7.72a42.06,42.06,0,0,0-17.14-1.84,5.17,5.17,0,0,0-2,.52,5.73,5.73,0,0,0-1.36,2.08c-.84,1.75-1.67,3.52-2.5,5.29l0,.07C83,58.56,80.31,64.3,77.12,69.7a130.45,130.45,0,0,1-8.71,12.75,19.15,19.15,0,0,0-3.57,13.36,15.41,15.41,0,0,0,2,6.54A19.13,19.13,0,0,0,72.71,108a24.34,24.34,0,0,0,4.36,2.45,12.32,12.32,0,0,0,1.61.55,23.79,23.79,0,0,0,5.56.45c.76,0,1.62,0,2.46,0,4.32.19,9.43.39,14.59.54l1.62.06c4.9.16,9.52.32,13.94-1.73a46,46,0,0,0,7.12-4.47l.46-.33a61.19,61.19,0,0,1,11.16-6.71A33.75,33.75,0,0,1,145,96.31c6-.73,11.85.39,17.51,1.48l1.08.21,4.12.81A132.2,132.2,0,0,0,181.21,101a31.11,31.11,0,0,0,8.74-.62,83.71,83.71,0,0,0,13.92-4.11c1.8-.68,3.63-1.41,5.34-2.1l.75-.31c2.3-1,5.14-2.13,8.14-1.33a10.85,10.85,0,0,1,4.66,2.94,11.63,11.63,0,0,1,3.05,4.31,8,8,0,0,1-.93,7.17c-1.77,2.54-4.64,3.65-7.17,4.62-.58.22-1.18.45-1.72.69-1,.45-2.14,1-3.12,1.43A62.47,62.47,0,0,1,206.2,116.58Zm-17.06,49.9a8.15,8.15,0,0,0-.73,5,7.41,7.41,0,0,0,1.75,3.14,7.41,7.41,0,0,1-1.75-3.14A8.15,8.15,0,0,1,189.14,166.48Zm65.79-117.9h0c-.71,1.87-1.52,3.73-2.31,5.53-.6,1.37-1.22,2.79-1.78,4.17l-36.5,90.38-.66,1.63.66-1.63,36.5-90.38c.56-1.38,1.17-2.78,1.77-4.14.8-1.83,1.61-3.68,2.32-5.56h0ZM199,142.45c-.1.27-.2.54-.29.81l-.13.34c-.49,1.33-1,2.66-1.51,4,.52-1.33,1-2.66,1.51-4l.12-.33Zm1.72-6.8c0,.23,0,.46-.07.69l-.06.49.06-.49C200.72,136.11,200.74,135.88,200.76,135.65Zm-.17-14.22v.21c0,.34,0,.68,0,1,0-.34,0-.68,0-1Zm1.14-4.67-.11.16a.61.61,0,0,0-.07.1.61.61,0,0,1,.07-.1Zm3.54-2.33a10,10,0,0,0-3.09,1.83A10.45,10.45,0,0,1,205.27,114.43ZM80.11,113.6a40.35,40.35,0,0,0,4.11.17h0A40.35,40.35,0,0,1,80.11,113.6Zm-12.64-6.81a29.52,29.52,0,0,0,3.92,3.13,31,31,0,0,0,3.92,2.29,31,31,0,0,1-3.92-2.29A30.17,30.17,0,0,1,67.47,106.79Zm148,3.18-.42.18c-1.07.47-2.14,1-3.19,1.47l-.29.14.27-.13c1-.48,2.14-1,3.21-1.48Zm-88.75-3.19-.94.67-.45.32c-1.63,1.17-3.3,2.36-5.06,3.4,1.76-1,3.43-2.23,5.06-3.4l.45-.32Zm96.91-6.1a5.68,5.68,0,0,1-.68,5l-.14.19.14-.19A5.62,5.62,0,0,0,223.64,100.68ZM64.19,102.35c.21.43.43.83.66,1.22l.24.38-.24-.38C64.62,103.18,64.4,102.78,64.19,102.35Zm117.2,1.05a31.24,31.24,0,0,0,7.52-.42A31.76,31.76,0,0,1,181.39,103.4Zm-19-3.23.68.13c1.34.25,2.69.52,4,.79l.07,0,3,.6-3-.6c-1.37-.28-2.73-.55-4.1-.81Zm47-3.53c-1.53.62-3.15,1.26-4.75,1.86-3.65,1.36-6.78,2.39-9.69,3.17,2.91-.78,6-1.8,9.69-3.17C206.31,97.89,207.91,97.25,209.44,96.64Zm13.95,3.45h0Zm-2-2.65a10,10,0,0,1,2,2.65A10,10,0,0,0,221.38,97.44ZM145.5,98.6l-.25,0-.6.08.6-.08ZM65.34,82.82A21.9,21.9,0,0,0,62.51,96c.06.6.14,1.18.24,1.75-.1-.57-.18-1.15-.24-1.75A21.9,21.9,0,0,1,65.34,82.82Zm156,14.62ZM216,94.64a13.89,13.89,0,0,0-5.16,1.42l-.64.26.64-.26c2.06-.86,4.39-1.83,6.63-1.23a5.83,5.83,0,0,1,1.61.72,5.55,5.55,0,0,0-1.61-.72A5.7,5.7,0,0,0,216,94.64ZM88.48,85a9.81,9.81,0,0,0,1,3.77A9.81,9.81,0,0,1,88.48,85Zm0,0h0Zm0,0ZM188.75,76l-.41.21a141.43,141.43,0,0,1-13.56,6.28q-2.33.89-4.67,1.71,2.34-.83,4.67-1.71a139.65,139.65,0,0,0,13.51-6.26ZM88.61,81.81c0,.09,0,.19,0,.28s0,.39-.07.58c0-.19,0-.39.07-.58S88.6,81.9,88.61,81.81Zm-6.2-27.5c-2.25,4.78-4.6,9.63-7.3,14.2A130.7,130.7,0,0,1,66.55,81a130.7,130.7,0,0,0,8.56-12.52C77.81,63.94,80.16,59.08,82.41,54.31ZM204.72,80.89l.2,0h0Zm3.47-.43-.71.21Zm1.94-.87a10.14,10.14,0,0,1-1.8.82A9.61,9.61,0,0,0,210.13,79.59Zm-11.9-4.39a27.83,27.83,0,0,0,1.9,2.53A11.7,11.7,0,0,0,202.54,80a11.72,11.72,0,0,1-2.41-2.25A27.83,27.83,0,0,1,198.23,75.2Zm14.12,1.59a5,5,0,0,1-.9,1.69l-.06.08.06-.08A5,5,0,0,0,212.35,76.79ZM109.72,69.94c-1.31.21-2.64.44-3.94.71l-.42.08.42-.08C107.08,70.38,108.41,70.15,109.72,69.94Zm5.31-.85-.72.11c-.44.06-.88.12-1.33.2l1.33-.2Zm10.31-4.71A15.34,15.34,0,0,1,121,67.5l-.11,0,.11,0A15.34,15.34,0,0,0,125.34,64.38Zm84.4-10.71c.2,1.13.39,2.27.59,3.4l1.57,9.2,0,.19,0-.19-1.57-9.2C210.13,55.94,209.94,54.8,209.74,53.67ZM127.15,62a1,1,0,0,1-.08.14l-.38.58.38-.58A1,1,0,0,0,127.15,62Zm-1-7.26,0,0,.09.1-.09-.1Zm-2.81-2.82,1.09,1c.28.27.55.53.81.81-.26-.28-.53-.54-.81-.81Zm0,0Zm-38-3.8-1.2,2.55Zm26.74-2.53a43.14,43.14,0,0,1,8.9,4.55A43.14,43.14,0,0,0,112.05,45.6Zm142.88,3h0A40,40,0,0,0,256.66,43a24.25,24.25,0,0,0-.45-11.8,24.25,24.25,0,0,1,.45,11.8A39.6,39.6,0,0,1,254.93,48.58ZM85.35,48.06l0,0ZM88,43.73a7.07,7.07,0,0,0-1.93,2.73A7.26,7.26,0,0,1,88,43.73ZM206.18,33.08c.32,1.81.63,3.62.95,5.43s.65,3.77,1,5.65c-.33-1.88-.66-3.77-1-5.65S206.5,34.89,206.18,33.08ZM91,42.76a6.24,6.24,0,0,0-2.69.81A6.36,6.36,0,0,1,91,42.76Zm165.25-11.6ZM232.76,11.68a29.15,29.15,0,0,1,3.08.4c7.66,1.43,14.93,7.18,18.67,14.72-3.78-7.65-10.89-13.27-18.67-14.72A29.15,29.15,0,0,0,232.76,11.68Zm-5.94-.14h-.59l-2.4,0-.65,0,.65,0,2.4,0Z"/><path class="cls-3" d="M196.82,179.49a7.46,7.46,0,0,1-.95-.06,10.48,10.48,0,0,1-6.21-3.61,9.11,9.11,0,0,1-2.39-4.07,9.29,9.29,0,0,1,.85-5.85l1.6-3.72c2.68-6.17,5.45-12.56,7.8-19l.13-.34a29.57,29.57,0,0,0,1.88-6.66,32.22,32.22,0,0,0,.05-5l0-.46c-.12-3-.17-6.07-.14-9.09a9.26,9.26,0,0,1,1.24-5.38,9.38,9.38,0,0,1,4.23-2.93l.1,0a57.09,57.09,0,0,0,6.38-2.72c1.06-.5,2.14-1,3.22-1.48.59-.26,1.24-.51,1.86-.74,2.16-.83,4.39-1.69,5.55-3.36a4.47,4.47,0,0,0,.51-4,8.39,8.39,0,0,0-2.2-3A7.54,7.54,0,0,0,217.2,96c-1.86-.49-3.9.36-5.88,1.18l-.8.32c-1.72.7-3.56,1.43-5.42,2.13a86.59,86.59,0,0,1-14.5,4.28,34.58,34.58,0,0,1-9.71.67A134.9,134.9,0,0,1,167,102.25l-4.09-.8-1.08-.21c-5.4-1-11-2.11-16.42-1.45a30.86,30.86,0,0,0-8.41,2.26,57.09,57.09,0,0,0-10.51,6.35l-.45.32a47.62,47.62,0,0,1-7.7,4.8c-5.18,2.41-10.21,2.23-15.53,2l-1.6,0c-5.3-.15-10.61-.37-14.64-.54-.76,0-1.52,0-2.33,0a26.52,26.52,0,0,1-6.4-.56,14.86,14.86,0,0,1-2.1-.71,28.56,28.56,0,0,1-5-2.78,23,23,0,0,1-6.88-6.71,18.71,18.71,0,0,1-2.51-8,22.68,22.68,0,0,1,4.27-15.83A127.08,127.08,0,0,0,74.1,67.91c3.11-5.25,5.76-10.91,8.32-16.38q1.26-2.72,2.55-5.4a8.18,8.18,0,0,1,2.52-3.45,7.78,7.78,0,0,1,3.66-1.12,45.59,45.59,0,0,1,18.58,2c4.45,1.43,10.75,4.07,15.47,8.5a20,20,0,0,1,1.85,2c1.7,2.1,2.41,4.12,2.11,6a7.26,7.26,0,0,1-1.09,2.7,15.6,15.6,0,0,1-6.59,5.79,22.9,22.9,0,0,1-7,1.8c-.61.09-1.22.18-1.84.29l-1.52.25c-1.68.28-3.42.56-5.11.91l-.87.17c-5,1-11.12,2.22-13.92,6.22a9.17,9.17,0,0,0-1.49,4.07c-.44,3,.3,5.83,2,7.5,1.38,1.37,3.51,2.17,6.51,2.47,13.94,1.37,24.65,1.43,34.73.21,3-.37,5.95-.84,8.74-1.42a216.74,216.74,0,0,0,32.67-9.59,138.08,138.08,0,0,0,13.39-6.2c2.27-1.15,4.62-2.34,7-3.45a2.93,2.93,0,0,1,1.57-.34,2.89,2.89,0,0,1,2,1.67A26.61,26.61,0,0,0,201,77c1.46,1.73,2.75,2.61,4,2.78a6.15,6.15,0,0,0,2.82-.44,5.71,5.71,0,0,0,2.66-1.59,5.31,5.31,0,0,0,1-2.87,25.64,25.64,0,0,0-.61-7.22c-.07-.39-.14-.78-.2-1.17l-1.58-9.21Q207.58,48,206,38.71c-.54-3.13-1.09-6.25-1.63-9.37-.09-.5-.19-1-.28-1.49a24.86,24.86,0,0,1-.63-7.69,10.13,10.13,0,0,1,4-7.21A13.09,13.09,0,0,1,213.33,11a90.6,90.6,0,0,1,10.48-.57l2.4,0a48.24,48.24,0,0,1,9.84.55c8.31,1.55,15.89,7.63,19.76,15.87a25.85,25.85,0,0,1,2,16.42A42.11,42.11,0,0,1,256,49c-.72,1.89-1.55,3.77-2.34,5.59-.6,1.35-1.21,2.76-1.76,4.12l-36.5,90.39c-.6,1.49-1.21,3-1.81,4.46-2.19,5.39-4.46,11-6.52,16.51-.89,2.4-2.24,5.41-4.81,7.43A8.94,8.94,0,0,1,196.82,179.49Zm9-64a7.34,7.34,0,0,0-3.21,2.11,7.3,7.3,0,0,0-.81,4.06c0,3,0,6,.14,9l0,.46a33.67,33.67,0,0,1-.07,5.4,31.51,31.51,0,0,1-2,7.18l-.12.35c-2.38,6.48-5.16,12.9-7.85,19.1-.54,1.24-1.07,2.48-1.61,3.71a7.14,7.14,0,0,0-.71,4.39,6.93,6.93,0,0,0,1.83,3,8.25,8.25,0,0,0,4.79,2.88,6.45,6.45,0,0,0,4.67-1.44c2.1-1.66,3.27-4.3,4.06-6.4,2.07-5.58,4.34-11.17,6.54-16.58l1.81-4.45,36.5-90.39c.56-1.4,1.18-2.82,1.78-4.19.79-1.79,1.6-3.65,2.3-5.48h0a40.16,40.16,0,0,0,1.69-5.45,23.52,23.52,0,0,0-1.83-14.92c-3.5-7.46-10.59-13.18-18.07-14.57a46,46,0,0,0-9.36-.51l-2.41,0a92.11,92.11,0,0,0-10.22.56,11.07,11.07,0,0,0-4.9,1.54,7.87,7.87,0,0,0-3,5.58,22.62,22.62,0,0,0,.61,7c.1.5.19,1,.28,1.51.55,3.13,1.09,6.25,1.64,9.38q1.6,9.27,3.2,18.56l1.57,9.2c.07.39.14.77.2,1.16a27.57,27.57,0,0,1,.64,7.88,7.54,7.54,0,0,1-1.53,4.11,8.11,8.11,0,0,1-3.71,2.31,8.62,8.62,0,0,1-3.88.55c-2.52-.32-4.36-2.21-5.54-3.59a28.75,28.75,0,0,1-2.95-4.22,3.45,3.45,0,0,0-.32-.49l-.24.12c-2.32,1.09-4.65,2.27-6.9,3.42a139.65,139.65,0,0,1-13.62,6.3,219.16,219.16,0,0,1-33,9.69c-2.84.59-5.85,1.08-8.93,1.45C123,96,112.12,95.94,98,94.56c-3.56-.35-6.15-1.38-7.93-3.13-2.21-2.19-3.21-5.75-2.66-9.51a11.69,11.69,0,0,1,1.89-5.07c3.35-4.77,10.3-6.16,15.39-7.18l.85-.17c1.74-.35,3.5-.64,5.2-.92l1.51-.25c.64-.11,1.27-.2,1.89-.29a21.2,21.2,0,0,0,6.32-1.59,13.4,13.4,0,0,0,5.62-4.92,5.14,5.14,0,0,0,.77-1.84c.19-1.22-.35-2.63-1.62-4.19a17.54,17.54,0,0,0-1.63-1.74c-4.4-4.14-10.36-6.62-14.59-8A43,43,0,0,0,91.4,43.89a5.63,5.63,0,0,0-2.57.71,6.38,6.38,0,0,0-1.75,2.54c-.86,1.79-1.7,3.58-2.54,5.38C82,58.05,79.28,63.76,76.11,69.1a129.86,129.86,0,0,1-8.63,12.64,20.29,20.29,0,0,0-3.8,14.18,16.35,16.35,0,0,0,2.17,7,20.26,20.26,0,0,0,6.2,6,26,26,0,0,0,4.57,2.56,12.34,12.34,0,0,0,1.77.6,24.35,24.35,0,0,0,5.84.49c.8,0,1.62,0,2.42,0,4,.17,9.33.39,14.61.54l1.61,0c5,.18,9.8.34,14.47-1.83a46.9,46.9,0,0,0,7.32-4.58l.45-.33a60.65,60.65,0,0,1,10.94-6.59,32.9,32.9,0,0,1,9.06-2.43c5.79-.71,11.56.4,17.14,1.47l1.08.21q2.05.39,4.11.81a132.93,132.93,0,0,0,13.67,2.25,32.28,32.28,0,0,0,9.06-.64,84.15,84.15,0,0,0,14.11-4.17c1.84-.69,3.66-1.42,5.37-2.1l.77-.32c2.23-.93,4.76-2,7.38-1.28a9.65,9.65,0,0,1,4.14,2.65,10.61,10.61,0,0,1,2.77,3.87,6.78,6.78,0,0,1-.79,6.1c-1.57,2.25-4.26,3.29-6.63,4.2-.63.24-1.22.47-1.76.7-1.05.46-2.12,1-3.16,1.46A59.76,59.76,0,0,1,205.78,115.48Z"/><path class="cls-3" d="M196.82,179.49a7.46,7.46,0,0,1-.95-.06,10.48,10.48,0,0,1-6.21-3.61,9.11,9.11,0,0,1-2.39-4.07,9.29,9.29,0,0,1,.85-5.85l1.6-3.72c2.68-6.17,5.45-12.56,7.8-19l.13-.34a29.57,29.57,0,0,0,1.88-6.66,32.22,32.22,0,0,0,.05-5l0-.46c-.12-3-.17-6.07-.14-9.09a9.26,9.26,0,0,1,1.24-5.38,9.38,9.38,0,0,1,4.23-2.93l.1,0a57.09,57.09,0,0,0,6.38-2.72c1.06-.5,2.14-1,3.22-1.48.59-.26,1.24-.51,1.86-.74,2.16-.83,4.39-1.69,5.55-3.36a4.47,4.47,0,0,0,.51-4,8.39,8.39,0,0,0-2.2-3A7.54,7.54,0,0,0,217.2,96c-1.86-.49-3.9.36-5.88,1.18l-.8.32c-1.72.7-3.56,1.43-5.42,2.13a86.59,86.59,0,0,1-14.5,4.28,34.58,34.58,0,0,1-9.71.67A134.9,134.9,0,0,1,167,102.25l-4.09-.8-1.08-.21c-5.4-1-11-2.11-16.42-1.45a30.86,30.86,0,0,0-8.41,2.26,57.09,57.09,0,0,0-10.51,6.35l-.45.32a47.62,47.62,0,0,1-7.7,4.8c-5.18,2.41-10.21,2.23-15.53,2l-1.6,0c-5.3-.15-10.61-.37-14.64-.54-.76,0-1.52,0-2.33,0a26.52,26.52,0,0,1-6.4-.56,14.86,14.86,0,0,1-2.1-.71,28.56,28.56,0,0,1-5-2.78,23,23,0,0,1-6.88-6.71,18.71,18.71,0,0,1-2.51-8,22.68,22.68,0,0,1,4.27-15.83A127.08,127.08,0,0,0,74.1,67.91c3.11-5.25,5.76-10.91,8.32-16.38q1.26-2.72,2.55-5.4a8.18,8.18,0,0,1,2.52-3.45,7.78,7.78,0,0,1,3.66-1.12,45.59,45.59,0,0,1,18.58,2c4.45,1.43,10.75,4.07,15.47,8.5a20,20,0,0,1,1.85,2c1.7,2.1,2.41,4.12,2.11,6a7.26,7.26,0,0,1-1.09,2.7,15.6,15.6,0,0,1-6.59,5.79,22.9,22.9,0,0,1-7,1.8c-.61.09-1.22.18-1.84.29l-1.52.25c-1.68.28-3.42.56-5.11.91l-.87.17c-5,1-11.12,2.22-13.92,6.22a9.17,9.17,0,0,0-1.49,4.07c-.44,3,.3,5.83,2,7.5,1.38,1.37,3.51,2.17,6.51,2.47,13.94,1.37,24.65,1.43,34.73.21,3-.37,5.95-.84,8.74-1.42a216.74,216.74,0,0,0,32.67-9.59,138.08,138.08,0,0,0,13.39-6.2c2.27-1.15,4.62-2.34,7-3.45a2.93,2.93,0,0,1,1.57-.34,2.89,2.89,0,0,1,2,1.67A26.61,26.61,0,0,0,201,77c1.46,1.73,2.75,2.61,4,2.78a6.15,6.15,0,0,0,2.82-.44,5.71,5.71,0,0,0,2.66-1.59,5.31,5.31,0,0,0,1-2.87,25.64,25.64,0,0,0-.61-7.22c-.07-.39-.14-.78-.2-1.17l-1.58-9.21Q207.58,48,206,38.71c-.54-3.13-1.09-6.25-1.63-9.37-.09-.5-.19-1-.28-1.49a24.86,24.86,0,0,1-.63-7.69,10.13,10.13,0,0,1,4-7.21A13.09,13.09,0,0,1,213.33,11a90.6,90.6,0,0,1,10.48-.57l2.4,0a48.24,48.24,0,0,1,9.84.55c8.31,1.55,15.89,7.63,19.76,15.87a25.85,25.85,0,0,1,2,16.42A42.11,42.11,0,0,1,256,49c-.72,1.89-1.55,3.77-2.34,5.59-.6,1.35-1.21,2.76-1.76,4.12l-36.5,90.39c-.6,1.49-1.21,3-1.81,4.46-2.19,5.39-4.46,11-6.52,16.51-.89,2.4-2.24,5.41-4.81,7.43A8.94,8.94,0,0,1,196.82,179.49Zm9-64a7.34,7.34,0,0,0-3.21,2.11,7.3,7.3,0,0,0-.81,4.06c0,3,0,6,.14,9l0,.46a33.67,33.67,0,0,1-.07,5.4,31.51,31.51,0,0,1-2,7.18l-.12.35c-2.38,6.48-5.16,12.9-7.85,19.1-.54,1.24-1.07,2.48-1.61,3.71a7.14,7.14,0,0,0-.71,4.39,6.93,6.93,0,0,0,1.83,3,8.25,8.25,0,0,0,4.79,2.88,6.45,6.45,0,0,0,4.67-1.44c2.1-1.66,3.27-4.3,4.06-6.4,2.07-5.58,4.34-11.17,6.54-16.58l1.81-4.45,36.5-90.39c.56-1.4,1.18-2.82,1.78-4.19.79-1.79,1.6-3.65,2.3-5.48h0a40.16,40.16,0,0,0,1.69-5.45,23.52,23.52,0,0,0-1.83-14.92c-3.5-7.46-10.59-13.18-18.07-14.57a46,46,0,0,0-9.36-.51l-2.41,0a92.11,92.11,0,0,0-10.22.56,11.07,11.07,0,0,0-4.9,1.54,7.87,7.87,0,0,0-3,5.58,22.62,22.62,0,0,0,.61,7c.1.5.19,1,.28,1.51.55,3.13,1.09,6.25,1.64,9.38q1.6,9.27,3.2,18.56l1.57,9.2c.07.39.14.77.2,1.16a27.57,27.57,0,0,1,.64,7.88,7.54,7.54,0,0,1-1.53,4.11,8.11,8.11,0,0,1-3.71,2.31,8.62,8.62,0,0,1-3.88.55c-2.52-.32-4.36-2.21-5.54-3.59a28.75,28.75,0,0,1-2.95-4.22,3.45,3.45,0,0,0-.32-.49l-.24.12c-2.32,1.09-4.65,2.27-6.9,3.42a139.65,139.65,0,0,1-13.62,6.3,219.16,219.16,0,0,1-33,9.69c-2.84.59-5.85,1.08-8.93,1.45C123,96,112.12,95.94,98,94.56c-3.56-.35-6.15-1.38-7.93-3.13-2.21-2.19-3.21-5.75-2.66-9.51a11.69,11.69,0,0,1,1.89-5.07c3.35-4.77,10.3-6.16,15.39-7.18l.85-.17c1.74-.35,3.5-.64,5.2-.92l1.51-.25c.64-.11,1.27-.2,1.89-.29a21.2,21.2,0,0,0,6.32-1.59,13.4,13.4,0,0,0,5.62-4.92,5.14,5.14,0,0,0,.77-1.84c.19-1.22-.35-2.63-1.62-4.19a17.54,17.54,0,0,0-1.63-1.74c-4.4-4.14-10.36-6.62-14.59-8A43,43,0,0,0,91.4,43.89a5.63,5.63,0,0,0-2.57.71,6.38,6.38,0,0,0-1.75,2.54c-.86,1.79-1.7,3.58-2.54,5.38C82,58.05,79.28,63.76,76.11,69.1a129.86,129.86,0,0,1-8.63,12.64,20.29,20.29,0,0,0-3.8,14.18,16.35,16.35,0,0,0,2.17,7,20.26,20.26,0,0,0,6.2,6,26,26,0,0,0,4.57,2.56,12.34,12.34,0,0,0,1.77.6,24.35,24.35,0,0,0,5.84.49c.8,0,1.62,0,2.42,0,4,.17,9.33.39,14.61.54l1.61,0c5,.18,9.8.34,14.47-1.83a46.9,46.9,0,0,0,7.32-4.58l.45-.33a60.65,60.65,0,0,1,10.94-6.59,32.9,32.9,0,0,1,9.06-2.43c5.79-.71,11.56.4,17.14,1.47l1.08.21q2.05.39,4.11.81a132.93,132.93,0,0,0,13.67,2.25,32.28,32.28,0,0,0,9.06-.64,84.15,84.15,0,0,0,14.11-4.17c1.84-.69,3.66-1.42,5.37-2.1l.77-.32c2.23-.93,4.76-2,7.38-1.28a9.65,9.65,0,0,1,4.14,2.65,10.61,10.61,0,0,1,2.77,3.87,6.78,6.78,0,0,1-.79,6.1c-1.57,2.25-4.26,3.29-6.63,4.2-.63.24-1.22.47-1.76.7-1.05.46-2.12,1-3.16,1.46A59.76,59.76,0,0,1,205.78,115.48Z"/><path class="cls-3" d="M196.82,179.49a7.46,7.46,0,0,1-.95-.06,10.48,10.48,0,0,1-6.21-3.61,9.11,9.11,0,0,1-2.39-4.07,9.29,9.29,0,0,1,.85-5.85l1.6-3.72c2.68-6.17,5.45-12.56,7.8-19l.13-.34a29.57,29.57,0,0,0,1.88-6.66,32.22,32.22,0,0,0,.05-5l0-.46c-.12-3-.17-6.07-.14-9.09a9.26,9.26,0,0,1,1.24-5.38,9.38,9.38,0,0,1,4.23-2.93l.1,0a57.09,57.09,0,0,0,6.38-2.72c1.06-.5,2.14-1,3.22-1.48.59-.26,1.24-.51,1.86-.74,2.16-.83,4.39-1.69,5.55-3.36a4.47,4.47,0,0,0,.51-4,8.39,8.39,0,0,0-2.2-3A7.54,7.54,0,0,0,217.2,96c-1.86-.49-3.9.36-5.88,1.18l-.8.32c-1.72.7-3.56,1.43-5.42,2.13a86.59,86.59,0,0,1-14.5,4.28,34.58,34.58,0,0,1-9.71.67A134.9,134.9,0,0,1,167,102.25l-4.09-.8-1.08-.21c-5.4-1-11-2.11-16.42-1.45a30.86,30.86,0,0,0-8.41,2.26,57.09,57.09,0,0,0-10.51,6.35l-.45.32a47.62,47.62,0,0,1-7.7,4.8c-5.18,2.41-10.21,2.23-15.53,2l-1.6,0c-5.3-.15-10.61-.37-14.64-.54-.76,0-1.52,0-2.33,0a26.52,26.52,0,0,1-6.4-.56,14.86,14.86,0,0,1-2.1-.71,28.56,28.56,0,0,1-5-2.78,23,23,0,0,1-6.88-6.71,18.71,18.71,0,0,1-2.51-8,22.68,22.68,0,0,1,4.27-15.83A127.08,127.08,0,0,0,74.1,67.91c3.11-5.25,5.76-10.91,8.32-16.38q1.26-2.72,2.55-5.4a8.18,8.18,0,0,1,2.52-3.45,7.78,7.78,0,0,1,3.66-1.12,45.59,45.59,0,0,1,18.58,2c4.45,1.43,10.75,4.07,15.47,8.5a20,20,0,0,1,1.85,2c1.7,2.1,2.41,4.12,2.11,6a7.26,7.26,0,0,1-1.09,2.7,15.6,15.6,0,0,1-6.59,5.79,22.9,22.9,0,0,1-7,1.8c-.61.09-1.22.18-1.84.29l-1.52.25c-1.68.28-3.42.56-5.11.91l-.87.17c-5,1-11.12,2.22-13.92,6.22a9.17,9.17,0,0,0-1.49,4.07c-.44,3,.3,5.83,2,7.5,1.38,1.37,3.51,2.17,6.51,2.47,13.94,1.37,24.65,1.43,34.73.21,3-.37,5.95-.84,8.74-1.42a216.74,216.74,0,0,0,32.67-9.59,138.08,138.08,0,0,0,13.39-6.2c2.27-1.15,4.62-2.34,7-3.45a2.93,2.93,0,0,1,1.57-.34,2.89,2.89,0,0,1,2,1.67A26.61,26.61,0,0,0,201,77c1.46,1.73,2.75,2.61,4,2.78a6.15,6.15,0,0,0,2.82-.44,5.71,5.71,0,0,0,2.66-1.59,5.31,5.31,0,0,0,1-2.87,25.64,25.64,0,0,0-.61-7.22c-.07-.39-.14-.78-.2-1.17l-1.58-9.21Q207.58,48,206,38.71c-.54-3.13-1.09-6.25-1.63-9.37-.09-.5-.19-1-.28-1.49a24.86,24.86,0,0,1-.63-7.69,10.13,10.13,0,0,1,4-7.21A13.09,13.09,0,0,1,213.33,11a90.6,90.6,0,0,1,10.48-.57l2.4,0a48.24,48.24,0,0,1,9.84.55c8.31,1.55,15.89,7.63,19.76,15.87a25.85,25.85,0,0,1,2,16.42A42.11,42.11,0,0,1,256,49c-.72,1.89-1.55,3.77-2.34,5.59-.6,1.35-1.21,2.76-1.76,4.12l-36.5,90.39c-.6,1.49-1.21,3-1.81,4.46-2.19,5.39-4.46,11-6.52,16.51-.89,2.4-2.24,5.41-4.81,7.43A8.94,8.94,0,0,1,196.82,179.49Zm9-64a7.34,7.34,0,0,0-3.21,2.11,7.3,7.3,0,0,0-.81,4.06c0,3,0,6,.14,9l0,.46a33.67,33.67,0,0,1-.07,5.4,31.51,31.51,0,0,1-2,7.18l-.12.35c-2.38,6.48-5.16,12.9-7.85,19.1-.54,1.24-1.07,2.48-1.61,3.71a7.14,7.14,0,0,0-.71,4.39,6.93,6.93,0,0,0,1.83,3,8.25,8.25,0,0,0,4.79,2.88,6.45,6.45,0,0,0,4.67-1.44c2.1-1.66,3.27-4.3,4.06-6.4,2.07-5.58,4.34-11.17,6.54-16.58l1.81-4.45,36.5-90.39c.56-1.4,1.18-2.82,1.78-4.19.79-1.79,1.6-3.65,2.3-5.48h0a40.16,40.16,0,0,0,1.69-5.45,23.52,23.52,0,0,0-1.83-14.92c-3.5-7.46-10.59-13.18-18.07-14.57a46,46,0,0,0-9.36-.51l-2.41,0a92.11,92.11,0,0,0-10.22.56,11.07,11.07,0,0,0-4.9,1.54,7.87,7.87,0,0,0-3,5.58,22.62,22.62,0,0,0,.61,7c.1.5.19,1,.28,1.51.55,3.13,1.09,6.25,1.64,9.38q1.6,9.27,3.2,18.56l1.57,9.2c.07.39.14.77.2,1.16a27.57,27.57,0,0,1,.64,7.88,7.54,7.54,0,0,1-1.53,4.11,8.11,8.11,0,0,1-3.71,2.31,8.62,8.62,0,0,1-3.88.55c-2.52-.32-4.36-2.21-5.54-3.59a28.75,28.75,0,0,1-2.95-4.22,3.45,3.45,0,0,0-.32-.49l-.24.12c-2.32,1.09-4.65,2.27-6.9,3.42a139.65,139.65,0,0,1-13.62,6.3,219.16,219.16,0,0,1-33,9.69c-2.84.59-5.85,1.08-8.93,1.45C123,96,112.12,95.94,98,94.56c-3.56-.35-6.15-1.38-7.93-3.13-2.21-2.19-3.21-5.75-2.66-9.51a11.69,11.69,0,0,1,1.89-5.07c3.35-4.77,10.3-6.16,15.39-7.18l.85-.17c1.74-.35,3.5-.64,5.2-.92l1.51-.25c.64-.11,1.27-.2,1.89-.29a21.2,21.2,0,0,0,6.32-1.59,13.4,13.4,0,0,0,5.62-4.92,5.14,5.14,0,0,0,.77-1.84c.19-1.22-.35-2.63-1.62-4.19a17.54,17.54,0,0,0-1.63-1.74c-4.4-4.14-10.36-6.62-14.59-8A43,43,0,0,0,91.4,43.89a5.63,5.63,0,0,0-2.57.71,6.38,6.38,0,0,0-1.75,2.54c-.86,1.79-1.7,3.58-2.54,5.38C82,58.05,79.28,63.76,76.11,69.1a129.86,129.86,0,0,1-8.63,12.64,20.29,20.29,0,0,0-3.8,14.18,16.35,16.35,0,0,0,2.17,7,20.26,20.26,0,0,0,6.2,6,26,26,0,0,0,4.57,2.56,12.34,12.34,0,0,0,1.77.6,24.35,24.35,0,0,0,5.84.49c.8,0,1.62,0,2.42,0,4,.17,9.33.39,14.61.54l1.61,0c5,.18,9.8.34,14.47-1.83a46.9,46.9,0,0,0,7.32-4.58l.45-.33a60.65,60.65,0,0,1,10.94-6.59,32.9,32.9,0,0,1,9.06-2.43c5.79-.71,11.56.4,17.14,1.47l1.08.21q2.05.39,4.11.81a132.93,132.93,0,0,0,13.67,2.25,32.28,32.28,0,0,0,9.06-.64,84.15,84.15,0,0,0,14.11-4.17c1.84-.69,3.66-1.42,5.37-2.1l.77-.32c2.23-.93,4.76-2,7.38-1.28a9.65,9.65,0,0,1,4.14,2.65,10.61,10.61,0,0,1,2.77,3.87,6.78,6.78,0,0,1-.79,6.1c-1.57,2.25-4.26,3.29-6.63,4.2-.63.24-1.22.47-1.76.7-1.05.46-2.12,1-3.16,1.46A59.76,59.76,0,0,1,205.78,115.48Z"/><path class="cls-3" d="M196.82,179.49a7.46,7.46,0,0,1-.95-.06,10.48,10.48,0,0,1-6.21-3.61,9.11,9.11,0,0,1-2.39-4.07,9.29,9.29,0,0,1,.85-5.85l1.6-3.72c2.68-6.17,5.45-12.56,7.8-19l.13-.34a29.57,29.57,0,0,0,1.88-6.66,32.22,32.22,0,0,0,.05-5l0-.46c-.12-3-.17-6.07-.14-9.09a9.26,9.26,0,0,1,1.24-5.38,9.38,9.38,0,0,1,4.23-2.93l.1,0a57.09,57.09,0,0,0,6.38-2.72c1.06-.5,2.14-1,3.22-1.48.59-.26,1.24-.51,1.86-.74,2.16-.83,4.39-1.69,5.55-3.36a4.47,4.47,0,0,0,.51-4,8.39,8.39,0,0,0-2.2-3A7.54,7.54,0,0,0,217.2,96c-1.86-.49-3.9.36-5.88,1.18l-.8.32c-1.72.7-3.56,1.43-5.42,2.13a86.59,86.59,0,0,1-14.5,4.28,34.58,34.58,0,0,1-9.71.67A134.9,134.9,0,0,1,167,102.25l-4.09-.8-1.08-.21c-5.4-1-11-2.11-16.42-1.45a30.86,30.86,0,0,0-8.41,2.26,57.09,57.09,0,0,0-10.51,6.35l-.45.32a47.62,47.62,0,0,1-7.7,4.8c-5.18,2.41-10.21,2.23-15.53,2l-1.6,0c-5.3-.15-10.61-.37-14.64-.54-.76,0-1.52,0-2.33,0a26.52,26.52,0,0,1-6.4-.56,14.86,14.86,0,0,1-2.1-.71,28.56,28.56,0,0,1-5-2.78,23,23,0,0,1-6.88-6.71,18.71,18.71,0,0,1-2.51-8,22.68,22.68,0,0,1,4.27-15.83A127.08,127.08,0,0,0,74.1,67.91c3.11-5.25,5.76-10.91,8.32-16.38q1.26-2.72,2.55-5.4a8.18,8.18,0,0,1,2.52-3.45,7.78,7.78,0,0,1,3.66-1.12,45.59,45.59,0,0,1,18.58,2c4.45,1.43,10.75,4.07,15.47,8.5a20,20,0,0,1,1.85,2c1.7,2.1,2.41,4.12,2.11,6a7.26,7.26,0,0,1-1.09,2.7,15.6,15.6,0,0,1-6.59,5.79,22.9,22.9,0,0,1-7,1.8c-.61.09-1.22.18-1.84.29l-1.52.25c-1.68.28-3.42.56-5.11.91l-.87.17c-5,1-11.12,2.22-13.92,6.22a9.17,9.17,0,0,0-1.49,4.07c-.44,3,.3,5.83,2,7.5,1.38,1.37,3.51,2.17,6.51,2.47,13.94,1.37,24.65,1.43,34.73.21,3-.37,5.95-.84,8.74-1.42a216.74,216.74,0,0,0,32.67-9.59,139.19,139.19,0,0,0,13.39-6.2c2.27-1.15,4.62-2.34,7-3.45a2.93,2.93,0,0,1,1.57-.34,2.89,2.89,0,0,1,2,1.67A26.61,26.61,0,0,0,201,77c1.46,1.73,2.75,2.61,4,2.78a6.15,6.15,0,0,0,2.82-.44,5.71,5.71,0,0,0,2.66-1.59,5.31,5.31,0,0,0,1-2.87,25.64,25.64,0,0,0-.61-7.22c-.07-.39-.14-.78-.2-1.17l-1.58-9.21Q207.58,48,206,38.71c-.54-3.13-1.09-6.25-1.63-9.37-.09-.5-.19-1-.28-1.49a24.86,24.86,0,0,1-.63-7.69,10.13,10.13,0,0,1,4-7.21A13.09,13.09,0,0,1,213.33,11a90.6,90.6,0,0,1,10.48-.57l2.4,0a48.24,48.24,0,0,1,9.84.55c8.31,1.55,15.89,7.63,19.76,15.87a25.85,25.85,0,0,1,2,16.42A42.11,42.11,0,0,1,256,49c-.72,1.89-1.55,3.77-2.34,5.59-.6,1.35-1.21,2.76-1.76,4.12l-36.5,90.39c-.6,1.49-1.21,3-1.81,4.46-2.19,5.39-4.46,11-6.52,16.51-.89,2.4-2.24,5.41-4.81,7.43A8.94,8.94,0,0,1,196.82,179.49Zm9-64a7.34,7.34,0,0,0-3.21,2.11,7.3,7.3,0,0,0-.81,4.06c0,3,0,6,.14,9l0,.46a33.67,33.67,0,0,1-.07,5.4,31.51,31.51,0,0,1-2,7.18l-.12.35c-2.38,6.48-5.16,12.9-7.85,19.1-.54,1.24-1.07,2.48-1.61,3.71a7.14,7.14,0,0,0-.71,4.39,6.93,6.93,0,0,0,1.83,3,8.25,8.25,0,0,0,4.79,2.88,6.45,6.45,0,0,0,4.67-1.44c2.1-1.66,3.27-4.3,4.06-6.4,2.07-5.58,4.34-11.17,6.54-16.58l1.81-4.45,36.5-90.39c.56-1.4,1.18-2.82,1.78-4.19.79-1.79,1.6-3.65,2.3-5.48h0a40.16,40.16,0,0,0,1.69-5.45,23.52,23.52,0,0,0-1.83-14.92c-3.5-7.46-10.59-13.18-18.07-14.57a46,46,0,0,0-9.36-.51l-2.41,0a92.11,92.11,0,0,0-10.22.56,11.07,11.07,0,0,0-4.9,1.54,7.87,7.87,0,0,0-3,5.58,22.62,22.62,0,0,0,.61,7c.1.5.19,1,.28,1.51.55,3.13,1.09,6.25,1.64,9.38q1.6,9.27,3.2,18.56l1.57,9.2c.07.39.14.77.2,1.16a27.57,27.57,0,0,1,.64,7.88,7.54,7.54,0,0,1-1.53,4.11,8.11,8.11,0,0,1-3.71,2.31,8.62,8.62,0,0,1-3.88.55c-2.52-.32-4.36-2.21-5.54-3.59a28.75,28.75,0,0,1-2.95-4.22,3.45,3.45,0,0,0-.32-.49l-.24.12c-2.32,1.09-4.65,2.27-6.9,3.41a137.4,137.4,0,0,1-13.62,6.31,219.16,219.16,0,0,1-33,9.69c-2.84.59-5.85,1.08-8.93,1.45C123,96,112.12,95.94,98,94.56c-3.56-.35-6.15-1.38-7.93-3.13-2.21-2.19-3.21-5.75-2.66-9.51a11.69,11.69,0,0,1,1.89-5.07c3.35-4.77,10.3-6.16,15.39-7.18l.85-.17c1.74-.35,3.5-.64,5.2-.92l1.51-.25c.64-.11,1.27-.2,1.89-.29a21.2,21.2,0,0,0,6.32-1.59,13.4,13.4,0,0,0,5.62-4.92,5.14,5.14,0,0,0,.77-1.84c.19-1.22-.35-2.63-1.62-4.19a17.54,17.54,0,0,0-1.63-1.74c-4.4-4.14-10.36-6.62-14.59-8A43,43,0,0,0,91.4,43.89a5.63,5.63,0,0,0-2.57.71,6.38,6.38,0,0,0-1.75,2.54c-.86,1.79-1.7,3.58-2.54,5.38C82,58.05,79.28,63.76,76.11,69.1a129.86,129.86,0,0,1-8.63,12.64,20.29,20.29,0,0,0-3.8,14.18,16.35,16.35,0,0,0,2.17,7,20.26,20.26,0,0,0,6.2,6,26,26,0,0,0,4.57,2.56,12.34,12.34,0,0,0,1.77.6,24.35,24.35,0,0,0,5.84.49c.8,0,1.62,0,2.42,0,4,.17,9.33.39,14.61.54l1.61,0c5,.18,9.8.34,14.47-1.83a46.9,46.9,0,0,0,7.32-4.58l.45-.33a60.65,60.65,0,0,1,10.94-6.59,32.9,32.9,0,0,1,9.06-2.43c5.79-.71,11.56.4,17.14,1.47l1.08.21q2.05.39,4.11.81a132.93,132.93,0,0,0,13.67,2.25,32.28,32.28,0,0,0,9.06-.64,84.15,84.15,0,0,0,14.11-4.17c1.84-.69,3.66-1.42,5.37-2.1l.77-.32c2.23-.93,4.76-2,7.38-1.28a9.65,9.65,0,0,1,4.14,2.65,10.61,10.61,0,0,1,2.77,3.87,6.78,6.78,0,0,1-.79,6.1c-1.57,2.25-4.26,3.29-6.63,4.2-.63.24-1.22.47-1.76.7-1.05.46-2.12,1-3.16,1.46A59.76,59.76,0,0,1,205.78,115.48Z"/><path class="cls-4" d="M196.82,179.49a7.46,7.46,0,0,1-.95-.06,10.48,10.48,0,0,1-6.21-3.61,9.11,9.11,0,0,1-2.39-4.07,9.29,9.29,0,0,1,.85-5.85l1.6-3.72c2.68-6.17,5.45-12.56,7.8-19l.13-.34a29.57,29.57,0,0,0,1.88-6.66,32.22,32.22,0,0,0,.05-5l0-.46c-.12-3-.17-6.07-.14-9.09a9.26,9.26,0,0,1,1.24-5.38,9.38,9.38,0,0,1,4.23-2.93l.1,0a57.09,57.09,0,0,0,6.38-2.72c1.06-.5,2.14-1,3.22-1.48.59-.26,1.24-.51,1.86-.74,2.16-.83,4.39-1.69,5.55-3.36a4.47,4.47,0,0,0,.51-4,8.39,8.39,0,0,0-2.2-3A7.54,7.54,0,0,0,217.2,96c-1.86-.49-3.9.36-5.88,1.18l-.8.32c-1.72.7-3.56,1.43-5.42,2.13a86.59,86.59,0,0,1-14.5,4.28,34.58,34.58,0,0,1-9.71.67A134.9,134.9,0,0,1,167,102.25l-4.09-.8-1.08-.21c-5.4-1-11-2.11-16.42-1.45a30.86,30.86,0,0,0-8.41,2.26,57.09,57.09,0,0,0-10.51,6.35l-.45.32a47.62,47.62,0,0,1-7.7,4.8c-5.18,2.41-10.21,2.23-15.53,2l-1.6,0c-5.3-.15-10.61-.37-14.64-.54-.76,0-1.52,0-2.33,0a26.52,26.52,0,0,1-6.4-.56,14.86,14.86,0,0,1-2.1-.71,28.56,28.56,0,0,1-5-2.78,23,23,0,0,1-6.88-6.71,18.71,18.71,0,0,1-2.51-8,22.68,22.68,0,0,1,4.27-15.83A127.08,127.08,0,0,0,74.1,67.91c3.11-5.25,5.76-10.91,8.32-16.38q1.26-2.72,2.55-5.4a8.18,8.18,0,0,1,2.52-3.45,7.78,7.78,0,0,1,3.66-1.12,45.59,45.59,0,0,1,18.58,2c4.45,1.43,10.75,4.07,15.47,8.5a20,20,0,0,1,1.85,2c1.7,2.1,2.41,4.12,2.11,6a7.26,7.26,0,0,1-1.09,2.7,15.6,15.6,0,0,1-6.59,5.79,22.9,22.9,0,0,1-7,1.8c-.61.09-1.22.18-1.84.29l-1.52.25c-1.68.28-3.42.56-5.11.91l-.87.17c-5,1-11.12,2.22-13.92,6.22a9.17,9.17,0,0,0-1.49,4.07c-.44,3,.3,5.83,2,7.5,1.38,1.37,3.51,2.17,6.51,2.47,13.94,1.37,24.65,1.43,34.73.21,3-.37,5.95-.84,8.74-1.42a216.74,216.74,0,0,0,32.67-9.59,139.19,139.19,0,0,0,13.39-6.2c2.27-1.15,4.62-2.34,7-3.45a2.93,2.93,0,0,1,1.57-.34,2.89,2.89,0,0,1,2,1.67A26.61,26.61,0,0,0,201,77c1.46,1.73,2.75,2.61,4,2.78a6.15,6.15,0,0,0,2.82-.44,5.71,5.71,0,0,0,2.66-1.59,5.31,5.31,0,0,0,1-2.87,25.64,25.64,0,0,0-.61-7.22c-.07-.39-.14-.78-.2-1.17l-1.58-9.21Q207.58,48,206,38.71c-.54-3.13-1.09-6.25-1.63-9.37-.09-.5-.19-1-.28-1.49a24.86,24.86,0,0,1-.63-7.69,10.13,10.13,0,0,1,4-7.21A13.09,13.09,0,0,1,213.33,11a90.6,90.6,0,0,1,10.48-.57l2.4,0a48.24,48.24,0,0,1,9.84.55c8.31,1.55,15.89,7.63,19.76,15.87a25.85,25.85,0,0,1,2,16.42A42.11,42.11,0,0,1,256,49c-.72,1.89-1.55,3.77-2.34,5.59-.6,1.35-1.21,2.76-1.76,4.12l-36.5,90.39c-.6,1.49-1.21,3-1.81,4.46-2.19,5.39-4.46,11-6.52,16.51-.89,2.4-2.24,5.41-4.81,7.43A8.94,8.94,0,0,1,196.82,179.49Zm9-64a7.34,7.34,0,0,0-3.21,2.11,7.3,7.3,0,0,0-.81,4.06c0,3,0,6,.14,9l0,.46a33.67,33.67,0,0,1-.07,5.4,31.51,31.51,0,0,1-2,7.18l-.12.35c-2.38,6.48-5.16,12.9-7.85,19.1-.54,1.24-1.07,2.48-1.61,3.71a7.14,7.14,0,0,0-.71,4.39,6.93,6.93,0,0,0,1.83,3,8.25,8.25,0,0,0,4.79,2.88,6.45,6.45,0,0,0,4.67-1.44c2.1-1.66,3.27-4.3,4.06-6.4,2.07-5.58,4.34-11.17,6.54-16.58l1.81-4.45,36.5-90.39c.56-1.4,1.18-2.82,1.78-4.19.79-1.79,1.6-3.65,2.3-5.48h0a40.16,40.16,0,0,0,1.69-5.45,23.52,23.52,0,0,0-1.83-14.92c-3.5-7.46-10.59-13.18-18.07-14.57a46,46,0,0,0-9.36-.51l-2.41,0a92.11,92.11,0,0,0-10.22.56,11.07,11.07,0,0,0-4.9,1.54,7.87,7.87,0,0,0-3,5.58,22.62,22.62,0,0,0,.61,7c.1.5.19,1,.28,1.51.55,3.13,1.09,6.25,1.64,9.38q1.6,9.27,3.2,18.56l1.57,9.2c.07.39.14.77.2,1.16a27.57,27.57,0,0,1,.64,7.88,7.54,7.54,0,0,1-1.53,4.11,8.11,8.11,0,0,1-3.71,2.31,8.62,8.62,0,0,1-3.88.55c-2.52-.32-4.36-2.21-5.54-3.59a28.75,28.75,0,0,1-2.95-4.22,3.45,3.45,0,0,0-.32-.49l-.24.12c-2.32,1.09-4.65,2.27-6.9,3.41a137.4,137.4,0,0,1-13.62,6.31,219.16,219.16,0,0,1-33,9.69c-2.84.59-5.85,1.08-8.93,1.45C123,96,112.12,95.94,98,94.56c-3.56-.35-6.15-1.38-7.93-3.13-2.21-2.19-3.21-5.75-2.66-9.51a11.69,11.69,0,0,1,1.89-5.07c3.35-4.77,10.3-6.16,15.39-7.18l.85-.17c1.74-.35,3.5-.64,5.2-.92l1.51-.25c.64-.11,1.27-.2,1.89-.29a21.2,21.2,0,0,0,6.32-1.59,13.4,13.4,0,0,0,5.62-4.92,5.14,5.14,0,0,0,.77-1.84c.19-1.22-.35-2.63-1.62-4.19a17.54,17.54,0,0,0-1.63-1.74c-4.4-4.14-10.36-6.62-14.59-8A43,43,0,0,0,91.4,43.89a5.63,5.63,0,0,0-2.57.71,6.38,6.38,0,0,0-1.75,2.54c-.86,1.79-1.7,3.58-2.54,5.38C82,58.05,79.28,63.76,76.11,69.1a129.86,129.86,0,0,1-8.63,12.64,20.29,20.29,0,0,0-3.8,14.18,16.35,16.35,0,0,0,2.17,7,20.26,20.26,0,0,0,6.2,6,26,26,0,0,0,4.57,2.56,12.34,12.34,0,0,0,1.77.6,24.35,24.35,0,0,0,5.84.49c.8,0,1.62,0,2.42,0,4,.17,9.33.39,14.61.54l1.61,0c5,.18,9.8.34,14.47-1.83a46.9,46.9,0,0,0,7.32-4.58l.45-.33a60.65,60.65,0,0,1,10.94-6.59,32.9,32.9,0,0,1,9.06-2.43c5.79-.71,11.56.4,17.14,1.47l1.08.21q2.05.39,4.11.81a132.93,132.93,0,0,0,13.67,2.25,32.28,32.28,0,0,0,9.06-.64,84.15,84.15,0,0,0,14.11-4.17c1.84-.69,3.66-1.42,5.37-2.1l.77-.32c2.23-.93,4.76-2,7.38-1.28a9.65,9.65,0,0,1,4.14,2.65,10.61,10.61,0,0,1,2.77,3.87,6.78,6.78,0,0,1-.79,6.1c-1.57,2.25-4.26,3.29-6.63,4.2-.63.24-1.22.47-1.76.7-1.05.46-2.12,1-3.16,1.46A59.76,59.76,0,0,1,205.78,115.48Z"/><path class="cls-5" d="M205.55,82.13a5.11,5.11,0,0,1-.78,0c-2.52-.32-4.36-2.21-5.54-3.59a28.75,28.75,0,0,1-2.95-4.22,3.45,3.45,0,0,0-.32-.49l-.24.12c-2.32,1.09-4.65,2.27-6.9,3.41l-1.06-2.08c2.27-1.15,4.62-2.34,7-3.45a2.93,2.93,0,0,1,1.57-.34,2.89,2.89,0,0,1,2,1.67A26.61,26.61,0,0,0,201,77c1.46,1.73,2.75,2.61,4,2.78a6.15,6.15,0,0,0,2.82-.44,5.71,5.71,0,0,0,2.66-1.59,5.31,5.31,0,0,0,1-2.87,25.64,25.64,0,0,0-.61-7.22c-.07-.39-.14-.78-.2-1.17l-1.58-9.21Q207.58,48,206,38.71c-.54-3.13-1.09-6.25-1.63-9.37-.09-.5-.19-1-.28-1.49a24.86,24.86,0,0,1-.63-7.69,10.13,10.13,0,0,1,4-7.21A13.09,13.09,0,0,1,213.33,11a90.6,90.6,0,0,1,10.48-.57l2.4,0a48.24,48.24,0,0,1,9.84.55l-.43,2.3a46,46,0,0,0-9.36-.51l-2.41,0a92.11,92.11,0,0,0-10.22.56,11.07,11.07,0,0,0-4.9,1.54,7.87,7.87,0,0,0-3,5.58,22.62,22.62,0,0,0,.61,7c.1.5.19,1,.28,1.51.55,3.13,1.09,6.25,1.64,9.38q1.6,9.27,3.2,18.56l1.57,9.2c.07.39.14.77.2,1.16a27.57,27.57,0,0,1,.64,7.88,7.54,7.54,0,0,1-1.53,4.11,8.11,8.11,0,0,1-3.71,2.31A9.69,9.69,0,0,1,205.55,82.13Z"/><path class="cls-6" d="M101.19,115.52c-5.3-.15-10.61-.37-14.64-.54-.76,0-1.52,0-2.33,0a26.52,26.52,0,0,1-6.4-.56,14.86,14.86,0,0,1-2.1-.71,28.56,28.56,0,0,1-5-2.78,23,23,0,0,1-6.88-6.71,18.71,18.71,0,0,1-2.51-8,22.68,22.68,0,0,1,4.27-15.83A127.08,127.08,0,0,0,74.1,67.91c3.11-5.25,5.76-10.91,8.32-16.38q1.26-2.72,2.55-5.4a8.18,8.18,0,0,1,2.52-3.45,7.78,7.78,0,0,1,3.66-1.12,45.59,45.59,0,0,1,18.58,2c4.45,1.43,10.75,4.07,15.47,8.5a20,20,0,0,1,1.85,2c1.7,2.1,2.41,4.12,2.11,6a7.26,7.26,0,0,1-1.09,2.7,15.6,15.6,0,0,1-6.59,5.79,22.9,22.9,0,0,1-7,1.8c-.61.09-1.22.18-1.84.29l-1.52.25c-1.68.28-3.42.56-5.11.91l-.87.17c-5,1-11.12,2.22-13.92,6.22a9.17,9.17,0,0,0-1.49,4.07c-.44,3,.3,5.83,2,7.5,1.38,1.37,3.51,2.17,6.51,2.47,13.94,1.37,24.65,1.43,34.73.21l.28,2.32C123,96,112.12,95.94,98,94.56c-3.56-.35-6.15-1.38-7.93-3.13-2.21-2.19-3.21-5.75-2.66-9.51a11.69,11.69,0,0,1,1.89-5.07c3.35-4.77,10.3-6.16,15.39-7.18l.85-.17c1.74-.35,3.5-.64,5.2-.92l1.51-.25c.64-.11,1.27-.2,1.89-.29a21.2,21.2,0,0,0,6.32-1.59,13.4,13.4,0,0,0,5.62-4.92,5.14,5.14,0,0,0,.77-1.84c.19-1.22-.35-2.63-1.62-4.19a17.54,17.54,0,0,0-1.63-1.74c-4.4-4.14-10.36-6.62-14.59-8A43,43,0,0,0,91.4,43.89a5.63,5.63,0,0,0-2.57.71,6.38,6.38,0,0,0-1.75,2.54c-.86,1.79-1.7,3.58-2.54,5.38C82,58.05,79.28,63.76,76.11,69.1a129.86,129.86,0,0,1-8.63,12.64,20.29,20.29,0,0,0-3.8,14.18,16.35,16.35,0,0,0,2.17,7,20.26,20.26,0,0,0,6.2,6,26,26,0,0,0,4.57,2.56,12.34,12.34,0,0,0,1.77.6,24.35,24.35,0,0,0,5.84.49c.8,0,1.62,0,2.42,0,4,.17,9.33.39,14.61.54Z"/><path class="cls-3" d="M118,95.65c-6,0-12.53-.37-20-1.09l.23-2.33c13.94,1.37,24.65,1.43,34.73.21,3-.37,5.95-.84,8.74-1.42a216.74,216.74,0,0,0,32.67-9.59,139.19,139.19,0,0,0,13.39-6.2l1.06,2.09a139.65,139.65,0,0,1-13.62,6.3,219.16,219.16,0,0,1-33,9.69c-2.84.59-5.85,1.08-8.93,1.45A125.84,125.84,0,0,1,118,95.65Z"/><path class="cls-3" d="M207.09,170.08l-2.19-.81c2.07-5.58,4.34-11.17,6.54-16.58l1.81-4.45,14.28-35.37,2.17.87-14.28,35.37c-.6,1.49-1.21,3-1.81,4.46C211.42,159,209.15,164.54,207.09,170.08Z"/><g id="Group-Copy-8"><circle id="Oval-Copy-2" class="cls-7" cx="91.76" cy="75.93" r="4.9"/><circle id="Oval-Copy-2-2" data-name="Oval-Copy-2" class="cls-8" cx="91.76" cy="75.93" r="4.9"/><circle id="Oval" class="cls-9" cx="91.76" cy="75.93" r="3.27"/><path class="cls-10" d="M91.76,79.55a3.62,3.62,0,1,1,3.62-3.62A3.62,3.62,0,0,1,91.76,79.55Zm0-6.53a2.92,2.92,0,1,0,2.92,2.91A2.92,2.92,0,0,0,91.76,73Z"/><circle id="Oval-Copy" class="cls-10" cx="91.76" cy="75.93" r="1.63"/></g><g id="Group-Copy-8-2" data-name="Group-Copy-8"><circle id="Oval-Copy-2-3" data-name="Oval-Copy-2" class="cls-7" cx="212.34" cy="68.66" r="4.9"/><circle id="Oval-Copy-2-4" data-name="Oval-Copy-2" class="cls-8" cx="212.34" cy="68.66" r="4.9"/><circle id="Oval-2" data-name="Oval" class="cls-9" cx="212.34" cy="68.66" r="3.27"/><path class="cls-10" d="M212.34,72.27A3.62,3.62,0,1,1,216,68.66,3.62,3.62,0,0,1,212.34,72.27Zm0-6.53a2.92,2.92,0,1,0,2.91,2.92A2.92,2.92,0,0,0,212.34,65.74Z"/><circle id="Oval-Copy-2-5" data-name="Oval-Copy" class="cls-10" cx="212.34" cy="68.66" r="1.63"/></g><g id="Group-6"><rect id="Rectangle-2" x="227.47" y="110.58" width="1.22" height="1.22" transform="translate(42.97 284.74) rotate(-69.14)"/><rect id="Rectangle-2-Copy-4" class="cls-9" x="227.04" y="111.72" width="1.22" height="1.22" transform="translate(41.62 285.07) rotate(-69.14)"/><rect id="Rectangle-2-Copy-7" x="226.6" y="112.87" width="1.22" height="1.22" transform="translate(40.27 285.4) rotate(-69.14)"/><rect id="Rectangle-2-Copy" class="cls-9" x="228.62" y="111.02" width="1.22" height="1.22" transform="translate(43.3 286.09) rotate(-69.14)"/><rect id="Rectangle-2-Copy-5" x="228.18" y="112.16" width="1.22" height="1.22" transform="translate(41.95 286.42) rotate(-69.14)"/><rect id="Rectangle-2-Copy-9" class="cls-9" x="227.74" y="113.31" width="1.22" height="1.22" transform="translate(40.6 286.75) rotate(-69.14)"/><rect id="Rectangle-2-Copy-3" x="229.76" y="111.45" width="1.22" height="1.22" transform="translate(43.63 287.44) rotate(-69.14)"/><rect id="Rectangle-2-Copy-6" class="cls-9" x="229.33" y="112.6" width="1.22" height="1.22" transform="translate(42.28 287.77) rotate(-69.14)"/><rect id="Rectangle-2-Copy-10" x="228.89" y="113.74" width="1.22" height="1.22" transform="translate(40.93 288.1) rotate(-69.14)"/></g></g></svg>