<svg xmlns="http://www.w3.org/2000/svg" viewBox="0 0 320 192"><defs><style>.cls-1{fill:#ebebeb;}.cls-2{fill:#f2f2f2;}.cls-3{fill:#ffb819;}.cls-4{fill:#101113;}.cls-5{fill:#fff;}</style></defs><g id="Track"><path class="cls-1" d="M290.74,180.71H130c-4.58,0-13.83-.53-17.23-1.27-2.08-.45-5.67-1.62-9.14-2.74-2.25-.73-4.38-1.42-5.81-1.83-5-1.4-13.79-5.47-26.82-12.42-12.33-6.58-25.28-15.1-33-20.2-2.28-1.5-4.08-2.68-5.38-3.5-3.1-1.95-9-4.85-10.79-4.85a3.63,3.63,0,0,1-2.88-1.16c-.85-1-1.07-2.49-.69-4.65,0-.19,3.84-18.94,8.16-22.94,4.59-4.25,15.16-8.49,21.47-11,2.16-.86,4-1.61,4.58-1.94,8.8-5.13,15-9.81,14.93-23.27-.06-9.86.09-24.46.21-35.13.07-6.6.13-12.3.09-12.89a3.55,3.55,0,0,1,.91-3c1.09-1,2.72-.88,4.17-.62,1.87.33,5,1,7.83,1.56,2.21.47,4.72,1,5.21,1H86c.55,0,.86.05,1-1.3.46-3.34,4-3.27,6.31-3.23l1.1,0c3.78,0,14.89,1.68,20.78,9.33,5.23,6.8,5.19,12.05,5.15,17.13,0,.44,0,.88,0,1.32,0,1.78,0,4,0,6.27,0,4.36,0,9.31,0,10.53l0,.44c.16,2.87.16,3,3.89,3,6-.06,121.57-2.3,122.74-2.33,4.57-.07,10-.42,11-.89l.9-.36c2.58-1,9.43-3.74,10.88-7.87,1.68-4.77.86-6.75-1.77-11.75a29,29,0,0,0-1.86-2.71c-2.47-3.39-5.86-8-5.65-11.86.14-2.51-.1-7-.21-9.13,0-.68-.06-1.15-.06-1.29s0-.12,0-.2c-.12-2.24.63-3.62,2.24-4.11,3-.9,5.35,2.33,7,4.68.42.59.81,1.14,1.1,1.46,1.47,1.61,18.79,25.57,20.91,28.5,1,1.19,8.17,10.16,8.48,14.84.29,4.41,0,11.8,0,12.11l-.64,92.27c.09,4.68-.28,5-.8,5.44-.23.19-.65.5-1.15.88a32,32,0,0,0-2.8,2.25v3.21a1.73,1.73,0,0,1,0,.32C294.36,178.3,293.22,180.71,290.74,180.71Zm-269.36-50s.15,0,.42,0c3.31,0,10.82,4.29,12.5,5.35,1.32.83,3.14,2,5.43,3.53,7.69,5.07,20.57,13.54,32.77,20.05,12.64,6.75,21.45,10.84,26.18,12.17,1.49.42,3.65,1.12,5.94,1.86,3.23,1,6.89,2.24,8.82,2.66,3.15.68,12.21,1.2,16.55,1.2H290.74c.26,0,.59-.65.73-1.14v-3.45c0-1.17.92-2,4.08-4.39l.61-.45c.06-.7.08-2.12,0-3.28l.65-92.36c0-.13.28-7.59,0-11.82-.19-2.81-4.88-9.51-7.8-13.07l-.06-.08c-7.76-10.74-19.68-27.13-20.7-28.25A19.12,19.12,0,0,1,267,17.47c-.71-1-2.56-3.6-3.44-3.49a3.75,3.75,0,0,0,0,.88c0,.14,0,.27,0,.37s0,.53.06,1.12c.12,2.2.36,6.8.21,9.48s3,7,5,9.78a29.19,29.19,0,0,1,2.11,3.12C273.68,44,275,47,272.89,53c-1.94,5.51-9.5,8.51-12.73,9.79l-.82.33c-2.22.95-10.6,1.12-12.26,1.15-1.16,0-116.7,2.27-122.76,2.33-6.35.08-6.91-2.24-7.12-6l0-.43c-.07-1.32,0-5.9,0-10.74,0-2.26,0-4.48,0-6.25,0-.45,0-.89,0-1.34,0-4.75.07-9.23-4.48-15.15-6-7.86-18.12-8.08-18.24-8.08l-1.16,0c-2,0-3,0-3.08.46C90,21,89,23.28,85.83,23.11h-.11A56.43,56.43,0,0,1,79.92,22c-2.76-.57-5.9-1.22-7.73-1.54a6.07,6.07,0,0,0-1.34-.13,1.9,1.9,0,0,0,0,.31c0,.61,0,4.71-.09,13.19-.11,10.65-.26,25.24-.2,35.07C70.68,84,63.48,89.45,54.06,95a52.43,52.43,0,0,1-5,2.15c-6.11,2.45-16.33,6.56-20.49,10.41-2.85,2.62-6.47,17.1-7.18,21.13-.27,1.51-.05,2,0,2Z"/><path class="cls-2" d="M290.74,177.51H130c-4.58,0-13.83-.54-17.23-1.28-2.08-.45-5.67-1.61-9.14-2.74-2.25-.73-4.38-1.42-5.81-1.82-5-1.41-13.79-5.47-26.82-12.43-12.33-6.58-25.28-15.1-33-20.19-2.28-1.51-4.08-2.69-5.38-3.51-3.1-1.95-9-4.85-10.79-4.85a3.63,3.63,0,0,1-2.88-1.16c-.85-1-1.07-2.49-.69-4.65,0-.18,3.84-18.94,8.16-22.94,4.59-4.25,15.16-8.49,21.47-11,2.16-.87,4-1.62,4.58-2,8.8-5.13,15-9.8,14.93-23.27-.06-9.86.09-24.46.21-35.12.07-6.6.13-12.3.09-12.9a3.55,3.55,0,0,1,.91-3c1.09-1,2.72-.87,4.17-.62,1.87.33,5,1,7.83,1.57,2.21.46,4.72,1,5.21,1H86c.55,0,.86.05,1-1.29.46-3.35,4-3.28,6.31-3.23h1.1c3.78,0,14.89,1.68,20.78,9.34,5.23,6.8,5.19,12,5.15,17.13,0,.44,0,.88,0,1.32,0,1.77,0,4,0,6.26,0,4.37,0,9.32,0,10.53l0,.45c.16,2.86.16,3,3.89,3,6-.06,121.57-2.3,122.74-2.32,4.57-.07,10-.43,11-.89l.9-.37c2.58-1,9.43-3.74,10.88-7.87,1.68-4.77.86-6.74-1.77-11.75a29,29,0,0,0-1.86-2.71c-2.47-3.39-5.86-8-5.65-11.86.14-2.5-.1-7-.21-9.13,0-.68-.06-1.15-.06-1.29s0-.12,0-.19c-.12-2.25.63-3.63,2.24-4.11,3-.91,5.35,2.32,7,4.68.42.58.81,1.14,1.1,1.45,1.47,1.62,18.79,25.57,20.91,28.5,1,1.19,8.17,10.16,8.48,14.85.29,4.4,0,11.79,0,12.11l-.64,92.26c.09,4.69-.28,5-.8,5.44-.23.19-.65.51-1.15.88a34,34,0,0,0-2.8,2.25v3.22a1.63,1.63,0,0,1,0,.31C294.36,175.1,293.22,177.51,290.74,177.51Zm-269.36-50a2.83,2.83,0,0,0,.42,0c3.31,0,10.82,4.28,12.5,5.34,1.32.83,3.14,2,5.43,3.54,7.69,5.06,20.57,13.53,32.77,20,12.64,6.75,21.45,10.85,26.18,12.17,1.49.42,3.65,1.12,5.94,1.86,3.23,1.05,6.89,2.24,8.82,2.66,3.15.69,12.21,1.2,16.55,1.2H290.74c.26,0,.59-.64.73-1.13v-3.45c0-1.17.92-2,4.08-4.4l.61-.45c.06-.7.08-2.11,0-3.28l.65-92.36c0-.12.28-7.59,0-11.82-.19-2.81-4.88-9.5-7.8-13.07l-.06-.07C281.24,33.52,269.32,17.14,268.3,16A19.12,19.12,0,0,1,267,14.26c-.71-1-2.56-3.59-3.44-3.48a3.65,3.65,0,0,0,0,.87c0,.14,0,.27,0,.37s0,.54.06,1.12c.12,2.21.36,6.8.21,9.48s3,7,5,9.79a28.26,28.26,0,0,1,2.11,3.11c2.75,5.24,4.08,8.25,2,14.31-1.94,5.5-9.5,8.5-12.73,9.78l-.82.33c-2.22,1-10.6,1.13-12.26,1.15-1.16,0-116.7,2.27-122.76,2.33-6.35.08-6.91-2.23-7.12-6l0-.43c-.07-1.32,0-5.89,0-10.74,0-2.25,0-4.48,0-6.24,0-.45,0-.9,0-1.35,0-4.74.07-9.23-4.48-15.15-6-7.86-18.12-8.08-18.24-8.08l-1.16,0c-2,0-3,0-3.08.47-.27,1.94-1.23,4.23-4.39,4h-.11a57.45,57.45,0,0,1-5.8-1.11c-2.76-.58-5.9-1.23-7.73-1.55a6.07,6.07,0,0,0-1.34-.13,1.9,1.9,0,0,0,0,.31c0,.61,0,4.71-.09,13.19-.11,10.65-.26,25.24-.2,35.07.1,15.16-7.1,20.57-16.52,26.06a52.43,52.43,0,0,1-5,2.15C43,96.34,32.73,100.45,28.57,104.3c-2.85,2.63-6.47,17.1-7.18,21.14a3.54,3.54,0,0,0,0,2Z"/><path class="cls-2" d="M290.74,178.81H130c-4.64,0-14-.55-17.51-1.3-2.14-.47-5.76-1.65-9.26-2.78-2.27-.74-4.36-1.42-5.76-1.81-5.11-1.43-14-5.53-27.08-12.53C58,153.78,45,145.24,37.26,140.14c-2.28-1.5-4.07-2.68-5.36-3.5a47.28,47.28,0,0,0-9.23-4.47v.43l-.27-.51a2.84,2.84,0,0,0-.6-.1,4.8,4.8,0,0,1-3.88-1.62c-1.11-1.33-1.42-3.15-1-5.71,0-.19,3.79-19.27,8.56-23.67S41,92.28,47.38,89.71c1.93-.78,3.92-1.58,4.41-1.86,8.68-5.07,14.36-9.34,14.28-22.14-.06-9.84.09-24.41.21-35V30.3c.06-5.89.13-12,.09-12.53a4.68,4.68,0,0,1,1.33-4c1.52-1.39,3.62-1.23,5.27-.94,1.9.33,5.07,1,7.86,1.57,1.79.38,4.11.86,4.91,1a.78.78,0,0,1,0-.14c.62-4.49,5.34-4.4,7.62-4.35h1.08c4,0,15.6,1.77,21.81,9.84,5.5,7.16,5.46,12.89,5.42,17.94V40c0,1.77,0,4,0,6.27,0,4.13,0,9.27,0,10.45l0,.44a11.34,11.34,0,0,0,.16,1.66,12.54,12.54,0,0,0,2.42.11c6-.06,121.57-2.3,122.72-2.32,5.15-.08,9.82-.48,10.56-.79l.94-.38c2.2-.87,8.88-3.52,10.13-7.09,1.51-4.29.85-5.88-1.69-10.72a28.22,28.22,0,0,0-1.76-2.54c-2.59-3.55-6.14-8.41-5.9-12.7.14-2.43-.1-6.86-.21-9,0-.73-.06-1.22-.06-1.37v-.13c-.21-3.83,1.9-5,3.17-5.42,3.94-1.17,6.66,2.65,8.46,5.17.38.54.77,1.08,1,1.34,1.5,1.65,17.68,24,21,28.58,1.46,1.79,8.41,10.57,8.75,15.55.3,4.48,0,11.93,0,12.25l-.64,92.22c.09,4.57-.2,5.53-1.26,6.42-.26.22-.68.54-1.22.94s-1.6,1.2-2.26,1.77v2.65a2.76,2.76,0,0,1-.06.57C295.43,176.36,293.64,178.81,290.74,178.81ZM22.67,129.5c2.76.57,8,3.33,10.62,4.94,1.3.83,3.11,2,5.39,3.52,7.73,5.08,20.65,13.58,32.92,20.13,13,6.92,21.64,10.95,26.56,12.32,1.45.41,3.57,1.1,5.81,1.83,3.49,1.13,7,2.28,9.06,2.72,3.32.72,12.44,1.25,17,1.25H290.74c2.05,0,2.6-2.68,2.63-2.79v-3.8l.37-.38a28.26,28.26,0,0,1,2.95-2.39c.46-.34.89-.66,1.09-.83a1.09,1.09,0,0,0,.11-.1c.09-.15.3-.88.23-4.32l.64-92.3c0-.35.29-7.67,0-12-.23-3.49-5.26-10.51-8.19-14.11l-.05-.06c-6.69-9.25-19.64-27.1-20.81-28.38a18,18,0,0,1-1.19-1.57c-1.89-2.65-3.61-4.79-5.61-4.2-.43.13-1.44.44-1.31,2.79,0,.14,0,.21,0,.27s0,.57.06,1.22c.11,2.18.35,6.7.21,9.27-.19,3.37,3,7.79,5.4,11a27.75,27.75,0,0,1,2,2.87c2.64,5,3.72,7.47,1.85,12.8-1.65,4.68-8.9,7.56-11.63,8.64l-.87.35c-1.57.67-8.24,1-11.54,1-1.15,0-116.74,2.27-122.75,2.33-4.3,0-5-.51-5.2-4.21l0-.46c-.08-1.26,0-6,0-10.61,0-2.27,0-4.49,0-6.26V38.65c0-5.09.09-9.89-4.87-16.33-5.57-7.24-16.15-8.83-19.75-8.83H93.34c-3.13-.06-4.75.25-5,2.11-.17,1.24-.58,2.5-2.39,2.41l-.31,0c-.5-.06-2.41-.45-5.27-1.05s-6-1.24-7.84-1.57c-1.13-.2-2.38-.32-3.06.3A2.3,2.3,0,0,0,69,17.57c0,.63,0,5-.09,12.75v.37c-.12,10.63-.27,25.19-.21,35C68.76,79.83,62,84.92,53.1,90.1c-.62.36-2.21,1-4.75,2-6.23,2.5-16.66,6.69-21.08,10.78-3.49,3.23-7.06,18.59-7.76,22.22-.4,2.29,0,3.14.4,3.57a1.84,1.84,0,0,0,1,.6l-.65-1.2a4.79,4.79,0,0,1-.12-2.88c.37-2.11,4.06-18.62,7.57-21.87,4.34-4,14.7-8.17,20.89-10.66,2.65-1.06,4.18-1.68,4.83-2.06,9.36-5.46,16-10.44,15.88-24.93-.07-9.85.09-24.44.2-35.09.08-7.25.14-12.49.09-13.07a3.64,3.64,0,0,1,0-.43V15.87l1.23-.06a7.63,7.63,0,0,1,1.63.15c1.84.32,5,1,7.76,1.55,3.63.76,5.25,1.09,5.54,1.09h.17c1.23.07,2.67-.2,3-2.93.23-1.67,2.16-1.63,4.39-1.59l1.14,0c.12,0,12.84.23,19.27,8.59,4.83,6.28,4.79,11.19,4.75,16,0,.45,0,.89,0,1.34,0,1.77,0,4,0,6.25,0,4.84,0,9.38,0,10.65l0,.44c.18,3.24.25,4.87,5.81,4.8,5.25,0,94.06-1.77,121.15-2.3l1.6,0c4.82-.07,10.32-.42,11.77-1l.8-.33c3.12-1.23,10.29-4.08,12-9,1.95-5.56.77-8.23-1.88-13.28a31,31,0,0,0-2-2.95c-2.88-3.94-5.45-7.71-5.29-10.62.15-2.62-.09-7.16-.21-9.34v-.15c0-.53-.05-.9-.05-1s0-.19,0-.31a3.93,3.93,0,0,1,.07-1.28l.22-.85.87-.1c1.24-.16,2.41.85,4.66,4a16.88,16.88,0,0,0,1.24,1.63c1.14,1.26,14.1,19.11,20.8,28.37.09.11,7.81,9.61,8.1,13.82.26,4,0,10.62,0,11.92l-.64,92.36c0,1,0,2.56-.07,3.38l-.05.58-1.07.81c-2.41,1.8-3.56,2.75-3.56,3.35v3.62l0,.18c-.14.49-.68,2.08-2,2.08H130c-4.5,0-13.54-.51-16.83-1.23-2-.43-5.69-1.63-9-2.69-2.27-.74-4.42-1.44-5.88-1.85-4.82-1.35-13.71-5.47-26.44-12.27-12.25-6.54-25.16-15-32.87-20.1-2.31-1.52-4.11-2.71-5.41-3.53-1.9-1.19-7.8-4.45-10.94-5.05Zm-.08-3.26c4.44.57,12.32,5.44,12.41,5.49,1.32.84,3.13,2,5.42,3.53,7.71,5.07,20.55,13.52,32.69,20C85.68,162,94.39,166,99,167.33c1.52.42,3.68,1.13,6,1.87,3.21,1,6.83,2.22,8.7,2.63,3,.65,12,1.17,16.28,1.17H290.15l0,0v-3.24c0-1.92,1.49-3.12,4.6-5.44l.12-.09c0-.69,0-1.68,0-2.57l.65-92.48c0-1.27.25-7.83,0-11.64-.14-2.13-4-8.06-7.5-12.34A.76.76,0,0,1,288,45c-9.34-12.92-19.74-27.17-20.62-28.13A23,23,0,0,1,265.9,15c-.38-.54-.72-1-1-1.35.12,2.38.32,6.49.18,9-.12,2.22,2.95,6.43,4.79,9a27.73,27.73,0,0,1,2.21,3.28c2.84,5.41,4.34,8.79,2,15.34C272,56.32,264,59.47,260.64,60.82l-.79.32c-2.31,1-9.69,1.21-12.75,1.25l-1.59,0c-27.09.53-115.91,2.25-121.17,2.3-7.4.09-8.22-3.23-8.44-7.26l0-.43c-.08-1.35-.06-5.93,0-10.79,0-2.28,0-4.5,0-6.26,0-.46,0-.91,0-1.36,0-4.71.07-8.78-4.21-14.35C106,16.94,94.56,16.7,94.45,16.7H93.3c-.39,0-1.33,0-1.91,0-.65,3-2.68,4.66-5.64,4.5h-.09c-.46,0-1.09-.12-6-1.14-2.66-.55-5.64-1.17-7.47-1.5,0,1.7,0,5.25-.1,12.06-.12,10.65-.27,25.23-.21,35.06C72,81.5,64.16,87.35,54.71,92.87a50,50,0,0,1-5.17,2.23c-6,2.42-16.11,6.47-20.09,10.15-2.33,2.16-5.9,15.4-6.78,20.41A5.62,5.62,0,0,0,22.59,126.24Zm0,.76ZM263.35,12Z"/><path class="cls-3" d="M290.74,177.21H130c-4.57,0-13.79-.54-17.17-1.27-2.07-.45-5.64-1.61-9.1-2.74-2.26-.73-4.39-1.42-5.83-1.82-5-1.4-13.75-5.46-26.76-12.41-12.31-6.57-25.26-15.09-33-20.18-2.29-1.5-4.09-2.68-5.39-3.5-3.12-2-9.1-4.9-10.95-4.9a3.36,3.36,0,0,1-2.65-1c-.78-.93-1-2.37-.62-4.41,0-.18,3.81-18.83,8.06-22.76C31.15,98,41.68,93.72,48,91.2c2.17-.87,4-1.62,4.62-2,8.89-5.18,15.17-9.9,15.08-23.53-.06-9.85.1-24.45.21-35.1C68,24,68,18.22,68,17.66a3.21,3.21,0,0,1,.81-2.74c1-.91,2.54-.78,3.92-.54,1.87.33,5,1,7.82,1.57,2.25.46,4.79,1,5.25,1.05H86c.63,0,1.14.07,1.36-1.55.43-3.08,3.65-3,6-3l1.1,0c3.74,0,14.73,1.65,20.54,9.21,5.17,6.72,5.12,11.92,5.08,16.94V40c0,1.77,0,4,0,6.26,0,4.58,0,9.32,0,10.55l0,.44c.16,2.89.18,3.33,4.2,3.29,6-.06,121.57-2.31,122.73-2.33,3.89-.06,9.92-.38,11.16-.92l.9-.36c2.61-1,9.56-3.79,11.06-8,1.72-4.89.88-6.9-1.79-12a28.91,28.91,0,0,0-1.88-2.75c-2.45-3.35-5.81-7.94-5.6-11.66.14-2.52-.1-7-.21-9.17,0-.67-.06-1.13-.06-1.27s0-.13,0-.21c0-.78-.17-3.15,2-3.8,2.84-.85,5.06,2.28,6.69,4.56.43.6.82,1.16,1.12,1.49,1.46,1.6,18.8,25.58,20.9,28.47.94,1.16,8.11,10.08,8.42,14.69.29,4.38,0,11.76,0,12.07l-.64,92.28c.08,4.55-.26,4.84-.69,5.21-.25.2-.64.5-1.14.87a28.51,28.51,0,0,0-2.92,2.37l0,3.59C294.08,175,293,177.21,290.74,177.21ZM70.57,16.85a2.37,2.37,0,0,0,0,.59c0,.6,0,4.71-.08,13.19-.11,10.64-.27,25.23-.2,35.06.09,15-7,20.35-16.37,25.79a52.87,52.87,0,0,1-5,2.13c-6.12,2.46-16.38,6.58-20.58,10.47-2.89,2.67-6.55,17.25-7.27,21.3-.31,1.79,0,2.24.05,2.28s.2.13.66.13c3,0,10.1,3.88,12.34,5.3,1.32.83,3.13,2,5.43,3.53,7.69,5.07,20.58,13.54,32.79,20.06,12.66,6.76,21.49,10.86,26.23,12.19,1.49.42,3.65,1.12,5.93,1.86,3.24,1.05,6.91,2.24,8.85,2.67,3.17.69,12.27,1.2,16.62,1.2H290.74c.55,0,.92-1,1-1.4v-3.48c0-1,.89-1.87,4-4.15l.72-.54c.07-.66.09-2.19.07-3.44l.64-92.35c0-.12.28-7.6,0-11.85-.22-3.24-5.75-10.66-7.86-13.24l-.05-.06c-7.77-10.75-19.7-27.15-20.73-28.28a21.18,21.18,0,0,1-1.32-1.73c-1-1.36-2.78-3.89-3.83-3.58-.21.06-.2.66-.17,1.17,0,.13,0,.25,0,.35s0,.54.06,1.14c.11,2.2.36,6.78.21,9.44s3,7.12,5.1,10a30,30,0,0,1,2.08,3.07c2.79,5.31,4,8.12,1.94,14.07-1.89,5.37-9.36,8.33-12.55,9.6l-.83.33c-2.17.93-10.49,1.1-12.14,1.13-1.16,0-116.71,2.27-122.76,2.33S117.7,61,117.5,57.38l0-.44c-.08-1.31-.06-5.88,0-10.72,0-2.25,0-4.48,0-6.24,0-.45,0-.9,0-1.35,0-4.8.08-9.33-4.54-15.33-5.17-6.73-15.1-8.2-18.48-8.2l-1.16,0c-2.6-.05-3.29.1-3.38.72-.25,1.82-1.15,4-4.08,3.8h-.12c-.36,0-1.22-.17-5.73-1.11-2.77-.57-5.91-1.23-7.74-1.55A4.36,4.36,0,0,0,70.57,16.85ZM296.41,165.28Z"/><g id="Group-6"><rect id="Rectangle-2" class="cls-4" x="290.65" y="41.69" width="1.36" height="1.36" transform="translate(31.11 180.05) rotate(-36.16)"/><rect id="Rectangle-2-Copy-4" class="cls-5" x="289.84" y="40.59" width="1.36" height="1.36" transform="translate(31.61 179.37) rotate(-36.16)"/><rect id="Rectangle-2-Copy-7" class="cls-4" x="289.04" y="39.49" width="1.36" height="1.36" transform="translate(32.1 178.68) rotate(-36.16)"/><rect id="Rectangle-2-Copy" class="cls-5" x="289.55" y="42.49" width="1.36" height="1.36" transform="translate(30.43 179.56) rotate(-36.16)"/><rect id="Rectangle-2-Copy-5" class="cls-4" x="288.74" y="41.39" width="1.36" height="1.36" transform="translate(30.92 178.87) rotate(-36.16)"/><rect id="Rectangle-2-Copy-9" class="cls-5" x="287.94" y="40.29" width="1.36" height="1.36" transform="translate(31.42 178.19) rotate(-36.16)"/><rect id="Rectangle-2-Copy-3" class="cls-4" x="288.45" y="43.3" width="1.36" height="1.36" transform="translate(29.74 179.06) rotate(-36.16)"/><rect id="Rectangle-2-Copy-6" class="cls-5" x="287.64" y="42.2" width="1.36" height="1.36" transform="translate(30.24 178.38) rotate(-36.16)"/><rect id="Rectangle-2-Copy-10" class="cls-4" x="286.84" y="41.1" width="1.36" height="1.36" transform="translate(30.73 177.69) rotate(-36.16)"/></g></g></svg>