<?xml version="1.0" encoding="UTF-8"?>
<svg width="160px" height="96px" viewBox="0 0 160 96" version="1.1" xmlns="http://www.w3.org/2000/svg" xmlns:xlink="http://www.w3.org/1999/xlink">
    <!-- Generator: Sketch 58 (84663) - https://sketch.com -->
    <title>circuit-gs-Hermanos-Rodriguez-L-Eng</title>
    <desc>Created with Sketch.</desc>
    <defs>
        <linearGradient x1="50%" y1="23.3035083%" x2="50%" y2="112.667183%" id="linearGradient-1">
            <stop stop-color="#1B94E2" offset="0%"></stop>
            <stop stop-color="#40D8AB" offset="100%"></stop>
        </linearGradient>
    </defs>
    <g id="circuit-gs-Hermanos-Rodriguez-L-Eng" stroke="none" stroke-width="1" fill="none" fill-rule="evenodd">
        <g id="Mexico-Circuit">
            <g id="Group-2" transform="translate(10.240000, 4.266667)">
                <path d="M2.5165585,10.0866022 L1.8664655,9.53383019 C4.19321493,6.79743328 6.84671747,5.25270602 9.81559173,4.92022542 C12.6906372,4.59825258 22.5255024,4.31049796 39.3499051,4.05468404 C45.6185034,3.78991785 49.0608848,3.6608877 49.7190789,3.6664638 C50.0987955,3.66968069 51.4610902,3.4872522 53.7776905,3.13725077 C53.9150354,3.11648401 53.9150354,3.11648401 54.0522287,3.09568215 C54.3460603,3.05110237 56.0803782,2.78592813 56.4994872,2.72288912 C57.3005119,2.60240541 57.75655,2.53848752 57.9579508,2.52091315 L58.0321314,3.3710161 C57.8567648,3.3863187 57.4034054,3.44986115 56.626411,3.56673041 C56.2085368,3.62958369 54.4749898,3.89464006 54.1802306,3.93936058 C54.0427946,3.96019925 54.0427946,3.96019925 53.9051688,3.98100846 C51.4966587,4.34489602 50.1623062,4.5235827 49.7118499,4.51976651 C49.0765602,4.51438446 45.6205721,4.64392463 39.3744007,4.90758793 C22.579739,5.16310488 12.7447153,5.45086415 9.91056181,5.76825753 C7.17023713,6.07514315 4.70936316,7.50773235 2.5165585,10.0866022 Z" id="Path-51" fill="#E6E6E6" fill-rule="nonzero"></path>
                <path d="M115.952183,75.2721267 C115.729176,75.1499076 118.625198,76.4534018 119.696178,77.158698 C120.768339,77.8651892 121.237684,78.8700378 121.014546,79.9501665 C120.870708,80.6464333 120.500509,81.2140697 119.937255,81.8272316 C119.076783,82.7639479 115.775245,85.9363633 113.391352,88.0675279 C111.361639,89.4025484 109.661714,89.3913461 108.52454,88.1759994 C107.783819,87.38436 107.433435,86.1867794 107.433435,85.1404784 L107.433435,60.2617627 C107.707546,58.289495 106.661677,57.013944 103.882678,56.1458841 C102.385522,55.5087266 101.233978,54.8923706 100.30117,54.2450486 C98.9074591,53.1955143 98.5464249,52.7399507 95.1730491,48.1568157 C93.8127563,46.3086951 93.2024242,46.0647394 91.5981592,46.1641014 C91.2958276,46.1828266 91.1645934,46.1896228 90.986391,46.1932415 C90.9531266,46.1939169 88.6925204,46.1944284 84.2045726,46.1947759 C79.5832603,46.1947759 77.2862011,45.4365734 75.5338366,43.309558 L75.3615401,43.0363248 C75.2584115,42.8150232 74.6003115,41.3923153 74.4321021,41.0349707 C74.130229,40.3936708 73.9007843,39.930273 73.6826718,39.5271702 C73.1738452,38.5867865 72.7079654,37.9496201 72.0668978,37.3338426 C71.6447139,36.8221153 70.8518969,36.4318867 69.3124455,35.8965228 C69.1823936,35.8512956 68.5452503,35.632505 68.3691782,35.5709975 C67.9723462,35.4323719 67.664383,35.3189869 67.3793377,35.2041254 C65.1948642,34.3238731 60.3393195,33.0417416 56.5681696,32.5121791 C54.0875224,32.1739831 49.3463501,31.9391873 43.0378545,31.7960383 C39.9348416,31.7256264 36.6167469,31.6810507 33.2398971,31.6571188 C31.9862797,31.6482344 30.7876628,31.6426768 29.648402,31.6397446 C28.8767562,31.6377586 28.3330096,31.6372628 27.6284526,31.6372628 C27.428981,31.6372628 27.243503,31.6378552 26.9192019,31.6393087 C25.1059304,31.6474939 24.364446,31.6344184 23.5324352,31.552124 C22.1955651,31.4198937 21.2893027,31.1328722 20.7107,30.4324584 C20.1588241,29.7643981 20.0423238,29.2354202 19.9975144,28.0938652 C19.9594666,27.1245645 19.9090867,26.6533926 19.7097428,25.862417 C19.1926865,23.8556229 19.0131074,23.1236182 18.3638908,20.4246952 C18.1791908,19.6572881 18.0570298,19.1554007 17.9240894,18.6195641 C17.848297,18.3140716 17.6150601,17.3264554 17.5730644,17.1556149 C17.37789,16.3616349 17.2292614,15.9121454 17.0754757,15.6510165 C16.6897353,15.9341298 16.6215932,16.0750847 16.4033735,16.5425593 C15.5827955,18.4333541 14.5778835,18.8989474 12.719292,18.8610646 C11.9678063,18.8568814 11.8309653,18.8493677 10.0998217,18.7424355 C9.75026906,18.7208438 9.47959217,18.7048967 9.21728446,18.6907751 C7.88983004,18.6193102 6.98900486,18.6115353 6.49482436,18.6796184 C5.81288466,18.7735691 5.37106761,18.8192922 4.92215403,18.8409988 C4.56337207,18.8583471 4.32872879,18.8601843 3.49606442,18.8578287 C3.26213061,18.8571669 3.11335448,18.8568814 2.9402441,18.8568814 C1.86567754,18.8568814 1.09640609,18.6153148 0.598687172,17.9731029 C0.357109943,17.6613932 0.232422692,17.3138816 0.183569193,16.9319819 C0.155670774,16.7138932 0.153928104,16.5668207 0.161409389,16.229537 C0.164340763,15.9109831 0.164340763,15.9109831 0.164257277,15.5334015 C0.164215372,15.3197947 0.164215372,15.3197947 0.164180504,15.090067 C0.164098837,14.4916033 0.164142429,14.1676717 0.164416304,14.135969 C0.176126652,12.7804223 0.868871739,10.6770894 2.16215239,8.50513332 C3.72738323,6.31326493 5.9600001,4.83261265 8.60156154,3.90561074 C10.5125856,3.23497596 12.5835323,2.90210782 13.8361252,2.95999464 C15.3947883,3.03202606 60.0414585,2.95980705 62.0558157,2.88429642 C63.3867072,2.83440633 66.0258177,2.71087395 69.9680052,2.51389084 C102.696645,2.22559148 121.669364,2.22559148 127.050255,2.51577687 C133.022784,2.9571514 135.049152,4.14720069 135.049152,7.12462878 L135.049152,11.1994821 C135.049152,11.4182879 135.043683,11.6006354 135.030807,11.8990835 C134.996793,12.6874225 135.007961,12.7495673 135.15169,12.8956068 C135.324334,13.071027 135.660101,13.2879084 136.20825,13.549352 C138.759816,14.7663388 139.366042,16.7524701 138.950959,19.3496663 C138.386674,24.1722607 136.243868,30.67278 134.900798,33.2137625 C134.783056,33.4365208 133.776967,35.606363 131.80397,39.8893684 C131.437337,40.6852596 126.909479,50.5230777 125.448898,53.6918933 C119.586989,66.408945 116.398173,73.2453038 115.824628,74.2510936 C115.640243,74.5744383 115.519247,74.8333702 115.453953,75.0268978 C115.755594,75.1692379 115.851872,75.217151 115.952183,75.2721267 Z M109.993435,60.4345393 L109.993435,85.1404784 C109.993435,85.5957621 110.165078,86.1824218 110.393852,86.4269223 C110.581831,86.6278234 110.90208,86.6358886 111.760803,86.091293 C114.081585,84.0119441 117.266062,80.950929 118.051962,80.0953921 C118.30449,79.8204876 118.45564,79.5977382 118.49869,79.4649302 C117.423353,78.7271872 114.662139,77.4843697 114.721833,77.5170853 C113.598182,76.9837205 113.174687,76.6617287 112.937319,75.8835802 C112.686086,75.0599763 112.930256,74.1588409 113.600791,72.9829658 C114.113762,72.0833999 117.396853,65.0449291 123.04852,52.7839904 C124.584193,49.4522603 129.111891,39.6147937 129.478815,38.8182694 C131.550851,34.3202682 132.483406,32.3090162 132.637507,32.01747 C133.841278,29.7400304 135.890593,23.5202335 136.411302,19.0264218 C136.682035,17.3519223 136.421745,16.4874561 135.106177,15.8599872 C134.312272,15.4813287 133.74231,15.1131736 133.327119,14.6913082 C132.522887,13.8741465 132.410252,13.2473731 132.473186,11.7887328 C132.484588,11.5244686 132.489152,11.3722822 132.489152,11.1994821 L132.489152,7.12462878 C132.489152,6.51068745 132.398337,6.31470384 131.979197,6.06855061 C131.203961,5.61326858 129.587533,5.27026469 126.887051,5.07044185 C121.613641,4.78630248 102.645805,4.78622594 70.0694524,5.07201552 C66.1312762,5.26876113 63.4937323,5.39219241 62.1517131,5.44249963 C60.0702643,5.52052528 15.3536559,5.59285742 13.7179445,5.51726532 C12.8061064,5.475126 11.0607818,5.75565616 9.44925864,6.3211872 C7.28549558,7.08051555 5.4990828,8.25925691 4.33348264,9.86250032 C3.27448593,11.6539911 2.73165231,13.3094135 2.72432078,14.1580836 C2.72415663,14.1770855 2.72410664,14.5485813 2.72418048,15.0897177 C2.72421533,15.3193407 2.72421533,15.3193407 2.72425722,15.5328796 C2.72434068,15.9102662 2.72434068,15.9102662 2.72436854,16.0329769 C2.72436854,16.1089723 2.72339851,16.1682482 2.72067673,16.2863064 C3.11631276,16.2968814 3.26715033,16.2971709 3.50330649,16.297839 C4.28725036,16.3000567 4.50072689,16.2983852 4.7985137,16.2839862 C5.16121892,16.2664482 5.53226824,16.2280488 6.14543385,16.143573 C6.85826975,16.0453658 7.86032037,16.0540143 9.35490549,16.1344769 C9.62510376,16.1490233 9.90194035,16.1653333 10.2576513,16.1873054 C11.8849355,16.2878222 12.0499228,16.2968814 12.4117806,16.2968814 C13.6938412,16.3203966 13.7129439,16.311546 14.0688609,15.4925557 C14.3343567,14.9225181 14.4128312,14.7601904 14.5487297,14.51878 C15.1198223,13.5042895 15.877925,13.0055136 17.0560266,13.0055136 C18.0311536,13.0055136 18.7839256,13.5072649 19.2813609,14.3519127 C19.600232,14.8933575 19.8065589,15.5173409 20.0590563,16.5445139 C20.1050147,16.7314753 20.3374036,17.7155002 20.4087617,18.0031197 C20.5433708,18.5456822 20.6668348,19.0529231 20.8317632,19.7381575 C21.4990475,22.5121666 21.6761367,23.2340215 22.1904437,25.2302165 C22.444459,26.2380298 22.5111054,26.8613328 22.5555445,27.9934551 C22.5767003,28.5324162 22.5959199,28.6713597 22.6575974,28.7660269 C23.0589578,28.9069738 23.3773995,28.9642972 23.7844161,29.0045554 C24.4947644,29.0748162 25.190551,29.0870858 26.841655,29.079632 C27.2356418,29.0778647 27.4241012,29.0772628 27.6284526,29.0772628 C28.3350174,29.0772628 28.8807563,29.0777604 29.6549908,29.0797531 C30.7979531,29.0826948 32.0003925,29.0882701 33.2580395,29.0971831 C36.6472451,29.1212025 39.9781724,29.1659506 43.0959297,29.2366971 C49.5032937,29.3820896 54.3042196,29.6198445 56.9190711,29.9763475 C60.8987811,30.5351861 65.9561266,31.870604 68.3361509,32.8296553 C68.5774315,32.9268814 68.8512004,33.0276768 69.2134345,33.1542164 C69.3814534,33.2129106 70.0163131,33.430917 70.1533218,33.4785635 C72.1281396,34.1653317 73.1707303,34.6711422 73.8975389,35.5429632 C74.7138586,36.3383165 75.3205247,37.1747252 75.9342084,38.3088998 C76.179165,38.7616143 76.4278334,39.2638371 76.7483198,39.9446793 C76.896803,40.2601174 77.4069603,41.3622205 77.6101482,41.8003564 C78.7785369,43.1403216 80.3841088,43.6347759 84.2045726,43.6347759 L90.8392088,43.6347759 C91.0649853,43.6311177 91.1734519,43.6255006 91.4399059,43.6089975 C93.8640185,43.4588573 95.3231173,44.0420735 97.2347804,46.6392967 C100.352457,50.8750339 100.756334,51.3846581 101.629186,52.0463548 C102.52846,52.6746542 103.512814,53.2034834 104.711559,53.7229796 C108.501545,54.926279 110.397642,57.2276585 109.993435,60.4345393 Z" id="Path-50" fill="#EBEBEB" fill-rule="nonzero"></path>
                <path d="M115.952183,73.9921267 C115.729176,73.8699076 118.625198,75.1734018 119.696178,75.878698 C120.768339,76.5851892 121.237684,77.5900378 121.014546,78.6701665 C120.870708,79.3664333 120.500509,79.9340697 119.937255,80.5472316 C119.076783,81.4839479 115.775245,84.6563633 113.391352,86.7875279 C111.361639,88.1225484 109.661714,88.1113461 108.52454,86.8959994 C107.783819,86.10436 107.433435,84.9067794 107.433435,83.8604784 L107.433435,58.9817627 C107.707546,57.009495 106.661677,55.733944 103.882678,54.8658841 C102.385522,54.2287266 101.233978,53.6123706 100.30117,52.9650486 C98.9074591,51.9155143 98.5464249,51.4599507 95.1730491,46.8768157 C93.8127563,45.0286951 93.2024242,44.7847394 91.5981592,44.8841014 C91.2958276,44.9028266 91.1645934,44.9096228 90.986391,44.9132415 C90.9531266,44.9139169 88.6925204,44.9144284 84.2045726,44.9147759 C79.5832603,44.9147759 77.2862011,44.1565734 75.5338366,42.029558 L75.3615401,41.7563248 C75.2584115,41.5350232 74.6003115,40.1123153 74.4321021,39.7549707 C74.130229,39.1136708 73.9007843,38.650273 73.6826718,38.2471702 C73.1738452,37.3067865 72.7079654,36.6696201 72.0668978,36.0538426 C71.6447139,35.5421153 70.8518969,35.1518867 69.3124455,34.6165228 C69.1823936,34.5712956 68.5452503,34.352505 68.3691782,34.2909975 C67.9723462,34.1523719 67.664383,34.0389869 67.3793377,33.9241254 C65.1948642,33.0438731 60.3393195,31.7617416 56.5681696,31.2321791 C54.0875224,30.8939831 49.3463501,30.6591873 43.0378545,30.5160383 C39.9348416,30.4456264 36.6167469,30.4010507 33.2398971,30.3771188 C31.9862797,30.3682344 30.7876628,30.3626768 29.648402,30.3597446 C28.8767562,30.3577586 28.3330096,30.3572628 27.6284526,30.3572628 C27.428981,30.3572628 27.243503,30.3578552 26.9192019,30.3593087 C25.1059304,30.3674939 24.364446,30.3544184 23.5324352,30.272124 C22.1955651,30.1398937 21.2893027,29.8528722 20.7107,29.1524584 C20.1588241,28.4843981 20.0423238,27.9554202 19.9975144,26.8138652 C19.9594666,25.8445645 19.9090867,25.3733926 19.7097428,24.582417 C19.1926865,22.5756229 19.0131074,21.8436182 18.3638908,19.1446952 C18.1791908,18.3772881 18.0570298,17.8754007 17.9240894,17.3395641 C17.848297,17.0340716 17.6150601,16.0464554 17.5730644,15.8756149 C17.37789,15.0816349 17.2292614,14.6321454 17.0754757,14.3710165 C16.6897353,14.6541298 16.6215932,14.7950847 16.4033735,15.2625593 C15.5827955,17.1533541 14.5778835,17.6189474 12.719292,17.5810646 C11.9678063,17.5768814 11.8309653,17.5693677 10.0998217,17.4624355 C9.75026906,17.4408438 9.47959217,17.4248967 9.21728446,17.4107751 C7.88983004,17.3393102 6.98900486,17.3315353 6.49482436,17.3996184 C5.81288466,17.4935691 5.37106761,17.5392922 4.92215403,17.5609988 C4.56337207,17.5783471 4.32872879,17.5801843 3.49606442,17.5778287 C3.26213061,17.5771669 3.11335448,17.5768814 2.9402441,17.5768814 C1.86567754,17.5768814 1.09640609,17.3353148 0.598687172,16.6931029 C0.357109943,16.3813932 0.232422692,16.0338816 0.183569193,15.6519819 C0.155670774,15.4338932 0.153928104,15.2868207 0.161409389,14.949537 C0.164340763,14.6309831 0.164340763,14.6309831 0.164257277,14.2534015 C0.164215372,14.0397947 0.164215372,14.0397947 0.164180504,13.810067 C0.164098837,13.2116033 0.164142429,12.8876717 0.164416304,12.855969 C0.176126652,11.5004223 0.868871739,9.39708941 2.16215239,7.22513332 C3.72738323,5.03326493 5.9600001,3.55261265 8.60156154,2.62561074 C10.5125856,1.95497596 12.5835323,1.62210782 13.8361252,1.67999464 C15.3947883,1.75202606 60.0414585,1.67980705 62.0558157,1.60429642 C63.3867072,1.55440633 66.0258177,1.43087395 69.9680052,1.23389084 C102.696645,0.945591485 121.669364,0.945591485 127.050255,1.23577687 C133.022784,1.6771514 135.049152,2.86720069 135.049152,5.84462878 L135.049152,9.91948207 C135.049152,10.1382879 135.043683,10.3206354 135.030807,10.6190835 C134.996793,11.4074225 135.007961,11.4695673 135.15169,11.6156068 C135.324334,11.791027 135.660101,12.0079084 136.20825,12.269352 C138.759816,13.4863388 139.366042,15.4724701 138.950959,18.0696663 C138.386674,22.8922607 136.243868,29.39278 134.900798,31.9337625 C134.783056,32.1565208 133.776967,34.326363 131.80397,38.6093684 C131.437337,39.4052596 126.909479,49.2430777 125.448898,52.4118933 C119.586989,65.128945 116.398173,71.9653038 115.824628,72.9710936 C115.640243,73.2944383 115.519247,73.5533702 115.453953,73.7468978 C115.755594,73.8892379 115.851872,73.937151 115.952183,73.9921267 Z M109.993435,59.1545393 L109.993435,83.8604784 C109.993435,84.3157621 110.165078,84.9024218 110.393852,85.1469223 C110.581831,85.3478234 110.90208,85.3558886 111.760803,84.811293 C114.081585,82.7319441 117.266062,79.670929 118.051962,78.8153921 C118.30449,78.5404876 118.45564,78.3177382 118.49869,78.1849302 C117.423353,77.4471872 114.662139,76.2043697 114.721833,76.2370853 C113.598182,75.7037205 113.174687,75.3817287 112.937319,74.6035802 C112.686086,73.7799763 112.930256,72.8788409 113.600791,71.7029658 C114.113762,70.8033999 117.396853,63.7649291 123.04852,51.5039904 C124.584193,48.1722603 129.111891,38.3347937 129.478815,37.5382694 C131.550851,33.0402682 132.483406,31.0290162 132.637507,30.73747 C133.841278,28.4600304 135.890593,22.2402335 136.411302,17.7464218 C136.682035,16.0719223 136.421745,15.2074561 135.106177,14.5799872 C134.312272,14.2013287 133.74231,13.8331736 133.327119,13.4113082 C132.522887,12.5941465 132.410252,11.9673731 132.473186,10.5087328 C132.484588,10.2444686 132.489152,10.0922822 132.489152,9.91948207 L132.489152,5.84462878 C132.489152,5.23068745 132.398337,5.03470384 131.979197,4.78855061 C131.203961,4.33326858 129.587533,3.99026469 126.887051,3.79044185 C121.613641,3.50630248 102.645805,3.50622594 70.0694524,3.79201552 C66.1312762,3.98876113 63.4937323,4.11219241 62.1517131,4.16249963 C60.0702643,4.24052528 15.3536559,4.31285742 13.7179445,4.23726532 C12.8061064,4.195126 11.0607818,4.47565616 9.44925864,5.0411872 C7.28549558,5.80051555 5.4990828,6.97925691 4.33348264,8.58250032 C3.27448593,10.3739911 2.73165231,12.0294135 2.72432078,12.8780836 C2.72415663,12.8970855 2.72410664,13.2685813 2.72418048,13.8097177 C2.72421533,14.0393407 2.72421533,14.0393407 2.72425722,14.2528796 C2.72434068,14.6302662 2.72434068,14.6302662 2.72436854,14.7529769 C2.72436854,14.8289723 2.72339851,14.8882482 2.72067673,15.0063064 C3.11631276,15.0168814 3.26715033,15.0171709 3.50330649,15.017839 C4.28725036,15.0200567 4.50072689,15.0183852 4.7985137,15.0039862 C5.16121892,14.9864482 5.53226824,14.9480488 6.14543385,14.863573 C6.85826975,14.7653658 7.86032037,14.7740143 9.35490549,14.8544769 C9.62510376,14.8690233 9.90194035,14.8853333 10.2576513,14.9073054 C11.8849355,15.0078222 12.0499228,15.0168814 12.4117806,15.0168814 C13.6938412,15.0403966 13.7129439,15.031546 14.0688609,14.2125557 C14.3343567,13.6425181 14.4128312,13.4801904 14.5487297,13.23878 C15.1198223,12.2242895 15.877925,11.7255136 17.0560266,11.7255136 C18.0311536,11.7255136 18.7839256,12.2272649 19.2813609,13.0719127 C19.600232,13.6133575 19.8065589,14.2373409 20.0590563,15.2645139 C20.1050147,15.4514753 20.3374036,16.4355002 20.4087617,16.7231197 C20.5433708,17.2656822 20.6668348,17.7729231 20.8317632,18.4581575 C21.4990475,21.2321666 21.6761367,21.9540215 22.1904437,23.9502165 C22.444459,24.9580298 22.5111054,25.5813328 22.5555445,26.7134551 C22.5767003,27.2524162 22.5959199,27.3913597 22.6575974,27.4860269 C23.0589578,27.6269738 23.3773995,27.6842972 23.7844161,27.7245554 C24.4947644,27.7948162 25.190551,27.8070858 26.841655,27.799632 C27.2356418,27.7978647 27.4241012,27.7972628 27.6284526,27.7972628 C28.3350174,27.7972628 28.8807563,27.7977604 29.6549908,27.7997531 C30.7979531,27.8026948 32.0003925,27.8082701 33.2580395,27.8171831 C36.6472451,27.8412025 39.9781724,27.8859506 43.0959297,27.9566971 C49.5032937,28.1020896 54.3042196,28.3398445 56.9190711,28.6963475 C60.8987811,29.2551861 65.9561266,30.590604 68.3361509,31.5496553 C68.5774315,31.6468814 68.8512004,31.7476768 69.2134345,31.8742164 C69.3814534,31.9329106 70.0163131,32.150917 70.1533218,32.1985635 C72.1281396,32.8853317 73.1707303,33.3911422 73.8975389,34.2629632 C74.7138586,35.0583165 75.3205247,35.8947252 75.9342084,37.0288998 C76.179165,37.4816143 76.4278334,37.9838371 76.7483198,38.6646793 C76.896803,38.9801174 77.4069603,40.0822205 77.6101482,40.5203564 C78.7785369,41.8603216 80.3841088,42.3547759 84.2045726,42.3547759 L90.8392088,42.3547759 C91.0649853,42.3511177 91.1734519,42.3455006 91.4399059,42.3289975 C93.8640185,42.1788573 95.3231173,42.7620735 97.2347804,45.3592967 C100.352457,49.5950339 100.756334,50.1046581 101.629186,50.7663548 C102.52846,51.3946542 103.512814,51.9234834 104.711559,52.4429796 C108.501545,53.646279 110.397642,55.9476585 109.993435,59.1545393 Z" id="Path-50" fill="#F2F2F2" fill-rule="nonzero"></path>
                <path d="M104.073498,54.2549933 C102.675408,53.6567396 101.560737,53.0601198 100.666048,52.4392501 C99.3696779,51.4628003 98.9979329,50.9937215 95.6884819,46.497436 C94.1903466,44.4620397 93.3678228,44.1332688 91.5585959,44.2453254 C91.2652337,44.2634951 91.1396914,44.2699965 90.9733976,44.2733734 C90.942953,44.2739916 88.686678,44.2744591 84.2045726,44.2747759 C79.7558015,44.2747759 77.6364921,43.5752442 76.0277916,41.6226079 C75.8393178,41.2664129 75.1804576,39.8420614 75.0111565,39.4823978 C74.7046301,38.8312124 74.4703795,38.3581084 74.2455559,37.9426026 C73.7069511,36.9471844 73.2023932,36.2571195 72.5102502,35.5922815 C72.0398576,35.0110368 71.18403,34.5897941 69.5226646,34.012033 C69.3908735,33.966201 68.7543011,33.7476064 68.5802422,33.6868022 C68.1920598,33.5511981 67.8926451,33.4409605 67.618541,33.3305079 C65.3851798,32.4305558 60.4791849,31.1351027 56.6546234,30.5980453 C54.1416967,30.2554484 49.385586,30.0199128 43.0523733,29.876203 C39.9456743,29.8057074 36.6243714,29.7610887 33.2444327,29.7371349 C31.9898079,29.7282433 30.7902354,29.7226813 29.6500492,29.7197467 C28.8777562,29.717759 28.3335115,29.7172628 27.6284526,29.7172628 C27.4277611,29.7172628 27.2415377,29.7178575 26.9163334,29.7193151 C23.1168762,29.7364668 21.9259661,29.6186735 21.2041155,28.7448542 C20.7693589,28.21857 20.6766165,27.7974665 20.6370219,26.7887626 C20.5973763,25.7787566 20.5429297,25.2695519 20.3295019,24.4227342 C19.8135491,22.4202225 19.6345924,21.6907553 18.9861414,18.995015 C18.8011018,18.2261969 18.6786151,17.7229711 18.5452574,17.185453 C18.4705737,16.8844287 18.2375487,15.8977104 18.1945624,15.7228397 C17.8036987,14.1327852 17.5167316,13.6455136 17.0560266,13.6455136 C16.6134817,13.6455136 16.4699059,13.7399759 16.2218433,14.1806349 C16.1205093,14.3606449 16.049784,14.506943 15.8162777,15.0077681 C15.1153326,16.6229021 14.3568729,16.9743097 12.7323341,16.9411975 C11.9883354,16.9368814 11.8444578,16.9289813 10.1392791,16.823653 C9.78818688,16.8019662 9.51597006,16.7859284 9.25168972,16.7717006 C7.88245262,16.6979862 6.95632108,16.6899929 6.40747673,16.7656071 C5.74273056,16.8571891 5.31860543,16.9010812 4.89124395,16.9217456 C4.54771077,16.9383566 4.31835918,16.9401524 3.49787493,16.9378313 C3.26338554,16.9371679 3.11409405,16.9368814 2.9402441,16.9368814 C2.04380017,16.9368814 1.45371319,16.7515823 1.10455104,16.3010547 C0.8231617,15.9379751 0.786073204,15.6480453 0.801252008,14.9637294 C0.804340742,14.6308039 0.804340742,14.6308039 0.804257264,14.253271 C0.804215362,14.0396812 0.804215362,14.0396812 0.804180498,13.8099797 C0.804100787,13.2258478 0.804145979,12.8900251 0.804392424,12.8614977 C0.815024299,11.630791 1.47268967,9.63396815 2.71204979,7.55256705 C4.16232325,5.52504502 6.28653362,4.11628699 8.81348581,3.22950486 C10.6496347,2.58514601 12.6391758,2.26536237 13.80658,2.31931231 C15.3845052,2.3922339 60.04866,2.31998661 62.0797901,2.24384722 C63.4142101,2.19382486 66.0551187,2.07020831 70.0262683,1.87232052 C102.68138,1.58575009 121.655078,1.58575009 127.003087,1.87403638 C132.683412,2.2938168 134.409152,3.30731266 134.409152,5.84462878 L134.409152,9.91948207 C134.409152,10.1267865 134.403909,10.3015937 134.391401,10.5914959 C134.350158,11.5474101 134.386692,11.7507121 134.695547,12.0645321 C134.928828,12.3015637 135.323144,12.5562635 135.932732,12.8470108 C138.182508,13.9200569 138.698446,15.6335655 138.318541,17.9674183 C137.76901,22.7099654 135.645212,29.155825 134.334975,31.6346894 C134.208143,31.8746447 133.220438,34.0048393 131.222682,38.3415936 C130.855976,39.1376431 126.328157,48.9753734 124.867668,52.1439909 C119.039455,64.787941 115.82707,71.6748278 115.268669,72.6540617 C114.836335,73.4122174 114.716338,73.8550812 114.773778,74.0433835 C114.79658,74.1181352 114.89048,74.1895293 115.24408,74.3556616 C115.471545,74.4628692 115.557727,74.5057579 115.644596,74.5533663 C115.462417,74.4535231 118.324737,75.7418482 119.344178,76.4132035 C120.20615,76.9811928 120.555455,77.7290384 120.387781,78.5406864 C120.273342,79.0946411 119.957013,79.5796777 119.465932,80.1142717 C118.621959,81.0330267 115.334387,84.1920223 112.964802,86.3103951 C111.251703,87.4309619 109.893188,87.4220094 108.991868,86.4587301 C108.379134,85.8038755 108.073435,84.7590251 108.073435,83.8604784 L108.073435,59.070286 C108.389708,56.7503921 107.125254,55.2082527 104.073498,54.2549933 Z M109.353435,59.1134172 L109.353435,83.8604784 C109.353435,84.4635164 109.569763,85.2029064 109.926524,85.5841916 C110.351075,86.0379276 111.015946,86.0476208 112.149171,85.3226163 C114.48731,83.2300535 117.716629,80.1264842 118.523285,79.248352 C118.87002,78.8708936 119.078608,78.5510567 119.13425,78.2817262 C119.190996,78.0070398 119.081774,77.7731999 118.642463,77.4837198 C117.723815,76.8787409 114.928898,75.6207541 115.029421,75.6758456 C114.754618,75.5398841 114.754618,75.5398841 114.699777,75.5141669 C114.028948,75.1989901 113.715318,74.9605309 113.549472,74.416848 C113.362836,73.8050113 113.565616,73.0566331 114.15675,72.0199977 C114.684865,71.0938759 117.944387,64.105933 123.629744,51.7719051 C125.165515,48.4399646 129.693252,38.6024102 130.060104,37.8060442 C132.10738,33.3617919 133.058319,31.3108924 133.20333,31.0365431 C134.442589,28.6919619 136.516732,22.3968108 137.051079,17.7911055 C137.354172,15.9258034 137.008666,14.778323 135.381695,14.0023284 C134.649229,13.6529737 134.137816,13.322637 133.783262,12.9623828 C133.144155,12.3130017 133.056887,11.8273854 133.112591,10.5363205 C133.124362,10.2635103 133.129152,10.1037836 133.129152,9.91948207 L133.129152,5.84462878 C133.129152,4.18753661 132.004668,3.52714759 126.921485,3.15136887 C121.626506,2.86606731 102.650849,2.86606731 70.0638241,3.1514984 C66.1137208,3.34887704 63.469216,3.47266192 62.1277388,3.52294883 C60.0630628,3.60034572 15.363939,3.67264958 13.7474897,3.59794765 C12.7504629,3.55187146 10.9237327,3.84548611 9.23733436,4.43729309 C6.94919825,5.24026761 5.04814441,6.4980457 3.79784364,8.23098874 C2.67547939,10.1224559 2.09278457,11.8955826 2.08434466,12.872555 C2.08415308,12.894732 2.08410469,13.2543368 2.08418049,13.809805 C2.08421534,14.0394542 2.08421534,14.0394542 2.08425724,14.2530101 C2.0843407,14.6304454 2.0843407,14.6304454 2.08436854,14.7529769 C2.07263065,15.3666059 2.08703755,15.4792282 2.11627878,15.5169584 C2.1683274,15.5841173 2.40004542,15.6568814 2.9402441,15.6568814 C3.11557319,15.6568814 3.2658954,15.6571699 3.50149597,15.6578364 C4.29761997,15.6600886 4.51638818,15.6583757 4.82942378,15.6432394 C5.21368109,15.6246592 5.60242235,15.5844289 6.23278147,15.4975844 C6.89095353,15.4069081 7.86769778,15.4153383 9.32050023,15.4935515 C9.58872586,15.5079917 9.86402252,15.5242109 10.2181939,15.546088 C11.871443,15.6482086 12.0293937,15.6568814 12.4117806,15.6568814 C13.9148518,15.6850343 14.1804068,15.5619981 14.6490214,14.4827663 C14.9061658,13.9306597 14.9820572,13.7736753 15.1064342,13.5527316 C15.5698501,12.7295183 16.1231106,12.3655136 17.0560266,12.3655136 C18.3807523,12.3655136 18.9070572,13.2591822 19.4375583,15.4172892 C19.4825261,15.6002203 19.715127,16.5851431 19.7875936,16.8772308 C19.9217856,17.4181118 20.0449238,17.9240144 20.2095328,18.6079215 C20.8775625,21.3850295 21.0552742,22.1094218 21.5698524,24.106634 C21.8106159,25.0618705 21.8731957,25.6471407 21.916037,26.7385576 C21.9452019,27.481559 21.9904286,27.6869137 22.1909465,27.929646 C22.5198496,28.3277919 23.7899235,28.4534153 26.8445442,28.4396254 C27.2376071,28.4378623 27.4253212,28.4372628 27.6284526,28.4372628 C28.3345155,28.4372628 28.8797563,28.4377599 29.6533436,28.439751 C30.7953805,28.4426903 31.9968643,28.4482612 33.2535039,28.457167 C36.6396205,28.4811646 39.9673397,28.5258696 43.0814109,28.5965324 C49.4640578,28.741364 54.2500453,28.9783792 56.8300742,29.3301295 C60.7589157,29.881825 65.765811,31.2039213 68.0969476,32.1432728 C68.3491694,32.2449077 68.6314868,32.3488506 69.0023704,32.4784116 C69.1724026,32.5378092 69.8078333,32.7560117 69.9431028,32.8030534 C71.8202591,33.4558585 72.801047,33.9346172 73.4263299,34.6974842 C74.2056458,35.4518523 74.7805611,36.2416532 75.3713242,37.3334674 C75.6095698,37.773779 75.8534323,38.2662955 76.1692654,38.9372521 C76.3268362,39.271996 76.8971884,40.5045284 77.0668416,40.8700056 C78.3827704,42.4274456 80.1535936,42.9947759 84.2045726,42.9947759 L90.8392088,42.9947759 C91.0898873,42.990744 91.2040459,42.9848321 91.4794693,42.9677734 C93.6986199,42.8303278 94.9455271,43.3287289 96.7193476,45.7386764 C99.9009491,50.0612631 100.294116,50.5573722 101.242551,51.2763684 C102.207758,51.9511092 103.238667,52.5039188 104.48741,53.0433334 C108.044185,54.1635147 109.73537,56.2196547 109.353435,59.1134172 Z" id="Path-50" fill="url(#linearGradient-1)" fill-rule="nonzero"></path>
                <path d="M2.08434466,12.872555 C2.08415308,12.894732 2.08410469,13.2543368 2.08418049,13.809805 C2.08421534,14.0394542 2.08421534,14.0394542 2.08425724,14.2530101 C2.0843407,14.6304454 2.0843407,14.6304454 2.08436854,14.7529769 C2.08436854,14.822753 2.0834533,14.8786814 2.08093725,14.9921141 C2.07263065,15.3666059 2.08703755,15.4792282 2.11627878,15.5169584 C2.1683274,15.5841173 2.40004542,15.6568814 2.9402441,15.6568814 C3.11557319,15.6568814 3.2658954,15.6571699 3.50149597,15.6578364 C4.29761997,15.6600886 4.51638818,15.6583757 4.82942378,15.6432394 C5.21368109,15.6246592 5.60242235,15.5844289 6.23278147,15.4975844 C6.89095353,15.4069081 7.86769778,15.4153383 9.32050023,15.4935515 C9.58872586,15.5079917 9.86402252,15.5242109 10.2181939,15.546088 C11.871443,15.6482086 12.0293937,15.6568814 12.4117806,15.6568814 C12.5122226,15.6568814 12.5933214,15.6580982 12.7584183,15.6614633 C13.9148518,15.6850343 14.1804068,15.5619981 14.6490214,14.4827663 C14.9061658,13.9306597 14.9820572,13.7736753 15.1064342,13.5527316 C15.5698501,12.7295183 16.1231106,12.3655136 17.0560266,12.3655136 C18.3807523,12.3655136 18.9070572,13.2591822 19.4375583,15.4172892 C19.4825261,15.6002203 19.715127,16.5851431 19.7875936,16.8772308 C19.9217856,17.4181118 20.0449238,17.9240144 20.2095328,18.6079215 C20.2200895,18.6517869 20.2200895,18.6517869 20.2306427,18.6956545 C20.8775625,21.3850295 21.0552742,22.1094218 21.5698524,24.106634 C21.8106159,25.0618705 21.8731957,25.6471407 21.916037,26.7385576 C21.9452019,27.481559 21.9904286,27.6869137 22.1909465,27.929646 C22.5198496,28.3277919 23.7899235,28.4534153 26.8445442,28.4396254 C27.2376071,28.4378623 27.4253212,28.4372628 27.6284526,28.4372628 C28.3345155,28.4372628 28.8797563,28.4377599 29.6533436,28.439751 C30.7953805,28.4426903 31.9968643,28.4482612 33.2535039,28.457167 C36.6396205,28.4811646 39.9673397,28.5258696 43.0814109,28.5965324 C44.1589401,28.6209831 45.1971633,28.6482903 46.1916596,28.6785899 L46.1526796,29.9579962 C45.161623,29.9278015 44.1266971,29.900581 43.0523733,29.876203 C39.9456743,29.8057074 36.6243714,29.7610887 33.2444327,29.7371349 C31.9898079,29.7282433 30.7902354,29.7226813 29.6500492,29.7197467 C28.8777562,29.717759 28.3335115,29.7172628 27.6284526,29.7172628 C27.4277611,29.7172628 27.2415377,29.7178575 26.9163334,29.7193151 C23.1168762,29.7364668 21.9259661,29.6186735 21.2041155,28.7448542 C20.7693589,28.21857 20.6766165,27.7974665 20.6370219,26.7887626 C20.5973763,25.7787566 20.5429297,25.2695519 20.3295019,24.4227342 C19.8135491,22.4202225 19.6345924,21.6907553 18.9861414,18.995015 C18.9756071,18.9512256 18.9756071,18.9512256 18.9650719,18.9074497 C18.8011018,18.2261969 18.6786151,17.7229711 18.5452574,17.185453 C18.4705737,16.8844287 18.2375487,15.8977104 18.1945624,15.7228397 C17.8036987,14.1327852 17.5167316,13.6455136 17.0560266,13.6455136 C16.6134817,13.6455136 16.4699059,13.7399759 16.2218433,14.1806349 C16.1205093,14.3606449 16.049784,14.506943 15.8162777,15.0077681 C15.1153326,16.6229021 14.3568729,16.9743097 12.7323341,16.9411975 C12.5757155,16.9380052 12.5008145,16.9368814 12.4117806,16.9368814 C11.9883354,16.9368814 11.8444578,16.9289813 10.1392791,16.823653 C9.78818688,16.8019662 9.51597006,16.7859284 9.25168972,16.7717006 C7.88245262,16.6979862 6.95632108,16.6899929 6.40747673,16.7656071 C5.74273056,16.8571891 5.31860543,16.9010812 4.89124395,16.9217456 C4.54771077,16.9383566 4.31835918,16.9401524 3.49787493,16.9378313 C3.26338554,16.9371679 3.11409405,16.9368814 2.9402441,16.9368814 C2.04380017,16.9368814 1.45371319,16.7515823 1.10455104,16.3010547 C0.8231617,15.9379751 0.786073204,15.6480453 0.801252008,14.9637294 C0.803562859,14.8595478 0.804368544,14.8103146 0.804368544,14.7529769 C0.804340742,14.6308039 0.804340742,14.6308039 0.804257264,14.253271 C0.804215362,14.0396812 0.804215362,14.0396812 0.804180498,13.8099797 C0.804100787,13.2258478 0.804145979,12.8900251 0.804392424,12.8614977 C0.815024299,11.630791 1.47268967,9.63396815 2.71204979,7.55256705 C4.16232325,5.52504502 6.28653362,4.11628699 8.81348581,3.22950486 C10.6496347,2.58514601 12.6391758,2.26536237 13.80658,2.31931231 C14.0538078,2.33073759 15.4506116,2.33941797 17.8044335,2.34444908 L17.8016976,3.62444615 C15.4030462,3.61931922 14.0245755,3.61075278 13.7474897,3.59794765 C12.7504629,3.55187146 10.9237327,3.84548611 9.23733436,4.43729309 C6.94919825,5.24026761 5.04814441,6.4980457 3.79784364,8.23098874 C2.67547939,10.1224559 2.09278457,11.8955826 2.08434466,12.872555 Z" id="Path" fill-opacity="0.37" fill="#000000" fill-rule="nonzero"></path>
                <path d="M119.653228,63.4218565 L118.492419,62.8824848 C119.895646,59.8625277 121.57627,56.2267895 123.629744,51.7719051 C123.667476,51.6900465 123.667476,51.6900465 123.705208,51.6081862 C125.165515,48.4399646 129.693252,38.6024102 130.060104,37.8060442 C132.10738,33.3617919 133.058319,31.3108924 133.20333,31.0365431 C133.722142,30.0549916 134.814371,27.2122032 135.616838,24.4911737 L136.844562,24.8532455 C136.019805,27.6498523 134.898182,30.5691466 134.334975,31.6346894 C134.208143,31.8746447 133.220438,34.0048393 131.222682,38.3415936 C130.855976,39.1376431 126.328157,48.9753734 124.867668,52.1439909 C124.829931,52.2258635 124.829931,52.2258635 124.792193,52.3077346 C122.73822,56.7636992 121.057103,60.4005049 119.653228,63.4218565 Z" id="Path" fill="#FFB819" fill-rule="nonzero"></path>
                <path d="M128.810746,2.04514781 L128.658829,3.31610065 C128.130645,3.25296665 127.54854,3.19783627 126.921485,3.15136887 C121.626506,2.86606731 102.650849,2.86606731 70.0638241,3.1514984 C66.1137208,3.34887704 63.469216,3.47266192 62.1277388,3.52294883 C61.4078331,3.54993537 55.2803786,3.5783314 46.1731411,3.60055976 L46.1700169,2.32056358 C55.2231941,2.29846716 61.3844014,2.26991471 62.0797901,2.24384722 C63.4142101,2.19382486 66.0551187,2.07020831 70.0262683,1.87232052 C102.68138,1.58575009 121.655078,1.58575009 127.003087,1.87403638 C127.661361,1.92268336 128.262526,1.97961889 128.810746,2.04514781 Z" id="Path" fill="#FFB819" fill-rule="nonzero"></path>
                <path d="M118.523165,79.2483505 C118.869903,78.8708921 119.078494,78.5510553 119.134134,78.2817254 C119.19088,78.0070404 119.081658,77.7732012 118.642344,77.4837208 C117.723689,76.8787417 114.928754,75.6207548 115.029277,75.6758465 C114.969293,75.6429725 114.903304,75.6101325 114.806926,75.5645802 C114.028799,75.1989909 113.715168,74.9605323 113.54932,74.4168491 C113.362683,73.8050112 113.565464,73.0566321 114.156602,72.0199962 C114.213049,71.9210091 114.31358,71.72669 114.452819,71.4467428 L115.598887,72.0167679 C115.449383,72.3173539 115.340394,72.5280209 115.268519,72.6540632 C114.836183,73.4122184 114.716185,73.8550813 114.773625,74.0433824 C114.796428,74.1181337 114.890329,74.1895284 115.243931,74.355661 C115.471398,74.4628685 115.55758,74.5057571 115.644449,74.5533655 C115.462269,74.4535225 118.324608,75.7418474 119.344055,76.4132025 C120.206033,76.9811914 120.55534,77.7290379 120.387665,78.5406872 C120.273225,79.0946425 119.956893,79.5796791 119.465809,80.1142732 C118.621831,81.0330282 115.334238,84.1920237 112.964638,86.3103965 C111.25153,87.4309614 109.893011,87.422009 108.991686,86.4587316 C108.378948,85.8038769 108.073248,84.7590258 108.073248,83.8604784 L108.073248,59.070286 C108.389523,56.7503931 107.125061,55.2082535 104.073283,54.2549936 C102.675185,53.6567404 101.560507,53.0601207 100.665812,52.4392512 C100.600093,52.3936454 100.534543,52.3460487 100.469046,52.2963967 C99.3694347,51.4628017 98.9976871,50.9937228 95.688215,46.4974375 C94.1900694,44.4620404 93.3675382,44.1332687 91.5582974,44.2453254 C91.2649334,44.2634951 91.1393903,44.2699965 90.9730956,44.2733734 C90.9426509,44.2739916 88.6863614,44.2744591 84.2042272,44.2747759 C79.7554292,44.2747759 77.636108,43.5752448 76.027398,41.6226094 C75.8389229,41.2664143 75.1800584,39.8420629 75.0107562,39.4823993 C74.7042279,38.8312138 74.4699757,38.3581098 74.2451508,37.9426041 C73.7065425,36.947186 73.2019814,36.257121 72.5098338,35.592283 C72.0394379,35.0110379 71.183604,34.5897948 69.5222271,34.0120334 C69.3904351,33.9662014 68.7538586,33.7476068 68.5797987,33.6868027 C68.1916138,33.5511986 67.8921973,33.440961 67.6180915,33.3305084 C65.3847154,32.4305561 60.4786883,31.1351029 56.6541015,30.5980453 C54.5819294,30.3155401 50.9623459,30.1045505 46.1520891,29.9579962 L46.1910689,28.6785899 C51.0449684,28.8264738 54.6965842,29.0393306 56.8295512,29.3301294 C60.7584174,29.8818248 65.7653444,31.203921 68.0964955,32.1432723 C68.348719,32.2449073 68.6310384,32.3488501 69.0019244,32.4784112 C69.1719578,32.5378087 69.8073925,32.7560113 69.9426628,32.8030529 C71.8198306,33.4558579 72.8006241,33.9346161 73.4259106,34.6974827 C74.2052314,35.4518507 74.7801504,36.2416517 75.3709174,37.3334658 C75.6091646,37.7737775 75.8530286,38.2662941 76.1688638,38.9372507 C76.3264356,39.2719945 76.8967914,40.5045267 77.0664457,40.8700041 C78.3823838,42.4274449 80.1532203,42.9947759 84.2042272,42.9947759 L90.8389062,42.9947759 C91.0895866,42.990744 91.203746,42.9848321 91.4791713,42.9677734 C93.698334,42.8303279 94.945247,43.3287282 96.7190783,45.7386749 C99.9007006,50.0612618 100.29387,50.5573707 101.242312,51.2763672 C102.207526,51.9511083 103.238441,52.5039182 104.487192,53.0433329 C108.04399,54.1635138 109.735185,56.2196535 109.353248,59.1134175 L109.353248,83.8604784 C109.353248,84.4635158 109.569577,85.202905 109.92634,85.5841901 C110.350896,86.037928 111.015775,86.0476212 112.149009,85.3226151 C114.487164,83.2300523 117.716504,80.1264827 118.523165,79.2483505 Z" id="Path-50" fill-opacity="0.2" fill="#000000" fill-rule="nonzero"></path>
                <path d="M115.268519,72.6540632 L114.156602,72.0199962 C114.213049,71.9210091 114.31358,71.72669 114.452819,71.4467428 C115.079457,70.1868518 116.450984,67.275674 118.492299,62.8824834 L119.653107,63.4218579 C117.606293,67.8268825 116.232658,70.7425342 115.598887,72.0167679 C115.449383,72.3173539 115.340394,72.5280209 115.268519,72.6540632 Z" id="Path-50" fill="#FFA019" fill-rule="nonzero"></path>
                <g id="Group-6" transform="translate(16.640000, 2.133333)">
                    <rect id="Rectangle-2" fill="#000000" x="0" y="0" width="1" height="1"></rect>
                    <rect id="Rectangle-2-Copy-4" fill="#FFFFFF" x="0" y="0.64" width="1" height="1"></rect>
                    <rect id="Rectangle-2-Copy-7" fill="#000000" x="0" y="1.28" width="1" height="1"></rect>
                    <rect id="Rectangle-2-Copy" fill="#FFFFFF" x="0.64" y="0" width="1" height="1"></rect>
                    <rect id="Rectangle-2-Copy-5" fill="#000000" x="0.64" y="0.64" width="1" height="1"></rect>
                    <rect id="Rectangle-2-Copy-9" fill="#FFFFFF" x="0.64" y="1.28" width="1" height="1"></rect>
                    <rect id="Rectangle-2-Copy-3" fill="#000000" x="1.28" y="0" width="1" height="1"></rect>
                    <rect id="Rectangle-2-Copy-6" fill="#FFFFFF" x="1.28" y="0.64" width="1" height="1"></rect>
                    <rect id="Rectangle-2-Copy-10" fill="#000000" x="1.28" y="1.28" width="1" height="1"></rect>
                </g>
                <g id="Group-Copy-7" transform="translate(107.946667, 0.000000)">
                    <circle id="Oval-Copy-2" fill-opacity="0.7" fill="#FFFFFF" cx="2.56" cy="2.56" r="2.56"></circle>
                    <circle id="Oval-Copy-2" fill-opacity="0.2" fill="#D0021B" cx="2.56" cy="2.56" r="2.56"></circle>
                    <circle id="Oval" stroke="#D0021B" stroke-width="0.5" fill="#FFFFFF" cx="2.56" cy="2.56" r="1.70666667"></circle>
                    <circle id="Oval-Copy" fill="#D0021B" cx="2.56" cy="2.56" r="1"></circle>
                </g>
                <g id="Group-Copy-8" transform="translate(8.106667, 13.653333)">
                    <circle id="Oval-Copy-2" fill-opacity="0.7" fill="#FFFFFF" cx="2.56" cy="2.56" r="2.56"></circle>
                    <circle id="Oval-Copy-2" fill-opacity="0.2" fill="#FFB819" cx="2.56" cy="2.56" r="2.56"></circle>
                    <circle id="Oval" stroke="#FFB819" stroke-width="0.5" fill="#FFFFFF" cx="2.56" cy="2.56" r="1.70666667"></circle>
                    <circle id="Oval-Copy" fill="#FFB819" cx="2.56" cy="2.56" r="1"></circle>
                </g>
                <path d="M117.90795,16.6579167 L118.516283,16.6579167 C118.54545,16.9016667 118.791283,17.0579167 119.14545,17.0579167 C119.472533,17.0579167 119.703783,16.8995833 119.703783,16.6725 C119.703783,16.4808333 119.553783,16.3704167 119.185033,16.29125 L118.793366,16.2079167 C118.24545,16.0933333 117.9767,15.8079167 117.9767,15.3495833 C117.9767,14.7829167 118.43295,14.41 119.1267,14.41 C119.7892,14.41 120.25795,14.7808333 120.2767,15.31625 L119.685033,15.31625 C119.655866,15.07875 119.435033,14.9204167 119.130866,14.9204167 C118.816283,14.9204167 118.60795,15.06625 118.60795,15.2954167 C118.60795,15.4808333 118.7517,15.5870833 119.103783,15.6620833 L119.466283,15.7391667 C120.07045,15.86625 120.330866,16.1266667 120.330866,16.5933333 C120.330866,17.1995833 119.866283,17.5704167 119.112116,17.5704167 C118.39545,17.5704167 117.930866,17.2183333 117.90795,16.6579167 Z M121.591283,17.4933333 L121.591283,15.0995833 L121.553783,15.0995833 L120.816283,15.6079167 L120.816283,15.0225 L121.593366,14.4870833 L122.22045,14.4870833 L122.22045,17.4933333 L121.591283,17.4933333 Z M116.8217,20.2841667 L116.695033,20.2841667 C116.5517,20.105 116.470033,19.8391667 116.470033,19.5533333 C116.470033,19.2683333 116.5392,19.0616667 116.703366,18.8516667 L116.8242,18.8516667 C116.703366,18.9933333 116.617533,19.2841667 116.617533,19.5533333 C116.617533,19.8133333 116.680033,20.0358333 116.8217,20.2841667 Z M117.023366,19.7391667 L117.175033,19.7391667 C117.193366,19.865 117.313366,19.945 117.4842,19.945 C117.645866,19.945 117.765033,19.8575 117.765033,19.7383333 C117.765033,19.6358333 117.690033,19.5708333 117.5242,19.5291667 L117.370033,19.4891667 C117.152533,19.4341667 117.058366,19.3358333 117.058366,19.165 C117.058366,18.9608333 117.2292,18.8225 117.483366,18.8225 C117.715866,18.8225 117.8892,18.9608333 117.9017,19.155 L117.750866,19.155 C117.730033,19.0316667 117.628366,18.9583333 117.478366,18.9583333 C117.318366,18.9583333 117.212533,19.0383333 117.212533,19.16 C117.212533,19.2541667 117.278366,19.3083333 117.4442,19.3508333 L117.570033,19.3841667 C117.8192,19.4466667 117.9192,19.5433333 117.9192,19.72 C117.9192,19.9408333 117.745033,20.0816667 117.470033,20.0816667 C117.215033,20.0816667 117.0392,19.9466667 117.023366,19.7391667 Z M118.508366,19.2658333 C118.365033,19.2658333 118.265033,19.3708333 118.2542,19.53 L118.7492,19.53 C118.745866,19.3708333 118.650866,19.2658333 118.508366,19.2658333 Z M118.745033,19.8208333 L118.888366,19.8208333 C118.845033,19.975 118.7067,20.0691667 118.510033,20.0691667 C118.260866,20.0691667 118.105033,19.8891667 118.105033,19.605 C118.105033,19.3225 118.263366,19.1391667 118.510033,19.1391667 C118.752533,19.1391667 118.900033,19.3116667 118.900033,19.5908333 L118.900033,19.6458333 L118.2542,19.6458333 L118.2542,19.6525 C118.2617,19.83 118.360866,19.9425 118.513366,19.9425 C118.6292,19.9425 118.707533,19.9 118.745033,19.8208333 Z M119.868366,19.43 L119.723366,19.43 C119.700033,19.3408333 119.620866,19.2683333 119.4917,19.2683333 C119.330033,19.2683333 119.228366,19.3975 119.228366,19.6008333 C119.228366,19.8083333 119.3317,19.94 119.4917,19.94 C119.612533,19.94 119.6967,19.8841667 119.723366,19.7825 L119.868366,19.7825 C119.842533,19.9475 119.708366,20.0691667 119.492533,20.0691667 C119.240866,20.0691667 119.080033,19.8866667 119.080033,19.6008333 C119.080033,19.3208333 119.240033,19.1391667 119.4917,19.1391667 C119.710033,19.1391667 119.843366,19.27 119.868366,19.43 Z M120.140033,18.9225 L120.283366,18.9225 L120.283366,19.155 L120.483366,19.155 L120.483366,19.275 L120.283366,19.275 L120.283366,19.7833333 C120.283366,19.8891667 120.323366,19.9341667 120.4167,19.9341667 C120.442533,19.9341667 120.4567,19.9333333 120.483366,19.9308333 L120.483366,20.0516667 C120.455033,20.0566667 120.427533,20.06 120.3992,20.06 C120.2142,20.06 120.140033,19.9916667 120.140033,19.82 L120.140033,19.275 L119.995033,19.275 L119.995033,19.155 L120.140033,19.155 L120.140033,18.9225 Z M121.0692,19.94 C121.2392,19.94 121.335033,19.8166667 121.335033,19.6041667 C121.335033,19.3908333 121.2392,19.2683333 121.0692,19.2683333 C120.8992,19.2683333 120.803366,19.3908333 120.803366,19.6041667 C120.803366,19.8166667 120.8992,19.94 121.0692,19.94 Z M121.0692,20.0691667 C120.813366,20.0691667 120.655033,19.8925 120.655033,19.6041667 C120.655033,19.315 120.813366,19.1391667 121.0692,19.1391667 C121.325033,19.1391667 121.483366,19.315 121.483366,19.6041667 C121.483366,19.8925 121.325033,20.0691667 121.0692,20.0691667 Z M121.708366,20.0533333 L121.708366,19.155 L121.845033,19.155 L121.845033,19.2883333 L121.858366,19.2883333 C121.885033,19.2008333 121.988366,19.1391667 122.107533,19.1391667 C122.130866,19.1391667 122.160866,19.1408333 122.1792,19.1433333 L122.1792,19.2866667 C122.167533,19.2833333 122.115866,19.2783333 122.087533,19.2783333 C121.950866,19.2783333 121.8517,19.37 121.8517,19.4966667 L121.8517,20.0533333 L121.708366,20.0533333 Z M123.1267,20.0533333 L123.1267,19.0175 L123.113366,19.0175 L122.807533,19.2391667 L122.807533,19.0808333 L123.127533,18.8508333 L123.2767,18.8508333 L123.2767,20.0533333 L123.1267,20.0533333 Z M123.605866,20.2841667 C123.747533,20.0358333 123.810033,19.8133333 123.810033,19.5533333 C123.810033,19.2825 123.725033,18.9925 123.6042,18.8516667 L123.725866,18.8516667 C123.890033,19.0616667 123.958366,19.2683333 123.958366,19.5533333 C123.958366,19.8375 123.8767,20.1033333 123.733366,20.2841667 L123.605866,20.2841667 Z" id="S1-(Sector-1)-Copy" fill="#C6C6C6"></path>
                <path d="M80.5098246,54.2045833 L81.118158,54.2045833 C81.1473246,54.4483333 81.393158,54.6045833 81.7473246,54.6045833 C82.074408,54.6045833 82.305658,54.44625 82.305658,54.2191667 C82.305658,54.0275 82.155658,53.9170833 81.786908,53.8379167 L81.3952413,53.7545833 C80.8473246,53.64 80.5785746,53.3545833 80.5785746,52.89625 C80.5785746,52.3295833 81.0348246,51.9566667 81.7285746,51.9566667 C82.3910746,51.9566667 82.8598246,52.3275 82.8785746,52.8629167 L82.286908,52.8629167 C82.2577413,52.6254167 82.036908,52.4670833 81.7327413,52.4670833 C81.418158,52.4670833 81.2098246,52.6129167 81.2098246,52.8420833 C81.2098246,53.0275 81.3535746,53.13375 81.705658,53.20875 L82.068158,53.2858333 C82.6723246,53.4129167 82.9327413,53.6733333 82.9327413,54.14 C82.9327413,54.74625 82.468158,55.1170833 81.7139913,55.1170833 C80.9973246,55.1170833 80.5327413,54.765 80.5098246,54.2045833 Z M83.430658,52.93375 C83.430658,52.3525 83.8764913,51.9566667 84.5264913,51.9566667 C85.1535746,51.9566667 85.5910746,52.3170833 85.5910746,52.83375 C85.5910746,53.1608333 85.4139913,53.4420833 84.893158,53.9316667 L84.318158,54.4795833 L84.318158,54.5170833 L85.6348246,54.5170833 L85.6348246,55.04 L83.4660746,55.04 L83.4660746,54.6004167 L84.4473246,53.64 C84.8702413,53.2275 84.9764913,53.07125 84.9764913,52.8754167 C84.9764913,52.63375 84.780658,52.4629167 84.505658,52.4629167 C84.2139913,52.4629167 84.0139913,52.6545833 84.0139913,52.9316667 L84.0139913,52.9441667 L83.430658,52.9441667 L83.430658,52.93375 Z M79.5841996,57.8308333 L79.457533,57.8308333 C79.3141996,57.6516667 79.232533,57.3858333 79.232533,57.1 C79.232533,56.815 79.3016996,56.6083333 79.4658663,56.3983333 L79.5866996,56.3983333 C79.4658663,56.54 79.380033,56.8308333 79.380033,57.1 C79.380033,57.36 79.442533,57.5825 79.5841996,57.8308333 Z M79.7858663,57.2858333 L79.937533,57.2858333 C79.9558663,57.4116667 80.0758663,57.4916667 80.2466996,57.4916667 C80.4083663,57.4916667 80.527533,57.4041667 80.527533,57.285 C80.527533,57.1825 80.452533,57.1175 80.2866996,57.0758333 L80.132533,57.0358333 C79.915033,56.9808333 79.8208663,56.8825 79.8208663,56.7116667 C79.8208663,56.5075 79.9916996,56.3691667 80.2458663,56.3691667 C80.4783663,56.3691667 80.6516996,56.5075 80.6641996,56.7016667 L80.5133663,56.7016667 C80.492533,56.5783333 80.3908663,56.505 80.2408663,56.505 C80.0808663,56.505 79.975033,56.585 79.975033,56.7066667 C79.975033,56.8008333 80.0408663,56.855 80.2066996,56.8975 L80.332533,56.9308333 C80.5816996,56.9933333 80.6816996,57.09 80.6816996,57.2666667 C80.6816996,57.4875 80.507533,57.6283333 80.232533,57.6283333 C79.977533,57.6283333 79.8016996,57.4933333 79.7858663,57.2858333 Z M81.2708663,56.8125 C81.127533,56.8125 81.027533,56.9175 81.0166996,57.0766667 L81.5116996,57.0766667 C81.5083663,56.9175 81.4133663,56.8125 81.2708663,56.8125 Z M81.507533,57.3675 L81.6508663,57.3675 C81.607533,57.5216667 81.4691996,57.6158333 81.272533,57.6158333 C81.0233663,57.6158333 80.867533,57.4358333 80.867533,57.1516667 C80.867533,56.8691667 81.0258663,56.6858333 81.272533,56.6858333 C81.515033,56.6858333 81.662533,56.8583333 81.662533,57.1375 L81.662533,57.1925 L81.0166996,57.1925 L81.0166996,57.1991667 C81.0241996,57.3766667 81.1233663,57.4891667 81.2758663,57.4891667 C81.3916996,57.4891667 81.470033,57.4466667 81.507533,57.3675 Z M82.6308663,56.9766667 L82.4858663,56.9766667 C82.462533,56.8875 82.3833663,56.815 82.2541996,56.815 C82.092533,56.815 81.9908663,56.9441667 81.9908663,57.1475 C81.9908663,57.355 82.0941996,57.4866667 82.2541996,57.4866667 C82.375033,57.4866667 82.4591996,57.4308333 82.4858663,57.3291667 L82.6308663,57.3291667 C82.605033,57.4941667 82.4708663,57.6158333 82.255033,57.6158333 C82.0033663,57.6158333 81.842533,57.4333333 81.842533,57.1475 C81.842533,56.8675 82.002533,56.6858333 82.2541996,56.6858333 C82.472533,56.6858333 82.6058663,56.8166667 82.6308663,56.9766667 Z M82.902533,56.4691667 L83.0458663,56.4691667 L83.0458663,56.7016667 L83.2458663,56.7016667 L83.2458663,56.8216667 L83.0458663,56.8216667 L83.0458663,57.33 C83.0458663,57.4358333 83.0858663,57.4808333 83.1791996,57.4808333 C83.205033,57.4808333 83.2191996,57.48 83.2458663,57.4775 L83.2458663,57.5983333 C83.217533,57.6033333 83.190033,57.6066667 83.1616996,57.6066667 C82.9766996,57.6066667 82.902533,57.5383333 82.902533,57.3666667 L82.902533,56.8216667 L82.757533,56.8216667 L82.757533,56.7016667 L82.902533,56.7016667 L82.902533,56.4691667 Z M83.8316996,57.4866667 C84.0016996,57.4866667 84.097533,57.3633333 84.097533,57.1508333 C84.097533,56.9375 84.0016996,56.815 83.8316996,56.815 C83.6616996,56.815 83.5658663,56.9375 83.5658663,57.1508333 C83.5658663,57.3633333 83.6616996,57.4866667 83.8316996,57.4866667 Z M83.8316996,57.6158333 C83.5758663,57.6158333 83.417533,57.4391667 83.417533,57.1508333 C83.417533,56.8616667 83.5758663,56.6858333 83.8316996,56.6858333 C84.087533,56.6858333 84.2458663,56.8616667 84.2458663,57.1508333 C84.2458663,57.4391667 84.087533,57.6158333 83.8316996,57.6158333 Z M84.4708663,57.6 L84.4708663,56.7016667 L84.607533,56.7016667 L84.607533,56.835 L84.6208663,56.835 C84.647533,56.7475 84.7508663,56.6858333 84.870033,56.6858333 C84.8933663,56.6858333 84.9233663,56.6875 84.9416996,56.69 L84.9416996,56.8333333 C84.930033,56.83 84.8783663,56.825 84.850033,56.825 C84.7133663,56.825 84.6141996,56.9166667 84.6141996,57.0433333 L84.6141996,57.6 L84.4708663,57.6 Z M85.5941996,56.7358333 C85.5941996,56.5225 85.7558663,56.3691667 85.9791996,56.3691667 C86.195033,56.3691667 86.360033,56.5158333 86.360033,56.7066667 C86.360033,56.8316667 86.3033663,56.9291667 86.1058663,57.1408333 L85.8166996,57.4516667 L85.8166996,57.465 L86.380033,57.465 L86.380033,57.6 L85.6016996,57.6 L85.6016996,57.4966667 L86.017533,57.0425 C86.172533,56.8741667 86.210033,56.8091667 86.210033,56.7125 C86.210033,56.5925 86.107533,56.5 85.975033,56.5 C85.8341996,56.5 85.7391996,56.5941667 85.7391996,56.7358333 L85.7391996,56.7366667 L85.5941996,56.7366667 L85.5941996,56.7358333 Z M86.6033663,57.8308333 C86.745033,57.5825 86.807533,57.36 86.807533,57.1 C86.807533,56.8291667 86.722533,56.5391667 86.6016996,56.3983333 L86.7233663,56.3983333 C86.887533,56.6083333 86.9558663,56.815 86.9558663,57.1 C86.9558663,57.3841667 86.8741996,57.65 86.7308663,57.8308333 L86.6033663,57.8308333 Z" id="S2-(Sector-2)-Copy" fill="#999999"></path>
                <path d="M30.1089913,17.51125 L30.7173246,17.51125 C30.7464913,17.755 30.9923246,17.91125 31.3464913,17.91125 C31.6735746,17.91125 31.9048246,17.7529167 31.9048246,17.5258333 C31.9048246,17.3341667 31.7548246,17.22375 31.3860746,17.1445833 L30.994408,17.06125 C30.4464913,16.9466667 30.1777413,16.66125 30.1777413,16.2029167 C30.1777413,15.63625 30.6339913,15.2633333 31.3277413,15.2633333 C31.9902413,15.2633333 32.4589913,15.6341667 32.4777413,16.1695833 L31.8860746,16.1695833 C31.856908,15.9320833 31.6360746,15.77375 31.331908,15.77375 C31.0173246,15.77375 30.8089913,15.9195833 30.8089913,16.14875 C30.8089913,16.3341667 30.9527413,16.4404167 31.3048246,16.5154167 L31.6673246,16.5925 C32.2714913,16.7195833 32.531908,16.98 32.531908,17.4466667 C32.531908,18.0529167 32.0673246,18.42375 31.313158,18.42375 C30.5964913,18.42375 30.131908,18.0716667 30.1089913,17.51125 Z M33.7985746,17.0425 L33.7985746,16.57375 L34.1652413,16.57375 C34.450658,16.57375 34.644408,16.4070833 34.644408,16.16125 C34.644408,15.9195833 34.456908,15.7654167 34.163158,15.7654167 C33.8714913,15.7654167 33.6777413,15.93 33.6610746,16.1904167 L33.0798246,16.1904167 C33.100658,15.6216667 33.5235746,15.2633333 34.1798246,15.2633333 C34.7964913,15.2633333 35.2402413,15.6008333 35.2402413,16.07375 C35.2402413,16.4216667 35.0214913,16.6925 34.6860746,16.76125 L34.6860746,16.79875 C35.0985746,16.8445833 35.356908,17.1195833 35.356908,17.5154167 C35.356908,18.0425 34.8610746,18.42375 34.175658,18.42375 C33.5048246,18.42375 33.050658,18.0529167 33.0235746,17.48625 L33.625658,17.48625 C33.644408,17.7404167 33.8589913,17.9008333 34.181908,17.9008333 C34.4964913,17.9008333 34.7152413,17.72375 34.7152413,17.4675 C34.7152413,17.205 34.5089913,17.0425 34.1714913,17.0425 L33.7985746,17.0425 Z M29.2179496,21.1375 L29.091283,21.1375 C28.9479496,20.9583333 28.866283,20.6925 28.866283,20.4066667 C28.866283,20.1216667 28.9354496,19.915 29.0996163,19.705 L29.2204496,19.705 C29.0996163,19.8466667 29.013783,20.1375 29.013783,20.4066667 C29.013783,20.6666667 29.076283,20.8891667 29.2179496,21.1375 Z M29.4196163,20.5925 L29.571283,20.5925 C29.5896163,20.7183333 29.7096163,20.7983333 29.8804496,20.7983333 C30.0421163,20.7983333 30.161283,20.7108333 30.161283,20.5916667 C30.161283,20.4891667 30.086283,20.4241667 29.9204496,20.3825 L29.766283,20.3425 C29.548783,20.2875 29.4546163,20.1891667 29.4546163,20.0183333 C29.4546163,19.8141667 29.6254496,19.6758333 29.8796163,19.6758333 C30.1121163,19.6758333 30.2854496,19.8141667 30.2979496,20.0083333 L30.1471163,20.0083333 C30.126283,19.885 30.0246163,19.8116667 29.8746163,19.8116667 C29.7146163,19.8116667 29.608783,19.8916667 29.608783,20.0133333 C29.608783,20.1075 29.6746163,20.1616667 29.8404496,20.2041667 L29.966283,20.2375 C30.2154496,20.3 30.3154496,20.3966667 30.3154496,20.5733333 C30.3154496,20.7941667 30.141283,20.935 29.866283,20.935 C29.611283,20.935 29.4354496,20.8 29.4196163,20.5925 Z M30.9046163,20.1191667 C30.761283,20.1191667 30.661283,20.2241667 30.6504496,20.3833333 L31.1454496,20.3833333 C31.1421163,20.2241667 31.0471163,20.1191667 30.9046163,20.1191667 Z M31.141283,20.6741667 L31.2846163,20.6741667 C31.241283,20.8283333 31.1029496,20.9225 30.906283,20.9225 C30.6571163,20.9225 30.501283,20.7425 30.501283,20.4583333 C30.501283,20.1758333 30.6596163,19.9925 30.906283,19.9925 C31.148783,19.9925 31.296283,20.165 31.296283,20.4441667 L31.296283,20.4991667 L30.6504496,20.4991667 L30.6504496,20.5058333 C30.6579496,20.6833333 30.7571163,20.7958333 30.9096163,20.7958333 C31.0254496,20.7958333 31.103783,20.7533333 31.141283,20.6741667 Z M32.2646163,20.2833333 L32.1196163,20.2833333 C32.096283,20.1941667 32.0171163,20.1216667 31.8879496,20.1216667 C31.726283,20.1216667 31.6246163,20.2508333 31.6246163,20.4541667 C31.6246163,20.6616667 31.7279496,20.7933333 31.8879496,20.7933333 C32.008783,20.7933333 32.0929496,20.7375 32.1196163,20.6358333 L32.2646163,20.6358333 C32.238783,20.8008333 32.1046163,20.9225 31.888783,20.9225 C31.6371163,20.9225 31.476283,20.74 31.476283,20.4541667 C31.476283,20.1741667 31.636283,19.9925 31.8879496,19.9925 C32.106283,19.9925 32.2396163,20.1233333 32.2646163,20.2833333 Z M32.536283,19.7758333 L32.6796163,19.7758333 L32.6796163,20.0083333 L32.8796163,20.0083333 L32.8796163,20.1283333 L32.6796163,20.1283333 L32.6796163,20.6366667 C32.6796163,20.7425 32.7196163,20.7875 32.8129496,20.7875 C32.838783,20.7875 32.8529496,20.7866667 32.8796163,20.7841667 L32.8796163,20.905 C32.851283,20.91 32.823783,20.9133333 32.7954496,20.9133333 C32.6104496,20.9133333 32.536283,20.845 32.536283,20.6733333 L32.536283,20.1283333 L32.391283,20.1283333 L32.391283,20.0083333 L32.536283,20.0083333 L32.536283,19.7758333 Z M33.4654496,20.7933333 C33.6354496,20.7933333 33.731283,20.67 33.731283,20.4575 C33.731283,20.2441667 33.6354496,20.1216667 33.4654496,20.1216667 C33.2954496,20.1216667 33.1996163,20.2441667 33.1996163,20.4575 C33.1996163,20.67 33.2954496,20.7933333 33.4654496,20.7933333 Z M33.4654496,20.9225 C33.2096163,20.9225 33.051283,20.7458333 33.051283,20.4575 C33.051283,20.1683333 33.2096163,19.9925 33.4654496,19.9925 C33.721283,19.9925 33.8796163,20.1683333 33.8796163,20.4575 C33.8796163,20.7458333 33.721283,20.9225 33.4654496,20.9225 Z M34.1046163,20.9066667 L34.1046163,20.0083333 L34.241283,20.0083333 L34.241283,20.1416667 L34.2546163,20.1416667 C34.281283,20.0541667 34.3846163,19.9925 34.503783,19.9925 C34.5271163,19.9925 34.5571163,19.9941667 34.5754496,19.9966667 L34.5754496,20.14 C34.563783,20.1366667 34.5121163,20.1316667 34.483783,20.1316667 C34.3471163,20.1316667 34.2479496,20.2233333 34.2479496,20.35 L34.2479496,20.9066667 L34.1046163,20.9066667 Z M35.481283,20.3525 L35.481283,20.2241667 L35.6271163,20.2241667 C35.763783,20.2241667 35.8604496,20.1358333 35.8604496,20.0108333 C35.8604496,19.8883333 35.7679496,19.8066667 35.6296163,19.8066667 C35.491283,19.8066667 35.4004496,19.8833333 35.3879496,20.0125 L35.2421163,20.0125 C35.2571163,19.8041667 35.406283,19.6758333 35.6354496,19.6758333 C35.8454496,19.6758333 36.0129496,19.8158333 36.0129496,19.9908333 C36.0129496,20.1341667 35.933783,20.2391667 35.8021163,20.2708333 L35.8021163,20.2841667 C35.9654496,20.305 36.0646163,20.4183333 36.0646163,20.5825 C36.0646163,20.7808333 35.878783,20.935 35.641283,20.935 C35.3971163,20.935 35.228783,20.7991667 35.2179496,20.5933333 L35.3629496,20.5933333 C35.376283,20.7216667 35.4846163,20.8041667 35.6396163,20.8041667 C35.7979496,20.8041667 35.9104496,20.71 35.9104496,20.5783333 C35.9104496,20.4391667 35.8046163,20.3525 35.633783,20.3525 L35.481283,20.3525 Z M36.276283,21.1375 C36.4179496,20.8891667 36.4804496,20.6666667 36.4804496,20.4066667 C36.4804496,20.1358333 36.3954496,19.8458333 36.2746163,19.705 L36.396283,19.705 C36.5604496,19.915 36.628783,20.1216667 36.628783,20.4066667 C36.628783,20.6908333 36.5471163,20.9566667 36.403783,21.1375 L36.276283,21.1375 Z" id="S3-(Sector-3)-Copy" fill="#666666"></path>
            </g>
        </g>
    </g>
</svg>