<?xml version="1.0" encoding="UTF-8"?>
<svg width="160px" height="96px" viewBox="0 0 160 96" version="1.1" xmlns="http://www.w3.org/2000/svg" xmlns:xlink="http://www.w3.org/1999/xlink">
    <!-- Generator: Sketch 58 (84663) - https://sketch.com -->
    <title>circuit-gs-Monaco-L-Eng</title>
    <desc>Created with Sketch.</desc>
    <defs>
        <linearGradient x1="50%" y1="23.3035083%" x2="50%" y2="112.667183%" id="linearGradient-1">
            <stop stop-color="#1B94E2" offset="0%"></stop>
            <stop stop-color="#40D8AB" offset="100%"></stop>
        </linearGradient>
    </defs>
    <g id="circuit-gs-Monaco-L-Eng" stroke="none" stroke-width="1" fill="none" fill-rule="evenodd">
        <g id="Monaco-Circuit">
            <g id="Group-5" transform="translate(6.400000, 9.386667)">
                <path d="M12.7182424,28.5033143 L13.1442091,28.4788852 C13.1987179,29.4293462 13.1987179,30.2018825 13.1409206,30.8178372 C12.7483577,32.9160743 12.3344688,33.832121 11.2338266,35.2372447 C10.1180131,36.6617368 7.87638949,43.4027239 7.69596456,46.4850365 C7.64047818,47.4329451 7.63794422,48.1511976 7.66530336,49.2083536 C7.71386625,51.0848222 7.64667038,51.4488464 6.98402251,51.8258626 C6.92514996,51.8758177 6.50496935,52.2308604 6.38066421,52.3366598 C6.20992967,52.4819765 6.06521137,52.606731 5.9297706,52.7257662 C4.89626484,53.6340863 4.38213689,54.2546155 4.41681789,54.6022833 C4.4650443,55.0857403 4.52848952,55.8522855 4.60724592,56.9027456 L4.18177337,56.9346447 C4.10325848,55.8874058 4.04005601,55.1237935 3.99225833,54.6446345 C3.93681606,54.0888404 4.48409169,53.4283035 5.64810634,52.4052827 C5.78544711,52.2845776 5.93179939,52.1584145 6.10412178,52.0117464 C6.22913736,51.9053423 6.64965816,51.5500122 6.739646,51.4782633 C7.23265156,51.19475 7.28286208,50.9227414 7.2387795,49.219392 C7.21113661,48.1512715 7.21370864,47.4222256 7.27002698,46.460104 C7.45522769,43.2962039 9.72442634,36.4722934 10.8979382,34.9741413 C11.9562913,33.6230054 12.3415609,32.7703011 12.718796,30.7589904 C12.7716334,30.1867518 12.7716334,29.4342845 12.7182424,28.5033143 Z" id="Path-16" fill="#E6E6E6" fill-rule="nonzero"></path>
                <path d="M137.39149,27.1241076 C138.570327,25.3656186 139.578977,24.7070221 141.152189,25.0876455 C142.298512,25.3649874 143.485213,26.1218631 146.505919,28.3503356 C147.990866,29.4458286 148.229688,31.4638411 146.653641,33.0486796 C143.997579,35.0122532 138.231126,38.8103151 129.196165,44.5792957 C122.58039,49.0055383 114.850129,50.2515955 106.598645,49.1125605 C103.575387,48.6952298 100.638844,47.9745804 97.8414439,47.0411729 C95.9322677,46.4041388 94.3956982,45.7803434 92.9961357,45.139285 C91.6814703,44.5371131 88.8347814,42.8561343 84.3296658,40.0765473 C84.1563008,39.9695589 84.1563008,39.9695589 83.9830291,39.8625335 C83.1423667,39.3431683 82.2882723,38.8132688 81.1703892,38.1181169 C80.862061,37.9263841 79.7827558,37.254945 79.8546253,37.2996499 C79.3478722,36.9844348 78.9827319,36.7574695 78.6409611,36.5453297 C76.8585313,35.4389616 75.891488,34.8489855 75.4681752,34.6141486 C73.2750056,33.3974664 72.9144151,33.353425 72.0846275,34.3257586 C70.3291104,36.382849 68.8819227,36.6087455 66.6431085,35.7881193 C64.5461145,35.0194765 63.5455813,33.8368906 63.3001201,31.2189716 C63.1615817,29.7414176 62.4418722,28.9323203 60.5265487,27.6619265 C60.0162914,27.3234835 53.6312144,22.2893517 51.5567701,20.7157174 C51.046013,20.3282667 50.5501042,19.9556775 50.0676507,19.5971482 C48.4166602,18.3702356 46.9406121,17.3207823 45.6445014,16.4603741 C42.9818855,13.8925633 40.8106686,13.8925633 38.348891,16.3076753 C34.9168435,19.3106974 32.6291213,21.3516224 31.440384,22.4722214 C30.6044511,23.2587671 30.3415111,23.7121143 30.3158803,24.1311571 C30.3012813,24.3698388 30.3144156,24.4605124 30.4839881,25.3750452 C30.506355,25.4956735 30.5253853,25.6024143 30.5429295,25.7069954 C30.9826328,27.3645715 30.886996,28.4025318 29.9406686,30.0252058 C29.6460366,30.4291016 29.4319523,30.7071325 29.2121316,30.9887166 C27.8975802,32.6726191 24.2143451,37.0354675 23.9091274,37.4473672 C23.0807795,38.4861243 22.5880117,38.9763388 21.9133504,39.2833283 C20.9654924,39.7146297 19.9961877,39.5405026 19.0063153,38.8552449 C17.8699404,38.0630367 17.3139182,38.2459343 16.6349912,39.5272782 C15.8852812,40.9422113 15.3676616,43.3735279 15.1323147,46.3402273 C15.1320549,46.7796896 15.1264414,46.8592342 15.0157361,48.3627922 C14.6756756,52.9813659 15.0935047,56.1473038 17.2917081,60.0721282 C19.5576903,65.2547486 14.9792464,67.9962535 10.9549743,64.6770551 C10.007653,64.1130806 8.5834722,63.0640654 5.99063616,61.0714159 C5.71424996,60.8589133 5.57232102,60.7496947 5.38734907,60.6072949 C5.15592241,60.4291172 5.15592241,60.4291172 4.92638266,60.2524092 C4.55353438,59.965415 4.2863768,59.7600775 4.02852868,59.5624709 C3.36798006,59.0562473 2.85389989,58.666555 2.41050574,58.3372056 C-0.640677616,56.0708126 -0.263609701,52.8286346 2.54632,51.4932201 C2.74900984,51.3563801 2.91353235,51.2305807 3.04726845,51.1115867 C3.4937499,50.7143221 3.64993555,50.3728031 3.8610488,49.3232894 C3.89909445,49.1341519 3.91521143,49.0492446 4.00476381,48.5682588 C4.29556881,44.967732 5.0393488,42.2255023 6.46695899,38.8435096 C6.68122305,38.3359204 6.90804584,37.8173916 7.21218347,37.1355153 C7.25001428,37.0506987 7.82030398,35.777575 7.98357377,35.409788 C9.35669732,32.1932554 11.9372048,28.4609145 15.5443003,24.2741587 C17.594826,21.8941134 19.9478421,19.4024242 22.5600448,16.8169082 C25.3069977,14.0980186 28.2191403,11.392313 31.3270988,8.62954282 C32.4641006,7.61882325 33.5588708,6.66082189 34.7753784,5.60769008 C35.066468,5.35569353 36.5989528,4.03366842 37.0385709,3.65171756 C38.5543079,1.95423276 40.029543,1.2779224 41.5130279,1.68581595 C42.597859,1.98409713 43.2712683,2.61761278 44.3703022,4.00927429 C44.4039044,4.05182335 44.5631806,4.25410175 44.6065472,4.30895684 C44.693995,4.41957097 44.7638913,4.50700932 44.830154,4.58839032 C45.0726598,4.88622531 45.2611622,5.09422802 45.4260472,5.24311852 C47.5685527,6.60724048 65.0467536,17.6738981 74.2360562,23.4317934 C75.3692213,24.0205973 76.4306515,24.5474095 77.7094908,25.1611962 C77.8571156,25.2320496 78.0093033,25.3048696 78.1691344,25.3811458 C78.4335966,25.5073552 80.5886544,26.5293864 81.2852075,26.8632581 C82.5926362,27.4899346 83.7933423,28.0784488 85.1388737,28.7572209 C86.7155061,29.6139218 87.9374516,30.4778904 89.9556218,32.0663529 C90.0727138,32.1585137 90.468305,32.4704778 90.5161332,32.5081581 C92.900543,34.3866556 94.1928672,35.2631688 95.9497578,36.0573735 C99.7659475,37.7137331 102.628359,37.1625375 104.563095,34.8561304 C106.366474,32.7063146 107.25111,29.1006585 106.939815,25.322456 C106.988123,21.2871959 109.352396,18.7874896 113.719002,17.9100795 C125.265081,15.9494064 132.67251,14.6900884 135.9408,14.1322094 C140.371756,13.9083477 141.658043,16.3783808 139.169944,19.9093131 C138.070575,21.1625018 137.272164,22.0394706 136.683373,22.6547194 C136.349897,23.0031799 136.264359,23.1019236 136.095644,23.3651576 C136.034053,23.4612542 135.975865,23.5623759 135.921208,23.6694452 C135.853056,23.8236013 135.78693,23.9705881 135.721143,24.1141037 C135.668498,24.22895 135.615876,24.3419998 135.56249,24.4549346 C135.299423,25.0114409 135.01751,25.567659 134.550446,26.4569445 C134.342277,26.853295 133.163756,29.0788015 132.746274,29.8708041 C132.551503,30.2302059 132.519271,30.3023354 132.499251,30.3791346 C132.10524,32.0610002 133.160179,32.5437093 134.481488,31.2678896 C135.864793,29.6669225 136.555209,28.7007362 137.39149,27.1241076 Z M45.3264932,5.17728318 C45.1581777,5.07158018 45.1745524,5.08280178 45.351125,5.19538535 L45.3264932,5.17728318 Z M47.1583922,14.3927527 C48.4724355,15.2684445 49.951065,16.3210192 51.5946111,17.5423996 C52.084059,17.9061266 52.5866776,18.2837571 53.1039482,18.6761489 C55.2617677,20.3130299 61.5341611,25.2583197 61.9415738,25.528548 C64.4502106,27.192474 65.6167809,28.5039322 65.8489409,30.9799892 C65.9977102,32.5666592 66.3145271,32.9411228 67.5241427,33.3845014 C68.8383024,33.8662002 69.1532843,33.8170336 70.137332,32.6639402 C71.1579966,31.4679397 72.3111802,30.9535362 73.6165435,31.1129693 C74.5199185,31.2233047 75.1475007,31.5087054 76.7100595,32.3755501 C77.1875927,32.6404663 78.1587006,33.2329221 79.9910385,34.3702685 C80.333641,34.5829246 80.6993892,34.8102679 81.2067749,35.1258763 C81.1350889,35.0812855 82.2141626,35.7525806 82.5222534,35.9441659 C83.6382019,36.6381148 84.4903825,37.1668269 85.3285393,37.684644 C85.5011847,37.7912827 85.5011847,37.7912827 85.6738827,37.8978594 C90.0534549,40.5999881 92.8894217,42.2746354 94.0622113,42.8118223 C95.3843157,43.4174016 96.8387809,44.0078654 98.651722,44.6127888 C101.307123,45.4988155 104.092212,46.182297 106.948708,46.5766078 C114.626219,47.6364115 121.73597,46.4903755 127.795516,42.4366257 C136.699394,36.7510024 142.411398,32.9908901 144.903107,31.1766687 C145.272226,30.7835472 145.238058,30.5962494 144.986142,30.4104025 C142.320855,28.4441346 141.209643,27.7354054 140.55019,27.5758572 C140.282081,27.5109908 140.165844,27.5816232 139.620397,28.3850719 C138.690641,30.1288786 137.888176,31.2437323 136.382085,32.9837918 C133.2621,36.0635466 128.98191,34.1697558 130.013217,29.7688099 C130.104524,29.4132443 130.209964,29.1772883 130.408464,28.8125674 C130.901045,27.8814074 132.07832,25.6582527 132.284026,25.2665904 C132.735836,24.4063496 133.003248,23.8787413 133.248051,23.3608722 C133.29713,23.2570488 133.345515,23.1531025 133.39399,23.0473523 C133.45893,22.9056834 133.524473,22.7598141 133.592622,22.6053205 C133.718544,22.3504651 133.825769,22.162515 133.940341,21.9837564 C134.105525,21.7260314 134.280221,21.4956499 134.468335,21.2784944 C134.539544,21.1962928 134.609573,21.1194789 134.685432,21.0393376 C135.386668,20.3070696 136.148775,19.4704595 137.117084,18.377896 C137.712808,17.5216364 137.908937,16.9890748 137.913763,16.8455865 C137.408081,16.6829234 136.926431,16.6430437 136.293095,16.6691006 C132.984677,17.2337494 125.603299,18.4886162 114.185617,20.4268976 C111.001842,21.0670687 109.55205,22.5798983 109.496383,25.1767389 C109.843486,29.5545419 108.795495,33.794008 106.524407,36.5013823 C103.832044,39.7109607 99.7491466,40.4971771 94.9129581,38.3979458 C92.8988012,37.4876243 91.468979,36.5178537 88.9318871,34.5190693 C88.8831886,34.4807034 88.4882492,34.1692534 88.3722999,34.077992 C86.4595972,32.572541 85.3344293,31.7769982 83.9517008,31.0249627 C82.657342,30.372665 81.471628,29.791499 80.1786924,29.1717694 C79.4879798,28.8406972 77.3356386,27.8199543 77.0665465,27.6915354 C76.9050674,27.6144727 76.7511826,27.5408406 76.6017817,27.4691348 C75.2827775,26.8360707 74.1862273,26.2915386 73.0092984,25.6793116 C62.69089,19.2191801 42.1035128,6.17619335 43.9650142,7.34522575 C43.4961832,6.96277655 43.2019746,6.64321532 42.8449828,6.20477366 C42.7698018,6.11243962 42.6927459,6.0160448 42.5983148,5.89659735 C42.5530085,5.83928874 42.3931809,5.6363101 42.3612507,5.59587825 C41.6078057,4.64182181 41.1948607,4.25334021 40.8343275,4.15420931 C40.4457358,4.04736358 39.858194,4.32225351 38.9022649,5.40850603 C38.4450033,5.82209299 36.7530389,7.28164545 36.450933,7.54317887 C35.2422839,8.58950756 34.1556362,9.54040112 33.0279185,10.5428678 C29.9517508,13.277378 27.072013,15.9529759 24.3609203,18.6363717 C21.7938923,21.1771745 19.4863406,23.6207198 17.4837684,25.9451055 C14.0334324,29.9499106 11.5879023,33.4870257 10.3308587,36.4313221 C10.1581569,36.8206834 9.58629116,38.0973255 9.55016274,38.1783254 C9.25241903,38.8458665 9.03186835,39.350057 8.82544339,39.8390754 C7.48872143,43.0057549 6.81484857,45.5009894 6.55140748,48.8375509 C6.43035206,49.5265941 6.41406214,49.6129455 6.37077712,49.8281297 C6.06027216,51.3717525 5.68581144,52.1905565 4.74897811,53.0241201 C4.49953429,53.2460671 4.21323444,53.461495 3.877393,53.6825004 C2.55344921,54.2952757 2.44086197,55.1707921 3.93700822,56.2821167 C4.39258303,56.6205138 4.91588013,57.017193 5.58573161,57.5305459 C5.84530609,57.7294756 6.11372442,57.9357821 6.48788404,58.2237856 C6.71770637,58.4007112 6.71770637,58.4007112 6.94899196,58.5787803 C7.13362355,58.7209181 7.27521195,58.8298746 7.41309685,58.9359039 C10.1180036,61.014714 11.5306942,62.0523036 12.3371592,62.5200533 C13.5660392,63.5364106 14.5556388,63.7465486 15.0379187,63.4626406 C15.4325192,63.2303475 15.5561804,62.5109645 15.0254536,61.2645159 C12.5638399,56.8451053 12.0907457,53.2258369 12.4626471,48.1748111 C12.5695714,46.7226053 12.5723266,46.6796868 12.5723266,46.2897727 C12.8347733,42.8803984 13.4168908,40.1330023 14.3729093,38.3287018 C15.7301526,35.7671666 17.9878159,35.0245322 20.4668827,36.7527879 C20.9346765,37.076623 20.9253141,37.0828836 21.8698019,35.8999555 C22.3216886,35.3070329 25.946599,31.0115633 27.1942094,29.4134102 C27.3901033,29.1624758 27.5810712,28.91474 27.767386,28.6697091 C28.3180046,27.7123414 28.338765,27.3606102 28.0548715,26.3125144 C28.0098619,26.0786624 27.990786,25.9706294 27.966892,25.8417647 C27.7453317,24.6468535 27.7272068,24.5217266 27.7606556,23.9748664 C27.8318443,22.8109895 28.417229,21.8017001 29.6852347,20.6086095 C30.9002869,19.4632031 33.1964222,17.4146099 36.5830534,14.4538775 C40.003053,11.1176727 43.7202461,11.0980206 47.1583922,14.3927527 Z" id="Path-15" fill="#EBEBEB" fill-rule="nonzero"></path>
                <path d="M137.39149,25.8441076 C138.570327,24.0856186 139.578977,23.4270221 141.152189,23.8076455 C142.298512,24.0849874 143.485213,24.8418631 146.505919,27.0703356 C147.990866,28.1658286 148.229688,30.1838411 146.653641,31.7686796 C143.997579,33.7322532 138.231126,37.5303151 129.196165,43.2992957 C122.58039,47.7255383 114.850129,48.9715955 106.598645,47.8325605 C103.575387,47.4152298 100.638844,46.6945804 97.8414439,45.7611729 C95.9322677,45.1241388 94.3956982,44.5003434 92.9961357,43.859285 C91.6814703,43.2571131 88.8347814,41.5761343 84.3296658,38.7965473 C84.1563008,38.6895589 84.1563008,38.6895589 83.9830291,38.5825335 C83.1423667,38.0631683 82.2882723,37.5332688 81.1703892,36.8381169 C80.862061,36.6463841 79.7827558,35.974945 79.8546253,36.0196499 C79.3478722,35.7044348 78.9827319,35.4774695 78.6409611,35.2653297 C76.8585313,34.1589616 75.891488,33.5689855 75.4681752,33.3341486 C73.2750056,32.1174664 72.9144151,32.073425 72.0846275,33.0457586 C70.3291104,35.102849 68.8819227,35.3287455 66.6431085,34.5081193 C64.5461145,33.7394765 63.5455813,32.5568906 63.3001201,29.9389716 C63.1615817,28.4614176 62.4418722,27.6523203 60.5265487,26.3819265 C60.0162914,26.0434835 53.6312144,21.0093517 51.5567701,19.4357174 C51.046013,19.0482667 50.5501042,18.6756775 50.0676507,18.3171482 C48.4166602,17.0902356 46.9406121,16.0407823 45.6445014,15.1803741 C42.9818855,12.6125633 40.8106686,12.6125633 38.348891,15.0276753 C34.9168435,18.0306974 32.6291213,20.0716224 31.440384,21.1922214 C30.6044511,21.9787671 30.3415111,22.4321143 30.3158803,22.8511571 C30.3012813,23.0898388 30.3144156,23.1805124 30.4839881,24.0950452 C30.506355,24.2156735 30.5253853,24.3224143 30.5429295,24.4269954 C30.9826328,26.0845715 30.886996,27.1225318 29.9406686,28.7452058 C29.6460366,29.1491016 29.4319523,29.4271325 29.2121316,29.7087166 C27.8975802,31.3926191 24.2143451,35.7554675 23.9091274,36.1673672 C23.0807795,37.2061243 22.5880117,37.6963388 21.9133504,38.0033283 C20.9654924,38.4346297 19.9961877,38.2605026 19.0063153,37.5752449 C17.8699404,36.7830367 17.3139182,36.9659343 16.6349912,38.2472782 C15.8852812,39.6622113 15.3676616,42.0935279 15.1323147,45.0602273 C15.1320549,45.4996896 15.1264414,45.5792342 15.0157361,47.0827922 C14.6756756,51.7013659 15.0935047,54.8673038 17.2917081,58.7921282 C19.5576903,63.9747486 14.9792464,66.7162535 10.9549743,63.3970551 C10.007653,62.8330806 8.5834722,61.7840654 5.99063616,59.7914159 C5.71424996,59.5789133 5.57232102,59.4696947 5.38734907,59.3272949 C5.15592241,59.1491172 5.15592241,59.1491172 4.92638266,58.9724092 C4.55353438,58.685415 4.2863768,58.4800775 4.02852868,58.2824709 C3.36798006,57.7762473 2.85389989,57.386555 2.41050574,57.0572056 C-0.640677616,54.7908126 -0.263609701,51.5486346 2.54632,50.2132201 C2.74900984,50.0763801 2.91353235,49.9505807 3.04726845,49.8315867 C3.4937499,49.4343221 3.64993555,49.0928031 3.8610488,48.0432894 C3.89909445,47.8541519 3.91521143,47.7692446 4.00476381,47.2882588 C4.29556881,43.687732 5.0393488,40.9455023 6.46695899,37.5635096 C6.68122305,37.0559204 6.90804584,36.5373916 7.21218347,35.8555153 C7.25001428,35.7706987 7.82030398,34.497575 7.98357377,34.129788 C9.35669732,30.9132554 11.9372048,27.1809145 15.5443003,22.9941587 C17.594826,20.6141134 19.9478421,18.1224242 22.5600448,15.5369082 C25.3069977,12.8180186 28.2191403,10.112313 31.3270988,7.34954282 C32.4641006,6.33882325 33.5588708,5.38082189 34.7753784,4.32769008 C35.066468,4.07569353 36.5989528,2.75366842 37.0385709,2.37171756 C38.5543079,0.674232763 40.029543,-0.00207759521 41.5130279,0.405815946 C42.597859,0.70409713 43.2712683,1.33761278 44.3703022,2.72927429 C44.4039044,2.77182335 44.5631806,2.97410175 44.6065472,3.02895684 C44.693995,3.13957097 44.7638913,3.22700932 44.830154,3.30839032 C45.0726598,3.60622531 45.2611622,3.81422802 45.4260472,3.96311852 C47.5685527,5.32724048 65.0467536,16.3938981 74.2360562,22.1517934 C75.3692213,22.7405973 76.4306515,23.2674095 77.7094908,23.8811962 C77.8571156,23.9520496 78.0093033,24.0248696 78.1691344,24.1011458 C78.4335966,24.2273552 80.5886544,25.2493864 81.2852075,25.5832581 C82.5926362,26.2099346 83.7933423,26.7984488 85.1388737,27.4772209 C86.7155061,28.3339218 87.9374516,29.1978904 89.9556218,30.7863529 C90.0727138,30.8785137 90.468305,31.1904778 90.5161332,31.2281581 C92.900543,33.1066556 94.1928672,33.9831688 95.9497578,34.7773735 C99.7659475,36.4337331 102.628359,35.8825375 104.563095,33.5761304 C106.366474,31.4263146 107.25111,27.8206585 106.939815,24.042456 C106.988123,20.0071959 109.352396,17.5074896 113.719002,16.6300795 C125.265081,14.6694064 132.67251,13.4100884 135.9408,12.8522094 C140.371756,12.6283477 141.658043,15.0983808 139.169944,18.6293131 C138.070575,19.8825018 137.272164,20.7594706 136.683373,21.3747194 C136.349897,21.7231799 136.264359,21.8219236 136.095644,22.0851576 C136.034053,22.1812542 135.975865,22.2823759 135.921208,22.3894452 C135.853056,22.5436013 135.78693,22.6905881 135.721143,22.8341037 C135.668498,22.94895 135.615876,23.0619998 135.56249,23.1749346 C135.299423,23.7314409 135.01751,24.287659 134.550446,25.1769445 C134.342277,25.573295 133.163756,27.7988015 132.746274,28.5908041 C132.551503,28.9502059 132.519271,29.0223354 132.499251,29.0991346 C132.10524,30.7810002 133.160179,31.2637093 134.481488,29.9878896 C135.864793,28.3869225 136.555209,27.4207362 137.39149,25.8441076 Z M45.3264932,3.89728318 C45.1581777,3.79158018 45.1745524,3.80280178 45.351125,3.91538535 L45.3264932,3.89728318 Z M47.1583922,13.1127527 C48.4724355,13.9884445 49.951065,15.0410192 51.5946111,16.2623996 C52.084059,16.6261266 52.5866776,17.0037571 53.1039482,17.3961489 C55.2617677,19.0330299 61.5341611,23.9783197 61.9415738,24.248548 C64.4502106,25.912474 65.6167809,27.2239322 65.8489409,29.6999892 C65.9977102,31.2866592 66.3145271,31.6611228 67.5241427,32.1045014 C68.8383024,32.5862002 69.1532843,32.5370336 70.137332,31.3839402 C71.1579966,30.1879397 72.3111802,29.6735362 73.6165435,29.8329693 C74.5199185,29.9433047 75.1475007,30.2287054 76.7100595,31.0955501 C77.1875927,31.3604663 78.1587006,31.9529221 79.9910385,33.0902685 C80.333641,33.3029246 80.6993892,33.5302679 81.2067749,33.8458763 C81.1350889,33.8012855 82.2141626,34.4725806 82.5222534,34.6641659 C83.6382019,35.3581148 84.4903825,35.8868269 85.3285393,36.404644 C85.5011847,36.5112827 85.5011847,36.5112827 85.6738827,36.6178594 C90.0534549,39.3199881 92.8894217,40.9946354 94.0622113,41.5318223 C95.3843157,42.1374016 96.8387809,42.7278654 98.651722,43.3327888 C101.307123,44.2188155 104.092212,44.902297 106.948708,45.2966078 C114.626219,46.3564115 121.73597,45.2103755 127.795516,41.1566257 C136.699394,35.4710024 142.411398,31.7108901 144.903107,29.8966687 C145.272226,29.5035472 145.238058,29.3162494 144.986142,29.1304025 C142.320855,27.1641346 141.209643,26.4554054 140.55019,26.2958572 C140.282081,26.2309908 140.165844,26.3016232 139.620397,27.1050719 C138.690641,28.8488786 137.888176,29.9637323 136.382085,31.7037918 C133.2621,34.7835466 128.98191,32.8897558 130.013217,28.4888099 C130.104524,28.1332443 130.209964,27.8972883 130.408464,27.5325674 C130.901045,26.6014074 132.07832,24.3782527 132.284026,23.9865904 C132.735836,23.1263496 133.003248,22.5987413 133.248051,22.0808722 C133.29713,21.9770488 133.345515,21.8731025 133.39399,21.7673523 C133.45893,21.6256834 133.524473,21.4798141 133.592622,21.3253205 C133.718544,21.0704651 133.825769,20.882515 133.940341,20.7037564 C134.105525,20.4460314 134.280221,20.2156499 134.468335,19.9984944 C134.539544,19.9162928 134.609573,19.8394789 134.685432,19.7593376 C135.386668,19.0270696 136.148775,18.1904595 137.117084,17.097896 C137.712808,16.2416364 137.908937,15.7090748 137.913763,15.5655865 C137.408081,15.4029234 136.926431,15.3630437 136.293095,15.3891006 C132.984677,15.9537494 125.603299,17.2086162 114.185617,19.1468976 C111.001842,19.7870687 109.55205,21.2998983 109.496383,23.8967389 C109.843486,28.2745419 108.795495,32.514008 106.524407,35.2213823 C103.832044,38.4309607 99.7491466,39.2171771 94.9129581,37.1179458 C92.8988012,36.2076243 91.468979,35.2378537 88.9318871,33.2390693 C88.8831886,33.2007034 88.4882492,32.8892534 88.3722999,32.797992 C86.4595972,31.292541 85.3344293,30.4969982 83.9517008,29.7449627 C82.657342,29.092665 81.471628,28.511499 80.1786924,27.8917694 C79.4879798,27.5606972 77.3356386,26.5399543 77.0665465,26.4115354 C76.9050674,26.3344727 76.7511826,26.2608406 76.6017817,26.1891348 C75.2827775,25.5560707 74.1862273,25.0115386 73.0092984,24.3993116 C62.69089,17.9391801 42.1035128,4.89619335 43.9650142,6.06522575 C43.4961832,5.68277655 43.2019746,5.36321532 42.8449828,4.92477366 C42.7698018,4.83243962 42.6927459,4.7360448 42.5983148,4.61659735 C42.5530085,4.55928874 42.3931809,4.3563101 42.3612507,4.31587825 C41.6078057,3.36182181 41.1948607,2.97334021 40.8343275,2.87420931 C40.4457358,2.76736358 39.858194,3.04225351 38.9022649,4.12850603 C38.4450033,4.54209299 36.7530389,6.00164545 36.450933,6.26317887 C35.2422839,7.30950756 34.1556362,8.26040112 33.0279185,9.26286777 C29.9517508,11.997378 27.072013,14.6729759 24.3609203,17.3563717 C21.7938923,19.8971745 19.4863406,22.3407198 17.4837684,24.6651055 C14.0334324,28.6699106 11.5879023,32.2070257 10.3308587,35.1513221 C10.1581569,35.5406834 9.58629116,36.8173255 9.55016274,36.8983254 C9.25241903,37.5658665 9.03186835,38.070057 8.82544339,38.5590754 C7.48872143,41.7257549 6.81484857,44.2209894 6.55140748,47.5575509 C6.43035206,48.2465941 6.41406214,48.3329455 6.37077712,48.5481297 C6.06027216,50.0917525 5.68581144,50.9105565 4.74897811,51.7441201 C4.49953429,51.9660671 4.21323444,52.181495 3.877393,52.4025004 C2.55344921,53.0152757 2.44086197,53.8907921 3.93700822,55.0021167 C4.39258303,55.3405138 4.91588013,55.737193 5.58573161,56.2505459 C5.84530609,56.4494756 6.11372442,56.6557821 6.48788404,56.9437856 C6.71770637,57.1207112 6.71770637,57.1207112 6.94899196,57.2987803 C7.13362355,57.4409181 7.27521195,57.5498746 7.41309685,57.6559039 C10.1180036,59.734714 11.5306942,60.7723036 12.3371592,61.2400533 C13.5660392,62.2564106 14.5556388,62.4665486 15.0379187,62.1826406 C15.4325192,61.9503475 15.5561804,61.2309645 15.0254536,59.9845159 C12.5638399,55.5651053 12.0907457,51.9458369 12.4626471,46.8948111 C12.5695714,45.4426053 12.5723266,45.3996868 12.5723266,45.0097727 C12.8347733,41.6003984 13.4168908,38.8530023 14.3729093,37.0487018 C15.7301526,34.4871666 17.9878159,33.7445322 20.4668827,35.4727879 C20.9346765,35.796623 20.9253141,35.8028836 21.8698019,34.6199555 C22.3216886,34.0270329 25.946599,29.7315633 27.1942094,28.1334102 C27.3901033,27.8824758 27.5810712,27.63474 27.767386,27.3897091 C28.3180046,26.4323414 28.338765,26.0806102 28.0548715,25.0325144 C28.0098619,24.7986624 27.990786,24.6906294 27.966892,24.5617647 C27.7453317,23.3668535 27.7272068,23.2417266 27.7606556,22.6948664 C27.8318443,21.5309895 28.417229,20.5217001 29.6852347,19.3286095 C30.9002869,18.1832031 33.1964222,16.1346099 36.5830534,13.1738775 C40.003053,9.83767266 43.7202461,9.81802057 47.1583922,13.1127527 Z" id="Path-15" fill="#F2F2F2" fill-rule="nonzero"></path>
                <path d="M137.956878,26.1440025 C139.791894,23.4203178 140.816156,23.6681282 146.125975,27.5853523 C147.306133,28.4559926 147.491098,30.0189264 146.199836,31.3173916 C143.634628,33.2047915 137.874463,36.9987118 128.840282,42.7673678 C122.369285,47.0967476 114.794151,48.3177995 106.686161,47.1985723 C103.704593,46.7869966 100.805914,46.0756392 98.0440134,45.1540769 C96.158896,44.5250704 94.6428526,43.9096079 93.2626546,43.2774194 C91.9834581,42.6914937 89.1394498,41.0120978 84.66572,38.2518753 C84.4925218,38.1449899 84.4925218,38.1449899 84.3194067,38.0380611 C83.4793706,37.5190829 82.6257547,36.9894803 81.5083552,36.2946292 C81.2000864,36.1029332 80.1208391,35.4315301 80.1926627,35.4762065 C79.6857514,35.1608931 79.3204592,34.9338333 78.9784804,34.7215644 C77.1835736,33.6074518 76.2155142,33.0168557 75.7786462,32.774499 C73.3469839,31.4255106 72.6940303,31.3457609 71.5978036,32.630304 C70.0351539,34.4613951 68.8710177,34.6431092 66.8633671,33.9072148 C64.9882176,33.2198881 64.1586136,32.2393327 63.9373253,29.879226 C63.7753815,28.1520463 62.9439568,27.2173587 60.880305,25.8485819 C60.3957588,25.5271926 54.0388528,20.5152712 51.9435646,18.9258253 C51.4311791,18.5371393 50.9335929,18.1632898 50.4493908,17.8034611 C48.790011,16.570314 47.3051499,15.5145948 45.9984648,14.6471669 C43.1801191,11.9117027 40.6111886,11.9117027 37.8737142,14.5958054 C34.4897891,17.5539535 32.1977194,19.5987571 31.0018141,20.7261137 C30.0576455,21.6145004 29.7140944,22.2068331 29.6770741,22.8120844 C29.6577627,23.1278107 29.6721446,23.2270977 29.8547141,24.2117251 C29.8785822,24.34045 29.8984316,24.4522865 29.9166598,24.5623383 C30.3239712,26.0817271 30.2475547,26.948587 29.3878156,28.4227874 C29.1379655,28.7599064 28.9256852,29.0355945 28.707651,29.31489 C27.405345,30.9831066 23.7149674,35.3544154 23.3808313,35.8046413 C21.876132,37.6891237 20.92223,38.1231753 19.3723215,37.0502311 C17.8994092,36.0234106 16.9179768,36.3462424 16.0694707,37.9476341 C15.2672398,39.4616903 14.7330335,41.9768495 14.4923239,45.0348626 C14.4922145,45.4734032 14.4882247,45.5314838 14.3774638,47.035797 C14.0290327,51.7680573 14.4621367,55.0497348 16.7333225,59.104867 C18.686158,63.5770072 14.8771053,65.8420486 11.3246711,62.8721734 C10.4109416,62.3344826 8.98793519,61.287736 6.38062481,59.2839625 C6.10449046,59.0716536 5.96264665,58.9625006 5.77775979,58.8201662 C5.5463684,58.6420157 5.5463684,58.6420157 5.31675801,58.4652533 C4.94358189,58.1780068 4.67610912,57.972427 4.41782941,57.7744896 C3.75495508,57.2664837 3.23857067,56.8750447 2.79213136,56.5434334 C0.120069336,54.5586485 0.44336912,51.8924073 2.86232231,50.7718881 C3.10647461,50.6092431 3.30680626,50.4573232 3.47269586,50.30972 C4.04176528,49.8033807 4.2525197,49.3425405 4.48848088,48.1694994 C4.52825315,47.9717784 4.54435965,47.8866691 4.64004457,47.3726752 C4.92302032,43.8297793 5.64944694,41.1458839 7.05658009,37.812401 C7.26888438,37.3094545 7.49413914,36.7945103 7.79667829,36.1162178 C7.8340835,36.0323554 8.40476722,34.7583521 8.57218315,34.3810627 C9.91449857,31.2366979 12.4612617,27.5531636 16.0291673,23.4118954 C18.0677046,21.045765 20.4093546,18.5661118 23.0102636,15.9917741 C25.7482515,13.2817579 28.652293,10.5835792 31.7523038,7.82787406 C32.8869845,6.81921772 33.9797241,5.86299331 35.194267,4.81156228 C35.4913325,4.55439237 37.093795,3.17202209 37.4894222,2.82780276 C38.8693363,1.27126715 40.1277445,0.688675113 41.3433528,1.02291429 C42.2471094,1.2714079 42.8554027,1.84366504 43.8680393,3.12592528 C43.9012235,3.16794504 44.0606376,3.3703985 44.1044891,3.42586697 C44.1936827,3.53868942 44.2653689,3.62836689 44.3338612,3.71248615 C44.614027,4.0565735 44.8334841,4.29630747 45.0394479,4.4756629 C46.9641802,5.70207817 64.6638788,16.9094347 73.9180587,22.7077973 C75.066407,23.3048257 76.1394171,23.8375273 77.4325636,24.4581808 C77.5806323,24.5292473 77.7332443,24.6022704 77.8934874,24.6787432 C78.1591071,24.805505 80.3134858,25.8272141 81.0085787,26.1603859 C82.3123841,26.7853257 83.5093422,27.3720028 84.8333105,28.0395653 C86.3702369,28.8746909 87.567988,29.7215531 89.5597913,31.2892627 C89.6765977,31.3811987 90.0720259,31.6930342 90.1200717,31.7308859 C92.542652,33.6394551 93.8693507,34.5392827 95.6949424,35.3644588 C99.7617473,37.1295941 102.929281,36.5196433 105.053423,33.9874434 C106.976517,31.6949146 107.90177,27.9237122 107.577653,23.9899029 C107.623768,20.335977 109.758871,18.0785679 113.826148,17.2610467 C125.372421,15.3003407 132.779949,14.0410061 136.048487,13.4830846 C139.861705,13.2937934 140.832757,15.1584857 138.646783,18.2606635 C137.596455,19.4525407 136.803081,20.3239769 136.220992,20.9322222 C135.859337,21.3101283 135.755063,21.4304995 135.556818,21.7398073 C135.478313,21.8622941 135.404618,21.9914702 135.349307,22.1002142 C135.277526,22.2629418 135.20822,22.417185 135.139355,22.5674158 C135.087752,22.6799881 135.036189,22.790762 134.98388,22.901419 C134.725379,23.448266 134.447092,23.9973317 133.983841,24.879356 C133.776288,25.2745344 132.598078,27.499453 132.180115,28.2923691 C131.966118,28.6869765 131.915584,28.8000626 131.876123,28.9531539 C131.323691,31.3112487 133.186987,32.144331 134.947455,30.427492 C136.372084,28.7801765 137.091911,27.7747116 137.956878,26.1440025 Z M44.9861235,4.43926882 C44.8175384,4.33339651 44.8339445,4.34463933 45.0107924,4.45739831 L44.9861235,4.43926882 Z M46.7559338,13.6136733 C48.0715637,14.4887751 49.5575248,15.5459372 51.212871,16.7760868 C51.7005703,17.1385143 52.2015114,17.5148845 52.7171537,17.906041 C54.8541294,19.5271104 61.1546937,24.4946107 61.5878176,24.7818926 C63.948126,26.3474355 65.0029811,27.5333036 65.2117357,29.7597348 C65.384678,31.6042171 65.872424,32.1807112 67.3038842,32.7054059 C68.8492075,33.2718365 69.4472408,33.1784874 70.6241559,31.7993948 C71.5122302,30.7587617 72.4591537,30.3363652 73.5389524,30.4682484 C74.3271952,30.564522 74.9172355,30.83285 76.3995884,31.6551998 C76.8635665,31.9125961 77.8336582,32.504432 79.6535191,33.6340338 C79.9959137,33.8465608 80.36151,34.0738096 80.8687375,34.3893197 C80.7970056,34.3447004 81.8761372,35.0160315 82.1842874,35.2076537 C83.3007195,35.9019033 84.1533785,36.4309122 84.9921618,36.9491164 C85.1649637,37.0558517 85.1649637,37.0558517 85.3378285,37.1625313 C89.7487866,39.8840247 92.5874338,41.5602548 93.7956924,42.113688 C95.1371613,42.728137 96.6121526,43.3269337 98.4491525,43.9398848 C101.140053,44.8377567 103.963006,45.5305302 106.861192,45.930596 C114.682196,47.0102075 121.947075,45.8391662 128.139958,41.6960328 C137.109841,35.9682616 142.843256,32.1929848 145.325734,30.3805784 C146.011363,29.6685906 145.927679,29.0296906 145.366086,28.6153858 C140.611823,25.108013 140.26567,25.0119804 139.071487,26.7742297 C138.159876,28.4884174 137.383853,29.5684704 135.898174,31.2849477 C133.241217,33.9056562 129.761889,32.3662104 130.633106,28.6479916 C130.70821,28.3555171 130.795348,28.1605177 130.970601,27.8385124 C131.466722,26.9007559 132.644309,24.6770133 132.850631,24.2841789 C133.306255,23.416677 133.577292,22.8819162 133.826661,22.3543878 C133.876816,22.2482865 133.926261,22.1420644 133.975778,22.0340402 C134.042027,21.8895172 134.108824,21.7408567 134.191492,21.5553386 C134.280569,21.3774668 134.376617,21.209108 134.479167,21.0491067 C134.626918,20.8185806 134.783204,20.6124768 134.952072,20.4175396 C135.016597,20.3430535 135.080435,20.2730304 135.150228,20.1992971 C135.860383,19.457724 136.635746,18.6063112 137.620737,17.4945259 C139.171669,15.2838483 138.833537,14.6315482 136.225361,14.7514064 C132.936888,15.3126911 125.542069,16.5698552 114.059456,18.5194558 C110.583564,19.2183635 108.906369,20.9816144 108.85589,23.9161592 C109.198124,28.1500173 108.191277,32.2384639 106.034079,34.8100693 C103.531123,37.7938549 99.7533468,38.5213161 95.1765425,36.5347449 C93.2223177,35.6515104 91.82687,34.7050542 89.3279486,32.7363415 C89.2794677,32.698147 88.8843654,32.3865685 88.7681303,32.2950822 C86.8290608,30.7688783 85.6796985,29.9562291 84.239724,29.1734361 C82.9413421,28.519111 81.75188,27.9361079 80.4553212,27.3146416 C79.7631485,26.9828695 77.6101281,25.9618045 77.3421934,25.833938 C77.1811264,25.7570719 77.0276658,25.6836429 76.878709,25.6121501 C75.5654842,24.9818599 74.474911,24.4402959 73.3046492,23.8315371 C63.0324184,17.39792 42.445421,4.35517384 44.305384,5.5232401 C43.9471265,5.22625874 43.6759792,4.93174608 43.3412756,4.52067782 C43.2683241,4.43108204 43.1930581,4.33692634 43.1003729,4.21968723 C43.0555515,4.16299199 42.8958617,3.96018841 42.8635136,3.91922726 C42.0236714,2.85576956 41.5456103,2.40602944 41.0040026,2.25711097 C40.3369499,2.07370061 39.5228,2.45461238 38.4218141,3.70569748 C38.025879,4.05842046 36.3353356,5.51674714 36.0320443,5.77930667 C34.8214306,6.82733614 33.7327523,7.78000665 32.6027136,8.78453654 C29.5185982,11.5261117 26.6307592,14.2092366 23.9107014,16.9015058 C21.3323797,19.453487 19.013462,21.9090682 16.9989014,24.2473688 C13.5093755,28.2976616 11.0301011,31.8835831 9.74582564,34.8918298 C9.5736937,35.2799063 9.00222194,36.5556688 8.96566793,36.6376229 C8.66632573,37.3087478 8.44420703,37.8165228 8.23582229,38.310184 C6.87414166,41.5359903 6.18270481,44.0962612 5.91339309,47.5071759 C5.80191019,48.1254428 5.78573787,48.2111708 5.74334504,48.4219196 C5.45768801,49.8420152 5.13779606,50.5414979 4.3235507,51.2659868 C4.09893926,51.4658387 3.83698861,51.6629449 3.52557499,51.8678752 C1.85158472,52.6290152 1.66127096,54.108959 3.5553826,55.515889 C4.00791225,55.8520241 4.52890512,56.2469565 5.19643088,56.7585272 C5.45557377,56.9571261 5.72367691,57.1631903 6.09750869,57.4509415 C6.32726038,57.6278127 6.32726038,57.6278127 6.55858124,57.8059089 C6.74329792,57.9481123 6.88497145,58.0571343 7.02296534,58.1632473 C9.75706769,60.2644949 11.1745094,61.3055742 12.0160596,61.7936733 C14.7052574,64.0626572 16.9208681,62.7698299 15.6005494,59.7017342 C13.1973548,55.3990567 12.7365543,51.890476 13.1009194,46.9418064 C13.209815,45.4628263 13.2123266,45.4237023 13.2123266,45.0097727 C13.4665668,41.7304072 14.0329526,39.0572595 14.9384297,37.3483459 C16.126094,35.1068585 17.958347,34.5041583 20.1026051,35.9990026 C20.9316944,36.5729481 21.2422022,36.4316586 22.366489,35.024272 C22.7162119,34.5523112 26.4208747,30.1640814 27.69869,28.5272368 C27.9048279,28.26318 28.1056179,28.0025562 28.301376,27.7447926 C28.9632309,26.6014196 29.0019506,26.0810654 28.6726113,24.8651898 C28.6406727,24.690477 28.6208333,24.57812 28.596166,24.4450849 C28.3876027,23.3202682 28.3707255,23.2037546 28.3994618,22.7339391 C28.459261,21.7562707 28.9640345,20.8859669 30.1242395,19.7943077 C31.3349157,18.6530264 33.6356805,16.6004659 37.0042985,13.657102 C40.1977835,10.524153 43.5462904,10.5100454 46.7559338,13.6136733 Z" id="Path-15" fill="url(#linearGradient-1)" fill-rule="nonzero"></path>
                <path d="M3.70841764,50.0781748 L4.65411042,50.9407669 C4.36510709,51.2576123 4.00146785,51.5547069 3.52557499,51.8678752 C1.85158472,52.6290152 1.66127096,54.108959 3.5553826,55.515889 C4.00791225,55.8520241 4.52890512,56.2469565 5.19643088,56.7585272 C5.45557377,56.9571261 5.72367691,57.1631903 6.09750869,57.4509415 C6.32726038,57.6278127 6.32726038,57.6278127 6.55858124,57.8059089 C6.74329792,57.9481123 6.88497145,58.0571343 7.02296534,58.1632473 C7.0917823,58.2161608 7.0917823,58.2161608 7.16060209,58.2690559 C9.75706769,60.2644949 11.1745094,61.3055742 12.0160596,61.7936733 C14.7052574,64.0626572 16.9208681,62.7698299 15.6005494,59.7017342 C13.1973548,55.3990567 12.7365543,51.890476 13.1009194,46.9418064 C13.209815,45.4628263 13.2123266,45.4237023 13.2123266,45.0097727 C13.4665668,41.7304072 14.0329526,39.0572595 14.9384297,37.3483459 C16.126094,35.1068585 17.958347,34.5041583 20.1026051,35.9990026 C20.9316944,36.5729481 21.2422022,36.4316586 22.366489,35.024272 C22.7162119,34.5523112 26.4208747,30.1640814 27.69869,28.5272368 C27.9048279,28.26318 28.1056179,28.0025562 28.301376,27.7447926 C28.9632309,26.6014196 29.0019506,26.0810654 28.6726113,24.8651898 C28.6406727,24.690477 28.6208333,24.57812 28.596166,24.4450849 C28.3876027,23.3202682 28.3707255,23.2037546 28.3994618,22.7339391 C28.459261,21.7562707 28.9640345,20.8859669 30.1242395,19.7943077 C31.2636253,18.7202305 33.3680312,16.8394585 36.4417148,14.1479278 L37.2849658,15.1109064 C34.2225612,17.7925604 32.126903,19.6655143 31.0018141,20.7261137 C30.0576455,21.6145004 29.7140944,22.2068331 29.6770741,22.8120844 C29.6577627,23.1278107 29.6721446,23.2270977 29.8547141,24.2117251 C29.8785822,24.34045 29.8984316,24.4522865 29.9166598,24.5623383 C30.3239712,26.0817271 30.2475547,26.948587 29.3878156,28.4227874 C29.1379655,28.7599064 28.9256852,29.0355945 28.707651,29.31489 C27.405345,30.9831066 23.7149674,35.3544154 23.3808313,35.8046413 C21.876132,37.6891237 20.92223,38.1231753 19.3723215,37.0502311 C17.8994092,36.0234106 16.9179768,36.3462424 16.0694707,37.9476341 C15.2672398,39.4616903 14.7330335,41.9768495 14.4923239,45.0348626 C14.4922145,45.4734032 14.4882247,45.5314838 14.3774638,47.035797 C14.0290327,51.7680573 14.4621367,55.0497348 16.7333225,59.104867 C18.686158,63.5770072 14.8771053,65.8420486 11.3246711,62.8721734 C10.4109416,62.3344826 8.98793519,61.287736 6.38062481,59.2839625 C6.3116529,59.2309505 6.3116529,59.2309505 6.24270233,59.1779343 C6.10449046,59.0716536 5.96264665,58.9625006 5.77775979,58.8201662 C5.5463684,58.6420157 5.5463684,58.6420157 5.31675801,58.4652533 C4.94358189,58.1780068 4.67610912,57.972427 4.41782941,57.7744896 C3.75495508,57.2664837 3.23857067,56.8750447 2.79213136,56.5434334 C0.120068871,54.5586481 0.443369232,51.8924063 2.86232357,50.7718875 C3.23452541,50.5239452 3.50564926,50.3004775 3.70841764,50.0781748 Z" id="Path" fill-opacity="0.37" fill="#000000" fill-rule="nonzero"></path>
                <path d="M36.6631794,3.54318688 L37.4994091,4.51226892 C31.6667463,9.54532634 28.2373716,12.6190376 23.9107014,16.9015058 C21.722653,19.0672008 19.7194605,21.1655457 17.9287044,23.1841174 L16.9711895,22.3346674 C18.781608,20.293932 20.8036077,18.1758865 23.0102636,15.9917741 C27.3637518,11.6827618 30.8093637,8.59449737 36.6631794,3.54318688 Z" id="Path" fill="#FFB819" fill-rule="nonzero"></path>
                <path d="M7.05658009,37.812401 C7.26888438,37.3094545 7.49413914,36.7945103 7.79667829,36.1162178 C7.8340835,36.0323554 8.40476722,34.7583521 8.57218315,34.3810627 C10.0465535,30.9273603 12.9708321,26.8271362 17.0980817,22.1918955 L18.0540448,23.0430915 C14.011063,27.5836925 11.1579127,31.5841852 9.74582564,34.8918298 C9.5736937,35.2799063 9.00222194,36.5556688 8.96566793,36.6376229 C8.66632573,37.3087478 8.44420703,37.8165228 8.23582229,38.310184 C6.87414166,41.5359903 6.18270481,44.0962612 5.91339309,47.5071759 C5.80191019,48.1254428 5.78573787,48.2111708 5.74334504,48.4219196 C5.5154009,49.5551053 5.28600437,50.1731143 4.79849017,50.7731995 L3.8050197,49.9660958 C4.13212243,49.5634624 4.29794088,49.1167368 4.48848088,48.1694994 C4.52825315,47.9717784 4.54435965,47.8866691 4.64004457,47.3726752 C4.92302032,43.8297793 5.64944694,41.1458839 7.05658009,37.812401 Z" id="Path" fill="#FF9219" fill-rule="nonzero"></path>
                <path d="M137.956878,26.1440025 C139.791894,23.4203178 140.816156,23.6681282 146.125975,27.5853523 C147.306133,28.4559926 147.491098,30.0189264 146.199836,31.3173916 C143.634628,33.2047915 137.874463,36.9987118 128.840282,42.7673678 C122.369285,47.0967476 114.794151,48.3177995 106.686161,47.1985723 C103.704593,46.7869966 100.805914,46.0756392 98.0440134,45.1540769 C96.158896,44.5250704 94.6428526,43.9096079 93.2626546,43.2774194 C91.9834581,42.6914937 89.1394498,41.0120978 84.66572,38.2518753 C84.4925218,38.1449899 84.4925218,38.1449899 84.3194067,38.0380611 C83.4793706,37.5190829 82.6257547,36.9894803 81.5083552,36.2946292 C81.2000864,36.1029332 80.1208391,35.4315301 80.1926627,35.4762065 C79.6857514,35.1608931 79.3204592,34.9338333 78.9784804,34.7215644 C77.1835736,33.6074518 76.2155142,33.0168557 75.7786462,32.774499 C73.3469839,31.4255106 72.6940303,31.3457609 71.5978036,32.630304 C70.0351539,34.4613951 68.8710177,34.6431092 66.8633671,33.9072148 C64.9882176,33.2198881 64.1586136,32.2393327 63.9373253,29.879226 C63.7753815,28.1520463 62.9439568,27.2173587 60.880305,25.8485819 C60.3957588,25.5271926 54.0388528,20.5152712 51.9435646,18.9258253 C51.4311791,18.5371393 50.9335929,18.1632898 50.4493908,17.8034611 C48.790011,16.570314 47.3051499,15.5145948 45.9984648,14.6471669 C43.1801191,11.9117027 40.6111886,11.9117027 37.8738277,14.5957062 C37.5715372,14.8600871 37.3473414,15.0562623 37.2012891,15.1841889 L36.3579145,14.2213186 C36.5042557,14.0931389 36.7286559,13.8967848 37.0042985,13.657102 C40.1977835,10.524153 43.5462904,10.5100454 46.7559338,13.6136733 C48.0715637,14.4887751 49.5575248,15.5459372 51.212871,16.7760868 C51.7005703,17.1385143 52.2015114,17.5148845 52.7171537,17.906041 C54.8541294,19.5271104 61.1546937,24.4946107 61.5878176,24.7818926 C63.948126,26.3474355 65.0029811,27.5333036 65.2117357,29.7597348 C65.384678,31.6042171 65.872424,32.1807112 67.3038842,32.7054059 C68.8492075,33.2718365 69.4472408,33.1784874 70.6241559,31.7993948 C71.5122302,30.7587617 72.4591537,30.3363652 73.5389524,30.4682484 C74.3271952,30.564522 74.9172355,30.83285 76.3995884,31.6551998 C76.8635665,31.9125961 77.8336582,32.504432 79.6535191,33.6340338 C79.9959137,33.8465608 80.36151,34.0738096 80.8687375,34.3893197 C80.7970056,34.3447004 81.8761372,35.0160315 82.1842874,35.2076537 C83.3007195,35.9019033 84.1533785,36.4309122 84.9921618,36.9491164 C85.1649637,37.0558517 85.1649637,37.0558517 85.3378285,37.1625313 C89.7487866,39.8840247 92.5874338,41.5602548 93.7956924,42.113688 C95.1371613,42.728137 96.6121526,43.3269337 98.4491525,43.9398848 C101.140053,44.8377567 103.963006,45.5305302 106.861192,45.930596 C114.682196,47.0102075 121.947075,45.8391662 128.139958,41.6960328 C137.109841,35.9682616 142.843256,32.1929848 145.325734,30.3805784 C146.011363,29.6685906 145.927679,29.0296906 145.366086,28.6153858 C140.611823,25.108013 140.26567,25.0119804 139.071487,26.7742297 C138.159876,28.4884174 137.383853,29.5684704 135.898174,31.2849477 C133.241217,33.9056562 129.761889,32.3662104 130.633106,28.6479916 C130.70821,28.3555171 130.795348,28.1605177 130.970601,27.8385124 C131.018547,27.7504112 131.033481,27.7226556 131.047796,27.695499 C131.466722,26.9007559 132.644309,24.6770133 132.850631,24.2841789 C133.306255,23.416677 133.577292,22.8819162 133.826661,22.3543878 C133.876816,22.2482865 133.926261,22.1420644 133.975778,22.0340402 C134.042027,21.8895172 134.108824,21.7408567 134.191492,21.5553386 C134.280569,21.3774668 134.376617,21.209108 134.479167,21.0491067 C134.626918,20.8185806 134.783204,20.6124768 134.952072,20.4175396 C135.016597,20.3430535 135.080435,20.2730304 135.150228,20.1992971 C135.189273,20.1580482 135.29964,20.0436638 135.29623,20.0472278 C135.860383,19.457724 136.635746,18.6063112 137.620737,17.4945259 C139.171669,15.2838483 138.833537,14.6315482 136.225361,14.7514064 C135.00817,14.9591596 133.228454,15.2622408 130.886172,15.6606571 L130.67153,14.3987819 C133.038406,13.9961824 134.830738,13.6909475 136.048487,13.4830846 C139.861705,13.2937934 140.832757,15.1584857 138.646783,18.2606635 C137.596455,19.4525407 136.803081,20.3239769 136.220992,20.9322222 C135.859337,21.3101283 135.755063,21.4304995 135.556818,21.7398073 C135.478313,21.8622941 135.404618,21.9914702 135.349307,22.1002142 C135.277526,22.2629418 135.20822,22.417185 135.139355,22.5674158 C135.087752,22.6799881 135.036189,22.790762 134.98388,22.901419 C134.725379,23.448266 134.447092,23.9973317 133.983841,24.879356 C133.776288,25.2745344 132.598078,27.499453 132.180115,28.2923691 C132.162712,28.3253842 132.145434,28.3574949 132.121738,28.401066 C131.966118,28.6869765 131.915584,28.8000626 131.876123,28.9531539 C131.323691,31.3112487 133.186987,32.144331 134.947455,30.427492 C136.372084,28.7801765 137.091911,27.7747116 137.956878,26.1440025 Z" id="Path" fill-opacity="0.2" fill="#000000" fill-rule="nonzero"></path>
                <path d="M71.401283,5.13791667 L72.0096163,5.13791667 C72.038783,5.38166667 72.2846163,5.53791667 72.638783,5.53791667 C72.9658663,5.53791667 73.1971163,5.37958333 73.1971163,5.1525 C73.1971163,4.96083333 73.0471163,4.85041667 72.6783663,4.77125 L72.2866996,4.68791667 C71.738783,4.57333333 71.470033,4.28791667 71.470033,3.82958333 C71.470033,3.26291667 71.926283,2.89 72.620033,2.89 C73.282533,2.89 73.751283,3.26083333 73.770033,3.79625 L73.1783663,3.79625 C73.1491996,3.55875 72.9283663,3.40041667 72.6241996,3.40041667 C72.3096163,3.40041667 72.101283,3.54625 72.101283,3.77541667 C72.101283,3.96083333 72.245033,4.06708333 72.5971163,4.14208333 L72.9596163,4.21916667 C73.563783,4.34625 73.8241996,4.60666667 73.8241996,5.07333333 C73.8241996,5.67958333 73.3596163,6.05041667 72.6054496,6.05041667 C71.888783,6.05041667 71.4241996,5.69833333 71.401283,5.13791667 Z M75.0846163,5.97333333 L75.0846163,3.57958333 L75.0471163,3.57958333 L74.3096163,4.08791667 L74.3096163,3.5025 L75.0866996,2.96708333 L75.713783,2.96708333 L75.713783,5.97333333 L75.0846163,5.97333333 Z M70.315033,8.76416667 L70.1883663,8.76416667 C70.045033,8.585 69.9633663,8.31916667 69.9633663,8.03333333 C69.9633663,7.74833333 70.032533,7.54166667 70.1966996,7.33166667 L70.317533,7.33166667 C70.1966996,7.47333333 70.1108663,7.76416667 70.1108663,8.03333333 C70.1108663,8.29333333 70.1733663,8.51583333 70.315033,8.76416667 Z M70.5166996,8.21916667 L70.6683663,8.21916667 C70.6866996,8.345 70.8066996,8.425 70.977533,8.425 C71.1391996,8.425 71.2583663,8.3375 71.2583663,8.21833333 C71.2583663,8.11583333 71.1833663,8.05083333 71.017533,8.00916667 L70.8633663,7.96916667 C70.6458663,7.91416667 70.5516996,7.81583333 70.5516996,7.645 C70.5516996,7.44083333 70.722533,7.3025 70.9766996,7.3025 C71.2091996,7.3025 71.382533,7.44083333 71.395033,7.635 L71.2441996,7.635 C71.2233663,7.51166667 71.1216996,7.43833333 70.9716996,7.43833333 C70.8116996,7.43833333 70.7058663,7.51833333 70.7058663,7.64 C70.7058663,7.73416667 70.7716996,7.78833333 70.937533,7.83083333 L71.0633663,7.86416667 C71.312533,7.92666667 71.412533,8.02333333 71.412533,8.2 C71.412533,8.42083333 71.2383663,8.56166667 70.9633663,8.56166667 C70.7083663,8.56166667 70.532533,8.42666667 70.5166996,8.21916667 Z M72.0016996,7.74583333 C71.8583663,7.74583333 71.7583663,7.85083333 71.747533,8.01 L72.242533,8.01 C72.2391996,7.85083333 72.1441996,7.74583333 72.0016996,7.74583333 Z M72.2383663,8.30083333 L72.3816996,8.30083333 C72.3383663,8.455 72.200033,8.54916667 72.0033663,8.54916667 C71.7541996,8.54916667 71.5983663,8.36916667 71.5983663,8.085 C71.5983663,7.8025 71.7566996,7.61916667 72.0033663,7.61916667 C72.2458663,7.61916667 72.3933663,7.79166667 72.3933663,8.07083333 L72.3933663,8.12583333 L71.747533,8.12583333 L71.747533,8.1325 C71.755033,8.31 71.8541996,8.4225 72.0066996,8.4225 C72.122533,8.4225 72.2008663,8.38 72.2383663,8.30083333 Z M73.3616996,7.91 L73.2166996,7.91 C73.1933663,7.82083333 73.1141996,7.74833333 72.985033,7.74833333 C72.8233663,7.74833333 72.7216996,7.8775 72.7216996,8.08083333 C72.7216996,8.28833333 72.825033,8.42 72.985033,8.42 C73.1058663,8.42 73.190033,8.36416667 73.2166996,8.2625 L73.3616996,8.2625 C73.3358663,8.4275 73.2016996,8.54916667 72.9858663,8.54916667 C72.7341996,8.54916667 72.5733663,8.36666667 72.5733663,8.08083333 C72.5733663,7.80083333 72.7333663,7.61916667 72.985033,7.61916667 C73.2033663,7.61916667 73.3366996,7.75 73.3616996,7.91 Z M73.6333663,7.4025 L73.7766996,7.4025 L73.7766996,7.635 L73.9766996,7.635 L73.9766996,7.755 L73.7766996,7.755 L73.7766996,8.26333333 C73.7766996,8.36916667 73.8166996,8.41416667 73.910033,8.41416667 C73.9358663,8.41416667 73.950033,8.41333333 73.9766996,8.41083333 L73.9766996,8.53166667 C73.9483663,8.53666667 73.9208663,8.54 73.892533,8.54 C73.707533,8.54 73.6333663,8.47166667 73.6333663,8.3 L73.6333663,7.755 L73.4883663,7.755 L73.4883663,7.635 L73.6333663,7.635 L73.6333663,7.4025 Z M74.562533,8.42 C74.732533,8.42 74.8283663,8.29666667 74.8283663,8.08416667 C74.8283663,7.87083333 74.732533,7.74833333 74.562533,7.74833333 C74.392533,7.74833333 74.2966996,7.87083333 74.2966996,8.08416667 C74.2966996,8.29666667 74.392533,8.42 74.562533,8.42 Z M74.562533,8.54916667 C74.3066996,8.54916667 74.1483663,8.3725 74.1483663,8.08416667 C74.1483663,7.795 74.3066996,7.61916667 74.562533,7.61916667 C74.8183663,7.61916667 74.9766996,7.795 74.9766996,8.08416667 C74.9766996,8.3725 74.8183663,8.54916667 74.562533,8.54916667 Z M75.2016996,8.53333333 L75.2016996,7.635 L75.3383663,7.635 L75.3383663,7.76833333 L75.3516996,7.76833333 C75.3783663,7.68083333 75.4816996,7.61916667 75.6008663,7.61916667 C75.6241996,7.61916667 75.6541996,7.62083333 75.672533,7.62333333 L75.672533,7.76666667 C75.6608663,7.76333333 75.6091996,7.75833333 75.5808663,7.75833333 C75.4441996,7.75833333 75.345033,7.85 75.345033,7.97666667 L75.345033,8.53333333 L75.2016996,8.53333333 Z M76.620033,8.53333333 L76.620033,7.4975 L76.6066996,7.4975 L76.3008663,7.71916667 L76.3008663,7.56083333 L76.6208663,7.33083333 L76.770033,7.33083333 L76.770033,8.53333333 L76.620033,8.53333333 Z M77.0991996,8.76416667 C77.2408663,8.51583333 77.3033663,8.29333333 77.3033663,8.03333333 C77.3033663,7.7625 77.2183663,7.4725 77.097533,7.33166667 L77.2191996,7.33166667 C77.3833663,7.54166667 77.4516996,7.74833333 77.4516996,8.03333333 C77.4516996,8.3175 77.370033,8.58333333 77.2266996,8.76416667 L77.0991996,8.76416667 Z" id="S1-(Sector-1)-Copy" fill="#C6C6C6"></path>
                <path d="M71.123158,50.79125 L71.7314913,50.79125 C71.760658,51.035 72.0064913,51.19125 72.360658,51.19125 C72.6877413,51.19125 72.9189913,51.0329167 72.9189913,50.8058333 C72.9189913,50.6141667 72.7689913,50.50375 72.4002413,50.4245833 L72.0085746,50.34125 C71.460658,50.2266667 71.191908,49.94125 71.191908,49.4829167 C71.191908,48.91625 71.648158,48.5433333 72.341908,48.5433333 C73.004408,48.5433333 73.473158,48.9141667 73.491908,49.4495833 L72.9002413,49.4495833 C72.8710746,49.2120833 72.6502413,49.05375 72.3460746,49.05375 C72.0314913,49.05375 71.823158,49.1995833 71.823158,49.42875 C71.823158,49.6141667 71.966908,49.7204167 72.3189913,49.7954167 L72.6814913,49.8725 C73.285658,49.9995833 73.5460746,50.26 73.5460746,50.7266667 C73.5460746,51.3329167 73.0814913,51.70375 72.3273246,51.70375 C71.610658,51.70375 71.1460746,51.3516667 71.123158,50.79125 Z M74.0439913,49.5204167 C74.0439913,48.9391667 74.4898246,48.5433333 75.1398246,48.5433333 C75.766908,48.5433333 76.204408,48.90375 76.204408,49.4204167 C76.204408,49.7475 76.0273246,50.02875 75.5064913,50.5183333 L74.9314913,51.06625 L74.9314913,51.10375 L76.248158,51.10375 L76.248158,51.6266667 L74.079408,51.6266667 L74.079408,51.1870833 L75.060658,50.2266667 C75.4835746,49.8141667 75.5898246,49.6579167 75.5898246,49.4620833 C75.5898246,49.2204167 75.3939913,49.0495833 75.1189913,49.0495833 C74.8273246,49.0495833 74.6273246,49.24125 74.6273246,49.5183333 L74.6273246,49.5308333 L74.0439913,49.5308333 L74.0439913,49.5204167 Z M70.197533,54.4175 L70.0708663,54.4175 C69.927533,54.2383333 69.8458663,53.9725 69.8458663,53.6866667 C69.8458663,53.4016667 69.915033,53.195 70.0791996,52.985 L70.200033,52.985 C70.0791996,53.1266667 69.9933663,53.4175 69.9933663,53.6866667 C69.9933663,53.9466667 70.0558663,54.1691667 70.197533,54.4175 Z M70.3991996,53.8725 L70.5508663,53.8725 C70.5691996,53.9983333 70.6891996,54.0783333 70.860033,54.0783333 C71.0216996,54.0783333 71.1408663,53.9908333 71.1408663,53.8716667 C71.1408663,53.7691667 71.0658663,53.7041667 70.900033,53.6625 L70.7458663,53.6225 C70.5283663,53.5675 70.4341996,53.4691667 70.4341996,53.2983333 C70.4341996,53.0941667 70.605033,52.9558333 70.8591996,52.9558333 C71.0916996,52.9558333 71.265033,53.0941667 71.277533,53.2883333 L71.1266996,53.2883333 C71.1058663,53.165 71.0041996,53.0916667 70.8541996,53.0916667 C70.6941996,53.0916667 70.5883663,53.1716667 70.5883663,53.2933333 C70.5883663,53.3875 70.6541996,53.4416667 70.820033,53.4841667 L70.9458663,53.5175 C71.195033,53.58 71.295033,53.6766667 71.295033,53.8533333 C71.295033,54.0741667 71.1208663,54.215 70.8458663,54.215 C70.5908663,54.215 70.415033,54.08 70.3991996,53.8725 Z M71.8841996,53.3991667 C71.7408663,53.3991667 71.6408663,53.5041667 71.630033,53.6633333 L72.125033,53.6633333 C72.1216996,53.5041667 72.0266996,53.3991667 71.8841996,53.3991667 Z M72.1208663,53.9541667 L72.2641996,53.9541667 C72.2208663,54.1083333 72.082533,54.2025 71.8858663,54.2025 C71.6366996,54.2025 71.4808663,54.0225 71.4808663,53.7383333 C71.4808663,53.4558333 71.6391996,53.2725 71.8858663,53.2725 C72.1283663,53.2725 72.2758663,53.445 72.2758663,53.7241667 L72.2758663,53.7791667 L71.630033,53.7791667 L71.630033,53.7858333 C71.637533,53.9633333 71.7366996,54.0758333 71.8891996,54.0758333 C72.005033,54.0758333 72.0833663,54.0333333 72.1208663,53.9541667 Z M73.2441996,53.5633333 L73.0991996,53.5633333 C73.0758663,53.4741667 72.9966996,53.4016667 72.867533,53.4016667 C72.7058663,53.4016667 72.6041996,53.5308333 72.6041996,53.7341667 C72.6041996,53.9416667 72.707533,54.0733333 72.867533,54.0733333 C72.9883663,54.0733333 73.072533,54.0175 73.0991996,53.9158333 L73.2441996,53.9158333 C73.2183663,54.0808333 73.0841996,54.2025 72.8683663,54.2025 C72.6166996,54.2025 72.4558663,54.02 72.4558663,53.7341667 C72.4558663,53.4541667 72.6158663,53.2725 72.867533,53.2725 C73.0858663,53.2725 73.2191996,53.4033333 73.2441996,53.5633333 Z M73.5158663,53.0558333 L73.6591996,53.0558333 L73.6591996,53.2883333 L73.8591996,53.2883333 L73.8591996,53.4083333 L73.6591996,53.4083333 L73.6591996,53.9166667 C73.6591996,54.0225 73.6991996,54.0675 73.792533,54.0675 C73.8183663,54.0675 73.832533,54.0666667 73.8591996,54.0641667 L73.8591996,54.185 C73.8308663,54.19 73.8033663,54.1933333 73.775033,54.1933333 C73.590033,54.1933333 73.5158663,54.125 73.5158663,53.9533333 L73.5158663,53.4083333 L73.3708663,53.4083333 L73.3708663,53.2883333 L73.5158663,53.2883333 L73.5158663,53.0558333 Z M74.445033,54.0733333 C74.615033,54.0733333 74.7108663,53.95 74.7108663,53.7375 C74.7108663,53.5241667 74.615033,53.4016667 74.445033,53.4016667 C74.275033,53.4016667 74.1791996,53.5241667 74.1791996,53.7375 C74.1791996,53.95 74.275033,54.0733333 74.445033,54.0733333 Z M74.445033,54.2025 C74.1891996,54.2025 74.0308663,54.0258333 74.0308663,53.7375 C74.0308663,53.4483333 74.1891996,53.2725 74.445033,53.2725 C74.7008663,53.2725 74.8591996,53.4483333 74.8591996,53.7375 C74.8591996,54.0258333 74.7008663,54.2025 74.445033,54.2025 Z M75.0841996,54.1866667 L75.0841996,53.2883333 L75.2208663,53.2883333 L75.2208663,53.4216667 L75.2341996,53.4216667 C75.2608663,53.3341667 75.3641996,53.2725 75.4833663,53.2725 C75.5066996,53.2725 75.5366996,53.2741667 75.555033,53.2766667 L75.555033,53.42 C75.5433663,53.4166667 75.4916996,53.4116667 75.4633663,53.4116667 C75.3266996,53.4116667 75.227533,53.5033333 75.227533,53.63 L75.227533,54.1866667 L75.0841996,54.1866667 Z M76.207533,53.3225 C76.207533,53.1091667 76.3691996,52.9558333 76.592533,52.9558333 C76.8083663,52.9558333 76.9733663,53.1025 76.9733663,53.2933333 C76.9733663,53.4183333 76.9166996,53.5158333 76.7191996,53.7275 L76.430033,54.0383333 L76.430033,54.0516667 L76.9933663,54.0516667 L76.9933663,54.1866667 L76.215033,54.1866667 L76.215033,54.0833333 L76.6308663,53.6291667 C76.7858663,53.4608333 76.8233663,53.3958333 76.8233663,53.2991667 C76.8233663,53.1791667 76.7208663,53.0866667 76.5883663,53.0866667 C76.447533,53.0866667 76.352533,53.1808333 76.352533,53.3225 L76.352533,53.3233333 L76.207533,53.3233333 L76.207533,53.3225 Z M77.2166996,54.4175 C77.3583663,54.1691667 77.4208663,53.9466667 77.4208663,53.6866667 C77.4208663,53.4158333 77.3358663,53.1258333 77.215033,52.985 L77.3366996,52.985 C77.5008663,53.195 77.5691996,53.4016667 77.5691996,53.6866667 C77.5691996,53.9708333 77.487533,54.2366667 77.3441996,54.4175 L77.2166996,54.4175 Z" id="S2-(Sector-2)-Copy" fill="#999999"></path>
                <path d="M6.21565797,73.4045833 L6.82399131,73.4045833 C6.85315797,73.6483333 7.09899131,73.8045833 7.45315797,73.8045833 C7.78024131,73.8045833 8.01149131,73.64625 8.01149131,73.4191667 C8.01149131,73.2275 7.86149131,73.1170833 7.49274131,73.0379167 L7.10107464,72.9545833 C6.55315797,72.84 6.28440797,72.5545833 6.28440797,72.09625 C6.28440797,71.5295833 6.74065797,71.1566667 7.43440797,71.1566667 C8.09690797,71.1566667 8.56565797,71.5275 8.58440797,72.0629167 L7.99274131,72.0629167 C7.96357464,71.8254167 7.74274131,71.6670833 7.43857464,71.6670833 C7.12399131,71.6670833 6.91565797,71.8129167 6.91565797,72.0420833 C6.91565797,72.2275 7.05940797,72.33375 7.41149131,72.40875 L7.77399131,72.4858333 C8.37815797,72.6129167 8.63857464,72.8733333 8.63857464,73.34 C8.63857464,73.94625 8.17399131,74.3170833 7.41982464,74.3170833 C6.70315797,74.3170833 6.23857464,73.965 6.21565797,73.4045833 Z M9.90524131,72.9358333 L9.90524131,72.4670833 L10.271908,72.4670833 C10.5573246,72.4670833 10.7510746,72.3004167 10.7510746,72.0545833 C10.7510746,71.8129167 10.5635746,71.65875 10.2698246,71.65875 C9.97815797,71.65875 9.78440797,71.8233333 9.76774131,72.08375 L9.18649131,72.08375 C9.20732464,71.515 9.63024131,71.1566667 10.2864913,71.1566667 C10.903158,71.1566667 11.346908,71.4941667 11.346908,71.9670833 C11.346908,72.315 11.128158,72.5858333 10.7927413,72.6545833 L10.7927413,72.6920833 C11.2052413,72.7379167 11.4635746,73.0129167 11.4635746,73.40875 C11.4635746,73.9358333 10.9677413,74.3170833 10.2823246,74.3170833 C9.61149131,74.3170833 9.15732464,73.94625 9.13024131,73.3795833 L9.73232464,73.3795833 C9.75107464,73.63375 9.96565797,73.7941667 10.2885746,73.7941667 C10.603158,73.7941667 10.821908,73.6170833 10.821908,73.3608333 C10.821908,73.0983333 10.615658,72.9358333 10.278158,72.9358333 L9.90524131,72.9358333 Z M5.32461631,77.0308333 L5.19794964,77.0308333 C5.05461631,76.8516667 4.97294964,76.5858333 4.97294964,76.3 C4.97294964,76.015 5.04211631,75.8083333 5.20628297,75.5983333 L5.32711631,75.5983333 C5.20628297,75.74 5.12044964,76.0308333 5.12044964,76.3 C5.12044964,76.56 5.18294964,76.7825 5.32461631,77.0308333 Z M5.52628297,76.4858333 L5.67794964,76.4858333 C5.69628297,76.6116667 5.81628297,76.6916667 5.98711631,76.6916667 C6.14878297,76.6916667 6.26794964,76.6041667 6.26794964,76.485 C6.26794964,76.3825 6.19294964,76.3175 6.02711631,76.2758333 L5.87294964,76.2358333 C5.65544964,76.1808333 5.56128297,76.0825 5.56128297,75.9116667 C5.56128297,75.7075 5.73211631,75.5691667 5.98628297,75.5691667 C6.21878297,75.5691667 6.39211631,75.7075 6.40461631,75.9016667 L6.25378297,75.9016667 C6.23294964,75.7783333 6.13128297,75.705 5.98128297,75.705 C5.82128297,75.705 5.71544964,75.785 5.71544964,75.9066667 C5.71544964,76.0008333 5.78128297,76.055 5.94711631,76.0975 L6.07294964,76.1308333 C6.32211631,76.1933333 6.42211631,76.29 6.42211631,76.4666667 C6.42211631,76.6875 6.24794964,76.8283333 5.97294964,76.8283333 C5.71794964,76.8283333 5.54211631,76.6933333 5.52628297,76.4858333 Z M7.01128297,76.0125 C6.86794964,76.0125 6.76794964,76.1175 6.75711631,76.2766667 L7.25211631,76.2766667 C7.24878297,76.1175 7.15378297,76.0125 7.01128297,76.0125 Z M7.24794964,76.5675 L7.39128297,76.5675 C7.34794964,76.7216667 7.20961631,76.8158333 7.01294964,76.8158333 C6.76378297,76.8158333 6.60794964,76.6358333 6.60794964,76.3516667 C6.60794964,76.0691667 6.76628297,75.8858333 7.01294964,75.8858333 C7.25544964,75.8858333 7.40294964,76.0583333 7.40294964,76.3375 L7.40294964,76.3925 L6.75711631,76.3925 L6.75711631,76.3991667 C6.76461631,76.5766667 6.86378297,76.6891667 7.01628297,76.6891667 C7.13211631,76.6891667 7.21044964,76.6466667 7.24794964,76.5675 Z M8.37128297,76.1766667 L8.22628297,76.1766667 C8.20294964,76.0875 8.12378297,76.015 7.99461631,76.015 C7.83294964,76.015 7.73128297,76.1441667 7.73128297,76.3475 C7.73128297,76.555 7.83461631,76.6866667 7.99461631,76.6866667 C8.11544964,76.6866667 8.19961631,76.6308333 8.22628297,76.5291667 L8.37128297,76.5291667 C8.34544964,76.6941667 8.21128297,76.8158333 7.99544964,76.8158333 C7.74378297,76.8158333 7.58294964,76.6333333 7.58294964,76.3475 C7.58294964,76.0675 7.74294964,75.8858333 7.99461631,75.8858333 C8.21294964,75.8858333 8.34628297,76.0166667 8.37128297,76.1766667 Z M8.64294964,75.6691667 L8.78628297,75.6691667 L8.78628297,75.9016667 L8.98628297,75.9016667 L8.98628297,76.0216667 L8.78628297,76.0216667 L8.78628297,76.53 C8.78628297,76.6358333 8.82628297,76.6808333 8.91961631,76.6808333 C8.94544964,76.6808333 8.95961631,76.68 8.98628297,76.6775 L8.98628297,76.7983333 C8.95794964,76.8033333 8.93044964,76.8066667 8.90211631,76.8066667 C8.71711631,76.8066667 8.64294964,76.7383333 8.64294964,76.5666667 L8.64294964,76.0216667 L8.49794964,76.0216667 L8.49794964,75.9016667 L8.64294964,75.9016667 L8.64294964,75.6691667 Z M9.57211631,76.6866667 C9.74211631,76.6866667 9.83794964,76.5633333 9.83794964,76.3508333 C9.83794964,76.1375 9.74211631,76.015 9.57211631,76.015 C9.40211631,76.015 9.30628297,76.1375 9.30628297,76.3508333 C9.30628297,76.5633333 9.40211631,76.6866667 9.57211631,76.6866667 Z M9.57211631,76.8158333 C9.31628297,76.8158333 9.15794964,76.6391667 9.15794964,76.3508333 C9.15794964,76.0616667 9.31628297,75.8858333 9.57211631,75.8858333 C9.82794964,75.8858333 9.98628297,76.0616667 9.98628297,76.3508333 C9.98628297,76.6391667 9.82794964,76.8158333 9.57211631,76.8158333 Z M10.211283,76.8 L10.211283,75.9016667 L10.3479496,75.9016667 L10.3479496,76.035 L10.361283,76.035 C10.3879496,75.9475 10.491283,75.8858333 10.6104496,75.8858333 C10.633783,75.8858333 10.663783,75.8875 10.6821163,75.89 L10.6821163,76.0333333 C10.6704496,76.03 10.618783,76.025 10.5904496,76.025 C10.453783,76.025 10.3546163,76.1166667 10.3546163,76.2433333 L10.3546163,76.8 L10.211283,76.8 Z M11.5879496,76.2458333 L11.5879496,76.1175 L11.733783,76.1175 C11.8704496,76.1175 11.9671163,76.0291667 11.9671163,75.9041667 C11.9671163,75.7816667 11.8746163,75.7 11.736283,75.7 C11.5979496,75.7 11.5071163,75.7766667 11.4946163,75.9058333 L11.348783,75.9058333 C11.363783,75.6975 11.5129496,75.5691667 11.7421163,75.5691667 C11.9521163,75.5691667 12.1196163,75.7091667 12.1196163,75.8841667 C12.1196163,76.0275 12.0404496,76.1325 11.908783,76.1641667 L11.908783,76.1775 C12.0721163,76.1983333 12.171283,76.3116667 12.171283,76.4758333 C12.171283,76.6741667 11.9854496,76.8283333 11.7479496,76.8283333 C11.503783,76.8283333 11.3354496,76.6925 11.3246163,76.4866667 L11.4696163,76.4866667 C11.4829496,76.615 11.591283,76.6975 11.746283,76.6975 C11.9046163,76.6975 12.0171163,76.6033333 12.0171163,76.4716667 C12.0171163,76.3325 11.911283,76.2458333 11.7404496,76.2458333 L11.5879496,76.2458333 Z M12.3829496,77.0308333 C12.5246163,76.7825 12.5871163,76.56 12.5871163,76.3 C12.5871163,76.0291667 12.5021163,75.7391667 12.381283,75.5983333 L12.5029496,75.5983333 C12.6671163,75.8083333 12.7354496,76.015 12.7354496,76.3 C12.7354496,76.5841667 12.653783,76.85 12.5104496,77.0308333 L12.3829496,77.0308333 Z" id="S3-(Sector-3)-Copy" fill="#666666"></path>
                <g id="Group-Copy-15" transform="translate(87.040000, 38.400000)">
                    <circle id="Oval-Copy-2" fill-opacity="0.7" fill="#FFFFFF" cx="2.56" cy="2.56" r="2.56"></circle>
                    <circle id="Oval-Copy-2" fill-opacity="0.2" fill="#D0021B" cx="2.56" cy="2.56" r="2.56"></circle>
                    <circle id="Oval" stroke="#D0021B" stroke-width="0.5" fill="#FFFFFF" cx="2.56" cy="2.56" r="1.70666667"></circle>
                    <circle id="Oval-Copy" fill="#D0021B" cx="2.56" cy="2.56" r="1"></circle>
                </g>
                <g id="Group-Copy-8" transform="translate(11.093333, 48.640000)">
                    <circle id="Oval-Copy-2" fill-opacity="0.7" fill="#FFFFFF" cx="2.56" cy="2.56" r="2.56"></circle>
                    <circle id="Oval-Copy-2" fill-opacity="0.2" fill="#FFB819" cx="2.56" cy="2.56" r="2.56"></circle>
                    <circle id="Oval" stroke="#FFB819" stroke-width="0.5" fill="#FFFFFF" cx="2.56" cy="2.56" r="1.70666667"></circle>
                    <circle id="Oval-Copy" fill="#FFB819" cx="2.56" cy="2.56" r="1"></circle>
                </g>
                <g id="Group-6" transform="translate(17.999401, 22.298327) rotate(41.000000) translate(-17.999401, -22.298327) translate(16.932734, 21.231660)">
                    <rect id="Rectangle-2" fill="#000000" x="0" y="0" width="1" height="1"></rect>
                    <rect id="Rectangle-2-Copy-4" fill="#FFFFFF" x="0" y="0.64" width="1" height="1"></rect>
                    <rect id="Rectangle-2-Copy-7" fill="#000000" x="0" y="1.28" width="1" height="1"></rect>
                    <rect id="Rectangle-2-Copy" fill="#FFFFFF" x="0.64" y="0" width="1" height="1"></rect>
                    <rect id="Rectangle-2-Copy-5" fill="#000000" x="0.64" y="0.64" width="1" height="1"></rect>
                    <rect id="Rectangle-2-Copy-9" fill="#FFFFFF" x="0.64" y="1.28" width="1" height="1"></rect>
                    <rect id="Rectangle-2-Copy-3" fill="#000000" x="1.28" y="0" width="1" height="1"></rect>
                    <rect id="Rectangle-2-Copy-6" fill="#FFFFFF" x="1.28" y="0.64" width="1" height="1"></rect>
                    <rect id="Rectangle-2-Copy-10" fill="#000000" x="1.28" y="1.28" width="1" height="1"></rect>
                </g>
            </g>
        </g>
    </g>
</svg>