<svg xmlns="http://www.w3.org/2000/svg" xmlns:xlink="http://www.w3.org/1999/xlink" viewBox="0 0 320 192"><defs><style>.cls-1{fill:#f2f2f2;}.cls-2{fill:#ebebeb;}.cls-3{fill:#ffa019;}.cls-4{fill:url(#linear-gradient);}.cls-5{opacity:0.37;}.cls-6{opacity:0.2;}.cls-7{fill:#ff9219;}.cls-10,.cls-8{fill:#fff;}.cls-8{fill-opacity:0.7;}.cls-11,.cls-9{fill:#ffb819;}.cls-12,.cls-9{fill-opacity:0.2;}.cls-12,.cls-13{fill:#d0021b;}</style><linearGradient id="linear-gradient" x1="160.85" y1="42.68" x2="160.85" y2="155.34" gradientUnits="userSpaceOnUse"><stop offset="0" stop-color="#1b94e2"/><stop offset="1" stop-color="#40d8ab"/></linearGradient></defs><g id="Track"><path class="cls-1" d="M306.09,72a6.5,6.5,0,0,1-1.54-.87c-.37-1,.53-4.65,2.69-10.88l.15-.46c.67-1.93.62-3.51-.14-4.7S305,53.18,302.87,53c-2.6-.26-5.25-.33-7.81-.4-1.19,0-2.38-.06-3.56-.11q-20.49-.89-41-1.72l-1.95-.08L188,48.16l-62.9-2.58-22.62-.93c-15.72-.65-32-1.33-48-1.94l-.55,0c-1.82,0-3.88.11-5.33,1.61-1.89,2-1.46,5-.1,7,1.65,2.32,4,3.71,6.23,5,.6.36,1.2.72,1.79,1.09l1.79,1.19a28.07,28.07,0,0,0,7.7,4c5.79,1.71,11.54.32,15.35-1.14a39.77,39.77,0,0,0,6.81-3.68,34.79,34.79,0,0,1,6.44-3.45,33.68,33.68,0,0,1,12.53-1.59c12.44.37,17.36,3.35,17.45,3.41.58.34,57.88,34.21,66.39,39.16,7.14,4.16,6.92,5.37,6.62,7,0,.18-.07.37-.09.55-.28,1.2-5,4.52-7,5.94a36.27,36.27,0,0,0-3.2,2.39c-2.45,2.27-2.33,6.44-2.23,7.66,0,.2.05.48.09.82.32,2.44,1.07,8.17-3.11,13.08-5,5.82-16.08,8.41-24.83,8.89-7.26.4-11.35-1.41-15.68-3.32-1-.45-2-.91-3.13-1.34-5-2-29.63-16.82-38.69-22.36-6.14-3.76-15.52-5.54-23.46.73-6.89,5.46-10,5.64-13.94,5.87-3.19.18-4.85-1.15-6.61-2.57q-.48-.39-1-.75a23.34,23.34,0,0,1-3.16-3.07,34.11,34.11,0,0,0-2.82-2.82c-2.59-2.18-6.6-3.18-9.5-3.63a25.26,25.26,0,0,0-18.54,4.26c-4.51,3.27-7.33,7.8-7.73,12.43-.47,5.55,3,10.95,7.84,12.3,3.08.85,6.39.34,9.58-.15a41.93,41.93,0,0,1,4.55-.53c4.74-.18,9.92,1.54,13.34,2.68a31.51,31.51,0,0,0,3.43,1l.27.05c2.59.5,4.63.89,11.26,1.64a136.14,136.14,0,0,0,19.78.29c3.22-.11,6.56-.23,9.78-.21,3.56,0,7.28-.19,10.88-.37,8.74-.46,17.79-.93,25.94,1.4a65.72,65.72,0,0,1,9.83,4,66.84,66.84,0,0,0,10,4.14,94.37,94.37,0,0,0,20.87,3.81c1.35.08,2.69.11,4,.11,3.51,0,6.91-.23,9.9-.48l2.9-.2a50.27,50.27,0,0,0,10.07-1.32c26.66-7.46,53.64-17.77,82.48-31.5,7.16-3.41,11.17-6,12.62-8.18,2.07-3.1-1.29-5.41-4.84-7.87-.61-.42-1.25-.86-1.92-1.34s-1.05-.74-1.56-1.08c-3.18-2.17-5.28-3.6-5.2-7.73a7.18,7.18,0,0,1,1.25-4.3,6.65,6.65,0,0,1,3.68-2.16,24.62,24.62,0,0,1,7.06-.29,26.86,26.86,0,0,0,7.63-.34c4.69-1.1,8.61-9.19,10.07-12.61C309.53,73.57,307.21,72.51,306.09,72Zm-8.28,13.86a24.66,24.66,0,0,1-6.86.27,27,27,0,0,0-7.85.37,9.3,9.3,0,0,0-5.22,3.15,9.87,9.87,0,0,0-1.82,5.93c-.12,5.62,3.05,7.78,6.41,10.07l1.5,1c.68.49,1.34,1,2,1.37,3.18,2.2,4.62,3.31,4.12,4.06-1.13,1.7-5,4.13-11.52,7.23-28.7,13.66-55.53,23.91-82,31.33a48.45,48.45,0,0,1-9.51,1.23c-1,.06-2,.12-3,.2a97.21,97.21,0,0,1-13.54.36,91.42,91.42,0,0,1-20.25-3.7,65.49,65.49,0,0,1-9.61-4,66.27,66.27,0,0,0-10.26-4.2,57.64,57.64,0,0,0-15.91-1.89c-3.65,0-7.32.19-10.94.38s-7.24.38-10.72.37c-3.28,0-6.63.1-9.88.21a133.26,133.26,0,0,1-19.38-.28c-6.52-.74-8.52-1.12-11-1.6l-.27-.05a32,32,0,0,1-3.08-.93c-3.61-1.2-9.06-3-14.31-2.82a45.52,45.52,0,0,0-4.86.56c-2.91.45-5.92.91-8.43.22-3.57-1-6.19-5.21-5.83-9.4.33-3.84,2.74-7.64,6.6-10.43a22.43,22.43,0,0,1,16.5-3.77c2.55.4,6,1.24,8.14,3a28.4,28.4,0,0,1,2.56,2.58,26.14,26.14,0,0,0,3.55,3.41l.88.69c1.89,1.53,4.26,3.43,8.5,3.18,4.78-.28,8.45-.89,15.5-6.46,6.81-5.39,15-3.82,20.29-.55.33.2,32.87,20.11,39.13,22.58,1,.4,2,.83,3,1.29,4.43,2,9,4,16.94,3.55,9.33-.51,21.26-3.36,26.79-9.85,5-5.84,4.07-12.66,3.74-15.23,0-.28-.07-.5-.08-.67-.14-1.79.13-4.29,1.36-5.43.47-.44,1.66-1.27,2.91-2.15,4.57-3.21,7.84-5.65,8.17-7.76l.09-.49c.54-3,.27-5.13-7.95-9.91-8.5-5-65.8-38.82-66.34-39.13-.21-.14-5.48-3.43-18.81-3.82a36.44,36.44,0,0,0-13.56,1.75,38.67,38.67,0,0,0-7,3.71,37.78,37.78,0,0,1-6.33,3.44C77,60.21,71.84,61.46,66.79,60a25.28,25.28,0,0,1-6.94-3.7L58,55.06c-.61-.39-1.24-.77-1.87-1.14-2.1-1.25-4.08-2.42-5.4-4.27-.7-1-1-2.59-.15-3.43s2-.8,3.27-.77h.51c16,.62,32.25,1.29,48,1.95l22.62.93,62.89,2.57,60.61,2.5,2,.08q20.47.85,41,1.71c1.2.06,2.4.09,3.61.12,2.51.07,5.11.14,7.61.39,1.23.12,2,.42,2.33.87a3,3,0,0,1-.15,2.31l-.15.46c-2.69,7.77-3.75,12-2.08,13.68a7.89,7.89,0,0,0,2.39,1.48,9.72,9.72,0,0,1,1,.49C303.91,79.63,300.61,85.21,297.81,85.86Z"/><path class="cls-1" d="M174.37,156.72c-1.42,0-2.8,0-4.1-.11a94.88,94.88,0,0,1-21.18-3.87,68.47,68.47,0,0,1-10.24-4.21,64,64,0,0,0-9.61-4c-7.93-2.27-16.85-1.8-25.47-1.35l-.57,0c-3.44.18-7,.37-10.41.35-3,0-6.19.09-9.24.19l-.48,0a137.58,137.58,0,0,1-20-.3c-6.68-.76-8.74-1.15-11.36-1.65l-.28,0a32.46,32.46,0,0,1-3.58-1.06c-3.38-1.12-8.41-2.8-12.88-2.62a39.81,39.81,0,0,0-4.38.52c-3.34.51-6.8,1-10.16.11-5.5-1.52-9.39-7.56-8.85-13.75.43-5,3.45-9.93,8.29-13.42a26.61,26.61,0,0,1,19.56-4.51c3.08.48,7.34,1.55,10.18,3.94a31.16,31.16,0,0,1,2.93,2.93,22.45,22.45,0,0,0,3,2.9c.33.25.66.52,1,.79,1.67,1.35,3,2.41,5.66,2.26,3.84-.22,6.61-.39,13.17-5.57,8.48-6.72,18.49-4.83,25-.83,9,5.53,33.57,20.31,38.48,22.26,1.09.43,2.15.9,3.16,1.34,4.38,1.94,8.14,3.6,15.06,3.22,8.47-.47,19.19-2.92,23.86-8.41,3.78-4.44,3.09-9.74,2.79-12,0-.36-.08-.66-.1-.88-.11-1.38-.23-6.09,2.67-8.79a39.52,39.52,0,0,1,3.34-2.5c4.77-3.34,6.18-4.67,6.5-5.18l.06-.36v-.06c.2-1.08.35-1.92-6-5.59-7.86-4.58-56.52-33.34-66.2-39.05l-.21-.13c-.06,0-4.88-2.86-16.78-3.21a32.48,32.48,0,0,0-12,1.51A34,34,0,0,0,88.9,59a41.16,41.16,0,0,1-7,3.79c-4,1.55-10.08,3-16.24,1.18a28.94,28.94,0,0,1-8.08-4.23c-.59-.39-1.17-.79-1.77-1.17s-1.15-.71-1.74-1.06a20.32,20.32,0,0,1-6.66-5.43c-1.68-2.36-2.17-6.22.24-8.71,1.83-1.89,4.36-2.08,6.35-2l.59,0c16,.61,32.21,1.28,47.92,1.94l22.65.93L188,46.78l60.61,2.49,2.61.11q20.16.84,40.32,1.69c1.17,0,2.36.08,3.54.11,2.58.07,5.26.14,7.91.41s4.38,1.16,5.4,2.75,1.1,3.55.29,5.9l-.16.46c-2.26,6.53-2.65,8.86-2.69,9.65.25.14.56.28.81.39h0c3.09,1.42,4.14,3.35,3.11,5.74-1.92,4.5-5.91,12.21-11,13.42a28.29,28.29,0,0,1-8,.37,23.13,23.13,0,0,0-6.66.26,5.28,5.28,0,0,0-2.92,1.65,6,6,0,0,0-1,3.49c-.07,3.38,1.49,4.44,4.6,6.56l.08,0,1.5,1c.66.48,1.3.92,1.91,1.34,3.57,2.47,8,5.54,5.2,9.76-1.61,2.42-5.68,5.09-13.18,8.67-28.91,13.77-56,24.1-82.7,31.58A51,51,0,0,1,187.25,156c-1,.06-1.94.12-2.87.2C181.66,156.46,178.07,156.72,174.37,156.72ZM162.68,153c2.65.41,5.24.7,7.74.84l.86.05-.86-.05C167.92,153.71,165.33,153.42,162.68,153Zm31.31-.38c-2.24.36-4.6.51-6.91.65l-.85.06.85-.06C189.39,153.14,191.75,153,194,152.63Zm-79.52-15.31a58.6,58.6,0,0,1,16.29,1.94,67.54,67.54,0,0,1,10.47,4.29,64.87,64.87,0,0,0,9.41,3.9,90.29,90.29,0,0,0,19.94,3.65,96.21,96.21,0,0,0,13.35-.36c1-.08,2-.15,3-.21a46.24,46.24,0,0,0,9.22-1.18c26.43-7.4,53.19-17.62,81.82-31.25,7.1-3.38,9.69-5.33,10.62-6.33a34.84,34.84,0,0,0-3.41-2.57l-2-1.38c-.5-.36-1-.69-1.46-1-3.37-2.3-7.16-4.89-7-11.26a11.16,11.16,0,0,1,2.11-6.74,10.65,10.65,0,0,1,6-3.65,27.85,27.85,0,0,1,8.25-.41,23.72,23.72,0,0,0,6.48-.23h0c1.66-.39,4.36-4,6.61-8.87A8.62,8.62,0,0,1,301.57,74c-2.21-2.21-1.24-6.45,1.75-15.11l.16-.46a3.54,3.54,0,0,0,.24-1.09,4.36,4.36,0,0,0-1.26-.27c-2.45-.24-5-.31-7.51-.38-1.21,0-2.42-.06-3.63-.12q-20.15-.86-40.3-1.68l-2.62-.11-60.6-2.5-62.9-2.57-9.13-.37c7.35,1.09,10.57,3,11,3.3l2.06,1.22c37.07,21.9,59.28,35,64.23,37.89,8.25,4.8,9.33,7.38,8.6,11.34,0,.17,0,.32-.08.46-.41,2.66-3.73,5.16-8.74,8.68-1.1.77-2.35,1.65-2.76,2-.68.63-1.07,2.44-.92,4.31q0,.21.06.54c.36,2.79,1.31,10.06-4,16.36-5.81,6.82-18.15,9.82-27.77,10.34-8.24.45-13-1.64-17.57-3.67-1-.45-2-.87-3-1.27-6.33-2.5-38-21.86-39.34-22.68-4.94-3-12.46-4.5-18.72.45-7.35,5.81-11.38,6.47-16.27,6.75s-7.48-1.89-9.45-3.47l0-.05-.79-.62a27,27,0,0,1-3.73-3.57,28.42,28.42,0,0,0-2.44-2.46c-1.45-1.22-4.1-2.18-7.47-2.7a21,21,0,0,0-15.47,3.52c-3.54,2.56-5.74,6-6,9.43s1.9,7.14,4.82,8c2.22.61,5.08.17,7.84-.25a43.3,43.3,0,0,1,5-.58c5.52-.2,11.1,1.66,14.8,2.89,1.2.4,2.32.77,2.89.88l.27,0c2.51.48,4.49.86,11,1.59a132.68,132.68,0,0,0,19.14.27h.39c3.15-.11,6.39-.22,9.58-.2,3.34,0,6.75-.17,10.36-.35l.28,0C107.05,137.51,110.77,137.32,114.47,137.32Zm26.23,9c1.61.77,3.25,1.54,4.92,2.23C144,147.89,142.31,147.12,140.7,146.35ZM254,131.87c-11.72,4.94-23.19,9.31-34.53,13.14C230.85,141.18,242.32,136.81,254,131.87Zm-70.79,1.61a1.68,1.68,0,0,1-.18.21c-5.23,6.16-16.76,8.88-25.81,9.38h0c9.05-.5,20.58-3.22,25.81-9.38A1.68,1.68,0,0,0,183.25,133.48Zm-62,6.87a46.5,46.5,0,0,1,8.8,1.57c.69.19,1.37.41,2,.65-.67-.24-1.35-.46-2-.65A46.4,46.4,0,0,0,121.2,140.35Zm-70.43-1.57a11.59,11.59,0,0,0,1.2.3l.27.06c2.57.49,4.59.87,11.16,1.61a118.85,118.85,0,0,0,17.3.36,118.74,118.74,0,0,1-17.3-.36c-6.58-.74-8.6-1.13-11.16-1.61l-.27-.06C51.64,139,51.24,138.91,50.77,138.78Zm42,2.05h0c3.33,0,6.85-.17,10.25-.34l.54,0A144.17,144.17,0,0,1,119,140.2c-1.44-.08-3-.12-4.54-.12-3.63,0-7.31.19-10.87.38h-.28c-3.64.19-7.09.37-10.51.36Zm28.42-.48h0Zm15.28-2.67c.56.27,1,.49,1.41.63l.76.31-.76-.31C137.5,138.16,137,138,136.46,137.68Zm-89.22-.06,1.45.48,1.22.4-1.19-.39Zm-24.62-1.24a27.47,27.47,0,0,0,7.57-.47l.8-.13-.78.12A27.7,27.7,0,0,1,22.62,136.38ZM19.9,115.1a15.62,15.62,0,0,0-5.55,10.14c-.42,4.82,2.48,9.51,6.62,10.78-4.08-1.25-7-6-6.62-10.78A15.62,15.62,0,0,1,19.9,115.1Zm15.17,20.25h-.18l-.87,0,.87,0ZM55.13,120a9.72,9.72,0,0,0,7,2.63A9.69,9.69,0,0,1,55.13,120Zm21.32-3a31.75,31.75,0,0,1-6.85,4.23A30.75,30.75,0,0,0,76.45,117Zm110,1.73v.09c0,.18.05.43.09.74,0,.16,0,.35.07.54,0-.2,0-.38-.07-.54-.05-.34-.07-.57-.09-.74Zm-132.28.52.55.44Zm42.18-4.77A23,23,0,0,1,99,115.84l2.59,1.59L99,115.84A23,23,0,0,0,96.31,114.46Zm-46.47.6.7.76.86.93-.86-.93C50.31,115.57,50.08,115.31,49.84,115.06ZM86.6,112.7a17.14,17.14,0,0,0-8,2.74A17.14,17.14,0,0,1,86.6,112.7Zm101.73-.56-.12.11a5.53,5.53,0,0,0-1.48,2.71,5.52,5.52,0,0,1,1.48-2.71Zm-92,2.31Zm-48.55-1.4.09.07,0,0,0,0Zm0,0h0ZM291,110.46a1.93,1.93,0,0,1,.18,2.39A1.84,1.84,0,0,0,291,110.46Zm-94.78-4.19c-1.17,1-2.79,2.16-5,3.71l-1.69,1.2c.46-.34,1-.73,1.69-1.2C192.86,108.86,194.75,107.53,196.26,106.27ZM37.93,109.65c.37,0,.73.09,1.1.15.68.1,1.43.24,2.21.42-.78-.18-1.53-.32-2.21-.42C38.66,109.74,38.3,109.69,37.93,109.65Zm244.32-5.82,1,.68.17.12-.09-.07-.08,0Zm-84.14-5a4.1,4.1,0,0,1,.85,3.75.13.13,0,0,0,0,.06v0A3.84,3.84,0,0,0,198.11,98.86Zm79.61-5.6a11.38,11.38,0,0,0-.28,2.35,8.31,8.31,0,0,0,1.22,4.87,8.31,8.31,0,0,1-1.22-4.87A11.38,11.38,0,0,1,277.72,93.26Zm4.92-5.19a8.61,8.61,0,0,0-1.83.82A8.61,8.61,0,0,1,282.64,88.07Zm15.49-.86h0l-.39.08.39-.08.26-.07Zm9-11.48a38.78,38.78,0,0,1-5,8.52A35.45,35.45,0,0,0,307.1,75.73Zm-1.05-16.26-.12.33a78.92,78.92,0,0,0-2.37,7.75c.4-1.7,1.13-4.16,2.37-7.75ZM87.57,56.55l-.13.08a39.69,39.69,0,0,1-6.57,3.56l-.6.22.6-.22a39.2,39.2,0,0,0,6.56-3.56ZM53.49,46.82c-1.28,0-1.75.19-1.91.36a1.71,1.71,0,0,0,.29,1.67c1.15,1.61,3,2.71,5,3.88.64.38,1.28.77,1.9,1.16l1.87,1.24a24.74,24.74,0,0,0,6.56,3.52c4.68,1.38,9.49.2,12.69-1A37.1,37.1,0,0,0,86,54.29a38.24,38.24,0,0,1,7.22-3.83,31.58,31.58,0,0,1,8.26-1.71c-15.4-.64-31.31-1.3-47.13-1.91h-.83Zm252.85,9.54a3.58,3.58,0,0,1,.1,1.56A3.58,3.58,0,0,0,306.34,56.36ZM56.87,56l.39.25.09.06-.09-.06ZM49.8,50.7a16.08,16.08,0,0,0,4.79,3.9A16.53,16.53,0,0,1,49.8,50.7Zm250.62,3.45c.77.05,1.55.11,2.31.19.19,0,.37,0,.54.06-.17,0-.35,0-.54-.06C302,54.26,301.19,54.2,300.42,54.15ZM111.08,51.59a44.21,44.21,0,0,1,12.3,2.5A43.93,43.93,0,0,0,111.08,51.59Zm181.07,2.26q1.44.06,2.88.09h0Q293.59,53.91,292.15,53.85Zm-41.23-1.72h.22l25,1-25-1Zm-145.46-.77a33,33,0,0,0-11.33,1.69l-.06,0,.06,0a34.87,34.87,0,0,1,12.73-1.68ZM238,51.6l10.5.43,1,0-1,0ZM96.65,45.79l5.75.24L125,47l62.9,2.58,42.67,1.75-42.67-1.75L125,47,102.4,46ZM53.43,44.06a5.15,5.15,0,0,0-3.75,1.12c1.08-1,2.73-1.15,4.21-1.11h-.46Z"/><path class="cls-2" d="M306.67,73.51h0c-.25-.12-.56-.26-.81-.4,0-.79.43-3.12,2.69-9.65l.16-.46c.81-2.35.71-4.33-.29-5.89s-2.79-2.5-5.4-2.76-5.33-.34-7.91-.41c-1.18,0-2.37-.06-3.54-.11Q271.4,53,251.24,52.14L248.63,52,188,49.54,125.12,47,102.49,46c-15.72-.65-32-1.33-47.94-1.94l-.59,0c-2,0-4.52.14-6.35,2-2.41,2.49-1.92,6.35-.24,8.71A20.32,20.32,0,0,0,54,60.24c.59.35,1.17.7,1.74,1.06s1.18.78,1.77,1.17a29.22,29.22,0,0,0,8.08,4.24c6.16,1.81,12.23.36,16.24-1.19a40.48,40.48,0,0,0,7-3.79,34,34,0,0,1,6.18-3.32,32.48,32.48,0,0,1,12-1.51c11.9.35,16.72,3.18,16.78,3.21.57.34,58,34.26,66.41,39.18,6.3,3.67,6.15,4.51,6,5.59V105l-.06.35c-.32.52-1.73,1.84-6.5,5.18a37.14,37.14,0,0,0-3.34,2.51c-2.9,2.69-2.78,7.4-2.67,8.78,0,.22.05.52.1.88.3,2.27,1,7.57-2.79,12-4.67,5.49-15.39,8-23.86,8.41-6.92.38-10.68-1.28-15.06-3.21-1-.45-2.07-.92-3.16-1.35-4.91-1.94-29.45-16.73-38.48-22.26-6.54-4-16.55-5.88-25,.83-6.56,5.18-9.33,5.35-13.17,5.57-2.66.16-4-.91-5.66-2.26-.34-.27-.67-.54-1-.78a23.73,23.73,0,0,1-3-2.9,31.37,31.37,0,0,0-2.94-2.94c-2.84-2.39-7.1-3.46-10.18-3.94a26.61,26.61,0,0,0-19.56,4.51c-4.84,3.5-7.86,8.39-8.29,13.42C11.06,134,15,140,20.45,141.51c3.36.93,6.82.4,10.16-.11a39.81,39.81,0,0,1,4.38-.52c4.48-.17,9.51,1.5,12.87,2.62a33.17,33.17,0,0,0,3.59,1.06l.28.05c2.61.5,4.68.89,11.36,1.65a137.58,137.58,0,0,0,20,.3l.48,0c3-.1,6.21-.21,9.24-.19,3.42,0,7-.17,10.41-.34l.57,0c8.62-.46,17.54-.92,25.47,1.35a64,64,0,0,1,9.61,4,69.57,69.57,0,0,0,10.24,4.22,95.41,95.41,0,0,0,21.18,3.86c1.3.07,2.68.11,4.1.11,3.7,0,7.29-.26,10-.48.93-.08,1.89-.14,2.87-.2a51,51,0,0,0,10.36-1.37c26.74-7.48,53.79-17.81,82.7-31.58,7.5-3.58,11.57-6.25,13.18-8.67,2.82-4.22-1.63-7.29-5.2-9.76-.61-.42-1.25-.86-1.91-1.33-.51-.37-1-.71-1.5-1l-.08-.05c-3.11-2.12-4.67-3.18-4.6-6.56a6,6,0,0,1,1-3.49,5.28,5.28,0,0,1,2.92-1.65,23.13,23.13,0,0,1,6.66-.26,28.29,28.29,0,0,0,8-.37c5.11-1.21,9.1-8.92,11-13.42C310.81,76.85,309.76,74.92,306.67,73.51ZM276.79,91.57a11.16,11.16,0,0,0-2.11,6.74c-.13,6.37,3.66,9,7,11.26.47.32,1,.65,1.46,1l2,1.38a34.84,34.84,0,0,1,3.41,2.57c-.93,1-3.52,3-10.62,6.33-28.63,13.63-55.39,23.85-81.82,31.25a46.24,46.24,0,0,1-9.22,1.18c-1,.06-2,.13-3,.21a96.21,96.21,0,0,1-13.35.36,90.29,90.29,0,0,1-19.94-3.65,64.87,64.87,0,0,1-9.41-3.9A67.54,67.54,0,0,0,130.76,142a58.6,58.6,0,0,0-16.29-1.94c-3.7,0-7.42.19-11,.38l-.28,0c-3.6.18-7,.36-10.36.35-3.18,0-6.43.09-9.58.2h-.39a131.26,131.26,0,0,1-19.14-.27c-6.47-.73-8.45-1.11-11-1.59l-.27-.05c-.57-.11-1.69-.48-2.89-.88-3.7-1.23-9.28-3.08-14.8-2.89a43.55,43.55,0,0,0-5,.58c-2.76.42-5.62.86-7.84.25-2.92-.81-5.12-4.45-4.82-7.95s2.49-6.87,6-9.43a21,21,0,0,1,15.47-3.52c3.37.52,6,1.48,7.47,2.7a28.19,28.19,0,0,1,2.43,2.45A27.16,27.16,0,0,0,52.24,124c.27.2.54.42.84.67,2,1.59,4.67,3.77,9.45,3.47s8.92-.93,16.27-6.75c6.26-5,13.78-3.48,18.72-.45,1.35.82,33,20.18,39.34,22.68,1,.4,2,.82,3,1.27,4.58,2,9.32,4.12,17.57,3.67,9.62-.52,22-3.52,27.77-10.34,5.36-6.3,4.41-13.56,4-16.36q0-.33-.06-.54c-.15-1.86.24-3.68.92-4.31.41-.38,1.66-1.25,2.76-2,5-3.51,8.33-6,8.74-8.68,0-.14,0-.28.08-.45.73-4-.35-6.55-8.6-11.35-4.95-2.88-27.16-16-64.23-37.89l-2.06-1.22c-.44-.28-3.66-2.2-11-3.3l9.13.37,62.9,2.57,60.6,2.5,2.62.11q20.16.83,40.3,1.68c1.21.06,2.42.09,3.63.12,2.49.07,5.06.14,7.51.38a4.36,4.36,0,0,1,1.26.27,3.54,3.54,0,0,1-.24,1.09l-.16.46c-3,8.66-4,12.9-1.75,15.11a8.62,8.62,0,0,0,2.54,1.64c-2.25,4.83-4.95,8.48-6.61,8.87h0a23.7,23.7,0,0,1-6.48.23,28.2,28.2,0,0,0-8.25.41A10.65,10.65,0,0,0,276.79,91.57ZM51.58,49.94c.16-.17.63-.36,1.91-.36h.83c15.81.61,31.72,1.27,47.13,1.91a31.58,31.58,0,0,0-8.26,1.71A38.28,38.28,0,0,0,86,57.06a37.79,37.79,0,0,1-6.1,3.31c-3.2,1.24-8,2.42-12.69,1a24.74,24.74,0,0,1-6.56-3.52l-1.87-1.24c-.62-.39-1.26-.77-1.9-1.16-2-1.17-3.83-2.27-5-3.88A1.71,1.71,0,0,1,51.58,49.94Z"/><path class="cls-3" d="M174.38,155.34c-1.33,0-2.68,0-4-.11a94.37,94.37,0,0,1-20.87-3.81,66.84,66.84,0,0,1-10-4.14,64.68,64.68,0,0,0-9.83-4c-8.15-2.33-17.2-1.86-25.95-1.4-3.59.18-7.31.38-10.87.37-3.23,0-6.56.1-9.78.21a136.14,136.14,0,0,1-19.78-.29c-6.63-.76-8.68-1.15-11.27-1.64l-.26-.05a31.51,31.51,0,0,1-3.43-1c-3.42-1.14-8.58-2.85-13.34-2.68a41.93,41.93,0,0,0-4.55.53c-3.19.49-6.5,1-9.57.15-4.88-1.35-8.33-6.75-7.85-12.3.4-4.63,3.22-9.16,7.73-12.43a25.22,25.22,0,0,1,18.54-4.26c2.9.45,6.91,1.45,9.5,3.63a34.11,34.11,0,0,1,2.82,2.82A23.34,23.34,0,0,0,54.72,118q.48.36,1,.75c1.76,1.42,3.41,2.76,6.61,2.57,3.94-.23,7.05-.41,13.94-5.87,7.94-6.27,17.32-4.49,23.46-.73,9.06,5.54,33.68,20.38,38.69,22.36,1.08.43,2.12.89,3.14,1.34,4.32,1.91,8.41,3.72,15.67,3.32,8.75-.48,19.88-3.07,24.83-8.89,4.18-4.91,3.43-10.64,3.11-13.08,0-.34-.08-.62-.09-.82-.1-1.22-.22-5.39,2.23-7.66a37.89,37.89,0,0,1,3.2-2.39c2-1.42,6.76-4.74,7-5.94,0-.18.06-.37.09-.55.3-1.66.52-2.87-6.62-7-8.51-5-65.81-38.82-66.39-39.16-.09-.06-5-3-17.45-3.41a33.68,33.68,0,0,0-12.53,1.59,34.79,34.79,0,0,0-6.44,3.45,39.77,39.77,0,0,1-6.81,3.68C77.55,62.94,71.8,64.33,66,62.62a28.07,28.07,0,0,1-7.7-4l-1.79-1.19c-.59-.37-1.19-.73-1.79-1.09-2.25-1.33-4.58-2.72-6.23-5-1.36-1.91-1.79-5,.1-7,1.45-1.5,3.51-1.65,5.33-1.61h0l.56,0c16,.61,32.24,1.29,48,1.94l22.62.93L188,48.16l60.61,2.49,1.95.08q20.49.85,41,1.72c1.18,0,2.37.08,3.57.11,2.56.07,5.2.14,7.8.4,2.17.22,3.6.91,4.38,2.13s.81,2.77.14,4.7l-.15.46c-2.16,6.23-3.06,9.89-2.69,10.88a6.5,6.5,0,0,0,1.54.87c1.12.51,3.44,1.57,2.42,3.94-1.46,3.42-5.38,11.51-10.07,12.61a26.86,26.86,0,0,1-7.63.34,24.62,24.62,0,0,0-7.06.29,6.65,6.65,0,0,0-3.68,2.16,7.18,7.18,0,0,0-1.25,4.3c-.08,4.13,2,5.56,5.2,7.73q.76.51,1.56,1.08l1.92,1.34c3.55,2.46,6.91,4.77,4.84,7.87-1.45,2.17-5.46,4.77-12.62,8.18-28.85,13.74-55.83,24-82.48,31.5a50.27,50.27,0,0,1-10.07,1.32l-2.9.2C181.28,155.11,177.89,155.34,174.38,155.34ZM114.47,138.7a57.64,57.64,0,0,1,15.91,1.89,66.27,66.27,0,0,1,10.26,4.2,65.49,65.49,0,0,0,9.61,4,91.42,91.42,0,0,0,20.25,3.7,97.16,97.16,0,0,0,13.54-.36c1-.08,2-.14,3-.2a48.45,48.45,0,0,0,9.51-1.23c26.5-7.42,53.33-17.67,82-31.33,6.51-3.1,10.39-5.53,11.52-7.23.5-.75-.94-1.86-4.12-4.06-.62-.42-1.28-.88-2-1.37l-1.5-1c-3.36-2.29-6.53-4.45-6.41-10.07a9.87,9.87,0,0,1,1.82-5.93,9.3,9.3,0,0,1,5.22-3.15,27,27,0,0,1,7.85-.37,24.66,24.66,0,0,0,6.86-.27c2.8-.65,6.1-6.23,8.1-10.86a9.72,9.72,0,0,0-1-.49A7.89,7.89,0,0,1,302.55,73c-1.67-1.66-.61-5.91,2.08-13.68l.15-.46a3,3,0,0,0,.15-2.31c-.29-.45-1.1-.75-2.33-.87-2.5-.25-5.1-.32-7.61-.39-1.21,0-2.41-.06-3.61-.12q-20.47-.87-41-1.71l-2-.08-60.61-2.5L125,48.34l-22.62-.93c-15.72-.66-32-1.33-48-1.95h-.51c-1.23,0-2.57,0-3.27.77s-.55,2.43.15,3.43c1.32,1.85,3.3,3,5.4,4.27.63.37,1.26.75,1.87,1.14l1.84,1.21A25.42,25.42,0,0,0,66.79,60c5,1.49,10.17.24,13.58-1.07a37.78,37.78,0,0,0,6.33-3.44,38.67,38.67,0,0,1,7-3.71A36.41,36.41,0,0,1,107.22,50c13.33.39,18.6,3.68,18.81,3.82.54.31,57.84,34.18,66.34,39.13,8.22,4.78,8.49,6.93,7.95,9.91l-.09.49c-.33,2.11-3.6,4.55-8.17,7.76-1.25.88-2.44,1.71-2.91,2.15-1.23,1.14-1.5,3.64-1.36,5.43,0,.17,0,.39.08.67.33,2.57,1.22,9.39-3.74,15.23-5.53,6.48-17.46,9.34-26.79,9.85-7.92.44-12.51-1.59-16.94-3.55-1-.46-2-.89-3-1.29-6.27-2.48-38.8-22.38-39.12-22.58-5.35-3.27-13.49-4.84-20.3.55-7,5.57-10.71,6.17-15.5,6.46-4.25.25-6.61-1.65-8.5-3.18l-.88-.69a26.14,26.14,0,0,1-3.55-3.41A28.4,28.4,0,0,0,47,114.17c-2.1-1.77-5.59-2.61-8.14-3a22.43,22.43,0,0,0-16.5,3.77c-3.86,2.79-6.27,6.59-6.6,10.43-.36,4.19,2.26,8.41,5.83,9.4,2.51.69,5.52.23,8.43-.22a45.52,45.52,0,0,1,4.86-.56c5.25-.2,10.7,1.62,14.31,2.82a32,32,0,0,0,3.08.93l.26.05c2.53.48,4.53.86,11.06,1.6a133.24,133.24,0,0,0,19.38.28c3.25-.11,6.59-.22,9.88-.21,3.48,0,7-.18,10.72-.37S110.81,138.7,114.47,138.7Zm190.1-67.52Z"/><path class="cls-3" d="M174.38,155.34c-1.33,0-2.68,0-4-.11a94.37,94.37,0,0,1-20.87-3.81,66.84,66.84,0,0,1-10-4.14,64.68,64.68,0,0,0-9.83-4c-8.15-2.33-17.2-1.86-25.95-1.4-3.59.18-7.31.38-10.87.37-3.23,0-6.56.1-9.78.21a136.14,136.14,0,0,1-19.78-.29c-6.63-.76-8.68-1.15-11.27-1.64l-.26-.05a31.51,31.51,0,0,1-3.43-1c-3.42-1.14-8.58-2.85-13.34-2.68a41.93,41.93,0,0,0-4.55.53c-3.19.49-6.5,1-9.57.15-4.88-1.35-8.33-6.75-7.85-12.3.4-4.63,3.22-9.16,7.73-12.43a25.22,25.22,0,0,1,18.54-4.26c2.9.45,6.91,1.45,9.5,3.63a34.11,34.11,0,0,1,2.82,2.82A23.34,23.34,0,0,0,54.72,118q.48.36,1,.75c1.76,1.42,3.41,2.76,6.61,2.57,3.94-.23,7.05-.41,13.94-5.87,7.94-6.27,17.32-4.49,23.46-.73,9.06,5.54,33.68,20.38,38.69,22.36,1.08.43,2.12.89,3.14,1.34,4.32,1.91,8.41,3.72,15.67,3.32,8.75-.48,19.88-3.07,24.83-8.89,4.18-4.91,3.43-10.64,3.11-13.08,0-.34-.08-.62-.09-.82-.1-1.22-.22-5.39,2.23-7.66a37.89,37.89,0,0,1,3.2-2.39c2-1.42,6.76-4.74,7-5.94,0-.18.06-.37.09-.55.3-1.66.52-2.87-6.62-7-8.51-5-65.81-38.82-66.39-39.16-.09-.06-5-3-17.45-3.41a33.68,33.68,0,0,0-12.53,1.59,34.79,34.79,0,0,0-6.44,3.45,39.77,39.77,0,0,1-6.81,3.68C77.55,62.94,71.8,64.33,66,62.62a28.07,28.07,0,0,1-7.7-4l-1.79-1.19c-.59-.37-1.19-.73-1.79-1.09-2.25-1.33-4.58-2.72-6.23-5-1.36-1.91-1.79-5,.1-7,1.45-1.5,3.51-1.65,5.33-1.61h0l.56,0c16,.61,32.24,1.29,48,1.94l22.62.93L188,48.16l60.61,2.49,1.95.08q20.49.85,41,1.72c1.18,0,2.37.08,3.57.11,2.56.07,5.2.14,7.8.4,2.17.22,3.6.91,4.38,2.13s.81,2.77.14,4.7l-.15.46c-2.16,6.23-3.06,9.89-2.69,10.88a6.5,6.5,0,0,0,1.54.87c1.12.51,3.44,1.57,2.42,3.94-1.46,3.42-5.38,11.51-10.07,12.61a26.86,26.86,0,0,1-7.63.34,24.62,24.62,0,0,0-7.06.29,6.65,6.65,0,0,0-3.68,2.16,7.18,7.18,0,0,0-1.25,4.3c-.08,4.13,2,5.56,5.2,7.73q.76.51,1.56,1.08l1.92,1.34c3.55,2.46,6.91,4.77,4.84,7.87-1.45,2.17-5.46,4.77-12.62,8.18-28.85,13.74-55.83,24-82.48,31.5a50.27,50.27,0,0,1-10.07,1.32l-2.9.2C181.28,155.11,177.89,155.34,174.38,155.34ZM114.47,138.7a57.64,57.64,0,0,1,15.91,1.89,66.27,66.27,0,0,1,10.26,4.2,65.49,65.49,0,0,0,9.61,4,91.42,91.42,0,0,0,20.25,3.7,97.16,97.16,0,0,0,13.54-.36c1-.08,2-.14,3-.2a48.45,48.45,0,0,0,9.51-1.23c26.5-7.42,53.33-17.67,82-31.33,6.51-3.1,10.39-5.53,11.52-7.23.5-.75-.94-1.86-4.12-4.06-.62-.42-1.28-.88-2-1.37l-1.5-1c-3.36-2.29-6.53-4.45-6.41-10.07a9.87,9.87,0,0,1,1.82-5.93,9.3,9.3,0,0,1,5.22-3.15,27,27,0,0,1,7.85-.37,24.66,24.66,0,0,0,6.86-.27c2.8-.65,6.1-6.23,8.1-10.86a9.72,9.72,0,0,0-1-.49A7.89,7.89,0,0,1,302.55,73c-1.67-1.66-.61-5.91,2.08-13.68l.15-.46a3,3,0,0,0,.15-2.31c-.29-.45-1.1-.75-2.33-.87-2.5-.25-5.1-.32-7.61-.39-1.21,0-2.41-.06-3.61-.12q-20.47-.87-41-1.71l-2-.08-60.61-2.5L125,48.34l-22.62-.93c-15.72-.66-32-1.33-48-1.95h-.51c-1.23,0-2.57,0-3.27.77s-.55,2.43.15,3.43c1.32,1.85,3.3,3,5.4,4.27.63.37,1.26.75,1.87,1.14l1.84,1.21A25.42,25.42,0,0,0,66.79,60c5,1.49,10.17.24,13.58-1.07a37.78,37.78,0,0,0,6.33-3.44,38.67,38.67,0,0,1,7-3.71A36.41,36.41,0,0,1,107.22,50c13.33.39,18.6,3.68,18.81,3.82.54.31,57.84,34.18,66.34,39.13,8.22,4.78,8.49,6.93,7.95,9.91l-.09.49c-.33,2.11-3.6,4.55-8.17,7.76-1.25.88-2.44,1.71-2.91,2.15-1.23,1.14-1.5,3.64-1.36,5.43,0,.17,0,.39.08.67.33,2.57,1.22,9.39-3.74,15.23-5.53,6.48-17.46,9.34-26.79,9.85-7.92.44-12.51-1.59-16.94-3.55-1-.46-2-.89-3-1.29-6.27-2.48-38.8-22.38-39.12-22.58-5.35-3.27-13.49-4.84-20.3.55-7,5.57-10.71,6.17-15.5,6.46-4.25.25-6.61-1.65-8.5-3.18l-.88-.69a26.14,26.14,0,0,1-3.55-3.41A28.4,28.4,0,0,0,47,114.17c-2.1-1.77-5.59-2.61-8.14-3a22.43,22.43,0,0,0-16.5,3.77c-3.86,2.79-6.27,6.59-6.6,10.43-.36,4.19,2.26,8.41,5.83,9.4,2.51.69,5.52.23,8.43-.22a45.52,45.52,0,0,1,4.86-.56c5.25-.2,10.7,1.62,14.31,2.82a32,32,0,0,0,3.08.93l.26.05c2.53.48,4.53.86,11.06,1.6a133.24,133.24,0,0,0,19.38.28c3.25-.11,6.59-.22,9.88-.21,3.48,0,7-.18,10.72-.37S110.81,138.7,114.47,138.7Zm190.1-67.52Z"/><path class="cls-4" d="M174.38,155.34c-1.33,0-2.68,0-4-.11a94.37,94.37,0,0,1-20.87-3.81,66.84,66.84,0,0,1-10-4.14,64.68,64.68,0,0,0-9.83-4c-8.15-2.33-17.2-1.86-25.95-1.4-3.59.18-7.31.38-10.87.37-3.23,0-6.56.1-9.78.21a136.14,136.14,0,0,1-19.78-.29c-6.63-.76-8.68-1.15-11.27-1.64l-.26-.05a31.51,31.51,0,0,1-3.43-1c-3.42-1.14-8.58-2.85-13.34-2.68a41.93,41.93,0,0,0-4.55.53c-3.19.49-6.5,1-9.57.15-4.88-1.35-8.33-6.75-7.85-12.3.4-4.63,3.22-9.16,7.73-12.43a25.22,25.22,0,0,1,18.54-4.26c2.9.45,6.91,1.45,9.5,3.63a34.11,34.11,0,0,1,2.82,2.82A23.34,23.34,0,0,0,54.72,118q.48.36,1,.75c1.76,1.42,3.41,2.76,6.61,2.57,3.94-.23,7.05-.41,13.94-5.87,7.94-6.27,17.32-4.49,23.46-.73,9.06,5.54,33.68,20.38,38.69,22.36,1.08.43,2.12.89,3.14,1.34,4.32,1.91,8.41,3.72,15.67,3.32,8.75-.48,19.88-3.07,24.83-8.89,4.18-4.91,3.43-10.64,3.11-13.08,0-.34-.08-.62-.09-.82-.1-1.22-.22-5.39,2.23-7.66a37.89,37.89,0,0,1,3.2-2.39c2-1.42,6.76-4.74,7-5.94,0-.18.06-.37.09-.55.3-1.66.52-2.87-6.62-7-6.12-3.56-37.4-22-55.5-32.73l-10.89-6.43c-.09-.06-5-3-17.45-3.41a33.68,33.68,0,0,0-12.53,1.59,34.79,34.79,0,0,0-6.44,3.45,39.77,39.77,0,0,1-6.81,3.68C77.55,62.94,71.8,64.33,66,62.62a28.07,28.07,0,0,1-7.7-4l-1.79-1.19c-.59-.37-1.19-.73-1.79-1.09-2.25-1.33-4.58-2.72-6.23-5-1.36-1.91-1.79-5,.1-7,1.45-1.5,3.51-1.65,5.33-1.61h0l.56,0c16,.61,32.24,1.29,48,1.94l22.62.93L188,48.16l60.61,2.49,1.95.08q20.49.85,41,1.72c1.18,0,2.37.08,3.57.11,2.56.07,5.2.14,7.8.4,2.17.22,3.6.91,4.38,2.13s.81,2.77.14,4.7l-.15.46c-2.16,6.23-3.06,9.89-2.69,10.88a6.5,6.5,0,0,0,1.54.87c1.12.51,3.44,1.57,2.42,3.94-1.46,3.42-5.38,11.51-10.07,12.61a26.86,26.86,0,0,1-7.63.34,24.62,24.62,0,0,0-7.06.29,6.65,6.65,0,0,0-3.68,2.16,7.18,7.18,0,0,0-1.25,4.3c-.08,4.13,2,5.56,5.2,7.73q.76.51,1.56,1.08l1.92,1.34c3.55,2.46,6.91,4.77,4.84,7.87-1.45,2.17-5.46,4.77-12.62,8.18-28.85,13.74-55.83,24-82.48,31.5a50.27,50.27,0,0,1-10.07,1.32l-2.9.2C181.28,155.11,177.89,155.34,174.38,155.34ZM114.47,138.7a57.64,57.64,0,0,1,15.91,1.89,66.27,66.27,0,0,1,10.26,4.2,65.49,65.49,0,0,0,9.61,4,91.42,91.42,0,0,0,20.25,3.7,97.16,97.16,0,0,0,13.54-.36c1-.08,2-.14,3-.2a48.45,48.45,0,0,0,9.51-1.23c26.5-7.42,53.33-17.67,82-31.33,6.51-3.1,10.39-5.53,11.52-7.23.5-.75-.94-1.86-4.12-4.06-.62-.42-1.28-.88-2-1.37l-1.5-1c-3.36-2.29-6.53-4.45-6.41-10.07a9.87,9.87,0,0,1,1.82-5.93,9.3,9.3,0,0,1,5.22-3.15,27,27,0,0,1,7.85-.37,24.66,24.66,0,0,0,6.86-.27c2.8-.65,6.1-6.23,8.1-10.86a9.72,9.72,0,0,0-1-.49A7.89,7.89,0,0,1,302.55,73c-1.67-1.66-.61-5.91,2.08-13.68l.15-.46a3,3,0,0,0,.15-2.31c-.29-.45-1.1-.75-2.33-.87-2.5-.25-5.1-.32-7.61-.39-1.21,0-2.41-.06-3.61-.12q-20.47-.87-41-1.71l-2-.08-60.61-2.5L125,48.34l-22.62-.93c-15.72-.66-32-1.33-48-1.95h-.51c-1.23,0-2.57,0-3.27.77s-.55,2.43.15,3.43c1.32,1.85,3.3,3,5.4,4.27.63.37,1.26.75,1.87,1.14l1.84,1.21A25.42,25.42,0,0,0,66.79,60c5,1.49,10.17.24,13.58-1.07a37.78,37.78,0,0,0,6.33-3.44,38.67,38.67,0,0,1,7-3.71A36.41,36.41,0,0,1,107.22,50c13.33.39,18.6,3.68,18.81,3.82l10.85,6.4C155,70.92,186.26,89.39,192.37,93c8.22,4.78,8.49,6.93,7.95,9.91l-.09.49c-.33,2.11-3.6,4.55-8.17,7.76-1.25.88-2.44,1.71-2.91,2.15-1.23,1.14-1.5,3.64-1.36,5.43,0,.17,0,.39.08.67.33,2.57,1.22,9.39-3.74,15.23-5.53,6.48-17.46,9.34-26.79,9.85-7.92.44-12.51-1.59-16.94-3.55-1-.46-2-.89-3-1.29-6.27-2.48-38.8-22.38-39.12-22.58-5.35-3.27-13.49-4.84-20.3.55-7,5.57-10.71,6.17-15.5,6.46-4.25.25-6.61-1.65-8.5-3.18l-.88-.69a26.14,26.14,0,0,1-3.55-3.41A28.4,28.4,0,0,0,47,114.17c-2.1-1.77-5.59-2.61-8.14-3a22.43,22.43,0,0,0-16.5,3.77c-3.86,2.79-6.27,6.59-6.6,10.43-.36,4.19,2.26,8.41,5.83,9.4,2.51.69,5.52.23,8.43-.22a45.52,45.52,0,0,1,4.86-.56c5.25-.2,10.7,1.62,14.31,2.82a32,32,0,0,0,3.08.93l.26.05c2.53.48,4.53.86,11.06,1.6a133.24,133.24,0,0,0,19.38.28c3.25-.11,6.59-.22,9.88-.21,3.48,0,7-.18,10.72-.37S110.81,138.7,114.47,138.7Zm190.1-67.52Z"/><path class="cls-4" d="M174.38,155.34c-1.33,0-2.68,0-4-.11a94.37,94.37,0,0,1-20.87-3.81,66.84,66.84,0,0,1-10-4.14,64.68,64.68,0,0,0-9.83-4c-8.15-2.33-17.2-1.86-25.95-1.4-3.59.18-7.31.38-10.87.37-3.23,0-6.56.1-9.78.21a136.14,136.14,0,0,1-19.78-.29c-6.63-.76-8.68-1.15-11.27-1.64l-.26-.05a31.51,31.51,0,0,1-3.43-1c-3.42-1.14-8.58-2.85-13.34-2.68a41.93,41.93,0,0,0-4.55.53c-3.19.49-6.5,1-9.57.15-4.88-1.35-8.33-6.75-7.85-12.3.4-4.63,3.22-9.16,7.73-12.43a25.22,25.22,0,0,1,18.54-4.26c2.9.45,6.91,1.45,9.5,3.63a34.11,34.11,0,0,1,2.82,2.82A23.34,23.34,0,0,0,54.72,118q.48.36,1,.75c1.76,1.42,3.41,2.76,6.61,2.57,3.94-.23,7.05-.41,13.94-5.87,7.94-6.27,17.32-4.49,23.46-.73,9.06,5.54,33.68,20.38,38.69,22.36,1.08.43,2.12.89,3.14,1.34,4.32,1.91,8.41,3.72,15.67,3.32,8.75-.48,19.88-3.07,24.83-8.89,4.18-4.91,3.43-10.64,3.11-13.08,0-.34-.08-.62-.09-.82-.1-1.22-.22-5.39,2.23-7.66a37.89,37.89,0,0,1,3.2-2.39c2-1.42,6.76-4.74,7-5.94,0-.18.06-.37.09-.55.3-1.66.52-2.87-6.62-7-6.12-3.56-37.4-22-55.5-32.73l-10.89-6.43c-.09-.06-5-3-17.45-3.41a33.68,33.68,0,0,0-12.53,1.59,34.79,34.79,0,0,0-6.44,3.45,39.77,39.77,0,0,1-6.81,3.68C77.55,62.94,71.8,64.33,66,62.62a28.07,28.07,0,0,1-7.7-4l-1.79-1.19c-.59-.37-1.19-.73-1.79-1.09-2.25-1.33-4.58-2.72-6.23-5-1.36-1.91-1.79-5,.1-7,1.45-1.5,3.51-1.65,5.33-1.61h0l.56,0c16,.61,32.24,1.29,48,1.94l22.62.93L188,48.16l60.61,2.49,1.95.08q20.49.85,41,1.72c1.18,0,2.37.08,3.57.11,2.56.07,5.2.14,7.8.4,2.17.22,3.6.91,4.38,2.13s.81,2.77.14,4.7l-.15.46c-2.16,6.23-3.06,9.89-2.69,10.88a6.5,6.5,0,0,0,1.54.87c1.12.51,3.44,1.57,2.42,3.94-1.46,3.42-5.38,11.51-10.07,12.61a26.86,26.86,0,0,1-7.63.34,24.62,24.62,0,0,0-7.06.29,6.65,6.65,0,0,0-3.68,2.16,7.18,7.18,0,0,0-1.25,4.3c-.08,4.13,2,5.56,5.2,7.73q.76.51,1.56,1.08l1.92,1.34c3.55,2.46,6.91,4.77,4.84,7.87-1.45,2.17-5.46,4.77-12.62,8.18-28.85,13.74-55.83,24-82.48,31.5a50.27,50.27,0,0,1-10.07,1.32l-2.9.2C181.28,155.11,177.89,155.34,174.38,155.34ZM114.47,138.7a57.64,57.64,0,0,1,15.91,1.89,66.27,66.27,0,0,1,10.26,4.2,65.49,65.49,0,0,0,9.61,4,91.42,91.42,0,0,0,20.25,3.7,97.16,97.16,0,0,0,13.54-.36c1-.08,2-.14,3-.2a48.45,48.45,0,0,0,9.51-1.23c26.5-7.42,53.33-17.67,82-31.33,6.51-3.1,10.39-5.53,11.52-7.23.5-.75-.94-1.86-4.12-4.06-.62-.42-1.28-.88-2-1.37l-1.5-1c-3.36-2.29-6.53-4.45-6.41-10.07a9.87,9.87,0,0,1,1.82-5.93,9.3,9.3,0,0,1,5.22-3.15,27,27,0,0,1,7.85-.37,24.66,24.66,0,0,0,6.86-.27c2.8-.65,6.1-6.23,8.1-10.86a9.72,9.72,0,0,0-1-.49A7.89,7.89,0,0,1,302.55,73c-1.67-1.66-.61-5.91,2.08-13.68l.15-.46a3,3,0,0,0,.15-2.31c-.29-.45-1.1-.75-2.33-.87-2.5-.25-5.1-.32-7.61-.39-1.21,0-2.41-.06-3.61-.12q-20.47-.87-41-1.71l-2-.08-60.61-2.5L125,48.34l-22.62-.93c-15.72-.66-32-1.33-48-1.95h-.51c-1.23,0-2.57,0-3.27.77s-.55,2.43.15,3.43c1.32,1.85,3.3,3,5.4,4.27.63.37,1.26.75,1.87,1.14l1.84,1.21A25.42,25.42,0,0,0,66.79,60c5,1.49,10.17.24,13.58-1.07a37.78,37.78,0,0,0,6.33-3.44,38.67,38.67,0,0,1,7-3.71A36.41,36.41,0,0,1,107.22,50c13.33.39,18.6,3.68,18.81,3.82l10.85,6.4C155,70.92,186.26,89.39,192.37,93c8.22,4.78,8.49,6.93,7.95,9.91l-.09.49c-.33,2.11-3.6,4.55-8.17,7.76-1.25.88-2.44,1.71-2.91,2.15-1.23,1.14-1.5,3.64-1.36,5.43,0,.17,0,.39.08.67.33,2.57,1.22,9.39-3.74,15.23-5.53,6.48-17.46,9.34-26.79,9.85-7.92.44-12.51-1.59-16.94-3.55-1-.46-2-.89-3-1.29-6.27-2.48-38.8-22.38-39.12-22.58-5.35-3.27-13.49-4.84-20.3.55-7,5.57-10.71,6.17-15.5,6.46-4.25.25-6.61-1.65-8.5-3.18l-.88-.69a26.14,26.14,0,0,1-3.55-3.41A28.4,28.4,0,0,0,47,114.17c-2.1-1.77-5.59-2.61-8.14-3a22.43,22.43,0,0,0-16.5,3.77c-3.86,2.79-6.27,6.59-6.6,10.43-.36,4.19,2.26,8.41,5.83,9.4,2.51.69,5.52.23,8.43-.22a45.52,45.52,0,0,1,4.86-.56c5.25-.2,10.7,1.62,14.31,2.82a32,32,0,0,0,3.08.93l.26.05c2.53.48,4.53.86,11.06,1.6a133.24,133.24,0,0,0,19.38.28c3.25-.11,6.59-.22,9.88-.21,3.48,0,7-.18,10.72-.37S110.81,138.7,114.47,138.7Zm190.1-67.52Z"/><path class="cls-5" d="M71.64,63.41A19.87,19.87,0,0,1,66,62.62a28.07,28.07,0,0,1-7.7-4l-1.79-1.19c-.59-.37-1.19-.73-1.79-1.09-2.25-1.33-4.58-2.72-6.23-5-1.36-1.91-1.79-5,.1-7,1.45-1.5,3.51-1.65,5.33-1.61l.56,0c16,.61,32.24,1.29,48,1.94l22.62.93L188,48.16l60.61,2.49,1.95.08q20.49.85,41,1.72l-.12,2.75q-20.47-.87-41-1.71l-2-.08-60.61-2.5L125,48.34l-22.62-.93c-15.72-.66-32-1.33-48-1.95h-.51c-1.22,0-2.57,0-3.27.77s-.55,2.43.15,3.43c1.32,1.85,3.3,3,5.4,4.27.63.37,1.26.75,1.87,1.14l1.84,1.21A25.42,25.42,0,0,0,66.79,60c5,1.49,10.17.24,13.58-1.07a37.78,37.78,0,0,0,6.33-3.44,38.67,38.67,0,0,1,7-3.71A36.41,36.41,0,0,1,107.22,50c13.33.39,18.6,3.68,18.81,3.82l-1.48,2.32s-5-3-17.41-3.38a33.68,33.68,0,0,0-12.53,1.59,34.79,34.79,0,0,0-6.44,3.45,39.77,39.77,0,0,1-6.81,3.68A27.61,27.61,0,0,1,71.64,63.41Z"/><path class="cls-6" d="M279.72,121.84l-1.19-2.49c6.51-3.1,10.39-5.53,11.52-7.23.5-.75-.94-1.86-4.12-4.06-.62-.42-1.28-.88-2-1.37l-1.5-1c-3.36-2.29-6.53-4.45-6.41-10.07a9.87,9.87,0,0,1,1.82-5.93,9.3,9.3,0,0,1,5.22-3.15,27,27,0,0,1,7.85-.37,24.66,24.66,0,0,0,6.86-.27c2.8-.65,6.1-6.23,8.1-10.86a9.72,9.72,0,0,0-1-.49A7.89,7.89,0,0,1,302.55,73c-1.67-1.66-.61-5.91,2.08-13.68l.15-.46a3,3,0,0,0,.15-2.31c-.29-.45-1.1-.75-2.33-.87-2.5-.25-5.1-.32-7.61-.39-1.21,0-2.41-.06-3.61-.12l.12-2.75c1.18,0,2.37.08,3.57.11,2.56.07,5.2.14,7.8.4,2.17.22,3.6.91,4.38,2.13s.81,2.77.14,4.7l-.15.46c-2.16,6.23-3.06,9.89-2.69,10.88a6.5,6.5,0,0,0,1.54.87c1.12.51,3.44,1.57,2.42,3.94-1.46,3.42-5.38,11.51-10.07,12.61a26.86,26.86,0,0,1-7.63.34,24.62,24.62,0,0,0-7.06.29,6.65,6.65,0,0,0-3.68,2.16,7.18,7.18,0,0,0-1.25,4.3c-.08,4.13,2,5.56,5.2,7.73q.76.51,1.56,1.08l1.92,1.34c3.55,2.46,6.91,4.77,4.84,7.87C290.89,115.83,286.88,118.43,279.72,121.84Z"/><path class="cls-6" d="M149.48,151.42a66.84,66.84,0,0,1-10-4.14,64.68,64.68,0,0,0-9.83-4c-8.15-2.33-17.2-1.86-25.95-1.4-3.59.18-7.31.38-10.87.37-3.21,0-6.56.1-9.78.21a136.14,136.14,0,0,1-19.78-.29c-6.63-.76-8.68-1.15-11.27-1.64l-.26-.05.52-2.71.26.05c2.53.48,4.53.86,11.06,1.6a133.26,133.26,0,0,0,19.38.28c3.25-.11,6.61-.22,9.88-.21,3.46,0,7-.18,10.72-.37,9-.47,18.25-1,26.85,1.51a66.27,66.27,0,0,1,10.26,4.2,65.49,65.49,0,0,0,9.61,4Z"/><rect class="cls-7" x="129.35" y="51.87" width="2.76" height="12.65" transform="matrix(0.51, -0.86, 0.86, 0.51, 14.12, 141.14)"/><g id="Group-Copy-8"><circle id="Oval-Copy-2" class="cls-8" cx="55.46" cy="54.73" r="5.78"/><circle id="Oval-Copy-2-2" data-name="Oval-Copy-2" class="cls-9" cx="55.46" cy="54.73" r="5.78"/><circle id="Oval" class="cls-10" cx="55.46" cy="54.73" r="3.86"/><path class="cls-11" d="M55.46,59a4.27,4.27,0,1,1,4.27-4.27A4.27,4.27,0,0,1,55.46,59Zm0-7.71a3.44,3.44,0,1,0,3.44,3.44A3.44,3.44,0,0,0,55.46,51.29Z"/><circle id="Oval-Copy" class="cls-11" cx="55.46" cy="54.73" r="1.93"/></g><g id="Group-Copy-8-2" data-name="Group-Copy-8"><circle id="Oval-Copy-2-3" data-name="Oval-Copy-2" class="cls-8" cx="35.8" cy="135.35" r="5.78"/><circle id="Oval-Copy-2-4" data-name="Oval-Copy-2" class="cls-9" cx="35.8" cy="135.35" r="5.78"/><circle id="Oval-2" data-name="Oval" class="cls-10" cx="35.8" cy="135.35" r="3.86"/><path class="cls-11" d="M35.8,139.62a4.27,4.27,0,1,1,4.27-4.27A4.27,4.27,0,0,1,35.8,139.62Zm0-7.71a3.44,3.44,0,1,0,3.44,3.44A3.45,3.45,0,0,0,35.8,131.91Z"/><circle id="Oval-Copy-2-5" data-name="Oval-Copy" class="cls-11" cx="35.8" cy="135.35" r="1.93"/></g><g id="Group-Copy-8-3" data-name="Group-Copy-8"><circle id="Oval-Copy-2-6" data-name="Oval-Copy-2" class="cls-8" cx="288.54" cy="53.75" r="5.78"/><circle id="Oval-Copy-2-7" data-name="Oval-Copy-2" class="cls-9" cx="288.54" cy="53.75" r="5.78"/><circle id="Oval-3" data-name="Oval" class="cls-10" cx="288.54" cy="53.75" r="3.86"/><path class="cls-11" d="M288.54,58a4.27,4.27,0,1,1,4.27-4.27A4.27,4.27,0,0,1,288.54,58Zm0-7.71A3.44,3.44,0,1,0,292,53.75,3.45,3.45,0,0,0,288.54,50.31Z"/><circle id="Oval-Copy-3" data-name="Oval-Copy" class="cls-11" cx="288.54" cy="53.75" r="1.93"/></g><path class="cls-11" d="M191,95.33c-6.12-3.56-37.4-22-55.5-32.73l1.4-2.38C155,70.92,186.26,89.39,192.37,93Z"/><path class="cls-11" d="M220.5,52.26l-32.65-1.35L125,48.34l-22.62-.93c-15.72-.66-32-1.33-48-1.95l.11-2.76c16,.62,32.25,1.3,48,1.95l22.62.93L188,48.16l32.64,1.34Z"/><path class="cls-3" d="M174.38,155.34c-1.33,0-2.68,0-4-.11a94.37,94.37,0,0,1-20.87-3.81,1.38,1.38,0,1,1,.77-2.65,91.42,91.42,0,0,0,20.25,3.7,97.16,97.16,0,0,0,13.54-.36c1-.08,2-.14,3-.2a48.45,48.45,0,0,0,9.51-1.23c26.5-7.42,53.33-17.67,82-31.33a1.38,1.38,0,0,1,1.19,2.49c-28.85,13.74-55.83,24-82.48,31.5a50.27,50.27,0,0,1-10.07,1.32l-2.9.2C181.28,155.11,177.89,155.34,174.38,155.34Z"/><g id="Group-Copy-7"><circle id="Oval-Copy-2-8" data-name="Oval-Copy-2" class="cls-8" cx="77.09" cy="45.4" r="5.78"/><circle id="Oval-Copy-2-9" data-name="Oval-Copy-2" class="cls-12" cx="77.09" cy="45.4" r="5.78"/><circle id="Oval-4" data-name="Oval" class="cls-10" cx="77.09" cy="45.4" r="3.86"/><path class="cls-13" d="M77.09,49.66a4.27,4.27,0,1,1,4.27-4.26A4.27,4.27,0,0,1,77.09,49.66Zm0-7.71a3.45,3.45,0,1,0,3.44,3.45A3.45,3.45,0,0,0,77.09,42Z"/><circle id="Oval-Copy-4" data-name="Oval-Copy" class="cls-13" cx="77.09" cy="45.4" r="1.93"/></g><g id="Group-6"><rect id="Rectangle-2" x="134.33" y="58.37" width="1.45" height="1.45" transform="translate(13.84 142.98) rotate(-58.32)"/><rect id="Rectangle-2-Copy-4" class="cls-10" x="133.57" y="59.6" width="1.45" height="1.45" transform="translate(12.43 142.92) rotate(-58.32)"/><rect id="Rectangle-2-Copy-7" x="132.81" y="60.83" width="1.45" height="1.45" transform="matrix(0.53, -0.85, 0.85, 0.53, 11.02, 142.86)"/><rect id="Rectangle-2-Copy" class="cls-10" x="135.56" y="59.13" width="1.45" height="1.45" transform="translate(13.78 144.39) rotate(-58.32)"/><rect id="Rectangle-2-Copy-5" x="134.8" y="60.36" width="1.45" height="1.45" transform="translate(12.37 144.33) rotate(-58.32)"/><rect id="Rectangle-2-Copy-9" class="cls-10" x="134.04" y="61.59" width="1.45" height="1.45" transform="matrix(0.53, -0.85, 0.85, 0.53, 10.96, 144.26)"/><rect id="Rectangle-2-Copy-3" x="136.79" y="59.88" width="1.45" height="1.45" transform="matrix(0.53, -0.85, 0.85, 0.53, 13.71, 145.79)"/><rect id="Rectangle-2-Copy-6" class="cls-10" x="136.03" y="61.11" width="1.45" height="1.45" transform="translate(12.31 145.73) rotate(-58.32)"/><rect id="Rectangle-2-Copy-10" x="135.27" y="62.34" width="1.45" height="1.45" transform="translate(10.9 145.67) rotate(-58.32)"/></g></g></svg>