<?xml version="1.0" encoding="UTF-8"?>
<svg width="160px" height="96px" viewBox="0 0 160 96" version="1.1" xmlns="http://www.w3.org/2000/svg" xmlns:xlink="http://www.w3.org/1999/xlink">
    <!-- Generator: Sketch 58 (84663) - https://sketch.com -->
    <title>circuit-gs-Monza-L-Eng</title>
    <desc>Created with Sketch.</desc>
    <defs>
        <linearGradient x1="50%" y1="23.3035083%" x2="50%" y2="112.667183%" id="linearGradient-1">
            <stop stop-color="#1B94E2" offset="0%"></stop>
            <stop stop-color="#40D8AB" offset="100%"></stop>
        </linearGradient>
    </defs>
    <g id="circuit-gs-Monza-L-Eng" stroke="none" stroke-width="1" fill="none" fill-rule="evenodd">
        <g id="Italy-Circuit">
            <g id="Group-2" transform="translate(10.240000, 4.266667)">
                <polygon id="Path-36" fill="#E6E6E6" fill-rule="nonzero" points="68.4053153 75.5416483 68.2033331 74.7125639 77.1485042 72.5333333 132.751399 72.5333333 132.751399 73.3866667 77.250951 73.3866667"></polygon>
                <path d="M75.2790076,54.2079382 C75.4664292,54.3786698 75.5345416,54.4391291 75.6067627,54.4991606 C75.6867029,54.5656083 75.7667585,54.6344743 75.8522288,54.709939 C75.9516663,54.7977361 76.2571633,55.0746498 76.279041,55.0942361 C76.9254621,55.6729548 77.2580795,55.8319294 78.0141088,55.8273981 C78.7348002,55.8230786 84.4148151,55.8234634 103.930009,55.8273751 C105.198292,55.8276291 105.198292,55.8276291 106.469571,55.8278808 C123.196473,55.8311786 131.125691,55.8314649 134.015658,55.8273764 C139.7308,55.819291 141.879214,59.7576883 140.543645,65.2552897 C140.241676,66.4982843 140.063531,67.1138709 139.658563,68.0949781 C139.061567,69.5413062 138.237421,70.9196258 137.118373,72.2141039 C136.08022,73.4150058 134.820243,74.502232 133.316522,75.4547198 C129.763537,76.8186013 123.911455,77.5171379 118.183859,77.6757187 C117.115315,77.6778707 109.666194,77.6770243 87.4515068,77.6731412 C65.4133144,77.6692892 57.5948199,77.6684187 56.2938078,77.6705594 C54.6300226,77.6732969 53.6925812,77.4365775 53.1014845,76.5854333 C52.6213986,75.894138 52.6160003,75.6181449 52.7563828,73.8721654 C52.7981889,73.3522107 52.8179101,72.9812101 52.8187766,72.5694657 C52.1129867,72.8843658 51.0899504,73.6743752 50.1397771,74.6042829 C48.1851888,76.444532 46.5414783,77.3069514 44.3513197,77.6594574 C41.7734962,77.9316852 37.3946253,77.845454 31.1759408,77.3710024 C24.355816,76.2667741 19.9012916,73.0094735 17.2407305,68.2127373 C15.8359946,65.6801334 15.3245533,63.8976736 14.5841763,60.2135416 C14.1118781,57.8633753 13.107931,50.6746145 11.559603,38.5718892 C11.4950454,37.6009904 11.2889918,37.1639864 10.986765,36.9928706 C9.57172983,36.6323967 8.53348631,35.6602407 7.94699113,34.196699 C5.59718937,28.4452132 4.20114282,24.6588313 0.903022681,14.9079295 C-1.40677304,8.0790117 1.0965034,4.63845622 7.36735427,3.3277953 C8.6180249,3.06639455 9.76567988,2.93105721 12.0509854,2.73047015 C14.2418184,2.53855024 15.1094135,2.4455801 16.13192,2.27205884 C20.2884645,1.68253663 22.9728727,2.7057758 24.7078467,4.92502347 C25.1709577,5.51740013 25.9993406,6.95769364 25.9875046,6.94152754 C26.315368,7.47897258 29.3194935,12.7428462 30.3925541,14.5821317 C30.5256289,14.8102294 30.6564214,15.0337619 30.7850613,15.252927 C31.4394157,16.3677563 32.0342509,17.3631079 32.570839,18.2383744 C32.8218919,18.6478844 33.0806416,19.0726252 33.4414255,19.6667546 C33.5369209,19.8240138 33.8656311,20.365598 33.8855057,20.3983367 C34.0630917,20.6908688 34.1996434,20.9156042 34.332646,21.1341499 C34.4620717,21.3468181 34.5822214,21.5438866 34.6976832,21.7328341 C37.0884868,25.6452675 38.5419517,27.7720698 39.3912321,28.4777885 C41.7910634,30.4719541 62.8328083,48.7562604 65.4643854,51.1924847 C67.4368134,53.0184912 68.0232529,53.2273374 69.0973194,53.0587805 C69.3419495,53.0206761 69.4653987,53.0037136 69.5947736,52.9910361 C72.5007022,52.5083363 73.8481507,52.9054537 75.2790076,54.2079382 Z M53.1611528,72.451644 C53.1671553,72.452168 53.1716684,72.4521685 53.1745717,72.4518214 C53.1732199,72.451983 53.1718502,72.4521547 53.1704628,72.4523366 L53.1611528,72.451644 Z M55.245485,75.0448282 C55.4685997,75.0874107 55.8115197,75.1113494 56.2895956,75.1105628 C57.5932316,75.1084179 65.4032923,75.1092874 87.2137176,75.1130995 C109.650768,75.1170216 117.113337,75.1178694 118.145761,75.1162142 C123.495531,74.9676981 129.054808,74.3107703 132.058658,73.2205026 C133.300036,72.4203725 134.332599,71.5221303 135.181713,70.5399036 C136.821742,68.6427703 137.464599,67.0853352 138.056001,64.6509497 C139.040807,60.597193 137.832398,58.3819793 134.01928,58.3873738 C131.127142,58.3914654 123.198997,58.3911791 106.469066,58.3878807 C105.197781,58.387629 105.197781,58.387629 103.929496,58.3873751 C84.4735637,58.3834752 78.7410915,58.3830869 78.029452,58.3873521 C76.5477222,58.3962329 75.6501371,57.967232 74.5714859,57.0015524 C74.5383559,56.9718923 74.2422079,56.7034528 74.1578481,56.6289686 C73.8600164,56.3761426 73.7696172,56.2959007 73.6139468,56.1540989 C72.7001036,55.3221991 72.1384514,55.1586586 69.9725668,55.523407 C69.79187,55.5433238 69.706606,55.5547364 69.5647837,55.5767826 C67.5988972,55.8852651 66.2438746,55.4027068 63.7252627,53.0710619 C61.1305994,50.6690112 40.1222447,32.4137193 37.7551186,30.4467305 C36.5829632,29.4727153 35.1113456,27.3193508 32.5132499,23.0676942 C32.3969267,22.8773368 32.2759788,22.6789593 32.1457857,22.46503 C32.0122088,22.2455407 31.8752081,22.0200664 31.697174,21.726796 C31.6771682,21.6938412 31.3485898,21.1524742 31.2532717,20.9955069 C30.8942053,20.404206 30.6371071,19.9821761 30.3883292,19.5763771 C29.8423053,18.6857192 29.2393424,17.6767673 28.5772752,16.5487975 C28.4474732,16.3276527 28.3155449,16.102179 28.1813554,15.8721707 C27.0964361,14.0125587 24.1021867,8.76599008 23.8561884,8.3546564 C23.6851053,8.0834212 22.9860001,6.87904839 22.6910276,6.50174185 C21.5316986,5.01881575 19.7592861,4.34320986 16.5264167,4.801232 C15.4466004,4.98500419 14.5359426,5.08258888 12.4905629,5.26175626 C10.0898656,5.47244483 9.0099875,5.59978957 7.89109846,5.83364685 C3.00995788,6.85384656 1.55683307,8.85105169 3.32806054,14.0876909 C6.61019711,23.7913372 7.98829943,27.5290504 10.320053,33.2364367 C10.6262341,34.0004428 11.0555051,34.3892957 11.6877941,34.5284826 C13.2678887,35.1684171 13.9785638,36.4731696 14.1038428,38.2856067 C15.6388607,50.2828847 16.639809,57.4491114 17.0939966,59.7091587 C17.7838803,63.1420352 18.2428367,64.7415761 19.4794231,66.9710225 C21.7609731,71.0844381 25.5358659,73.8520944 31.425584,74.8226023 C37.4420409,75.2801875 41.6604718,75.3641283 43.9789808,75.1263769 C45.621047,74.8561421 46.7989467,74.2335951 48.3668946,72.7577014 C49.5113561,71.6372422 50.7600555,70.6752661 51.8138882,70.2147417 C53.7270088,69.3787089 55.3788065,70.2153394 55.3788065,72.5409596 C55.3788065,73.0454143 55.3559335,73.4830126 55.3081479,74.0773357 C55.2493076,74.8091506 55.243183,74.8897673 55.245485,75.0448282 Z M23.9219416,8.45382701 C23.9130352,8.44166218 23.8994423,8.4210761 23.8818153,8.39330749 L23.9219416,8.45382701 Z" id="Path-35" fill="#EBEBEB" fill-rule="nonzero"></path>
                <path d="M75.2790076,52.9279382 C75.4664292,53.0986698 75.5345416,53.1591291 75.6067627,53.2191606 C75.6867029,53.2856083 75.7667585,53.3544743 75.8522288,53.429939 C75.9516663,53.5177361 76.2571633,53.7946498 76.279041,53.8142361 C76.9254621,54.3929548 77.2580795,54.5519294 78.0141088,54.5473981 C78.7348002,54.5430786 84.4148151,54.5434634 103.930009,54.5473751 C105.198292,54.5476291 105.198292,54.5476291 106.469571,54.5478808 C123.196473,54.5511786 131.125691,54.5514649 134.015658,54.5473764 C139.7308,54.539291 141.879214,58.4776883 140.543645,63.9752897 C140.241676,65.2182843 140.063531,65.8338709 139.658563,66.8149781 C139.061567,68.2613062 138.237421,69.6396258 137.118373,70.9341039 C136.08022,72.1350058 134.820243,73.222232 133.316522,74.1747198 C129.763537,75.5386013 123.911455,76.2371379 118.183859,76.3957187 C117.115315,76.3978707 109.666194,76.3970243 87.4515068,76.3931412 C65.4133144,76.3892892 57.5948199,76.3884187 56.2938078,76.3905594 C54.6300226,76.3932969 53.6925812,76.1565775 53.1014845,75.3054333 C52.6213986,74.614138 52.6160003,74.3381449 52.7563828,72.5921654 C52.7981889,72.0722107 52.8179101,71.7012101 52.8187766,71.2894657 C52.1129867,71.6043658 51.0899504,72.3943752 50.1397771,73.3242829 C48.1851888,75.164532 46.5414783,76.0269514 44.3513197,76.3794574 C41.7734962,76.6516852 37.3946253,76.565454 31.1759408,76.0910024 C24.355816,74.9867741 19.9012916,71.7294735 17.2407305,66.9327373 C15.8359946,64.4001334 15.3245533,62.6176736 14.5841763,58.9335416 C14.1118781,56.5833753 13.107931,49.3946145 11.559603,37.2918892 C11.4950454,36.3209904 11.2889918,35.8839864 10.986765,35.7128706 C9.57172983,35.3523967 8.53348631,34.3802407 7.94699113,32.916699 C5.59718937,27.1652132 4.20114282,23.3788313 0.903022681,13.6279295 C-1.40677304,6.7990117 1.0965034,3.35845622 7.36735427,2.0477953 C8.6180249,1.78639455 9.76567988,1.65105721 12.0509854,1.45047015 C14.2418184,1.25855024 15.1094135,1.1655801 16.13192,0.992058844 C20.2884645,0.402536628 22.9728727,1.4257758 24.7078467,3.64502347 C25.1709577,4.23740013 25.9993406,5.67769364 25.9875046,5.66152754 C26.315368,6.19897258 29.3194935,11.4628462 30.3925541,13.3021317 C30.5256289,13.5302294 30.6564214,13.7537619 30.7850613,13.972927 C31.4394157,15.0877563 32.0342509,16.0831079 32.570839,16.9583744 C32.8218919,17.3678844 33.0806416,17.7926252 33.4414255,18.3867546 C33.5369209,18.5440138 33.8656311,19.085598 33.8855057,19.1183367 C34.0630917,19.4108688 34.1996434,19.6356042 34.332646,19.8541499 C34.4620717,20.0668181 34.5822214,20.2638866 34.6976832,20.4528341 C37.0884868,24.3652675 38.5419517,26.4920698 39.3912321,27.1977885 C41.7910634,29.1919541 62.8328083,47.4762604 65.4643854,49.9124847 C67.4368134,51.7384912 68.0232529,51.9473374 69.0973194,51.7787805 C69.3419495,51.7406761 69.4653987,51.7237136 69.5947736,51.7110361 C72.5007022,51.2283363 73.8481507,51.6254537 75.2790076,52.9279382 Z M53.1611528,71.171644 C53.1671553,71.172168 53.1716684,71.1721685 53.1745717,71.1718214 C53.1732199,71.171983 53.1718502,71.1721547 53.1704628,71.1723366 L53.1611528,71.171644 Z M55.245485,73.7648282 C55.4685997,73.8074107 55.8115197,73.8313494 56.2895956,73.8305628 C57.5932316,73.8284179 65.4032923,73.8292874 87.2137176,73.8330995 C109.650768,73.8370216 117.113337,73.8378694 118.145761,73.8362142 C123.495531,73.6876981 129.054808,73.0307703 132.058658,71.9405026 C133.300036,71.1403725 134.332599,70.2421303 135.181713,69.2599036 C136.821742,67.3627703 137.464599,65.8053352 138.056001,63.3709497 C139.040807,59.317193 137.832398,57.1019793 134.01928,57.1073738 C131.127142,57.1114654 123.198997,57.1111791 106.469066,57.1078807 C105.197781,57.107629 105.197781,57.107629 103.929496,57.1073751 C84.4735637,57.1034752 78.7410915,57.1030869 78.029452,57.1073521 C76.5477222,57.1162329 75.6501371,56.687232 74.5714859,55.7215524 C74.5383559,55.6918923 74.2422079,55.4234528 74.1578481,55.3489686 C73.8600164,55.0961426 73.7696172,55.0159007 73.6139468,54.8740989 C72.7001036,54.0421991 72.1384514,53.8786586 69.9725668,54.243407 C69.79187,54.2633238 69.706606,54.2747364 69.5647837,54.2967826 C67.5988972,54.6052651 66.2438746,54.1227068 63.7252627,51.7910619 C61.1305994,49.3890112 40.1222447,31.1337193 37.7551186,29.1667305 C36.5829632,28.1927153 35.1113456,26.0393508 32.5132499,21.7876942 C32.3969267,21.5973368 32.2759788,21.3989593 32.1457857,21.18503 C32.0122088,20.9655407 31.8752081,20.7400664 31.697174,20.446796 C31.6771682,20.4138412 31.3485898,19.8724742 31.2532717,19.7155069 C30.8942053,19.124206 30.6371071,18.7021761 30.3883292,18.2963771 C29.8423053,17.4057192 29.2393424,16.3967673 28.5772752,15.2687975 C28.4474732,15.0476527 28.3155449,14.822179 28.1813554,14.5921707 C27.0964361,12.7325587 24.1021867,7.48599008 23.8561884,7.0746564 C23.6851053,6.8034212 22.9860001,5.59904839 22.6910276,5.22174185 C21.5316986,3.73881575 19.7592861,3.06320986 16.5264167,3.521232 C15.4466004,3.70500419 14.5359426,3.80258888 12.4905629,3.98175626 C10.0898656,4.19244483 9.0099875,4.31978957 7.89109846,4.55364685 C3.00995788,5.57384656 1.55683307,7.57105169 3.32806054,12.8076909 C6.61019711,22.5113372 7.98829943,26.2490504 10.320053,31.9564367 C10.6262341,32.7204428 11.0555051,33.1092957 11.6877941,33.2484826 C13.2678887,33.8884171 13.9785638,35.1931696 14.1038428,37.0056067 C15.6388607,49.0028847 16.639809,56.1691114 17.0939966,58.4291587 C17.7838803,61.8620352 18.2428367,63.4615761 19.4794231,65.6910225 C21.7609731,69.8044381 25.5358659,72.5720944 31.425584,73.5426023 C37.4420409,74.0001875 41.6604718,74.0841283 43.9789808,73.8463769 C45.621047,73.5761421 46.7989467,72.9535951 48.3668946,71.4777014 C49.5113561,70.3572422 50.7600555,69.3952661 51.8138882,68.9347417 C53.7270088,68.0987089 55.3788065,68.9353394 55.3788065,71.2609596 C55.3788065,71.7654143 55.3559335,72.2030126 55.3081479,72.7973357 C55.2493076,73.5291506 55.243183,73.6097673 55.245485,73.7648282 Z M23.9219416,7.17382701 C23.9130352,7.16166218 23.8994423,7.1410761 23.8818153,7.11330749 L23.9219416,7.17382701 Z" id="Path-35" fill="#F2F2F2" fill-rule="nonzero"></path>
                <path d="M74.8481882,53.401219 C75.0422262,53.5779775 75.1159103,53.6433825 75.1976594,53.7113338 C75.27234,53.7734097 75.3476613,53.8382031 75.4286336,53.9096964 C75.5243017,53.9941653 75.8274615,54.2689604 75.8521522,54.2910652 C76.6066309,54.9665241 77.0804902,55.1930053 78.0179446,55.1873866 C78.736373,55.1830807 84.4295022,55.1834664 103.929881,55.1873751 C105.198164,55.187629 105.198164,55.187629 106.469445,55.1878808 C123.197104,55.1911787 131.126054,55.1914651 134.016564,55.1873758 C139.256199,55.1799631 141.169612,58.6875645 139.921734,63.8242047 C139.627083,65.0370747 139.455945,65.6284489 139.066978,66.5707917 C138.495202,67.9560206 137.706307,69.2753842 136.634208,70.5155538 C135.636962,71.669135 134.424701,72.7151879 132.974055,73.634057 C129.624649,74.9070955 123.825894,75.5992666 118.182571,75.75572 C117.11482,75.7578704 109.662337,75.7570236 87.4516187,75.7531412 C65.4108089,75.7492887 57.5944228,75.7484185 56.2927547,75.7505602 C54.8288282,75.7529689 54.0559451,75.5578032 53.6271543,74.9403699 C53.2764403,74.4353626 53.2713156,74.173352 53.3943241,72.643458 C53.4383469,72.0959329 53.4588065,71.7045079 53.4588065,71.2609596 C53.4588065,70.4421076 53.3200995,70.371853 52.5827212,70.694087 C51.7894787,71.0407336 50.7021376,71.8784021 49.7010632,72.8583106 C47.8358918,74.6143736 46.3072638,75.4164117 44.2146567,75.7522324 C41.7542831,76.0101915 37.4077823,75.9245978 31.2246278,75.4528569 C24.6565037,74.3872596 20.3679261,71.2513049 17.8004036,66.6223086 C16.4377051,64.1654941 15.9393851,62.428764 15.2116314,58.8074459 C14.7437392,56.479204 13.7401271,49.2928419 12.190555,37.1702283 C12.1174328,36.0246568 11.7806849,35.3733193 11.2107497,35.1088987 C9.96676435,34.8140386 9.06316323,33.9814868 8.53945226,32.6746457 C6.19496689,26.9361725 4.8034064,23.1619578 1.50928215,13.4228698 C-0.665871511,6.9920217 1.57486702,3.91230381 7.49829032,2.67425819 C8.71601555,2.4197433 9.84672631,2.28640412 12.1069447,2.08801902 C14.3153495,1.8945599 15.1937102,1.80043612 16.2217917,1.62571733 C20.1561699,1.06770494 22.6125792,2.00403579 24.2036419,4.03920306 C24.6313264,4.58626471 25.4529161,6.01474717 25.4711138,6.03960241 C25.7620727,6.52072696 28.7637291,11.7802743 29.8397544,13.6246414 C29.9731079,13.8532168 30.1041843,14.0772346 30.2331148,14.2968946 C30.8893974,15.4150091 31.4862645,16.4137607 32.0252116,17.2928751 C32.2756957,17.7014574 32.5340325,18.1255204 32.8943871,18.7189427 C32.9898381,18.8761289 33.3185154,19.4176588 33.3384227,19.4504515 C33.5161208,19.7431682 33.6527847,19.9680883 33.7859309,20.1868699 C33.9155485,20.3998534 34.0358977,20.5972492 34.1515749,20.7865491 C36.5942015,24.7837884 38.0522046,26.9172312 38.9822037,27.690024 C41.3738587,29.6773954 62.407256,47.9544481 65.0296047,50.382129 C67.1385787,52.3345451 67.917164,52.6118193 69.1965423,52.4110422 C69.4385723,52.3733426 69.5553081,52.3574785 69.6779534,52.3459997 C72.4060145,51.8897033 73.5591392,52.2278197 74.8481882,53.401219 Z M44.0462222,74.4838532 C45.8388348,74.1953322 47.1372979,73.5140567 48.8146219,71.9350199 C49.9082833,70.8642955 51.1031966,69.9437553 52.0701659,69.5211901 C53.5913724,68.8564236 54.7388065,69.4375955 54.7388065,71.2609596 C54.7388065,71.7451122 54.716738,72.1673194 54.6702067,72.7460431 C54.5819461,73.8437662 54.5865239,74.0778118 54.6784938,74.210243 C54.7826728,74.3602546 55.2264394,74.472313 56.2906487,74.4705619 C57.5936286,74.4684181 65.4057978,74.4692878 87.2136058,74.4730995 C109.654624,74.4770223 117.113831,74.4778697 118.163521,74.4759677 C123.618194,74.3245394 129.271045,73.6531126 132.344957,72.5172158 C133.664571,71.6743373 134.76315,70.7227 135.665878,69.6784537 C137.38764,67.686775 138.064536,66.046875 138.677912,63.5220347 C139.750409,59.1073168 138.306998,56.4613072 134.018374,56.4673745 C131.12678,56.4714653 123.198366,56.471179 106.469192,56.4678808 C105.197909,56.467629 105.197909,56.467629 103.929625,56.4673751 C84.4588766,56.4634723 78.7395186,56.4630848 78.0256162,56.4673636 C76.7253115,56.4751571 75.9689683,56.1136627 74.9983746,55.2447233 C74.9680577,55.2175816 74.6695725,54.9470236 74.5814433,54.8692112 C74.2786477,54.6118892 74.1938202,54.536593 74.0449286,54.400966 C72.9851785,53.4362496 72.2253668,53.2150095 69.8662834,53.6122939 C69.7183936,53.6273167 69.6212089,53.6403249 69.466477,53.6643778 C67.7049862,53.9407832 66.5421093,53.5266529 64.1600434,51.3214176 C61.5561516,48.9108235 40.5394494,30.648278 38.164147,28.674495 C37.0727103,27.767554 35.6056309,25.62083 33.0593582,21.4539791 C32.9432504,21.2639743 32.822502,21.065924 32.6925008,20.85231 C32.5590674,20.6330566 32.422179,20.407767 32.2442569,20.1146812 C32.2242839,20.0817804 31.8956726,19.5403591 31.8003102,19.3833189 C31.4408144,18.7913108 31.1833033,18.3686032 30.9339567,17.9618764 C30.3902917,17.0750664 29.7893607,16.0695146 29.1292217,14.9448299 C28.9997103,14.72418 28.8680659,14.4991916 28.7341551,14.269661 C27.6522005,12.4151305 24.655482,7.16423571 24.4054558,6.74616684 C24.2659469,6.5257843 23.5309316,5.25696325 23.1952324,4.82756225 C21.8919922,3.16055577 19.8915807,2.39804156 16.4190401,2.89030391 C15.3623037,3.07014817 14.4624116,3.16657922 12.4347152,3.3441976 C10.0088192,3.55709793 8.91199685,3.68644081 7.76016242,3.92718396 C2.53159426,5.01999898 0.815931543,7.37804169 2.72180108,13.0127505 C6.00793354,22.7282108 7.39052192,26.4780911 9.7259832,32.1945145 C10.108203,33.1482582 10.7029553,33.6870115 11.550204,33.8735178 C12.7732148,34.3749992 13.3648764,35.4738 13.4640813,37.0482452 C15.0045192,49.0892967 16.0074613,56.2708614 16.4665415,58.5552544 C17.1690486,62.0509448 17.6411262,63.6962154 18.9197499,66.0014512 C21.2977252,70.2887122 25.246353,73.1797969 31.3492985,74.1786471 C37.4468459,74.6431359 41.7193278,74.7268419 44.0462222,74.4838532 Z M24.4383324,6.79575214 C24.4336974,6.78942147 24.426503,6.77853859 24.4169946,6.76357006 L24.4383324,6.79575214 Z" id="Path-35" fill="url(#linearGradient-1)" fill-rule="nonzero"></path>
                <path d="M57.4825326,75.7498232 L57.4825326,74.4698233 C60.8860697,74.4688315 68.2007347,74.4697763 87.2136058,74.4730995 L87.4518425,74.4731412 C93.8921445,74.474267 96.5151652,74.4747157 99.7390155,74.4752267 L99.7390155,75.7552267 C96.5149529,75.7547157 93.8919281,75.7542669 87.4516187,75.7531412 L87.213382,75.7530995 C68.2009586,75.7497764 60.8861281,75.7488315 57.4825326,75.7498232 Z" id="Path" fill="#FFB819" fill-rule="nonzero"></path>
                <path d="M74.8481882,53.401219 C75.0422262,53.5779775 75.1159103,53.6433825 75.1976594,53.7113338 C75.27234,53.7734097 75.3476613,53.8382031 75.4286336,53.9096964 C75.5243017,53.9941653 75.8274615,54.2689604 75.8521522,54.2910652 C76.6066309,54.9665241 77.0804902,55.1930053 78.0179446,55.1873866 C78.736373,55.1830807 84.4295022,55.1834664 103.929881,55.1873751 C105.198164,55.187629 105.198164,55.187629 106.469445,55.1878808 C123.197104,55.1911787 131.126054,55.1914651 134.016564,55.1873758 C139.256199,55.1799631 141.169612,58.6875645 139.921734,63.8242047 C139.627083,65.0370747 139.455945,65.6284489 139.066978,66.5707917 C138.495202,67.9560206 137.706307,69.2753842 136.634208,70.5155538 C135.636962,71.669135 134.424701,72.7151879 132.974055,73.634057 C129.624649,74.9070955 123.825894,75.5992666 118.182571,75.75572 C117.836246,75.7564174 116.506045,75.7567882 114.236171,75.7567882 L114.236156,74.4767882 C116.504512,74.4767612 117.834983,74.4764174 118.163521,74.4759677 C123.618194,74.3245394 129.271045,73.6531126 132.344957,72.5172158 C133.664571,71.6743373 134.76315,70.7227 135.665878,69.6784537 C137.38764,67.686775 138.064536,66.046875 138.677912,63.5220347 C139.750409,59.1073168 138.306998,56.4613072 134.018374,56.4673745 C131.12678,56.4714653 123.198366,56.471179 106.469192,56.4678808 C105.197909,56.467629 105.197909,56.467629 103.929625,56.4673751 C84.4588766,56.4634723 78.7395186,56.4630848 78.0256162,56.4673636 C76.7253115,56.4751571 75.9689683,56.1136627 74.9983746,55.2447233 C74.9680577,55.2175816 74.6695725,54.9470236 74.5814433,54.8692112 C74.509467,54.8056607 74.4436141,54.7490123 74.3794527,54.6956802 C74.2786477,54.6118892 74.1938202,54.536593 74.0449286,54.400966 C72.9851785,53.4362496 72.2253668,53.2150095 69.8662834,53.6122939 C69.7183936,53.6273167 69.6212089,53.6403249 69.466477,53.6643778 C67.7049862,53.9407832 66.5421093,53.5266529 64.1600434,51.3214176 C63.680083,50.8770866 62.7444283,50.041319 61.403877,48.8584048 L62.2507828,47.8986389 C63.5989084,49.0882367 64.5397299,49.9286196 65.0296047,50.382129 C67.1385787,52.3345451 67.917164,52.6118193 69.1965423,52.4110422 C69.4385723,52.3733426 69.5553081,52.3574785 69.6779534,52.3459997 C72.4060145,51.8897033 73.5591392,52.2278197 74.8481882,53.401219 Z" id="Path" fill-opacity="0.37" fill="#000000" fill-rule="nonzero"></path>
                <path d="M8.53945226,32.6746457 C6.19496689,26.9361725 4.8034064,23.1619578 1.50928215,13.4228698 C-0.665871511,6.9920217 1.57486702,3.91230381 7.49829032,2.67425819 C8.71601555,2.4197433 9.84672631,2.28640412 12.1069447,2.08801902 C12.2150349,2.07853869 12.2150349,2.07853869 12.3230199,2.06908029 C14.3153495,1.8945599 15.1937102,1.80043612 16.2217917,1.62571733 C20.1561699,1.06770494 22.6125792,2.00403579 24.2036419,4.03920306 C24.6313264,4.58626471 25.4529161,6.01474717 25.4711138,6.03960241 C25.7620727,6.52072696 28.7637291,11.7802743 29.8397544,13.6246414 C29.9731079,13.8532168 30.1041843,14.0772346 30.2331148,14.2968946 C30.3484015,14.4933096 30.4619028,14.6861215 30.5736703,14.8754016 L29.4714808,15.5262306 C29.3591348,15.3359708 29.2450663,15.1421953 29.1292217,14.9448299 C28.9997103,14.72418 28.8680659,14.4991916 28.7341551,14.269661 C27.6522005,12.4151305 24.655482,7.16423571 24.4054558,6.74616684 C24.2659469,6.5257843 23.5309316,5.25696325 23.1952324,4.82756225 C21.8919922,3.16055577 19.8915807,2.39804156 16.4190401,2.89030391 C15.3623037,3.07014817 14.4624116,3.16657922 12.4347152,3.3441976 C12.3267518,3.35365411 12.3267518,3.35365411 12.2188632,3.36311676 C10.0088192,3.55709793 8.91199685,3.68644081 7.76016242,3.92718396 C2.53159426,5.01999898 0.815931543,7.37804169 2.72180108,13.0127505 C6.00793354,22.7282108 7.39052192,26.4780911 9.7259832,32.1945145 C10.108203,33.1482582 10.7029553,33.6870115 11.550204,33.8735178 L11.6600597,33.9083237 C12.7732148,34.3749992 13.3648764,35.4738 13.4640813,37.0482452 C13.7081127,38.9557516 13.9386341,40.7411866 14.1556444,42.4045426 L12.8864008,42.5701348 C12.6692481,40.9056865 12.4385912,39.1192022 12.190555,37.1702283 C12.1174328,36.0246568 11.7806849,35.3733193 11.2107497,35.1088987 C9.96676435,34.8140386 9.06316323,33.9814868 8.53945226,32.6746457 Z" id="Path" fill-opacity="0.2" fill="#000000" fill-rule="nonzero"></path>
                <path d="M59.7929402,47.4413704 C53.0932471,41.5623645 39.7294769,29.9752227 38.164147,28.674495 C37.0727103,27.767554 35.6056309,25.62083 33.0593582,21.4539791 C32.9432504,21.2639743 32.822502,21.065924 32.6925008,20.85231 C32.5590674,20.6330566 32.422179,20.407767 32.2442569,20.1146812 C32.2242839,20.0817804 31.8956726,19.5403591 31.8003102,19.3833189 C31.4408144,18.7913108 31.1833033,18.3686032 30.9339567,17.9618764 C30.4861783,17.2314738 29.9988343,16.4193123 29.4714808,15.5262306 L30.5736703,14.8754016 C31.0976479,15.7627662 31.5814347,16.5689995 32.0252116,17.2928751 C32.2756957,17.7014574 32.5340325,18.1255204 32.8943871,18.7189427 C32.9898381,18.8761289 33.3185154,19.4176588 33.3384227,19.4504515 C33.5161208,19.7431682 33.6527847,19.9680883 33.7859309,20.1868699 C33.9155485,20.3998534 34.0358977,20.5972492 34.1515749,20.7865491 C36.5942015,24.7837884 38.0522046,26.9172312 38.9822037,27.690024 C40.5562771,28.9980172 53.8844332,40.5541514 60.6033595,46.4495805" id="Path" fill="#FFA019" fill-rule="nonzero"></path>
                <path d="M60.595061,46.4569967 C61.0261934,46.8357264 61.8880781,47.5827531 62.2498354,47.9019709 L61.4116915,48.8635593 C61.0847361,48.575051 60.1740209,47.7706079 59.7897785,47.4329525 L60.595061,46.4569967 Z" id="Path" fill="#FF9219"></path>
                <g id="Group-Copy-7" transform="translate(63.146667, 72.533333)">
                    <circle id="Oval-Copy-2" fill-opacity="0.7" fill="#FFFFFF" cx="2.56" cy="2.56" r="2.56"></circle>
                    <circle id="Oval-Copy-2" fill-opacity="0.2" fill="#D0021B" cx="2.56" cy="2.56" r="2.56"></circle>
                    <circle id="Oval" stroke="#D0021B" stroke-width="0.5" fill="#FFFFFF" cx="2.56" cy="2.56" r="1.70666667"></circle>
                    <circle id="Oval-Copy" fill="#D0021B" cx="2.56" cy="2.56" r="1"></circle>
                </g>
                <path d="M31.721283,86.2045833 L32.3296163,86.2045833 C32.358783,86.4483333 32.6046163,86.6045833 32.958783,86.6045833 C33.2858663,86.6045833 33.5171163,86.44625 33.5171163,86.2191667 C33.5171163,86.0275 33.3671163,85.9170833 32.9983663,85.8379167 L32.6066996,85.7545833 C32.058783,85.64 31.790033,85.3545833 31.790033,84.89625 C31.790033,84.3295833 32.246283,83.9566667 32.940033,83.9566667 C33.602533,83.9566667 34.071283,84.3275 34.090033,84.8629167 L33.4983663,84.8629167 C33.4691996,84.6254167 33.2483663,84.4670833 32.9441996,84.4670833 C32.6296163,84.4670833 32.421283,84.6129167 32.421283,84.8420833 C32.421283,85.0275 32.565033,85.13375 32.9171163,85.20875 L33.2796163,85.2858333 C33.883783,85.4129167 34.1441996,85.6733333 34.1441996,86.14 C34.1441996,86.74625 33.6796163,87.1170833 32.9254496,87.1170833 C32.208783,87.1170833 31.7441996,86.765 31.721283,86.2045833 Z M35.4046163,87.04 L35.4046163,84.64625 L35.3671163,84.64625 L34.6296163,85.1545833 L34.6296163,84.5691667 L35.4066996,84.03375 L36.033783,84.03375 L36.033783,87.04 L35.4046163,87.04 Z M30.635033,89.8308333 L30.5083663,89.8308333 C30.365033,89.6516667 30.2833663,89.3858333 30.2833663,89.1 C30.2833663,88.815 30.352533,88.6083333 30.5166996,88.3983333 L30.637533,88.3983333 C30.5166996,88.54 30.4308663,88.8308333 30.4308663,89.1 C30.4308663,89.36 30.4933663,89.5825 30.635033,89.8308333 Z M30.8366996,89.2858333 L30.9883663,89.2858333 C31.0066996,89.4116667 31.1266996,89.4916667 31.297533,89.4916667 C31.4591996,89.4916667 31.5783663,89.4041667 31.5783663,89.285 C31.5783663,89.1825 31.5033663,89.1175 31.337533,89.0758333 L31.1833663,89.0358333 C30.9658663,88.9808333 30.8716996,88.8825 30.8716996,88.7116667 C30.8716996,88.5075 31.042533,88.3691667 31.2966996,88.3691667 C31.5291996,88.3691667 31.702533,88.5075 31.715033,88.7016667 L31.5641996,88.7016667 C31.5433663,88.5783333 31.4416996,88.505 31.2916996,88.505 C31.1316996,88.505 31.0258663,88.585 31.0258663,88.7066667 C31.0258663,88.8008333 31.0916996,88.855 31.257533,88.8975 L31.3833663,88.9308333 C31.632533,88.9933333 31.732533,89.09 31.732533,89.2666667 C31.732533,89.4875 31.5583663,89.6283333 31.2833663,89.6283333 C31.0283663,89.6283333 30.852533,89.4933333 30.8366996,89.2858333 Z M32.3216996,88.8125 C32.1783663,88.8125 32.0783663,88.9175 32.067533,89.0766667 L32.562533,89.0766667 C32.5591996,88.9175 32.4641996,88.8125 32.3216996,88.8125 Z M32.5583663,89.3675 L32.7016996,89.3675 C32.6583663,89.5216667 32.520033,89.6158333 32.3233663,89.6158333 C32.0741996,89.6158333 31.9183663,89.4358333 31.9183663,89.1516667 C31.9183663,88.8691667 32.0766996,88.6858333 32.3233663,88.6858333 C32.5658663,88.6858333 32.7133663,88.8583333 32.7133663,89.1375 L32.7133663,89.1925 L32.067533,89.1925 L32.067533,89.1991667 C32.075033,89.3766667 32.1741996,89.4891667 32.3266996,89.4891667 C32.442533,89.4891667 32.5208663,89.4466667 32.5583663,89.3675 Z M33.6816996,88.9766667 L33.5366996,88.9766667 C33.5133663,88.8875 33.4341996,88.815 33.305033,88.815 C33.1433663,88.815 33.0416996,88.9441667 33.0416996,89.1475 C33.0416996,89.355 33.145033,89.4866667 33.305033,89.4866667 C33.4258663,89.4866667 33.510033,89.4308333 33.5366996,89.3291667 L33.6816996,89.3291667 C33.6558663,89.4941667 33.5216996,89.6158333 33.3058663,89.6158333 C33.0541996,89.6158333 32.8933663,89.4333333 32.8933663,89.1475 C32.8933663,88.8675 33.0533663,88.6858333 33.305033,88.6858333 C33.5233663,88.6858333 33.6566996,88.8166667 33.6816996,88.9766667 Z M33.9533663,88.4691667 L34.0966996,88.4691667 L34.0966996,88.7016667 L34.2966996,88.7016667 L34.2966996,88.8216667 L34.0966996,88.8216667 L34.0966996,89.33 C34.0966996,89.4358333 34.1366996,89.4808333 34.230033,89.4808333 C34.2558663,89.4808333 34.270033,89.48 34.2966996,89.4775 L34.2966996,89.5983333 C34.2683663,89.6033333 34.2408663,89.6066667 34.212533,89.6066667 C34.027533,89.6066667 33.9533663,89.5383333 33.9533663,89.3666667 L33.9533663,88.8216667 L33.8083663,88.8216667 L33.8083663,88.7016667 L33.9533663,88.7016667 L33.9533663,88.4691667 Z M34.882533,89.4866667 C35.052533,89.4866667 35.1483663,89.3633333 35.1483663,89.1508333 C35.1483663,88.9375 35.052533,88.815 34.882533,88.815 C34.712533,88.815 34.6166996,88.9375 34.6166996,89.1508333 C34.6166996,89.3633333 34.712533,89.4866667 34.882533,89.4866667 Z M34.882533,89.6158333 C34.6266996,89.6158333 34.4683663,89.4391667 34.4683663,89.1508333 C34.4683663,88.8616667 34.6266996,88.6858333 34.882533,88.6858333 C35.1383663,88.6858333 35.2966996,88.8616667 35.2966996,89.1508333 C35.2966996,89.4391667 35.1383663,89.6158333 34.882533,89.6158333 Z M35.5216996,89.6 L35.5216996,88.7016667 L35.6583663,88.7016667 L35.6583663,88.835 L35.6716996,88.835 C35.6983663,88.7475 35.8016996,88.6858333 35.9208663,88.6858333 C35.9441996,88.6858333 35.9741996,88.6875 35.992533,88.69 L35.992533,88.8333333 C35.9808663,88.83 35.9291996,88.825 35.9008663,88.825 C35.7641996,88.825 35.665033,88.9166667 35.665033,89.0433333 L35.665033,89.6 L35.5216996,89.6 Z M36.940033,89.6 L36.940033,88.5641667 L36.9266996,88.5641667 L36.6208663,88.7858333 L36.6208663,88.6275 L36.9408663,88.3975 L37.090033,88.3975 L37.090033,89.6 L36.940033,89.6 Z M37.4191996,89.8308333 C37.5608663,89.5825 37.6233663,89.36 37.6233663,89.1 C37.6233663,88.8291667 37.5383663,88.5391667 37.417533,88.3983333 L37.5391996,88.3983333 C37.7033663,88.6083333 37.7716996,88.815 37.7716996,89.1 C37.7716996,89.3841667 37.690033,89.65 37.5466996,89.8308333 L37.4191996,89.8308333 Z" id="S1-(Sector-1)-Copy" fill="#C6C6C6"></path>
                <path d="M43.3898246,8.55125 L43.998158,8.55125 C44.0273246,8.795 44.273158,8.95125 44.6273246,8.95125 C44.954408,8.95125 45.185658,8.79291667 45.185658,8.56583333 C45.185658,8.37416667 45.035658,8.26375 44.666908,8.18458333 L44.2752413,8.10125 C43.7273246,7.98666667 43.4585746,7.70125 43.4585746,7.24291667 C43.4585746,6.67625 43.9148246,6.30333333 44.6085746,6.30333333 C45.2710746,6.30333333 45.7398246,6.67416667 45.7585746,7.20958333 L45.166908,7.20958333 C45.1377413,6.97208333 44.916908,6.81375 44.6127413,6.81375 C44.298158,6.81375 44.0898246,6.95958333 44.0898246,7.18875 C44.0898246,7.37416667 44.2335746,7.48041667 44.585658,7.55541667 L44.948158,7.6325 C45.5523246,7.75958333 45.8127413,8.02 45.8127413,8.48666667 C45.8127413,9.09291667 45.348158,9.46375 44.5939913,9.46375 C43.8773246,9.46375 43.4127413,9.11166667 43.3898246,8.55125 Z M46.310658,7.28041667 C46.310658,6.69916667 46.7564913,6.30333333 47.4064913,6.30333333 C48.0335746,6.30333333 48.4710746,6.66375 48.4710746,7.18041667 C48.4710746,7.5075 48.2939913,7.78875 47.773158,8.27833333 L47.198158,8.82625 L47.198158,8.86375 L48.5148246,8.86375 L48.5148246,9.38666667 L46.3460746,9.38666667 L46.3460746,8.94708333 L47.3273246,7.98666667 C47.7502413,7.57416667 47.8564913,7.41791667 47.8564913,7.22208333 C47.8564913,6.98041667 47.660658,6.80958333 47.385658,6.80958333 C47.0939913,6.80958333 46.8939913,7.00125 46.8939913,7.27833333 L46.8939913,7.29083333 L46.310658,7.29083333 L46.310658,7.28041667 Z M42.4641996,12.1775 L42.337533,12.1775 C42.1941996,11.9983333 42.112533,11.7325 42.112533,11.4466667 C42.112533,11.1616667 42.1816996,10.955 42.3458663,10.745 L42.4666996,10.745 C42.3458663,10.8866667 42.260033,11.1775 42.260033,11.4466667 C42.260033,11.7066667 42.322533,11.9291667 42.4641996,12.1775 Z M42.6658663,11.6325 L42.817533,11.6325 C42.8358663,11.7583333 42.9558663,11.8383333 43.1266996,11.8383333 C43.2883663,11.8383333 43.407533,11.7508333 43.407533,11.6316667 C43.407533,11.5291667 43.332533,11.4641667 43.1666996,11.4225 L43.012533,11.3825 C42.795033,11.3275 42.7008663,11.2291667 42.7008663,11.0583333 C42.7008663,10.8541667 42.8716996,10.7158333 43.1258663,10.7158333 C43.3583663,10.7158333 43.5316996,10.8541667 43.5441996,11.0483333 L43.3933663,11.0483333 C43.372533,10.925 43.2708663,10.8516667 43.1208663,10.8516667 C42.9608663,10.8516667 42.855033,10.9316667 42.855033,11.0533333 C42.855033,11.1475 42.9208663,11.2016667 43.0866996,11.2441667 L43.212533,11.2775 C43.4616996,11.34 43.5616996,11.4366667 43.5616996,11.6133333 C43.5616996,11.8341667 43.387533,11.975 43.112533,11.975 C42.857533,11.975 42.6816996,11.84 42.6658663,11.6325 Z M44.1508663,11.1591667 C44.007533,11.1591667 43.907533,11.2641667 43.8966996,11.4233333 L44.3916996,11.4233333 C44.3883663,11.2641667 44.2933663,11.1591667 44.1508663,11.1591667 Z M44.387533,11.7141667 L44.5308663,11.7141667 C44.487533,11.8683333 44.3491996,11.9625 44.152533,11.9625 C43.9033663,11.9625 43.747533,11.7825 43.747533,11.4983333 C43.747533,11.2158333 43.9058663,11.0325 44.152533,11.0325 C44.395033,11.0325 44.542533,11.205 44.542533,11.4841667 L44.542533,11.5391667 L43.8966996,11.5391667 L43.8966996,11.5458333 C43.9041996,11.7233333 44.0033663,11.8358333 44.1558663,11.8358333 C44.2716996,11.8358333 44.350033,11.7933333 44.387533,11.7141667 Z M45.5108663,11.3233333 L45.3658663,11.3233333 C45.342533,11.2341667 45.2633663,11.1616667 45.1341996,11.1616667 C44.972533,11.1616667 44.8708663,11.2908333 44.8708663,11.4941667 C44.8708663,11.7016667 44.9741996,11.8333333 45.1341996,11.8333333 C45.255033,11.8333333 45.3391996,11.7775 45.3658663,11.6758333 L45.5108663,11.6758333 C45.485033,11.8408333 45.3508663,11.9625 45.135033,11.9625 C44.8833663,11.9625 44.722533,11.78 44.722533,11.4941667 C44.722533,11.2141667 44.882533,11.0325 45.1341996,11.0325 C45.352533,11.0325 45.4858663,11.1633333 45.5108663,11.3233333 Z M45.782533,10.8158333 L45.9258663,10.8158333 L45.9258663,11.0483333 L46.1258663,11.0483333 L46.1258663,11.1683333 L45.9258663,11.1683333 L45.9258663,11.6766667 C45.9258663,11.7825 45.9658663,11.8275 46.0591996,11.8275 C46.085033,11.8275 46.0991996,11.8266667 46.1258663,11.8241667 L46.1258663,11.945 C46.097533,11.95 46.070033,11.9533333 46.0416996,11.9533333 C45.8566996,11.9533333 45.782533,11.885 45.782533,11.7133333 L45.782533,11.1683333 L45.637533,11.1683333 L45.637533,11.0483333 L45.782533,11.0483333 L45.782533,10.8158333 Z M46.7116996,11.8333333 C46.8816996,11.8333333 46.977533,11.71 46.977533,11.4975 C46.977533,11.2841667 46.8816996,11.1616667 46.7116996,11.1616667 C46.5416996,11.1616667 46.4458663,11.2841667 46.4458663,11.4975 C46.4458663,11.71 46.5416996,11.8333333 46.7116996,11.8333333 Z M46.7116996,11.9625 C46.4558663,11.9625 46.297533,11.7858333 46.297533,11.4975 C46.297533,11.2083333 46.4558663,11.0325 46.7116996,11.0325 C46.967533,11.0325 47.1258663,11.2083333 47.1258663,11.4975 C47.1258663,11.7858333 46.967533,11.9625 46.7116996,11.9625 Z M47.3508663,11.9466667 L47.3508663,11.0483333 L47.487533,11.0483333 L47.487533,11.1816667 L47.5008663,11.1816667 C47.527533,11.0941667 47.6308663,11.0325 47.750033,11.0325 C47.7733663,11.0325 47.8033663,11.0341667 47.8216996,11.0366667 L47.8216996,11.18 C47.810033,11.1766667 47.7583663,11.1716667 47.730033,11.1716667 C47.5933663,11.1716667 47.4941996,11.2633333 47.4941996,11.39 L47.4941996,11.9466667 L47.3508663,11.9466667 Z M48.4741996,11.0825 C48.4741996,10.8691667 48.6358663,10.7158333 48.8591996,10.7158333 C49.075033,10.7158333 49.240033,10.8625 49.240033,11.0533333 C49.240033,11.1783333 49.1833663,11.2758333 48.9858663,11.4875 L48.6966996,11.7983333 L48.6966996,11.8116667 L49.260033,11.8116667 L49.260033,11.9466667 L48.4816996,11.9466667 L48.4816996,11.8433333 L48.897533,11.3891667 C49.052533,11.2208333 49.090033,11.1558333 49.090033,11.0591667 C49.090033,10.9391667 48.987533,10.8466667 48.855033,10.8466667 C48.7141996,10.8466667 48.6191996,10.9408333 48.6191996,11.0825 L48.6191996,11.0833333 L48.4741996,11.0833333 L48.4741996,11.0825 Z M49.4833663,12.1775 C49.625033,11.9291667 49.687533,11.7066667 49.687533,11.4466667 C49.687533,11.1758333 49.602533,10.8858333 49.4816996,10.745 L49.6033663,10.745 C49.767533,10.955 49.8358663,11.1616667 49.8358663,11.4466667 C49.8358663,11.7308333 49.7541996,11.9966667 49.6108663,12.1775 L49.4833663,12.1775 Z" id="S2-(Sector-2)-Copy" fill="#999999"></path>
                <path d="M117.575658,65.2979167 L118.183991,65.2979167 C118.213158,65.5416667 118.458991,65.6979167 118.813158,65.6979167 C119.140241,65.6979167 119.371491,65.5395833 119.371491,65.3125 C119.371491,65.1208333 119.221491,65.0104167 118.852741,64.93125 L118.461075,64.8479167 C117.913158,64.7333333 117.644408,64.4479167 117.644408,63.9895833 C117.644408,63.4229167 118.100658,63.05 118.794408,63.05 C119.456908,63.05 119.925658,63.4208333 119.944408,63.95625 L119.352741,63.95625 C119.323575,63.71875 119.102741,63.5604167 118.798575,63.5604167 C118.483991,63.5604167 118.275658,63.70625 118.275658,63.9354167 C118.275658,64.1208333 118.419408,64.2270833 118.771491,64.3020833 L119.133991,64.3791667 C119.738158,64.50625 119.998575,64.7666667 119.998575,65.2333333 C119.998575,65.8395833 119.533991,66.2104167 118.779825,66.2104167 C118.063158,66.2104167 117.598575,65.8583333 117.575658,65.2979167 Z M121.265241,64.8291667 L121.265241,64.3604167 L121.631908,64.3604167 C121.917325,64.3604167 122.111075,64.19375 122.111075,63.9479167 C122.111075,63.70625 121.923575,63.5520833 121.629825,63.5520833 C121.338158,63.5520833 121.144408,63.7166667 121.127741,63.9770833 L120.546491,63.9770833 C120.567325,63.4083333 120.990241,63.05 121.646491,63.05 C122.263158,63.05 122.706908,63.3875 122.706908,63.8604167 C122.706908,64.2083333 122.488158,64.4791667 122.152741,64.5479167 L122.152741,64.5854167 C122.565241,64.63125 122.823575,64.90625 122.823575,65.3020833 C122.823575,65.8291667 122.327741,66.2104167 121.642325,66.2104167 C120.971491,66.2104167 120.517325,65.8395833 120.490241,65.2729167 L121.092325,65.2729167 C121.111075,65.5270833 121.325658,65.6875 121.648575,65.6875 C121.963158,65.6875 122.181908,65.5104167 122.181908,65.2541667 C122.181908,64.9916667 121.975658,64.8291667 121.638158,64.8291667 L121.265241,64.8291667 Z M116.684616,68.9241667 L116.55795,68.9241667 C116.414616,68.745 116.33295,68.4791667 116.33295,68.1933333 C116.33295,67.9083333 116.402116,67.7016667 116.566283,67.4916667 L116.687116,67.4916667 C116.566283,67.6333333 116.48045,67.9241667 116.48045,68.1933333 C116.48045,68.4533333 116.54295,68.6758333 116.684616,68.9241667 Z M116.886283,68.3791667 L117.03795,68.3791667 C117.056283,68.505 117.176283,68.585 117.347116,68.585 C117.508783,68.585 117.62795,68.4975 117.62795,68.3783333 C117.62795,68.2758333 117.55295,68.2108333 117.387116,68.1691667 L117.23295,68.1291667 C117.01545,68.0741667 116.921283,67.9758333 116.921283,67.805 C116.921283,67.6008333 117.092116,67.4625 117.346283,67.4625 C117.578783,67.4625 117.752116,67.6008333 117.764616,67.795 L117.613783,67.795 C117.59295,67.6716667 117.491283,67.5983333 117.341283,67.5983333 C117.181283,67.5983333 117.07545,67.6783333 117.07545,67.8 C117.07545,67.8941667 117.141283,67.9483333 117.307116,67.9908333 L117.43295,68.0241667 C117.682116,68.0866667 117.782116,68.1833333 117.782116,68.36 C117.782116,68.5808333 117.60795,68.7216667 117.33295,68.7216667 C117.07795,68.7216667 116.902116,68.5866667 116.886283,68.3791667 Z M118.371283,67.9058333 C118.22795,67.9058333 118.12795,68.0108333 118.117116,68.17 L118.612116,68.17 C118.608783,68.0108333 118.513783,67.9058333 118.371283,67.9058333 Z M118.60795,68.4608333 L118.751283,68.4608333 C118.70795,68.615 118.569616,68.7091667 118.37295,68.7091667 C118.123783,68.7091667 117.96795,68.5291667 117.96795,68.245 C117.96795,67.9625 118.126283,67.7791667 118.37295,67.7791667 C118.61545,67.7791667 118.76295,67.9516667 118.76295,68.2308333 L118.76295,68.2858333 L118.117116,68.2858333 L118.117116,68.2925 C118.124616,68.47 118.223783,68.5825 118.376283,68.5825 C118.492116,68.5825 118.57045,68.54 118.60795,68.4608333 Z M119.731283,68.07 L119.586283,68.07 C119.56295,67.9808333 119.483783,67.9083333 119.354616,67.9083333 C119.19295,67.9083333 119.091283,68.0375 119.091283,68.2408333 C119.091283,68.4483333 119.194616,68.58 119.354616,68.58 C119.47545,68.58 119.559616,68.5241667 119.586283,68.4225 L119.731283,68.4225 C119.70545,68.5875 119.571283,68.7091667 119.35545,68.7091667 C119.103783,68.7091667 118.94295,68.5266667 118.94295,68.2408333 C118.94295,67.9608333 119.10295,67.7791667 119.354616,67.7791667 C119.57295,67.7791667 119.706283,67.91 119.731283,68.07 Z M120.00295,67.5625 L120.146283,67.5625 L120.146283,67.795 L120.346283,67.795 L120.346283,67.915 L120.146283,67.915 L120.146283,68.4233333 C120.146283,68.5291667 120.186283,68.5741667 120.279616,68.5741667 C120.30545,68.5741667 120.319616,68.5733333 120.346283,68.5708333 L120.346283,68.6916667 C120.31795,68.6966667 120.29045,68.7 120.262116,68.7 C120.077116,68.7 120.00295,68.6316667 120.00295,68.46 L120.00295,67.915 L119.85795,67.915 L119.85795,67.795 L120.00295,67.795 L120.00295,67.5625 Z M120.932116,68.58 C121.102116,68.58 121.19795,68.4566667 121.19795,68.2441667 C121.19795,68.0308333 121.102116,67.9083333 120.932116,67.9083333 C120.762116,67.9083333 120.666283,68.0308333 120.666283,68.2441667 C120.666283,68.4566667 120.762116,68.58 120.932116,68.58 Z M120.932116,68.7091667 C120.676283,68.7091667 120.51795,68.5325 120.51795,68.2441667 C120.51795,67.955 120.676283,67.7791667 120.932116,67.7791667 C121.18795,67.7791667 121.346283,67.955 121.346283,68.2441667 C121.346283,68.5325 121.18795,68.7091667 120.932116,68.7091667 Z M121.571283,68.6933333 L121.571283,67.795 L121.70795,67.795 L121.70795,67.9283333 L121.721283,67.9283333 C121.74795,67.8408333 121.851283,67.7791667 121.97045,67.7791667 C121.993783,67.7791667 122.023783,67.7808333 122.042116,67.7833333 L122.042116,67.9266667 C122.03045,67.9233333 121.978783,67.9183333 121.95045,67.9183333 C121.813783,67.9183333 121.714616,68.01 121.714616,68.1366667 L121.714616,68.6933333 L121.571283,68.6933333 Z M122.94795,68.1391667 L122.94795,68.0108333 L123.093783,68.0108333 C123.23045,68.0108333 123.327116,67.9225 123.327116,67.7975 C123.327116,67.675 123.234616,67.5933333 123.096283,67.5933333 C122.95795,67.5933333 122.867116,67.67 122.854616,67.7991667 L122.708783,67.7991667 C122.723783,67.5908333 122.87295,67.4625 123.102116,67.4625 C123.312116,67.4625 123.479616,67.6025 123.479616,67.7775 C123.479616,67.9208333 123.40045,68.0258333 123.268783,68.0575 L123.268783,68.0708333 C123.432116,68.0916667 123.531283,68.205 123.531283,68.3691667 C123.531283,68.5675 123.34545,68.7216667 123.10795,68.7216667 C122.863783,68.7216667 122.69545,68.5858333 122.684616,68.38 L122.829616,68.38 C122.84295,68.5083333 122.951283,68.5908333 123.106283,68.5908333 C123.264616,68.5908333 123.377116,68.4966667 123.377116,68.365 C123.377116,68.2258333 123.271283,68.1391667 123.10045,68.1391667 L122.94795,68.1391667 Z M123.74295,68.9241667 C123.884616,68.6758333 123.947116,68.4533333 123.947116,68.1933333 C123.947116,67.9225 123.862116,67.6325 123.741283,67.4916667 L123.86295,67.4916667 C124.027116,67.7016667 124.09545,67.9083333 124.09545,68.1933333 C124.09545,68.4775 124.013783,68.7433333 123.87045,68.9241667 L123.74295,68.9241667 Z" id="S3-(Sector-3)-Copy" fill="#666666"></path>
                <g id="Group-Copy-8" transform="translate(128.853333, 53.333333)">
                    <circle id="Oval-Copy-2" fill-opacity="0.7" fill="#FFFFFF" cx="2.56" cy="2.56" r="2.56"></circle>
                    <circle id="Oval-Copy-2" fill-opacity="0.2" fill="#FFB819" cx="2.56" cy="2.56" r="2.56"></circle>
                    <circle id="Oval" stroke="#FFB819" stroke-width="0.5" fill="#FFFFFF" cx="2.56" cy="2.56" r="1.70666667"></circle>
                    <circle id="Oval-Copy" fill="#FFB819" cx="2.56" cy="2.56" r="1"></circle>
                </g>
                <g id="Group-Copy-8" transform="translate(12.800000, 0.000000)">
                    <circle id="Oval-Copy-2" fill-opacity="0.7" fill="#FFFFFF" cx="2.56" cy="2.56" r="2.56"></circle>
                    <circle id="Oval-Copy-2" fill-opacity="0.2" fill="#FFB819" cx="2.56" cy="2.56" r="2.56"></circle>
                    <circle id="Oval" stroke="#FFB819" stroke-width="0.5" fill="#FFFFFF" cx="2.56" cy="2.56" r="1.70666667"></circle>
                    <circle id="Oval-Copy" fill="#FFB819" cx="2.56" cy="2.56" r="1"></circle>
                </g>
                <g id="Group-6" transform="translate(113.493333, 74.026667)">
                    <rect id="Rectangle-2" fill="#000000" x="0" y="0" width="1" height="1"></rect>
                    <rect id="Rectangle-2-Copy-4" fill="#FFFFFF" x="0" y="0.64" width="1" height="1"></rect>
                    <rect id="Rectangle-2-Copy-7" fill="#000000" x="0" y="1.28" width="1" height="1"></rect>
                    <rect id="Rectangle-2-Copy" fill="#FFFFFF" x="0.64" y="0" width="1" height="1"></rect>
                    <rect id="Rectangle-2-Copy-5" fill="#000000" x="0.64" y="0.64" width="1" height="1"></rect>
                    <rect id="Rectangle-2-Copy-9" fill="#FFFFFF" x="0.64" y="1.28" width="1" height="1"></rect>
                    <rect id="Rectangle-2-Copy-3" fill="#000000" x="1.28" y="0" width="1" height="1"></rect>
                    <rect id="Rectangle-2-Copy-6" fill="#FFFFFF" x="1.28" y="0.64" width="1" height="1"></rect>
                    <rect id="Rectangle-2-Copy-10" fill="#000000" x="1.28" y="1.28" width="1" height="1"></rect>
                </g>
            </g>
        </g>
    </g>
</svg>