<svg xmlns="http://www.w3.org/2000/svg" xmlns:xlink="http://www.w3.org/1999/xlink" viewBox="0 0 320 192"><defs><style>.cls-1{fill:#ebebeb;}.cls-2{fill:#f2f2f2;}.cls-11,.cls-3{fill:#ffb819;}.cls-4{fill:url(#linear-gradient);}.cls-5{opacity:0.37;}.cls-6{opacity:0.2;}.cls-7,.cls-9{fill:#fff;}.cls-7{fill-opacity:0.7;}.cls-10,.cls-8{fill:#d0021b;}.cls-11,.cls-8{fill-opacity:0.2;}</style><linearGradient id="linear-gradient" x1="158.17" y1="5.8" x2="158.17" y2="177.96" gradientUnits="userSpaceOnUse"><stop offset="0" stop-color="#1b94e2"/><stop offset="1" stop-color="#40d8ab"/></linearGradient></defs><g id="Track"><path class="cls-1" d="M259.31,180.43c-2.16,0-3.69-.12-4-.15H73.83c-5.06,0-14.48,0-16.7-10.76C55,159.11,69,153.06,70.27,152.55c6.91-3.69,20.19-10.8,21.32-11.49,1.45-.9,3.86-3.71,3.67-8.55s-4.58-7.7-8.85-9.84c-3.94-2-17.31-8.76-19-9.66A20.23,20.23,0,0,1,62.29,109,57.08,57.08,0,0,1,57.7,98.43c-.4-1.49-5.38-15.3-9.78-27.49-6.56-18.18-7.81-21.71-7.87-22.18,0-.1-.12-.45-.2-.73-.5-1.75-1.54-5.41-.56-9.06.79-2.91,3-5.22,6.62-6.87l.2-.09c.63-.31,14.31-5.25,15.84-5.5l.5-.1A9.87,9.87,0,0,1,71,28c3.32,2.46,4.42,5.59,5.3,8.11.13.37.26.74.4,1.09,1,2.68,10.81,30.17,11.23,31.34,0,.08,2,5.84,5.63,5.58,4.09-.3,4.81-4.46,5-8,0-.17,0-.32,0-.45.11-1.81,5.07-44.49,5.28-46.31.14-.83,1.35-7.72,5.32-9.51,3.71-1.68,6.83-1.71,10.66-1.23,5.11.65,6.79,4.1,7.76,7.39a40.77,40.77,0,0,1,1,5.46,28.13,28.13,0,0,0,.85,4.47A69.68,69.68,0,0,0,134,35.52c.69.92,6.88,9.11,10.91,12.47l1.42,1.17c3.27,2.68,5.64,4.62,5.87,8A25.83,25.83,0,0,1,151,66.34c-.28,1-.9,3.28-1.61,5.93-1.39,5.19-3,11.07-3.35,12.2-.83,2.5-1.66,8.08.21,9.66,2.39,2,4.3,3.18,10.78,2.2a37.07,37.07,0,0,0,11.68-4.11c3.1-1.82,8.34-5,9.23-5.8.36-.33.88-.74,1.55-1.26a46.24,46.24,0,0,0,11.37-11.85,151.93,151.93,0,0,0,11.76-24.17c1-3.26,4.59-12.38,4.74-12.77l4-10.86c.09-.2,2.43-5,6-6.65l.61-.28a21.55,21.55,0,0,1,10.32-2.41c3.43-.08,8.69,0,12.53,0,2.19,0,4.07,0,5,0,2,0,6,.61,8.53,3.16s4.78,7.47,5.05,8.07c.64,1.13,8.88,15.84,9.55,17.17.06.14.15.3.25.49.91,1.73,2.81,5.34,1.57,8.19a37.07,37.07,0,0,1-5.1,8.13c-1.56,2-24.59,30.3-25.72,31.67-2.69,3.29-3.09,5.14-3.09,6,0,2.11,1.65,5.91,3.92,9,2.69,3.7,31,46.27,32.24,48.08l0,.07c.37.64,3.63,6.3,4.16,8.13.67,2.28.24,6.47-1.86,10a10.21,10.21,0,0,1-6.45,5.08A43.93,43.93,0,0,1,259.31,180.43ZM42.49,48.38c.29,1,4.08,11.55,7.76,21.72,4.62,12.83,9.41,26.09,9.84,27.69a58.37,58.37,0,0,0,4.17,9.68,18.19,18.19,0,0,0,4.31,3.35c1.68.9,15,7.68,18.94,9.64,3,1.49,9.95,5,10.23,12,.28,7.37-4.33,10.43-4.86,10.75-1.47.91-20.69,11.17-21.5,11.6l-.12.06c-.14.05-13.5,5.57-11.71,14.2s9.31,8.78,14.28,8.78H255.45a46.54,46.54,0,0,0,12.85-.76,7.91,7.91,0,0,0,4.88-3.92c1.66-2.84,2.13-6.36,1.62-8.11a66.86,66.86,0,0,0-3.91-7.55c-.94-1.43-29.53-44.35-32.16-48s-4.39-7.83-4.39-10.49c0-2,1.23-4.56,3.65-7.52,1.12-1.38,24.12-29.62,25.68-31.63a33.84,33.84,0,0,0,4.78-7.59c.77-1.77-.76-4.67-1.49-6.06-.11-.2-.2-.38-.27-.53-.53-1-6.46-11.66-9.52-17.12l-.05-.1c0-.05-2.29-5.1-4.57-7.38-2-2-5.27-2.46-6.74-2.44-.91,0-2.72,0-5,0-3.83,0-9.08-.05-12.47,0A19.24,19.24,0,0,0,219,20.83l-.61.28c-2.61,1.18-4.56,4.95-4.79,5.42l-3.9,10.71c-.05.13-3.71,9.46-4.7,12.63a155.21,155.21,0,0,1-12,24.77A48.83,48.83,0,0,1,181,87.12c-.63.48-1.12.86-1.41,1.13-1.37,1.24-8.79,5.61-9.64,6.1a39.13,39.13,0,0,1-12.56,4.42c-6.84,1-9.56,0-12.74-2.75-3.85-3.26-1-12.24-1-12.33.35-1.06,2.06-7.42,3.3-12.06.72-2.66,1.34-5,1.62-6a23.71,23.71,0,0,0,1.08-8.33c-.16-2.23-1.64-3.54-5-6.27l-1.43-1.18C139.05,46.35,132.7,38,132,37c-1.17-1.56-4.13-8.14-4.89-10.32a30.58,30.58,0,0,1-1-4.94,37.94,37.94,0,0,0-1-5.11c-.93-3.15-2.21-5.19-5.7-5.63s-6.13-.42-9.33,1c-2.35,1.06-3.6,5.85-3.89,7.6-1.78,15.31-5.17,44.73-5.26,46.13,0,.11,0,.25,0,.4-.3,6.58-2.74,10.08-7.26,10.4-5.53.42-8-6.92-8.15-7.24S75.35,40.69,74.35,38c-.14-.37-.27-.75-.41-1.14C73.09,34.47,72.21,32,69.5,30A7.44,7.44,0,0,0,63,28.83l-.59.12c-1.24.21-14.23,4.85-15.16,5.28l-.26.12c-1.08.5-4.38,2-5.26,5.26-.81,3,.08,6.08.55,7.74A9.6,9.6,0,0,1,42.49,48.38Z"/><path class="cls-1" d="M259.31,181.67h0c-2.12,0-3.68-.12-4.09-.16H73.83c-5,0-15.48,0-17.91-11.73-2.32-11.2,11.9-17.55,13.82-18.35,8-4.26,20.18-10.8,21.2-11.43s3.26-3.16,3.09-7.45-4.23-6.8-8.18-8.77-17.33-8.78-19-9.68a21.14,21.14,0,0,1-5.53-4.41,57.51,57.51,0,0,1-4.79-10.94c-.39-1.44-5.58-15.82-9.74-27.36C39.4,51,38.91,49.54,38.83,49c0-.12-.1-.36-.16-.57-.54-1.88-1.65-5.76-.57-9.74.89-3.28,3.34-5.86,7.3-7.67l.15-.07c.57-.29,14.47-5.33,16.2-5.62l.39-.08A11.19,11.19,0,0,1,71.71,27c3.62,2.68,4.84,6.15,5.73,8.69l.38,1.07c.9,2.4,8.77,24.44,11.16,31.14l.08.21c.45,1.3,2.2,4.93,4.39,4.77,2.46-.18,3.6-2.24,3.81-6.88,0-.18,0-.33,0-.47.11-1.74,4.42-38.92,5.28-46.35v-.08c.22-1.39,1.56-8.42,6-10.44,4-1.8,7.27-1.84,11.32-1.32,5.84.74,7.76,4.8,8.79,8.26a41.38,41.38,0,0,1,1.07,5.63,29.15,29.15,0,0,0,.8,4.24A71,71,0,0,0,135,34.78c.68.91,6.79,9,10.72,12.26.48.41.95.79,1.4,1.16,3.38,2.77,6.06,5,6.33,8.88a26.87,26.87,0,0,1-1.21,9.59c-.27,1-.89,3.26-1.59,5.88-1.48,5.5-3,11.15-3.39,12.31-1,2.91-1.24,7.42-.16,8.33,2.11,1.79,3.72,2.84,9.79,1.91a35.73,35.73,0,0,0,11.24-3.95c3.8-2.22,8.33-5,9-5.64.4-.37.94-.79,1.63-1.32a45.32,45.32,0,0,0,11.09-11.54,150.93,150.93,0,0,0,11.62-23.88c1-3.33,4.62-12.47,4.77-12.85l4-10.94c.27-.55,2.7-5.47,6.63-7.25l.61-.27a22.82,22.82,0,0,1,10.8-2.53c3.41-.07,8.62,0,12.43,0h.14c2.19,0,4.06,0,4.93,0,.6,0,5.91,0,9.41,3.53,2.56,2.56,4.81,7.32,5.29,8.38,1,1.82,8.87,15.83,9.54,17.18.07.13.14.28.23.44,1,1.93,3.1,5.89,1.62,9.29a37.67,37.67,0,0,1-5.25,8.38c-1.57,2-24.61,30.33-25.74,31.71-2.61,3.18-2.81,4.76-2.81,5.17,0,1.57,1.29,5,3.68,8.31,2.71,3.73,31.07,46.31,32.27,48.12l.06.1c.89,1.53,3.75,6.56,4.3,8.44.71,2.46.4,7-2,11a11.43,11.43,0,0,1-7.24,5.66A44.73,44.73,0,0,1,259.31,181.67ZM73.13,179H255.39c.28,0,1.79.16,3.92.16a42.69,42.69,0,0,0,9.27-.95l.13,0-.13,0a47.28,47.28,0,0,1-13.25.79H73.13Zm-1,0h0Zm-.29,0h0Zm-.63,0h0ZM43.7,48.1c.38,1.29,4.27,12.06,7.71,21.58,4.85,13.45,9.43,26.14,9.87,27.79a59.68,59.68,0,0,0,4,9.26,17.56,17.56,0,0,0,3.9,3c1.69.9,15,7.67,18.91,9.63,3.18,1.58,10.61,5.3,10.91,13,.32,8.07-4.85,11.49-5.44,11.86-1.37.84-16.8,9.08-21.49,11.59l-.32.15c-.12,0-12.53,5.22-11,12.81,1.61,7.8,8.23,7.8,13.07,7.8H255.51a45.41,45.41,0,0,0,12.51-.72,6.73,6.73,0,0,0,4.09-3.35c1.48-2.52,1.93-5.66,1.5-7.14a65.47,65.47,0,0,0-3.77-7.24c-.94-1.42-29.51-44.32-32.11-47.89-2.81-3.87-4.63-8.27-4.63-11.22,0-2.33,1.32-5.12,3.93-8.3,1.13-1.38,24.11-29.6,25.66-31.61a32.93,32.93,0,0,0,4.63-7.33c.53-1.21-.91-4-1.45-5l-.29-.56c-.51-1-6.43-11.61-9.49-17.07L256,29c-.79-1.74-2.68-5.39-4.34-7a9,9,0,0,0-5.86-2.09c-.89,0-2.57,0-5,0-3.59,0-9-.06-12.44,0A17.92,17.92,0,0,0,219.51,22l-.62.28c-1.78.8-3.44,3.35-4.16,4.78l-3.91,10.72c-.62,1.58-3.76,9.62-4.65,12.5A158.16,158.16,0,0,1,194,75.3a50,50,0,0,1-12.23,12.8c-.58.45-1.08.83-1.33,1.06-1.39,1.27-7.88,5.11-9.84,6.26a40.46,40.46,0,0,1-13,4.57c-7.28,1.11-10.34-.15-13.73-3-4.54-3.84-1.37-13.57-1.34-13.66.34-1,2.1-7.57,3.27-11.9l0-.09c.72-2.68,1.34-5,1.62-6a22.25,22.25,0,0,0,1-7.92c-.11-1.65-1.2-2.67-4.52-5.39l-1.44-1.19c-4.36-3.63-10.79-12.14-11.51-13.1-1.31-1.75-4.35-8.61-5.07-10.65a30.26,30.26,0,0,1-1-5.17A38.81,38.81,0,0,0,124,17c-1-3.23-2.14-4.44-4.68-4.76-3.35-.42-5.72-.4-8.66.92-1.54.7-2.81,4.4-3.18,6.68-1.9,16.43-5.16,44.68-5.25,46,0,.11,0,.24,0,.39-.41,9.1-4.79,11.32-8.4,11.58-6.48.49-9.29-7.73-9.41-8.08l-.14-.4c-2.38-6.66-10.2-28.55-11.06-30.84l-.41-1.14c-.83-2.38-1.62-4.6-4-6.38A6.17,6.17,0,0,0,63.21,30l-.65.13c-1.08.2-13.83,4.72-14.84,5.18l-.26.12c-1,.44-3.86,1.77-4.59,4.47s.11,5.53.55,7.07C43.55,47.46,43.64,47.79,43.7,48.1ZM274,174.12a10.5,10.5,0,0,1-2.19,2.52A10.41,10.41,0,0,0,274,174.12ZM58.33,169.23Zm12.43-15.55h0a31.44,31.44,0,0,0-7.51,4.58c-4,3.41-5.68,7.09-4.9,11-.81-4,1.12-8,5.59-11.5a31.78,31.78,0,0,1,6.84-4Zm205.18,10.84a.88.88,0,0,0,.05.15,10,10,0,0,1,0,4.35,10,10,0,0,0,0-4.35A.88.88,0,0,1,275.94,164.52ZM235.58,99.24c.11,2.41,1.78,6.28,4.15,9.53,2.7,3.71,31.9,47.57,32.19,48l0,.07s1.61,2.78,2.79,5.09c-.79-1.56-1.85-3.46-2.81-5.13l0,0c-1.18-1.77-29.51-44.32-32.19-48C237.36,105.52,235.69,101.65,235.58,99.24ZM78.92,149.33l-8.07,4.31,0,0,.05,0Zm17.57-17a.81.81,0,0,1,0,.16,11.55,11.55,0,0,1-2.74,8.34,11.26,11.26,0,0,0,2.74-8.34A.81.81,0,0,0,96.49,132.3ZM81,118.55c2.49,1.27,4.71,2.39,6,3a32,32,0,0,1,4.59,2.71A29.89,29.89,0,0,0,87,121.57C85.7,120.94,83.48,119.82,81,118.55Zm-13.43-6.88.43.25.53.28-.53-.28Zm0,0Zm-4.35-3.55s0,.07.06.09a9.7,9.7,0,0,0,1.33,1.31,9.7,9.7,0,0,1-1.33-1.31S63.23,108.16,63.21,108.12Zm172.37-8.91v0Zm0-.21Zm0,0h0Zm.83-2.92a6.73,6.73,0,0,0-.83,2.92A6.76,6.76,0,0,1,236.41,96.06Zm-86.2,1.6a19,19,0,0,0,6.82-.08A19.47,19.47,0,0,1,150.21,97.66Zm26.68-9c-2.8,1.83-7.48,4.58-7.55,4.61a38.45,38.45,0,0,1-11.75,4.21,37.78,37.78,0,0,0,11.75-4.21C172.07,91.69,175,89.91,176.89,88.67ZM145.4,95l.06.06,0,0,0,0Zm0,0Zm102-13.17-8.49,10.42-.3.38.3-.38ZM183,84c-1,.86-2,1.58-2.7,2.15-.44.34-.81.63-1.1.87.29-.25.67-.53,1.1-.87C181,85.57,181.93,84.85,183,84ZM147.8,73.46c-1.22,4.57-2.59,9.63-2.92,10.62h0C145.21,83.09,146.57,78,147.8,73.46Zm-100-6.36,1.23,3.42c1,2.88,2.08,5.77,3.09,8.55-1-2.82-2.07-5.72-3.08-8.53Zm146.31,3.09c-.76,1.36-1.52,2.64-2.25,3.79a40.55,40.55,0,0,1-2.4,3.35,40.55,40.55,0,0,0,2.4-3.35C192.64,72.83,193.4,71.55,194.16,70.19ZM91.83,75.09a4.23,4.23,0,0,0,1.76.23A4.61,4.61,0,0,1,91.83,75.09Zm5.32-1.2a5.64,5.64,0,0,1-3.47,1.43A5.31,5.31,0,0,0,97.15,73.89Zm-10.44-5,0,.05v0ZM76,38.83c1.67,4.6,6.88,19.19,9.85,27.5C83.12,58.8,77.68,43.56,76,38.83ZM99.78,65.39c0,.13,0,.22,0,.28s0,.26,0,.43v0c0-.17,0-.31,0-.43S99.77,65.52,99.78,65.39ZM261.1,65h0ZM265,60.2l-.32.42c-.34.43-1.66,2.07-3.54,4.39,1.88-2.32,3.2-4,3.54-4.39Zm4.65-7.52,0,.08a1.42,1.42,0,0,0-.08.18,1.42,1.42,0,0,1,.08-.18ZM208.37,37.2c-.72,1.86-3.67,9.44-4.56,12.3,0,.11-.07.22-.11.34,0-.12.08-.23.11-.34C204.67,46.73,207.51,39.42,208.37,37.2ZM133,36.31c.88,1.17,7,9.24,11.07,12.63l.84.69-.84-.69C140,45.55,133.9,37.48,133,36.31ZM41,47.45a2.17,2.17,0,0,1,.07.24c.06.22.11.39.14.51,0-.14-.08-.31-.14-.5A2.33,2.33,0,0,0,41,47.45Zm227-2,.09.18.21.4-.21-.4Zm-.26-.5a1.5,1.5,0,0,1,.09.18h0A1.5,1.5,0,0,0,267.7,45ZM102.39,42.29v0Zm2-17.47c-.63,5.46-1.34,11.62-2,17.47C103.14,35.78,103.89,29.28,104.4,24.82ZM258.26,28l0,0,5.16,9.23c-1.8-3.22-3.78-6.75-5.16-9.23ZM132.93,36.19ZM129.8,30a51.9,51.9,0,0,0,3.13,6.2A51.9,51.9,0,0,1,129.8,30Zm-75.33.28c-3.64,1.28-7.3,2.62-7.82,2.85l-.2.09-.08,0,.06,0,.21-.1C47,33,50.73,31.59,54.47,30.27Zm10.84-3A8.08,8.08,0,0,1,70.23,29a11.56,11.56,0,0,1,1.62,1.45A11.56,11.56,0,0,0,70.23,29a8.55,8.55,0,0,0-7.37-1.37A11.27,11.27,0,0,1,65.31,27.29Zm191.87-1.51c.54,1,.92,1.84,1,2.12C258,27.32,257.61,26.58,257.18,25.78ZM212.49,26v0h0Zm-85.72-8c.21,1,.37,2.1.53,3.18C127.14,20.1,127,19,126.77,18Zm126.48,2c.06.06.12.11.17.17l.16.16-.16-.16C253.37,20.15,253.31,20.1,253.25,20Zm-35-.22-.36.16-.22.11.22-.11ZM107.11,13.41A18.6,18.6,0,0,0,105,19.48,19.68,19.68,0,0,1,107.11,13.41ZM126.77,18Zm113.91-.61h.14c2.43,0,4.1,0,5,0h0c-.89,0-2.77,0-4.95,0ZM116.08,9.51a15,15,0,0,0-6.45,1.38l-.13.06.13-.06a16.7,16.7,0,0,1,9.55-1.18A28.08,28.08,0,0,0,116.08,9.51Z"/><path class="cls-2" d="M259.31,178c-2.16,0-3.69-.13-4-.16H73.83c-5.06,0-14.48,0-16.7-10.75C55,156.64,69,150.59,70.27,150.08c6.91-3.69,20.19-10.8,21.32-11.49,1.45-.9,3.86-3.71,3.67-8.56s-4.58-7.69-8.85-9.83c-3.94-2-17.31-8.76-19-9.67a20,20,0,0,1-5.12-4A57.08,57.08,0,0,1,57.7,96c-.4-1.5-5.38-15.31-9.78-27.49-6.56-18.19-7.81-21.71-7.87-22.18,0-.1-.12-.45-.2-.73-.5-1.76-1.54-5.41-.56-9.06.79-2.91,3-5.22,6.62-6.87l.2-.09c.63-.32,14.31-5.25,15.84-5.5l.5-.1A9.87,9.87,0,0,1,71,25.5c3.32,2.46,4.42,5.59,5.3,8.1.13.38.26.75.4,1.1,1,2.67,10.81,30.17,11.23,31.34,0,.08,2,5.83,5.63,5.58,4.09-.3,4.81-4.46,5-8.05,0-.17,0-.33,0-.45.11-1.81,5.07-44.5,5.28-46.31.14-.84,1.35-7.72,5.32-9.52,3.71-1.67,6.83-1.71,10.66-1.22,5.11.65,6.79,4.1,7.76,7.39a40.91,40.91,0,0,1,1,5.45,28.06,28.06,0,0,0,.85,4.48A70.24,70.24,0,0,0,134,33.05c.69.92,6.88,9.11,10.91,12.47l1.42,1.16c3.27,2.69,5.64,4.62,5.87,8A25.88,25.88,0,0,1,151,63.87c-.28,1-.9,3.28-1.61,5.93-1.39,5.19-3,11.07-3.35,12.2-.83,2.5-1.66,8.08.21,9.66,2.39,2,4.3,3.18,10.78,2.19a37.19,37.19,0,0,0,11.68-4.1c3.1-1.82,8.34-5,9.23-5.8.36-.33.88-.74,1.55-1.26a46.41,46.41,0,0,0,11.37-11.85,152.34,152.34,0,0,0,11.76-24.17c1-3.26,4.59-12.39,4.74-12.77l4-10.86c.09-.2,2.43-5,6-6.65l.61-.28a21.53,21.53,0,0,1,10.32-2.42c3.43-.07,8.69,0,12.53,0,2.19,0,4.07,0,5,0,2,0,6,.62,8.53,3.17s4.78,7.46,5.05,8.06c.64,1.13,8.88,15.85,9.55,17.18.06.14.15.3.25.49.91,1.73,2.81,5.34,1.57,8.19a36.76,36.76,0,0,1-5.1,8.12c-1.56,2-24.59,30.3-25.72,31.68-2.69,3.29-3.09,5.14-3.09,6,0,2.12,1.65,5.92,3.92,9,2.69,3.71,31,46.28,32.24,48.09l0,.06c.37.64,3.63,6.31,4.16,8.14.67,2.28.24,6.47-1.86,10a10.23,10.23,0,0,1-6.45,5.09A43.93,43.93,0,0,1,259.31,178ZM42.49,45.91c.29,1,4.08,11.54,7.76,21.72,4.62,12.83,9.41,26.09,9.84,27.69A58.76,58.76,0,0,0,64.26,105a18.19,18.19,0,0,0,4.31,3.35c1.68.9,15,7.68,18.94,9.64,3,1.49,9.95,5,10.23,12,.28,7.37-4.33,10.43-4.86,10.75-1.47.91-20.69,11.16-21.5,11.6l-.12.06c-.14.05-13.5,5.57-11.71,14.2s9.31,8.78,14.28,8.78H255.45a47,47,0,0,0,12.85-.76,7.92,7.92,0,0,0,4.88-3.93c1.66-2.83,2.13-6.35,1.62-8.11a67.74,67.74,0,0,0-3.91-7.54c-.94-1.43-29.53-44.35-32.16-48s-4.39-7.83-4.39-10.5c0-2,1.23-4.56,3.65-7.51,1.12-1.38,24.12-29.62,25.68-31.63a34.06,34.06,0,0,0,4.78-7.59c.77-1.77-.76-4.67-1.49-6.06-.11-.2-.2-.38-.27-.53-.53-1.05-6.46-11.66-9.52-17.12l-.05-.1s-2.29-5.1-4.57-7.38c-2-2-5.27-2.46-6.74-2.44-.91,0-2.72,0-5,0-3.83,0-9.08-.06-12.47,0A19.13,19.13,0,0,0,219,18.36l-.61.28c-2.61,1.18-4.56,4.95-4.79,5.42l-3.9,10.71c-.05.12-3.71,9.45-4.7,12.63a155.62,155.62,0,0,1-12,24.77A48.83,48.83,0,0,1,181,84.65c-.63.48-1.12.86-1.41,1.12-1.37,1.25-8.79,5.61-9.64,6.11a39.13,39.13,0,0,1-12.56,4.42c-6.84,1-9.56-.06-12.74-2.75-3.85-3.26-1-12.25-1-12.34.35-1,2.06-7.41,3.3-12,.72-2.66,1.34-5,1.62-6a23.77,23.77,0,0,0,1.08-8.34c-.16-2.23-1.64-3.53-5-6.26l-1.43-1.18c-4.25-3.54-10.6-11.94-11.31-12.89-1.17-1.56-4.13-8.14-4.89-10.32a30.58,30.58,0,0,1-1-4.94,37.94,37.94,0,0,0-1-5.11C124.24,11,123,9,119.47,8.52s-6.13-.42-9.33,1c-2.35,1.06-3.6,5.84-3.89,7.6-1.78,15.31-5.17,44.73-5.26,46.12,0,.12,0,.25,0,.41-.3,6.58-2.74,10.08-7.26,10.4-5.53.42-8-6.92-8.15-7.24S75.35,38.22,74.35,35.57c-.14-.37-.27-.75-.41-1.14-.85-2.43-1.73-4.94-4.44-6.95A7.46,7.46,0,0,0,63,26.36l-.59.12c-1.24.21-14.23,4.85-15.16,5.28l-.26.12c-1.08.49-4.38,2-5.26,5.26-.81,3,.08,6.08.55,7.74A9,9,0,0,1,42.49,45.91Z"/><path class="cls-2" d="M259.31,179.2h0c-2.12,0-3.68-.12-4.09-.16H73.83c-5,0-15.48,0-17.91-11.74C53.6,156.1,67.82,149.76,69.74,149c8-4.26,20.18-10.8,21.2-11.43s3.26-3.16,3.09-7.45-4.23-6.8-8.18-8.77-17.33-8.78-19-9.69a20.92,20.92,0,0,1-5.53-4.4,57.79,57.79,0,0,1-4.79-10.94c-.39-1.44-5.58-15.82-9.74-27.37-7.36-20.39-7.86-21.84-7.94-22.42,0-.12-.1-.36-.16-.57C38.13,44,37,40.16,38.1,36.17c.89-3.27,3.34-5.85,7.3-7.66l.15-.08c.57-.28,14.47-5.32,16.2-5.61l.39-.08a11.19,11.19,0,0,1,9.57,1.77c3.62,2.68,4.84,6.15,5.73,8.68l.38,1.08c.9,2.4,8.77,24.44,11.16,31.13l.08.22c.45,1.3,2.2,4.92,4.39,4.76,2.46-.17,3.6-2.23,3.81-6.87,0-.18,0-.34,0-.47.11-1.74,4.42-38.92,5.28-46.36v-.07c.22-1.39,1.56-8.42,6-10.44,4-1.8,7.28-1.84,11.32-1.32,5.84.74,7.76,4.8,8.79,8.26a41.38,41.38,0,0,1,1.07,5.63,29.43,29.43,0,0,0,.8,4.24A70.2,70.2,0,0,0,135,32.3c.68.92,6.79,9,10.72,12.27.48.41.95.79,1.4,1.16,3.38,2.77,6.06,5,6.33,8.88a26.9,26.9,0,0,1-1.21,9.59c-.27,1-.89,3.25-1.59,5.88-1.48,5.5-3,11.14-3.39,12.31-1,2.91-1.24,7.42-.16,8.33,2.11,1.79,3.72,2.84,9.79,1.91a36,36,0,0,0,11.24-3.95c3.8-2.22,8.33-5,9-5.65.4-.36.94-.78,1.63-1.31a45.58,45.58,0,0,0,11.09-11.55A150.5,150.5,0,0,0,201.45,46.3c1-3.33,4.62-12.47,4.77-12.86l4-10.93c.27-.55,2.7-5.47,6.63-7.25l.61-.28a22.84,22.84,0,0,1,10.8-2.52c3.41-.07,8.62,0,12.43,0h.14c2.19,0,4.06,0,4.93,0,.6,0,5.91,0,9.41,3.53,2.56,2.56,4.81,7.32,5.29,8.38,1,1.82,8.87,15.83,9.54,17.18.07.13.14.28.23.44,1,1.93,3.1,5.89,1.62,9.28a37.75,37.75,0,0,1-5.25,8.39C265,61.69,242,90,240.86,91.37c-2.61,3.18-2.81,4.76-2.81,5.16,0,1.58,1.29,5,3.68,8.32,2.71,3.73,31.07,46.31,32.27,48.12l.06.1c.89,1.53,3.75,6.56,4.3,8.44.71,2.46.4,7-2,11a11.43,11.43,0,0,1-7.24,5.66A45.35,45.35,0,0,1,259.31,179.2ZM73.13,176.57H255.39c.28,0,1.79.16,3.92.16a42.69,42.69,0,0,0,9.27-.95l.11,0-.11,0a47.28,47.28,0,0,1-13.25.79H73.13ZM43.7,45.63c.38,1.29,4.27,12.06,7.71,21.58C56.26,80.66,60.84,93.35,61.28,95a59.44,59.44,0,0,0,4,9.27,17.86,17.86,0,0,0,3.9,3c1.69.9,15,7.67,18.91,9.62,3.18,1.59,10.61,5.31,10.91,13,.32,8.07-4.85,11.49-5.44,11.85-1.37.85-16.8,9.09-21.49,11.6l-.32.15c-.12,0-12.53,5.22-11,12.81,1.61,7.8,8.23,7.8,13.07,7.8H255.51a45.61,45.61,0,0,0,12.51-.73,6.72,6.72,0,0,0,4.09-3.34c1.48-2.52,1.93-5.67,1.5-7.14a65.47,65.47,0,0,0-3.77-7.24c-.94-1.42-29.51-44.32-32.11-47.9-2.81-3.86-4.63-8.26-4.63-11.22,0-2.32,1.32-5.11,3.93-8.3,1.13-1.37,24.11-29.59,25.66-31.6a32.93,32.93,0,0,0,4.63-7.33c.53-1.22-.91-4-1.45-5l-.29-.55c-.51-1-6.43-11.61-9.49-17.07l-.07-.15c-.79-1.74-2.68-5.39-4.34-7.06a9,9,0,0,0-5.86-2.08c-.89,0-2.57,0-5,0-3.59,0-9-.06-12.44,0a18,18,0,0,0-8.85,2.08l-.62.28c-1.78.81-3.44,3.36-4.16,4.79l-3.91,10.71c-.62,1.59-3.76,9.62-4.65,12.51A158.58,158.58,0,0,1,194,72.83a50,50,0,0,1-12.23,12.8c-.58.44-1.08.83-1.33,1.06-1.39,1.26-7.88,5.11-9.84,6.25a40.35,40.35,0,0,1-13,4.58c-7.28,1.11-10.34-.15-13.73-3-4.54-3.84-1.37-13.57-1.34-13.67.34-1,2.1-7.56,3.27-11.89l0-.09c.72-2.68,1.34-5,1.62-6a22.28,22.28,0,0,0,1-7.92c-.11-1.65-1.2-2.67-4.52-5.4-.46-.37-.94-.76-1.44-1.18-4.36-3.63-10.79-12.14-11.51-13.1-1.31-1.76-4.35-8.61-5.07-10.66a29.93,29.93,0,0,1-1-5.16,38.81,38.81,0,0,0-.92-4.94c-1-3.24-2.14-4.44-4.68-4.76-3.35-.43-5.72-.41-8.66.92-1.54.7-2.81,4.4-3.18,6.68-1.9,16.42-5.16,44.68-5.25,46,0,.11,0,.24,0,.39-.41,9.09-4.79,11.31-8.4,11.58-6.47.49-9.29-7.74-9.41-8.09l-.14-.39C81.87,60.18,74.05,38.29,73.19,36l-.41-1.15c-.83-2.37-1.62-4.59-4-6.37a6.17,6.17,0,0,0-5.55-.91l-.65.13c-1.08.2-13.83,4.71-14.84,5.18l-.26.12c-1,.44-3.86,1.77-4.59,4.46s.11,5.54.55,7.08C43.55,45,43.64,45.32,43.7,45.63ZM274,171.62a10.68,10.68,0,0,1-2.21,2.55A10.42,10.42,0,0,0,274,171.62ZM58.33,166.76Zm12.43-15.55h0a31.61,31.61,0,0,0-7.51,4.57c-4,3.42-5.68,7.1-4.9,11-.81-4,1.12-8,5.59-11.49a32,32,0,0,1,6.84-4Zm205.18,10.84s0,.1,0,.15a10,10,0,0,1,0,4.43,10,10,0,0,0,0-4.43A.83.83,0,0,0,275.94,162.05ZM235.58,96.77c.11,2.41,1.78,6.28,4.15,9.53,2.7,3.71,31.9,47.57,32.19,48l0,.07s1.6,2.77,2.79,5.08c-.8-1.56-1.85-3.46-2.81-5.12l0,0c-1.18-1.78-29.51-44.32-32.19-48C237.36,103.05,235.69,99.18,235.58,96.77ZM78.93,146.85l-8.08,4.32,0,0,.05,0Zm17.56-17a.49.49,0,0,1,0,.12,11.62,11.62,0,0,1-2.74,8.35A11.29,11.29,0,0,0,96.5,130,.49.49,0,0,0,96.49,129.86ZM81,116.08c2.49,1.27,4.71,2.39,6,3a32,32,0,0,1,4.59,2.71A29.09,29.09,0,0,0,87,119.1C85.7,118.47,83.48,117.35,81,116.08ZM67.56,109.2a4.63,4.63,0,0,0,.43.24l.53.28-.53-.28A4.63,4.63,0,0,1,67.56,109.2Zm0,0Zm-4.35-3.55a.47.47,0,0,1,.06.09,9.7,9.7,0,0,0,1.33,1.31,9.7,9.7,0,0,1-1.33-1.31A.47.47,0,0,0,63.21,105.65Zm172.37-8.91v0Zm0-.22h0Zm0,0h0Zm.82-2.92a6.84,6.84,0,0,0-.82,2.92A6.86,6.86,0,0,1,236.4,93.59Zm-86.19,1.59A18.85,18.85,0,0,0,157,95.1,19,19,0,0,1,150.21,95.18Zm26.68-9c-2.8,1.83-7.48,4.58-7.55,4.61A38.57,38.57,0,0,1,157.58,95a37.49,37.49,0,0,0,11.76-4.21C172.07,89.21,175,87.44,176.89,86.2ZM145.4,92.55l.06.06,0,0,0,0Zm0,0ZM245,82.4c-3.24,4-5.68,7-6,7.4l-.24.3.24-.3Zm-62-.89c-1,.87-2,1.58-2.71,2.16-.45.35-.83.64-1.13.89.3-.25.68-.54,1.13-.89C181,83.09,181.93,82.38,183,81.51Zm62,.87v0Zm-97.3-10.94c-1.19,4.45-2.48,9.21-2.8,10.17h0C145.2,80.65,146.48,75.9,147.68,71.44Zm-99.83-6.8,1.23,3.41,3,8.24-3-8.23C48.66,66.89,48.25,65.75,47.85,64.64Zm146.62,2.53c-.87,1.56-1.73,3-2.56,4.33a39.15,39.15,0,0,1-2.72,3.76,39.15,39.15,0,0,0,2.72-3.76C192.74,70.2,193.6,68.73,194.47,67.17ZM91.83,72.62a4.61,4.61,0,0,0,1.76.23A4.61,4.61,0,0,1,91.83,72.62Zm5.32-1.21a5.59,5.59,0,0,1-3.47,1.44A5.28,5.28,0,0,0,97.15,71.41Zm-10.44-5,0,.05v0ZM75.93,36.29c1.63,4.49,6.84,19.05,9.83,27.43C83,56.1,77.61,40.91,75.93,36.29ZM99.75,63.22c0,.11,0,.25,0,.41v0C99.74,63.47,99.75,63.33,99.75,63.22ZM265,57.67l-.36.48c-.35.44-1.74,2.17-3.72,4.61,2-2.44,3.37-4.17,3.72-4.61Zm4.61-7.46,0,.08a1.42,1.42,0,0,0-.08.18,1.42,1.42,0,0,1,.08-.18Zm-61.3-15.35c-.8,2.06-3.64,9.38-4.51,12.17l-.09.29.09-.29C204.66,44.31,207.4,37.22,208.32,34.86Zm-75.3-1c.85,1.14,7,9.24,11.07,12.64l.88.73-.88-.73C140,43.07,133.87,35,133,33.83ZM41,45c0,.09.05.17.07.25s.11.39.14.51c0-.14-.08-.31-.14-.5A2.5,2.5,0,0,0,41,45Zm227-2,.09.18.21.4c-.07-.14-.14-.28-.21-.4Zm-.26-.5a1.5,1.5,0,0,1,.09.18h0v0ZM104.55,21.05c-.67,5.85-1.46,12.63-2.19,19C103.19,32.81,104,25.54,104.55,21.05ZM258.26,25.5l0,0,5.16,9.23-5.16-9.23Zm-127.7,3.68a38.46,38.46,0,0,0,2.35,4.51A38.46,38.46,0,0,1,130.56,29.18ZM54.47,27.8c-3.64,1.28-7.3,2.61-7.82,2.85l-.2.09-.08,0,.06,0,.21-.1C47,30.49,50.73,29.12,54.47,27.8Zm17.35.1Zm-6.51-3.08a8.08,8.08,0,0,1,4.92,1.67,11.64,11.64,0,0,1,1.59,1.41,11.64,11.64,0,0,0-1.59-1.41,8.53,8.53,0,0,0-7.36-1.38A12,12,0,0,1,65.31,24.82Zm191.87-1.51c.54,1,.91,1.82,1,2.1C258,24.84,257.6,24.11,257.18,23.31Zm-44.69.19v0h0Zm-85.67-7.73c.18.91.32,1.89.47,2.86C127.14,17.66,127,16.68,126.82,15.77Zm126.44,1.81a1.21,1.21,0,0,1,.16.16l.15.14-.15-.14A1.21,1.21,0,0,0,253.26,17.58Zm-35-.24-.37.17-.23.11.23-.11Zm-111.13-6.4A18.64,18.64,0,0,0,105,17,19.82,19.82,0,0,1,107.11,10.94Zm19.71,4.82Zm113.86-.85h.14c2.43,0,4.1,0,5,0h0c-.89,0-2.77,0-4.95,0ZM116.08,7a15,15,0,0,0-6.45,1.38l-.13.06.13-.06a16.61,16.61,0,0,1,9.58-1.17A26.67,26.67,0,0,0,116.08,7Z"/><path class="cls-3" d="M259.31,178c-2.16,0-3.69-.13-4-.16H73.83c-5.06,0-14.48,0-16.7-10.75C55,156.64,69,150.59,70.27,150.08c6.91-3.69,20.19-10.8,21.32-11.49,1.45-.9,3.86-3.71,3.67-8.56s-4.58-7.69-8.85-9.83c-3.94-2-17.31-8.76-19-9.67a20,20,0,0,1-5.12-4A57.08,57.08,0,0,1,57.7,96c-.4-1.5-5.38-15.31-9.78-27.49-6.56-18.19-7.81-21.71-7.87-22.18,0-.1-.12-.45-.2-.73-.5-1.76-1.54-5.41-.56-9.06.79-2.91,3-5.22,6.62-6.87l.2-.09c.63-.32,14.31-5.25,15.84-5.5l.5-.1A9.87,9.87,0,0,1,71,25.5c3.32,2.46,4.42,5.59,5.3,8.1.13.38.26.75.4,1.1,1,2.67,10.81,30.17,11.23,31.34,0,.08,2,5.84,5.63,5.58,4.09-.3,4.81-4.46,5-8.05,0-.17,0-.33,0-.45.11-1.81,5.07-44.5,5.28-46.31.14-.84,1.35-7.72,5.32-9.52,3.71-1.67,6.83-1.71,10.66-1.22,5.11.65,6.79,4.1,7.76,7.39a40.77,40.77,0,0,1,1,5.46,29.32,29.32,0,0,0,.85,4.47A70.24,70.24,0,0,0,134,33.05c.69.92,6.88,9.11,10.91,12.47l1.42,1.16c3.27,2.69,5.64,4.62,5.87,8A25.88,25.88,0,0,1,151,63.87c-.28,1-.89,3.26-1.6,5.9-1.4,5.2-3,11.1-3.36,12.23-.83,2.5-1.66,8.08.21,9.66,2.39,2,4.3,3.18,10.78,2.19a37.19,37.19,0,0,0,11.68-4.1c3.1-1.82,8.34-5,9.22-5.8.37-.33.89-.74,1.56-1.26a46.41,46.41,0,0,0,11.37-11.85,152.34,152.34,0,0,0,11.76-24.17c1-3.26,4.59-12.39,4.74-12.77l4-10.86c.09-.2,2.43-5,6-6.65l.61-.28a21.53,21.53,0,0,1,10.32-2.42c3.43-.07,8.69,0,12.53,0,2.19,0,4.07,0,5,0,2,0,6,.62,8.53,3.17s4.78,7.46,5.05,8.06c.64,1.13,8.88,15.85,9.55,17.18l.25.49c.91,1.73,2.81,5.34,1.57,8.19a36.76,36.76,0,0,1-5.1,8.12c-1.56,2-24.6,30.31-25.72,31.68-2.69,3.29-3.09,5.14-3.09,6,0,2.12,1.65,5.92,3.92,9,2.69,3.71,31,46.28,32.24,48.09l0,.06c.37.64,3.63,6.31,4.16,8.14.67,2.28.24,6.47-1.86,10a10.23,10.23,0,0,1-6.45,5.09A43.93,43.93,0,0,1,259.31,178ZM42.49,45.91c.29,1,4.08,11.55,7.76,21.72,4.62,12.83,9.41,26.09,9.84,27.69A58.76,58.76,0,0,0,64.26,105a18.19,18.19,0,0,0,4.31,3.35c1.68.9,15,7.68,18.94,9.64,3,1.49,9.95,5,10.22,12,.29,7.37-4.32,10.43-4.85,10.75-1.47.91-20.69,11.16-21.5,11.6l-.12.06c-.14.05-13.5,5.57-11.71,14.2s9.31,8.78,14.28,8.78H255.45a47,47,0,0,0,12.85-.76,7.92,7.92,0,0,0,4.88-3.93c1.66-2.83,2.13-6.35,1.62-8.11a67.74,67.74,0,0,0-3.91-7.54c-.94-1.43-29.53-44.35-32.16-48s-4.39-7.83-4.39-10.5c0-2,1.23-4.56,3.65-7.51,1.11-1.37,24.12-29.62,25.68-31.63a34.06,34.06,0,0,0,4.78-7.59c.77-1.77-.76-4.67-1.49-6.06-.11-.2-.2-.38-.27-.53-.53-1.05-6.46-11.66-9.52-17.12l-.05-.1s-2.29-5.1-4.57-7.38c-2-2-5.28-2.45-6.74-2.44-.91,0-2.72,0-5,0-3.83,0-9.08-.06-12.47,0A19.16,19.16,0,0,0,219,18.36l-.61.28c-2.61,1.18-4.56,4.95-4.79,5.42l-3.91,10.71c0,.12-3.7,9.45-4.69,12.63a155.62,155.62,0,0,1-12,24.77A48.83,48.83,0,0,1,181,84.65c-.63.48-1.12.86-1.41,1.12-1.37,1.25-8.79,5.61-9.64,6.11a39.13,39.13,0,0,1-12.56,4.42c-6.85,1-9.56-.06-12.74-2.75-3.85-3.26-1-12.25-1-12.34.35-1.06,2.06-7.43,3.31-12.08.71-2.65,1.33-4.95,1.61-5.93a23.77,23.77,0,0,0,1.08-8.34c-.16-2.23-1.64-3.53-5-6.26l-1.43-1.18c-4.25-3.54-10.6-11.94-11.31-12.89-1.17-1.56-4.13-8.14-4.89-10.32a30.58,30.58,0,0,1-1-4.94,37.94,37.94,0,0,0-1-5.11C124.24,11,123,9,119.47,8.52s-6.13-.42-9.33,1c-2.35,1.06-3.6,5.84-3.89,7.6-1.78,15.31-5.17,44.73-5.26,46.12,0,.12,0,.25,0,.41-.3,6.58-2.74,10.08-7.26,10.4-5.53.42-8-6.92-8.15-7.24S75.35,38.22,74.35,35.57c-.14-.37-.27-.75-.41-1.15-.85-2.42-1.73-4.93-4.44-6.94A7.46,7.46,0,0,0,63,26.36l-.59.12c-1.24.21-14.23,4.85-15.16,5.28l-.26.12c-1.08.49-4.38,2-5.26,5.26-.81,3,.08,6.08.55,7.74A9,9,0,0,1,42.49,45.91Z"/><path class="cls-3" d="M259.31,178c-2.16,0-3.69-.13-4-.16H73.83c-5.06,0-14.48,0-16.7-10.75C55,156.64,69,150.59,70.27,150.08c6.91-3.69,20.19-10.8,21.32-11.49,1.45-.9,3.86-3.71,3.67-8.56s-4.58-7.69-8.85-9.83c-3.94-2-17.31-8.76-19-9.67a20,20,0,0,1-5.12-4A57.08,57.08,0,0,1,57.7,96c-.4-1.5-5.38-15.31-9.78-27.49-6.56-18.19-7.81-21.71-7.87-22.18,0-.1-.12-.45-.2-.73-.5-1.76-1.54-5.41-.56-9.06.79-2.91,3-5.22,6.62-6.87l.2-.09c.63-.32,14.31-5.25,15.84-5.5l.5-.1A9.87,9.87,0,0,1,71,25.5c3.32,2.46,4.42,5.59,5.3,8.1.13.38.26.75.4,1.1,1,2.67,10.81,30.17,11.23,31.34,0,.08,2,5.84,5.63,5.58,4.09-.3,4.81-4.46,5-8.05,0-.17,0-.33,0-.45.11-1.81,5.07-44.5,5.28-46.31.14-.84,1.35-7.72,5.32-9.52,3.71-1.67,6.83-1.71,10.66-1.22,5.11.65,6.79,4.1,7.76,7.39a40.77,40.77,0,0,1,1,5.46,29.32,29.32,0,0,0,.85,4.47A70.24,70.24,0,0,0,134,33.05c.69.92,6.88,9.11,10.91,12.47l1.42,1.16c3.27,2.69,5.64,4.62,5.87,8A25.88,25.88,0,0,1,151,63.87c-.28,1-.89,3.26-1.6,5.9-1.4,5.2-3,11.1-3.36,12.23-.83,2.5-1.66,8.08.21,9.66,2.39,2,4.3,3.18,10.78,2.19a37.19,37.19,0,0,0,11.68-4.1c3.1-1.82,8.34-5,9.22-5.8.37-.33.89-.74,1.56-1.26a46.41,46.41,0,0,0,11.37-11.85,152.34,152.34,0,0,0,11.76-24.17c1-3.26,4.59-12.39,4.74-12.77l4-10.86c.09-.2,2.43-5,6-6.65l.61-.28a21.53,21.53,0,0,1,10.32-2.42c3.43-.07,8.69,0,12.53,0,2.19,0,4.07,0,5,0,2,0,6,.62,8.53,3.17s4.78,7.46,5.05,8.06c.64,1.13,8.88,15.85,9.55,17.18l.25.49c.91,1.73,2.81,5.34,1.57,8.19a36.76,36.76,0,0,1-5.1,8.12c-1.56,2-24.6,30.31-25.72,31.68-2.69,3.29-3.09,5.14-3.09,6,0,2.12,1.65,5.92,3.92,9,2.69,3.71,31,46.28,32.24,48.09l0,.06c.37.64,3.63,6.31,4.16,8.14.67,2.28.24,6.47-1.86,10a10.23,10.23,0,0,1-6.45,5.09A43.93,43.93,0,0,1,259.31,178ZM42.49,45.91c.29,1,4.08,11.55,7.76,21.72,4.62,12.83,9.41,26.09,9.84,27.69A58.76,58.76,0,0,0,64.26,105a18.19,18.19,0,0,0,4.31,3.35c1.68.9,15,7.68,18.94,9.64,3,1.49,9.95,5,10.22,12,.29,7.37-4.32,10.43-4.85,10.75-1.47.91-20.69,11.16-21.5,11.6l-.12.06c-.14.05-13.5,5.57-11.71,14.2s9.31,8.78,14.28,8.78H255.45a47,47,0,0,0,12.85-.76,7.92,7.92,0,0,0,4.88-3.93c1.66-2.83,2.13-6.35,1.62-8.11a67.74,67.74,0,0,0-3.91-7.54c-.94-1.43-29.53-44.35-32.16-48s-4.39-7.83-4.39-10.5c0-2,1.23-4.56,3.65-7.51,1.11-1.37,24.12-29.62,25.68-31.63a34.06,34.06,0,0,0,4.78-7.59c.77-1.77-.76-4.67-1.49-6.06-.11-.2-.2-.38-.27-.53-.53-1.05-6.46-11.66-9.52-17.12l-.05-.1s-2.29-5.1-4.57-7.38c-2-2-5.28-2.45-6.74-2.44-.91,0-2.72,0-5,0-3.83,0-9.08-.06-12.47,0A19.16,19.16,0,0,0,219,18.36l-.61.28c-2.61,1.18-4.56,4.95-4.79,5.42l-3.91,10.71c0,.12-3.7,9.45-4.69,12.63a155.62,155.62,0,0,1-12,24.77A48.83,48.83,0,0,1,181,84.65c-.63.48-1.12.86-1.41,1.12-1.37,1.25-8.79,5.61-9.64,6.11a39.13,39.13,0,0,1-12.56,4.42c-6.85,1-9.56-.06-12.74-2.75-3.85-3.26-1-12.25-1-12.34.35-1.06,2.06-7.43,3.31-12.08.71-2.65,1.33-4.95,1.61-5.93a23.77,23.77,0,0,0,1.08-8.34c-.16-2.23-1.64-3.53-5-6.26l-1.43-1.18c-4.25-3.54-10.6-11.94-11.31-12.89-1.17-1.56-4.13-8.14-4.89-10.32a30.58,30.58,0,0,1-1-4.94,37.94,37.94,0,0,0-1-5.11C124.24,11,123,9,119.47,8.52s-6.13-.42-9.33,1c-2.35,1.06-3.6,5.84-3.89,7.6-1.78,15.31-5.17,44.73-5.26,46.12,0,.12,0,.25,0,.41-.3,6.58-2.74,10.08-7.26,10.4-5.53.42-8-6.92-8.15-7.24S75.35,38.22,74.35,35.57c-.14-.37-.27-.75-.41-1.15-.85-2.42-1.73-4.93-4.44-6.94A7.46,7.46,0,0,0,63,26.36l-.59.12c-1.24.21-14.23,4.85-15.16,5.28l-.26.12c-1.08.49-4.38,2-5.26,5.26-.81,3,.08,6.08.55,7.74A9,9,0,0,1,42.49,45.91Z"/><path class="cls-3" d="M259.31,178c-2.16,0-3.69-.13-4-.16H73.83c-5.06,0-14.48,0-16.7-10.75C55,156.64,69,150.59,70.27,150.08c6.91-3.69,20.19-10.8,21.32-11.49,1.45-.9,3.86-3.71,3.67-8.56s-4.58-7.69-8.85-9.83c-3.94-2-17.31-8.76-19-9.67a20,20,0,0,1-5.12-4A57.08,57.08,0,0,1,57.7,96c-.4-1.5-5.38-15.31-9.78-27.49-6.56-18.19-7.81-21.71-7.87-22.18,0-.1-.12-.45-.2-.73-.5-1.76-1.54-5.41-.56-9.06.79-2.91,3-5.22,6.62-6.87l.2-.09c.63-.32,14.31-5.25,15.84-5.5l.5-.1A9.87,9.87,0,0,1,71,25.5c3.32,2.46,4.42,5.59,5.3,8.1.13.38.26.75.4,1.1,1,2.67,10.81,30.17,11.23,31.34,0,.08,2,5.84,5.63,5.58,4.09-.3,4.81-4.46,5-8.05,0-.17,0-.33,0-.45.11-1.81,5.07-44.5,5.28-46.31.14-.84,1.35-7.72,5.32-9.52,3.71-1.67,6.83-1.71,10.66-1.22,5.11.65,6.79,4.1,7.76,7.39a40.77,40.77,0,0,1,1,5.46,29.32,29.32,0,0,0,.85,4.47A70.24,70.24,0,0,0,134,33.05c.69.92,6.88,9.11,10.91,12.47l1.42,1.16c3.27,2.69,5.64,4.62,5.87,8A25.88,25.88,0,0,1,151,63.87c-.28,1-.89,3.26-1.6,5.9-1.4,5.2-3,11.1-3.36,12.23-.83,2.5-1.66,8.08.21,9.66,2.39,2,4.3,3.18,10.78,2.19a37.19,37.19,0,0,0,11.68-4.1c3.1-1.82,8.34-5,9.22-5.8.37-.33.89-.74,1.56-1.26a46.41,46.41,0,0,0,11.37-11.85,152.34,152.34,0,0,0,11.76-24.17c1-3.26,4.59-12.39,4.74-12.77l4-10.86c.09-.2,2.43-5,6-6.65l.61-.28a21.53,21.53,0,0,1,10.32-2.42c3.43-.07,8.69,0,12.53,0,2.19,0,4.07,0,5,0,2,0,6,.62,8.53,3.17s4.78,7.46,5.05,8.06c.64,1.13,8.88,15.85,9.55,17.18l.25.49c.91,1.73,2.81,5.34,1.57,8.19a36.76,36.76,0,0,1-5.1,8.12c-1.56,2-24.6,30.31-25.72,31.68-2.69,3.29-3.09,5.14-3.09,6,0,2.12,1.65,5.92,3.92,9,2.69,3.71,31,46.28,32.24,48.09l0,.06c.37.64,3.63,6.31,4.16,8.14.67,2.28.24,6.47-1.86,10a10.23,10.23,0,0,1-6.45,5.09A43.93,43.93,0,0,1,259.31,178ZM42.49,45.91c.29,1,4.08,11.55,7.76,21.72,4.62,12.83,9.41,26.09,9.84,27.69A58.76,58.76,0,0,0,64.26,105a18.19,18.19,0,0,0,4.31,3.35c1.68.9,15,7.68,18.94,9.64,3,1.49,9.95,5,10.22,12,.29,7.37-4.32,10.43-4.85,10.75-1.47.91-20.69,11.16-21.5,11.6l-.12.06c-.14.05-13.5,5.57-11.71,14.2s9.31,8.78,14.28,8.78H255.45a47,47,0,0,0,12.85-.76,7.92,7.92,0,0,0,4.88-3.93c1.66-2.83,2.13-6.35,1.62-8.11a67.74,67.74,0,0,0-3.91-7.54c-.94-1.43-29.53-44.35-32.16-48s-4.39-7.83-4.39-10.5c0-2,1.23-4.56,3.65-7.51,1.11-1.37,24.12-29.62,25.68-31.63a34.06,34.06,0,0,0,4.78-7.59c.77-1.77-.76-4.67-1.49-6.06-.11-.2-.2-.38-.27-.53-.53-1.05-6.46-11.66-9.52-17.12l-.05-.1s-2.29-5.1-4.57-7.38c-2-2-5.28-2.45-6.74-2.44-.91,0-2.72,0-5,0-3.83,0-9.08-.06-12.47,0A19.16,19.16,0,0,0,219,18.36l-.61.28c-2.61,1.18-4.56,4.95-4.79,5.42l-3.91,10.71c0,.12-3.7,9.45-4.69,12.63a155.62,155.62,0,0,1-12,24.77A48.83,48.83,0,0,1,181,84.65c-.63.48-1.12.86-1.41,1.12-1.37,1.25-8.79,5.61-9.64,6.11a39.13,39.13,0,0,1-12.56,4.42c-6.85,1-9.56-.06-12.74-2.75-3.85-3.26-1-12.25-1-12.34.35-1.06,2.06-7.43,3.31-12.08.71-2.65,1.33-4.95,1.61-5.93a23.77,23.77,0,0,0,1.08-8.34c-.16-2.23-1.64-3.53-5-6.26l-1.43-1.18c-4.25-3.54-10.6-11.94-11.31-12.89-1.17-1.56-4.13-8.14-4.89-10.32a30.58,30.58,0,0,1-1-4.94,37.94,37.94,0,0,0-1-5.11C124.24,11,123,9,119.47,8.52s-6.13-.42-9.33,1c-2.35,1.06-3.6,5.84-3.89,7.6-1.78,15.31-5.17,44.73-5.26,46.12,0,.12,0,.25,0,.41-.3,6.58-2.74,10.08-7.26,10.4-5.53.42-8-6.92-8.15-7.24S75.35,38.22,74.35,35.57c-.14-.37-.27-.75-.41-1.15-.85-2.42-1.73-4.93-4.44-6.94A7.46,7.46,0,0,0,63,26.36l-.59.12c-1.24.21-14.23,4.85-15.16,5.28l-.26.12c-1.08.49-4.38,2-5.26,5.26-.81,3,.08,6.08.55,7.74A9,9,0,0,1,42.49,45.91Z"/><path class="cls-4" d="M259.31,178c-2.16,0-3.69-.13-4-.16H73.83c-5.06,0-14.48,0-16.7-10.75C55,156.64,69,150.59,70.27,150.08c6.91-3.69,20.19-10.8,21.32-11.49,1.45-.9,3.86-3.71,3.67-8.56s-4.58-7.69-8.85-9.83c-3.94-2-17.31-8.76-19-9.67a20,20,0,0,1-5.12-4A57.08,57.08,0,0,1,57.7,96c-.4-1.5-5.38-15.31-9.78-27.49-6.56-18.19-7.81-21.71-7.87-22.18,0-.1-.12-.45-.2-.73-.5-1.76-1.54-5.41-.56-9.06.79-2.91,3-5.22,6.62-6.87l.2-.09c.63-.32,14.31-5.25,15.84-5.5l.5-.1A9.87,9.87,0,0,1,71,25.5c3.32,2.46,4.42,5.59,5.3,8.1.13.38.26.75.4,1.1.48,1.29,3,8.46,5.12,14.24,3,8.3,6.11,17.1,6.11,17.1s2,5.84,5.63,5.58c4.09-.3,4.81-4.46,5-8.05,0-.17,0-.33,0-.45.11-1.81,5.07-44.5,5.28-46.31.14-.84,1.35-7.72,5.32-9.52,3.71-1.67,6.83-1.71,10.66-1.22,5.11.65,6.79,4.1,7.76,7.39a40.77,40.77,0,0,1,1,5.46,29.32,29.32,0,0,0,.85,4.47A70.24,70.24,0,0,0,134,33.05c.69.92,6.88,9.11,10.91,12.47l1.42,1.16c3.27,2.69,5.64,4.62,5.87,8A25.88,25.88,0,0,1,151,63.87c-.28,1-.89,3.26-1.6,5.9-1.4,5.2-3,11.1-3.36,12.23-.83,2.5-1.66,8.08.21,9.66,2.39,2,4.3,3.18,10.78,2.19a37.19,37.19,0,0,0,11.68-4.1c3.1-1.82,8.34-5,9.22-5.8.37-.33.89-.74,1.56-1.26a46.41,46.41,0,0,0,11.37-11.85,152.34,152.34,0,0,0,11.76-24.17c1-3.26,4.59-12.39,4.74-12.77l4-10.86c.09-.2,2.43-5,6-6.65l.61-.28a21.53,21.53,0,0,1,10.32-2.42c3.43-.07,8.69,0,12.53,0,2.19,0,4.07,0,5,0,2,0,6,.62,8.53,3.17s4.78,7.46,5.05,8.06c.64,1.13,8.88,15.85,9.55,17.18l.25.49c.91,1.73,2.81,5.34,1.57,8.19a36.76,36.76,0,0,1-5.1,8.12c-1.56,2-24.6,30.31-25.72,31.68-2.69,3.29-3.09,5.14-3.09,6,0,2.12,1.65,5.92,3.92,9,2.69,3.71,31,46.28,32.24,48.09l0,.06c.37.64,3.63,6.31,4.16,8.14.67,2.28.24,6.47-1.86,10a10.23,10.23,0,0,1-6.45,5.09A43.93,43.93,0,0,1,259.31,178ZM42.49,45.91c.29,1,4.08,11.55,7.76,21.72,4.62,12.83,9.41,26.09,9.84,27.69A58.76,58.76,0,0,0,64.26,105a18.19,18.19,0,0,0,4.31,3.35c1.68.9,15,7.68,18.94,9.64,3,1.49,9.95,5,10.22,12,.29,7.37-4.32,10.43-4.85,10.75-1.47.91-20.69,11.16-21.5,11.6l-.12.06c-.14.05-13.5,5.57-11.71,14.2s9.31,8.78,14.28,8.78H255.45a47,47,0,0,0,12.85-.76,7.92,7.92,0,0,0,4.88-3.93c1.66-2.83,2.13-6.35,1.62-8.11a67.74,67.74,0,0,0-3.91-7.54c-.94-1.43-29.53-44.35-32.16-48s-4.39-7.83-4.39-10.5c0-2,1.23-4.56,3.65-7.51,1.11-1.37,24.12-29.62,25.68-31.63a34.06,34.06,0,0,0,4.78-7.59c.77-1.77-.76-4.67-1.49-6.06-.11-.2-.2-.38-.27-.53-.53-1.05-6.46-11.66-9.52-17.12l-.05-.1s-2.29-5.1-4.57-7.38c-2-2-5.28-2.45-6.74-2.44-.91,0-2.72,0-5,0-3.83,0-9.08-.06-12.47,0A19.16,19.16,0,0,0,219,18.36l-.61.28c-2.61,1.18-4.56,4.95-4.79,5.42l-3.91,10.71c0,.12-3.7,9.45-4.69,12.63a155.62,155.62,0,0,1-12,24.77A48.83,48.83,0,0,1,181,84.65c-.63.48-1.12.86-1.41,1.12-1.37,1.25-8.79,5.61-9.64,6.11a39.13,39.13,0,0,1-12.56,4.42c-6.85,1-9.56-.06-12.74-2.75-3.85-3.26-1-12.25-1-12.34.35-1.06,2.06-7.43,3.31-12.08.71-2.65,1.33-4.95,1.61-5.93a23.77,23.77,0,0,0,1.08-8.34c-.16-2.23-1.64-3.53-5-6.26l-1.43-1.18c-4.25-3.54-10.6-11.94-11.31-12.89-1.17-1.56-4.13-8.14-4.89-10.32a30.58,30.58,0,0,1-1-4.94,37.94,37.94,0,0,0-1-5.11C124.24,11,123,9,119.47,8.52s-6.13-.42-9.33,1c-2.35,1.06-3.6,5.84-3.89,7.6-1.78,15.31-5.17,44.73-5.26,46.12,0,.12,0,.25,0,.41-.3,6.58-2.74,10.08-7.26,10.4-5.53.42-8-6.92-8.15-7.24h0s-3.13-8.78-6.1-17.07-4.73-13.19-5.11-14.2c-.14-.37-.27-.75-.41-1.15-.85-2.42-1.73-4.93-4.44-6.94A7.46,7.46,0,0,0,63,26.36l-.59.12c-1.24.21-14.23,4.85-15.16,5.28l-.26.12c-1.08.49-4.38,2-5.26,5.26-.81,3,.08,6.08.55,7.74A9,9,0,0,1,42.49,45.91Z"/><path class="cls-5" d="M259.31,178c-2.16,0-3.69-.13-4-.16H238.64v-2.47h16.81a47,47,0,0,0,12.85-.76,7.92,7.92,0,0,0,4.88-3.93c1.66-2.83,2.13-6.35,1.62-8.11a67.74,67.74,0,0,0-3.91-7.54c-.94-1.42-29.53-44.35-32.16-48s-4.39-7.83-4.39-10.5c0-2,1.23-4.56,3.65-7.51,1.11-1.37,24.12-29.62,25.68-31.63a34.06,34.06,0,0,0,4.78-7.59c.77-1.77-.76-4.67-1.49-6.06-.11-.2-.2-.38-.27-.53-.53-1.05-6.46-11.66-9.52-17.12l-.05-.1s-2.29-5.1-4.57-7.38c-2-2-5.27-2.46-6.74-2.44-.91,0-2.72,0-5,0-3.83,0-9.08-.06-12.47,0A19.16,19.16,0,0,0,219,18.36l-.61.28c-2.27,1-4.2,4.21-4.79,5.41l-3.91,10.72-2.32-.84,4-10.89c.09-.2,2.43-5,6-6.65l.61-.28a21.53,21.53,0,0,1,10.32-2.42c3.43-.07,8.69,0,12.53,0,2.19,0,4.07,0,5,0,2,0,6,.62,8.53,3.17s4.78,7.46,5.05,8.06c.64,1.13,8.88,15.85,9.55,17.18l.25.49c.91,1.73,2.81,5.34,1.57,8.19a36.76,36.76,0,0,1-5.1,8.12c-1.56,2-24.6,30.31-25.72,31.68-2.69,3.29-3.09,5.14-3.09,6,0,2.12,1.65,5.92,3.92,9,2.69,3.71,31,46.28,32.24,48.09l0,.06c.37.64,3.63,6.31,4.16,8.14.67,2.28.24,6.47-1.86,10a10.23,10.23,0,0,1-6.45,5.09A43.93,43.93,0,0,1,259.31,178Z"/><path class="cls-6" d="M153,96.69a11.36,11.36,0,0,1-8.28-3.14c-3.85-3.26-1-12.25-1-12.34.35-1.06,2.06-7.43,3.31-12.08.71-2.65,1.33-4.95,1.61-5.93a23.77,23.77,0,0,0,1.08-8.34c-.16-2.23-1.64-3.53-5-6.26l-1.43-1.18c-4.25-3.54-10.6-11.94-11.31-12.89-1.17-1.56-4.13-8.14-4.89-10.32a30.58,30.58,0,0,1-1-4.94,37.94,37.94,0,0,0-1-5.11C124.24,11,123,9,119.47,8.52s-6.13-.42-9.33,1c-2.35,1.06-3.6,5.84-3.89,7.6-1.78,15.31-5.17,44.73-5.26,46.12,0,.12,0,.25,0,.41-.3,6.58-2.74,10.08-7.26,10.4-5.53.42-8-6.92-8.15-7.24h0s-3.13-8.78-6.1-17.07l2.33-.83c3,8.3,6.11,17.1,6.11,17.1s2,5.84,5.63,5.58c4.09-.3,4.81-4.46,5-8.05,0-.17,0-.33,0-.45.11-1.81,5.07-44.5,5.28-46.31.14-.84,1.35-7.72,5.32-9.52,3.71-1.67,6.83-1.71,10.66-1.22,5.11.65,6.79,4.1,7.76,7.39a40.77,40.77,0,0,1,1,5.46,29.32,29.32,0,0,0,.85,4.47A70.24,70.24,0,0,0,134,33.05c.69.92,6.88,9.11,10.91,12.47l1.42,1.16c3.27,2.69,5.64,4.62,5.87,8A25.88,25.88,0,0,1,151,63.87c-.28,1-.89,3.26-1.6,5.9-1.4,5.2-3,11.1-3.36,12.23-.83,2.5-1.66,8.08.21,9.66,2.39,2,4.31,3.18,10.78,2.19a37.19,37.19,0,0,0,11.68-4.1c3.1-1.82,8.34-5,9.22-5.8.37-.33.89-.74,1.56-1.26a46.41,46.41,0,0,0,11.37-11.85,152.34,152.34,0,0,0,11.76-24.17c1-3.26,4.59-12.39,4.74-12.77l2.3.9c0,.09-3.69,9.42-4.68,12.6a155.62,155.62,0,0,1-12,24.77A48.83,48.83,0,0,1,181,84.65c-.63.48-1.12.86-1.41,1.12-1.37,1.25-8.79,5.61-9.64,6.11a39.13,39.13,0,0,1-12.56,4.42A30.14,30.14,0,0,1,153,96.69Z"/><rect class="cls-3" x="73.83" y="175.33" width="164.81" height="2.47"/><g id="Group-Copy-7"><circle id="Oval-Copy-2" class="cls-7" cx="90.08" cy="176.11" r="5.18"/><circle id="Oval-Copy-2-2" data-name="Oval-Copy-2" class="cls-8" cx="90.08" cy="176.11" r="5.18"/><circle id="Oval" class="cls-9" cx="90.08" cy="176.11" r="3.45"/><path class="cls-10" d="M90.08,179.93a3.82,3.82,0,1,1,3.82-3.82A3.83,3.83,0,0,1,90.08,179.93Zm0-6.9a3.08,3.08,0,1,0,3.08,3.08A3.09,3.09,0,0,0,90.08,173Z"/><circle id="Oval-Copy" class="cls-10" cx="90.08" cy="176.11" r="1.73"/></g><g id="Group-Copy-8"><circle id="Oval-Copy-2-3" data-name="Oval-Copy-2" class="cls-7" cx="271.77" cy="153.68" r="5.18"/><circle id="Oval-Copy-2-4" data-name="Oval-Copy-2" class="cls-11" cx="271.77" cy="153.68" r="5.18"/><circle id="Oval-2" data-name="Oval" class="cls-9" cx="271.77" cy="153.68" r="3.45"/><path class="cls-3" d="M271.77,157.51a3.83,3.83,0,1,1,3.82-3.83A3.84,3.84,0,0,1,271.77,157.51Zm0-6.91a3.09,3.09,0,1,0,3.08,3.08A3.09,3.09,0,0,0,271.77,150.6Z"/><circle id="Oval-Copy-2-5" data-name="Oval-Copy" class="cls-3" cx="271.77" cy="153.68" r="1.73"/></g><g id="Group-6"><rect id="Rectangle-2" x="147.24" y="174.64" width="1.29" height="1.29" transform="translate(-27.93 322.54) rotate(-89.79)"/><rect id="Rectangle-2-Copy-4" class="cls-9" x="147.23" y="175.93" width="1.29" height="1.29" transform="translate(-29.23 323.82) rotate(-89.79)"/><rect id="Rectangle-2-Copy-7" x="147.23" y="177.23" width="1.29" height="1.29" transform="translate(-30.53 325.11) rotate(-89.79)"/><rect id="Rectangle-2-Copy" class="cls-9" x="148.53" y="174.64" width="1.29" height="1.29" transform="translate(-26.65 323.83) rotate(-89.79)"/><rect id="Rectangle-2-Copy-5" x="148.53" y="175.94" width="1.29" height="1.29" transform="translate(-27.95 325.12) rotate(-89.79)"/><rect id="Rectangle-2-Copy-9" class="cls-9" x="148.52" y="177.23" width="1.29" height="1.29" transform="translate(-29.25 326.4) rotate(-89.79)"/><rect id="Rectangle-2-Copy-3" x="149.82" y="174.65" width="1.29" height="1.29" transform="matrix(0, -1, 1, 0, -25.36, 325.13)"/><rect id="Rectangle-2-Copy-6" class="cls-9" x="149.82" y="175.94" width="1.29" height="1.29" transform="translate(-26.66 326.42) rotate(-89.79)"/><rect id="Rectangle-2-Copy-10" x="149.82" y="177.24" width="1.29" height="1.29" transform="matrix(0, -1, 1, 0, -27.96, 327.7)"/></g></g></svg>