<?xml version="1.0" encoding="UTF-8"?>
<svg width="375px" height="225px" viewBox="0 0 375 225" version="1.1" xmlns="http://www.w3.org/2000/svg" xmlns:xlink="http://www.w3.org/1999/xlink">
    <!-- Generator: Sketch 58 (84663) - https://sketch.com -->
    <title>circuit-gs-Marina-Bay</title>
    <desc>Created with Sketch.</desc>
    <defs>
        <linearGradient x1="50%" y1="23.3035083%" x2="50%" y2="112.667183%" id="linearGradient-1">
            <stop stop-color="#1B94E2" offset="0%"></stop>
            <stop stop-color="#40D8AB" offset="100%"></stop>
        </linearGradient>
    </defs>
    <g id="circuit-gs-Marina-Bay" stroke="none" stroke-width="1" fill="none" fill-rule="evenodd">
        <g id="Singapore-Circuit">
            <g id="Group-5" transform="translate(18.000000, 4.000000)">
                <path d="M289.635471,16.8573671 L290.554136,15.080838 C296.751042,18.2853329 300.515288,22.7443136 301.780246,28.4933665 C302.34894,32.3470189 304.833013,51.058124 308.746223,80.8440661 C308.778206,81.0875129 308.778206,81.0875129 308.810188,81.3309656 C310.810908,96.5608355 315.62358,133.308219 315.603776,133.158002 C316.185462,137.995117 315.55688,139.987071 312.774535,143.335499 C309.737245,146.88618 309.256033,147.392055 306.402177,149.996543 C305.66568,150.597605 304.159245,151.952862 303.889555,152.15726 C303.480247,152.467474 303.076427,152.694985 302.547895,152.908335 C301.977826,153.138451 301.249449,153.360073 299.951064,153.707685 C297.313379,154.413865 292.368485,155.657158 285.110812,157.439069 L284.633933,155.496754 C291.878521,153.718056 296.813676,152.477212 299.433827,151.775727 C300.657,151.44825 301.326772,151.24446 301.799258,151.053734 C302.16565,150.905835 302.414802,150.765464 302.681512,150.563324 C302.869313,150.420989 304.338654,149.099104 305.095507,148.483429 C307.841831,145.975058 308.2676,145.527468 311.245488,142.046387 C313.675693,139.121603 314.132454,137.674143 313.619456,133.407709 C313.640557,133.568256 308.827874,96.8207887 306.827226,81.5914637 C306.795245,81.3480203 306.795245,81.3480203 306.763263,81.1045829 C302.853634,51.345896 300.367891,32.6222134 299.814413,28.8546588 C298.697948,23.7906686 295.331423,19.8028123 289.635471,16.8573671 Z" id="Path-39" fill="#E6E6E6" fill-rule="nonzero"></path>
                <path d="M20.0203596,159.490108 C24.9547843,160.067396 27.6492409,161.441984 28.8994295,164.349674 C29.7866655,166.413208 29.7765139,167.343376 29.3002799,173.189129 C29.2276278,174.08093 29.1758124,174.790076 29.1331626,175.511625 C28.180219,180.641358 28.9971473,182.664244 32.3789264,185.462572 C33.0142146,185.988255 33.7639635,186.568849 34.6332798,187.211739 C35.0731774,187.537059 35.5416829,187.876874 36.0480765,188.238541 C36.6104731,188.640205 41.0593667,191.7362 41.8855588,192.364392 C43.0989098,193.286959 47.3353397,196.363475 48.1265798,196.960336 C50.5020415,198.752231 52.0829575,200.13782 53.2633687,201.579557 C54.338224,202.892369 54.7066822,203.571128 56.8948907,207.908186 C58.283199,210.65983 59.1665756,212.14729 59.9251709,212.923905 C60.9304391,211.695145 61.6751117,209.081038 62.330366,205.074858 C62.5329377,203.836348 64.2813955,190.761327 64.6910985,187.796099 C66.2200439,176.730343 67.726985,166.761085 69.3679412,157.261825 C73.504862,133.313782 77.6776862,116.998656 82.2342708,110.271929 C83.4708354,107.918731 84.8902859,106.15488 86.5064285,104.959803 C90.1314598,102.279228 93.9277119,102.711143 97.5847519,104.88049 C98.2927508,105.300473 99.4954309,106.137257 99.407582,106.089033 C103.173024,108.709842 126.126718,124.003957 130.91416,127.05672 C131.291099,127.308657 135.4062,130.200875 136.083265,130.546824 C136.712888,130.868532 137.323284,131.034971 138.391615,131.142885 C139.859887,131.291199 141.628942,131.504369 144.067148,131.820694 C145.269418,131.976673 149.90072,132.590943 150.862531,132.71672 C151.411382,132.788494 151.929982,132.855801 152.431743,132.920327 C156.875892,133.491839 158.360727,135.159774 158.624857,139.134526 C158.624513,139.129343 158.65595,139.611277 158.665702,139.753184 C158.805681,141.790214 159.086151,144.232671 159.369941,145.343469 C160.233431,149.066803 161.606121,150.328375 164.527093,150.608351 C166.284596,150.841458 170.245322,151.150683 176.13985,151.535065 C177.544315,151.62665 179.05246,151.72216 180.689622,151.823494 C183.410219,151.991889 194.232572,152.636537 195.897749,152.745012 C197.365509,152.90369 198.02454,152.804169 198.213763,152.679953 C198.35631,152.163171 198.35201,152.178257 198.453688,151.817981 C198.554879,151.459432 198.624308,151.229578 198.713353,150.978638 C199.494148,148.531481 200.807978,145.11718 203.267582,139.240965 C205.035199,134.508348 206.483675,133.578243 211.232873,133.986238 C216.333855,134.400211 232.96438,137.484472 238.489342,139.252768 C242.414097,140.410429 243.655452,142.256546 244.018581,146.056242 C244.138311,147.309062 244.138791,147.313738 244.206244,147.797655 C244.673294,151.101244 245.492395,152.910346 246.486559,153.72854 C247.128049,154.256483 247.929286,154.454695 249.615797,154.523409 C250.426354,154.556434 268.192649,155.508361 273.922371,155.805973 C274.917959,155.857686 275.89211,155.908014 276.846139,155.957012 C290.988706,156.683363 300.40737,157.099899 303.099305,157.089711 C304.304885,156.528119 305.953086,155.276852 307.886759,153.442362 C308.939952,152.44319 310.057891,151.293405 311.264885,149.979622 C312.143474,149.023298 313.033058,148.020746 314.07415,146.821613 C314.462062,146.374816 315.72836,144.905037 316.276547,144.271281 C316.703709,143.50251 316.980027,142.67284 317.129433,141.751942 C317.372725,140.252372 317.297246,138.800934 316.93724,136.162338 C316.70424,134.454606 316.697628,134.404035 316.637563,133.783694 C316.501895,132.382534 314.072349,115.786117 308.715363,79.5091513 C302.743402,39.0679145 301.303193,29.2935838 300.857637,26.0391907 C300.604656,25.9690595 300.262956,25.8881476 299.816161,25.7949128 C299.605126,25.7508753 298.310881,25.4926919 297.895036,25.4051032 C297.026946,25.2222587 296.273989,25.0427574 295.518333,24.8304782 C293.523969,24.2702199 291.71245,23.5303548 289.976562,22.4928773 C288.907658,21.8540314 287.891214,21.1135866 286.912189,20.2463673 C283.868025,17.5117748 282.09178,15.0125308 280.093337,10.6138815 C279.553879,9.3437575 279.16646,9.02064744 278.687032,9.02064744 C276.591367,9.02064744 273.930306,16.0792748 273.523955,23.9494775 C272.978877,34.506568 274.701501,42.7670547 277.388011,49.3022192 C277.653565,50.0152369 279.264064,54.0831008 279.322561,54.2324501 C280.419586,57.0332887 281.36054,59.5401192 282.2665,62.1269582 C283.465726,65.5511768 284.48993,68.8049013 285.316484,71.8987876 C286.781349,77.3819443 287.569912,82.1477791 287.533078,86.1115334 C287.473078,92.5680623 285.895666,96.8231225 282.598517,99.2530687 C280.00766,101.16249 277.274377,101.621965 272.362634,101.621965 C269.295993,101.621965 265.840202,101.582735 261.866575,101.508529 C259.322451,101.461018 256.703713,101.40229 253.383698,101.320805 C253.114696,101.314203 247.435023,101.172156 245.97094,101.137638 C243.451387,101.078236 241.648597,101.043283 240.236252,101.02877 C238.971645,101.015775 197.215163,99.2591798 189.445442,98.8289032 C182.067295,98.4203115 178.214669,97.1914853 174.178287,94.6072872 C173.446336,94.1326329 173.31325,94.0458162 173.217306,93.9834315 C172.843498,93.740375 172.578439,93.5717834 172.262957,93.3786948 C168.524856,90.9900162 159.26415,85.597697 145.06485,77.4854864 C140.885363,75.0984274 118.6034,62.4263823 116.065789,60.9482545 C114.033685,59.6888364 114.042818,59.6856997 112.929611,61.2617684 C112.890538,61.3170882 112.565709,61.7816897 112.463431,61.9252276 C112.289395,62.1694706 112.136233,62.3759128 111.980654,62.5724065 C111.332843,63.4796606 110.187642,65.3156042 108.354609,68.3658138 C107.746707,69.3773777 103.899854,75.8287107 102.721079,77.7861038 C102.442947,78.24795 102.173161,78.6947908 101.909756,79.1298061 C99.1398084,83.7044095 96.9788045,87.1300453 95.215851,89.6840363 C90.636277,96.318466 85.3135746,96.5773698 80.6570425,92.7981677 C80.3165707,92.5218437 79.9985037,92.2415074 79.6466672,91.9146656 C79.5305275,91.8067765 79.0930407,91.3932594 79.0113586,91.3187177 C78.2296558,90.6053481 76.8379323,89.343584 75.287019,87.9466452 C72.9619125,85.8523751 70.5945862,83.7378933 68.3086205,81.7195096 C62.0740867,76.2147543 57.390858,72.2607174 55.3248971,70.8309123 C54.316561,70.6370596 53.643551,71.4972273 50.2260307,75.9264017 C40.8397902,91.2551128 10.5800803,139.92819 8.12946871,144.199988 C5.75919888,148.297994 5.91811854,148.84398 10.7294305,153.481561 C17.6734562,159.028032 18.3372157,159.471597 20.0203596,159.490108 Z M54.9471734,70.2555656 C54.950099,70.2545283 54.9529851,70.253469 54.9558298,70.2523878 C54.9548816,70.2527482 54.9539347,70.2531085 54.9529892,70.2534687 L54.9471734,70.2555656 Z M300.761625,25.3220925 C300.755196,25.2726229 300.749086,25.2252008 300.743258,25.1795881 C300.748887,25.2253637 300.757027,25.271573 300.767575,25.317867 L300.761625,25.3220925 Z M60.0448243,213.041509 C60.0446014,213.04181 60.0505954,213.047416 60.0628063,213.058327 C60.0568189,213.052765 60.050825,213.047159 60.0448243,213.041509 Z M13.0862112,162.920005 C12.1822621,162.308046 11.2463414,161.601538 10.0359109,160.634691 C9.55154821,160.2478 7.44782647,158.539505 6.87584721,158.082572 C-0.00332107691,151.476807 -1.1124147,148.194729 2.93035258,141.205146 C5.44504874,136.8216 35.9656926,87.7298115 45.1933166,72.6556342 C45.8519208,71.7734953 47.3602889,69.790508 47.297608,69.8725003 C48.0083323,68.942808 48.5043763,68.3138132 48.9781998,67.7518119 C50.3384951,66.1383679 51.4510087,65.1657153 52.8241899,64.643813 C54.9163795,63.8486387 56.9290264,64.4001485 58.8508823,65.974917 C61.2319646,67.6449681 65.9326306,71.6175556 72.2798493,77.2218055 C74.5819854,79.2544668 76.9637038,81.3818035 79.3025807,83.4884769 C80.8631585,84.8941207 82.26453,86.164632 83.0558642,86.886791 C83.1844074,87.0040974 83.6493258,87.4435431 83.7302899,87.5187555 C83.9918952,87.7617763 84.2146239,87.9580836 84.4380484,88.1394131 C86.5595675,89.8612201 87.8461178,89.7986404 90.2780027,86.2755682 C91.956353,83.8441419 94.0647841,80.5018448 96.7773073,76.0220793 C97.0381387,75.5913131 97.3054427,75.1485843 97.5811555,74.6907546 C98.7513565,72.7475996 102.596294,66.2994775 103.211816,65.2752354 C105.181234,61.9980786 106.376767,60.0838922 107.15567,59.0050052 C107.660399,58.3264048 107.975248,57.8760768 108.028812,57.8002418 C110.808927,53.8641798 114.165332,52.7115513 119.155123,55.8053883 C121.591061,57.2230076 143.831837,69.8716291 147.465775,71.9470586 C162.355587,80.4537124 171.633044,85.8557852 175.439758,88.2891083 C175.760614,88.4846829 176.069527,88.6811684 176.488004,88.9532692 C177.139006,89.3775117 177.278339,89.4676949 177.413421,89.5541781 C180.572557,91.5767403 183.424073,92.4862547 189.777205,92.8380825 C197.462582,93.2636882 239.147262,95.0172629 240.297904,95.0290867 C241.743096,95.0439373 243.568248,95.0793241 246.11236,95.1393053 C247.58153,95.1739431 253.265745,95.3161034 253.530915,95.3226117 C256.840204,95.4038334 259.448198,95.4623202 261.978603,95.5095747 C265.917812,95.5831381 269.338084,95.6219655 272.362634,95.6219655 C276.03993,95.6219655 277.817586,95.3231342 279.038879,94.4230612 C280.565592,93.2978977 281.489189,90.8065002 281.533337,86.0557789 C281.564268,82.7272726 280.857006,78.4527949 279.519783,73.4474183 C278.735887,70.5132048 277.756062,67.400467 276.603737,64.110165 C275.724982,61.6010059 274.808351,59.1589768 273.735812,56.4206531 C273.709013,56.352232 272.130852,52.3660342 271.819622,51.5372312 C268.829771,44.2452177 266.938007,35.1433521 267.531937,23.6401007 C268.104254,12.5554431 271.698817,3.02064744 278.687032,3.02064744 C281.874531,3.02064744 284.216682,4.97401747 285.585678,8.19964023 C287.223143,11.8019053 288.517368,13.6229292 290.90608,15.7688241 C291.587084,16.371988 292.301892,16.892702 293.054686,17.3426196 C295.2505,18.6549784 296.052704,18.8803343 301.041804,19.9214302 C302.424012,20.2098613 303.28156,20.4553487 304.10211,20.8783268 C305.52281,21.6106705 306.497412,22.8126787 306.696643,24.4332591 C306.986972,26.7055943 308.083436,34.1580974 314.628826,78.4825153 C320.147688,115.855686 322.457489,131.634117 322.609634,133.205445 C322.658358,133.70866 322.665359,133.762207 322.882162,135.351222 C323.318264,138.547552 323.417662,140.458954 323.051993,142.712822 C322.771286,144.443012 322.204844,146.059811 321.302567,147.564234 C320.657981,148.375582 319.060751,150.230049 318.604834,150.755174 C317.529887,151.993301 316.60512,153.035504 315.683298,154.038886 C314.389825,155.4468 313.179175,156.691936 312.016297,157.795167 C309.305513,160.366909 306.940973,162.099569 304.744935,162.897133 C301.74274,163.167951 292.244628,162.755774 276.538389,161.949115 C275.583172,161.900056 274.607863,161.849668 273.611139,161.797896 C267.825576,161.497383 250.1372,160.549631 249.37154,160.518436 C243.068915,160.261645 239.492581,157.318334 238.264513,148.631803 C238.214633,148.273984 238.172976,147.921108 238.132924,147.531266 C238.065089,146.830984 238.065089,146.830984 238.045795,146.627049 C237.897459,145.074899 238.114578,145.397794 236.726514,144.987553 C231.597233,143.346657 215.413391,140.345236 210.733446,139.965399 C210.115599,139.912326 209.737171,139.883844 209.473894,139.872765 C209.32699,140.192455 209.140707,140.661033 208.870057,141.389344 C206.395803,147.305268 205.130681,150.595336 204.414791,152.848477 C204.110657,153.863892 204.115834,153.845728 204.067342,154.006158 C203.000189,157.536716 200.401882,159.255644 195.444356,158.72822 C193.603421,158.609713 183.021371,157.979303 180.318954,157.812034 C178.675579,157.710315 177.160969,157.614396 175.749419,157.522349 C169.751204,157.131205 165.760439,156.820393 163.897695,156.575422 C158.383293,156.027485 154.953671,152.859068 153.541375,146.765818 C153.153238,145.250938 152.844719,142.564229 152.679818,140.164517 C152.624364,139.326235 152.611969,139.159705 152.600174,139.023965 C151.160238,138.806222 150.63744,138.73837 150.084531,138.666066 C149.114166,138.539171 144.486995,137.925448 143.295196,137.770828 C140.908761,137.461219 139.187707,137.253833 137.78861,137.112507 C136.014658,136.933316 134.687207,136.571356 133.353264,135.889772 C132.240369,135.321133 127.572035,132.040806 127.633675,132.080088 C122.827485,129.016159 99.8022173,113.67435 96.2404335,111.174351 C95.755118,110.856147 94.8592385,110.239953 94.523628,110.04087 C92.7197381,108.970807 91.3798089,108.818358 90.073811,109.784094 C89.2193715,110.41592 88.3395501,111.521453 87.4779515,113.192931 C83.3978484,119.110821 79.2707453,135.183477 75.280373,158.283172 C73.6526044,167.706092 72.1551042,177.612893 70.6346336,188.617311 C70.2403824,191.470707 68.4708007,204.703694 68.2516848,206.043354 C67.4679942,210.834784 66.5466231,214.069175 65.1676972,216.17913 C63.0360521,219.440854 59.5961861,220.060089 56.2811834,217.700261 C54.4624137,216.045193 53.3589022,214.219777 51.5380857,210.610895 C49.6634222,206.895288 49.2745126,206.178854 48.6209012,205.380543 C47.8177237,204.399554 46.5355962,203.275837 44.5133026,201.750349 C43.7834653,201.199807 39.5346144,198.114271 38.2540107,197.140568 C37.5465971,196.602689 33.2171823,193.589839 32.5609231,193.121139 C32.0289135,192.741177 31.5339386,192.382163 31.0656705,192.035862 C30.1150227,191.332825 29.2821914,190.687893 28.5538329,190.085196 C23.5957643,185.982533 21.8906756,181.83644 23.1551089,174.966782 C23.1984738,174.259947 23.2503922,173.557503 23.3200918,172.701943 C23.6773752,168.316304 23.6871894,167.417057 23.3873332,166.719651 C23.1773236,166.231211 22.364364,165.808784 19.8422452,165.487815 C17.6098612,165.435525 15.5029072,164.556069 13.0862112,162.920005 Z M209.666564,139.496174 C209.669116,139.493122 209.671594,139.490102 209.673997,139.487115 C209.673371,139.487893 209.671998,139.489887 209.669906,139.493124 L209.666564,139.496174 Z" id="Path-38" fill="#EBEBEB" fill-rule="nonzero"></path>
                <path d="M20.0203596,156.490108 C24.9547843,157.067396 27.6492409,158.441984 28.8994295,161.349674 C29.7866655,163.413208 29.7765139,164.343376 29.3002799,170.189129 C29.2276278,171.08093 29.1758124,171.790076 29.1331626,172.511625 C28.180219,177.641358 28.9971473,179.664244 32.3789264,182.462572 C33.0142146,182.988255 33.7639635,183.568849 34.6332798,184.211739 C35.0731774,184.537059 35.5416829,184.876874 36.0480765,185.238541 C36.6104731,185.640205 41.0593667,188.7362 41.8855588,189.364392 C43.0989098,190.286959 47.3353397,193.363475 48.1265798,193.960336 C50.5020415,195.752231 52.0829575,197.13782 53.2633687,198.579557 C54.338224,199.892369 54.7066822,200.571128 56.8948907,204.908186 C58.283199,207.65983 59.1665756,209.14729 59.9251709,209.923905 C60.9304391,208.695145 61.6751117,206.081038 62.330366,202.074858 C62.5329377,200.836348 64.2813955,187.761327 64.6910985,184.796099 C66.2200439,173.730343 67.726985,163.761085 69.3679412,154.261825 C73.504862,130.313782 77.6776862,113.998656 82.2342708,107.271929 C83.4708354,104.918731 84.8902859,103.15488 86.5064285,101.959803 C90.1314598,99.2792284 93.9277119,99.7111431 97.5847519,101.88049 C98.2927508,102.300473 99.4954309,103.137257 99.407582,103.089033 C103.173024,105.709842 126.126718,121.003957 130.91416,124.05672 C131.291099,124.308657 135.4062,127.200875 136.083265,127.546824 C136.712888,127.868532 137.323284,128.034971 138.391615,128.142885 C139.859887,128.291199 141.628942,128.504369 144.067148,128.820694 C145.269418,128.976673 149.90072,129.590943 150.862531,129.71672 C151.411382,129.788494 151.929982,129.855801 152.431743,129.920327 C156.875892,130.491839 158.360727,132.159774 158.624857,136.134526 C158.624513,136.129343 158.65595,136.611277 158.665702,136.753184 C158.805681,138.790214 159.086151,141.232671 159.369941,142.343469 C160.233431,146.066803 161.606121,147.328375 164.527093,147.608351 C166.284596,147.841458 170.245322,148.150683 176.13985,148.535065 C177.544315,148.62665 179.05246,148.72216 180.689622,148.823494 C183.410219,148.991889 194.232572,149.636537 195.897749,149.745012 C197.365509,149.90369 198.02454,149.804169 198.213763,149.679953 C198.35631,149.163171 198.35201,149.178257 198.453688,148.817981 C198.554879,148.459432 198.624308,148.229578 198.713353,147.978638 C199.494148,145.531481 200.807978,142.11718 203.267582,136.240965 C205.035199,131.508348 206.483675,130.578243 211.232873,130.986238 C216.333855,131.400211 232.96438,134.484472 238.489342,136.252768 C242.414097,137.410429 243.655452,139.256546 244.018581,143.056242 C244.138311,144.309062 244.138791,144.313738 244.206244,144.797655 C244.673294,148.101244 245.492395,149.910346 246.486559,150.72854 C247.128049,151.256483 247.929286,151.454695 249.615797,151.523409 C250.426354,151.556434 268.192649,152.508361 273.922371,152.805973 C274.917959,152.857686 275.89211,152.908014 276.846139,152.957012 C290.988706,153.683363 300.40737,154.099899 303.099305,154.089711 C304.304885,153.528119 305.953086,152.276852 307.886759,150.442362 C308.939952,149.44319 310.057891,148.293405 311.264885,146.979622 C312.143474,146.023298 313.033058,145.020746 314.07415,143.821613 C314.462062,143.374816 315.72836,141.905037 316.276547,141.271281 C316.703709,140.50251 316.980027,139.67284 317.129433,138.751942 C317.372725,137.252372 317.297246,135.800934 316.93724,133.162338 C316.70424,131.454606 316.697628,131.404035 316.637563,130.783694 C316.501895,129.382534 314.072349,112.786117 308.715363,76.5091513 C302.743402,36.0679145 301.303193,26.2935838 300.857637,23.0391907 C300.604656,22.9690595 300.262956,22.8881476 299.816161,22.7949128 C299.605126,22.7508753 298.310881,22.4926919 297.895036,22.4051032 C297.026946,22.2222587 296.273989,22.0427574 295.518333,21.8304782 C293.523969,21.2702199 291.71245,20.5303548 289.976562,19.4928773 C288.907658,18.8540314 287.891214,18.1135866 286.912189,17.2463673 C283.868025,14.5117748 282.09178,12.0125308 280.093337,7.61388153 C279.553879,6.3437575 279.16646,6.02064744 278.687032,6.02064744 C276.591367,6.02064744 273.930306,13.0792748 273.523955,20.9494775 C272.978877,31.506568 274.701501,39.7670547 277.388011,46.3022192 C277.653565,47.0152369 279.264064,51.0831008 279.322561,51.2324501 C280.419586,54.0332887 281.36054,56.5401192 282.2665,59.1269582 C283.465726,62.5511768 284.48993,65.8049013 285.316484,68.8987876 C286.781349,74.3819443 287.569912,79.1477791 287.533078,83.1115334 C287.473078,89.5680623 285.895666,93.8231225 282.598517,96.2530687 C280.00766,98.1624895 277.274377,98.6219655 272.362634,98.6219655 C269.295993,98.6219655 265.840202,98.5827349 261.866575,98.5085288 C259.322451,98.4610181 256.703713,98.4022903 253.383698,98.3208053 C253.114696,98.3142031 247.435023,98.1721563 245.97094,98.1376384 C243.451387,98.0782363 241.648597,98.0432831 240.236252,98.02877 C238.971645,98.015775 197.215163,96.2591798 189.445442,95.8289032 C182.067295,95.4203115 178.214669,94.1914853 174.178287,91.6072872 C173.446336,91.1326329 173.31325,91.0458162 173.217306,90.9834315 C172.843498,90.740375 172.578439,90.5717834 172.262957,90.3786948 C168.524856,87.9900162 159.26415,82.597697 145.06485,74.4854864 C140.885363,72.0984274 118.6034,59.4263823 116.065789,57.9482545 C114.033685,56.6888364 114.042818,56.6856997 112.929611,58.2617684 C112.890538,58.3170882 112.565709,58.7816897 112.463431,58.9252276 C112.289395,59.1694706 112.136233,59.3759128 111.980654,59.5724065 C111.332843,60.4796606 110.187642,62.3156042 108.354609,65.3658138 C107.746707,66.3773777 103.899854,72.8287107 102.721079,74.7861038 C102.442947,75.24795 102.173161,75.6947908 101.909756,76.1298061 C99.1398084,80.7044095 96.9788045,84.1300453 95.215851,86.6840363 C90.636277,93.318466 85.3135746,93.5773698 80.6570425,89.7981677 C80.3165707,89.5218437 79.9985037,89.2415074 79.6466672,88.9146656 C79.5305275,88.8067765 79.0930407,88.3932594 79.0113586,88.3187177 C78.2296558,87.6053481 76.8379323,86.343584 75.287019,84.9466452 C72.9619125,82.8523751 70.5945862,80.7378933 68.3086205,78.7195096 C62.0740867,73.2147543 57.390858,69.2607174 55.3248971,67.8309123 C54.316561,67.6370596 53.643551,68.4972273 50.2260307,72.9264017 C40.8397902,88.2551128 10.5800803,136.92819 8.12946871,141.199988 C5.75919888,145.297994 5.91811854,145.84398 10.7294305,150.481561 C17.6734562,156.028032 18.3372157,156.471597 20.0203596,156.490108 Z M54.9471734,67.2555656 C54.950099,67.2545283 54.9529851,67.253469 54.9558298,67.2523878 C54.9548816,67.2527482 54.9539347,67.2531085 54.9529892,67.2534687 L54.9471734,67.2555656 Z M300.761625,22.3220925 C300.755196,22.2726229 300.749086,22.2252008 300.743258,22.1795881 C300.748887,22.2253637 300.757027,22.271573 300.767575,22.317867 L300.761625,22.3220925 Z M60.0448243,210.041509 C60.0446014,210.04181 60.0505954,210.047416 60.0628063,210.058327 C60.0568189,210.052765 60.050825,210.047159 60.0448243,210.041509 Z M13.0862112,159.920005 C12.1822621,159.308046 11.2463414,158.601538 10.0359109,157.634691 C9.55154821,157.2478 7.44782647,155.539505 6.87584721,155.082572 C-0.00332107691,148.476807 -1.1124147,145.194729 2.93035258,138.205146 C5.44504874,133.8216 35.9656926,84.7298115 45.1933166,69.6556342 C45.8519208,68.7734953 47.3602889,66.790508 47.297608,66.8725003 C48.0083323,65.942808 48.5043763,65.3138132 48.9781998,64.7518119 C50.3384951,63.1383679 51.4510087,62.1657153 52.8241899,61.643813 C54.9163795,60.8486387 56.9290264,61.4001485 58.8508823,62.974917 C61.2319646,64.6449681 65.9326306,68.6175556 72.2798493,74.2218055 C74.5819854,76.2544668 76.9637038,78.3818035 79.3025807,80.4884769 C80.8631585,81.8941207 82.26453,83.164632 83.0558642,83.886791 C83.1844074,84.0040974 83.6493258,84.4435431 83.7302899,84.5187555 C83.9918952,84.7617763 84.2146239,84.9580836 84.4380484,85.1394131 C86.5595675,86.8612201 87.8461178,86.7986404 90.2780027,83.2755682 C91.956353,80.8441419 94.0647841,77.5018448 96.7773073,73.0220793 C97.0381387,72.5913131 97.3054427,72.1485843 97.5811555,71.6907546 C98.7513565,69.7475996 102.596294,63.2994775 103.211816,62.2752354 C105.181234,58.9980786 106.376767,57.0838922 107.15567,56.0050052 C107.660399,55.3264048 107.975248,54.8760768 108.028812,54.8002418 C110.808927,50.8641798 114.165332,49.7115513 119.155123,52.8053883 C121.591061,54.2230076 143.831837,66.8716291 147.465775,68.9470586 C162.355587,77.4537124 171.633044,82.8557852 175.439758,85.2891083 C175.760614,85.4846829 176.069527,85.6811684 176.488004,85.9532692 C177.139006,86.3775117 177.278339,86.4676949 177.413421,86.5541781 C180.572557,88.5767403 183.424073,89.4862547 189.777205,89.8380825 C197.462582,90.2636882 239.147262,92.0172629 240.297904,92.0290867 C241.743096,92.0439373 243.568248,92.0793241 246.11236,92.1393053 C247.58153,92.1739431 253.265745,92.3161034 253.530915,92.3226117 C256.840204,92.4038334 259.448198,92.4623202 261.978603,92.5095747 C265.917812,92.5831381 269.338084,92.6219655 272.362634,92.6219655 C276.03993,92.6219655 277.817586,92.3231342 279.038879,91.4230612 C280.565592,90.2978977 281.489189,87.8065002 281.533337,83.0557789 C281.564268,79.7272726 280.857006,75.4527949 279.519783,70.4474183 C278.735887,67.5132048 277.756062,64.400467 276.603737,61.110165 C275.724982,58.6010059 274.808351,56.1589768 273.735812,53.4206531 C273.709013,53.352232 272.130852,49.3660342 271.819622,48.5372312 C268.829771,41.2452177 266.938007,32.1433521 267.531937,20.6401007 C268.104254,9.5554431 271.698817,0.0206474363 278.687032,0.0206474363 C281.874531,0.0206474363 284.216682,1.97401747 285.585678,5.19964023 C287.223143,8.80190527 288.517368,10.6229292 290.90608,12.7688241 C291.587084,13.371988 292.301892,13.892702 293.054686,14.3426196 C295.2505,15.6549784 296.052704,15.8803343 301.041804,16.9214302 C302.424012,17.2098613 303.28156,17.4553487 304.10211,17.8783268 C305.52281,18.6106705 306.497412,19.8126787 306.696643,21.4332591 C306.986972,23.7055943 308.083436,31.1580974 314.628826,75.4825153 C320.147688,112.855686 322.457489,128.634117 322.609634,130.205445 C322.658358,130.70866 322.665359,130.762207 322.882162,132.351222 C323.318264,135.547552 323.417662,137.458954 323.051993,139.712822 C322.771286,141.443012 322.204844,143.059811 321.302567,144.564234 C320.657981,145.375582 319.060751,147.230049 318.604834,147.755174 C317.529887,148.993301 316.60512,150.035504 315.683298,151.038886 C314.389825,152.4468 313.179175,153.691936 312.016297,154.795167 C309.305513,157.366909 306.940973,159.099569 304.744935,159.897133 C301.74274,160.167951 292.244628,159.755774 276.538389,158.949115 C275.583172,158.900056 274.607863,158.849668 273.611139,158.797896 C267.825576,158.497383 250.1372,157.549631 249.37154,157.518436 C243.068915,157.261645 239.492581,154.318334 238.264513,145.631803 C238.214633,145.273984 238.172976,144.921108 238.132924,144.531266 C238.065089,143.830984 238.065089,143.830984 238.045795,143.627049 C237.897459,142.074899 238.114578,142.397794 236.726514,141.987553 C231.597233,140.346657 215.413391,137.345236 210.733446,136.965399 C210.115599,136.912326 209.737171,136.883844 209.473894,136.872765 C209.32699,137.192455 209.140707,137.661033 208.870057,138.389344 C206.395803,144.305268 205.130681,147.595336 204.414791,149.848477 C204.110657,150.863892 204.115834,150.845728 204.067342,151.006158 C203.000189,154.536716 200.401882,156.255644 195.444356,155.72822 C193.603421,155.609713 183.021371,154.979303 180.318954,154.812034 C178.675579,154.710315 177.160969,154.614396 175.749419,154.522349 C169.751204,154.131205 165.760439,153.820393 163.897695,153.575422 C158.383293,153.027485 154.953671,149.859068 153.541375,143.765818 C153.153238,142.250938 152.844719,139.564229 152.679818,137.164517 C152.624364,136.326235 152.611969,136.159705 152.600174,136.023965 C151.160238,135.806222 150.63744,135.73837 150.084531,135.666066 C149.114166,135.539171 144.486995,134.925448 143.295196,134.770828 C140.908761,134.461219 139.187707,134.253833 137.78861,134.112507 C136.014658,133.933316 134.687207,133.571356 133.353264,132.889772 C132.240369,132.321133 127.572035,129.040806 127.633675,129.080088 C122.827485,126.016159 99.8022173,110.67435 96.2404335,108.174351 C95.755118,107.856147 94.8592385,107.239953 94.523628,107.04087 C92.7197381,105.970807 91.3798089,105.818358 90.073811,106.784094 C89.2193715,107.41592 88.3395501,108.521453 87.4779515,110.192931 C83.3978484,116.110821 79.2707453,132.183477 75.280373,155.283172 C73.6526044,164.706092 72.1551042,174.612893 70.6346336,185.617311 C70.2403824,188.470707 68.4708007,201.703694 68.2516848,203.043354 C67.4679942,207.834784 66.5466231,211.069175 65.1676972,213.17913 C63.0360521,216.440854 59.5961861,217.060089 56.2811834,214.700261 C54.4624137,213.045193 53.3589022,211.219777 51.5380857,207.610895 C49.6634222,203.895288 49.2745126,203.178854 48.6209012,202.380543 C47.8177237,201.399554 46.5355962,200.275837 44.5133026,198.750349 C43.7834653,198.199807 39.5346144,195.114271 38.2540107,194.140568 C37.5465971,193.602689 33.2171823,190.589839 32.5609231,190.121139 C32.0289135,189.741177 31.5339386,189.382163 31.0656705,189.035862 C30.1150227,188.332825 29.2821914,187.687893 28.5538329,187.085196 C23.5957643,182.982533 21.8906756,178.83644 23.1551089,171.966782 C23.1984738,171.259947 23.2503922,170.557503 23.3200918,169.701943 C23.6773752,165.316304 23.6871894,164.417057 23.3873332,163.719651 C23.1773236,163.231211 22.364364,162.808784 19.8422452,162.487815 C17.6098612,162.435525 15.5029072,161.556069 13.0862112,159.920005 Z M209.666564,136.496174 C209.669116,136.493122 209.671594,136.490102 209.673997,136.487115 C209.673371,136.487893 209.671998,136.489887 209.669906,136.493124 L209.666564,136.496174 Z" id="Path-38" fill="#F2F2F2" fill-rule="nonzero"></path>
                <path d="M20.0038639,157.990017 C24.2987468,158.498401 26.5301807,159.636777 27.5214055,161.942168 C28.2617965,163.66417 28.2517292,164.586608 27.8052329,170.067333 C27.7317528,170.969298 27.6791805,171.688802 27.6357761,172.423116 C26.5998976,177.920657 27.6351597,180.484182 31.422653,183.618228 C32.0812088,184.163164 32.8517283,184.759843 33.7413774,185.41777 C34.1883677,185.748335 34.6634905,186.09295 35.1762881,186.45919 C35.7621504,186.877614 40.1811743,189.952822 40.9776718,190.558436 C42.207836,191.493787 46.4473711,194.572558 47.2232605,195.157839 C49.5104302,196.883132 51.016649,198.203254 52.1027518,199.529803 C53.0722962,200.71399 53.4458672,201.402168 55.5556895,205.583863 C57.0785764,208.602244 58.0242654,210.178471 58.9725378,211.091689 C60.1619916,211.917332 60.6928114,211.800649 61.4007943,210.717334 C62.3344851,209.288652 63.1233323,206.519474 63.8106957,202.316982 C64.0174035,201.053185 65.7711423,187.938672 66.1769822,185.001402 C67.703809,173.95098 69.2083899,163.997337 70.8460492,154.517162 C74.954468,130.734112 79.1239219,114.463368 83.5230292,108.044375 C84.6703264,105.841403 85.9620031,104.227945 87.3982742,103.165876 C90.4435471,100.914011 93.6257184,101.276059 96.8194709,103.170585 C97.4562874,103.548342 98.6869063,104.404566 98.6857622,104.403938 C102.330361,106.950996 125.302408,122.25734 130.080635,125.303811 C130.35344,125.486148 134.613803,128.480459 135.400765,128.882561 C136.206468,129.294238 136.996127,129.509557 138.240864,129.635291 C139.691842,129.781858 141.448897,129.993582 143.87416,130.308228 C145.073812,130.463867 149.704081,131.078 150.668031,131.204056 C151.217897,131.275963 151.737546,131.343406 152.240421,131.408075 C155.956068,131.885903 156.910461,132.957985 157.128158,136.233985 C157.127661,136.226505 157.159267,136.711029 157.169231,136.856017 C157.31544,138.983718 157.602923,141.487238 157.908722,142.682345 C158.914704,147.020104 160.806312,148.758587 164.439848,149.107923 C166.133804,149.334652 170.10691,149.644843 176.042242,150.031886 C177.448478,150.123587 178.958239,150.219199 180.596955,150.320629 C183.321238,150.489252 194.140036,151.133689 195.866979,151.247686 C198.72049,151.562029 199.316515,151.170763 199.759814,149.704157 C199.997247,148.871252 200.061318,148.660943 200.126065,148.485821 C200.890883,146.078689 202.197722,142.680132 204.651897,136.821822 C206.197318,132.663135 207.015814,132.129478 211.111538,132.481322 C216.103739,132.886467 232.622593,135.950018 238.064972,137.691486 C241.339218,138.65727 242.215954,139.961134 242.525385,143.198944 C242.582202,143.800385 242.595537,143.93681 242.60936,144.071353 C242.644237,144.410824 242.679713,144.711342 242.721013,145.007632 C243.630996,151.444208 245.339655,152.850429 249.554733,153.022166 C250.354066,153.054733 268.100881,154.005617 273.844563,154.303954 C274.840435,154.355682 275.814875,154.406025 276.769201,154.455038 C291.539123,155.213609 301.066981,155.631325 303.420176,155.585882 C304.86343,154.9973 306.730884,153.606581 308.919143,151.530563 C309.999758,150.505376 311.140875,149.331754 312.369488,147.994438 C313.258885,147.02635 314.157265,146.013885 315.206821,144.805004 C315.622888,144.325777 317.034031,142.687638 317.507475,142.141155 C318.067833,141.17563 318.424685,140.13484 318.610073,138.992162 C318.883959,137.304017 318.802501,135.737589 318.423471,132.959559 C318.19452,131.281506 318.18781,131.230191 318.130581,130.639132 C317.990793,129.19543 315.591184,112.803509 310.199271,76.290024 C303.594309,31.562199 302.52958,24.3253899 302.232046,21.9965283 C301.690284,21.6977675 301.122134,21.535125 300.122571,21.3265422 C299.902395,21.280597 298.609995,21.0227816 298.204196,20.9373087 C297.366082,20.7607782 296.643993,20.5886359 295.924011,20.3863779 C294.049771,19.859865 292.359143,19.1693745 290.746093,18.2053129 C289.756216,17.6136991 288.815181,16.928187 287.914592,16.1304869 C285.030361,13.5395634 283.374621,11.2098744 281.473968,7.02748774 C280.719579,5.25132249 279.843478,4.52064744 278.687032,4.52064744 C275.36823,4.52064744 272.473793,12.1983169 272.025951,20.8721333 C271.468346,31.6718488 273.235573,40.1462219 276.020326,46.9229375 C276.253558,47.5541158 277.875139,51.6499696 277.925874,51.7795009 C279.016777,54.5647107 279.95165,57.0553409 280.850809,59.6227599 C282.03831,63.0134993 283.051419,66.2319772 283.867309,69.2859453 C285.300263,74.649657 286.068501,79.2926525 286.033142,83.0975948 C285.977106,89.1276718 284.563148,92.9418163 281.708608,95.0455669 C279.460141,96.7026507 276.965765,97.1219655 272.362634,97.1219655 C269.306516,97.1219655 265.859604,97.0828357 261.894582,97.0087902 C259.353887,96.9613436 256.737836,96.9026761 253.420502,96.8212569 C253.152458,96.8146782 247.47165,96.672603 246.006295,96.6380551 C243.480602,96.5785082 241.672222,96.5434466 240.251665,96.5288492 C239.01555,96.516147 197.277017,94.7603069 189.528382,94.3311981 C182.406489,93.9367973 178.804141,92.787799 174.987071,90.3440099 C174.26634,89.876609 174.132051,89.7890078 174.034981,89.725891 C173.650005,89.4755733 173.373983,89.3000082 173.070648,89.114719 C169.301903,86.7064585 160.037009,81.3117009 145.808943,73.1830555 C141.621982,70.7917279 119.350315,58.1255386 116.855978,56.6732638 C114.066597,54.9445151 113.234345,55.2303198 111.704412,57.3963868 C111.661716,57.4568353 111.339381,57.9178685 111.241829,58.0547735 C111.062861,58.3059387 110.910734,58.5098405 110.804197,58.6390611 C110.129277,59.5739176 108.964592,61.4387125 107.068911,64.5931692 C106.459103,65.6079026 102.61273,72.0584329 101.436098,74.0122665 C101.158571,74.4731086 100.889405,74.9189214 100.626644,75.3528744 C97.8710523,79.9037683 95.7231916,83.3085694 93.9813889,85.8319193 C89.9387372,91.6885096 85.6250728,91.8983323 81.602294,88.633479 C81.291084,88.3809037 80.9968515,88.1215746 80.6675729,87.8156881 C80.5602271,87.7159682 80.1158824,87.2959689 80.022485,87.210736 C79.2383743,86.4951691 77.8442389,85.2312182 76.2909094,83.8321032 C73.9623603,81.7347322 71.591436,79.6170367 69.3014277,77.5950836 C63.0135664,72.043243 58.3139773,68.0753931 56.1785201,66.5974912 C55.2470077,65.8220175 54.820053,65.6993065 54.4229198,65.8502441 C53.5193775,66.1936517 53.6219376,66.0694328 48.9890266,72.0741297 C39.6665607,87.3009301 9.29813974,136.148375 6.83101887,140.44897 C4.03782691,145.278175 4.43695827,146.50008 9.73887212,151.610118 C17.1979019,157.568511 17.7898208,157.965667 20.0038639,157.990017 Z M13.9271126,158.677876 C13.0619978,158.092207 12.1543209,157.407019 10.972069,156.462681 C10.4939842,156.080804 8.39031035,154.372549 7.81207763,153.910619 C1.47761362,147.820431 0.601424072,145.227572 4.2314608,138.951549 C6.73066012,134.595016 37.2300535,85.537409 46.4726489,70.4387746 C52.1814143,63.0254884 51.6016485,63.7131477 53.3570999,63.0459567 C54.893465,62.4620335 56.3856896,62.878877 57.9426727,64.1701802 C60.238566,65.770912 64.9453842,69.7468915 71.2870421,75.3462315 C73.5851356,77.3753234 75.9632559,79.4994464 78.2986903,81.603019 C79.8568519,83.0064865 81.2558114,84.274811 82.0447378,84.9947727 C82.1615657,85.1013879 82.6196263,85.5343515 82.7093843,85.617733 C82.9935473,85.881709 83.2401106,86.0990236 83.4927969,86.3041017 C86.2480693,88.5402575 88.5436576,88.4285968 91.5124648,84.1276852 C93.2119659,81.6656177 95.3335402,78.302486 98.0604196,73.799011 C98.3218942,73.3671825 98.5898188,72.9234257 98.8661364,72.4645919 C100.038481,70.5178774 103.883897,64.0689525 104.497514,63.04788 C106.442353,59.8116232 107.627604,57.9139006 108.419167,56.820947 C108.886726,56.1902261 109.204071,55.7363296 109.254012,55.6656234 C111.6174,52.3195598 114.13242,51.4558726 118.400645,54.1018307 C120.844146,55.5238513 143.095219,68.1783287 146.721866,70.2495941 C161.582728,78.7397085 170.855997,84.139343 174.659049,86.5699258 C174.96507,86.756458 175.26302,86.94597 175.67033,87.2108098 C176.323354,87.6363702 176.46572,87.7285169 176.604637,87.8174554 C179.983085,89.9804266 183.084879,90.9697689 189.694264,91.3357877 C197.400727,91.7625611 239.103358,93.5168909 240.282491,93.5290075 C241.719471,93.5437738 243.539033,93.5790522 246.077005,93.6388886 C247.544903,93.6734964 253.227982,93.8156284 253.494111,93.8221601 C256.806081,93.9034476 259.416761,93.9619947 261.950596,94.0093132 C265.89841,94.0830373 269.327561,94.1219655 272.362634,94.1219655 C276.348542,94.1219655 278.365105,93.7829731 279.928788,92.6305631 C281.898111,91.1792039 282.985161,88.2468908 283.033272,83.0697175 C283.065679,79.5823992 282.338092,75.1850823 280.968958,70.0602607 C280.174398,67.0861289 279.183478,63.9381444 278.019427,60.6143633 C277.133871,58.0857842 276.21116,55.6275548 275.132499,52.8736024 C275.097289,52.783707 273.453545,48.6318734 273.225964,48.0131749 C270.303716,40.9045562 268.447282,32.0024105 269.029942,20.7174449 C269.560767,10.436401 272.921955,1.52064744 278.687032,1.52064744 C281.197513,1.52064744 283.050981,3.06645248 284.220139,5.8203671 C285.940302,9.60456166 287.355032,11.5951406 289.911537,13.8917154 C290.663116,14.5573876 291.453334,15.1330344 292.285155,15.630184 C294.682956,17.0632636 295.562589,17.3103706 300.735393,18.3898009 C303.673908,19.0029928 304.96862,19.6703921 305.208739,21.6233638 C305.501175,23.9121928 306.58706,31.2927979 313.144918,75.7016441 C318.628853,112.838294 320.96859,128.821221 321.116616,130.350008 C321.168175,130.882503 321.175079,130.935307 321.395931,132.554001 C321.81301,135.610897 321.906428,137.407309 321.571353,139.472602 C321.320096,141.021272 320.816817,142.457784 320.016185,143.792728 C319.523179,144.39464 317.925304,146.249855 317.472163,146.771784 C316.40568,148.000162 315.489709,149.032453 314.578694,150.02407 C313.306842,151.408451 312.119369,152.62975 310.983913,153.706966 C308.411162,156.147754 306.187036,157.777523 304.232884,158.487238 C301.753093,158.66602 292.193978,158.251196 276.615326,157.451089 C275.660407,157.402045 274.685387,157.351672 273.688947,157.299915 C267.917344,157.000128 250.209488,156.051332 249.432604,156.019679 C243.825829,155.79124 240.872053,153.360292 239.750148,145.424706 C239.702993,145.086436 239.663397,144.751013 239.625069,144.377962 C239.558568,143.691261 239.558568,143.691261 239.538992,143.484347 C239.336957,141.370311 239.189458,141.150953 237.183558,140.558879 C231.93902,138.881111 215.643507,135.85898 210.861825,135.470903 C208.119001,135.235291 208.545178,134.957426 207.441569,137.923639 C204.996443,143.763556 203.717415,147.089787 202.965882,149.451136 C202.670995,150.442483 202.675953,150.425089 202.631499,150.572158 C201.768951,153.425803 199.825099,154.70186 195.605225,154.235494 C193.954963,154.127991 183.143275,153.483978 180.411621,153.314899 C178.769799,153.213276 177.256805,153.117459 175.847026,153.025528 C169.830087,152.633163 165.832218,152.321039 164.097734,152.087821 C159.206695,151.619013 156.277251,148.926705 154.994438,143.393519 C154.636466,141.996372 154.33496,139.370725 154.176289,137.061684 C154.00993,134.554409 154.116421,134.674032 151.857775,134.383572 C151.352674,134.318617 150.830925,134.250901 150.279031,134.178729 C149.310805,134.052114 144.6826,133.438254 143.488184,133.283295 C141.088806,132.972007 139.355752,132.763175 137.939361,132.620102 C136.341814,132.45873 135.193628,132.14565 134.035765,131.554035 C133.029008,131.039629 128.478123,127.841129 128.440786,127.815751 C123.653789,124.764106 100.645035,109.433304 97.102188,106.946597 C96.7129694,106.691942 95.7115687,106.001495 95.288909,105.750775 C93.0217315,104.405891 91.0677216,104.183575 89.1819654,105.578021 C88.1273204,106.357892 87.1052212,107.642203 86.1446632,109.505659 C81.9850986,115.515309 77.8378452,131.666439 73.8022651,155.027835 C72.1711996,164.46984 70.6713391,174.392255 69.1487498,185.412008 C68.7506357,188.293362 66.986335,201.486857 66.7713551,202.80123 C66.0197736,207.396347 65.1425771,210.475668 63.9120629,212.358531 C62.2496382,214.90228 59.7768201,215.34743 57.1510792,213.478262 C55.6649502,212.114947 54.6111666,210.371789 52.877287,206.935218 C50.9242372,203.064248 50.5404404,202.357233 49.7815181,201.430297 C48.8840321,200.334121 47.5272075,199.144935 45.4166219,197.552846 C44.6714339,196.990724 40.4256883,193.907443 39.1618977,192.946524 C38.4247895,192.386067 34.065505,189.352431 33.4327114,188.900489 C32.9071059,188.525102 32.4187483,188.170887 31.9575728,187.829832 C31.0272579,187.141831 30.2151972,186.512983 29.5101063,185.92954 C24.9342125,182.143115 23.4540738,178.51576 24.6467466,172.149868 C24.690525,171.423373 24.7431776,170.707061 24.8151388,169.82374 C25.2021599,165.073072 25.2120584,164.166095 24.7653573,163.127157 C24.2963306,162.036294 23.0101604,161.372466 19.9502096,160.989579 C18.0339066,160.963106 16.1549584,160.186092 13.9271126,158.677876 Z" id="Path-38" fill="url(#linearGradient-1)" fill-rule="nonzero"></path>
                <path d="M128.245631,63.1814369 L129.728673,60.5736436 C140.850671,66.8986812 141.974663,67.5383527 146.721866,70.2495941 C147.009512,70.4138844 147.009512,70.4138844 147.297128,70.5781937 C161.582728,78.7397085 170.855997,84.139343 174.659049,86.5699258 C174.96507,86.756458 175.26302,86.94597 175.67033,87.2108098 C175.769652,87.275391 175.906346,87.3645612 176.139742,87.5167785 C176.323354,87.6363702 176.46572,87.7285169 176.604637,87.8174554 C179.983085,89.9804266 183.084879,90.9697689 189.694264,91.3357877 C197.400727,91.7625611 239.103358,93.5168909 240.282491,93.5290075 C241.719471,93.5437738 243.539033,93.5790522 246.077005,93.6388886 C247.544903,93.6734964 253.227982,93.8156284 253.494111,93.8221601 C256.806081,93.9034476 259.416761,93.9619947 261.950596,94.0093132 C264.264293,94.0525207 266.394025,94.0836723 268.382449,94.1021987 L268.354499,97.1020685 C266.356014,97.0834484 264.2171,97.0521625 261.894582,97.0087902 C259.353887,96.9613436 256.737836,96.9026761 253.420502,96.8212569 C253.152458,96.8146782 247.47165,96.672603 246.006295,96.6380551 C243.480602,96.5785082 241.672222,96.5434466 240.251665,96.5288492 C239.01555,96.516147 197.277017,94.7603069 189.528382,94.3311981 C182.406489,93.9367973 178.804141,92.787799 174.987071,90.3440099 C174.840483,90.2501609 174.69205,90.1540871 174.502431,90.0305829 C174.26634,89.876609 174.132051,89.7890078 174.034981,89.725891 C173.650005,89.4755733 173.373983,89.3000082 173.070648,89.114719 C169.301903,86.7064585 160.037009,81.3117009 145.808943,73.1830555 C145.521512,73.0188523 145.521512,73.0188523 145.234047,72.8546652 C140.489172,70.1447531 139.365532,69.5052821 128.245631,63.1814369 Z" id="Path" fill="#FFB819" fill-rule="nonzero"></path>
                <path d="M316.327374,117.944437 L319.296023,117.511862 C320.435462,125.331529 321.047265,129.633757 321.116616,130.350008 L318.130581,130.639132 C318.068782,130.000881 317.444961,125.614145 316.327374,117.944437 Z" id="Path" fill="#FF9219" fill-rule="nonzero"></path>
                <path d="M61.4007943,210.717334 C62.3344851,209.288652 63.1233323,206.519474 63.8106957,202.316982 C64.0174035,201.053185 65.7711423,187.938672 66.1769822,185.001402 C67.703809,173.95098 69.2083899,163.997337 70.8460492,154.517162 C73.0842164,141.560731 75.3688033,130.734155 77.713498,122.506058 L80.5986425,123.328215 C78.2887004,131.434356 76.0238458,142.167422 73.8022651,155.027835 C72.1711996,164.46984 70.6713391,174.392255 69.1487498,185.412008 C68.7506357,188.293362 66.986335,201.486857 66.7713551,202.80123 C66.0197736,207.396347 65.1425771,210.475668 63.9120629,212.358531 C62.2496382,214.90228 59.7768201,215.34743 57.1510792,213.478262 C55.6649502,212.114947 54.6111666,210.371789 52.877287,206.935218 C50.9242372,203.064248 50.5404404,202.357233 49.7815181,201.430297 C48.8840321,200.334121 47.5272075,199.144935 45.4166219,197.552846 C44.6714339,196.990724 40.4256883,193.907443 39.1618977,192.946524 C38.4247895,192.386067 34.065505,189.352431 33.4327114,188.900489 C32.9071059,188.525102 32.4187483,188.170887 31.9575728,187.829832 C31.0272579,187.141831 30.2151972,186.512983 29.5101063,185.92954 C24.9342125,182.143115 23.4540738,178.51576 24.6467466,172.149868 C24.690525,171.423373 24.7431776,170.707061 24.8151388,169.82374 C25.2021599,165.073072 25.2120584,164.166095 24.7653573,163.127157 C24.2963306,162.036294 23.0101604,161.372466 19.9502096,160.989579 C18.0339066,160.963106 16.1549584,160.186092 13.9271126,158.677876 C13.0619978,158.092207 12.1543209,157.407019 10.972069,156.462681 C10.4939842,156.080804 8.39031035,154.372549 7.81207763,153.910619 C1.47761362,147.820431 0.601424072,145.227572 4.2314608,138.951549 C6.73066012,134.595016 37.2300535,85.537409 46.4726489,70.4387746 C52.1814143,63.0254884 51.6016485,63.7131477 53.3570999,63.0459567 C54.893465,62.4620335 56.3856896,62.878877 57.9426727,64.1701802 C60.238566,65.770912 64.9453842,69.7468915 71.2870421,75.3462315 C73.5851356,77.3753234 75.9632559,79.4994464 78.2986903,81.603019 C79.8568519,83.0064865 81.2558114,84.274811 82.0447378,84.9947727 C82.1615657,85.1013879 82.6196263,85.5343515 82.7093843,85.617733 C82.9935473,85.881709 83.2401106,86.0990236 83.4927969,86.3041017 C86.2480693,88.5402575 88.5436576,88.4285968 91.5124648,84.1276852 C93.2119659,81.6656177 95.3335402,78.302486 98.0604196,73.799011 C98.3218942,73.3671825 98.5898188,72.9234257 98.8661364,72.4645919 C100.038481,70.5178774 103.883897,64.0689525 104.497514,63.04788 C106.442353,59.8116232 107.627604,57.9139006 108.419167,56.820947 C108.531074,56.6818091 108.65065,56.5215364 108.798627,56.3138654 C108.886726,56.1902261 109.204071,55.7363296 109.254012,55.6656234 C111.6174,52.3195598 114.13242,51.4558726 118.400645,54.1018307 C118.936699,54.4137927 119.6335,54.8156569 120.499527,55.3124558 L119.006748,57.914688 C118.135774,57.4150509 117.433963,57.0102976 116.855978,56.6732638 C114.066597,54.9445151 113.234345,55.2303198 111.704412,57.3963868 C111.661716,57.4568353 111.339381,57.9178685 111.241829,58.0547735 C111.062861,58.3059387 110.910734,58.5098405 110.804197,58.6390611 C110.129277,59.5739176 108.964592,61.4387125 107.068911,64.5931692 C106.459103,65.6079026 102.61273,72.0584329 101.436098,74.0122665 C101.158571,74.4731086 100.889405,74.9189214 100.626644,75.3528744 C97.8710523,79.9037683 95.7231916,83.3085694 93.9813889,85.8319193 C89.9387372,91.6885096 85.6250728,91.8983323 81.602294,88.633479 C81.291084,88.3809037 80.9968515,88.1215746 80.6675729,87.8156881 C80.5602271,87.7159682 80.1158824,87.2959689 80.022485,87.210736 C79.2383743,86.4951691 77.8442389,85.2312182 76.2909094,83.8321032 C73.9623603,81.7347322 71.591436,79.6170367 69.3014277,77.5950836 C63.0135664,72.043243 58.3139773,68.0753931 56.1785201,66.5974912 C55.2470077,65.8220175 54.820053,65.6993065 54.4229198,65.8502441 C53.5193775,66.1936517 53.6219376,66.0694328 48.9890266,72.0741297 C39.6665607,87.3009301 9.29813974,136.148375 6.83101887,140.44897 C4.03782691,145.278175 4.43695827,146.50008 9.73887212,151.610118 C17.1979019,157.568511 17.7898208,157.965667 20.0038639,157.990017 C24.2987468,158.498401 26.5301807,159.636777 27.5214055,161.942168 C28.2617965,163.66417 28.2517292,164.586608 27.8052329,170.067333 C27.7317528,170.969298 27.6791805,171.688802 27.6357761,172.423116 C26.5998976,177.920657 27.6351597,180.484182 31.422653,183.618228 C32.0812088,184.163164 32.8517283,184.759843 33.7413774,185.41777 C34.1883677,185.748335 34.6634905,186.09295 35.1762881,186.45919 C35.7621504,186.877614 40.1811743,189.952822 40.9776718,190.558436 C42.207836,191.493787 46.4473711,194.572558 47.2232605,195.157839 C49.5104302,196.883132 51.016649,198.203254 52.1027518,199.529803 C53.0722962,200.71399 53.4458672,201.402168 55.5556895,205.583863 C57.0785764,208.602244 58.0242654,210.178471 58.9725378,211.091689 C60.1619916,211.917332 60.6928114,211.800649 61.4007943,210.717334 Z" id="Path" fill-opacity="0.2" fill="#000000" fill-rule="nonzero"></path>
                <path d="M119.006748,57.914688 L120.499527,55.3124558 C122.466537,56.4408376 124.996461,57.8824522 129.728673,60.5736436 L128.245631,63.1814369 C123.510001,60.4883019 120.978192,59.045613 119.006748,57.914688 Z" id="Path" fill="#FFA019" fill-rule="nonzero"></path>
                <path d="M303.61056,31.5916789 L306.578988,31.1575879 C307.782267,39.3859245 307.877415,40.0308926 313.144918,75.7016441 C316.209406,96.454045 317.982378,108.496665 319.296023,117.511862 L316.327374,117.944437 C315.014106,108.931833 313.241296,96.8903037 310.199271,76.290024 C304.909156,40.4661442 304.814159,39.8222033 303.61056,31.5916789 Z" id="Path" fill="#FFB819" fill-rule="nonzero"></path>
                <path d="M318.610073,138.992162 C318.883959,137.304017 318.802501,135.737589 318.423471,132.959559 C318.19452,131.281506 318.18781,131.230191 318.130581,130.639132 L321.116616,130.350008 C321.168175,130.882503 321.175079,130.935307 321.395931,132.554001 C321.81301,135.610897 321.906428,137.407309 321.571353,139.472602 C321.320096,141.021272 320.816817,142.457784 320.016185,143.792728 L319.861509,144.005722 C319.523179,144.39464 317.925304,146.249855 317.472163,146.771784 C316.40568,148.000162 315.489709,149.032453 314.578694,150.02407 C313.306842,151.408451 312.119369,152.62975 310.983913,153.706966 C308.411162,156.147754 306.187036,157.777523 304.232884,158.487238 C301.753093,158.66602 292.193978,158.251196 276.615326,157.451089 C275.660407,157.402045 274.685387,157.351672 273.688947,157.299915 C267.917344,157.000128 250.209488,156.051332 249.432604,156.019679 C243.825829,155.79124 240.872053,153.360292 239.750148,145.424706 C239.702993,145.086436 239.663397,144.751013 239.625069,144.377962 C239.610316,144.234363 239.596263,144.090591 239.579293,143.911493 C239.558568,143.691261 239.558568,143.691261 239.538992,143.484347 C239.336957,141.370311 239.189458,141.150953 237.183558,140.558879 C231.93902,138.881111 215.643507,135.85898 210.861825,135.470903 C208.119001,135.235291 208.545178,134.957426 207.441569,137.923639 C204.996443,143.763556 203.717415,147.089787 202.965882,149.451136 C202.913497,149.595677 202.86577,149.752339 202.784518,150.040239 C202.670995,150.442483 202.675953,150.425089 202.631499,150.572158 C201.768951,153.425803 199.825099,154.70186 195.605225,154.235494 C193.954963,154.127991 183.143275,153.483978 180.411621,153.314899 C178.769799,153.213276 177.256805,153.117459 175.847026,153.025528 C169.830087,152.633163 165.832218,152.321039 164.097734,152.087821 C159.206695,151.619013 156.277251,148.926705 154.994438,143.393519 C154.636466,141.996372 154.33496,139.370725 154.176289,137.061684 C154.165902,136.910531 154.133958,136.420829 154.13476,136.432903 C154.00993,134.554409 154.116421,134.674032 151.857775,134.383572 C151.352674,134.318617 150.830925,134.250901 150.279031,134.178729 C149.310805,134.052114 144.6826,133.438254 143.488184,133.283295 C141.088806,132.972007 139.355752,132.763175 137.939361,132.620102 C136.341814,132.45873 135.193628,132.14565 134.035765,131.554035 C133.029008,131.039629 128.478123,127.841129 128.440786,127.815751 C123.653789,124.764106 100.645035,109.433304 97.102188,106.946597 C96.7129694,106.691942 95.7115687,106.001495 95.288909,105.750775 C93.0217315,104.405891 91.0677216,104.183575 89.1819654,105.578021 C88.1273204,106.357892 87.1052212,107.642203 86.1446632,109.505659 C84.2794457,112.212958 82.4427003,116.856973 80.5986425,123.328215 L77.713498,122.506058 C79.6236216,115.802976 81.5418886,110.935213 83.5230281,108.044377 C84.6703256,105.841404 85.9620027,104.227945 87.3982742,103.165876 C90.4435471,100.914011 93.6257184,101.276059 96.8194709,103.170585 C97.4562874,103.548342 98.6869063,104.404566 98.6857622,104.403938 C102.330361,106.950996 125.302408,122.25734 130.080635,125.303811 C130.35344,125.486148 134.613803,128.480459 135.400765,128.882561 C136.206468,129.294238 136.996127,129.509557 138.240864,129.635291 C139.691842,129.781858 141.448897,129.993582 143.87416,130.308228 C145.073812,130.463867 149.704081,131.078 150.668031,131.204056 C151.217897,131.275963 151.737546,131.343406 152.240421,131.408075 C155.956068,131.885903 156.910461,132.957985 157.128158,136.233985 C157.127661,136.226505 157.159267,136.711029 157.169231,136.856017 C157.31544,138.983718 157.602923,141.487238 157.908722,142.682345 C158.914704,147.020104 160.806312,148.758587 164.439848,149.107923 C166.133804,149.334652 170.10691,149.644843 176.042242,150.031886 C177.448478,150.123587 178.958239,150.219199 180.596955,150.320629 C183.321238,150.489252 194.140036,151.133689 195.866979,151.247686 C198.72049,151.562029 199.316515,151.170763 199.759814,149.704157 C199.796191,149.58381 199.791672,149.599666 199.897298,149.2254 C199.997247,148.871252 200.061318,148.660943 200.126065,148.485821 C200.890883,146.078689 202.197722,142.680132 204.651897,136.821822 C206.197318,132.663135 207.015814,132.129478 211.111538,132.481322 C216.103739,132.886467 232.622593,135.950018 238.064972,137.691486 C241.339218,138.65727 242.215954,139.961134 242.525385,143.198944 C242.545526,143.411815 242.545526,143.411815 242.565917,143.628508 C242.582202,143.800385 242.595537,143.93681 242.60936,144.071353 C242.644237,144.410824 242.679713,144.711342 242.721013,145.007632 C243.630996,151.444208 245.339655,152.850429 249.554733,153.022166 C250.354066,153.054733 268.100881,154.005617 273.844563,154.303954 C274.840435,154.355682 275.814875,154.406025 276.769201,154.455038 C291.539123,155.213609 301.066981,155.631325 303.420176,155.585882 C304.86343,154.9973 306.730884,153.606581 308.919143,151.530563 C309.999758,150.505376 311.140875,149.331754 312.369488,147.994438 C313.258885,147.02635 314.157265,146.013885 315.206821,144.805004 C315.622888,144.325777 317.034031,142.687638 317.507475,142.141155 C318.067833,141.17563 318.424685,140.13484 318.610073,138.992162 Z" id="Path" fill-opacity="0.37" fill="#000000" fill-rule="nonzero"></path>
                <g id="Group-Copy-7" transform="translate(302.000000, 41.000000)">
                    <circle id="Oval-Copy-2" fill-opacity="0.7" fill="#FFFFFF" cx="6" cy="6" r="6"></circle>
                    <circle id="Oval-Copy-2" fill-opacity="0.2" fill="#D0021B" cx="6" cy="6" r="6"></circle>
                    <circle id="Oval" stroke="#D0021B" stroke-width="0.5" fill="#FFFFFF" cx="6" cy="6" r="4"></circle>
                    <circle id="Oval-Copy" fill="#D0021B" cx="6" cy="6" r="2"></circle>
                </g>
                <g id="Group-6" transform="translate(318.000000, 117.500000) rotate(-8.000000) translate(-318.000000, -117.500000) translate(315.500000, 115.000000)">
                    <rect id="Rectangle-2" fill="#000000" x="0" y="0" width="1.5" height="1.5"></rect>
                    <rect id="Rectangle-2-Copy-4" fill="#FFFFFF" x="0" y="1.5" width="1.5" height="1.5"></rect>
                    <rect id="Rectangle-2-Copy-7" fill="#000000" x="0" y="3" width="1.5" height="1.5"></rect>
                    <rect id="Rectangle-2-Copy" fill="#FFFFFF" x="1.5" y="0" width="1.5" height="1.5"></rect>
                    <rect id="Rectangle-2-Copy-5" fill="#000000" x="1.5" y="1.5" width="1.5" height="1.5"></rect>
                    <rect id="Rectangle-2-Copy-9" fill="#FFFFFF" x="1.5" y="3" width="1.5" height="1.5"></rect>
                    <rect id="Rectangle-2-Copy-3" fill="#000000" x="3" y="0" width="1.5" height="1.5"></rect>
                    <rect id="Rectangle-2-Copy-6" fill="#FFFFFF" x="3" y="1.5" width="1.5" height="1.5"></rect>
                    <rect id="Rectangle-2-Copy-10" fill="#000000" x="3" y="3" width="1.5" height="1.5"></rect>
                </g>
                <path d="M210.346757,111.041992 L211.772538,111.041992 C211.840898,111.613281 212.417069,111.979492 213.247148,111.979492 C214.013749,111.979492 214.555741,111.608398 214.555741,111.076172 C214.555741,110.626953 214.204179,110.368164 213.339921,110.182617 L212.421952,109.987305 C211.137773,109.71875 210.50789,109.049805 210.50789,107.975586 C210.50789,106.647461 211.577226,105.773438 213.203202,105.773438 C214.755937,105.773438 215.854569,106.642578 215.898515,107.897461 L214.511796,107.897461 C214.443437,107.34082 213.925859,106.969727 213.212968,106.969727 C212.475663,106.969727 211.987382,107.311523 211.987382,107.848633 C211.987382,108.283203 212.324296,108.532227 213.149491,108.708008 L213.999101,108.888672 C215.415116,109.186523 216.025468,109.796875 216.025468,110.890625 C216.025468,112.311523 214.936601,113.180664 213.169023,113.180664 C211.489335,113.180664 210.400468,112.355469 210.346757,111.041992 Z M218.979569,113 L218.979569,107.389648 L218.891679,107.389648 L217.163163,108.581055 L217.163163,107.208984 L218.984452,105.954102 L220.454179,105.954102 L220.454179,113 L218.979569,113 Z M207.800859,119.541016 L207.503984,119.541016 C207.168046,119.121094 206.97664,118.498047 206.97664,117.828125 C206.97664,117.160156 207.138749,116.675781 207.523515,116.183594 L207.806718,116.183594 C207.523515,116.515625 207.322343,117.197266 207.322343,117.828125 C207.322343,118.4375 207.468827,118.958984 207.800859,119.541016 Z M208.273515,118.263672 L208.628984,118.263672 C208.671952,118.558594 208.953202,118.746094 209.353593,118.746094 C209.732499,118.746094 210.011796,118.541016 210.011796,118.261719 C210.011796,118.021484 209.836015,117.869141 209.447343,117.771484 L209.086015,117.677734 C208.576249,117.548828 208.355546,117.318359 208.355546,116.917969 C208.355546,116.439453 208.755937,116.115234 209.35164,116.115234 C209.896562,116.115234 210.302812,116.439453 210.332109,116.894531 L209.978593,116.894531 C209.929765,116.605469 209.691484,116.433594 209.339921,116.433594 C208.964921,116.433594 208.716874,116.621094 208.716874,116.90625 C208.716874,117.126953 208.871171,117.253906 209.259843,117.353516 L209.554765,117.431641 C210.138749,117.578125 210.373124,117.804688 210.373124,118.21875 C210.373124,118.736328 209.964921,119.066406 209.32039,119.066406 C208.722734,119.066406 208.310624,118.75 208.273515,118.263672 Z M211.753984,117.154297 C211.418046,117.154297 211.183671,117.400391 211.15828,117.773438 L212.318437,117.773438 C212.310624,117.400391 212.087968,117.154297 211.753984,117.154297 Z M212.308671,118.455078 L212.644609,118.455078 C212.543046,118.816406 212.218827,119.037109 211.75789,119.037109 C211.173905,119.037109 210.808671,118.615234 210.808671,117.949219 C210.808671,117.287109 211.179765,116.857422 211.75789,116.857422 C212.326249,116.857422 212.671952,117.261719 212.671952,117.916016 L212.671952,118.044922 L211.15828,118.044922 L211.15828,118.060547 C211.175859,118.476562 211.40828,118.740234 211.765702,118.740234 C212.037187,118.740234 212.22078,118.640625 212.308671,118.455078 Z M214.941484,117.539062 L214.60164,117.539062 C214.546952,117.330078 214.361405,117.160156 214.058671,117.160156 C213.679765,117.160156 213.441484,117.462891 213.441484,117.939453 C213.441484,118.425781 213.683671,118.734375 214.058671,118.734375 C214.341874,118.734375 214.53914,118.603516 214.60164,118.365234 L214.941484,118.365234 C214.880937,118.751953 214.566484,119.037109 214.060624,119.037109 C213.47078,119.037109 213.093827,118.609375 213.093827,117.939453 C213.093827,117.283203 213.468827,116.857422 214.058671,116.857422 C214.57039,116.857422 214.88289,117.164062 214.941484,117.539062 Z M215.578202,116.349609 L215.91414,116.349609 L215.91414,116.894531 L216.38289,116.894531 L216.38289,117.175781 L215.91414,117.175781 L215.91414,118.367188 C215.91414,118.615234 216.00789,118.720703 216.22664,118.720703 C216.287187,118.720703 216.32039,118.71875 216.38289,118.712891 L216.38289,118.996094 C216.316484,119.007812 216.25203,119.015625 216.185624,119.015625 C215.75203,119.015625 215.578202,118.855469 215.578202,118.453125 L215.578202,117.175781 L215.238359,117.175781 L215.238359,116.894531 L215.578202,116.894531 L215.578202,116.349609 Z M217.755937,118.734375 C218.154374,118.734375 218.378984,118.445312 218.378984,117.947266 C218.378984,117.447266 218.154374,117.160156 217.755937,117.160156 C217.357499,117.160156 217.13289,117.447266 217.13289,117.947266 C217.13289,118.445312 217.357499,118.734375 217.755937,118.734375 Z M217.755937,119.037109 C217.156327,119.037109 216.785234,118.623047 216.785234,117.947266 C216.785234,117.269531 217.156327,116.857422 217.755937,116.857422 C218.355546,116.857422 218.72664,117.269531 218.72664,117.947266 C218.72664,118.623047 218.355546,119.037109 217.755937,119.037109 Z M219.253984,119 L219.253984,116.894531 L219.574296,116.894531 L219.574296,117.207031 L219.605546,117.207031 C219.668046,117.001953 219.910234,116.857422 220.18953,116.857422 C220.244218,116.857422 220.31453,116.861328 220.357499,116.867188 L220.357499,117.203125 C220.330155,117.195312 220.209062,117.183594 220.142655,117.183594 C219.822343,117.183594 219.589921,117.398438 219.589921,117.695312 L219.589921,119 L219.253984,119 Z M222.578202,119 L222.578202,116.572266 L222.546952,116.572266 L221.830155,117.091797 L221.830155,116.720703 L222.580155,116.181641 L222.929765,116.181641 L222.929765,119 L222.578202,119 Z M223.701249,119.541016 C224.03328,118.958984 224.179765,118.4375 224.179765,117.828125 C224.179765,117.193359 223.980546,116.513672 223.697343,116.183594 L223.982499,116.183594 C224.367265,116.675781 224.527421,117.160156 224.527421,117.828125 C224.527421,118.494141 224.336015,119.117188 224.000077,119.541016 L223.701249,119.541016 Z" id="S1-(Sector-1)-Copy" fill="#C6C6C6"></path>
                <path d="M34.6949015,127.041992 L36.1206828,127.041992 C36.1890421,127.613281 36.765214,127.979492 37.5952921,127.979492 C38.3618937,127.979492 38.9038859,127.608398 38.9038859,127.076172 C38.9038859,126.626953 38.5523234,126.368164 37.6880656,126.182617 L36.7700968,125.987305 C35.4859171,125.71875 34.8560343,125.049805 34.8560343,123.975586 C34.8560343,122.647461 35.9253703,121.773438 37.5513468,121.773438 C39.1040812,121.773438 40.202714,122.642578 40.2466593,123.897461 L38.8599406,123.897461 C38.7915812,123.34082 38.2740031,122.969727 37.5611124,122.969727 C36.8238078,122.969727 36.3355265,123.311523 36.3355265,123.848633 C36.3355265,124.283203 36.6724406,124.532227 37.4976359,124.708008 L38.3472453,124.888672 C39.7632609,125.186523 40.3736124,125.796875 40.3736124,126.890625 C40.3736124,128.311523 39.2847453,129.180664 37.5171671,129.180664 C35.8374796,129.180664 34.7486124,128.355469 34.6949015,127.041992 Z M41.5406046,124.063477 C41.5406046,122.701172 42.5855265,121.773438 44.108964,121.773438 C45.5786906,121.773438 46.6040812,122.618164 46.6040812,123.829102 C46.6040812,124.595703 46.1890421,125.254883 44.968339,126.402344 L43.6206828,127.686523 L43.6206828,127.774414 L46.7066203,127.774414 L46.7066203,129 L41.6236124,129 L41.6236124,127.969727 L43.9234171,125.71875 C44.9146281,124.751953 45.1636515,124.385742 45.1636515,123.926758 C45.1636515,123.360352 44.7046671,122.959961 44.0601359,122.959961 C43.3765421,122.959961 42.9077921,123.40918 42.9077921,124.058594 L42.9077921,124.087891 L41.5406046,124.087891 L41.5406046,124.063477 Z M32.5254679,135.541016 L32.2285929,135.541016 C31.8926554,135.121094 31.7012492,134.498047 31.7012492,133.828125 C31.7012492,133.160156 31.8633585,132.675781 32.2481242,132.183594 L32.5313273,132.183594 C32.2481242,132.515625 32.0469523,133.197266 32.0469523,133.828125 C32.0469523,134.4375 32.1934367,134.958984 32.5254679,135.541016 Z M32.9981242,134.263672 L33.3535929,134.263672 C33.3965617,134.558594 33.6778117,134.746094 34.0782023,134.746094 C34.4571085,134.746094 34.7364054,134.541016 34.7364054,134.261719 C34.7364054,134.021484 34.5606242,133.869141 34.1719523,133.771484 L33.8106242,133.677734 C33.3008585,133.548828 33.0801554,133.318359 33.0801554,132.917969 C33.0801554,132.439453 33.480546,132.115234 34.0762492,132.115234 C34.621171,132.115234 35.027421,132.439453 35.0567179,132.894531 L34.7032023,132.894531 C34.6543742,132.605469 34.4160929,132.433594 34.0645304,132.433594 C33.6895304,132.433594 33.4414835,132.621094 33.4414835,132.90625 C33.4414835,133.126953 33.5957804,133.253906 33.9844523,133.353516 L34.2793742,133.431641 C34.8633585,133.578125 35.0977335,133.804688 35.0977335,134.21875 C35.0977335,134.736328 34.6895304,135.066406 34.0449992,135.066406 C33.4473429,135.066406 33.0352335,134.75 32.9981242,134.263672 Z M36.4785929,133.154297 C36.1426554,133.154297 35.9082804,133.400391 35.8828898,133.773438 L37.043046,133.773438 C37.0352335,133.400391 36.8125773,133.154297 36.4785929,133.154297 Z M37.0332804,134.455078 L37.3692179,134.455078 C37.2676554,134.816406 36.9434367,135.037109 36.4824992,135.037109 C35.8985148,135.037109 35.5332804,134.615234 35.5332804,133.949219 C35.5332804,133.287109 35.9043742,132.857422 36.4824992,132.857422 C37.0508585,132.857422 37.3965617,133.261719 37.3965617,133.916016 L37.3965617,134.044922 L35.8828898,134.044922 L35.8828898,134.060547 C35.9004679,134.476562 36.1328898,134.740234 36.4903117,134.740234 C36.761796,134.740234 36.9453898,134.640625 37.0332804,134.455078 Z M39.6660929,133.539062 L39.3262492,133.539062 C39.2715617,133.330078 39.0860148,133.160156 38.7832804,133.160156 C38.4043742,133.160156 38.1660929,133.462891 38.1660929,133.939453 C38.1660929,134.425781 38.4082804,134.734375 38.7832804,134.734375 C39.0664835,134.734375 39.2637492,134.603516 39.3262492,134.365234 L39.6660929,134.365234 C39.605546,134.751953 39.2910929,135.037109 38.7852335,135.037109 C38.1953898,135.037109 37.8184367,134.609375 37.8184367,133.939453 C37.8184367,133.283203 38.1934367,132.857422 38.7832804,132.857422 C39.2949992,132.857422 39.6074992,133.164062 39.6660929,133.539062 Z M40.3028117,132.349609 L40.6387492,132.349609 L40.6387492,132.894531 L41.1074992,132.894531 L41.1074992,133.175781 L40.6387492,133.175781 L40.6387492,134.367188 C40.6387492,134.615234 40.7324992,134.720703 40.9512492,134.720703 C41.011796,134.720703 41.0449992,134.71875 41.1074992,134.712891 L41.1074992,134.996094 C41.0410929,135.007812 40.9766398,135.015625 40.9102335,135.015625 C40.4766398,135.015625 40.3028117,134.855469 40.3028117,134.453125 L40.3028117,133.175781 L39.9629679,133.175781 L39.9629679,132.894531 L40.3028117,132.894531 L40.3028117,132.349609 Z M42.480546,134.734375 C42.8789835,134.734375 43.1035929,134.445312 43.1035929,133.947266 C43.1035929,133.447266 42.8789835,133.160156 42.480546,133.160156 C42.0821085,133.160156 41.8574992,133.447266 41.8574992,133.947266 C41.8574992,134.445312 42.0821085,134.734375 42.480546,134.734375 Z M42.480546,135.037109 C41.8809367,135.037109 41.5098429,134.623047 41.5098429,133.947266 C41.5098429,133.269531 41.8809367,132.857422 42.480546,132.857422 C43.0801554,132.857422 43.4512492,133.269531 43.4512492,133.947266 C43.4512492,134.623047 43.0801554,135.037109 42.480546,135.037109 Z M43.9785929,135 L43.9785929,132.894531 L44.2989054,132.894531 L44.2989054,133.207031 L44.3301554,133.207031 C44.3926554,133.001953 44.6348429,132.857422 44.9141398,132.857422 C44.9688273,132.857422 45.0391398,132.861328 45.0821085,132.867188 L45.0821085,133.203125 C45.0547648,133.195312 44.933671,133.183594 44.8672648,133.183594 C44.5469523,133.183594 44.3145304,133.398438 44.3145304,133.695312 L44.3145304,135 L43.9785929,135 Z M46.6114054,132.974609 C46.6114054,132.474609 46.9903117,132.115234 47.5137492,132.115234 C48.0196085,132.115234 48.4063273,132.458984 48.4063273,132.90625 C48.4063273,133.199219 48.2735148,133.427734 47.8106242,133.923828 L47.1328898,134.652344 L47.1328898,134.683594 L48.4532023,134.683594 L48.4532023,135 L46.6289835,135 L46.6289835,134.757812 L47.6035929,133.693359 C47.9668742,133.298828 48.0547648,133.146484 48.0547648,132.919922 C48.0547648,132.638672 47.8145304,132.421875 47.5039835,132.421875 C47.1739054,132.421875 46.9512492,132.642578 46.9512492,132.974609 L46.9512492,132.976562 L46.6114054,132.976562 L46.6114054,132.974609 Z M48.9766398,135.541016 C49.308671,134.958984 49.4551554,134.4375 49.4551554,133.828125 C49.4551554,133.193359 49.2559367,132.513672 48.9727335,132.183594 L49.2578898,132.183594 C49.6426554,132.675781 49.8028117,133.160156 49.8028117,133.828125 C49.8028117,134.494141 49.6114054,135.117188 49.2754679,135.541016 L48.9766398,135.541016 Z" id="S2-(Sector-2)-Copy" fill="#999999"></path>
                <path d="M214.567948,164.041992 L215.99373,164.041992 C216.062089,164.613281 216.638261,164.979492 217.468339,164.979492 C218.234941,164.979492 218.776933,164.608398 218.776933,164.076172 C218.776933,163.626953 218.42537,163.368164 217.561112,163.182617 L216.643144,162.987305 C215.358964,162.71875 214.729081,162.049805 214.729081,160.975586 C214.729081,159.647461 215.798417,158.773438 217.424394,158.773438 C218.977128,158.773438 220.075761,159.642578 220.119706,160.897461 L218.732987,160.897461 C218.664628,160.34082 218.14705,159.969727 217.434159,159.969727 C216.696855,159.969727 216.208573,160.311523 216.208573,160.848633 C216.208573,161.283203 216.545487,161.532227 217.370683,161.708008 L218.220292,161.888672 C219.636308,162.186523 220.246659,162.796875 220.246659,163.890625 C220.246659,165.311523 219.157792,166.180664 217.390214,166.180664 C215.710527,166.180664 214.621659,165.355469 214.567948,164.041992 Z M223.215409,162.943359 L223.215409,161.844727 L224.074784,161.844727 C224.74373,161.844727 225.197831,161.454102 225.197831,160.87793 C225.197831,160.311523 224.758378,159.950195 224.069902,159.950195 C223.386308,159.950195 222.932206,160.335938 222.893144,160.946289 L221.530839,160.946289 C221.579667,159.613281 222.570878,158.773438 224.108964,158.773438 C225.554277,158.773438 226.594316,159.564453 226.594316,160.672852 C226.594316,161.488281 226.08162,162.123047 225.295487,162.28418 L225.295487,162.37207 C226.262284,162.479492 226.867753,163.124023 226.867753,164.051758 C226.867753,165.287109 225.705644,166.180664 224.099198,166.180664 C222.526933,166.180664 221.46248,165.311523 221.399003,163.983398 L222.810136,163.983398 C222.854081,164.579102 223.357011,164.955078 224.113847,164.955078 C224.851152,164.955078 225.363847,164.540039 225.363847,163.939453 C225.363847,163.324219 224.880448,162.943359 224.089433,162.943359 L223.215409,162.943359 Z M212.479569,172.541016 L212.182694,172.541016 C211.846757,172.121094 211.655351,171.498047 211.655351,170.828125 C211.655351,170.160156 211.81746,169.675781 212.202226,169.183594 L212.485429,169.183594 C212.202226,169.515625 212.001054,170.197266 212.001054,170.828125 C212.001054,171.4375 212.147538,171.958984 212.479569,172.541016 Z M212.952226,171.263672 L213.307694,171.263672 C213.350663,171.558594 213.631913,171.746094 214.032304,171.746094 C214.41121,171.746094 214.690507,171.541016 214.690507,171.261719 C214.690507,171.021484 214.514726,170.869141 214.126054,170.771484 L213.764726,170.677734 C213.25496,170.548828 213.034257,170.318359 213.034257,169.917969 C213.034257,169.439453 213.434648,169.115234 214.030351,169.115234 C214.575273,169.115234 214.981523,169.439453 215.010819,169.894531 L214.657304,169.894531 C214.608476,169.605469 214.370194,169.433594 214.018632,169.433594 C213.643632,169.433594 213.395585,169.621094 213.395585,169.90625 C213.395585,170.126953 213.549882,170.253906 213.938554,170.353516 L214.233476,170.431641 C214.81746,170.578125 215.051835,170.804688 215.051835,171.21875 C215.051835,171.736328 214.643632,172.066406 213.999101,172.066406 C213.401444,172.066406 212.989335,171.75 212.952226,171.263672 Z M216.432694,170.154297 C216.096757,170.154297 215.862382,170.400391 215.836991,170.773438 L216.997148,170.773438 C216.989335,170.400391 216.766679,170.154297 216.432694,170.154297 Z M216.987382,171.455078 L217.323319,171.455078 C217.221757,171.816406 216.897538,172.037109 216.436601,172.037109 C215.852616,172.037109 215.487382,171.615234 215.487382,170.949219 C215.487382,170.287109 215.858476,169.857422 216.436601,169.857422 C217.00496,169.857422 217.350663,170.261719 217.350663,170.916016 L217.350663,171.044922 L215.836991,171.044922 L215.836991,171.060547 C215.854569,171.476562 216.086991,171.740234 216.444413,171.740234 C216.715898,171.740234 216.899491,171.640625 216.987382,171.455078 Z M219.620194,170.539062 L219.280351,170.539062 C219.225663,170.330078 219.040116,170.160156 218.737382,170.160156 C218.358476,170.160156 218.120194,170.462891 218.120194,170.939453 C218.120194,171.425781 218.362382,171.734375 218.737382,171.734375 C219.020585,171.734375 219.217851,171.603516 219.280351,171.365234 L219.620194,171.365234 C219.559648,171.751953 219.245194,172.037109 218.739335,172.037109 C218.149491,172.037109 217.772538,171.609375 217.772538,170.939453 C217.772538,170.283203 218.147538,169.857422 218.737382,169.857422 C219.249101,169.857422 219.561601,170.164062 219.620194,170.539062 Z M220.256913,169.349609 L220.592851,169.349609 L220.592851,169.894531 L221.061601,169.894531 L221.061601,170.175781 L220.592851,170.175781 L220.592851,171.367188 C220.592851,171.615234 220.686601,171.720703 220.905351,171.720703 C220.965898,171.720703 220.999101,171.71875 221.061601,171.712891 L221.061601,171.996094 C220.995194,172.007812 220.930741,172.015625 220.864335,172.015625 C220.430741,172.015625 220.256913,171.855469 220.256913,171.453125 L220.256913,170.175781 L219.917069,170.175781 L219.917069,169.894531 L220.256913,169.894531 L220.256913,169.349609 Z M222.434648,171.734375 C222.833085,171.734375 223.057694,171.445312 223.057694,170.947266 C223.057694,170.447266 222.833085,170.160156 222.434648,170.160156 C222.03621,170.160156 221.811601,170.447266 221.811601,170.947266 C221.811601,171.445312 222.03621,171.734375 222.434648,171.734375 Z M222.434648,172.037109 C221.835038,172.037109 221.463944,171.623047 221.463944,170.947266 C221.463944,170.269531 221.835038,169.857422 222.434648,169.857422 C223.034257,169.857422 223.405351,170.269531 223.405351,170.947266 C223.405351,171.623047 223.034257,172.037109 222.434648,172.037109 Z M223.932694,172 L223.932694,169.894531 L224.253007,169.894531 L224.253007,170.207031 L224.284257,170.207031 C224.346757,170.001953 224.588944,169.857422 224.868241,169.857422 C224.922929,169.857422 224.993241,169.861328 225.03621,169.867188 L225.03621,170.203125 C225.008866,170.195312 224.887773,170.183594 224.821366,170.183594 C224.501054,170.183594 224.268632,170.398438 224.268632,170.695312 L224.268632,172 L223.932694,172 Z M227.159257,170.701172 L227.159257,170.400391 L227.501054,170.400391 C227.821366,170.400391 228.047929,170.193359 228.047929,169.900391 C228.047929,169.613281 227.831132,169.421875 227.506913,169.421875 C227.182694,169.421875 226.969804,169.601562 226.940507,169.904297 L226.59871,169.904297 C226.633866,169.416016 226.983476,169.115234 227.520585,169.115234 C228.012773,169.115234 228.405351,169.443359 228.405351,169.853516 C228.405351,170.189453 228.219804,170.435547 227.91121,170.509766 L227.91121,170.541016 C228.294023,170.589844 228.526444,170.855469 228.526444,171.240234 C228.526444,171.705078 228.090898,172.066406 227.534257,172.066406 C226.961991,172.066406 226.56746,171.748047 226.542069,171.265625 L226.881913,171.265625 C226.913163,171.566406 227.167069,171.759766 227.530351,171.759766 C227.901444,171.759766 228.165116,171.539062 228.165116,171.230469 C228.165116,170.904297 227.917069,170.701172 227.516679,170.701172 L227.159257,170.701172 Z M229.022538,172.541016 C229.354569,171.958984 229.501054,171.4375 229.501054,170.828125 C229.501054,170.193359 229.301835,169.513672 229.018632,169.183594 L229.303788,169.183594 C229.688554,169.675781 229.84871,170.160156 229.84871,170.828125 C229.84871,171.494141 229.657304,172.117188 229.321366,172.541016 L229.022538,172.541016 Z" id="S3-(Sector-3)-Copy" fill="#666666"></path>
                <g id="Group-Copy-8" transform="translate(267.000000, 150.000000)">
                    <circle id="Oval-Copy-2" fill-opacity="0.7" fill="#FFFFFF" cx="6" cy="6" r="6"></circle>
                    <circle id="Oval-Copy-2" fill-opacity="0.2" fill="#FFB819" cx="6" cy="6" r="6"></circle>
                    <circle id="Oval" stroke="#FFB819" stroke-width="0.5" fill="#FFFFFF" cx="6" cy="6" r="4"></circle>
                    <circle id="Oval-Copy" fill="#FFB819" cx="6" cy="6" r="2"></circle>
                </g>
                <g id="Group-Copy-8" transform="translate(266.000000, 34.000000)">
                    <circle id="Oval-Copy-2" fill-opacity="0.7" fill="#FFFFFF" cx="6" cy="6" r="6"></circle>
                    <circle id="Oval-Copy-2" fill-opacity="0.2" fill="#FFB819" cx="6" cy="6" r="6"></circle>
                    <circle id="Oval" stroke="#FFB819" stroke-width="0.5" fill="#FFFFFF" cx="6" cy="6" r="4"></circle>
                    <circle id="Oval-Copy" fill="#FFB819" cx="6" cy="6" r="2"></circle>
                </g>
            </g>
        </g>
    </g>
</svg>