<?xml version="1.0" encoding="UTF-8"?>
<svg width="160px" height="96px" viewBox="0 0 160 96" version="1.1" xmlns="http://www.w3.org/2000/svg" xmlns:xlink="http://www.w3.org/1999/xlink">
    <!-- Generator: Sketch 58 (84663) - https://sketch.com -->
    <title>circuit-gs-Spa-L-Eng</title>
    <desc>Created with Sketch.</desc>
    <defs>
        <linearGradient x1="50%" y1="23.3035083%" x2="50%" y2="112.667183%" id="linearGradient-1">
            <stop stop-color="#1B94E2" offset="0%"></stop>
            <stop stop-color="#40D8AB" offset="100%"></stop>
        </linearGradient>
    </defs>
    <g id="circuit-gs-Spa-L-Eng" stroke="none" stroke-width="1" fill="none" fill-rule="evenodd">
        <g id="Belgium-Circuit" transform="translate(-0.426667, 0.000000)">
            <g id="Group-2" transform="translate(11.946667, 3.413333)">
                <path d="M35.7083342,17.4799353 C36.2663544,16.9911437 37.1122504,16.6454605 37.8245244,16.7133075 C38.7833738,16.8046419 39.4173244,17.5799957 39.5701803,19.0576957 C39.8738599,21.0208501 39.8554358,22.9074676 39.5663808,24.067643 C39.3932553,24.7637332 38.7592504,26.0069676 37.6591181,27.8184794 L37.2944343,27.5970067 C38.3721094,25.8224736 38.9931567,24.6046481 39.1523493,23.9645783 C39.4262719,22.8651395 39.4441541,21.0340089 39.1471574,19.1122971 C39.012253,17.8104421 38.5197878,17.2081322 37.7840658,17.1380516 C37.2021192,17.0826188 36.4660656,17.3834139 35.9835508,17.8058807 C35.2318742,18.4175518 34.2911109,19.3975012 33.1644018,20.7440568 L33.1004481,20.8204894 L7.53941193,20.8204894 L16.3906452,13.066202 L16.6718013,13.3871314 L8.6739214,20.3938227 L32.9012561,20.3938227 C34.0156843,19.0673578 34.95225,18.0950155 35.7083342,17.4799353 Z" id="Path-33" fill="#E6E6E6" fill-rule="nonzero"></path>
                <path d="M4.09665093,26.32073 C2.93152718,26.32073 1.87029898,25.9733692 0.954327717,25.288077 L0.664098588,25.0709394 L0.530807669,24.7338709 C0.0284220846,23.463429 0.346941678,22.2661063 1.27047668,21.2743996 C1.87306034,20.6273357 2.63734445,20.1198916 3.85195463,19.4632017 C4.03706068,19.3631224 4.7425281,18.9892972 4.90456931,18.9015623 C5.10992626,18.7903748 6.04078155,18.2826902 6.1794692,18.2072371 C6.80982155,17.8642935 7.36458968,17.5649323 7.94221946,17.2570733 C9.50285419,16.4253028 10.9964031,15.6572503 12.4837745,14.9309173 C13.7348248,14.3199877 14.9401088,13.7593434 16.0958949,13.2546156 C19.5260103,11.7566959 22.3808425,10.8071119 24.5653444,10.5373536 C27.601094,10.1624769 29.9467553,9.7483861 32.9936327,9.09913377 C33.2869442,9.03663268 33.5858552,8.97230158 33.9727152,8.88856957 C34.0216911,8.87796922 34.7352897,8.72331754 34.9443021,8.67816148 C35.9190743,8.46756697 36.6096213,8.32217208 37.287742,8.1870352 C38.4189493,7.92846336 39.0684759,7.58185972 40.0158939,6.84631716 C40.0879535,6.79037258 40.3725094,6.56739619 40.3311432,6.59974521 C41.7881091,5.46037302 42.8287061,4.95700236 44.7224218,4.74955067 C46.7438356,4.7419387 48.0023893,5.04675359 49.5987343,5.72125725 C49.6209219,5.73063218 50.2046401,5.98071493 50.3626795,6.04572404 C51.1282254,6.36062931 51.6498972,6.49180627 52.3134934,6.49844773 C61.5339116,5.6793595 61.4614742,5.68550397 64.1359274,5.61219874 C65.3828553,5.57802116 66.6094872,5.57877777 67.9194503,5.61566799 C72.4056208,5.74200425 86.9726137,8.59249206 94.1430578,10.5724994 C99.7050656,12.0839514 106.016845,13.26803 115.567744,14.8052301 C120.345577,15.5742138 121.743924,17.0500617 121.686833,19.9696215 C121.680599,20.2646311 121.679341,20.3429885 121.679341,20.4362248 C121.679341,22.1762785 122.195983,22.4819077 124.953929,22.7861353 C125.242394,22.8179557 125.325634,22.8272467 125.46683,22.843706 C125.887274,22.8927174 126.22366,22.9390124 126.548028,22.9956446 C130.182551,23.4137146 132.163914,26.1960922 133.121237,30.5647468 C133.308866,31.4209716 133.452807,32.3117793 133.579449,33.3279461 C133.650404,33.8972881 133.831,35.5781637 133.831251,35.5803411 C133.846608,35.7136532 133.860938,35.8318234 133.874843,35.9392489 C133.980904,36.5147997 134.097692,37.0564023 134.294493,37.9125219 C134.605383,39.2649529 134.617752,39.3197449 134.722072,39.8335716 C134.989411,41.1503324 135.123593,42.2419387 135.123593,43.3676783 C135.123593,49.7795123 133.012693,52.7106325 128.525434,52.7106325 C125.343075,52.2747696 124.104411,51.8662207 123.081645,50.5659125 C121.989514,49.1774161 121.695293,47.0842241 121.90162,43.2980288 C122.345988,40.0341905 121.43675,38.87146 118.855281,37.9886983 C118.66538,37.9237597 118.465392,37.8592679 118.214931,37.7814379 C118.10552,37.7474388 117.666651,37.6128093 117.557312,37.5788223 C117.30624,37.5007792 117.105122,37.4358229 116.917078,37.3710209 C111.064739,36.0651077 105.534989,34.67303 99.3100715,32.909487 C94.8745616,31.627486 93.0916908,32.260238 91.8437365,35.8373304 C90.2316758,39.9434603 91.0087333,42.9405427 93.5347041,46.069587 C93.878346,46.4952731 94.1610236,46.819551 94.7585218,47.4861777 C95.2810827,48.0664045 97.5829007,50.6835607 97.7397938,50.860876 C99.2858742,52.608205 100.800657,54.2868436 102.615483,56.2506153 C104.332182,57.9876913 104.887798,59.8253263 104.334674,61.6512468 C103.928846,62.9909249 103.042432,64.1133743 101.594189,65.4391752 C101.343673,65.6685114 100.197813,66.6714227 99.9531635,66.9038215 C97.8500082,68.4981338 97.3737336,69.9350835 97.9626391,71.7662553 C98.466991,73.334512 99.3801971,74.6621129 102.009215,77.9481247 C102.311377,78.325797 102.499046,78.5612508 102.694795,78.8089694 C104.690806,81.334911 105.233937,83.5886722 104.360999,85.4830066 C103.691482,86.9359012 102.326626,87.9178155 100.58608,88.5662916 C96.7860028,90.0855934 93.1000034,90.959676 89.1462545,90.7258922 C85.913643,90.1601539 83.2499283,87.7847741 81.0613793,84.1477857 C79.3436181,81.2931649 77.997634,77.7369364 77.344171,74.6485919 C76.9290947,72.7061283 76.6759369,70.564839 76.5457653,68.1481349 C76.4278231,65.9584775 76.4149219,64.1370944 76.4495851,60.5270062 C76.484263,56.9153943 76.4696274,55.6055734 76.3355149,54.2641122 C75.9826835,50.7349154 73.6109783,47.0442078 67.8785594,40.1629322 C66.4273898,38.4209279 64.2238271,37.0871239 61.4305844,36.1133328 C59.8903565,35.5763726 58.2439142,35.1726337 56.4869113,34.8640177 C55.8249636,34.7477471 55.1781996,34.6500738 54.4795488,34.556847 C54.1312269,34.5103675 53.1635974,34.3892687 53.0345442,34.3720214 C52.1169876,34.2493947 52.0845277,34.2454019 45.6583317,33.4597767 C40.844772,32.8711998 38.5565211,32.5832676 37.8903886,32.4731661 C36.1870138,32.1916243 35.3397738,30.9193228 35.8700931,29.2934624 C36.210933,28.4521259 36.5362035,27.5256278 36.868068,26.4568718 C36.8458243,26.368742 25.9220186,26.3233614 4.09665093,26.32073 Z M2.87905269,23.482801 C3.24541262,23.6693154 3.64589029,23.76073 4.09665093,23.76073 L36.6683686,23.76073 C38.7865407,23.76073 39.9045238,25.1412402 39.3216624,27.186655 C38.9918482,28.2499759 38.6717746,29.1724234 38.3601356,29.9558796 C39.042769,30.0639304 41.3734093,30.3567725 45.8562114,30.9049072 C52.42761,31.7082851 52.4405989,31.7098828 53.37366,31.8345816 C53.4886644,31.8499514 54.4559502,31.9710072 54.8181496,32.0193385 C55.5493694,32.1169112 56.2299587,32.2196928 56.929793,32.3426181 C58.8132441,32.6734447 60.5896471,33.1090524 62.2733174,33.69602 C65.4682025,34.8098332 68.0558993,36.3761514 69.8454839,38.5243938 C75.9381042,45.8380603 78.4578999,49.7592175 78.8828164,54.0094458 C79.030184,55.4834905 79.0452141,56.8286255 79.0094671,60.5515856 C78.9753112,64.1088447 78.9879398,65.8917491 79.1020597,68.0104445 C79.2255513,70.3031299 79.4635293,72.3160234 79.8481861,74.1161432 C81.2696516,80.8341325 85.1850384,87.3651089 89.3753189,88.1748008 C92.8466752,88.3654131 96.1806314,87.5706066 99.6637854,86.1783913 C100.859898,85.7324955 101.70869,85.121852 102.035983,84.4116036 C102.448472,83.5164765 102.139818,82.2356983 100.686209,80.3961632 C100.494458,80.1535034 100.309419,79.9213497 100.010252,79.5474213 C97.1581545,75.9825812 96.1652737,74.5391509 95.525568,72.5500182 C94.6048508,69.6870948 95.4385642,67.134747 98.2457429,64.9956048 C98.6067122,64.6613278 99.6631483,63.736236 99.8655775,63.5509212 C102.287919,61.3333775 102.700959,59.9698878 100.782217,58.0375546 C98.9157915,56.0193826 97.3846377,54.3226969 95.8225621,52.5572906 C95.6561522,52.3692198 93.3669551,49.7664134 92.8542319,49.1971046 C92.2261914,48.4964076 91.9225479,48.1480784 91.5427596,47.6776159 C88.4923261,43.8988939 87.473731,39.9823886 89.4348032,34.9706373 C91.1900458,29.9645877 94.4084351,28.8279755 100.014378,30.4482868 C106.21071,32.2037132 111.713425,33.5881816 117.546185,34.8884332 C117.866795,34.9914557 118.060154,35.0543017 118.317196,35.1342006 C118.420507,35.1663136 118.859238,35.3009008 118.97461,35.3367521 C119.246158,35.421135 119.467607,35.4925474 119.683609,35.5664115 C123.314661,36.8080902 125.053482,39.0181644 124.455071,43.4883898 C124.286066,46.6508046 124.512602,48.2443319 125.093797,48.9832419 C125.546173,49.558377 126.340266,49.8259128 128.612139,50.1501221 C131.407779,50.1169461 132.563593,48.4602245 132.563593,43.3676783 C132.563593,42.4354487 132.44927,41.5053977 132.213257,40.3429294 C132.115418,39.8610291 132.103408,39.8078275 131.799563,38.4860443 C131.591186,37.5795656 131.467025,37.0026371 131.350843,36.3684083 C131.323654,36.1739093 131.306411,36.0325223 131.288071,35.8733207 C131.285594,35.8518213 131.106833,34.1880218 131.039101,33.6445426 C130.921394,32.7000657 130.78937,31.8830143 130.620574,31.1127285 C129.867964,27.6782609 128.514683,25.7860773 126.226065,25.5355725 C125.862625,25.4738431 125.562291,25.4321688 125.170417,25.3864878 C125.036546,25.3708824 124.955862,25.3618767 124.673239,25.3307007 C122.81036,25.1252076 122.001728,24.9579757 121.099651,24.4243345 C119.792309,23.6509511 119.119341,22.3199791 119.119341,20.4362248 C119.119341,20.3186445 119.120793,20.2282253 119.125067,20.0281462 C119.142655,19.1354514 119.085023,18.872545 118.838179,18.6120199 C118.370057,18.1179538 117.228135,17.6654127 115.160952,17.3327032 C105.519958,15.7810023 99.150664,14.5861342 93.4666964,13.0415292 C86.474396,11.1107242 72.0790381,8.29382217 67.847386,8.17465349 C66.5846113,8.13909215 65.4053962,8.13836478 64.2060692,8.17123764 C61.6053349,8.24252228 61.6753784,8.23687569 52.4804939,9.05369366 C51.2969709,9.0587145 50.4582575,8.85316423 49.3888049,8.41324769 C49.2103694,8.3398487 48.6093694,8.08236191 48.6023499,8.07939595 C47.318427,7.53689999 46.3929497,7.30912119 44.9320874,7.30210626 C43.6265689,7.45311544 43.0028455,7.7603406 41.9088111,8.61582185 C41.9512632,8.58262808 41.6628155,8.80865128 41.5858018,8.86844207 C40.3676088,9.81420501 39.4009954,10.3300141 37.8239971,10.6899949 C37.1270739,10.8293796 36.447939,10.9723716 35.4849044,11.1804303 C35.2768578,11.2253777 34.5639537,11.3798789 34.5142622,11.3906341 C34.1249571,11.4748953 33.8235854,11.539756 33.5271591,11.6029208 C30.4129048,12.2665303 27.9967929,12.6930582 24.8790889,13.0780551 C22.9981918,13.3103221 20.341793,14.1939026 17.1204088,15.60067 C15.9999379,16.0899758 14.8271512,16.6355038 13.6071209,17.2312853 C12.1495384,17.9430714 10.6820603,18.6977171 9.14628511,19.5162382 C8.57588597,19.8202435 8.02729539,20.1162712 7.40289679,20.4559756 C7.2672587,20.5297696 6.33288974,21.0393706 6.12345157,21.1527678 C5.94817258,21.24767 5.24179892,21.6219755 5.06948467,21.7151388 C3.59018283,22.5149366 2.96031533,23.0383901 2.87905269,23.482801 Z M38.2677283,30.1739524 L38.2715061,30.1754997 C38.2784665,30.1585043 38.2854311,30.1414389 38.2923999,30.1243036 C38.2957217,30.1130223 38.2995346,30.1006871 38.3038964,30.0873147 L38.2308466,30.0634875 C38.2495441,30.1022723 38.2616781,30.1403096 38.2677283,30.1739524 Z" id="Path-32" fill="#EBEBEB" fill-rule="nonzero"></path>
                <path d="M4.09665093,25.04073 C2.93152718,25.04073 1.87029898,24.6933692 0.954327717,24.008077 L0.664098588,23.7909394 L0.530807669,23.4538709 C0.0284220846,22.183429 0.346941678,20.9861063 1.27047668,19.9943996 C1.87306034,19.3473357 2.63734445,18.8398916 3.85195463,18.1832017 C4.03706068,18.0831224 4.7425281,17.7092972 4.90456931,17.6215623 C5.10992626,17.5103748 6.04078155,17.0026902 6.1794692,16.9272371 C6.80982155,16.5842935 7.36458968,16.2849323 7.94221946,15.9770733 C9.50285419,15.1453028 10.9964031,14.3772503 12.4837745,13.6509173 C13.7348248,13.0399877 14.9401088,12.4793434 16.0958949,11.9746156 C19.5260103,10.4766959 22.3808425,9.52711187 24.5653444,9.25735356 C27.601094,8.88247695 29.9467553,8.4683861 32.9936327,7.81913377 C33.2869442,7.75663268 33.5858552,7.69230158 33.9727152,7.60856957 C34.0216911,7.59796922 34.7352897,7.44331754 34.9443021,7.39816148 C35.9190743,7.18756697 36.6096213,7.04217208 37.287742,6.9070352 C38.4189493,6.64846336 39.0684759,6.30185972 40.0158939,5.56631716 C40.0879535,5.51037258 40.3725094,5.28739619 40.3311432,5.31974521 C41.7881091,4.18037302 42.8287061,3.67700236 44.7224218,3.46955067 C46.7438356,3.4619387 48.0023893,3.76675359 49.5987343,4.44125725 C49.6209219,4.45063218 50.2046401,4.70071493 50.3626795,4.76572404 C51.1282254,5.08062931 51.6498972,5.21180627 52.3134934,5.21844773 C61.5339116,4.3993595 61.4614742,4.40550397 64.1359274,4.33219874 C65.3828553,4.29802116 66.6094872,4.29877777 67.9194503,4.33566799 C72.4056208,4.46200425 86.9726137,7.31249206 94.1430578,9.29249941 C99.7050656,10.8039514 106.016845,11.98803 115.567744,13.5252301 C120.345577,14.2942138 121.743924,15.7700617 121.686833,18.6896215 C121.680599,18.9846311 121.679341,19.0629885 121.679341,19.1562248 C121.679341,20.8962785 122.195983,21.2019077 124.953929,21.5061353 C125.242394,21.5379557 125.325634,21.5472467 125.46683,21.563706 C125.887274,21.6127174 126.22366,21.6590124 126.548028,21.7156446 C130.182551,22.1337146 132.163914,24.9160922 133.121237,29.2847468 C133.308866,30.1409716 133.452807,31.0317793 133.579449,32.0479461 C133.650404,32.6172881 133.831,34.2981637 133.831251,34.3003411 C133.846608,34.4336532 133.860938,34.5518234 133.874843,34.6592489 C133.980904,35.2347997 134.097692,35.7764023 134.294493,36.6325219 C134.605383,37.9849529 134.617752,38.0397449 134.722072,38.5535716 C134.989411,39.8703324 135.123593,40.9619387 135.123593,42.0876783 C135.123593,48.4995123 133.012693,51.4306325 128.525434,51.4306325 C125.343075,50.9947696 124.104411,50.5862207 123.081645,49.2859125 C121.989514,47.8974161 121.695293,45.8042241 121.90162,42.0180288 C122.345988,38.7541905 121.43675,37.59146 118.855281,36.7086983 C118.66538,36.6437597 118.465392,36.5792679 118.214931,36.5014379 C118.10552,36.4674388 117.666651,36.3328093 117.557312,36.2988223 C117.30624,36.2207792 117.105122,36.1558229 116.917078,36.0910209 C111.064739,34.7851077 105.534989,33.39303 99.3100715,31.629487 C94.8745616,30.347486 93.0916908,30.980238 91.8437365,34.5573304 C90.2316758,38.6634603 91.0087333,41.6605427 93.5347041,44.789587 C93.878346,45.2152731 94.1610236,45.539551 94.7585218,46.2061777 C95.2810827,46.7864045 97.5829007,49.4035607 97.7397938,49.580876 C99.2858742,51.328205 100.800657,53.0068436 102.615483,54.9706153 C104.332182,56.7076913 104.887798,58.5453263 104.334674,60.3712468 C103.928846,61.7109249 103.042432,62.8333743 101.594189,64.1591752 C101.343673,64.3885114 100.197813,65.3914227 99.9531635,65.6238215 C97.8500082,67.2181338 97.3737336,68.6550835 97.9626391,70.4862553 C98.466991,72.054512 99.3801971,73.3821129 102.009215,76.6681247 C102.311377,77.045797 102.499046,77.2812508 102.694795,77.5289694 C104.690806,80.054911 105.233937,82.3086722 104.360999,84.2030066 C103.691482,85.6559012 102.326626,86.6378155 100.58608,87.2862916 C96.7860028,88.8055934 93.1000034,89.679676 89.1462545,89.4458922 C85.913643,88.8801539 83.2499283,86.5047741 81.0613793,82.8677857 C79.3436181,80.0131649 77.997634,76.4569364 77.344171,73.3685919 C76.9290947,71.4261283 76.6759369,69.284839 76.5457653,66.8681349 C76.4278231,64.6784775 76.4149219,62.8570944 76.4495851,59.2470062 C76.484263,55.6353943 76.4696274,54.3255734 76.3355149,52.9841122 C75.9826835,49.4549154 73.6109783,45.7642078 67.8785594,38.8829322 C66.4273898,37.1409279 64.2238271,35.8071239 61.4305844,34.8333328 C59.8903565,34.2963726 58.2439142,33.8926337 56.4869113,33.5840177 C55.8249636,33.4677471 55.1781996,33.3700738 54.4795488,33.276847 C54.1312269,33.2303675 53.1635974,33.1092687 53.0345442,33.0920214 C52.1169876,32.9693947 52.0845277,32.9654019 45.6583317,32.1797767 C40.844772,31.5911998 38.5565211,31.3032676 37.8903886,31.1931661 C36.1870138,30.9116243 35.3397738,29.6393228 35.8700931,28.0134624 C36.210933,27.1721259 36.5362035,26.2456278 36.868068,25.1768718 C36.8458243,25.088742 25.9220186,25.0433614 4.09665093,25.04073 Z M2.87905269,22.202801 C3.24541262,22.3893154 3.64589029,22.48073 4.09665093,22.48073 L36.6683686,22.48073 C38.7865407,22.48073 39.9045238,23.8612402 39.3216624,25.906655 C38.9918482,26.9699759 38.6717746,27.8924234 38.3601356,28.6758796 C39.042769,28.7839304 41.3734093,29.0767725 45.8562114,29.6249072 C52.42761,30.4282851 52.4405989,30.4298828 53.37366,30.5545816 C53.4886644,30.5699514 54.4559502,30.6910072 54.8181496,30.7393385 C55.5493694,30.8369112 56.2299587,30.9396928 56.929793,31.0626181 C58.8132441,31.3934447 60.5896471,31.8290524 62.2733174,32.41602 C65.4682025,33.5298332 68.0558993,35.0961514 69.8454839,37.2443938 C75.9381042,44.5580603 78.4578999,48.4792175 78.8828164,52.7294458 C79.030184,54.2034905 79.0452141,55.5486255 79.0094671,59.2715856 C78.9753112,62.8288447 78.9879398,64.6117491 79.1020597,66.7304445 C79.2255513,69.0231299 79.4635293,71.0360234 79.8481861,72.8361432 C81.2696516,79.5541325 85.1850384,86.0851089 89.3753189,86.8948008 C92.8466752,87.0854131 96.1806314,86.2906066 99.6637854,84.8983913 C100.859898,84.4524955 101.70869,83.841852 102.035983,83.1316036 C102.448472,82.2364765 102.139818,80.9556983 100.686209,79.1161632 C100.494458,78.8735034 100.309419,78.6413497 100.010252,78.2674213 C97.1581545,74.7025812 96.1652737,73.2591509 95.525568,71.2700182 C94.6048508,68.4070948 95.4385642,65.854747 98.2457429,63.7156048 C98.6067122,63.3813278 99.6631483,62.456236 99.8655775,62.2709212 C102.287919,60.0533775 102.700959,58.6898878 100.782217,56.7575546 C98.9157915,54.7393826 97.3846377,53.0426969 95.8225621,51.2772906 C95.6561522,51.0892198 93.3669551,48.4864134 92.8542319,47.9171046 C92.2261914,47.2164076 91.9225479,46.8680784 91.5427596,46.3976159 C88.4923261,42.6188939 87.473731,38.7023886 89.4348032,33.6906373 C91.1900458,28.6845877 94.4084351,27.5479755 100.014378,29.1682868 C106.21071,30.9237132 111.713425,32.3081816 117.546185,33.6084332 C117.866795,33.7114557 118.060154,33.7743017 118.317196,33.8542006 C118.420507,33.8863136 118.859238,34.0209008 118.97461,34.0567521 C119.246158,34.141135 119.467607,34.2125474 119.683609,34.2864115 C123.314661,35.5280902 125.053482,37.7381644 124.455071,42.2083898 C124.286066,45.3708046 124.512602,46.9643319 125.093797,47.7032419 C125.546173,48.278377 126.340266,48.5459128 128.612139,48.8701221 C131.407779,48.8369461 132.563593,47.1802245 132.563593,42.0876783 C132.563593,41.1554487 132.44927,40.2253977 132.213257,39.0629294 C132.115418,38.5810291 132.103408,38.5278275 131.799563,37.2060443 C131.591186,36.2995656 131.467025,35.7226371 131.350843,35.0884083 C131.323654,34.8939093 131.306411,34.7525223 131.288071,34.5933207 C131.285594,34.5718213 131.106833,32.9080218 131.039101,32.3645426 C130.921394,31.4200657 130.78937,30.6030143 130.620574,29.8327285 C129.867964,26.3982609 128.514683,24.5060773 126.226065,24.2555725 C125.862625,24.1938431 125.562291,24.1521688 125.170417,24.1064878 C125.036546,24.0908824 124.955862,24.0818767 124.673239,24.0507007 C122.81036,23.8452076 122.001728,23.6779757 121.099651,23.1443345 C119.792309,22.3709511 119.119341,21.0399791 119.119341,19.1562248 C119.119341,19.0386445 119.120793,18.9482253 119.125067,18.7481462 C119.142655,17.8554514 119.085023,17.592545 118.838179,17.3320199 C118.370057,16.8379538 117.228135,16.3854127 115.160952,16.0527032 C105.519958,14.5010023 99.150664,13.3061342 93.4666964,11.7615292 C86.474396,9.83072423 72.0790381,7.01382217 67.847386,6.89465349 C66.5846113,6.85909215 65.4053962,6.85836478 64.2060692,6.89123764 C61.6053349,6.96252228 61.6753784,6.95687569 52.4804939,7.77369366 C51.2969709,7.7787145 50.4582575,7.57316423 49.3888049,7.13324769 C49.2103694,7.0598487 48.6093694,6.80236191 48.6023499,6.79939595 C47.318427,6.25689999 46.3929497,6.02912119 44.9320874,6.02210626 C43.6265689,6.17311544 43.0028455,6.4803406 41.9088111,7.33582185 C41.9512632,7.30262808 41.6628155,7.52865128 41.5858018,7.58844207 C40.3676088,8.53420501 39.4009954,9.0500141 37.8239971,9.40999491 C37.1270739,9.54937956 36.447939,9.69237162 35.4849044,9.90043028 C35.2768578,9.94537769 34.5639537,10.0998789 34.5142622,10.1106341 C34.1249571,10.1948953 33.8235854,10.259756 33.5271591,10.3229208 C30.4129048,10.9865303 27.9967929,11.4130582 24.8790889,11.7980551 C22.9981918,12.0303221 20.341793,12.9139026 17.1204088,14.32067 C15.9999379,14.8099758 14.8271512,15.3555038 13.6071209,15.9512853 C12.1495384,16.6630714 10.6820603,17.4177171 9.14628511,18.2362382 C8.57588597,18.5402435 8.02729539,18.8362712 7.40289679,19.1759756 C7.2672587,19.2497696 6.33288974,19.7593706 6.12345157,19.8727678 C5.94817258,19.96767 5.24179892,20.3419755 5.06948467,20.4351388 C3.59018283,21.2349366 2.96031533,21.7583901 2.87905269,22.202801 Z M38.2677283,28.8939524 L38.2715061,28.8954997 C38.2784665,28.8785043 38.2854311,28.8614389 38.2923999,28.8443036 C38.2957217,28.8330223 38.2995346,28.8206871 38.3038964,28.8073147 L38.2308466,28.7834875 C38.2495441,28.8222723 38.2616781,28.8603096 38.2677283,28.8939524 Z" id="Path-32" fill="#F2F2F2" fill-rule="nonzero"></path>
                <path d="M99.4877777,31.0146532 C94.7558469,29.6469774 92.6137744,30.4072123 91.2308568,34.3697077 C89.541413,38.6702017 90.3784668,41.8986878 93.036718,45.1915942 C93.3893965,45.6284744 93.6773156,45.9587652 94.2829589,46.6344767 C94.8025508,47.2114067 97.1012136,49.8249755 97.2604859,50.0049797 C98.8137614,51.7604403 100.335704,53.4469186 102.144644,55.4047092 C103.716743,56.9879435 104.204898,58.5921354 103.722161,60.1856989 C103.358421,61.3864437 102.531863,62.4330967 101.162036,63.6871117 C100.920593,63.9081418 99.7685369,64.9164767 99.5123822,65.1598043 C97.2499174,66.8688682 96.6799938,68.5883628 97.3533713,70.682196 C97.8915617,72.3556717 98.8246864,73.71223 101.509474,77.0679488 C101.810887,77.4446852 101.997899,77.679314 102.192648,77.9257678 C104.053059,80.2801078 104.537571,82.2906233 103.779745,83.9351559 C103.195784,85.2023889 101.959944,86.0914855 100.348488,86.6920272 C96.6281435,88.1794514 93.0241987,89.0340758 89.1840315,88.8070081 C83.8676363,87.8664394 79.5465327,80.6855154 77.9700414,73.2348525 C77.5627034,71.3286021 77.3133405,69.2194117 77.1848389,66.8337123 C77.0678523,64.6617954 77.0550192,62.850032 77.0895556,59.253151 C77.1245008,55.6137021 77.1097666,54.2950527 76.9723403,52.9204456 C76.6014876,49.2109909 74.1927597,45.462671 68.3702906,38.4732976 C66.8345172,36.6297338 64.5349209,35.2378012 61.6412677,34.2290046 C60.0651791,33.6795426 58.3862467,33.2678365 56.5976317,32.9536678 C55.9262124,32.8357335 55.2709921,32.7367831 54.564199,32.6424699 C54.2124077,32.5955274 53.2448642,32.4744394 53.1193231,32.4576615 C52.1978904,32.3345167 52.1702982,32.3311227 45.7359957,31.5445065 C40.9463055,30.9588482 38.6466396,30.6694797 37.9947548,30.5617331 C36.66615,30.342135 36.0738422,29.4526656 36.4785439,28.2119255 C36.8109551,27.395718 37.1422781,26.45198 37.4835946,25.3521633 C37.6995529,24.5938373 37.5431682,24.40073 36.6683686,24.40073 L4.09665093,24.40073 C3.06867694,24.40073 2.14214096,24.0974566 1.33772368,23.4956245 L1.12596365,23.2185215 C0.721806164,22.1964806 0.972741483,21.2532088 1.73883656,20.4305636 C2.28011114,19.8493343 2.99997011,19.3713862 4.15633714,18.746186 C4.33824524,18.6478357 5.04393922,18.2738904 5.20928988,18.1843637 C5.41566713,18.0726237 6.34740084,17.5644601 6.4853261,17.4894217 C7.11419001,17.1472879 7.66741375,16.8487601 8.24323587,16.5418645 C9.79765571,15.7134064 11.284687,14.9487056 12.7646111,14.2260093 C14.0079064,13.6188667 15.2050661,13.0620015 16.3520233,12.5611292 C19.729956,11.0859976 22.5351798,10.1529144 24.6437805,9.89252895 C27.7000187,9.51512225 30.0632926,9.09792216 33.1270143,8.44508053 C33.4211045,8.38241351 33.7206307,8.31795001 34.1081019,8.2340857 C34.1572567,8.22344663 34.8706817,8.06883258 35.0794527,8.02372868 C36.0512905,7.81376813 36.7389845,7.66897395 37.4303552,7.53094342 C38.6644608,7.24885104 39.3932591,6.85994604 40.4083708,6.07184839 C40.4817212,6.01490172 40.7675769,5.79090714 40.725471,5.8238341 C42.0965477,4.75163893 43.0335539,4.29839057 44.7921152,4.10574469 C46.64876,4.1019387 47.8262817,4.38712808 49.3496382,5.03079193 C49.3680337,5.03856461 49.9560724,5.29049837 50.1192108,5.35760495 C50.9660414,5.70594649 51.5682041,5.85518294 52.3395596,5.85865247 C61.5693647,5.03873125 61.4959088,5.0448005 64.1534628,4.97195846 C65.3884905,4.93810706 66.6032682,4.93885637 67.9014343,4.97541437 C72.3239751,5.09995873 86.8480593,7.9420501 93.975227,9.91010187 C99.5664652,11.4294971 105.892623,12.6162731 115.466046,14.1570984 C119.94447,14.8778927 121.097452,16.0947768 121.046955,18.6771087 C121.040648,18.9755297 121.039341,19.0569025 121.039341,19.1562248 C121.039341,21.3330981 121.839539,21.8064707 124.883756,22.1422766 C125.170761,22.173936 125.253362,22.1831557 125.392727,22.1994015 C125.810278,22.2480757 126.140308,22.2936706 126.456517,22.349363 C129.761696,22.7213463 131.589041,25.2825953 132.496072,29.4217422 C132.678992,30.2564823 132.819953,31.1288509 132.944362,32.1270952 C133.014512,32.6899715 133.194648,34.3665781 133.195456,34.373586 C133.212711,34.5233686 133.228758,34.6549563 133.239416,34.7424467 C133.3492,35.3417441 133.468323,35.8952616 133.67076,36.7759025 C133.979889,38.1206715 133.992168,38.175066 134.094869,38.680911 C134.354375,39.9590987 134.483593,41.0103184 134.483593,42.0876783 C134.483593,48.1827733 132.605496,50.7906325 128.525434,50.7906325 C123.212902,50.0482238 122.176755,48.7309029 122.540671,42.0528536 C123.026324,38.504598 121.90985,37.0768564 119.062363,36.1031266 C118.865937,36.0359566 118.660584,35.9697347 118.404851,35.8902664 C118.29395,35.8558043 117.855115,35.7211853 117.747283,35.6876669 C117.486674,35.6066593 117.282484,35.5405138 117.091968,35.4743042 C111.238009,34.16867 105.71017,32.7774717 99.4877777,31.0146532 Z M4.09665093,23.12073 L36.6683686,23.12073 C38.3720832,23.12073 39.1695335,24.1054392 38.7103917,25.7170549 C38.3577839,26.8538626 38.0174772,27.8244386 37.6886384,28.629984 C37.5445892,29.0830937 37.6331891,29.2046054 38.2034873,29.298867 C38.8268768,29.4019037 41.1493724,29.694145 45.7785339,30.2601758 C52.3418394,31.0625643 52.3596961,31.0647608 53.288881,31.1889416 C53.4073977,31.2047807 54.3747694,31.3258473 54.7334994,31.3737156 C55.456577,31.4702018 56.1287099,31.5717064 56.8190726,31.692968 C58.6709116,32.0182419 60.4148244,32.4458824 62.0626341,33.0203482 C65.1571087,34.0991559 67.6487719,35.6073455 69.3537528,37.6540284 C75.3563227,44.8595972 77.8390958,48.723142 78.245991,52.7931124 C78.3900448,54.2340112 78.4049763,55.5703177 78.3694966,59.2654407 C78.3352139,62.8359071 78.3479106,64.6284312 78.4629861,66.7648671 C78.5881477,69.0885572 78.8299207,71.1335497 79.222049,72.9686281 C80.6966862,79.9379124 84.7537183,86.6919302 89.2977035,87.5314559 C92.896789,87.7371297 96.3249989,86.9221407 99.8873407,85.498077 C101.22658,84.9988255 102.204388,84.2953643 102.617237,83.3994544 C103.144838,82.2545254 102.777565,80.7305015 101.188355,78.7193647 C100.995605,78.4754403 100.809908,78.2424616 100.509993,77.8675971 C97.7136651,74.3724642 96.740703,72.9579911 96.1348357,71.0740775 C95.2955474,68.4643528 96.044303,66.1867948 98.6581778,64.2060106 C98.9787574,63.9063833 100.081108,62.9412924 100.29773,62.7429847 C102.952111,60.313019 103.48099,58.5671358 101.220504,56.290056 C99.3890956,54.3085612 97.8610122,52.615278 96.30187,50.853187 C96.1378394,50.667805 93.845487,48.0614112 93.330814,47.4899401 C92.7098994,46.7971935 92.4114974,46.4548771 92.0407457,45.9956087 C89.1179339,42.374978 88.1608874,38.6836845 90.0308929,33.9248765 C91.6579417,29.261161 94.5184177,28.2459602 99.839931,29.7840531 C106.048169,31.5428525 111.562602,32.9302692 117.406933,34.2331002 C117.66346,34.3183628 117.86348,34.3833737 118.127225,34.465356 C118.232043,34.4979375 118.670809,34.6325353 118.78469,34.6679235 C119.050967,34.7506683 119.26705,34.8203505 119.476527,34.8919832 C122.8489,36.0452034 124.380507,37.9971299 123.81737,42.1484062 C123.637815,45.4752416 123.881329,47.1969661 124.590759,48.0989095 C125.186657,48.8565132 126.095906,49.1597916 128.569593,49.5105122 C131.803837,49.4928346 133.203593,47.5246142 133.203593,42.0876783 C133.203593,41.107072 133.084305,40.1366314 132.840461,38.93559 C132.741001,38.445708 132.728902,38.3921088 132.423296,37.0626637 C132.216898,36.1647976 132.094417,35.5956728 131.975337,34.941072 C131.958688,34.8142583 131.941844,34.6761378 131.923866,34.5200758 C131.921945,34.5034069 131.742726,32.8353384 131.674188,32.2853935 C131.554247,31.3229941 131.419244,30.4875036 131.24574,29.6957331 C130.441,26.0233777 128.927709,23.9074633 126.295702,23.6193723 C125.960024,23.5611222 125.648023,23.5178289 125.24452,23.4707923 C125.108818,23.4549735 125.027495,23.4458964 124.743412,23.4145594 C122.976467,23.2196487 122.219237,23.0630472 121.425507,22.5935009 C120.324255,21.9420338 119.759341,20.8247675 119.759341,19.1562248 C119.759341,19.0447305 119.760744,18.9573267 119.764921,18.7618164 C119.785544,17.7140096 119.696381,17.3072702 119.302761,16.8918341 C118.717025,16.273635 117.455817,15.7738214 115.26265,15.4208349 C105.644179,13.8727593 99.2892644,12.6805885 93.6370463,11.1446167 C86.5989504,9.20116619 72.1606838,6.37586769 67.8654021,6.25490711 C66.5908303,6.21901355 65.3997609,6.21827887 64.1885337,6.25147792 C61.567934,6.32330705 61.6400927,6.31748995 52.4238631,7.13620408 C51.3921584,7.1387145 50.6308856,6.9521432 49.6322735,6.54136678 C49.458937,6.47006526 48.8622575,6.21442947 48.851446,6.20986128 C47.4841692,5.63214578 46.4735245,5.38556459 44.8968517,5.38197843 C43.4319417,5.54669295 42.7041657,5.90143642 41.5143624,6.8318275 C41.5566926,6.79872775 41.269119,7.02406681 41.1933248,7.08291084 C40.0428256,7.97611869 39.1554839,8.44962641 37.6984828,8.78242328 C36.9977107,8.92257769 36.3157228,9.06617046 35.3497539,9.27486308 C35.1414658,9.31986265 34.428388,9.47440145 34.3788754,9.48511795 C33.9901816,9.56924686 33.6894251,9.63397516 33.3937775,9.69697405 C30.2963674,10.3569943 27.8978682,10.7804129 24.8006528,11.1628797 C22.8438545,11.4045195 20.1378473,12.3046009 16.8642803,13.7341564 C15.7349806,14.2273177 14.5540696,14.7766248 13.3262843,15.3761933 C11.8612546,16.0916161 10.3872587,16.8496135 8.8452687,17.671447 C8.27306189,17.9764157 7.72292693,18.2732768 7.09703989,18.613791 C6.96063941,18.6879998 6.02714887,19.1971216 5.81873101,19.3099664 C5.64676146,19.4030768 4.94061436,19.7772622 4.76510216,19.8721545 C2.7779661,20.9465175 2.02431024,21.6940079 2.26095872,22.5812328 C2.80312732,22.942087 3.40980718,23.12073 4.09665093,23.12073 Z" id="Path-32" fill="url(#linearGradient-1)" fill-rule="nonzero"></path>
                <path d="M99.4877777,31.0146532 C94.7558469,29.6469774 92.6137744,30.4072123 91.2308568,34.3697077 C89.541413,38.6702017 90.3784668,41.8986878 93.036718,45.1915942 C93.3893965,45.6284744 93.6773156,45.9587652 94.2829589,46.6344767 C94.8025508,47.2114067 97.1012136,49.8249755 97.2604859,50.0049797 C98.8137614,51.7604403 100.335704,53.4469186 102.144644,55.4047092 C103.716743,56.9879435 104.204898,58.5921354 103.722161,60.1856989 C103.358421,61.3864437 102.531863,62.4330967 101.162036,63.6871117 C100.920593,63.9081418 99.7685369,64.9164767 99.5123822,65.1598043 C97.2499174,66.8688682 96.6799938,68.5883628 97.3533713,70.682196 C97.8915617,72.3556717 98.8246864,73.71223 101.509474,77.0679488 C101.810887,77.4446852 101.997899,77.679314 102.192648,77.9257678 C104.053059,80.2801078 104.537571,82.2906233 103.779745,83.9351559 C103.195784,85.2023889 101.959944,86.0914855 100.348488,86.6920272 C99.3305561,87.0990046 98.3522754,87.4475073 97.2742852,87.7647541 L96.9129122,86.5368251 C97.9481178,86.2321696 98.8899541,85.8966499 99.8873407,85.498077 C101.22658,84.9988255 102.204388,84.2953643 102.617237,83.3994544 C103.144838,82.2545254 102.777565,80.7305015 101.188355,78.7193647 C100.995605,78.4754403 100.809908,78.2424616 100.509993,77.8675971 C97.7136651,74.3724642 96.740703,72.9579911 96.1348357,71.0740775 C95.2955474,68.4643528 96.044303,66.1867948 98.6581778,64.2060106 C98.9787574,63.9063833 100.081108,62.9412924 100.29773,62.7429847 C102.952111,60.313019 103.48099,58.5671358 101.220504,56.290056 C99.3890956,54.3085612 97.8610122,52.615278 96.30187,50.853187 C96.1378394,50.667805 93.845487,48.0614112 93.330814,47.4899401 C92.7098994,46.7971935 92.4114974,46.4548771 92.0407457,45.9956087 C89.1179339,42.374978 88.1608874,38.6836845 90.0308929,33.9248765 C91.6579417,29.261161 94.5184177,28.2459602 99.839931,29.7840531 C106.048169,31.5428525 111.562602,32.9302692 117.406933,34.2331002 C117.66346,34.3183628 117.86348,34.3833737 118.127225,34.465356 C118.232043,34.4979375 118.670809,34.6325353 118.78469,34.6679235 C119.050967,34.7506683 119.26705,34.8203505 119.476527,34.8919832 C122.8489,36.0452034 124.380507,37.9971299 123.81737,42.1484062 C123.637815,45.4752416 123.881329,47.1969661 124.590759,48.0989095 C125.186657,48.8565132 126.095906,49.1597916 128.569593,49.5105122 C131.803837,49.4928346 133.203593,47.5246142 133.203593,42.0876783 C133.203593,41.107072 133.084305,40.1366314 132.840461,38.93559 C132.741001,38.445708 132.728902,38.3921088 132.423296,37.0626637 C132.216898,36.1647976 132.094417,35.5956728 131.975337,34.941072 C131.958688,34.8142583 131.941844,34.6761378 131.923866,34.5200758 C131.921945,34.5034069 131.742726,32.8353384 131.674188,32.2853935 C131.554247,31.3229941 131.419244,30.4875036 131.24574,29.6957331 C130.441,26.0233777 128.927709,23.9074633 126.295702,23.6193723 C125.960024,23.5611222 125.648023,23.5178289 125.24452,23.4707923 C125.108818,23.4549735 125.027495,23.4458964 124.743412,23.4145594 C122.976467,23.2196487 122.219237,23.0630472 121.425507,22.5935009 C120.324255,21.9420338 119.759341,20.8247675 119.759341,19.1562248 C119.759341,19.0447305 119.760744,18.9573267 119.764921,18.7618164 C119.798116,17.0710576 119.437831,16.5008887 117.319589,15.8704854 L117.6847,14.6436627 C120.391404,15.4491964 121.088504,16.5523896 121.046955,18.6771087 C121.040648,18.9755297 121.039341,19.0569025 121.039341,19.1562248 C121.039341,21.3330981 121.839539,21.8064707 124.883756,22.1422766 C125.170761,22.173936 125.253362,22.1831557 125.392727,22.1994015 C125.810278,22.2480757 126.140308,22.2936706 126.456517,22.349363 C129.761696,22.7213463 131.589041,25.2825953 132.496072,29.4217422 C132.678992,30.2564823 132.819953,31.1288509 132.944362,32.1270952 C133.014512,32.6899715 133.194648,34.3665781 133.195456,34.373586 C133.212711,34.5233686 133.228758,34.6549563 133.239416,34.7424467 C133.3492,35.3417441 133.468323,35.8952616 133.67076,36.7759025 C133.979889,38.1206715 133.992168,38.175066 134.094869,38.680911 C134.354375,39.9590987 134.483593,41.0103184 134.483593,42.0876783 C134.483593,48.1827733 132.605496,50.7906325 128.525434,50.7906325 C123.212902,50.0482238 122.176755,48.7309029 122.540671,42.0528536 C123.026324,38.504598 121.90985,37.0768564 119.062363,36.1031266 C118.865937,36.0359566 118.660584,35.9697347 118.404851,35.8902664 C118.29395,35.8558043 117.855115,35.7211853 117.747283,35.6876669 C117.486674,35.6066593 117.282484,35.5405138 117.091968,35.4743042 C111.238009,34.16867 105.71017,32.7774717 99.4877777,31.0146532 Z" id="Path" fill-opacity="0.2" fill="#000000" fill-rule="nonzero"></path>
                <polygon id="Path" fill="#FF9219" fill-rule="nonzero" points="24.3871282 24.40073 24.3871282 23.12073 35.6883626 23.12073 35.6883626 24.40073"></polygon>
                <polygon id="Path" fill="#FFB819" fill-rule="nonzero" points="4.09665093 24.40073 4.09665093 23.12073 24.4924226 23.12073 24.4924226 24.40073"></polygon>
                <path d="M96.8273611,86.5618614 L97.1850015,87.7908827 C94.4947964,88.5737218 91.8145856,88.9625518 89.1840315,88.8070081 C83.8676363,87.8664394 79.5465327,80.6855154 77.9700414,73.2348525 C77.5627034,71.3286021 77.3133405,69.2194117 77.1848389,66.8337123 C77.0678523,64.6617954 77.0550192,62.850032 77.0895556,59.253151 C77.1245008,55.6137021 77.1097666,54.2950527 76.9723403,52.9204456 C76.6014876,49.2109909 74.1927597,45.462671 68.3702906,38.4732976 C66.8345172,36.6297338 64.5349209,35.2378012 61.6412677,34.2290046 C60.0651791,33.6795426 58.3862467,33.2678365 56.5976317,32.9536678 C55.9262124,32.8357335 55.2709921,32.7367831 54.564199,32.6424699 C54.2124077,32.5955274 53.2448642,32.4744394 53.1193231,32.4576615 C52.1978904,32.3345167 52.1702982,32.3311227 45.7359957,31.5445065 C40.9463055,30.9588482 38.6466396,30.6694797 37.9947548,30.5617331 C36.66615,30.342135 36.0738422,29.4526656 36.4785439,28.2119255 C36.8109551,27.395718 37.1422781,26.45198 37.4835946,25.3521633 C37.6995529,24.5938373 37.5431682,24.40073 36.6683686,24.40073 L35.7144995,24.40073 L35.7144995,23.12073 L36.6683686,23.12073 C38.3720832,23.12073 39.1695335,24.1054392 38.7103917,25.7170549 C38.3577839,26.8538626 38.0174772,27.8244386 37.6886384,28.629984 C37.5445892,29.0830937 37.6331891,29.2046054 38.2034873,29.298867 C38.8268768,29.4019037 41.1493724,29.694145 45.7785339,30.2601758 C52.3418394,31.0625643 52.3596961,31.0647608 53.288881,31.1889416 C53.4073977,31.2047807 54.3747694,31.3258473 54.7334994,31.3737156 C55.456577,31.4702018 56.1287099,31.5717064 56.8190726,31.692968 C58.6709116,32.0182419 60.4148244,32.4458824 62.0626341,33.0203482 C65.1571087,34.0991559 67.6487719,35.6073455 69.3537528,37.6540284 C75.3563227,44.8595972 77.8390958,48.723142 78.245991,52.7931124 C78.3900448,54.2340112 78.4049763,55.5703177 78.3694966,59.2654407 C78.3352139,62.8359071 78.3479106,64.6284312 78.4629861,66.7648671 C78.5881477,69.0885572 78.8299207,71.1335497 79.222049,72.9686281 C80.6966834,79.9378989 84.7537025,86.691904 89.297677,87.5314511 C91.7541348,87.6713978 94.2805857,87.302963 96.8273611,86.5618614 Z" id="Path" fill-opacity="0.37" fill="#000000" fill-rule="nonzero"></path>
                <path d="M117.494637,14.5887794 L117.149288,15.8213111 C116.841688,15.7351233 116.504358,15.6543762 116.135995,15.5791933 L116.391967,14.3250487 C116.78947,14.4061793 117.156505,14.4940367 117.494637,14.5887794 Z" id="Path" fill="#FFA019" fill-rule="nonzero"></path>
                <path d="M116.391967,14.3250487 L116.135995,15.5791933 C115.86201,15.5232727 115.571062,15.4704733 115.26265,15.4208349 C105.644179,13.8727593 99.2892644,12.6805885 93.6370463,11.1446167 C86.5989504,9.20116619 72.1606838,6.37586769 67.8654021,6.25490711 L67.9014343,4.97541437 C72.3239751,5.09995873 86.8480593,7.9420501 93.975227,9.91010187 C99.5664652,11.4294971 105.892623,12.6162731 115.466046,14.1570984 C115.791671,14.2095072 116.100116,14.2654818 116.391967,14.3250487 Z" id="Path" fill="#FFB819" fill-rule="nonzero"></path>
                <g id="Group-Copy-7" transform="translate(55.893333, 3.413333)">
                    <circle id="Oval-Copy-2" fill-opacity="0.7" fill="#FFFFFF" cx="2.56" cy="2.56" r="2.56"></circle>
                    <circle id="Oval-Copy-2" fill-opacity="0.2" fill="#D0021B" cx="2.56" cy="2.56" r="2.56"></circle>
                    <circle id="Oval" stroke="#D0021B" stroke-width="0.5" fill="#FFFFFF" cx="2.56" cy="2.56" r="1.70666667"></circle>
                    <circle id="Oval-Copy" fill="#D0021B" cx="2.56" cy="2.56" r="1"></circle>
                </g>
                <path d="M85.0546163,2.57791667 L85.6629496,2.57791667 C85.6921163,2.82166667 85.9379496,2.97791667 86.2921163,2.97791667 C86.6191996,2.97791667 86.8504496,2.81958333 86.8504496,2.5925 C86.8504496,2.40083333 86.7004496,2.29041667 86.3316996,2.21125 L85.940033,2.12791667 C85.3921163,2.01333333 85.1233663,1.72791667 85.1233663,1.26958333 C85.1233663,0.702916667 85.5796163,0.33 86.2733663,0.33 C86.9358663,0.33 87.4046163,0.700833333 87.4233663,1.23625 L86.8316996,1.23625 C86.802533,0.99875 86.5816996,0.840416667 86.277533,0.840416667 C85.9629496,0.840416667 85.7546163,0.98625 85.7546163,1.21541667 C85.7546163,1.40083333 85.8983663,1.50708333 86.2504496,1.58208333 L86.6129496,1.65916667 C87.2171163,1.78625 87.477533,2.04666667 87.477533,2.51333333 C87.477533,3.11958333 87.0129496,3.49041667 86.258783,3.49041667 C85.5421163,3.49041667 85.077533,3.13833333 85.0546163,2.57791667 Z M88.7379496,3.41333333 L88.7379496,1.01958333 L88.7004496,1.01958333 L87.9629496,1.52791667 L87.9629496,0.9425 L88.740033,0.407083333 L89.3671163,0.407083333 L89.3671163,3.41333333 L88.7379496,3.41333333 Z M83.9683663,6.20416667 L83.8416996,6.20416667 C83.6983663,6.025 83.6166996,5.75916667 83.6166996,5.47333333 C83.6166996,5.18833333 83.6858663,4.98166667 83.850033,4.77166667 L83.9708663,4.77166667 C83.850033,4.91333333 83.7641996,5.20416667 83.7641996,5.47333333 C83.7641996,5.73333333 83.8266996,5.95583333 83.9683663,6.20416667 Z M84.170033,5.65916667 L84.3216996,5.65916667 C84.340033,5.785 84.460033,5.865 84.6308663,5.865 C84.792533,5.865 84.9116996,5.7775 84.9116996,5.65833333 C84.9116996,5.55583333 84.8366996,5.49083333 84.6708663,5.44916667 L84.5166996,5.40916667 C84.2991996,5.35416667 84.205033,5.25583333 84.205033,5.085 C84.205033,4.88083333 84.3758663,4.7425 84.630033,4.7425 C84.862533,4.7425 85.0358663,4.88083333 85.0483663,5.075 L84.897533,5.075 C84.8766996,4.95166667 84.775033,4.87833333 84.625033,4.87833333 C84.465033,4.87833333 84.3591996,4.95833333 84.3591996,5.08 C84.3591996,5.17416667 84.425033,5.22833333 84.5908663,5.27083333 L84.7166996,5.30416667 C84.9658663,5.36666667 85.0658663,5.46333333 85.0658663,5.64 C85.0658663,5.86083333 84.8916996,6.00166667 84.6166996,6.00166667 C84.3616996,6.00166667 84.1858663,5.86666667 84.170033,5.65916667 Z M85.655033,5.18583333 C85.5116996,5.18583333 85.4116996,5.29083333 85.4008663,5.45 L85.8958663,5.45 C85.892533,5.29083333 85.797533,5.18583333 85.655033,5.18583333 Z M85.8916996,5.74083333 L86.035033,5.74083333 C85.9916996,5.895 85.8533663,5.98916667 85.6566996,5.98916667 C85.407533,5.98916667 85.2516996,5.80916667 85.2516996,5.525 C85.2516996,5.2425 85.410033,5.05916667 85.6566996,5.05916667 C85.8991996,5.05916667 86.0466996,5.23166667 86.0466996,5.51083333 L86.0466996,5.56583333 L85.4008663,5.56583333 L85.4008663,5.5725 C85.4083663,5.75 85.507533,5.8625 85.660033,5.8625 C85.7758663,5.8625 85.8541996,5.82 85.8916996,5.74083333 Z M87.015033,5.35 L86.870033,5.35 C86.8466996,5.26083333 86.767533,5.18833333 86.6383663,5.18833333 C86.4766996,5.18833333 86.375033,5.3175 86.375033,5.52083333 C86.375033,5.72833333 86.4783663,5.86 86.6383663,5.86 C86.7591996,5.86 86.8433663,5.80416667 86.870033,5.7025 L87.015033,5.7025 C86.9891996,5.8675 86.855033,5.98916667 86.6391996,5.98916667 C86.387533,5.98916667 86.2266996,5.80666667 86.2266996,5.52083333 C86.2266996,5.24083333 86.3866996,5.05916667 86.6383663,5.05916667 C86.8566996,5.05916667 86.990033,5.19 87.015033,5.35 Z M87.2866996,4.8425 L87.430033,4.8425 L87.430033,5.075 L87.630033,5.075 L87.630033,5.195 L87.430033,5.195 L87.430033,5.70333333 C87.430033,5.80916667 87.470033,5.85416667 87.5633663,5.85416667 C87.5891996,5.85416667 87.6033663,5.85333333 87.630033,5.85083333 L87.630033,5.97166667 C87.6016996,5.97666667 87.5741996,5.98 87.5458663,5.98 C87.3608663,5.98 87.2866996,5.91166667 87.2866996,5.74 L87.2866996,5.195 L87.1416996,5.195 L87.1416996,5.075 L87.2866996,5.075 L87.2866996,4.8425 Z M88.2158663,5.86 C88.3858663,5.86 88.4816996,5.73666667 88.4816996,5.52416667 C88.4816996,5.31083333 88.3858663,5.18833333 88.2158663,5.18833333 C88.0458663,5.18833333 87.950033,5.31083333 87.950033,5.52416667 C87.950033,5.73666667 88.0458663,5.86 88.2158663,5.86 Z M88.2158663,5.98916667 C87.960033,5.98916667 87.8016996,5.8125 87.8016996,5.52416667 C87.8016996,5.235 87.960033,5.05916667 88.2158663,5.05916667 C88.4716996,5.05916667 88.630033,5.235 88.630033,5.52416667 C88.630033,5.8125 88.4716996,5.98916667 88.2158663,5.98916667 Z M88.855033,5.97333333 L88.855033,5.075 L88.9916996,5.075 L88.9916996,5.20833333 L89.005033,5.20833333 C89.0316996,5.12083333 89.135033,5.05916667 89.2541996,5.05916667 C89.277533,5.05916667 89.307533,5.06083333 89.3258663,5.06333333 L89.3258663,5.20666667 C89.3141996,5.20333333 89.262533,5.19833333 89.2341996,5.19833333 C89.097533,5.19833333 88.9983663,5.29 88.9983663,5.41666667 L88.9983663,5.97333333 L88.855033,5.97333333 Z M90.2733663,5.97333333 L90.2733663,4.9375 L90.260033,4.9375 L89.9541996,5.15916667 L89.9541996,5.00083333 L90.2741996,4.77083333 L90.4233663,4.77083333 L90.4233663,5.97333333 L90.2733663,5.97333333 Z M90.752533,6.20416667 C90.8941996,5.95583333 90.9566996,5.73333333 90.9566996,5.47333333 C90.9566996,5.2025 90.8716996,4.9125 90.7508663,4.77166667 L90.872533,4.77166667 C91.0366996,4.98166667 91.105033,5.18833333 91.105033,5.47333333 C91.105033,5.7575 91.0233663,6.02333333 90.880033,6.20416667 L90.752533,6.20416667 Z" id="S1-(Sector-1)-Copy" fill="#C6C6C6"></path>
                <path d="M106.109825,46.95125 L106.718158,46.95125 C106.747325,47.195 106.993158,47.35125 107.347325,47.35125 C107.674408,47.35125 107.905658,47.1929167 107.905658,46.9658333 C107.905658,46.7741667 107.755658,46.66375 107.386908,46.5845833 L106.995241,46.50125 C106.447325,46.3866667 106.178575,46.10125 106.178575,45.6429167 C106.178575,45.07625 106.634825,44.7033333 107.328575,44.7033333 C107.991075,44.7033333 108.459825,45.0741667 108.478575,45.6095833 L107.886908,45.6095833 C107.857741,45.3720833 107.636908,45.21375 107.332741,45.21375 C107.018158,45.21375 106.809825,45.3595833 106.809825,45.58875 C106.809825,45.7741667 106.953575,45.8804167 107.305658,45.9554167 L107.668158,46.0325 C108.272325,46.1595833 108.532741,46.42 108.532741,46.8866667 C108.532741,47.4929167 108.068158,47.86375 107.313991,47.86375 C106.597325,47.86375 106.132741,47.5116667 106.109825,46.95125 Z M109.030658,45.6804167 C109.030658,45.0991667 109.476491,44.7033333 110.126491,44.7033333 C110.753575,44.7033333 111.191075,45.06375 111.191075,45.5804167 C111.191075,45.9075 111.013991,46.18875 110.493158,46.6783333 L109.918158,47.22625 L109.918158,47.26375 L111.234825,47.26375 L111.234825,47.7866667 L109.066075,47.7866667 L109.066075,47.3470833 L110.047325,46.3866667 C110.470241,45.9741667 110.576491,45.8179167 110.576491,45.6220833 C110.576491,45.3804167 110.380658,45.2095833 110.105658,45.2095833 C109.813991,45.2095833 109.613991,45.40125 109.613991,45.6783333 L109.613991,45.6908333 L109.030658,45.6908333 L109.030658,45.6804167 Z M105.1842,50.5775 L105.057533,50.5775 C104.9142,50.3983333 104.832533,50.1325 104.832533,49.8466667 C104.832533,49.5616667 104.9017,49.355 105.065866,49.145 L105.1867,49.145 C105.065866,49.2866667 104.980033,49.5775 104.980033,49.8466667 C104.980033,50.1066667 105.042533,50.3291667 105.1842,50.5775 Z M105.385866,50.0325 L105.537533,50.0325 C105.555866,50.1583333 105.675866,50.2383333 105.8467,50.2383333 C106.008366,50.2383333 106.127533,50.1508333 106.127533,50.0316667 C106.127533,49.9291667 106.052533,49.8641667 105.8867,49.8225 L105.732533,49.7825 C105.515033,49.7275 105.420866,49.6291667 105.420866,49.4583333 C105.420866,49.2541667 105.5917,49.1158333 105.845866,49.1158333 C106.078366,49.1158333 106.2517,49.2541667 106.2642,49.4483333 L106.113366,49.4483333 C106.092533,49.325 105.990866,49.2516667 105.840866,49.2516667 C105.680866,49.2516667 105.575033,49.3316667 105.575033,49.4533333 C105.575033,49.5475 105.640866,49.6016667 105.8067,49.6441667 L105.932533,49.6775 C106.1817,49.74 106.2817,49.8366667 106.2817,50.0133333 C106.2817,50.2341667 106.107533,50.375 105.832533,50.375 C105.577533,50.375 105.4017,50.24 105.385866,50.0325 Z M106.870866,49.5591667 C106.727533,49.5591667 106.627533,49.6641667 106.6167,49.8233333 L107.1117,49.8233333 C107.108366,49.6641667 107.013366,49.5591667 106.870866,49.5591667 Z M107.107533,50.1141667 L107.250866,50.1141667 C107.207533,50.2683333 107.0692,50.3625 106.872533,50.3625 C106.623366,50.3625 106.467533,50.1825 106.467533,49.8983333 C106.467533,49.6158333 106.625866,49.4325 106.872533,49.4325 C107.115033,49.4325 107.262533,49.605 107.262533,49.8841667 L107.262533,49.9391667 L106.6167,49.9391667 L106.6167,49.9458333 C106.6242,50.1233333 106.723366,50.2358333 106.875866,50.2358333 C106.9917,50.2358333 107.070033,50.1933333 107.107533,50.1141667 Z M108.230866,49.7233333 L108.085866,49.7233333 C108.062533,49.6341667 107.983366,49.5616667 107.8542,49.5616667 C107.692533,49.5616667 107.590866,49.6908333 107.590866,49.8941667 C107.590866,50.1016667 107.6942,50.2333333 107.8542,50.2333333 C107.975033,50.2333333 108.0592,50.1775 108.085866,50.0758333 L108.230866,50.0758333 C108.205033,50.2408333 108.070866,50.3625 107.855033,50.3625 C107.603366,50.3625 107.442533,50.18 107.442533,49.8941667 C107.442533,49.6141667 107.602533,49.4325 107.8542,49.4325 C108.072533,49.4325 108.205866,49.5633333 108.230866,49.7233333 Z M108.502533,49.2158333 L108.645866,49.2158333 L108.645866,49.4483333 L108.845866,49.4483333 L108.845866,49.5683333 L108.645866,49.5683333 L108.645866,50.0766667 C108.645866,50.1825 108.685866,50.2275 108.7792,50.2275 C108.805033,50.2275 108.8192,50.2266667 108.845866,50.2241667 L108.845866,50.345 C108.817533,50.35 108.790033,50.3533333 108.7617,50.3533333 C108.5767,50.3533333 108.502533,50.285 108.502533,50.1133333 L108.502533,49.5683333 L108.357533,49.5683333 L108.357533,49.4483333 L108.502533,49.4483333 L108.502533,49.2158333 Z M109.4317,50.2333333 C109.6017,50.2333333 109.697533,50.11 109.697533,49.8975 C109.697533,49.6841667 109.6017,49.5616667 109.4317,49.5616667 C109.2617,49.5616667 109.165866,49.6841667 109.165866,49.8975 C109.165866,50.11 109.2617,50.2333333 109.4317,50.2333333 Z M109.4317,50.3625 C109.175866,50.3625 109.017533,50.1858333 109.017533,49.8975 C109.017533,49.6083333 109.175866,49.4325 109.4317,49.4325 C109.687533,49.4325 109.845866,49.6083333 109.845866,49.8975 C109.845866,50.1858333 109.687533,50.3625 109.4317,50.3625 Z M110.070866,50.3466667 L110.070866,49.4483333 L110.207533,49.4483333 L110.207533,49.5816667 L110.220866,49.5816667 C110.247533,49.4941667 110.350866,49.4325 110.470033,49.4325 C110.493366,49.4325 110.523366,49.4341667 110.5417,49.4366667 L110.5417,49.58 C110.530033,49.5766667 110.478366,49.5716667 110.450033,49.5716667 C110.313366,49.5716667 110.2142,49.6633333 110.2142,49.79 L110.2142,50.3466667 L110.070866,50.3466667 Z M111.1942,49.4825 C111.1942,49.2691667 111.355866,49.1158333 111.5792,49.1158333 C111.795033,49.1158333 111.960033,49.2625 111.960033,49.4533333 C111.960033,49.5783333 111.903366,49.6758333 111.705866,49.8875 L111.4167,50.1983333 L111.4167,50.2116667 L111.980033,50.2116667 L111.980033,50.3466667 L111.2017,50.3466667 L111.2017,50.2433333 L111.617533,49.7891667 C111.772533,49.6208333 111.810033,49.5558333 111.810033,49.4591667 C111.810033,49.3391667 111.707533,49.2466667 111.575033,49.2466667 C111.4342,49.2466667 111.3392,49.3408333 111.3392,49.4825 L111.3392,49.4833333 L111.1942,49.4833333 L111.1942,49.4825 Z M112.203366,50.5775 C112.345033,50.3291667 112.407533,50.1066667 112.407533,49.8466667 C112.407533,49.5758333 112.322533,49.2858333 112.2017,49.145 L112.323366,49.145 C112.487533,49.355 112.555866,49.5616667 112.555866,49.8466667 C112.555866,50.1308333 112.4742,50.3966667 112.330866,50.5775 L112.203366,50.5775 Z" id="S2-(Sector-2)-Copy" fill="#999999"></path>
                <path d="M49.3089913,51.6445833 L49.9173246,51.6445833 C49.9464913,51.8883333 50.1923246,52.0445833 50.5464913,52.0445833 C50.8735746,52.0445833 51.1048246,51.88625 51.1048246,51.6591667 C51.1048246,51.4675 50.9548246,51.3570833 50.5860746,51.2779167 L50.194408,51.1945833 C49.6464913,51.08 49.3777413,50.7945833 49.3777413,50.33625 C49.3777413,49.7695833 49.8339913,49.3966667 50.5277413,49.3966667 C51.1902413,49.3966667 51.6589913,49.7675 51.6777413,50.3029167 L51.0860746,50.3029167 C51.056908,50.0654167 50.8360746,49.9070833 50.531908,49.9070833 C50.2173246,49.9070833 50.0089913,50.0529167 50.0089913,50.2820833 C50.0089913,50.4675 50.1527413,50.57375 50.5048246,50.64875 L50.8673246,50.7258333 C51.4714913,50.8529167 51.731908,51.1133333 51.731908,51.58 C51.731908,52.18625 51.2673246,52.5570833 50.513158,52.5570833 C49.7964913,52.5570833 49.331908,52.205 49.3089913,51.6445833 Z M52.9985746,51.1758333 L52.9985746,50.7070833 L53.3652413,50.7070833 C53.650658,50.7070833 53.844408,50.5404167 53.844408,50.2945833 C53.844408,50.0529167 53.656908,49.89875 53.363158,49.89875 C53.0714913,49.89875 52.8777413,50.0633333 52.8610746,50.32375 L52.2798246,50.32375 C52.300658,49.755 52.7235746,49.3966667 53.3798246,49.3966667 C53.9964913,49.3966667 54.4402413,49.7341667 54.4402413,50.2070833 C54.4402413,50.555 54.2214913,50.8258333 53.8860746,50.8945833 L53.8860746,50.9320833 C54.2985746,50.9779167 54.556908,51.2529167 54.556908,51.64875 C54.556908,52.1758333 54.0610746,52.5570833 53.375658,52.5570833 C52.7048246,52.5570833 52.250658,52.18625 52.2235746,51.6195833 L52.825658,51.6195833 C52.844408,51.87375 53.0589913,52.0341667 53.381908,52.0341667 C53.6964913,52.0341667 53.9152413,51.8570833 53.9152413,51.6008333 C53.9152413,51.3383333 53.7089913,51.1758333 53.3714913,51.1758333 L52.9985746,51.1758333 Z M48.4179496,55.2708333 L48.291283,55.2708333 C48.1479496,55.0916667 48.066283,54.8258333 48.066283,54.54 C48.066283,54.255 48.1354496,54.0483333 48.2996163,53.8383333 L48.4204496,53.8383333 C48.2996163,53.98 48.213783,54.2708333 48.213783,54.54 C48.213783,54.8 48.276283,55.0225 48.4179496,55.2708333 Z M48.6196163,54.7258333 L48.771283,54.7258333 C48.7896163,54.8516667 48.9096163,54.9316667 49.0804496,54.9316667 C49.2421163,54.9316667 49.361283,54.8441667 49.361283,54.725 C49.361283,54.6225 49.286283,54.5575 49.1204496,54.5158333 L48.966283,54.4758333 C48.748783,54.4208333 48.6546163,54.3225 48.6546163,54.1516667 C48.6546163,53.9475 48.8254496,53.8091667 49.0796163,53.8091667 C49.3121163,53.8091667 49.4854496,53.9475 49.4979496,54.1416667 L49.3471163,54.1416667 C49.326283,54.0183333 49.2246163,53.945 49.0746163,53.945 C48.9146163,53.945 48.808783,54.025 48.808783,54.1466667 C48.808783,54.2408333 48.8746163,54.295 49.0404496,54.3375 L49.166283,54.3708333 C49.4154496,54.4333333 49.5154496,54.53 49.5154496,54.7066667 C49.5154496,54.9275 49.341283,55.0683333 49.066283,55.0683333 C48.811283,55.0683333 48.6354496,54.9333333 48.6196163,54.7258333 Z M50.1046163,54.2525 C49.961283,54.2525 49.861283,54.3575 49.8504496,54.5166667 L50.3454496,54.5166667 C50.3421163,54.3575 50.2471163,54.2525 50.1046163,54.2525 Z M50.341283,54.8075 L50.4846163,54.8075 C50.441283,54.9616667 50.3029496,55.0558333 50.106283,55.0558333 C49.8571163,55.0558333 49.701283,54.8758333 49.701283,54.5916667 C49.701283,54.3091667 49.8596163,54.1258333 50.106283,54.1258333 C50.348783,54.1258333 50.496283,54.2983333 50.496283,54.5775 L50.496283,54.6325 L49.8504496,54.6325 L49.8504496,54.6391667 C49.8579496,54.8166667 49.9571163,54.9291667 50.1096163,54.9291667 C50.2254496,54.9291667 50.303783,54.8866667 50.341283,54.8075 Z M51.4646163,54.4166667 L51.3196163,54.4166667 C51.296283,54.3275 51.2171163,54.255 51.0879496,54.255 C50.926283,54.255 50.8246163,54.3841667 50.8246163,54.5875 C50.8246163,54.795 50.9279496,54.9266667 51.0879496,54.9266667 C51.208783,54.9266667 51.2929496,54.8708333 51.3196163,54.7691667 L51.4646163,54.7691667 C51.438783,54.9341667 51.3046163,55.0558333 51.088783,55.0558333 C50.8371163,55.0558333 50.676283,54.8733333 50.676283,54.5875 C50.676283,54.3075 50.836283,54.1258333 51.0879496,54.1258333 C51.306283,54.1258333 51.4396163,54.2566667 51.4646163,54.4166667 Z M51.736283,53.9091667 L51.8796163,53.9091667 L51.8796163,54.1416667 L52.0796163,54.1416667 L52.0796163,54.2616667 L51.8796163,54.2616667 L51.8796163,54.77 C51.8796163,54.8758333 51.9196163,54.9208333 52.0129496,54.9208333 C52.038783,54.9208333 52.0529496,54.92 52.0796163,54.9175 L52.0796163,55.0383333 C52.051283,55.0433333 52.023783,55.0466667 51.9954496,55.0466667 C51.8104496,55.0466667 51.736283,54.9783333 51.736283,54.8066667 L51.736283,54.2616667 L51.591283,54.2616667 L51.591283,54.1416667 L51.736283,54.1416667 L51.736283,53.9091667 Z M52.6654496,54.9266667 C52.8354496,54.9266667 52.931283,54.8033333 52.931283,54.5908333 C52.931283,54.3775 52.8354496,54.255 52.6654496,54.255 C52.4954496,54.255 52.3996163,54.3775 52.3996163,54.5908333 C52.3996163,54.8033333 52.4954496,54.9266667 52.6654496,54.9266667 Z M52.6654496,55.0558333 C52.4096163,55.0558333 52.251283,54.8791667 52.251283,54.5908333 C52.251283,54.3016667 52.4096163,54.1258333 52.6654496,54.1258333 C52.921283,54.1258333 53.0796163,54.3016667 53.0796163,54.5908333 C53.0796163,54.8791667 52.921283,55.0558333 52.6654496,55.0558333 Z M53.3046163,55.04 L53.3046163,54.1416667 L53.441283,54.1416667 L53.441283,54.275 L53.4546163,54.275 C53.481283,54.1875 53.5846163,54.1258333 53.703783,54.1258333 C53.7271163,54.1258333 53.7571163,54.1275 53.7754496,54.13 L53.7754496,54.2733333 C53.763783,54.27 53.7121163,54.265 53.683783,54.265 C53.5471163,54.265 53.4479496,54.3566667 53.4479496,54.4833333 L53.4479496,55.04 L53.3046163,55.04 Z M54.681283,54.4858333 L54.681283,54.3575 L54.8271163,54.3575 C54.963783,54.3575 55.0604496,54.2691667 55.0604496,54.1441667 C55.0604496,54.0216667 54.9679496,53.94 54.8296163,53.94 C54.691283,53.94 54.6004496,54.0166667 54.5879496,54.1458333 L54.4421163,54.1458333 C54.4571163,53.9375 54.606283,53.8091667 54.8354496,53.8091667 C55.0454496,53.8091667 55.2129496,53.9491667 55.2129496,54.1241667 C55.2129496,54.2675 55.133783,54.3725 55.0021163,54.4041667 L55.0021163,54.4175 C55.1654496,54.4383333 55.2646163,54.5516667 55.2646163,54.7158333 C55.2646163,54.9141667 55.078783,55.0683333 54.841283,55.0683333 C54.5971163,55.0683333 54.428783,54.9325 54.4179496,54.7266667 L54.5629496,54.7266667 C54.576283,54.855 54.6846163,54.9375 54.8396163,54.9375 C54.9979496,54.9375 55.1104496,54.8433333 55.1104496,54.7116667 C55.1104496,54.5725 55.0046163,54.4858333 54.833783,54.4858333 L54.681283,54.4858333 Z M55.476283,55.2708333 C55.6179496,55.0225 55.6804496,54.8 55.6804496,54.54 C55.6804496,54.2691667 55.5954496,53.9791667 55.4746163,53.8383333 L55.596283,53.8383333 C55.7604496,54.0483333 55.828783,54.255 55.828783,54.54 C55.828783,54.8241667 55.7471163,55.09 55.603783,55.2708333 L55.476283,55.2708333 Z" id="S3-(Sector-3)-Copy" fill="#666666"></path>
                <g id="Group-Copy-8" transform="translate(38.400000, 27.733333)">
                    <circle id="Oval-Copy-2" fill-opacity="0.7" fill="#FFFFFF" cx="2.56" cy="2.56" r="2.56"></circle>
                    <circle id="Oval-Copy-2" fill-opacity="0.2" fill="#FFB819" cx="2.56" cy="2.56" r="2.56"></circle>
                    <circle id="Oval" stroke="#FFB819" stroke-width="0.5" fill="#FFFFFF" cx="2.56" cy="2.56" r="1.70666667"></circle>
                    <circle id="Oval-Copy" fill="#FFB819" cx="2.56" cy="2.56" r="1"></circle>
                </g>
                <g id="Group-Copy-8" transform="translate(18.773333, 8.960000)">
                    <circle id="Oval-Copy-2" fill-opacity="0.7" fill="#FFFFFF" cx="2.56" cy="2.56" r="2.56"></circle>
                    <circle id="Oval-Copy-2" fill-opacity="0.2" fill="#FFB819" cx="2.56" cy="2.56" r="2.56"></circle>
                    <circle id="Oval" stroke="#FFB819" stroke-width="0.5" fill="#FFFFFF" cx="2.56" cy="2.56" r="1.70666667"></circle>
                    <circle id="Oval-Copy" fill="#FFB819" cx="2.56" cy="2.56" r="1"></circle>
                </g>
            </g>
        </g>
    </g>
</svg>