<?xml version="1.0" encoding="UTF-8"?>
<svg width="160px" height="96px" viewBox="0 0 160 96" version="1.1" xmlns="http://www.w3.org/2000/svg" xmlns:xlink="http://www.w3.org/1999/xlink">
    <!-- Generator: Sketch 58 (84663) - https://sketch.com -->
    <title>circuit-gs-Silverstone-L-Eng</title>
    <desc>Created with Sketch.</desc>
    <defs>
        <linearGradient x1="50%" y1="23.3035083%" x2="50%" y2="112.667183%" id="linearGradient-1">
            <stop stop-color="#1B94E2" offset="0%"></stop>
            <stop stop-color="#40D8AB" offset="100%"></stop>
        </linearGradient>
    </defs>
    <g id="circuit-gs-Silverstone-L-Eng" stroke="none" stroke-width="1" fill="none" fill-rule="evenodd">
        <g id="Great-Britain-circuit" transform="translate(9.000000, 8.053333)">
            <g id="Group-5" transform="translate(0.386667, 0.480000)">
                <path d="M9.75405671,34.7440759 L9.20975282,34.0868765 C11.5510958,32.1477358 13.1511,30.7767238 14.0052796,29.9781319 C15.7404369,28.3558939 22.6043027,20.9795649 23.7383271,19.3933286 C24.2666705,18.6542991 25.0551718,17.4800196 26.9411062,14.6420214 C29.1679721,11.2909762 29.9326685,10.1537909 30.3727944,9.56677022 C30.4554474,9.45653127 31.0327072,8.59707971 31.2461101,8.31554178 C32.8257094,6.23161025 34.8278706,5.68005046 37.9598,7.39822862 C43.9996742,10.711707 60.7116783,19.4851866 61.7895222,19.8469805 C63.8602433,20.5420479 65.5247549,22.3733277 66.029137,25.4997635 C66.5084286,28.4706739 68.6285568,33.537709 69.7716789,35.0766311 L69.0866544,35.5854721 C67.8613544,33.9359185 65.687645,28.7408261 65.1866963,25.635673 C64.734701,22.8339599 63.2981715,21.2535037 61.5179778,20.655956 C60.3645226,20.2687821 43.6836565,11.5116493 37.5493667,8.14637454 C34.8082972,6.64262229 33.2620648,7.06858181 31.9261598,8.83101266 C31.7319692,9.08720411 31.1563767,9.94417338 31.055539,10.0786663 C30.6307764,10.6451961 29.8582171,11.7940742 27.6565343,15.1072234 C25.7575116,17.9649173 24.9693769,19.1386508 24.4325062,19.8896079 C23.2595954,21.5302372 16.3608939,28.9440028 14.5880538,30.6014713 C13.7177889,31.4151016 12.1079518,32.7945393 9.75405671,34.7440759 Z" id="Path-59" fill="#E6E6E6" fill-rule="nonzero"></path>
                <path d="M141.111956,49.3563236 C142.314121,54.2155937 140.96152,56.4537363 134.553022,60.2369341 C129.395722,63.281499 118.42804,65.9722462 106.451451,68.0076998 C102.865409,68.6239487 101.432773,69.3625853 99.172116,71.2809968 C98.8934284,71.5174415 98.8283472,71.5724456 98.7654072,71.6253861 C96.8346211,73.2560242 95.3297511,73.995644 93.6982107,74.1137954 C93.0593655,74.1600587 92.4217785,74.1132178 91.6382619,73.9837643 C91.1918366,73.9100054 89.4308865,73.5549458 89.5278956,73.5736747 C88.8723084,73.4471047 88.2981807,73.3514324 87.6940668,73.2732775 C83.7389359,72.4126465 81.7834604,73.037606 79.9252139,74.8982977 C79.7841008,75.0395965 79.6434717,75.1862983 79.4581229,75.3841233 C79.4039339,75.4419598 79.342085,75.5082492 79.2254965,75.6332398 C79.1301419,75.7353469 79.0594449,75.8105782 79.0090757,75.8630848 C76.2224739,78.9274452 73.3045286,79.8968692 70.4926399,79.0143954 C68.5058883,78.3908799 66.8457021,76.9574186 65.4611922,75.1159902 C64.6178366,73.5195802 63.855036,72.455274 63.0429549,71.6604876 C61.9012322,70.54308 61.1066939,70.1607076 58.8427454,69.4102008 C58.3610445,69.2505152 58.0491189,69.1406651 57.7272874,69.0122643 C55.5649372,68.1495534 14.1912454,54.345379 5.59171857,51.5873819 C1.75893428,50.3581506 -0.0141347313,48.2856084 0.262551522,45.6920438 C0.442339875,44.0067677 1.42849279,42.4647379 2.75232575,41.1122488 C2.90620164,40.9550421 4.84616936,39.0604805 5.55890192,38.3220527 C6.8633079,36.9706206 8.04957057,35.5987128 9.21304238,34.0461836 C11.2611361,29.6929462 15.4174518,24.0940864 20.7313597,17.9163055 C21.9590144,16.4890731 22.3094115,15.6149883 22.1805244,15.1936224 C22.0995207,14.9287996 21.7212265,14.6362401 20.8348053,14.2196431 C20.7245957,14.1678472 20.2622599,13.9558493 20.1441643,13.9002911 C17.7835846,12.7942075 16.7208748,11.2714308 16.9084127,9.38551039 C17.0364113,8.09833118 17.5913884,7.03903192 18.8914727,5.12413103 C20.45468,3.09085037 22.4482406,1.94563 24.768622,1.51816562 C26.8638543,1.13217857 29.016131,1.34091012 31.2624627,1.92987711 C31.7724741,2.06359728 32.0223744,2.13874084 32.7716677,2.37335806 C33.790385,2.69233679 37.7865677,4.7467079 49.8390286,11.0555487 C59.3248996,16.0209182 62.7185473,17.7816918 65.1007872,18.9442285 C68.4686866,20.5877686 70.2948004,23.4909433 70.8662975,27.2150097 C71.2475264,29.6992249 71.0665589,32.1156531 70.5492508,34.855048 C70.3337308,40.1782657 73.0177456,43.6331193 78.885052,47.3405158 C79.6966052,47.8533149 82.5552949,49.5607071 83.2830659,50.0127208 C86.0553971,51.3684549 86.8096532,53.3765066 85.1262221,55.2224396 C84.1358264,56.3084384 82.4064591,57.2405797 79.703453,58.3502396 C79.2799384,58.5241042 78.8402663,58.6992724 78.3093931,58.9068136 C78.0679437,59.0012066 77.2860214,59.3047276 77.0528729,59.3955184 C75.383926,60.1809165 74.9331999,60.5444522 74.8623935,61.2253939 C74.9636336,61.28166 75.1133054,61.3457305 75.3070998,61.408698 C75.9781312,61.6267291 77.0009409,61.7773973 78.2633339,61.8444295 C80.6445907,61.9708727 83.6969754,61.7862601 85.9684502,61.4036532 C89.6634034,60.7812759 92.2233055,58.9738433 93.7669606,55.9252933 C103.030271,40.276995 108.13556,31.3251926 108.999816,29.2329396 C109.252429,28.6213964 109.547033,28.0359536 109.955607,27.3048381 C110.103455,27.0402751 110.622255,26.1353488 110.708674,25.9822591 C112.283659,23.1922089 112.940257,21.0794788 112.940257,17.5185384 C112.940257,15.3359031 112.558752,14.3370374 111.937287,13.9847521 C111.403196,13.681996 110.703438,13.6616877 108.589146,13.8450793 C107.525446,13.9373436 106.932087,13.9742781 106.234665,13.9742781 C103.725773,13.9742781 102.080791,12.9702867 101.476921,11.1077447 C101.0395,9.75858915 101.18954,8.16263344 101.749728,6.13035758 C103.147665,2.69753673 105.759448,1.45533012 109.336893,1.92808573 C111.797561,2.25326051 113.798943,2.99826983 119.105308,5.30449599 C119.522594,5.48585477 119.812976,5.61168828 120.103488,5.736832 C121.393077,6.29234684 122.367979,6.69532479 123.300488,7.05113766 C129.060288,9.24887652 132.46443,13.5628458 133.406781,19.8368377 C137.870924,36.7973826 140.437584,46.6304418 141.111956,49.3563236 Z M90.0131768,71.0600912 C93.3752796,71.7091905 92.7915635,71.6127483 93.5133072,71.5604817 C94.5312234,71.4867672 95.5615192,70.9803931 97.1134533,69.6697077 C97.4151681,69.4144511 97.4151681,69.4144511 97.5157142,69.3290918 C100.103599,67.1329929 101.942128,66.1850865 106.0202,65.4842859 C117.644834,63.508646 128.476745,60.8512082 133.251604,58.0324138 C138.784315,54.7662282 139.514326,53.5582831 138.626876,49.9711227 C137.956211,47.2602253 135.38324,37.4031798 130.913181,20.4203757 C130.09072,14.8749196 127.294255,11.3150478 122.38786,9.44293833 C121.415464,9.07190571 120.410542,8.65651912 119.090692,8.08796863 C118.797105,7.96150052 118.504512,7.83470855 118.0849,7.65233916 C113.035949,5.45798889 111.124981,4.74663614 109.001507,4.46602122 C106.529598,4.13936098 105.071603,4.81633819 104.196844,6.88684859 C103.776947,8.43467956 103.673894,9.58341208 103.912128,10.3182065 C104.14532,11.0374524 104.762727,11.4142781 106.234665,11.4142781 C106.837185,11.4142781 107.374179,11.3808521 108.367925,11.2946555 C111.082435,11.0592016 112.015303,11.0862751 113.19973,11.7576828 C114.793682,12.6612351 115.500257,14.5112059 115.500257,17.5185384 C115.500257,21.5652483 114.714423,24.0938191 112.937999,27.2407144 C112.844804,27.4058078 112.329774,28.3041576 112.190329,28.5536848 C111.826674,29.2044198 111.573964,29.7066112 111.3659,30.2103078 C110.429913,32.476212 105.359481,41.3673624 96.0312941,57.1202531 C94.1090986,60.8884512 90.857356,63.1762289 86.3936662,63.928092 C83.9398069,64.3414197 80.6995292,64.5373964 78.1275908,64.4008281 C76.6617282,64.3229918 75.4366129,64.1425224 74.516017,63.8434029 C73.1715754,63.4065678 72.2916847,62.6651768 72.2916847,61.4522768 C72.2916847,59.3175279 73.3136435,58.322242 76.0039514,57.0598604 C76.249115,56.9611175 77.123053,56.6219274 77.3772777,56.5225399 C77.8958305,56.3198152 78.3229048,56.1496662 78.7312381,55.9820339 C81.0770541,55.0190106 82.5914639,54.2027329 83.2346862,53.4974202 C83.3462559,53.3750807 83.4091978,53.2786993 83.4333565,53.2170439 C83.3386571,53.0201619 82.9254206,52.6802193 82.1096376,52.2888251 C81.4061191,51.856463 78.389979,50.0559291 77.517574,49.5046794 C74.5575519,47.6343193 72.4698282,45.9327998 70.8695829,43.8601715 C68.8383426,41.2293211 67.831092,38.2027083 67.9958493,34.6477838 C68.4977553,31.9519011 68.6674106,29.7634295 68.3359195,27.6033228 C67.8828712,24.6511084 66.5208783,22.485798 63.9780572,21.2448974 C61.5626908,20.0661949 58.1740723,18.3080307 48.671196,13.3337598 C37.3597834,7.4128195 32.7804936,5.05868265 32.0067084,4.81639658 C31.296414,4.59399063 31.0709281,4.52618834 30.6132004,4.40617645 C28.6983382,3.90411765 26.8960377,3.72932739 25.2324248,4.03580082 C23.522913,4.35072981 22.1006162,5.16326263 20.9872703,6.59480291 C19.9521039,8.12215992 19.5252516,8.94089871 19.4558485,9.63883018 C19.3862938,10.3382868 19.7798793,10.9022627 21.141501,11.5399618 C21.3370525,11.63234 21.7987857,11.8440616 21.9236851,11.9027614 C23.4336331,12.6124013 24.2646461,13.2550778 24.628563,14.4448185 C25.0762201,15.9083281 24.4136813,17.5610674 22.6721559,19.5857095 C17.4582417,25.647241 13.3748944,31.1568709 11.478251,35.245663 L11.3436038,35.4716836 C10.0858821,37.160145 8.80586031,38.6442609 7.40085909,40.0999148 C6.65493328,40.8727326 4.70634108,42.7757168 4.5817965,42.9029573 C3.62723798,43.8781785 2.91112504,44.9979516 2.808107,45.9636083 C2.67725835,47.1901399 3.58990538,48.2569339 6.37352528,49.1496825 C15.0473178,51.9314977 56.4332203,65.7397462 58.675934,66.6345196 C58.939218,66.7395618 59.2112193,66.8353519 59.6482856,66.9802409 C62.2611773,67.8464237 63.3328523,68.3621683 64.8335614,69.8309171 C65.8302164,70.8063466 66.7355294,72.0610834 67.5703167,73.6606232 C68.6492252,75.0729989 69.9118398,76.1490077 71.2591977,76.571858 C73.0613699,77.1374457 74.9651993,76.5049397 77.1345124,74.1198698 C77.1979812,74.0531263 77.2639545,73.9829217 77.3544939,73.8859707 C77.4695423,73.762629 77.5336402,73.6939291 77.5899792,73.6337979 C77.7923405,73.4178151 77.9501518,73.2531892 78.1138307,73.0892949 C80.5638353,70.6360665 83.3880129,69.7270441 88.077483,70.7415998 C88.7191427,70.8258658 89.3286916,70.9279421 90.0131768,71.0600912 Z" id="Path-23" fill="#EBEBEB" fill-rule="nonzero"></path>
                <path d="M141.111956,48.0763236 C142.314121,52.9355937 140.96152,55.1737363 134.553022,58.9569341 C129.395722,62.001499 118.42804,64.6922462 106.451451,66.7276998 C102.865409,67.3439487 101.432773,68.0825853 99.172116,70.0009968 C98.8934284,70.2374415 98.8283472,70.2924456 98.7654072,70.3453861 C96.8346211,71.9760242 95.3297511,72.715644 93.6982107,72.8337954 C93.0593655,72.8800587 92.4217785,72.8332178 91.6382619,72.7037643 C91.1918366,72.6300054 89.4308865,72.2749458 89.5278956,72.2936747 C88.8723084,72.1671047 88.2981807,72.0714324 87.6940668,71.9932775 C83.7389359,71.1326465 81.7834604,71.757606 79.9252139,73.6182977 C79.7841008,73.7595965 79.6434717,73.9062983 79.4581229,74.1041233 C79.4039339,74.1619598 79.342085,74.2282492 79.2254965,74.3532398 C79.1301419,74.4553469 79.0594449,74.5305782 79.0090757,74.5830848 C76.2224739,77.6474452 73.3045286,78.6168692 70.4926399,77.7343954 C68.5058883,77.1108799 66.8457021,75.6774186 65.4611922,73.8359902 C64.6178366,72.2395802 63.855036,71.175274 63.0429549,70.3804876 C61.9012322,69.26308 61.1066939,68.8807076 58.8427454,68.1302008 C58.3610445,67.9705152 58.0491189,67.8606651 57.7272874,67.7322643 C55.5649372,66.8695534 14.1912454,53.065379 5.59171857,50.3073819 C1.75893428,49.0781506 -0.0141347313,47.0056084 0.262551522,44.4120438 C0.442339875,42.7267677 1.42849279,41.1847379 2.75232575,39.8322488 C2.90620164,39.6750421 4.84616936,37.7804805 5.55890192,37.0420527 C6.8633079,35.6906206 8.04957057,34.3187128 9.21304238,32.7661836 C11.2611361,28.4129462 15.4174518,22.8140864 20.7313597,16.6363055 C21.9590144,15.2090731 22.3094115,14.3349883 22.1805244,13.9136224 C22.0995207,13.6487996 21.7212265,13.3562401 20.8348053,12.9396431 C20.7245957,12.8878472 20.2622599,12.6758493 20.1441643,12.6202911 C17.7835846,11.5142075 16.7208748,9.99143078 16.9084127,8.10551039 C17.0364113,6.81833118 17.5913884,5.75903192 18.8914727,3.84413103 C20.45468,1.81085037 22.4482406,0.665629998 24.768622,0.238165622 C26.8638543,-0.147821433 29.016131,0.060910122 31.2624627,0.649877114 C31.7724741,0.783597282 32.0223744,0.858740839 32.7716677,1.09335806 C33.790385,1.41233679 37.7865677,3.4667079 49.8390286,9.77554873 C59.3248996,14.7409182 62.7185473,16.5016918 65.1007872,17.6642285 C68.4686866,19.3077686 70.2948004,22.2109433 70.8662975,25.9350097 C71.2475264,28.4192249 71.0665589,30.8356531 70.5492508,33.575048 C70.3337308,38.8982657 73.0177456,42.3531193 78.885052,46.0605158 C79.6966052,46.5733149 82.5552949,48.2807071 83.2830659,48.7327208 C86.0553971,50.0884549 86.8096532,52.0965066 85.1262221,53.9424396 C84.1358264,55.0284384 82.4064591,55.9605797 79.703453,57.0702396 C79.2799384,57.2441042 78.8402663,57.4192724 78.3093931,57.6268136 C78.0679437,57.7212066 77.2860214,58.0247276 77.0528729,58.1155184 C75.383926,58.9009165 74.9331999,59.2644522 74.8623935,59.9453939 C74.9636336,60.00166 75.1133054,60.0657305 75.3070998,60.128698 C75.9781312,60.3467291 77.0009409,60.4973973 78.2633339,60.5644295 C80.6445907,60.6908727 83.6969754,60.5062601 85.9684502,60.1236532 C89.6634034,59.5012759 92.2233055,57.6938433 93.7669606,54.6452933 C103.030271,38.996995 108.13556,30.0451926 108.999816,27.9529396 C109.252429,27.3413964 109.547033,26.7559536 109.955607,26.0248381 C110.103455,25.7602751 110.622255,24.8553488 110.708674,24.7022591 C112.283659,21.9122089 112.940257,19.7994788 112.940257,16.2385384 C112.940257,14.0559031 112.558752,13.0570374 111.937287,12.7047521 C111.403196,12.401996 110.703438,12.3816877 108.589146,12.5650793 C107.525446,12.6573436 106.932087,12.6942781 106.234665,12.6942781 C103.725773,12.6942781 102.080791,11.6902867 101.476921,9.82774472 C101.0395,8.47858915 101.18954,6.88263344 101.749728,4.85035758 C103.147665,1.41753673 105.759448,0.175330119 109.336893,0.648085734 C111.797561,0.973260514 113.798943,1.71826983 119.105308,4.02449599 C119.522594,4.20585477 119.812976,4.33168828 120.103488,4.456832 C121.393077,5.01234684 122.367979,5.41532479 123.300488,5.77113766 C129.060288,7.96887652 132.46443,12.2828458 133.406781,18.5568377 C137.870924,35.5173826 140.437584,45.3504418 141.111956,48.0763236 Z M90.0131768,69.7800912 C93.3752796,70.4291905 92.7915635,70.3327483 93.5133072,70.2804817 C94.5312234,70.2067672 95.5615192,69.7003931 97.1134533,68.3897077 C97.4151681,68.1344511 97.4151681,68.1344511 97.5157142,68.0490918 C100.103599,65.8529929 101.942128,64.9050865 106.0202,64.2042859 C117.644834,62.228646 128.476745,59.5712082 133.251604,56.7524138 C138.784315,53.4862282 139.514326,52.2782831 138.626876,48.6911227 C137.956211,45.9802253 135.38324,36.1231798 130.913181,19.1403757 C130.09072,13.5949196 127.294255,10.0350478 122.38786,8.16293833 C121.415464,7.79190571 120.410542,7.37651912 119.090692,6.80796863 C118.797105,6.68150052 118.504512,6.55470855 118.0849,6.37233916 C113.035949,4.17798889 111.124981,3.46663614 109.001507,3.18602122 C106.529598,2.85936098 105.071603,3.53633819 104.196844,5.60684859 C103.776947,7.15467956 103.673894,8.30341208 103.912128,9.03820647 C104.14532,9.75745243 104.762727,10.1342781 106.234665,10.1342781 C106.837185,10.1342781 107.374179,10.1008521 108.367925,10.0146555 C111.082435,9.77920158 112.015303,9.8062751 113.19973,10.4776828 C114.793682,11.3812351 115.500257,13.2312059 115.500257,16.2385384 C115.500257,20.2852483 114.714423,22.8138191 112.937999,25.9607144 C112.844804,26.1258078 112.329774,27.0241576 112.190329,27.2736848 C111.826674,27.9244198 111.573964,28.4266112 111.3659,28.9303078 C110.429913,31.196212 105.359481,40.0873624 96.0312941,55.8402531 C94.1090986,59.6084512 90.857356,61.8962289 86.3936662,62.648092 C83.9398069,63.0614197 80.6995292,63.2573964 78.1275908,63.1208281 C76.6617282,63.0429918 75.4366129,62.8625224 74.516017,62.5634029 C73.1715754,62.1265678 72.2916847,61.3851768 72.2916847,60.1722768 C72.2916847,58.0375279 73.3136435,57.042242 76.0039514,55.7798604 C76.249115,55.6811175 77.123053,55.3419274 77.3772777,55.2425399 C77.8958305,55.0398152 78.3229048,54.8696662 78.7312381,54.7020339 C81.0770541,53.7390106 82.5914639,52.9227329 83.2346862,52.2174202 C83.3462559,52.0950807 83.4091978,51.9986993 83.4333565,51.9370439 C83.3386571,51.7401619 82.9254206,51.4002193 82.1096376,51.0088251 C81.4061191,50.576463 78.389979,48.7759291 77.517574,48.2246794 C74.5575519,46.3543193 72.4698282,44.6527998 70.8695829,42.5801715 C68.8383426,39.9493211 67.831092,36.9227083 67.9958493,33.3677838 C68.4977553,30.6719011 68.6674106,28.4834295 68.3359195,26.3233228 C67.8828712,23.3711084 66.5208783,21.205798 63.9780572,19.9648974 C61.5626908,18.7861949 58.1740723,17.0280307 48.671196,12.0537598 C37.3597834,6.1328195 32.7804936,3.77868265 32.0067084,3.53639658 C31.296414,3.31399063 31.0709281,3.24618834 30.6132004,3.12617645 C28.6983382,2.62411765 26.8960377,2.44932739 25.2324248,2.75580082 C23.522913,3.07072981 22.1006162,3.88326263 20.9872703,5.31480291 C19.9521039,6.84215992 19.5252516,7.66089871 19.4558485,8.35883018 C19.3862938,9.05828675 19.7798793,9.62226272 21.141501,10.2599618 C21.3370525,10.35234 21.7987857,10.5640616 21.9236851,10.6227614 C23.4336331,11.3324013 24.2646461,11.9750778 24.628563,13.1648185 C25.0762201,14.6283281 24.4136813,16.2810674 22.6721559,18.3057095 C17.4582417,24.367241 13.3748944,29.8768709 11.478251,33.965663 L11.3436038,34.1916836 C10.0858821,35.880145 8.80586031,37.3642609 7.40085909,38.8199148 C6.65493328,39.5927326 4.70634108,41.4957168 4.5817965,41.6229573 C3.62723798,42.5981785 2.91112504,43.7179516 2.808107,44.6836083 C2.67725835,45.9101399 3.58990538,46.9769339 6.37352528,47.8696825 C15.0473178,50.6514977 56.4332203,64.4597462 58.675934,65.3545196 C58.939218,65.4595618 59.2112193,65.5553519 59.6482856,65.7002409 C62.2611773,66.5664237 63.3328523,67.0821683 64.8335614,68.5509171 C65.8302164,69.5263466 66.7355294,70.7810834 67.5703167,72.3806232 C68.6492252,73.7929989 69.9118398,74.8690077 71.2591977,75.291858 C73.0613699,75.8574457 74.9651993,75.2249397 77.1345124,72.8398698 C77.1979812,72.7731263 77.2639545,72.7029217 77.3544939,72.6059707 C77.4695423,72.482629 77.5336402,72.4139291 77.5899792,72.3537979 C77.7923405,72.1378151 77.9501518,71.9731892 78.1138307,71.8092949 C80.5638353,69.3560665 83.3880129,68.4470441 88.077483,69.4615998 C88.7191427,69.5458658 89.3286916,69.6479421 90.0131768,69.7800912 Z" id="Path-23" fill="#F2F2F2" fill-rule="nonzero"></path>
                <path d="M140.490686,48.2300234 C141.614172,52.7712661 140.417218,54.7518593 134.227668,58.4058041 C129.165978,61.3939263 118.232239,64.0763462 106.343058,66.0969455 C102.634589,66.7342332 101.10048,67.5251872 98.7580156,69.5130205 C98.4801479,69.74877 98.4156671,69.8032666 98.3534405,69.8556072 C96.5163456,71.4071164 95.1301191,72.0884248 93.6519848,72.1954669 C93.0704545,72.2375797 92.4804443,72.1942341 91.742589,72.0723248 C91.3092396,72.0007263 89.5631069,71.6486543 89.6492159,71.6652788 C88.9815255,71.5363722 88.3947472,71.4385918 87.7761801,71.358567 C83.6566641,70.459495 81.4809213,71.1548508 79.4723681,73.166047 C79.3256136,73.3129947 79.1806889,73.4641775 78.991087,73.6665419 C78.9363605,73.7249522 78.8739493,73.7918442 78.7577459,73.9164225 C78.6635951,74.0172406 78.594079,74.0912152 78.5355771,74.1525049 C75.9081553,77.0418188 73.2437389,77.9270133 70.6842793,77.123761 C68.8508022,76.5483487 67.2842699,75.1957514 65.9727333,73.4513792 C65.1566106,71.8879593 64.3539836,70.7680849 63.4906065,69.923095 C62.2591372,68.7178521 61.3953147,68.3021366 59.0441304,67.5227108 C58.5735882,67.3667244 58.2716437,67.2603893 57.964449,67.1378281 C55.782008,66.2671016 14.4052635,52.4619086 5.78717025,49.697957 C2.21667705,48.5528464 0.65871354,46.7317413 0.898940392,44.4799349 C1.05953617,42.9745637 1.97817909,41.5380981 3.20969344,40.2799259 C3.3562365,40.1302108 5.29836034,38.2335435 6.01939122,37.4865182 C7.35607194,36.1016478 8.57158251,34.6941133 9.76470583,33.097177 C11.7701574,28.8050851 15.9152122,23.216834 21.2165587,17.0536565 C22.5726811,15.4770716 23.0011136,14.4083233 22.7925341,13.7264214 C22.640802,13.2303692 22.1493281,12.8502804 21.1070253,12.3604227 C20.9931432,12.3069008 20.5309581,12.094972 20.4166091,12.0411765 C18.2826582,11.0412213 17.3872295,9.75814477 17.5452717,8.16884034 C17.6587448,7.02773167 18.1830903,6.02689986 19.4434318,4.1725785 C20.8613167,2.3317303 22.7139936,1.26744197 24.8845727,0.867574421 C26.8719002,0.501465773 28.9366828,0.701712004 31.1001471,1.26895195 C31.5970876,1.39924505 31.8408843,1.47255329 32.5804279,1.70411769 C33.5379122,2.00392325 37.6798716,4.1332358 49.5422248,10.3425651 C59.0371928,15.3126963 62.4295832,17.0728176 64.8201047,18.2393957 C67.9817346,19.782276 69.6918181,22.5009845 70.233703,26.0320879 C70.6036211,28.4425981 70.4233087,30.808714 69.9117676,33.5016848 C69.6665697,39.1335367 72.4854013,42.7738042 78.5431825,46.6015567 C79.3752116,47.127294 82.3059916,48.8773373 82.9730298,49.2935911 C85.4269508,50.4820441 86.0112771,52.0221637 84.6533381,53.5111848 C83.7497358,54.502012 82.0741079,55.4051874 79.4603992,56.4781882 C79.04068,56.6504947 78.6041573,56.8244081 78.0763643,57.0307452 C77.8193522,57.1312223 76.9447924,57.4706538 76.8195529,57.5180187 C74.7380697,58.4947195 74.2116847,59.007366 74.2116847,60.1722768 C74.2116847,60.3126462 74.4687301,60.5292312 75.1093291,60.7373743 C75.8427516,60.9756775 76.9161378,61.1337959 78.2293981,61.2035292 C80.6583253,61.3325036 83.7576833,61.14505 86.0747542,60.7547629 C89.9656862,60.099375 92.700279,58.1686011 94.3582216,54.8974234 C103.61067,39.2729244 108.708973,30.3333726 109.591337,28.1972817 C109.832813,27.6127001 110.116943,27.0480702 110.514288,26.3370498 C110.660035,26.0762457 111.177892,25.1729636 111.266005,25.0168729 C112.89135,22.1376115 113.580257,19.9209212 113.580257,16.2385384 C113.580257,13.8497288 113.117484,12.6380868 112.252898,12.1479848 C111.556223,11.7530657 110.798187,11.7310662 108.533841,11.9274733 C107.487629,12.0182207 106.908361,12.0542781 106.234665,12.0542781 C103.985012,12.0542781 102.596924,11.2070781 102.085723,9.63036016 C101.697125,8.43179265 101.837256,6.94123032 102.366717,5.02042796 C103.6206,1.95101963 105.945136,0.845432681 109.253046,1.28256961 C111.629416,1.59660442 113.608195,2.3331996 118.850206,4.61145678 C119.268074,4.79306822 119.559008,4.91914134 119.850289,5.04461616 C121.147444,5.60338991 122.129851,6.00947002 123.072331,6.36908783 C128.624366,8.48755111 131.877699,12.6193523 132.778967,18.6859539 C137.247312,35.662355 139.817017,45.5069868 140.490686,48.2300234 Z M89.8918565,70.4084871 C89.8275478,70.3960714 91.5440457,70.7421681 91.9512433,70.8094458 C92.5977759,70.9162667 93.0926325,70.9526217 93.5595331,70.9188101 C94.7308553,70.8339864 95.8797947,70.2693008 97.5253634,68.8795342 C97.8294266,68.6222932 97.8294266,68.6222932 97.9298147,68.537068 C100.435892,66.410391 102.172948,65.5148021 106.127432,64.8352385 C117.840636,62.8445461 128.706489,60.1787809 133.576958,57.3035439 C139.328616,53.9081053 140.214274,52.4426107 139.248146,48.5374229 C138.576328,45.821868 136.003444,35.9651519 131.532101,18.9774693 C130.690618,13.27512 127.741245,9.52059658 122.616017,7.56498816 C121.653593,7.19776048 120.656176,6.78547605 119.343891,6.22018447 C119.051072,6.09404746 118.759032,5.96749511 118.340002,5.78537836 C113.226698,3.56305913 111.293126,2.84329223 109.085353,2.55153735 C106.329999,2.18742008 104.583544,3.00990524 103.590369,5.39817127 C103.130933,7.07733316 103.014527,8.34483661 103.303326,9.23559104 C103.629188,10.240661 104.503489,10.7742781 106.234665,10.7742781 C106.86091,10.7742781 107.411995,10.739975 108.42323,10.6522615 C110.987686,10.4298231 111.862276,10.4552053 112.884119,11.0344501 C114.234949,11.8001857 114.860257,13.4373802 114.860257,16.2385384 C114.860257,20.1638059 114.106732,22.5884166 112.380668,25.6461006 C112.289166,25.8081931 111.773195,26.708187 111.631649,26.9614731 C111.256764,27.6323033 110.99358,28.1553075 110.774379,28.6859658 C109.855798,30.9097326 104.771468,39.8247831 95.479883,55.5126438 C93.6542261,59.1181166 90.5702518,61.2955731 86.2873622,62.0169823 C83.879099,62.4226298 80.6857946,62.6157654 78.1615266,62.4817285 C74.8774556,62.3073465 72.9316847,61.6751279 72.9316847,60.1722768 C72.9316847,58.3608073 73.7884523,57.5264012 76.3149653,56.3424436 C76.4810075,56.2776296 77.3551527,55.938359 77.6103066,55.8386083 C78.1319395,55.6346795 78.5621632,55.4632757 78.9742918,55.2940853 C81.4094053,54.2944029 82.9775545,53.4491593 83.7075702,52.6486751 C84.406061,51.8827588 84.1784743,51.291558 82.3864811,50.4318002 C81.7381603,50.0292432 78.7229176,48.229245 77.8594435,47.6836385 C74.957133,45.8497449 72.9217483,44.1908823 71.3761626,42.1890489 C69.4355618,39.6755941 68.477601,36.7970885 68.6351631,33.3974136 C69.1389245,30.7263774 69.3135076,28.4743385 68.968514,26.2262445 C68.4858535,23.0810671 67.0078304,20.7312907 64.2587397,19.3897302 C61.8516549,18.2150691 58.4617791,16.4562526 48.9680001,11.4867436 C37.4664795,5.4662916 33.0329665,3.18709619 32.1979482,2.92563695 C31.4779041,2.70017818 31.2463146,2.63054057 30.775516,2.50710162 C28.7777864,1.98331577 26.8879918,1.80004018 25.1164741,2.12639202 C23.2454997,2.47106592 21.6745903,3.37349015 20.4799612,4.9226041 C19.366494,6.56263574 18.9034118,7.44653265 18.8189896,8.29550023 C18.719939,9.29157276 19.2808056,10.0952489 20.8649354,10.83712 C21.0683543,10.9332173 21.5302382,11.145008 21.6514651,11.2019818 C23.0055314,11.838361 23.7233648,12.3935082 24.0165533,13.3520194 C24.3845179,14.5549932 23.8000145,16.0130688 22.1869569,17.8883585 C16.935576,23.9934475 12.8269761,29.5371506 10.8976718,33.6963532 C9.58997151,35.4745397 8.32746954,36.9383422 6.9403698,38.3754493 C6.2027423,39.1396696 4.25630622,41.0405481 4.12442881,41.1752802 C3.07755168,42.2448184 2.29392875,43.4701556 2.17171813,44.6157172 C2.00441008,46.184007 3.1321626,47.5022381 6.1780736,48.4791074 C14.8332997,51.254968 56.2161495,65.062198 58.4387723,65.9489558 C58.7166933,66.0598376 58.9986756,66.1591427 59.4469005,66.3077309 C61.9725564,67.1449947 62.9749473,67.6273963 64.3859098,69.0083097 C65.3419338,69.9439735 66.2159828,71.1594002 67.0278289,72.7245739 C68.1866294,74.254126 69.5545857,75.4276661 71.0675582,75.9024923 C73.1221596,76.5473015 75.2795179,75.8305661 77.5982954,73.2808974 C77.6633471,73.2124892 77.7305014,73.141028 77.8222446,73.042788 C77.937678,72.9190341 78.0012136,72.8509368 78.0570151,72.7913792 C78.2551233,72.5799359 78.4086391,72.419791 78.5666765,72.2615456 C80.8711917,69.953998 83.4815814,69.1165668 87.967927,70.0927198 C88.6052552,70.1758095 89.209771,70.2768012 89.8918565,70.4084871 Z M87.9951165,70.098653 L87.9404067,70.089146 C87.9495882,70.0903338 87.9587625,70.0915253 87.9679301,70.0927205 C87.9769825,70.0946901 87.9860456,70.0966679 87.9951165,70.098653 Z" id="Path-23" fill="url(#linearGradient-1)" fill-rule="nonzero"></path>
                <g id="Group-Copy-8" transform="translate(96.000000, 66.133333)">
                    <circle id="Oval-Copy-2" fill-opacity="0.7" fill="#FFFFFF" cx="2.56" cy="2.56" r="2.56"></circle>
                    <circle id="Oval-Copy-2" fill-opacity="0.2" fill="#FFB819" cx="2.56" cy="2.56" r="2.56"></circle>
                    <circle id="Oval" stroke="#FFB819" stroke-width="0.5" fill="#FFFFFF" cx="2.56" cy="2.56" r="1.70666667"></circle>
                    <circle id="Oval-Copy" fill="#FFB819" cx="2.56" cy="2.56" r="1"></circle>
                </g>
                <g id="Group-Copy-8" transform="translate(77.653333, 45.653333)">
                    <circle id="Oval-Copy-2" fill-opacity="0.7" fill="#FFFFFF" cx="2.56" cy="2.56" r="2.56"></circle>
                    <circle id="Oval-Copy-2" fill-opacity="0.2" fill="#FFB819" cx="2.56" cy="2.56" r="2.56"></circle>
                    <circle id="Oval" stroke="#FFB819" stroke-width="0.5" fill="#FFFFFF" cx="2.56" cy="2.56" r="1.70666667"></circle>
                    <circle id="Oval-Copy" fill="#FFB819" cx="2.56" cy="2.56" r="1"></circle>
                </g>
                <path d="M54.7603891,66.013101 L55.1750954,64.8021432 C56.3756064,65.2132719 57.8752464,65.7212205 58.4377251,65.9222961 L58.0068527,67.1275964 C57.4510542,66.9289089 55.9558956,66.4225158 54.7603891,66.013101 Z" id="Path" fill="#FFA019" fill-rule="nonzero"></path>
                <path d="M5.78717025,49.697957 L6.1780736,48.4791074 C13.0399661,50.6798191 45.5056352,61.4884156 55.2958234,64.8435021 L54.8808598,66.0543717 C45.0982682,62.7018886 12.6405111,51.8959261 5.78717025,49.697957 Z" id="Path" fill="#FF9219" fill-rule="nonzero"></path>
                <path d="M21.2165587,17.0536565 C22.5726811,15.4770716 23.0011136,14.4083233 22.7925341,13.7264214 C22.640802,13.2303692 22.1493281,12.8502804 21.1070253,12.3604227 C20.9931432,12.3069008 20.5309581,12.094972 20.4166091,12.0411765 C18.2826582,11.0412213 17.3872295,9.75814477 17.5452717,8.16884034 C17.6587448,7.02773167 18.1830903,6.02689986 19.4434318,4.1725785 C20.8613167,2.3317303 22.7139936,1.26744197 24.8845727,0.867574421 C26.8719002,0.501465773 28.9366828,0.701712004 31.1001471,1.26895195 C31.5970876,1.39924505 31.8408843,1.47255329 32.5804279,1.70411769 C33.3308925,1.93910167 36.6705504,3.62639846 43.1541666,7.00405827 L42.5627837,8.1392526 C36.2923202,4.87263541 32.8309259,3.12383365 32.1979482,2.92563695 C31.4779041,2.70017818 31.2463146,2.63054057 30.775516,2.50710162 C28.7777864,1.98331577 26.8879918,1.80004018 25.1164741,2.12639202 C23.2454997,2.47106592 21.6745903,3.37349015 20.4799612,4.9226041 C19.366494,6.56263574 18.9034118,7.44653265 18.8189896,8.29550023 C18.719939,9.29157276 19.2808056,10.0952489 20.8649354,10.83712 C21.0683543,10.9332173 21.5302382,11.145008 21.6514651,11.2019818 C23.0055314,11.838361 23.7233648,12.3935082 24.0165533,13.3520194 C24.3845179,14.5549932 23.8000145,16.0130688 22.1869569,17.8883585 C16.935576,23.9934475 12.8269761,29.5371506 10.8976718,33.6963532 C9.58997151,35.4745397 8.32746954,36.9383422 6.9403698,38.3754493 C6.2027423,39.1396696 4.25630622,41.0405481 4.12442881,41.1752802 C3.07755168,42.2448184 2.29392875,43.4701556 2.17171813,44.6157172 C2.00441008,46.184007 3.1321626,47.5022381 6.1780736,48.4791074 L5.78717025,49.697957 C2.21667705,48.5528464 0.65871354,46.7317413 0.898940392,44.4799349 C1.05953617,42.9745637 1.97817909,41.5380981 3.20969344,40.2799259 C3.3562365,40.1302108 5.29836034,38.2335435 6.01939122,37.4865182 C7.35607194,36.1016478 8.57158251,34.6941133 9.76470583,33.097177 C11.7701574,28.8050851 15.9152122,23.216834 21.2165587,17.0536565 Z" id="Path" fill-opacity="0.37" fill="#000000" fill-rule="nonzero"></path>
                <path d="M140.490686,48.2300234 C141.614172,52.7712661 140.417218,54.7518593 134.227668,58.4058041 C129.165978,61.3939263 118.232239,64.0763462 106.343058,66.0969455 C102.634589,66.7342332 101.10048,67.5251872 98.7580156,69.5130205 C98.6579436,69.5979774 98.6579436,69.5979774 98.5571266,69.68351 C98.4801479,69.74877 98.4156671,69.8032666 98.3534405,69.8556072 C96.5163456,71.4071164 95.1301191,72.0884248 93.6519848,72.1954669 C93.0704545,72.2375797 92.4804443,72.1942341 91.742589,72.0723248 C91.3092396,72.0007263 89.5631069,71.6486543 89.6492159,71.6652788 C88.9815255,71.5363722 88.3947472,71.4385918 87.7761801,71.358567 C83.6566641,70.459495 81.4809213,71.1548508 79.4723681,73.166047 C79.3256136,73.3129947 79.1806889,73.4641775 78.991087,73.6665419 C78.9363605,73.7249522 78.8739493,73.7918442 78.7577459,73.9164225 C78.6635951,74.0172406 78.594079,74.0912152 78.5355771,74.1525049 C75.9081553,77.0418188 73.2437389,77.9270133 70.6842793,77.123761 C68.8508022,76.5483487 67.2842699,75.1957514 65.9727333,73.4513792 C65.1566106,71.8879593 64.3539836,70.7680849 63.4906065,69.923095 C62.2591372,68.7178521 61.3953147,68.3021366 59.0441304,67.5227108 C58.5735882,67.3667244 58.2716437,67.2603893 57.964449,67.1378281 L58.4387723,65.9489558 C58.7166933,66.0598376 58.9986756,66.1591427 59.4469005,66.3077309 C61.9725564,67.1449947 62.9749473,67.6273963 64.3859098,69.0083097 C65.3419338,69.9439735 66.2159828,71.1594002 67.0278289,72.7245739 C68.1866294,74.254126 69.5545857,75.4276661 71.0675582,75.9024923 C73.1221596,76.5473015 75.2795179,75.8305661 77.5982954,73.2808974 C77.6633471,73.2124892 77.7305014,73.141028 77.8222446,73.042788 C77.937678,72.9190341 78.0012136,72.8509368 78.0570151,72.7913792 C78.2551233,72.5799359 78.4086391,72.419791 78.5666765,72.2615456 C80.8711923,69.9539974 83.4815826,69.1165664 87.9679301,70.0927205 C88.6052552,70.1758095 89.209771,70.2768012 89.8918565,70.4084871 C89.8275478,70.3960714 91.5440457,70.7421681 91.9512433,70.8094458 C92.5977759,70.9162667 93.0926325,70.9526217 93.5595331,70.9188101 C94.7308553,70.8339864 95.8797947,70.2693008 97.5253634,68.8795342 C97.590307,68.8249088 97.653587,68.771427 97.7294032,68.7071525 C97.8294266,68.6222932 97.8294266,68.6222932 97.9298147,68.537068 C100.435892,66.410391 102.172948,65.5148021 106.127432,64.8352385 C117.840636,62.8445461 128.706489,60.1787809 133.576958,57.3035439 C139.328616,53.9081053 140.214274,52.4426107 139.248146,48.5374229 C138.576328,45.821868 136.003444,35.9651519 131.532101,18.9774693 C130.690618,13.27512 127.741245,9.52059658 122.616017,7.56498816 C121.653593,7.19776048 120.656176,6.78547605 119.343891,6.22018447 C119.051072,6.09404746 118.759032,5.96749511 118.340002,5.78537836 C113.226698,3.56305913 111.293126,2.84329223 109.085353,2.55153735 C106.329999,2.18742008 104.583544,3.00990524 103.590369,5.39817127 C103.130933,7.07733316 103.014527,8.34483661 103.303326,9.23559104 C103.629188,10.240661 104.503489,10.7742781 106.234665,10.7742781 C106.86091,10.7742781 107.411995,10.739975 108.42323,10.6522615 C110.987686,10.4298231 111.862276,10.4552053 112.884119,11.0344501 C114.234949,11.8001857 114.860257,13.4373802 114.860257,16.2385384 C114.860257,17.6222997 114.74971,18.8733843 114.535414,20.0256757 L113.276991,19.7916421 C113.476623,18.7182012 113.580257,17.5453518 113.580257,16.2385384 C113.580257,13.8497288 113.117484,12.6380868 112.252898,12.1479848 C111.556223,11.7530657 110.798187,11.7310662 108.533841,11.9274733 C107.487629,12.0182207 106.908361,12.0542781 106.234665,12.0542781 C103.985012,12.0542781 102.596924,11.2070781 102.085723,9.63036016 C101.697125,8.43179265 101.837256,6.94123032 102.366717,5.02042796 C103.6206,1.95101963 105.945136,0.845432681 109.253046,1.28256961 C111.629416,1.59660442 113.608195,2.3331996 118.850206,4.61145678 C119.268074,4.79306822 119.559008,4.91914134 119.850289,5.04461616 C121.147444,5.60338991 122.129851,6.00947002 123.072331,6.36908783 C128.624366,8.48755111 131.877699,12.6193523 132.778967,18.6859539 C137.247312,35.662355 139.817017,45.5069868 140.490686,48.2300234 Z" id="Path" fill-opacity="0.2" fill="#000000" fill-rule="nonzero"></path>
                <path d="M103.897085,38.6117473 L105.006458,39.2502545 C102.576635,43.4719465 99.3944163,48.9049466 95.4611114,55.547058 C94.7469956,56.7659108 94.1612576,57.6333617 93.6904465,58.1613722 L92.735083,57.3095033 C93.1369006,56.8588684 93.6819253,56.0517121 94.3582216,54.8974234 C98.2905632,48.2569251 101.470254,42.8282411 103.897085,38.6117473 Z" id="Path" fill="#FFB819" fill-rule="nonzero"></path>
                <path d="M113.312465,19.5939863 L114.573722,19.8122325 C114.197661,21.9855106 113.557992,23.5604966 112.380668,25.6461006 C112.289166,25.8081931 111.773195,26.708187 111.631649,26.9614731 C111.256764,27.6323033 110.99358,28.1553075 110.774379,28.6859658 C110.237697,29.9852032 108.291119,33.5520297 104.99861,39.2730776 L103.889213,38.634611 C107.145986,32.9756582 109.085622,29.4215529 109.591337,28.1972817 C109.832813,27.6127001 110.116943,27.0480702 110.514288,26.3370498 C110.660035,26.0762457 111.177892,25.1729636 111.266005,25.0168729 C112.377439,23.0479937 112.965212,21.6007844 113.312465,19.5939863 Z" id="Path" fill="#FFA019" fill-rule="nonzero"></path>
                <g id="Group-6" transform="translate(42.880000, 7.680000) rotate(28.000000) translate(-42.880000, -7.680000) translate(41.813333, 6.613333)">
                    <rect id="Rectangle-2" fill="#000000" x="0" y="0" width="1" height="1"></rect>
                    <rect id="Rectangle-2-Copy-4" fill="#FFFFFF" x="0" y="0.64" width="1" height="1"></rect>
                    <rect id="Rectangle-2-Copy-7" fill="#000000" x="0" y="1.28" width="1" height="1"></rect>
                    <rect id="Rectangle-2-Copy" fill="#FFFFFF" x="0.64" y="0" width="1" height="1"></rect>
                    <rect id="Rectangle-2-Copy-5" fill="#000000" x="0.64" y="0.64" width="1" height="1"></rect>
                    <rect id="Rectangle-2-Copy-9" fill="#FFFFFF" x="0.64" y="1.28" width="1" height="1"></rect>
                    <rect id="Rectangle-2-Copy-3" fill="#000000" x="1.28" y="0" width="1" height="1"></rect>
                    <rect id="Rectangle-2-Copy-6" fill="#FFFFFF" x="1.28" y="0.64" width="1" height="1"></rect>
                    <rect id="Rectangle-2-Copy-10" fill="#000000" x="1.28" y="1.28" width="1" height="1"></rect>
                </g>
                <g id="Group-Copy-7" transform="translate(10.240000, 48.640000)">
                    <circle id="Oval-Copy-2" fill-opacity="0.7" fill="#FFFFFF" cx="2.56" cy="2.56" r="2.56"></circle>
                    <circle id="Oval-Copy-2" fill-opacity="0.2" fill="#D0021B" cx="2.56" cy="2.56" r="2.56"></circle>
                    <circle id="Oval" stroke="#D0021B" stroke-width="0.5" fill="#FFFFFF" cx="2.56" cy="2.56" r="1.70666667"></circle>
                    <circle id="Oval-Copy" fill="#D0021B" cx="2.56" cy="2.56" r="1"></circle>
                </g>
                <path d="M77.3746163,30.31125 L77.9829496,30.31125 C78.0121163,30.555 78.2579496,30.71125 78.6121163,30.71125 C78.9391996,30.71125 79.1704496,30.5529167 79.1704496,30.3258333 C79.1704496,30.1341667 79.0204496,30.02375 78.6516996,29.9445833 L78.260033,29.86125 C77.7121163,29.7466667 77.4433663,29.46125 77.4433663,29.0029167 C77.4433663,28.43625 77.8996163,28.0633333 78.5933663,28.0633333 C79.2558663,28.0633333 79.7246163,28.4341667 79.7433663,28.9695833 L79.1516996,28.9695833 C79.122533,28.7320833 78.9016996,28.57375 78.597533,28.57375 C78.2829496,28.57375 78.0746163,28.7195833 78.0746163,28.94875 C78.0746163,29.1341667 78.2183663,29.2404167 78.5704496,29.3154167 L78.9329496,29.3925 C79.5371163,29.5195833 79.797533,29.78 79.797533,30.2466667 C79.797533,30.8529167 79.3329496,31.22375 78.578783,31.22375 C77.8621163,31.22375 77.397533,30.8716667 77.3746163,30.31125 Z M81.0579496,31.1466667 L81.0579496,28.7529167 L81.0204496,28.7529167 L80.2829496,29.26125 L80.2829496,28.6758333 L81.060033,28.1404167 L81.6871163,28.1404167 L81.6871163,31.1466667 L81.0579496,31.1466667 Z M76.2883663,33.9375 L76.1616996,33.9375 C76.0183663,33.7583333 75.9366996,33.4925 75.9366996,33.2066667 C75.9366996,32.9216667 76.0058663,32.715 76.170033,32.505 L76.2908663,32.505 C76.170033,32.6466667 76.0841996,32.9375 76.0841996,33.2066667 C76.0841996,33.4666667 76.1466996,33.6891667 76.2883663,33.9375 Z M76.490033,33.3925 L76.6416996,33.3925 C76.660033,33.5183333 76.780033,33.5983333 76.9508663,33.5983333 C77.112533,33.5983333 77.2316996,33.5108333 77.2316996,33.3916667 C77.2316996,33.2891667 77.1566996,33.2241667 76.9908663,33.1825 L76.8366996,33.1425 C76.6191996,33.0875 76.525033,32.9891667 76.525033,32.8183333 C76.525033,32.6141667 76.6958663,32.4758333 76.950033,32.4758333 C77.182533,32.4758333 77.3558663,32.6141667 77.3683663,32.8083333 L77.217533,32.8083333 C77.1966996,32.685 77.095033,32.6116667 76.945033,32.6116667 C76.785033,32.6116667 76.6791996,32.6916667 76.6791996,32.8133333 C76.6791996,32.9075 76.745033,32.9616667 76.9108663,33.0041667 L77.0366996,33.0375 C77.2858663,33.1 77.3858663,33.1966667 77.3858663,33.3733333 C77.3858663,33.5941667 77.2116996,33.735 76.9366996,33.735 C76.6816996,33.735 76.5058663,33.6 76.490033,33.3925 Z M77.975033,32.9191667 C77.8316996,32.9191667 77.7316996,33.0241667 77.7208663,33.1833333 L78.2158663,33.1833333 C78.212533,33.0241667 78.117533,32.9191667 77.975033,32.9191667 Z M78.2116996,33.4741667 L78.355033,33.4741667 C78.3116996,33.6283333 78.1733663,33.7225 77.9766996,33.7225 C77.727533,33.7225 77.5716996,33.5425 77.5716996,33.2583333 C77.5716996,32.9758333 77.730033,32.7925 77.9766996,32.7925 C78.2191996,32.7925 78.3666996,32.965 78.3666996,33.2441667 L78.3666996,33.2991667 L77.7208663,33.2991667 L77.7208663,33.3058333 C77.7283663,33.4833333 77.827533,33.5958333 77.980033,33.5958333 C78.0958663,33.5958333 78.1741996,33.5533333 78.2116996,33.4741667 Z M79.335033,33.0833333 L79.190033,33.0833333 C79.1666996,32.9941667 79.087533,32.9216667 78.9583663,32.9216667 C78.7966996,32.9216667 78.695033,33.0508333 78.695033,33.2541667 C78.695033,33.4616667 78.7983663,33.5933333 78.9583663,33.5933333 C79.0791996,33.5933333 79.1633663,33.5375 79.190033,33.4358333 L79.335033,33.4358333 C79.3091996,33.6008333 79.175033,33.7225 78.9591996,33.7225 C78.707533,33.7225 78.5466996,33.54 78.5466996,33.2541667 C78.5466996,32.9741667 78.7066996,32.7925 78.9583663,32.7925 C79.1766996,32.7925 79.310033,32.9233333 79.335033,33.0833333 Z M79.6066996,32.5758333 L79.750033,32.5758333 L79.750033,32.8083333 L79.950033,32.8083333 L79.950033,32.9283333 L79.750033,32.9283333 L79.750033,33.4366667 C79.750033,33.5425 79.790033,33.5875 79.8833663,33.5875 C79.9091996,33.5875 79.9233663,33.5866667 79.950033,33.5841667 L79.950033,33.705 C79.9216996,33.71 79.8941996,33.7133333 79.8658663,33.7133333 C79.6808663,33.7133333 79.6066996,33.645 79.6066996,33.4733333 L79.6066996,32.9283333 L79.4616996,32.9283333 L79.4616996,32.8083333 L79.6066996,32.8083333 L79.6066996,32.5758333 Z M80.5358663,33.5933333 C80.7058663,33.5933333 80.8016996,33.47 80.8016996,33.2575 C80.8016996,33.0441667 80.7058663,32.9216667 80.5358663,32.9216667 C80.3658663,32.9216667 80.270033,33.0441667 80.270033,33.2575 C80.270033,33.47 80.3658663,33.5933333 80.5358663,33.5933333 Z M80.5358663,33.7225 C80.280033,33.7225 80.1216996,33.5458333 80.1216996,33.2575 C80.1216996,32.9683333 80.280033,32.7925 80.5358663,32.7925 C80.7916996,32.7925 80.950033,32.9683333 80.950033,33.2575 C80.950033,33.5458333 80.7916996,33.7225 80.5358663,33.7225 Z M81.175033,33.7066667 L81.175033,32.8083333 L81.3116996,32.8083333 L81.3116996,32.9416667 L81.325033,32.9416667 C81.3516996,32.8541667 81.455033,32.7925 81.5741996,32.7925 C81.597533,32.7925 81.627533,32.7941667 81.6458663,32.7966667 L81.6458663,32.94 C81.6341996,32.9366667 81.582533,32.9316667 81.5541996,32.9316667 C81.417533,32.9316667 81.3183663,33.0233333 81.3183663,33.15 L81.3183663,33.7066667 L81.175033,33.7066667 Z M82.5933663,33.7066667 L82.5933663,32.6708333 L82.580033,32.6708333 L82.2741996,32.8925 L82.2741996,32.7341667 L82.5941996,32.5041667 L82.7433663,32.5041667 L82.7433663,33.7066667 L82.5933663,33.7066667 Z M83.072533,33.9375 C83.2141996,33.6891667 83.2766996,33.4666667 83.2766996,33.2066667 C83.2766996,32.9358333 83.1916996,32.6458333 83.0708663,32.505 L83.192533,32.505 C83.3566996,32.715 83.425033,32.9216667 83.425033,33.2066667 C83.425033,33.4908333 83.3433663,33.7566667 83.200033,33.9375 L83.072533,33.9375 Z" id="S1-(Sector-1)-Copy" fill="#C6C6C6"></path>
                <path d="M125.736491,49.51125 L126.344825,49.51125 C126.373991,49.755 126.619825,49.91125 126.973991,49.91125 C127.301075,49.91125 127.532325,49.7529167 127.532325,49.5258333 C127.532325,49.3341667 127.382325,49.22375 127.013575,49.1445833 L126.621908,49.06125 C126.073991,48.9466667 125.805241,48.66125 125.805241,48.2029167 C125.805241,47.63625 126.261491,47.2633333 126.955241,47.2633333 C127.617741,47.2633333 128.086491,47.6341667 128.105241,48.1695833 L127.513575,48.1695833 C127.484408,47.9320833 127.263575,47.77375 126.959408,47.77375 C126.644825,47.77375 126.436491,47.9195833 126.436491,48.14875 C126.436491,48.3341667 126.580241,48.4404167 126.932325,48.5154167 L127.294825,48.5925 C127.898991,48.7195833 128.159408,48.98 128.159408,49.4466667 C128.159408,50.0529167 127.694825,50.42375 126.940658,50.42375 C126.223991,50.42375 125.759408,50.0716667 125.736491,49.51125 Z M128.657325,48.2404167 C128.657325,47.6591667 129.103158,47.2633333 129.753158,47.2633333 C130.380241,47.2633333 130.817741,47.62375 130.817741,48.1404167 C130.817741,48.4675 130.640658,48.74875 130.119825,49.2383333 L129.544825,49.78625 L129.544825,49.82375 L130.861491,49.82375 L130.861491,50.3466667 L128.692741,50.3466667 L128.692741,49.9070833 L129.673991,48.9466667 C130.096908,48.5341667 130.203158,48.3779167 130.203158,48.1820833 C130.203158,47.9404167 130.007325,47.7695833 129.732325,47.7695833 C129.440658,47.7695833 129.240658,47.96125 129.240658,48.2383333 L129.240658,48.2508333 L128.657325,48.2508333 L128.657325,48.2404167 Z M124.810866,53.1375 L124.6842,53.1375 C124.540866,52.9583333 124.4592,52.6925 124.4592,52.4066667 C124.4592,52.1216667 124.528366,51.915 124.692533,51.705 L124.813366,51.705 C124.692533,51.8466667 124.6067,52.1375 124.6067,52.4066667 C124.6067,52.6666667 124.6692,52.8891667 124.810866,53.1375 Z M125.012533,52.5925 L125.1642,52.5925 C125.182533,52.7183333 125.302533,52.7983333 125.473366,52.7983333 C125.635033,52.7983333 125.7542,52.7108333 125.7542,52.5916667 C125.7542,52.4891667 125.6792,52.4241667 125.513366,52.3825 L125.3592,52.3425 C125.1417,52.2875 125.047533,52.1891667 125.047533,52.0183333 C125.047533,51.8141667 125.218366,51.6758333 125.472533,51.6758333 C125.705033,51.6758333 125.878366,51.8141667 125.890866,52.0083333 L125.740033,52.0083333 C125.7192,51.885 125.617533,51.8116667 125.467533,51.8116667 C125.307533,51.8116667 125.2017,51.8916667 125.2017,52.0133333 C125.2017,52.1075 125.267533,52.1616667 125.433366,52.2041667 L125.5592,52.2375 C125.808366,52.3 125.908366,52.3966667 125.908366,52.5733333 C125.908366,52.7941667 125.7342,52.935 125.4592,52.935 C125.2042,52.935 125.028366,52.8 125.012533,52.5925 Z M126.497533,52.1191667 C126.3542,52.1191667 126.2542,52.2241667 126.243366,52.3833333 L126.738366,52.3833333 C126.735033,52.2241667 126.640033,52.1191667 126.497533,52.1191667 Z M126.7342,52.6741667 L126.877533,52.6741667 C126.8342,52.8283333 126.695866,52.9225 126.4992,52.9225 C126.250033,52.9225 126.0942,52.7425 126.0942,52.4583333 C126.0942,52.1758333 126.252533,51.9925 126.4992,51.9925 C126.7417,51.9925 126.8892,52.165 126.8892,52.4441667 L126.8892,52.4991667 L126.243366,52.4991667 L126.243366,52.5058333 C126.250866,52.6833333 126.350033,52.7958333 126.502533,52.7958333 C126.618366,52.7958333 126.6967,52.7533333 126.7342,52.6741667 Z M127.857533,52.2833333 L127.712533,52.2833333 C127.6892,52.1941667 127.610033,52.1216667 127.480866,52.1216667 C127.3192,52.1216667 127.217533,52.2508333 127.217533,52.4541667 C127.217533,52.6616667 127.320866,52.7933333 127.480866,52.7933333 C127.6017,52.7933333 127.685866,52.7375 127.712533,52.6358333 L127.857533,52.6358333 C127.8317,52.8008333 127.697533,52.9225 127.4817,52.9225 C127.230033,52.9225 127.0692,52.74 127.0692,52.4541667 C127.0692,52.1741667 127.2292,51.9925 127.480866,51.9925 C127.6992,51.9925 127.832533,52.1233333 127.857533,52.2833333 Z M128.1292,51.7758333 L128.272533,51.7758333 L128.272533,52.0083333 L128.472533,52.0083333 L128.472533,52.1283333 L128.272533,52.1283333 L128.272533,52.6366667 C128.272533,52.7425 128.312533,52.7875 128.405866,52.7875 C128.4317,52.7875 128.445866,52.7866667 128.472533,52.7841667 L128.472533,52.905 C128.4442,52.91 128.4167,52.9133333 128.388366,52.9133333 C128.203366,52.9133333 128.1292,52.845 128.1292,52.6733333 L128.1292,52.1283333 L127.9842,52.1283333 L127.9842,52.0083333 L128.1292,52.0083333 L128.1292,51.7758333 Z M129.058366,52.7933333 C129.228366,52.7933333 129.3242,52.67 129.3242,52.4575 C129.3242,52.2441667 129.228366,52.1216667 129.058366,52.1216667 C128.888366,52.1216667 128.792533,52.2441667 128.792533,52.4575 C128.792533,52.67 128.888366,52.7933333 129.058366,52.7933333 Z M129.058366,52.9225 C128.802533,52.9225 128.6442,52.7458333 128.6442,52.4575 C128.6442,52.1683333 128.802533,51.9925 129.058366,51.9925 C129.3142,51.9925 129.472533,52.1683333 129.472533,52.4575 C129.472533,52.7458333 129.3142,52.9225 129.058366,52.9225 Z M129.697533,52.9066667 L129.697533,52.0083333 L129.8342,52.0083333 L129.8342,52.1416667 L129.847533,52.1416667 C129.8742,52.0541667 129.977533,51.9925 130.0967,51.9925 C130.120033,51.9925 130.150033,51.9941667 130.168366,51.9966667 L130.168366,52.14 C130.1567,52.1366667 130.105033,52.1316667 130.0767,52.1316667 C129.940033,52.1316667 129.840866,52.2233333 129.840866,52.35 L129.840866,52.9066667 L129.697533,52.9066667 Z M130.820866,52.0425 C130.820866,51.8291667 130.982533,51.6758333 131.205866,51.6758333 C131.4217,51.6758333 131.5867,51.8225 131.5867,52.0133333 C131.5867,52.1383333 131.530033,52.2358333 131.332533,52.4475 L131.043366,52.7583333 L131.043366,52.7716667 L131.6067,52.7716667 L131.6067,52.9066667 L130.828366,52.9066667 L130.828366,52.8033333 L131.2442,52.3491667 C131.3992,52.1808333 131.4367,52.1158333 131.4367,52.0191667 C131.4367,51.8991667 131.3342,51.8066667 131.2017,51.8066667 C131.060866,51.8066667 130.965866,51.9008333 130.965866,52.0425 L130.965866,52.0433333 L130.820866,52.0433333 L130.820866,52.0425 Z M131.830033,53.1375 C131.9717,52.8891667 132.0342,52.6666667 132.0342,52.4066667 C132.0342,52.1358333 131.9492,51.8458333 131.828366,51.705 L131.950033,51.705 C132.1142,51.915 132.182533,52.1216667 132.182533,52.4066667 C132.182533,52.6908333 132.100866,52.9566667 131.957533,53.1375 L131.830033,53.1375 Z" id="S2-(Sector-2)-Copy" fill="#999999"></path>
                <path d="M17.735658,38.8445833 L18.3439913,38.8445833 C18.373158,39.0883333 18.6189913,39.2445833 18.973158,39.2445833 C19.3002413,39.2445833 19.5314913,39.08625 19.5314913,38.8591667 C19.5314913,38.6675 19.3814913,38.5570833 19.0127413,38.4779167 L18.6210746,38.3945833 C18.073158,38.28 17.804408,37.9945833 17.804408,37.53625 C17.804408,36.9695833 18.260658,36.5966667 18.954408,36.5966667 C19.616908,36.5966667 20.085658,36.9675 20.104408,37.5029167 L19.5127413,37.5029167 C19.4835746,37.2654167 19.2627413,37.1070833 18.9585746,37.1070833 C18.6439913,37.1070833 18.435658,37.2529167 18.435658,37.4820833 C18.435658,37.6675 18.579408,37.77375 18.9314913,37.84875 L19.2939913,37.9258333 C19.898158,38.0529167 20.1585746,38.3133333 20.1585746,38.78 C20.1585746,39.38625 19.6939913,39.7570833 18.9398246,39.7570833 C18.223158,39.7570833 17.7585746,39.405 17.735658,38.8445833 Z M21.4252413,38.3758333 L21.4252413,37.9070833 L21.791908,37.9070833 C22.0773246,37.9070833 22.2710746,37.7404167 22.2710746,37.4945833 C22.2710746,37.2529167 22.0835746,37.09875 21.7898246,37.09875 C21.498158,37.09875 21.304408,37.2633333 21.2877413,37.52375 L20.7064913,37.52375 C20.7273246,36.955 21.1502413,36.5966667 21.8064913,36.5966667 C22.423158,36.5966667 22.866908,36.9341667 22.866908,37.4070833 C22.866908,37.755 22.648158,38.0258333 22.3127413,38.0945833 L22.3127413,38.1320833 C22.7252413,38.1779167 22.9835746,38.4529167 22.9835746,38.84875 C22.9835746,39.3758333 22.4877413,39.7570833 21.8023246,39.7570833 C21.1314913,39.7570833 20.6773246,39.38625 20.6502413,38.8195833 L21.2523246,38.8195833 C21.2710746,39.07375 21.485658,39.2341667 21.8085746,39.2341667 C22.123158,39.2341667 22.341908,39.0570833 22.341908,38.8008333 C22.341908,38.5383333 22.135658,38.3758333 21.798158,38.3758333 L21.4252413,38.3758333 Z M16.8446163,42.4708333 L16.7179496,42.4708333 C16.5746163,42.2916667 16.4929496,42.0258333 16.4929496,41.74 C16.4929496,41.455 16.5621163,41.2483333 16.726283,41.0383333 L16.8471163,41.0383333 C16.726283,41.18 16.6404496,41.4708333 16.6404496,41.74 C16.6404496,42 16.7029496,42.2225 16.8446163,42.4708333 Z M17.046283,41.9258333 L17.1979496,41.9258333 C17.216283,42.0516667 17.336283,42.1316667 17.5071163,42.1316667 C17.668783,42.1316667 17.7879496,42.0441667 17.7879496,41.925 C17.7879496,41.8225 17.7129496,41.7575 17.5471163,41.7158333 L17.3929496,41.6758333 C17.1754496,41.6208333 17.081283,41.5225 17.081283,41.3516667 C17.081283,41.1475 17.2521163,41.0091667 17.506283,41.0091667 C17.738783,41.0091667 17.9121163,41.1475 17.9246163,41.3416667 L17.773783,41.3416667 C17.7529496,41.2183333 17.651283,41.145 17.501283,41.145 C17.341283,41.145 17.2354496,41.225 17.2354496,41.3466667 C17.2354496,41.4408333 17.301283,41.495 17.4671163,41.5375 L17.5929496,41.5708333 C17.8421163,41.6333333 17.9421163,41.73 17.9421163,41.9066667 C17.9421163,42.1275 17.7679496,42.2683333 17.4929496,42.2683333 C17.2379496,42.2683333 17.0621163,42.1333333 17.046283,41.9258333 Z M18.531283,41.4525 C18.3879496,41.4525 18.2879496,41.5575 18.2771163,41.7166667 L18.7721163,41.7166667 C18.768783,41.5575 18.673783,41.4525 18.531283,41.4525 Z M18.7679496,42.0075 L18.911283,42.0075 C18.8679496,42.1616667 18.7296163,42.2558333 18.5329496,42.2558333 C18.283783,42.2558333 18.1279496,42.0758333 18.1279496,41.7916667 C18.1279496,41.5091667 18.286283,41.3258333 18.5329496,41.3258333 C18.7754496,41.3258333 18.9229496,41.4983333 18.9229496,41.7775 L18.9229496,41.8325 L18.2771163,41.8325 L18.2771163,41.8391667 C18.2846163,42.0166667 18.383783,42.1291667 18.536283,42.1291667 C18.6521163,42.1291667 18.7304496,42.0866667 18.7679496,42.0075 Z M19.891283,41.6166667 L19.746283,41.6166667 C19.7229496,41.5275 19.643783,41.455 19.5146163,41.455 C19.3529496,41.455 19.251283,41.5841667 19.251283,41.7875 C19.251283,41.995 19.3546163,42.1266667 19.5146163,42.1266667 C19.6354496,42.1266667 19.7196163,42.0708333 19.746283,41.9691667 L19.891283,41.9691667 C19.8654496,42.1341667 19.731283,42.2558333 19.5154496,42.2558333 C19.263783,42.2558333 19.1029496,42.0733333 19.1029496,41.7875 C19.1029496,41.5075 19.2629496,41.3258333 19.5146163,41.3258333 C19.7329496,41.3258333 19.866283,41.4566667 19.891283,41.6166667 Z M20.1629496,41.1091667 L20.306283,41.1091667 L20.306283,41.3416667 L20.506283,41.3416667 L20.506283,41.4616667 L20.306283,41.4616667 L20.306283,41.97 C20.306283,42.0758333 20.346283,42.1208333 20.4396163,42.1208333 C20.4654496,42.1208333 20.4796163,42.12 20.506283,42.1175 L20.506283,42.2383333 C20.4779496,42.2433333 20.4504496,42.2466667 20.4221163,42.2466667 C20.2371163,42.2466667 20.1629496,42.1783333 20.1629496,42.0066667 L20.1629496,41.4616667 L20.0179496,41.4616667 L20.0179496,41.3416667 L20.1629496,41.3416667 L20.1629496,41.1091667 Z M21.0921163,42.1266667 C21.2621163,42.1266667 21.3579496,42.0033333 21.3579496,41.7908333 C21.3579496,41.5775 21.2621163,41.455 21.0921163,41.455 C20.9221163,41.455 20.826283,41.5775 20.826283,41.7908333 C20.826283,42.0033333 20.9221163,42.1266667 21.0921163,42.1266667 Z M21.0921163,42.2558333 C20.836283,42.2558333 20.6779496,42.0791667 20.6779496,41.7908333 C20.6779496,41.5016667 20.836283,41.3258333 21.0921163,41.3258333 C21.3479496,41.3258333 21.506283,41.5016667 21.506283,41.7908333 C21.506283,42.0791667 21.3479496,42.2558333 21.0921163,42.2558333 Z M21.731283,42.24 L21.731283,41.3416667 L21.8679496,41.3416667 L21.8679496,41.475 L21.881283,41.475 C21.9079496,41.3875 22.011283,41.3258333 22.1304496,41.3258333 C22.153783,41.3258333 22.183783,41.3275 22.2021163,41.33 L22.2021163,41.4733333 C22.1904496,41.47 22.138783,41.465 22.1104496,41.465 C21.973783,41.465 21.8746163,41.5566667 21.8746163,41.6833333 L21.8746163,42.24 L21.731283,42.24 Z M23.1079496,41.6858333 L23.1079496,41.5575 L23.253783,41.5575 C23.3904496,41.5575 23.4871163,41.4691667 23.4871163,41.3441667 C23.4871163,41.2216667 23.3946163,41.14 23.256283,41.14 C23.1179496,41.14 23.0271163,41.2166667 23.0146163,41.3458333 L22.868783,41.3458333 C22.883783,41.1375 23.0329496,41.0091667 23.2621163,41.0091667 C23.4721163,41.0091667 23.6396163,41.1491667 23.6396163,41.3241667 C23.6396163,41.4675 23.5604496,41.5725 23.428783,41.6041667 L23.428783,41.6175 C23.5921163,41.6383333 23.691283,41.7516667 23.691283,41.9158333 C23.691283,42.1141667 23.5054496,42.2683333 23.2679496,42.2683333 C23.023783,42.2683333 22.8554496,42.1325 22.8446163,41.9266667 L22.9896163,41.9266667 C23.0029496,42.055 23.111283,42.1375 23.266283,42.1375 C23.4246163,42.1375 23.5371163,42.0433333 23.5371163,41.9116667 C23.5371163,41.7725 23.431283,41.6858333 23.2604496,41.6858333 L23.1079496,41.6858333 Z M23.9029496,42.4708333 C24.0446163,42.2225 24.1071163,42 24.1071163,41.74 C24.1071163,41.4691667 24.0221163,41.1791667 23.901283,41.0383333 L24.0229496,41.0383333 C24.1871163,41.2483333 24.2554496,41.455 24.2554496,41.74 C24.2554496,42.0241667 24.173783,42.29 24.0304496,42.4708333 L23.9029496,42.4708333 Z" id="S3-(Sector-3)-Copy" fill="#666666"></path>
            </g>
        </g>
    </g>
</svg>