<?xml version="1.0" encoding="UTF-8"?>
<svg width="160px" height="96px" viewBox="0 0 160 96" version="1.1" xmlns="http://www.w3.org/2000/svg" xmlns:xlink="http://www.w3.org/1999/xlink">
    <!-- Generator: Sketch 58 (84663) - https://sketch.com -->
    <title>circuit-gs-Americas-L-Eng</title>
    <desc>Created with Sketch.</desc>
    <defs>
        <linearGradient x1="50%" y1="23.3035083%" x2="50%" y2="112.667183%" id="linearGradient-1">
            <stop stop-color="#1B94E2" offset="0%"></stop>
            <stop stop-color="#40D8AB" offset="100%"></stop>
        </linearGradient>
    </defs>
    <g id="circuit-gs-Americas-L-Eng" stroke="none" stroke-width="1" fill="none" fill-rule="evenodd">
        <g id="Usa-Circuit" transform="translate(6.000000, 6.000000)">
            <g id="Group-5" transform="translate(0.826667, 0.400000)">
                <path d="M16.524038,34.3592044 L17.3501894,34.5728667 C16.9237783,36.2216376 15.9738878,37.3859786 14.5194048,38.0317606 C12.8798638,38.7597072 7.50538196,40.8483895 6.01667826,41.3775497 C5.28371326,41.6380823 5.17590679,42.3566602 6.13062666,43.0764179 C8.18032153,44.6216709 38.1866392,69.9888874 38.6392389,70.6932914 C38.9624381,71.1963027 39.9905708,72.7140689 41.718049,75.2381253 L41.0138508,75.7200825 C39.2800769,73.1868273 38.251098,71.6678117 37.9213261,71.154571 C37.5498849,70.5764782 7.5547981,45.2187562 5.61693005,43.7578088 C4.1207288,42.6298315 4.35591187,41.0622321 5.73087846,40.5734998 C7.20079395,40.0510178 12.5562255,37.969739 14.1731266,37.2518444 C15.3840665,36.7141942 16.1614081,35.7613573 16.524038,34.3592044 Z" id="Path-49" fill="#E6E6E6" fill-rule="nonzero"></path>
                <path d="M113.072477,31.7850521 C110.6879,32.4388457 109.3708,32.1131328 108.250009,30.6537057 C108.150482,30.5241067 108.050916,30.3854601 107.932739,30.2139915 C107.705765,29.8802147 107.664569,29.8193112 107.629394,29.7674998 C107.076969,28.6659794 106.473626,28.1516348 105.374877,27.8316196 C104.599661,27.6193391 103.478429,27.7869698 102.871714,28.3109491 C102.371331,28.7430965 102.280773,28.8402929 100.707314,30.5853648 C99.9527034,31.4222783 99.4378713,31.9607319 98.898834,32.4525062 C98.6354716,32.692777 98.3802372,32.9072033 98.1287334,33.0973765 C95.2847838,35.2478133 94.0012027,35.5237746 92.1041478,34.6926378 C91.6543988,34.4955939 90.935685,34.1414907 89.8221393,33.5742747 C89.5022547,33.4113325 89.1553744,33.2336963 88.706074,33.002935 C88.5191134,32.9069117 87.7332941,32.5029445 87.5300544,32.3985631 C86.6551837,31.949366 86.075646,31.6536227 85.5419382,31.3845812 C83.7533958,30.4829791 82.4624813,30.6971714 79.4622743,32.3889477 C78.6577294,32.8688705 78.0267428,33.3730523 77.5471775,33.8975822 C76.4630598,35.0833484 76.2311797,36.073419 76.2867699,37.8178809 C76.3061635,38.4264655 76.3063934,38.5957289 76.2648508,38.8822754 C76.255514,38.946678 76.2563122,39.0374786 76.271073,39.3060295 C76.3976695,41.6092638 75.3544964,43.0397242 71.5403002,44.559962 C68.5303837,45.7596352 67.9083557,46.4273632 67.3348022,48.0919024 C67.2023475,48.4763059 67.111595,48.7081958 66.9773189,48.9711353 C65.9347909,51.0126135 64.9828793,52.5920693 64.156479,53.4096551 L63.8477562,53.6348477 C63.5585564,53.7855478 63.2710421,53.9388898 62.98125,54.0969388 C61.783532,54.7501591 60.5659445,55.4703264 58.6969581,56.6216888 C58.278076,56.8797352 53.9450095,59.5706208 52.2242816,60.6287282 C49.7652697,62.0304143 48.5407133,63.5415023 48.1517769,65.2188164 C47.8649,66.4559923 47.9998158,67.5967923 48.5014457,69.4565332 C49.4188772,72.8578158 50.7445403,77.2795079 51.6741375,79.8931384 C52.3578159,81.8153501 52.1424506,83.301115 50.7992777,83.9187103 C49.9020843,84.3312428 48.7926818,84.1163301 47.9104014,83.6054637 C47.6820764,83.4732568 46.793992,82.7683855 44.7779805,81.1385392 C37.3344127,75.12078 17.65513,58.9553654 7.536241,50.5478111 C5.12819693,48.5470221 3.37171455,47.0770473 2.37548877,46.2277715 C1.90401405,45.8258425 1.602739,45.5631062 1.4558027,45.424186 C0.372431668,44.3999183 -0.0581994317,43.3369308 0.372032663,42.2749191 C0.67022541,41.5388415 1.1738252,41.1380923 2.10922018,40.6168435 C2.4967166,40.4032166 2.56848352,40.3627832 2.63257084,40.3251732 C3.7548029,39.6306059 16.0285329,34.7176742 20.1704025,33.2078522 C22.6215066,32.3143594 24.2496659,32.8281534 25.3686825,34.3541924 C25.492515,34.5230668 25.8089863,35.0063074 25.8513208,35.0614686 C26.0908067,35.3319867 29.504836,40.506376 30.9125725,42.4735047 C31.5767346,43.401585 32.2105239,44.2512266 32.8154253,45.0197033 C33.237654,45.5561097 33.6430664,46.049416 34.0306744,46.4971308 C38.6741137,50.0775669 41.8187633,50.3413249 44.9741801,48.7435609 C47.7297563,47.3482586 48.8968222,46.2822262 49.7818919,44.0265391 C50.5536716,42.0595826 50.2751468,40.4623754 49.314765,38.4668152 C48.3837878,36.5323541 44.4010208,29.0254832 43.5693878,27.7657459 L43.4142554,27.5307551 L43.3720605,27.2523555 C43.1661909,25.8940412 43.3279393,24.9604774 44.1401288,24.3551401 C44.7415974,23.9068562 45.1244413,23.8726509 46.4203137,23.9065232 C46.6598255,23.9127837 46.7928886,23.9152466 46.9433918,23.9152466 C48.904721,23.9152466 50.7345328,24.9631772 51.9807031,26.5523777 C52.0988425,26.703037 52.7409295,27.4808375 52.9321788,27.724738 C53.9897128,29.0734121 54.6225406,30.3013637 54.8764041,31.8721815 C55.0793604,33.1280027 55.8123369,33.6461971 56.8617489,33.6461971 C57.8532273,33.7816614 58.1170799,33.8052432 58.4330317,33.8055082 C58.9441609,33.8055173 59.342223,33.8328272 60.2224205,33.9480241 C60.5077826,33.882786 60.6748497,33.8026379 60.7490837,33.7316497 C60.7698945,33.4810241 60.6517649,33.1510611 60.3999998,32.6676588 C60.2585055,32.3959823 58.9790891,30.4377776 57.5004587,28.2386164 C55.5063324,25.2727599 53.7118197,22.6928332 52.928354,21.6906538 C51.7548189,20.1895125 51.5187635,18.7990343 52.7935909,17.9266329 C53.4597178,17.470783 54.1313675,17.3965345 55.6560832,17.3971015 C56.0164573,17.4078318 56.7643168,17.3801258 57.8130869,17.3144818 C68.5258853,16.6439526 90.7282733,13.91895 109.044566,10.6239275 C113.749502,9.77752968 118.218068,8.81566349 122.484512,7.7533926 C127.011647,6.62621432 131.090443,5.44537469 135.060341,4.16193285 C137.01866,3.52882111 141.495163,1.99589899 141.928457,1.85955634 C144.160784,1.15711898 145.781465,1.6495104 146.090959,3.36536036 C146.249575,4.24473446 145.949622,5.25495834 145.545255,5.97103819 C145.171374,6.63312993 143.03295,9.59098913 142.106068,10.70656 C140.126412,13.0892255 129.69554,25.200989 128.084604,26.9010834 C126.604368,28.4632445 125.41957,29.3217532 124.315243,29.4430831 C119.508067,30.580821 115.763539,31.3612138 113.072477,31.7850521 Z M110.280367,29.09446 C110.715187,29.6606575 110.958938,29.7186791 112.456342,29.2993242 C115.239409,28.855593 118.97975,28.076455 123.815401,26.9306483 C124.30842,26.8828933 125.118444,26.3094865 126.22634,25.1402729 C127.787504,23.4927051 138.191643,11.4119818 140.137027,9.07056615 C140.97429,8.0628577 143.028753,5.221133 143.316116,4.71225307 C143.401856,4.5604188 143.490916,4.31207581 143.539033,4.10856635 C143.319348,4.13171564 143.037951,4.19418411 142.696858,4.30151452 C142.301682,4.42586284 137.838048,5.95437799 135.84784,6.5977991 C131.824672,7.89846307 127.690142,9.09543791 123.103025,10.2375509 C118.78271,11.3132345 114.259093,12.2869506 109.497823,13.1434826 C91.0860386,16.4556837 68.7858339,19.1926918 57.973008,19.8694819 C56.8489862,19.939836 56.0420826,19.9697293 55.6179876,19.9565345 C55.283564,19.9565345 55.0383033,19.9605453 54.8367864,19.9713199 C55.7805627,21.1825339 57.5941905,23.789942 59.6249076,26.8102197 C61.2020894,29.1559562 62.4607942,31.0824607 62.6705132,31.4851323 C63.1297956,32.3669788 63.3593114,33.0080687 63.3146456,33.8315338 C63.2389234,35.2275608 62.2223021,36.1997313 60.4861945,36.5054425 C59.1687731,36.3887574 58.8591921,36.3655173 58.4661145,36.3655173 C57.9891358,36.3651368 57.6130394,36.3328211 56.7598003,36.2052625 C54.5844936,36.165285 52.7632966,34.8429242 52.3491949,32.2806097 C52.1750706,31.2031898 51.7312122,30.3419181 50.917653,29.3043853 C50.7528547,29.0942178 50.1107815,28.3164341 49.9661974,28.1320507 C49.1724466,27.119806 48.046969,26.4752466 46.9433918,26.4752466 C46.7645793,26.4752466 46.6138965,26.4724575 46.3534218,26.4656491 C46.1185439,26.4595097 45.967338,26.4564977 45.8565121,26.4568656 C47.0235796,28.5019779 50.6937824,35.4289138 51.6215297,37.3566634 C52.8606709,39.9314531 53.2539033,42.1864533 52.1650086,44.9616086 C51.0134661,47.8964279 49.3956123,49.3742232 46.1306451,51.0274586 C42.0768418,53.0801258 37.8472035,52.707842 32.361603,48.4424671 C31.7407745,47.766944 31.2810856,47.2093943 30.8038477,46.6031033 C30.1729908,45.8016523 29.5163082,44.9213205 28.8307393,43.9633271 C27.3201761,41.8525113 24.0350137,36.8734361 23.9646416,36.7947079 C23.7052544,36.4699478 23.3680026,35.9549762 23.304235,35.8680142 C22.8514565,35.2505456 22.41736,35.1135589 21.0471557,35.6130349 C17.1442339,37.035754 4.88128713,41.9443694 4.0689312,42.4483008 C3.84062217,42.5844965 3.75121737,42.6348671 3.63101398,42.7011538 C3.11070453,42.9894102 2.94547417,43.0960391 2.84924116,43.1618001 C2.92359641,43.2660523 3.0430429,43.4018183 3.21454249,43.5639617 C3.31737606,43.6611852 3.60091631,43.9084554 4.03628686,44.2796058 C5.02193732,45.1198661 6.77212514,46.5845732 9.17225722,48.5787882 C19.2829223,56.9795095 38.9536041,73.137859 46.3874374,79.1477482 C47.2743212,79.8647503 47.9722432,80.4253709 48.4667711,80.817877 C48.7176851,81.0170271 48.9149972,81.1719088 49.055992,81.2804028 C49.2848482,81.4415608 49.3783669,81.4820723 49.4727096,81.5130455 C49.4406143,81.3193565 49.3735721,81.0642653 49.2621572,80.7510142 C48.3062166,78.0633175 46.9631115,73.5834482 46.02978,70.1232182 C45.4261388,67.885281 45.2503068,66.3985079 45.657944,64.6405453 C46.2162972,62.2326101 47.8997762,60.151606 50.901238,58.4370161 C52.627873,57.3750948 56.93127,54.7026416 57.3542395,54.4420772 C59.2583545,53.2690743 60.5103768,52.5285398 61.7555049,51.8494626 C61.9960046,51.7182971 62.235178,51.5901327 62.474994,51.4639469 C63.0340329,50.8375428 63.8497223,49.4667683 64.6974016,47.8068429 C64.7626429,47.6790872 64.8186107,47.5360788 64.9144567,47.2579192 C65.7272808,44.8989807 66.8799819,43.6615915 70.592465,42.1818938 C72.2501351,41.5211903 73.1630112,40.9267336 73.5343635,40.4175135 C73.7194973,40.1636471 73.7456458,40.0053312 73.7149313,39.446527 C73.690475,39.0015816 73.688778,38.8085354 73.7313373,38.5149754 C73.7414899,38.4449463 73.7413135,38.315048 73.7280688,37.8994183 C73.6532554,35.5517199 74.0276353,33.9532103 75.6578148,32.1701829 C76.3120753,31.454578 77.1384381,30.7942834 78.1777085,30.1747835 C81.8730181,28.0905137 83.9957938,27.7382966 86.6942947,29.0986078 C87.234826,29.371089 87.819304,29.6693533 88.6112802,30.0759826 C88.9034249,30.226018 89.6892603,30.6299935 89.8756524,30.7257247 C90.3226297,30.9552929 90.6671977,31.131745 90.9840884,31.2931622 C92.0512195,31.8367356 92.7438498,32.1779877 93.1314632,32.3478088 C94.0827114,32.7645692 94.4203655,32.6919759 96.5847153,31.0554147 C96.7695565,30.915648 96.9653188,30.7511851 97.1734511,30.5613019 C97.6351991,30.1400401 98.1034288,29.6503271 98.8060499,28.8710733 C100.49857,26.9939558 100.575049,26.9118691 101.19845,26.3734792 C102.511429,25.2395467 104.510491,24.9406754 106.070696,25.368082 C107.854546,25.887359 109.020396,26.8631738 109.79616,28.4013902 C110.187067,28.9772001 110.163133,28.9418047 110.280367,29.09446 Z M49.7814845,81.5718183 C49.7831924,81.5717644 49.7848576,81.571696 49.7864795,81.5716134 C49.7863625,81.5716134 49.7857127,81.5717476 49.784537,81.5720378 L49.7814845,81.5718183 Z M45.7156935,26.3703482 C45.7146806,26.3712558 45.7136623,26.3721624 45.7126387,26.3730682 L45.7455727,26.4587532 C45.7541641,26.4584585 45.7629924,26.4581981 45.7721001,26.4579717 C45.7522159,26.4266042 45.7333998,26.3973697 45.7156935,26.3703482 Z" id="Path-48" fill="#EBEBEB" fill-rule="nonzero"></path>
                <path d="M113.072477,30.5050521 C110.6879,31.1588457 109.3708,30.8331328 108.250009,29.3737057 C108.150482,29.2441067 108.050916,29.1054601 107.932739,28.9339915 C107.705765,28.6002147 107.664569,28.5393112 107.629394,28.4874998 C107.076969,27.3859794 106.473626,26.8716348 105.374877,26.5516196 C104.599661,26.3393391 103.478429,26.5069698 102.871714,27.0309491 C102.371331,27.4630965 102.280773,27.5602929 100.707314,29.3053648 C99.9527034,30.1422783 99.4378713,30.6807319 98.898834,31.1725062 C98.6354716,31.412777 98.3802372,31.6272033 98.1287334,31.8173765 C95.2847838,33.9678133 94.0012027,34.2437746 92.1041478,33.4126378 C91.6543988,33.2155939 90.935685,32.8614907 89.8221393,32.2942747 C89.5022547,32.1313325 89.1553744,31.9536963 88.706074,31.722935 C88.5191134,31.6269117 87.7332941,31.2229445 87.5300544,31.1185631 C86.6551837,30.669366 86.075646,30.3736227 85.5419382,30.1045812 C83.7533958,29.2029791 82.4624813,29.4171714 79.4622743,31.1089477 C78.6577294,31.5888705 78.0267428,32.0930523 77.5471775,32.6175822 C76.4630598,33.8033484 76.2311797,34.793419 76.2867699,36.5378809 C76.3061635,37.1464655 76.3063934,37.3157289 76.2648508,37.6022754 C76.255514,37.666678 76.2563122,37.7574786 76.271073,38.0260295 C76.3976695,40.3292638 75.3544964,41.7597242 71.5403002,43.279962 C68.5303837,44.4796352 67.9083557,45.1473632 67.3348022,46.8119024 C67.2023475,47.1963059 67.111595,47.4281958 66.9773189,47.6911353 C65.9347909,49.7326135 64.9828793,51.3120693 64.156479,52.1296551 L63.8477562,52.3548477 C63.5585564,52.5055478 63.2710421,52.6588898 62.98125,52.8169388 C61.783532,53.4701591 60.5659445,54.1903264 58.6969581,55.3416888 C58.278076,55.5997352 53.9450095,58.2906208 52.2242816,59.3487282 C49.7652697,60.7504143 48.5407133,62.2615023 48.1517769,63.9388164 C47.8649,65.1759923 47.9998158,66.3167923 48.5014457,68.1765332 C49.4188772,71.5778158 50.7445403,75.9995079 51.6741375,78.6131384 C52.3578159,80.5353501 52.1424506,82.021115 50.7992777,82.6387103 C49.9020843,83.0512428 48.7926818,82.8363301 47.9104014,82.3254637 C47.6820764,82.1932568 46.793992,81.4883855 44.7779805,79.8585392 C37.3344127,73.84078 17.65513,57.6753654 7.536241,49.2678111 C5.12819693,47.2670221 3.37171455,45.7970473 2.37548877,44.9477715 C1.90401405,44.5458425 1.602739,44.2831062 1.4558027,44.144186 C0.372431668,43.1199183 -0.0581994317,42.0569308 0.372032663,40.9949191 C0.67022541,40.2588415 1.1738252,39.8580923 2.10922018,39.3368435 C2.4967166,39.1232166 2.56848352,39.0827832 2.63257084,39.0451732 C3.7548029,38.3506059 16.0285329,33.4376742 20.1704025,31.9278522 C22.6215066,31.0343594 24.2496659,31.5481534 25.3686825,33.0741924 C25.492515,33.2430668 25.8089863,33.7263074 25.8513208,33.7814686 C26.0908067,34.0519867 29.504836,39.226376 30.9125725,41.1935047 C31.5767346,42.121585 32.2105239,42.9712266 32.8154253,43.7397033 C33.237654,44.2761097 33.6430664,44.769416 34.0306744,45.2171308 C38.6741137,48.7975669 41.8187633,49.0613249 44.9741801,47.4635609 C47.7297563,46.0682586 48.8968222,45.0022262 49.7818919,42.7465391 C50.5536716,40.7795826 50.2751468,39.1823754 49.314765,37.1868152 C48.3837878,35.2523541 44.4010208,27.7454832 43.5693878,26.4857459 L43.4142554,26.2507551 L43.3720605,25.9723555 C43.1661909,24.6140412 43.3279393,23.6804774 44.1401288,23.0751401 C44.7415974,22.6268562 45.1244413,22.5926509 46.4203137,22.6265232 C46.6598255,22.6327837 46.7928886,22.6352466 46.9433918,22.6352466 C48.904721,22.6352466 50.7345328,23.6831772 51.9807031,25.2723777 C52.0988425,25.423037 52.7409295,26.2008375 52.9321788,26.444738 C53.9897128,27.7934121 54.6225406,29.0213637 54.8764041,30.5921815 C55.0793604,31.8480027 55.8123369,32.3661971 56.8617489,32.3661971 C57.8532273,32.5016614 58.1170799,32.5252432 58.4330317,32.5255082 C58.9441609,32.5255173 59.342223,32.5528272 60.2224205,32.6680241 C60.5077826,32.602786 60.6748497,32.5226379 60.7490837,32.4516497 C60.7698945,32.2010241 60.6517649,31.8710611 60.3999998,31.3876588 C60.2585055,31.1159823 58.9790891,29.1577776 57.5004587,26.9586164 C55.5063324,23.9927599 53.7118197,21.4128332 52.928354,20.4106538 C51.7548189,18.9095125 51.5187635,17.5190343 52.7935909,16.6466329 C53.4597178,16.190783 54.1313675,16.1165345 55.6560832,16.1171015 C56.0164573,16.1278318 56.7643168,16.1001258 57.8130869,16.0344818 C68.5258853,15.3639526 90.7282733,12.63895 109.044566,9.34392746 C113.749502,8.49752968 118.218068,7.53566349 122.484512,6.4733926 C127.011647,5.34621432 131.090443,4.16537469 135.060341,2.88193285 C137.01866,2.24882111 141.495163,0.715898988 141.928457,0.579556337 C144.160784,-0.122881019 145.781465,0.369510396 146.090959,2.08536036 C146.249575,2.96473446 145.949622,3.97495834 145.545255,4.69103819 C145.171374,5.35312993 143.03295,8.31098913 142.106068,9.42656001 C140.126412,11.8092255 129.69554,23.920989 128.084604,25.6210834 C126.604368,27.1832445 125.41957,28.0417532 124.315243,28.1630831 C119.508067,29.300821 115.763539,30.0812138 113.072477,30.5050521 Z M110.280367,27.81446 C110.715187,28.3806575 110.958938,28.4386791 112.456342,28.0193242 C115.239409,27.575593 118.97975,26.796455 123.815401,25.6506483 C124.30842,25.6028933 125.118444,25.0294865 126.22634,23.8602729 C127.787504,22.2127051 138.191643,10.1319818 140.137027,7.79056615 C140.97429,6.7828577 143.028753,3.941133 143.316116,3.43225307 C143.401856,3.2804188 143.490916,3.03207581 143.539033,2.82856635 C143.319348,2.85171564 143.037951,2.91418411 142.696858,3.02151452 C142.301682,3.14586284 137.838048,4.67437799 135.84784,5.3177991 C131.824672,6.61846307 127.690142,7.81543791 123.103025,8.95755088 C118.78271,10.0332345 114.259093,11.0069506 109.497823,11.8634826 C91.0860386,15.1756837 68.7858339,17.9126918 57.973008,18.5894819 C56.8489862,18.659836 56.0420826,18.6897293 55.6179876,18.6765345 C55.283564,18.6765345 55.0383033,18.6805453 54.8367864,18.6913199 C55.7805627,19.9025339 57.5941905,22.509942 59.6249076,25.5302197 C61.2020894,27.8759562 62.4607942,29.8024607 62.6705132,30.2051323 C63.1297956,31.0869788 63.3593114,31.7280687 63.3146456,32.5515338 C63.2389234,33.9475608 62.2223021,34.9197313 60.4861945,35.2254425 C59.1687731,35.1087574 58.8591921,35.0855173 58.4661145,35.0855173 C57.9891358,35.0851368 57.6130394,35.0528211 56.7598003,34.9252625 C54.5844936,34.885285 52.7632966,33.5629242 52.3491949,31.0006097 C52.1750706,29.9231898 51.7312122,29.0619181 50.917653,28.0243853 C50.7528547,27.8142178 50.1107815,27.0364341 49.9661974,26.8520507 C49.1724466,25.839806 48.046969,25.1952466 46.9433918,25.1952466 C46.7645793,25.1952466 46.6138965,25.1924575 46.3534218,25.1856491 C46.1185439,25.1795097 45.967338,25.1764977 45.8565121,25.1768656 C47.0235796,27.2219779 50.6937824,34.1489138 51.6215297,36.0766634 C52.8606709,38.6514531 53.2539033,40.9064533 52.1650086,43.6816086 C51.0134661,46.6164279 49.3956123,48.0942232 46.1306451,49.7474586 C42.0768418,51.8001258 37.8472035,51.427842 32.361603,47.1624671 C31.7407745,46.486944 31.2810856,45.9293943 30.8038477,45.3231033 C30.1729908,44.5216523 29.5163082,43.6413205 28.8307393,42.6833271 C27.3201761,40.5725113 24.0350137,35.5934361 23.9646416,35.5147079 C23.7052544,35.1899478 23.3680026,34.6749762 23.304235,34.5880142 C22.8514565,33.9705456 22.41736,33.8335589 21.0471557,34.3330349 C17.1442339,35.755754 4.88128713,40.6643694 4.0689312,41.1683008 C3.84062217,41.3044965 3.75121737,41.3548671 3.63101398,41.4211538 C3.11070453,41.7094102 2.94547417,41.8160391 2.84924116,41.8818001 C2.92359641,41.9860523 3.0430429,42.1218183 3.21454249,42.2839617 C3.31737606,42.3811852 3.60091631,42.6284554 4.03628686,42.9996058 C5.02193732,43.8398661 6.77212514,45.3045732 9.17225722,47.2987882 C19.2829223,55.6995095 38.9536041,71.857859 46.3874374,77.8677482 C47.2743212,78.5847503 47.9722432,79.1453709 48.4667711,79.537877 C48.7176851,79.7370271 48.9149972,79.8919088 49.055992,80.0004028 C49.2848482,80.1615608 49.3783669,80.2020723 49.4727096,80.2330455 C49.4406143,80.0393565 49.3735721,79.7842653 49.2621572,79.4710142 C48.3062166,76.7833175 46.9631115,72.3034482 46.02978,68.8432182 C45.4261388,66.605281 45.2503068,65.1185079 45.657944,63.3605453 C46.2162972,60.9526101 47.8997762,58.871606 50.901238,57.1570161 C52.627873,56.0950948 56.93127,53.4226416 57.3542395,53.1620772 C59.2583545,51.9890743 60.5103768,51.2485398 61.7555049,50.5694626 C61.9960046,50.4382971 62.235178,50.3101327 62.474994,50.1839469 C63.0340329,49.5575428 63.8497223,48.1867683 64.6974016,46.5268429 C64.7626429,46.3990872 64.8186107,46.2560788 64.9144567,45.9779192 C65.7272808,43.6189807 66.8799819,42.3815915 70.592465,40.9018938 C72.2501351,40.2411903 73.1630112,39.6467336 73.5343635,39.1375135 C73.7194973,38.8836471 73.7456458,38.7253312 73.7149313,38.166527 C73.690475,37.7215816 73.688778,37.5285354 73.7313373,37.2349754 C73.7414899,37.1649463 73.7413135,37.035048 73.7280688,36.6194183 C73.6532554,34.2717199 74.0276353,32.6732103 75.6578148,30.8901829 C76.3120753,30.174578 77.1384381,29.5142834 78.1777085,28.8947835 C81.8730181,26.8105137 83.9957938,26.4582966 86.6942947,27.8186078 C87.234826,28.091089 87.819304,28.3893533 88.6112802,28.7959826 C88.9034249,28.946018 89.6892603,29.3499935 89.8756524,29.4457247 C90.3226297,29.6752929 90.6671977,29.851745 90.9840884,30.0131622 C92.0512195,30.5567356 92.7438498,30.8979877 93.1314632,31.0678088 C94.0827114,31.4845692 94.4203655,31.4119759 96.5847153,29.7754147 C96.7695565,29.635648 96.9653188,29.4711851 97.1734511,29.2813019 C97.6351991,28.8600401 98.1034288,28.3703271 98.8060499,27.5910733 C100.49857,25.7139558 100.575049,25.6318691 101.19845,25.0934792 C102.511429,23.9595467 104.510491,23.6606754 106.070696,24.088082 C107.854546,24.607359 109.020396,25.5831738 109.79616,27.1213902 C110.187067,27.6972001 110.163133,27.6618047 110.280367,27.81446 Z M49.7814845,80.2918183 C49.7831924,80.2917644 49.7848576,80.291696 49.7864795,80.2916134 C49.7863625,80.2916134 49.7857127,80.2917476 49.784537,80.2920378 L49.7814845,80.2918183 Z M45.7156935,25.0903482 C45.7146806,25.0912558 45.7136623,25.0921624 45.7126387,25.0930682 L45.7455727,25.1787532 C45.7541641,25.1784585 45.7629924,25.1781981 45.7721001,25.1779717 C45.7522159,25.1466042 45.7333998,25.1173697 45.7156935,25.0903482 Z" id="Path-48" fill="#F2F2F2" fill-rule="nonzero"></path>
                <path d="M124.209192,27.5304994 C119.375215,28.6751905 115.619505,29.4576996 112.93737,29.8784308 C110.764231,30.4809069 109.710225,30.2243479 108.757599,28.9838943 C108.665753,28.8642977 108.572171,28.7339839 108.459705,28.5708022 C108.236012,28.2418328 108.194434,28.1803641 108.158897,28.1280183 C107.573481,26.9442781 106.827047,26.3079503 105.543908,25.9343445 C104.577368,25.6696732 103.236679,25.870114 102.453398,26.5465816 C101.92226,27.0052897 101.835222,27.0987086 100.231998,28.8767919 C99.4903847,29.6992905 98.9872032,30.225559 98.4674883,30.6997052 C98.2179334,30.927379 97.977567,31.1293145 97.7427289,31.306886 C95.0686792,33.328854 94.0215799,33.5539733 92.3609767,32.8264305 C91.9267615,32.6361924 91.2145687,32.2853019 90.1126266,31.7239966 C89.7934905,31.5614356 89.4471882,31.3840954 88.9984686,31.1536324 C88.8116501,31.0576822 88.0258268,30.6537129 87.822443,30.5492574 C86.9462138,30.0993628 86.365441,29.8029893 85.8300273,29.5330879 C83.8139953,28.5168084 82.3151155,28.765507 79.1344068,30.5593089 C78.2779066,31.0702237 77.5980759,31.6134337 77.0748368,32.1857324 C75.8542036,33.5208138 75.5866986,34.6629942 75.6470946,36.5582653 C75.664951,37.1186111 75.6651675,37.2780332 75.6314725,37.5104504 C75.61383,37.6321423 75.6148529,37.7485044 75.6320375,38.0611539 C75.7426027,40.0727217 74.8755689,41.2616494 71.3033414,42.6854449 C68.1177833,43.9551243 67.363087,44.7652675 66.7297158,46.6034066 C66.6064133,46.9612491 66.524357,47.1709187 66.4073396,47.4000622 C65.3979535,49.3766419 64.4657454,50.9234047 63.7063635,51.6746869 C63.2592001,51.9398603 62.9681258,52.0951011 62.6748137,52.2550697 C61.4652432,52.9147543 60.239047,53.6400134 58.3612785,54.7967859 C57.941007,55.0556882 53.6082357,57.7463905 51.870603,58.8144717 C49.3006695,60.2785222 47.9599031,61.933012 47.5283187,63.7942487 C47.2112517,65.1616212 47.3563965,66.3889144 47.8835292,68.3432045 C48.8049357,71.7592239 50.1349594,76.1954603 51.0711424,78.8276074 C51.6579018,80.4773243 51.4929424,81.6153483 50.5319125,82.057233 C49.8620568,82.3652349 48.9517548,82.1888918 48.2310987,81.7716106 C48.0500626,81.6667854 47.0954967,80.9091478 45.1803447,79.3608415 C37.7392105,73.3450497 18.0620781,57.1814014 7.94524506,48.7755554 C5.53917898,46.7764099 3.78427024,45.307752 2.79068829,44.4607301 C2.32823962,44.0664957 2.03139826,43.807626 1.89548765,43.6791299 C0.982774515,42.8162098 0.653751406,42.0040357 0.965206684,41.2352201 C1.18866899,40.6836118 1.61266097,40.346212 2.42075523,39.8959015 C2.81034179,39.6811292 2.88651818,39.6382115 2.95649796,39.5971435 C4.03642396,38.9290468 16.3074581,34.0171941 20.3895908,32.5291479 C22.57047,31.7341593 23.9001135,32.1537514 24.8525706,33.4526479 C24.9613869,33.6010441 25.2830533,34.0922175 25.3436092,34.1711209 C25.5768584,34.4373491 28.958671,39.5629098 30.3921142,41.5659603 C31.061628,42.5015189 31.7011406,43.358833 32.3125309,44.1355533 C32.7559147,44.6988355 33.1816655,45.2160431 33.5889521,45.6846086 C38.4572259,49.4542874 41.8780273,49.7486863 45.2632963,48.0345353 C48.1462203,46.5747497 49.4259832,45.4057766 50.3776711,42.9803065 C51.2287295,40.8113003 50.9215278,39.0496449 49.8914562,36.9092772 C48.94873,34.9504031 44.9553029,27.4234399 44.1034976,26.133146 L44.0048339,25.8764508 C43.8309898,24.729438 43.9554703,24.0109737 44.5225886,23.5882916 C44.95361,23.2670447 45.2882063,23.2371501 46.4035907,23.2663046 C46.6483432,23.2727021 46.7858112,23.2752466 46.9433918,23.2752466 C48.690283,23.2752466 50.3440112,24.2223344 51.4770767,25.6672959 C51.6018272,25.8263863 52.2439108,26.6041826 52.4285474,26.8396498 C53.4250877,28.1105386 54.0106731,29.2468202 54.2446018,30.6942885 C54.5019577,32.2867153 55.5196515,33.0061971 56.8617489,33.0061971 C57.786745,33.1388873 58.0813032,33.1652135 58.432495,33.165508 C58.9339158,33.1655173 59.3173588,33.1930926 60.2479952,33.316948 C61.0882391,33.1526832 61.3748415,32.8646123 61.3974638,32.4475435 C61.4172487,32.0827853 61.2712726,31.6750405 60.9676282,31.0920272 C60.8090777,30.7876019 59.5348391,28.8373222 58.031571,26.6015172 C56.0282969,23.6220554 54.2290054,21.0352583 53.4325644,20.0164813 C52.4556609,18.7668637 52.2863077,17.7692931 53.1550312,17.1748004 C53.6659525,16.8251621 54.2867563,16.7565345 55.6370354,16.756818 C56.0228636,16.7683062 56.7854842,16.7400534 57.8530672,16.6732318 C68.5908725,16.0011374 90.8177146,13.2731334 109.157881,9.97381624 C113.8769,9.12488491 118.359228,8.16005623 122.63914,7.09443217 C127.181271,5.96352022 131.274001,4.77864679 135.257216,3.49089941 C137.223507,2.85521033 141.696793,1.32338995 142.120557,1.19004588 C144.034567,0.587771997 145.236366,0.952899345 145.461123,2.19896609 C145.587146,2.8976445 145.325644,3.77836586 144.98797,4.37634191 C144.635719,5.00013069 142.518285,7.92895628 141.613808,9.01756155 C139.64272,11.3899146 129.218531,23.4939181 127.620038,25.1808808 C126.220526,26.6578504 125.121233,27.4469295 124.209192,27.5304994 Z M109.772778,28.2042714 C110.381985,28.9975454 110.897987,29.1203729 112.628937,28.6356125 C115.35756,28.2048985 119.112562,27.4227061 123.962963,26.2734046 C124.562602,26.2295162 125.475106,25.5835657 126.690906,24.3004755 C128.264513,22.6397761 138.675335,10.5512927 140.629287,8.19956461 C141.488955,7.16489056 143.564409,4.29413223 143.8734,3.74694935 C144.077689,3.38518088 144.262288,2.76346457 144.20145,2.42617757 C144.146166,2.11967724 143.782134,2.00907803 142.504757,2.41102498 C142.100052,2.53837187 137.633201,4.06798877 135.650966,4.70883253 C131.641115,6.00519098 127.520518,7.19813201 122.948396,8.33651131 C118.641549,9.40884171 114.131695,10.3795954 109.384509,11.2335938 C90.9965973,14.5415002 68.7208468,17.275507 57.9330277,17.9507319 C56.8278188,18.0199085 56.0356763,18.0492549 55.6179876,18.0365345 C54.597534,18.0365345 54.078422,18.0939205 53.8779118,18.2311354 C53.8213961,18.2698107 53.8573449,18.4815662 54.4409851,19.2281364 C55.2633769,20.2801087 57.072226,22.8806465 59.0937954,25.8873189 C60.6463393,28.1964115 61.910222,30.1308411 62.1028849,30.5007639 C62.510288,31.2829994 62.7119571,31.8463075 62.675585,32.5168703 C62.617286,33.5916805 61.8371497,34.3377061 60.3752045,34.59514 C59.2273848,34.4708699 58.8896626,34.4455173 58.4661145,34.4455173 C58.0171247,34.4451601 57.6662522,34.4144423 56.8120869,34.285948 C54.9070673,34.2668095 53.3440028,33.1446524 52.9809972,30.8985026 C52.7869381,29.6977332 52.2958374,28.7447916 51.4212845,27.6294735 C51.2498734,27.4108727 50.6077967,26.6330848 50.4698238,26.4571324 C49.5629681,25.3006488 48.261407,24.5552466 46.9433918,24.5552466 C46.7716566,24.5552466 46.6253787,24.5525391 46.3701448,24.5458676 C45.6157364,24.5261485 45.3776352,24.5474217 45.2875081,24.6145948 C45.2154211,24.6683223 45.1670408,24.9245459 45.2513601,25.5518387 C46.2801057,27.1870658 50.1049068,34.4011339 51.0448385,36.3542014 C52.2142899,38.7841837 52.5788454,40.8747356 51.5692294,43.4478412 C50.4843051,46.2128774 48.9791483,47.587732 45.8415289,49.1764842 C42.0068043,51.1182196 38.0429332,50.769328 32.7544559,46.657228 C32.2305041,46.07476 31.7776103,45.5254521 31.3067421,44.9272533 C30.6823741,44.1340459 30.0314148,43.2613866 29.3511976,42.3108715 C27.8663411,40.2359775 24.5489619,35.2080737 24.4418035,35.0881911 C24.2311874,34.8240377 23.8991307,34.3169988 23.8203469,34.2095588 C23.2010089,33.3649476 22.4683966,33.133759 20.8279674,33.7317393 C16.8653086,35.1762341 4.59966607,40.0859285 3.7315589,40.6244443 C3.52258751,40.7490682 3.43759217,40.7969544 3.32196028,40.8607202 C2.49033252,41.3224515 2.22555616,41.5331524 2.15155473,41.7158221 C2.07765308,41.8982456 2.20346021,42.208793 2.77485754,42.7490178 C2.8887168,42.8566655 3.17669075,43.1078022 3.62108734,43.4866472 C4.60938162,44.3291614 6.36114308,45.7951854 8.76325316,47.7910439 C18.8759742,56.1934735 38.5488063,72.3535892 45.9850732,78.365446 C47.6985061,79.7506724 48.7860352,80.6138427 48.8724932,80.6639045 C49.2699009,80.8940152 49.7820018,80.993219 49.9971821,80.8942784 C50.0629124,80.8640554 50.1008645,80.8105481 50.1236441,80.6533956 C50.166312,80.3590379 50.0911567,79.8919732 49.8651523,79.2565452 C48.9157976,76.5873651 47.5770529,72.1220401 46.6476964,68.676547 C46.0695581,66.5331588 45.9039551,65.132879 46.2814022,63.5051131 C46.7982828,61.2760314 48.3714692,59.334738 51.2185676,57.713204 C52.9346881,56.6579298 57.266869,53.9675941 57.6899191,53.7069801 C59.585252,52.5393873 60.8286656,51.8039446 62.0619412,51.1313317 C62.3321607,50.9839574 62.6006338,50.8404441 62.8702512,50.6992892 C63.4917033,50.0458262 64.3560578,48.6024688 65.2673809,46.817916 C65.3498809,46.6563644 65.4145449,46.4911356 65.5195431,46.186415 C66.2725495,44.0010763 67.2925824,42.9061024 70.8294238,41.4964108 C72.5888864,40.7951355 73.5958108,40.1394354 74.051466,39.5146142 C74.3444247,39.112892 74.3920613,38.8244763 74.3539667,38.1314027 C74.3319343,37.7305559 74.330462,37.5630711 74.3647157,37.3268004 C74.3827158,37.2026419 74.382526,37.0629024 74.3677441,36.599034 C74.2977365,34.4021447 74.6364914,32.9557448 76.1301555,31.3220327 C76.7407422,30.6541966 77.5182609,30.0329301 78.4921239,29.4522268 C82.0203839,27.4621781 83.9351943,27.1444672 86.4062056,28.3901012 C86.945031,28.6617224 87.5282739,28.9593565 88.3189601,29.3653234 C88.6108922,29.5152496 89.3967235,29.9192231 89.5832578,30.0150273 C90.0308159,30.2448938 90.375962,30.4216418 90.6936011,30.5834403 C91.7723359,31.1329244 92.471487,31.4773893 92.8746344,31.654016 C94.0623343,32.1743706 94.6364701,32.0509352 96.9707198,30.2859051 C97.1722266,30.1335368 97.382857,29.956583 97.6047968,29.754103 C98.0858671,29.3152131 98.5657475,28.8133149 99.2813659,28.0196462 C100.944121,26.1755401 101.024119,26.089676 101.616766,25.5778467 C102.753179,24.5964025 104.532783,24.3303413 105.891817,24.7025757 C107.517786,25.1758936 108.546191,26.0436483 109.242854,27.4458096 C109.671279,28.0768822 109.641632,28.033501 109.772778,28.2042714 Z" id="Path-48" fill="url(#linearGradient-1)" fill-rule="nonzero"></path>
                <path d="M7.94524506,48.7755554 L8.76325316,47.7910439 C18.8759742,56.1934735 38.5488063,72.3535892 45.9850732,78.365446 L45.1803447,79.3608415 C37.7392105,73.3450497 18.0620781,57.1814014 7.94524506,48.7755554 Z" id="Path" fill="#FFB819" fill-rule="nonzero"></path>
                <path d="M122.63914,7.09443217 L122.948396,8.33651131 C118.641549,9.40884171 114.131695,10.3795954 109.384509,11.2335938 C90.9965973,14.5415002 68.7208468,17.275507 57.9330277,17.9507319 L57.8530672,16.6732318 C68.5908725,16.0011374 90.8177146,13.2731334 109.157881,9.97381624 C113.8769,9.12488491 118.359228,8.16005623 122.63914,7.09443217 Z" id="Path" fill="#FFA019" fill-rule="nonzero"></path>
                <path d="M61.3974638,32.4475435 C61.4172487,32.0827853 61.2712726,31.6750405 60.9676282,31.0920272 C60.8090777,30.7876019 59.5348391,28.8373222 58.031571,26.6015172 L59.0937954,25.8873189 C60.6463393,28.1964115 61.910222,30.1308411 62.1028849,30.5007639 C62.510288,31.2829994 62.7119571,31.8463075 62.675585,32.5168703 C62.617286,33.5916805 61.8371497,34.3377061 60.3752045,34.59514 L60.1787214,34.5991016 C59.2273848,34.4708699 58.8896626,34.4455173 58.4661145,34.4455173 C58.0171247,34.4451601 57.6662522,34.4144423 56.8120869,34.285948 C54.9070673,34.2668095 53.3440028,33.1446524 52.9809972,30.8985026 C52.7869381,29.6977332 52.2958374,28.7447916 51.4212845,27.6294735 C51.2498734,27.4108727 50.6077967,26.6330848 50.4698238,26.4571324 C49.5629681,25.3006488 48.261407,24.5552466 46.9433918,24.5552466 C46.7716566,24.5552466 46.6253787,24.5525391 46.3701448,24.5458676 C45.6157364,24.5261485 45.3776352,24.5474217 45.2875081,24.6145948 C45.2154211,24.6683223 45.1670408,24.9245459 45.2513601,25.5518387 C46.2801057,27.1870658 50.1049068,34.4011339 51.0448385,36.3542014 C52.2142899,38.7841837 52.5788454,40.8747356 51.5692294,43.4478412 C50.4843051,46.2128774 48.9791483,47.587732 45.8415289,49.1764842 C42.0068043,51.1182196 38.0429332,50.769328 32.7544559,46.657228 L32.6650933,46.5727836 C32.2305041,46.07476 31.7776103,45.5254521 31.3067421,44.9272533 C30.6823741,44.1340459 30.0314148,43.2613866 29.3511976,42.3108715 C27.8663411,40.2359775 24.5489619,35.2080737 24.4418035,35.0881911 C24.4035665,35.0454139 24.3660683,34.9997857 24.328186,34.9504256 C24.2311874,34.8240377 23.8991307,34.3169988 23.8203469,34.2095588 C23.2010089,33.3649476 22.4683966,33.133759 20.8279674,33.7317393 C16.8653086,35.1762341 4.59966607,40.0859285 3.7315589,40.6244443 C3.69122837,40.6494627 3.6490511,40.6748523 3.60435222,40.7010841 C3.52258751,40.7490682 3.43759217,40.7969544 3.32196028,40.8607202 C3.34858722,40.8460366 3.10702279,40.9788009 3.04382533,41.0140177 C2.49033252,41.3224515 2.22555616,41.5331524 2.15155473,41.7158221 C2.07765308,41.8982456 2.20346021,42.208793 2.77485754,42.7490178 C2.8887168,42.8566655 3.17669075,43.1078022 3.62108734,43.4866472 L2.79068829,44.4607301 C2.32823962,44.0664957 2.03139826,43.807626 1.89548765,43.6791299 C0.982774515,42.8162098 0.653751406,42.0040357 0.965206684,41.2352201 C1.18866899,40.6836118 1.61266097,40.346212 2.42075523,39.8959015 C2.48780359,39.8585389 2.73366137,39.723415 2.70385288,39.739853 C2.81034179,39.6811292 2.88651818,39.6382115 2.95649796,39.5971435 C4.03642396,38.9290468 16.3074581,34.0171941 20.3895908,32.5291479 C22.57047,31.7341593 23.9001135,32.1537514 24.8525706,33.4526479 C24.9613869,33.6010441 25.2830533,34.0922175 25.3436092,34.1711209 C25.5768584,34.4373491 28.958671,39.5629098 30.3921142,41.5659603 C31.061628,42.5015189 31.7011406,43.358833 32.3125309,44.1355533 C32.7559147,44.6988355 33.1816655,45.2160431 33.5889521,45.6846086 C38.4572259,49.4542874 41.8780273,49.7486863 45.2632963,48.0345353 C48.1462203,46.5747497 49.4259832,45.4057766 50.3776711,42.9803065 C51.2287295,40.8113003 50.9215278,39.0496449 49.8914562,36.9092772 C48.94873,34.9504031 44.9553029,27.4234399 44.1034976,26.133146 L44.0259314,26.0156506 L44.0048339,25.8764508 C43.8309898,24.729438 43.9554703,24.0109737 44.5225886,23.5882916 C44.95361,23.2670447 45.2882063,23.2371501 46.4035907,23.2663046 C46.6483432,23.2727021 46.7858112,23.2752466 46.9433918,23.2752466 C48.690283,23.2752466 50.3440112,24.2223344 51.4770767,25.6672959 C51.6018272,25.8263863 52.2439108,26.6041826 52.4285474,26.8396498 C53.4250877,28.1105386 54.0106731,29.2468202 54.2446018,30.6942885 C54.5019577,32.2867153 55.5196515,33.0061971 56.8617489,33.0061971 C57.786745,33.1388873 58.0813032,33.1652135 58.432495,33.165508 C58.9339158,33.1655173 59.3173588,33.1930926 60.2479952,33.316948 C61.0882391,33.1526832 61.3748415,32.8646123 61.3974638,32.4475435 Z" id="Path" fill-opacity="0.37" fill="#000000" fill-rule="nonzero"></path>
                <path d="M108.757599,28.9838943 C108.665753,28.8642977 108.572171,28.7339839 108.459705,28.5708022 C108.41628,28.5077947 108.371698,28.4423541 108.311293,28.3531421 C108.236012,28.2418328 108.194434,28.1803641 108.158897,28.1280183 C107.573481,26.9442781 106.827047,26.3079503 105.543908,25.9343445 C104.577368,25.6696732 103.236679,25.870114 102.453398,26.5465816 C101.92226,27.0052897 101.835222,27.0987086 100.231998,28.8767919 C99.4903847,29.6992905 98.9872032,30.225559 98.4674883,30.6997052 C98.2179334,30.927379 97.977567,31.1293145 97.7427289,31.306886 C95.0686792,33.328854 94.0215799,33.5539733 92.3609767,32.8264305 C91.9267615,32.6361924 91.2145687,32.2853019 90.1126266,31.7239966 L90.6936011,30.5834403 C91.7723359,31.1329244 92.471487,31.4773893 92.8746344,31.654016 C94.0623343,32.1743706 94.6364701,32.0509352 96.9707198,30.2859051 C97.1722266,30.1335368 97.382857,29.956583 97.6047968,29.754103 C98.0858671,29.3152131 98.5657475,28.8133149 99.2813659,28.0196462 C100.944121,26.1755401 101.024119,26.089676 101.616766,25.5778467 C102.753179,24.5964025 104.532783,24.3303413 105.891817,24.7025757 C107.517786,25.1758936 108.546191,26.0436483 109.242854,27.4458096 C109.671279,28.0768822 109.641632,28.033501 109.772778,28.2042714 C110.381985,28.9975454 110.897987,29.1203729 112.628937,28.6356125 C115.35756,28.2048985 119.112562,27.4227061 123.962963,26.2734046 C124.562602,26.2295162 125.475106,25.5835657 126.690906,24.3004755 C128.264513,22.6397761 138.675335,10.5512927 140.629287,8.19956461 C141.488955,7.16489056 143.564409,4.29413223 143.8734,3.74694935 C144.077689,3.38518088 144.262288,2.76346457 144.20145,2.42617757 C144.146166,2.11967724 143.782134,2.00907803 142.504757,2.41102498 C142.100052,2.53837187 137.633201,4.06798877 135.650966,4.70883253 C131.641115,6.00519098 127.520518,7.19813201 122.948396,8.33651131 L122.63914,7.09443217 C127.181271,5.96352022 131.274001,4.77864679 135.257216,3.49089941 C137.223507,2.85521033 141.696793,1.32338995 142.120557,1.19004588 C144.034567,0.587771997 145.236366,0.952899345 145.461123,2.19896609 C145.587146,2.8976445 145.325644,3.77836586 144.98797,4.37634191 C144.635719,5.00013069 142.518285,7.92895628 141.613808,9.01756155 C139.64272,11.3899146 129.218531,23.4939181 127.620038,25.1808808 C126.220526,26.6578501 125.121234,27.4469292 124.209193,27.5304994 C119.375214,28.6751906 115.619505,29.4576996 112.93737,29.8784308 C110.764231,30.4809069 109.710225,30.2243479 108.757599,28.9838943 Z" id="Path" fill-opacity="0.2" fill="#000000" fill-rule="nonzero"></path>
                <path d="M57.8530672,16.6732318 L57.9330277,17.9507319 C56.8278188,18.0199085 56.0356763,18.0492549 55.6179876,18.0365345 C54.597534,18.0365345 54.078422,18.0939205 53.8779118,18.2311354 C53.8213961,18.2698107 53.8573449,18.4815662 54.4409851,19.2281364 C55.2633769,20.2801087 57.072226,22.8806465 59.0937954,25.8873189 L58.031571,26.6015172 C56.0282969,23.6220554 54.2290054,21.0352583 53.4325644,20.0164813 C52.4556609,18.7668637 52.2863077,17.7692931 53.1550312,17.1748004 C53.6659525,16.8251621 54.2867563,16.7565345 55.6370354,16.756818 C56.0228636,16.7683062 56.7854842,16.7400534 57.8530672,16.6732318 Z" id="Path" fill-opacity="0.17" fill="#000000" fill-rule="nonzero"></path>
                <path d="M1.89548765,43.6791299 L2.77485754,42.7490178 C2.8887168,42.8566655 3.17669075,43.1078022 3.62108734,43.4866472 C4.60938162,44.3291614 6.36114308,45.7951854 8.76325316,47.7910439 L7.94524506,48.7755554 C5.53917898,46.7764099 3.78427024,45.307752 2.79068829,44.4607301 C2.32823962,44.0664957 2.03139826,43.807626 1.89548765,43.6791299 Z" id="Path" fill="#FF9219" fill-rule="nonzero"></path>
                <g id="Group-6" transform="translate(8.533333, 48.426667) rotate(-50.000000) translate(-8.533333, -48.426667) translate(7.466667, 47.360000)">
                    <rect id="Rectangle-2" fill="#000000" x="0" y="0" width="1" height="1"></rect>
                    <rect id="Rectangle-2-Copy-4" fill="#FFFFFF" x="0" y="0.64" width="1" height="1"></rect>
                    <rect id="Rectangle-2-Copy-7" fill="#000000" x="0" y="1.28" width="1" height="1"></rect>
                    <rect id="Rectangle-2-Copy" fill="#FFFFFF" x="0.64" y="0" width="1" height="1"></rect>
                    <rect id="Rectangle-2-Copy-5" fill="#000000" x="0.64" y="0.64" width="1" height="1"></rect>
                    <rect id="Rectangle-2-Copy-9" fill="#FFFFFF" x="0.64" y="1.28" width="1" height="1"></rect>
                    <rect id="Rectangle-2-Copy-3" fill="#000000" x="1.28" y="0" width="1" height="1"></rect>
                    <rect id="Rectangle-2-Copy-6" fill="#FFFFFF" x="1.28" y="0.64" width="1" height="1"></rect>
                    <rect id="Rectangle-2-Copy-10" fill="#000000" x="1.28" y="1.28" width="1" height="1"></rect>
                </g>
                <path d="M62.0146163,63.1645833 L62.6229496,63.1645833 C62.6521163,63.4083333 62.8979496,63.5645833 63.2521163,63.5645833 C63.5791996,63.5645833 63.8104496,63.40625 63.8104496,63.1791667 C63.8104496,62.9875 63.6604496,62.8770833 63.2916996,62.7979167 L62.900033,62.7145833 C62.3521163,62.6 62.0833663,62.3145833 62.0833663,61.85625 C62.0833663,61.2895833 62.5396163,60.9166667 63.2333663,60.9166667 C63.8958663,60.9166667 64.3646163,61.2875 64.3833663,61.8229167 L63.7916996,61.8229167 C63.762533,61.5854167 63.5416996,61.4270833 63.237533,61.4270833 C62.9229496,61.4270833 62.7146163,61.5729167 62.7146163,61.8020833 C62.7146163,61.9875 62.8583663,62.09375 63.2104496,62.16875 L63.5729496,62.2458333 C64.1771163,62.3729167 64.437533,62.6333333 64.437533,63.1 C64.437533,63.70625 63.9729496,64.0770833 63.218783,64.0770833 C62.5021163,64.0770833 62.037533,63.725 62.0146163,63.1645833 Z M65.6979496,64 L65.6979496,61.60625 L65.6604496,61.60625 L64.9229496,62.1145833 L64.9229496,61.5291667 L65.700033,60.99375 L66.3271163,60.99375 L66.3271163,64 L65.6979496,64 Z M60.9283663,66.7908333 L60.8016996,66.7908333 C60.6583663,66.6116667 60.5766996,66.3458333 60.5766996,66.06 C60.5766996,65.775 60.6458663,65.5683333 60.810033,65.3583333 L60.9308663,65.3583333 C60.810033,65.5 60.7241996,65.7908333 60.7241996,66.06 C60.7241996,66.32 60.7866996,66.5425 60.9283663,66.7908333 Z M61.130033,66.2458333 L61.2816996,66.2458333 C61.300033,66.3716667 61.420033,66.4516667 61.5908663,66.4516667 C61.752533,66.4516667 61.8716996,66.3641667 61.8716996,66.245 C61.8716996,66.1425 61.7966996,66.0775 61.6308663,66.0358333 L61.4766996,65.9958333 C61.2591996,65.9408333 61.165033,65.8425 61.165033,65.6716667 C61.165033,65.4675 61.3358663,65.3291667 61.590033,65.3291667 C61.822533,65.3291667 61.9958663,65.4675 62.0083663,65.6616667 L61.857533,65.6616667 C61.8366996,65.5383333 61.735033,65.465 61.585033,65.465 C61.425033,65.465 61.3191996,65.545 61.3191996,65.6666667 C61.3191996,65.7608333 61.385033,65.815 61.5508663,65.8575 L61.6766996,65.8908333 C61.9258663,65.9533333 62.0258663,66.05 62.0258663,66.2266667 C62.0258663,66.4475 61.8516996,66.5883333 61.5766996,66.5883333 C61.3216996,66.5883333 61.1458663,66.4533333 61.130033,66.2458333 Z M62.615033,65.7725 C62.4716996,65.7725 62.3716996,65.8775 62.3608663,66.0366667 L62.8558663,66.0366667 C62.852533,65.8775 62.757533,65.7725 62.615033,65.7725 Z M62.8516996,66.3275 L62.995033,66.3275 C62.9516996,66.4816667 62.8133663,66.5758333 62.6166996,66.5758333 C62.367533,66.5758333 62.2116996,66.3958333 62.2116996,66.1116667 C62.2116996,65.8291667 62.370033,65.6458333 62.6166996,65.6458333 C62.8591996,65.6458333 63.0066996,65.8183333 63.0066996,66.0975 L63.0066996,66.1525 L62.3608663,66.1525 L62.3608663,66.1591667 C62.3683663,66.3366667 62.467533,66.4491667 62.620033,66.4491667 C62.7358663,66.4491667 62.8141996,66.4066667 62.8516996,66.3275 Z M63.975033,65.9366667 L63.830033,65.9366667 C63.8066996,65.8475 63.727533,65.775 63.5983663,65.775 C63.4366996,65.775 63.335033,65.9041667 63.335033,66.1075 C63.335033,66.315 63.4383663,66.4466667 63.5983663,66.4466667 C63.7191996,66.4466667 63.8033663,66.3908333 63.830033,66.2891667 L63.975033,66.2891667 C63.9491996,66.4541667 63.815033,66.5758333 63.5991996,66.5758333 C63.347533,66.5758333 63.1866996,66.3933333 63.1866996,66.1075 C63.1866996,65.8275 63.3466996,65.6458333 63.5983663,65.6458333 C63.8166996,65.6458333 63.950033,65.7766667 63.975033,65.9366667 Z M64.2466996,65.4291667 L64.390033,65.4291667 L64.390033,65.6616667 L64.590033,65.6616667 L64.590033,65.7816667 L64.390033,65.7816667 L64.390033,66.29 C64.390033,66.3958333 64.430033,66.4408333 64.5233663,66.4408333 C64.5491996,66.4408333 64.5633663,66.44 64.590033,66.4375 L64.590033,66.5583333 C64.5616996,66.5633333 64.5341996,66.5666667 64.5058663,66.5666667 C64.3208663,66.5666667 64.2466996,66.4983333 64.2466996,66.3266667 L64.2466996,65.7816667 L64.1016996,65.7816667 L64.1016996,65.6616667 L64.2466996,65.6616667 L64.2466996,65.4291667 Z M65.1758663,66.4466667 C65.3458663,66.4466667 65.4416996,66.3233333 65.4416996,66.1108333 C65.4416996,65.8975 65.3458663,65.775 65.1758663,65.775 C65.0058663,65.775 64.910033,65.8975 64.910033,66.1108333 C64.910033,66.3233333 65.0058663,66.4466667 65.1758663,66.4466667 Z M65.1758663,66.5758333 C64.920033,66.5758333 64.7616996,66.3991667 64.7616996,66.1108333 C64.7616996,65.8216667 64.920033,65.6458333 65.1758663,65.6458333 C65.4316996,65.6458333 65.590033,65.8216667 65.590033,66.1108333 C65.590033,66.3991667 65.4316996,66.5758333 65.1758663,66.5758333 Z M65.815033,66.56 L65.815033,65.6616667 L65.9516996,65.6616667 L65.9516996,65.795 L65.965033,65.795 C65.9916996,65.7075 66.095033,65.6458333 66.2141996,65.6458333 C66.237533,65.6458333 66.267533,65.6475 66.2858663,65.65 L66.2858663,65.7933333 C66.2741996,65.79 66.222533,65.785 66.1941996,65.785 C66.057533,65.785 65.9583663,65.8766667 65.9583663,66.0033333 L65.9583663,66.56 L65.815033,66.56 Z M67.2333663,66.56 L67.2333663,65.5241667 L67.220033,65.5241667 L66.9141996,65.7458333 L66.9141996,65.5875 L67.2341996,65.3575 L67.3833663,65.3575 L67.3833663,66.56 L67.2333663,66.56 Z M67.712533,66.7908333 C67.8541996,66.5425 67.9166996,66.32 67.9166996,66.06 C67.9166996,65.7891667 67.8316996,65.4991667 67.7108663,65.3583333 L67.832533,65.3583333 C67.9966996,65.5683333 68.065033,65.775 68.065033,66.06 C68.065033,66.3441667 67.9833663,66.61 67.840033,66.7908333 L67.712533,66.7908333 Z" id="S1-(Sector-1)-Copy" fill="#C6C6C6"></path>
                <path d="M121.043158,15.8045833 L121.651491,15.8045833 C121.680658,16.0483333 121.926491,16.2045833 122.280658,16.2045833 C122.607741,16.2045833 122.838991,16.04625 122.838991,15.8191667 C122.838991,15.6275 122.688991,15.5170833 122.320241,15.4379167 L121.928575,15.3545833 C121.380658,15.24 121.111908,14.9545833 121.111908,14.49625 C121.111908,13.9295833 121.568158,13.5566667 122.261908,13.5566667 C122.924408,13.5566667 123.393158,13.9275 123.411908,14.4629167 L122.820241,14.4629167 C122.791075,14.2254167 122.570241,14.0670833 122.266075,14.0670833 C121.951491,14.0670833 121.743158,14.2129167 121.743158,14.4420833 C121.743158,14.6275 121.886908,14.73375 122.238991,14.80875 L122.601491,14.8858333 C123.205658,15.0129167 123.466075,15.2733333 123.466075,15.74 C123.466075,16.34625 123.001491,16.7170833 122.247325,16.7170833 C121.530658,16.7170833 121.066075,16.365 121.043158,15.8045833 Z M123.963991,14.53375 C123.963991,13.9525 124.409825,13.5566667 125.059825,13.5566667 C125.686908,13.5566667 126.124408,13.9170833 126.124408,14.43375 C126.124408,14.7608333 125.947325,15.0420833 125.426491,15.5316667 L124.851491,16.0795833 L124.851491,16.1170833 L126.168158,16.1170833 L126.168158,16.64 L123.999408,16.64 L123.999408,16.2004167 L124.980658,15.24 C125.403575,14.8275 125.509825,14.67125 125.509825,14.4754167 C125.509825,14.23375 125.313991,14.0629167 125.038991,14.0629167 C124.747325,14.0629167 124.547325,14.2545833 124.547325,14.5316667 L124.547325,14.5441667 L123.963991,14.5441667 L123.963991,14.53375 Z M120.117533,19.4308333 L119.990866,19.4308333 C119.847533,19.2516667 119.765866,18.9858333 119.765866,18.7 C119.765866,18.415 119.835033,18.2083333 119.9992,17.9983333 L120.120033,17.9983333 C119.9992,18.14 119.913366,18.4308333 119.913366,18.7 C119.913366,18.96 119.975866,19.1825 120.117533,19.4308333 Z M120.3192,18.8858333 L120.470866,18.8858333 C120.4892,19.0116667 120.6092,19.0916667 120.780033,19.0916667 C120.9417,19.0916667 121.060866,19.0041667 121.060866,18.885 C121.060866,18.7825 120.985866,18.7175 120.820033,18.6758333 L120.665866,18.6358333 C120.448366,18.5808333 120.3542,18.4825 120.3542,18.3116667 C120.3542,18.1075 120.525033,17.9691667 120.7792,17.9691667 C121.0117,17.9691667 121.185033,18.1075 121.197533,18.3016667 L121.0467,18.3016667 C121.025866,18.1783333 120.9242,18.105 120.7742,18.105 C120.6142,18.105 120.508366,18.185 120.508366,18.3066667 C120.508366,18.4008333 120.5742,18.455 120.740033,18.4975 L120.865866,18.5308333 C121.115033,18.5933333 121.215033,18.69 121.215033,18.8666667 C121.215033,19.0875 121.040866,19.2283333 120.765866,19.2283333 C120.510866,19.2283333 120.335033,19.0933333 120.3192,18.8858333 Z M121.8042,18.4125 C121.660866,18.4125 121.560866,18.5175 121.550033,18.6766667 L122.045033,18.6766667 C122.0417,18.5175 121.9467,18.4125 121.8042,18.4125 Z M122.040866,18.9675 L122.1842,18.9675 C122.140866,19.1216667 122.002533,19.2158333 121.805866,19.2158333 C121.5567,19.2158333 121.400866,19.0358333 121.400866,18.7516667 C121.400866,18.4691667 121.5592,18.2858333 121.805866,18.2858333 C122.048366,18.2858333 122.195866,18.4583333 122.195866,18.7375 L122.195866,18.7925 L121.550033,18.7925 L121.550033,18.7991667 C121.557533,18.9766667 121.6567,19.0891667 121.8092,19.0891667 C121.925033,19.0891667 122.003366,19.0466667 122.040866,18.9675 Z M123.1642,18.5766667 L123.0192,18.5766667 C122.995866,18.4875 122.9167,18.415 122.787533,18.415 C122.625866,18.415 122.5242,18.5441667 122.5242,18.7475 C122.5242,18.955 122.627533,19.0866667 122.787533,19.0866667 C122.908366,19.0866667 122.992533,19.0308333 123.0192,18.9291667 L123.1642,18.9291667 C123.138366,19.0941667 123.0042,19.2158333 122.788366,19.2158333 C122.5367,19.2158333 122.375866,19.0333333 122.375866,18.7475 C122.375866,18.4675 122.535866,18.2858333 122.787533,18.2858333 C123.005866,18.2858333 123.1392,18.4166667 123.1642,18.5766667 Z M123.435866,18.0691667 L123.5792,18.0691667 L123.5792,18.3016667 L123.7792,18.3016667 L123.7792,18.4216667 L123.5792,18.4216667 L123.5792,18.93 C123.5792,19.0358333 123.6192,19.0808333 123.712533,19.0808333 C123.738366,19.0808333 123.752533,19.08 123.7792,19.0775 L123.7792,19.1983333 C123.750866,19.2033333 123.723366,19.2066667 123.695033,19.2066667 C123.510033,19.2066667 123.435866,19.1383333 123.435866,18.9666667 L123.435866,18.4216667 L123.290866,18.4216667 L123.290866,18.3016667 L123.435866,18.3016667 L123.435866,18.0691667 Z M124.365033,19.0866667 C124.535033,19.0866667 124.630866,18.9633333 124.630866,18.7508333 C124.630866,18.5375 124.535033,18.415 124.365033,18.415 C124.195033,18.415 124.0992,18.5375 124.0992,18.7508333 C124.0992,18.9633333 124.195033,19.0866667 124.365033,19.0866667 Z M124.365033,19.2158333 C124.1092,19.2158333 123.950866,19.0391667 123.950866,18.7508333 C123.950866,18.4616667 124.1092,18.2858333 124.365033,18.2858333 C124.620866,18.2858333 124.7792,18.4616667 124.7792,18.7508333 C124.7792,19.0391667 124.620866,19.2158333 124.365033,19.2158333 Z M125.0042,19.2 L125.0042,18.3016667 L125.140866,18.3016667 L125.140866,18.435 L125.1542,18.435 C125.180866,18.3475 125.2842,18.2858333 125.403366,18.2858333 C125.4267,18.2858333 125.4567,18.2875 125.475033,18.29 L125.475033,18.4333333 C125.463366,18.43 125.4117,18.425 125.383366,18.425 C125.2467,18.425 125.147533,18.5166667 125.147533,18.6433333 L125.147533,19.2 L125.0042,19.2 Z M126.127533,18.3358333 C126.127533,18.1225 126.2892,17.9691667 126.512533,17.9691667 C126.728366,17.9691667 126.893366,18.1158333 126.893366,18.3066667 C126.893366,18.4316667 126.8367,18.5291667 126.6392,18.7408333 L126.350033,19.0516667 L126.350033,19.065 L126.913366,19.065 L126.913366,19.2 L126.135033,19.2 L126.135033,19.0966667 L126.550866,18.6425 C126.705866,18.4741667 126.743366,18.4091667 126.743366,18.3125 C126.743366,18.1925 126.640866,18.1 126.508366,18.1 C126.367533,18.1 126.272533,18.1941667 126.272533,18.3358333 L126.272533,18.3366667 L126.127533,18.3366667 L126.127533,18.3358333 Z M127.1367,19.4308333 C127.278366,19.1825 127.340866,18.96 127.340866,18.7 C127.340866,18.4291667 127.255866,18.1391667 127.135033,17.9983333 L127.2567,17.9983333 C127.420866,18.2083333 127.4892,18.415 127.4892,18.7 C127.4892,18.9841667 127.407533,19.25 127.2642,19.4308333 L127.1367,19.4308333 Z" id="S2-(Sector-2)-Copy" fill="#999999"></path>
                <path d="M33.9489913,35.8579167 L34.5573246,35.8579167 C34.5864913,36.1016667 34.8323246,36.2579167 35.1864913,36.2579167 C35.5135746,36.2579167 35.7448246,36.0995833 35.7448246,35.8725 C35.7448246,35.6808333 35.5948246,35.5704167 35.2260746,35.49125 L34.834408,35.4079167 C34.2864913,35.2933333 34.0177413,35.0079167 34.0177413,34.5495833 C34.0177413,33.9829167 34.4739913,33.61 35.1677413,33.61 C35.8302413,33.61 36.2989913,33.9808333 36.3177413,34.51625 L35.7260746,34.51625 C35.696908,34.27875 35.4760746,34.1204167 35.171908,34.1204167 C34.8573246,34.1204167 34.6489913,34.26625 34.6489913,34.4954167 C34.6489913,34.6808333 34.7927413,34.7870833 35.1448246,34.8620833 L35.5073246,34.9391667 C36.1114913,35.06625 36.371908,35.3266667 36.371908,35.7933333 C36.371908,36.3995833 35.9073246,36.7704167 35.153158,36.7704167 C34.4364913,36.7704167 33.971908,36.4183333 33.9489913,35.8579167 Z M37.6385746,35.3891667 L37.6385746,34.9204167 L38.0052413,34.9204167 C38.290658,34.9204167 38.484408,34.75375 38.484408,34.5079167 C38.484408,34.26625 38.296908,34.1120833 38.003158,34.1120833 C37.7114913,34.1120833 37.5177413,34.2766667 37.5010746,34.5370833 L36.9198246,34.5370833 C36.940658,33.9683333 37.3635746,33.61 38.0198246,33.61 C38.6364913,33.61 39.0802413,33.9475 39.0802413,34.4204167 C39.0802413,34.7683333 38.8614913,35.0391667 38.5260746,35.1079167 L38.5260746,35.1454167 C38.9385746,35.19125 39.196908,35.46625 39.196908,35.8620833 C39.196908,36.3891667 38.7010746,36.7704167 38.015658,36.7704167 C37.3448246,36.7704167 36.890658,36.3995833 36.8635746,35.8329167 L37.465658,35.8329167 C37.484408,36.0870833 37.6989913,36.2475 38.021908,36.2475 C38.3364913,36.2475 38.5552413,36.0704167 38.5552413,35.8141667 C38.5552413,35.5516667 38.3489913,35.3891667 38.0114913,35.3891667 L37.6385746,35.3891667 Z M33.0579496,39.4841667 L32.931283,39.4841667 C32.7879496,39.305 32.706283,39.0391667 32.706283,38.7533333 C32.706283,38.4683333 32.7754496,38.2616667 32.9396163,38.0516667 L33.0604496,38.0516667 C32.9396163,38.1933333 32.853783,38.4841667 32.853783,38.7533333 C32.853783,39.0133333 32.916283,39.2358333 33.0579496,39.4841667 Z M33.2596163,38.9391667 L33.411283,38.9391667 C33.4296163,39.065 33.5496163,39.145 33.7204496,39.145 C33.8821163,39.145 34.001283,39.0575 34.001283,38.9383333 C34.001283,38.8358333 33.926283,38.7708333 33.7604496,38.7291667 L33.606283,38.6891667 C33.388783,38.6341667 33.2946163,38.5358333 33.2946163,38.365 C33.2946163,38.1608333 33.4654496,38.0225 33.7196163,38.0225 C33.9521163,38.0225 34.1254496,38.1608333 34.1379496,38.355 L33.9871163,38.355 C33.966283,38.2316667 33.8646163,38.1583333 33.7146163,38.1583333 C33.5546163,38.1583333 33.448783,38.2383333 33.448783,38.36 C33.448783,38.4541667 33.5146163,38.5083333 33.6804496,38.5508333 L33.806283,38.5841667 C34.0554496,38.6466667 34.1554496,38.7433333 34.1554496,38.92 C34.1554496,39.1408333 33.981283,39.2816667 33.706283,39.2816667 C33.451283,39.2816667 33.2754496,39.1466667 33.2596163,38.9391667 Z M34.7446163,38.4658333 C34.601283,38.4658333 34.501283,38.5708333 34.4904496,38.73 L34.9854496,38.73 C34.9821163,38.5708333 34.8871163,38.4658333 34.7446163,38.4658333 Z M34.981283,39.0208333 L35.1246163,39.0208333 C35.081283,39.175 34.9429496,39.2691667 34.746283,39.2691667 C34.4971163,39.2691667 34.341283,39.0891667 34.341283,38.805 C34.341283,38.5225 34.4996163,38.3391667 34.746283,38.3391667 C34.988783,38.3391667 35.136283,38.5116667 35.136283,38.7908333 L35.136283,38.8458333 L34.4904496,38.8458333 L34.4904496,38.8525 C34.4979496,39.03 34.5971163,39.1425 34.7496163,39.1425 C34.8654496,39.1425 34.943783,39.1 34.981283,39.0208333 Z M36.1046163,38.63 L35.9596163,38.63 C35.936283,38.5408333 35.8571163,38.4683333 35.7279496,38.4683333 C35.566283,38.4683333 35.4646163,38.5975 35.4646163,38.8008333 C35.4646163,39.0083333 35.5679496,39.14 35.7279496,39.14 C35.848783,39.14 35.9329496,39.0841667 35.9596163,38.9825 L36.1046163,38.9825 C36.078783,39.1475 35.9446163,39.2691667 35.728783,39.2691667 C35.4771163,39.2691667 35.316283,39.0866667 35.316283,38.8008333 C35.316283,38.5208333 35.476283,38.3391667 35.7279496,38.3391667 C35.946283,38.3391667 36.0796163,38.47 36.1046163,38.63 Z M36.376283,38.1225 L36.5196163,38.1225 L36.5196163,38.355 L36.7196163,38.355 L36.7196163,38.475 L36.5196163,38.475 L36.5196163,38.9833333 C36.5196163,39.0891667 36.5596163,39.1341667 36.6529496,39.1341667 C36.678783,39.1341667 36.6929496,39.1333333 36.7196163,39.1308333 L36.7196163,39.2516667 C36.691283,39.2566667 36.663783,39.26 36.6354496,39.26 C36.4504496,39.26 36.376283,39.1916667 36.376283,39.02 L36.376283,38.475 L36.231283,38.475 L36.231283,38.355 L36.376283,38.355 L36.376283,38.1225 Z M37.3054496,39.14 C37.4754496,39.14 37.571283,39.0166667 37.571283,38.8041667 C37.571283,38.5908333 37.4754496,38.4683333 37.3054496,38.4683333 C37.1354496,38.4683333 37.0396163,38.5908333 37.0396163,38.8041667 C37.0396163,39.0166667 37.1354496,39.14 37.3054496,39.14 Z M37.3054496,39.2691667 C37.0496163,39.2691667 36.891283,39.0925 36.891283,38.8041667 C36.891283,38.515 37.0496163,38.3391667 37.3054496,38.3391667 C37.561283,38.3391667 37.7196163,38.515 37.7196163,38.8041667 C37.7196163,39.0925 37.561283,39.2691667 37.3054496,39.2691667 Z M37.9446163,39.2533333 L37.9446163,38.355 L38.081283,38.355 L38.081283,38.4883333 L38.0946163,38.4883333 C38.121283,38.4008333 38.2246163,38.3391667 38.343783,38.3391667 C38.3671163,38.3391667 38.3971163,38.3408333 38.4154496,38.3433333 L38.4154496,38.4866667 C38.403783,38.4833333 38.3521163,38.4783333 38.323783,38.4783333 C38.1871163,38.4783333 38.0879496,38.57 38.0879496,38.6966667 L38.0879496,39.2533333 L37.9446163,39.2533333 Z M39.321283,38.6991667 L39.321283,38.5708333 L39.4671163,38.5708333 C39.603783,38.5708333 39.7004496,38.4825 39.7004496,38.3575 C39.7004496,38.235 39.6079496,38.1533333 39.4696163,38.1533333 C39.331283,38.1533333 39.2404496,38.23 39.2279496,38.3591667 L39.0821163,38.3591667 C39.0971163,38.1508333 39.246283,38.0225 39.4754496,38.0225 C39.6854496,38.0225 39.8529496,38.1625 39.8529496,38.3375 C39.8529496,38.4808333 39.773783,38.5858333 39.6421163,38.6175 L39.6421163,38.6308333 C39.8054496,38.6516667 39.9046163,38.765 39.9046163,38.9291667 C39.9046163,39.1275 39.718783,39.2816667 39.481283,39.2816667 C39.2371163,39.2816667 39.068783,39.1458333 39.0579496,38.94 L39.2029496,38.94 C39.216283,39.0683333 39.3246163,39.1508333 39.4796163,39.1508333 C39.6379496,39.1508333 39.7504496,39.0566667 39.7504496,38.925 C39.7504496,38.7858333 39.6446163,38.6991667 39.473783,38.6991667 L39.321283,38.6991667 Z M40.116283,39.4841667 C40.2579496,39.2358333 40.3204496,39.0133333 40.3204496,38.7533333 C40.3204496,38.4825 40.2354496,38.1925 40.1146163,38.0516667 L40.236283,38.0516667 C40.4004496,38.2616667 40.468783,38.4683333 40.468783,38.7533333 C40.468783,39.0375 40.3871163,39.3033333 40.243783,39.4841667 L40.116283,39.4841667 Z" id="S3-(Sector-3)-Copy" fill="#666666"></path>
                <g id="Group-Copy-7" transform="translate(64.000000, 14.080000)">
                    <circle id="Oval-Copy-2" fill-opacity="0.7" fill="#FFFFFF" cx="2.56" cy="2.56" r="2.56"></circle>
                    <circle id="Oval-Copy-2" fill-opacity="0.2" fill="#D0021B" cx="2.56" cy="2.56" r="2.56"></circle>
                    <circle id="Oval" stroke="#D0021B" stroke-width="0.5" fill="#FFFFFF" cx="2.56" cy="2.56" r="1.70666667"></circle>
                    <circle id="Oval-Copy" fill="#D0021B" cx="2.56" cy="2.56" r="1"></circle>
                </g>
                <g id="Group-Copy-8" transform="translate(133.120000, 12.373333)">
                    <circle id="Oval-Copy-2" fill-opacity="0.7" fill="#FFFFFF" cx="2.56" cy="2.56" r="2.56"></circle>
                    <circle id="Oval-Copy-2" fill-opacity="0.2" fill="#FFB819" cx="2.56" cy="2.56" r="2.56"></circle>
                    <circle id="Oval" stroke="#FFB819" stroke-width="0.5" fill="#FFFFFF" cx="2.56" cy="2.56" r="1.70666667"></circle>
                    <circle id="Oval-Copy" fill="#FFB819" cx="2.56" cy="2.56" r="1"></circle>
                </g>
                <g id="Group-Copy-8" transform="translate(25.173333, 36.266667)">
                    <circle id="Oval-Copy-2" fill-opacity="0.7" fill="#FFFFFF" cx="2.56" cy="2.56" r="2.56"></circle>
                    <circle id="Oval-Copy-2" fill-opacity="0.2" fill="#FFB819" cx="2.56" cy="2.56" r="2.56"></circle>
                    <circle id="Oval" stroke="#FFB819" stroke-width="0.5" fill="#FFFFFF" cx="2.56" cy="2.56" r="1.70666667"></circle>
                    <circle id="Oval-Copy" fill="#FFB819" cx="2.56" cy="2.56" r="1"></circle>
                </g>
            </g>
        </g>
    </g>
</svg>